<?xml version="1.0" encoding="utf-8"?>
<!-- Generator: Adobe Illustrator 23.1.0, SVG Export Plug-In . SVG Version: 6.00 Build 0)  -->
<svg version="1.1" id="Layer_2" xmlns="http://www.w3.org/2000/svg" xmlns:xlink="http://www.w3.org/1999/xlink" x="0px" y="0px"
	 width="861.7720947px" height="1000px" viewBox="0 0 861.7720947 1000" enable-background="new 0 0 861.7720947 1000"
	 xml:space="preserve">
<path fill="#292929" d="M783.5049438,0H78.2534332C21.0808506,0,0,21.0808506,0,78.280777V768.343689
	c0,6.4801025,0.2597511,12.4954224,0.8476088,18.0732422c1.2850842,12.4953613,1.5311642,24.5806274,13.1516075,38.361145
	l12.9602127,10.1439209c6.384409,3.1443481,10.759161,5.4411011,17.922823,8.3394165l347.3008728,145.487915
	c18.0185242,8.2573853,25.5513,11.4837646,38.6618958,11.2376709h0.0546875h0.0273438
	c13.0969238,0.2460938,20.6296997-2.9802856,38.6618958-11.2376709l347.3008728-145.487915
	c7.1636353-2.8983154,11.5247192-5.1950684,17.9091187-8.3394165l12.973877-10.1439209
	c11.6068115-13.7805176,11.8665771-25.8657837,13.1516113-38.361145c0.5878906-5.5778198,0.8476563-11.5931396,0.8476563-18.0732422
	V78.280777C861.7720947,21.0808506,840.6775513,0,783.5049438,0"/>
<polygon fill="#FFFFFF" points="736.2849731,693.7814941 736.1072388,695.3946533 735.9431763,697.1172485 735.642395,698.7304077 
	735.1639404,700.3162842 734.8494873,701.7380371 734.3709717,703.3512573 733.7284546,704.7730713 733.0859375,706.0307617 
	732.4707031,707.4799194 731.6914673,708.7376709 730.8712158,710.0227661 729.9279175,711.2805176 729.1349487,712.538208 
	728.1916504,713.6592407 727.0706177,714.7802734 726.1409912,715.7373047 724.855896,716.8583374 723.762207,717.8153076 
	722.4771118,718.7722778 721.2194214,719.5378418 719.9616699,720.494812 718.5261841,721.3150635 717.1043701,721.9713135 
	715.6689453,722.7368774 714.0830688,723.3931274 712.5109253,724.0219727 710.911377,724.5140991 709.3391724,724.9789429 
	707.8900757,725.4711304 706.3178711,725.7718506 704.8960571,726.0726318 703.4606323,726.4007568 701.9020996,726.7288208 
	700.3026123,726.8928833 698.8807983,727.0569458 697.28125,727.1936646 695.5450439,727.3577271 693.9729004,727.5217896 
	692.3733521,727.5217896 690.637146,727.5217896 688.8735352,727.5217896 687.3150635,727.5217896 685.7155151,727.3577271 
	683.9793091,727.3577271 682.4071045,727.1936646 680.8212891,727.0569458 679.0576782,726.8928833 677.4855347,726.5374756 
	675.8859863,726.4007568 674.3138428,726.0726318 672.7279663,725.7718506 671.1557617,725.4711304 669.5562744,725.1156616 
	667.9703979,724.6508179 666.5349731,724.3500977 664.9627686,723.8579102 663.3769531,723.3931274 661.9414673,722.7368774 
	660.3829346,722.2720947 658.9475098,721.7799072 657.3479614,721.151062 655.9261475,720.494812 654.4907227,719.8933105 
	653.0689087,719.1003418 651.6470947,718.4714966 650.2116699,717.6512451 648.9539185,716.8583374 647.5184326,716.0927124 
	646.2606812,715.2724609 645.0029297,714.4795532 643.7178955,713.522583 642.460144,712.538208 641.2023926,711.6085815 
	639.9309692,710.6516113 638.8236084,709.6946411 637.5521851,708.5736084 638.5091553,707.3158569 639.6028442,706.1948242 
	640.5598145,704.9370728 641.6671753,703.6520386 642.6242065,702.5310059 643.5811768,701.2732544 644.6748657,699.9881592 
	645.6181641,698.8944702 646.7391968,697.609375 647.696167,696.4883423 648.8171997,695.2305908 649.7331543,693.9455566 
	650.7174683,692.8518677 651.8111572,691.5394287 652.7544556,690.2816772 653.8754883,689.1606445 654.8324585,687.8755493 
	656.09021,688.8325195 657.5256958,689.8168335 658.7834473,690.7738037 660.2052002,691.730835 661.4629517,692.4963989 
	662.8984375,693.4533691 664.156189,694.2736206 665.6053467,694.8751831 666.876709,695.6954346 668.2985229,696.3516235 
	669.7340088,696.953186 671.1557617,697.609375 672.5502319,698.0742188 674.0130615,698.7304077 675.5852051,699.1952515 
	677.1710815,699.6600342 678.5792236,700.1522217 680.1650391,700.4530029 681.7645874,700.7810669 683.336731,701.1091919 
	685.1003418,701.2732544 686.6724854,701.5740356 688.2583618,701.5740356 689.9945679,701.7380371 691.5941162,701.7380371 
	693.467041,701.7380371 695.2305908,701.5740356 696.8301392,701.2732544 698.2246094,700.9724731 699.6600342,700.6170044 
	700.9451294,700.1522217 702.0388184,699.4959717 703.3239136,698.5390015 704.25354,697.4453125 704.8960571,696.1602173 
	705.3745728,694.7384644 705.5386353,693.1525879 705.5386353,692.8518677 705.3745728,690.9105225 704.7320557,689.324707 
	703.9390869,688.2310181 702.8453979,687.2740479 701.5603638,686.2897339 700.3026123,685.6608276 698.8807983,685.0319824 
	697.28125,684.3757324 695.3809814,683.6101685 694.2872925,683.2546997 693.0158691,682.9539795 691.5941162,682.4891357 
	690.1723022,682.1610107 688.5727539,681.696228 686.9732666,681.368103 685.2370605,680.8759766 683.664856,680.5751953 
	681.9013062,680.1103516 680.3427734,679.7549438 678.7432251,679.2901001 677.1710815,678.9893188 675.5852051,678.4971924 
	674.1497803,678.0323486 672.5502319,677.7315674 671.1557617,677.2120972 669.7340088,676.7472534 668.2985229,676.255127 
	666.5349731,675.6535645 664.9627686,674.9973755 663.3769531,674.3684692 661.8047485,673.7122803 660.3829346,672.9467163 
	658.7834473,672.1264648 657.5256958,671.3334961 656.09021,670.5405884 654.8324585,669.6109619 653.5474243,668.7907104 
	652.4537354,667.8336792 651.3327026,666.7127075 650.2116699,665.5916748 649.2546997,664.4979858 648.3386841,663.3769531 
	647.5184326,662.2559204 646.7391968,660.9981689 645.9599609,659.5490112 645.3173828,658.4553223 644.8389282,657.1702271 
	644.3604126,655.7484741 643.881897,654.4907227 643.5811768,652.8775024 643.2393799,651.4557495 643.1026611,649.869873 
	642.9385986,648.2566528 642.7608643,646.5341187 642.7608643,644.756897 642.7608643,644.4561157 642.7608643,642.8702393 
	642.9385986,641.2570801 643.1026611,639.8352661 643.2393799,638.2494507 643.5811768,636.8276367 643.881897,635.378479 
	644.3604126,633.9293823 644.6748657,632.5075684 645.3173828,631.0857544 645.9599609,629.6366577 646.5751343,628.2148438 
	647.3543701,626.7930298 648.1746826,625.3438721 649.117981,624.0861816 650.0749512,622.8010864 651.1686401,621.5159912 
	652.2896729,620.3949585 653.3833618,619.137207 654.668457,618.0161743 655.762146,617.2232666 657.0471802,616.2662964 
	658.3049316,615.3093262 659.5626831,614.5163574 660.9981689,613.7234497 662.4199219,613.0946045 663.8417358,612.3016357 
	665.2772217,611.6454468 666.876709,611.180603 668.4352417,610.5517578 669.8707275,610.0869141 671.1557617,609.7315063 
	672.5502319,609.4307251 674.0130615,609.1026001 675.5852051,608.8018799 677.007019,608.4737549 678.5792236,608.3096924 
	680.1650391,608.1456299 681.7645874,608.0089111 683.336731,607.8448486 684.9362793,607.8448486 686.6724854,607.8448486 
	688.4360962,607.8448486 690.1723022,607.8448486 691.9085083,608.0089111 693.6447754,608.1456299 695.2305908,608.1456299 
	696.9668579,608.3096924 698.5663452,608.6104736 700.3026123,608.8018799 701.9020996,609.1026001 703.3239136,609.4307251 
	704.8960571,609.7315063 706.4956055,610.0869141 707.8900757,610.3876953 709.489563,610.8525391 710.911377,611.3446655 
	712.3468628,611.6454468 713.9326782,612.3016357 715.3681641,612.7664795 716.7626343,613.3953247 718.1980591,614.0515747 
	719.7839355,614.6804199 721.2194214,615.4733887 722.4771118,616.1295776 723.8989258,616.8951416 725.3344116,617.6880493 
	726.5921631,618.5083618 728.013916,619.465332 729.3126831,620.230896 730.5704346,621.21521 731.828186,622.1721802 
	733.0859375,623.1291504 732.1699219,624.3869019 731.3496704,625.6719971 730.4063721,626.9297485 729.4494019,628.2148438 
	728.5197754,629.6366577 727.7131958,630.8943481 726.7561646,632.2067871 725.8128662,633.4645386 725.0199585,634.7496338 
	724.0766602,636.0073853 723.1196899,637.2924194 722.3131104,638.5501709 721.3834229,639.9719849 720.4264526,641.2570801 
	719.4831543,642.5148315 718.6629028,643.8272095 717.7469482,645.0849609 716.461853,644.1279907 715.0263672,643.335083 
	713.7686157,642.5148315 712.5109253,641.5852051 711.0754395,640.9562988 709.7903442,640.1360474 708.395874,639.5071411 
	707.1107788,638.8782959 705.675354,638.2494507 704.4176025,637.5932007 702.9957886,637.128418 701.7243652,636.472168 
	699.9881592,636.0073853 698.4022827,635.5151978 696.8301392,635.050415 695.2305908,634.7496338 693.6447754,634.394165 
	692.0725708,634.0933838 690.4730835,633.9293823 688.8735352,633.7926636 687.4517212,633.6286011 685.8795776,633.6286011 
	683.9793091,633.6286011 682.243042,633.9293823 680.6435547,634.2574463 679.2217407,634.5855713 677.9639893,635.2144165 
	676.8429565,635.8706665 675.4075317,637.128418 674.4641724,638.5501709 673.848999,639.9719849 673.6712646,641.5852051 
	673.6712646,641.913269 673.848999,643.991272 674.6282349,645.7138672 675.270813,646.6708374 676.364502,647.7918701 
	677.7862549,648.5847778 679.0576782,649.3776855 680.6435547,650.0339355 682.4071045,650.635437 684.2937012,651.291687 
	685.5787964,651.5924072 686.8365479,652.0845947 688.2583618,652.4127197 689.6937866,652.8775024 691.2523193,653.2056274 
	693.0158691,653.6704102 694.7521362,654.1352539 696.4883423,654.6274414 698.2246094,654.9555054 699.8240967,655.4476929 
	701.5603638,655.9124756 703.1598511,656.2132568 704.7320557,656.7054443 706.3178711,657.1702271 707.7533569,657.6624146 
	709.3391724,658.154541 710.7746582,658.6193848 712.1691284,659.1115112 713.9326782,659.7130737 715.5048828,660.5059814 
	717.1043701,661.1348877 718.6629028,661.9551392 720.1257324,662.7480469 721.5201416,663.5409546 722.8189087,664.3339233 
	724.0766602,665.2908936 725.3344116,666.0838013 726.5921631,667.204834 727.8771973,668.3258667 728.9708862,669.6109619 
	730.0919189,670.7046509 731.0488892,671.9897461 731.9922485,673.411499 732.7851563,674.6692505 733.5643921,676.1184082 
	734.2069702,677.3761597 734.6854248,678.8252563 735.1639404,680.2470703 735.4646606,681.696228 735.8064575,683.2546997 
	736.1072388,684.8679199 736.2849731,686.4537354 736.4490356,688.2310181 736.4490356,689.9535522 736.4490356,690.2816772 
	736.4490356,692.0315552 "/>
<polygon fill="#FFFFFF" points="625.1525269,725.6077881 623.5529785,725.6077881 621.9671631,725.6077881 620.3949585,725.6077881 
	618.7954102,725.6077881 617.1959229,725.6077881 615.6373901,725.6077881 614.0379028,725.6077881 612.4656982,725.6077881 
	610.7021484,725.6077881 609.1436157,725.6077881 607.5441284,725.6077881 605.9719238,725.6077881 604.3861084,725.6077881 
	602.7865601,725.6077881 601.2144165,725.6077881 599.6148682,725.6077881 598.0290527,725.6077881 596.4568481,725.6077881 
	594.8572998,725.6077881 593.2988281,725.6077881 591.6992798,725.6077881 590.0997925,725.6077881 588.5275879,725.6077881 
	586.9417725,725.6077881 585.3695679,725.6077881 583.7700806,725.6077881 582.197876,725.6077881 580.6119995,725.6077881 
	578.8757935,725.6077881 577.2763062,725.6077881 575.6767578,725.6077881 574.1182251,725.6077881 572.5187378,725.6077881 
	570.9465332,725.6077881 569.3470459,725.6077881 567.7885132,725.6077881 566.1890259,725.6077881 564.5894775,725.6077881 
	563.0310059,725.6077881 561.4314575,725.6077881 559.859314,725.6077881 558.2597656,725.6077881 556.6738892,725.6077881 
	555.1017456,725.6077881 553.5021973,725.6077881 551.9163818,725.6077881 550.3441772,725.6077881 548.6079712,725.6077881 
	547.0084229,725.6077881 545.4362793,725.6077881 543.8504028,725.6077881 542.2509155,725.6077881 540.6787109,725.6077881 
	539.0928955,725.6077881 537.4933472,725.6077881 535.9211426,725.6077881 534.3216553,725.6077881 534.3216553,724.0219727 
	534.3216553,722.4360962 534.3216553,720.8502808 534.3216553,719.2370605 534.3216553,717.6512451 534.3216553,716.0927124 
	534.3216553,714.4795532 534.3216553,712.8936768 534.3216553,711.2805176 534.3216553,709.6946411 534.3216553,708.1088257 
	534.3216553,706.4956055 534.3216553,704.9370728 534.3216553,703.3512573 534.3216553,701.7380371 534.3216553,700.1522217 
	534.3216553,698.5390015 534.3216553,696.953186 534.3216553,695.5313721 534.3216553,693.9455566 534.3216553,692.3596802 
	534.3216553,690.7738037 534.3216553,689.1606445 534.3216553,687.5747681 534.3216553,685.9889526 534.3216553,684.3757324 
	534.3216553,682.789917 534.3216553,681.2313843 534.3216553,679.6182251 534.3216553,678.0323486 534.3216553,676.4465332 
	534.3216553,674.833313 534.3216553,673.2474976 534.3216553,671.6342773 534.3216553,670.0757446 534.3216553,668.4899292 
	534.3216553,666.876709 534.3216553,665.2908936 534.3216553,663.7050171 534.3216553,662.0918579 534.3216553,660.5059814 
	534.3216553,658.9475098 534.3216553,657.3342896 534.3216553,655.7484741 534.3216553,654.1352539 534.3216553,652.5767212 
	534.3216553,650.9909058 534.3216553,649.3776855 534.3216553,647.7918701 534.3216553,646.2059937 534.3216553,644.5928345 
	534.3216553,643.006958 534.3216553,641.4484863 534.3216553,639.8352661 534.3216553,638.4134521 534.3216553,636.8276367 
	534.3216553,635.2144165 534.3216553,633.6286011 534.3216553,632.0153809 534.3216553,630.4295654 534.3216553,628.8710327 
	534.3216553,627.2578735 534.3216553,625.6719971 534.3216553,624.0861816 534.3216553,622.4729614 534.3216553,620.887146 
	534.3216553,619.3012695 534.3216553,617.6880493 534.3216553,616.1295776 534.3216553,614.5163574 534.3216553,612.930542 
	534.3216553,611.3446655 534.3216553,609.7315063 535.9211426,609.7315063 537.4933472,609.7315063 539.0928955,609.7315063 
	540.6787109,609.7315063 542.2509155,609.7315063 543.8504028,609.7315063 545.4362793,609.7315063 547.0084229,609.7315063 
	548.6079712,609.7315063 550.1801147,609.7315063 551.7659912,609.7315063 553.3654785,609.7315063 554.9376831,609.7315063 
	556.5235596,609.7315063 557.9589844,609.7315063 559.531189,609.7315063 561.1170044,609.7315063 562.689209,609.7315063 
	564.2886963,609.7315063 565.8882446,609.7315063 567.4467773,609.7315063 569.0462646,609.7315063 570.645813,609.7315063 
	572.2042847,609.7315063 573.803833,609.7315063 575.3759766,609.7315063 576.9755249,609.7315063 578.5339966,609.7315063 
	580.1335449,609.7315063 581.7330322,609.7315063 583.2915649,609.7315063 584.8911133,609.7315063 586.4632568,609.7315063 
	588.0628052,609.7315063 589.6212769,609.7315063 591.2208252,609.7315063 592.8203125,609.7315063 594.3788452,609.7315063 
	595.9783325,609.7315063 597.5778809,609.7315063 599.1500244,609.7315063 600.7359009,609.7315063 602.3081055,609.7315063 
	603.7298584,609.7315063 605.3294067,609.7315063 606.9015503,609.7315063 608.5010986,609.7315063 610.0869141,609.7315063 
	611.6591187,609.7315063 613.258667,609.7315063 614.8171387,609.7315063 616.416687,609.7315063 618.0161743,609.7315063 
	619.5883789,609.7315063 621.1741943,609.7315063 622.7737427,609.7315063 624.3458862,609.7315063 625.9317627,609.7315063 
	625.9317627,611.3446655 625.9317627,612.7664795 625.9317627,614.352356 625.9317627,615.9655151 625.9317627,617.5513916 
	625.9317627,618.9731445 625.9317627,620.5863647 625.9317627,622.1721802 625.9317627,623.5939941 625.9317627,625.2072144 
	625.9317627,626.7930298 625.9317627,628.2148438 625.9317627,629.8280029 625.9317627,631.3865356 625.9317627,632.9723511 
	625.9317627,634.394165 625.9317627,636.0073853 624.3458862,636.0073853 622.7737427,636.0073853 621.1741943,636.0073853 
	619.5883789,636.0073853 618.0161743,636.0073853 616.416687,636.0073853 614.994873,636.0073853 613.3953247,636.0073853 
	611.8231812,636.0073853 610.2373047,636.0073853 608.6651611,636.0073853 607.0656128,636.0073853 605.4934692,636.0073853 
	603.9075928,636.0073853 602.3081055,636.0073853 600.7359009,636.0073853 599.1500244,636.0073853 597.5778809,636.0073853 
	595.9783325,636.0073853 594.5565796,636.0073853 592.9570313,636.0073853 591.3848877,636.0073853 589.7990112,636.0073853 
	588.2268066,636.0073853 586.6273193,636.0073853 585.0551147,636.0073853 583.4692993,636.0073853 581.869751,636.0073853 
	580.2976074,636.0073853 578.6980591,636.0073853 577.1122437,636.0073853 575.5400391,636.0073853 574.1182251,636.0073853 
	572.5187378,636.0073853 570.9465332,636.0073853 569.3470459,636.0073853 567.7885132,636.0073853 566.1890259,636.0073853 
	564.5894775,636.0073853 564.5894775,637.5932007 564.5894775,639.2064209 564.5894775,640.7922363 564.5894775,642.3781128 
	564.5894775,643.991272 564.5894775,645.4130859 564.5894775,646.9989624 564.5894775,648.5847778 564.5894775,650.1706543 
	564.5894775,651.7564697 564.5894775,653.3696899 564.5894775,654.9555054 566.1890259,654.9555054 567.7885132,654.9555054 
	569.3470459,654.9555054 570.9465332,654.9555054 572.5187378,654.9555054 574.1182251,654.9555054 575.6767578,654.9555054 
	577.2763062,654.9555054 578.6980591,654.9555054 580.2976074,654.9555054 581.869751,654.9555054 583.4692993,654.9555054 
	585.0551147,654.9555054 586.6273193,654.9555054 588.2268066,654.9555054 589.7990112,654.9555054 591.3848877,654.9555054 
	592.9570313,654.9555054 594.5565796,654.9555054 596.142395,654.9555054 597.7145996,654.9555054 599.3140869,654.9555054 
	600.8862915,654.9555054 602.4721069,654.9555054 604.0716553,654.9555054 605.6438599,654.9555054 607.0656128,654.9555054 
	608.6651611,654.9555054 610.2373047,654.9555054 611.8231812,654.9555054 613.3953247,654.9555054 614.994873,654.9555054 
	616.5806885,654.9555054 618.1528931,654.9555054 619.7524414,654.9555054 619.7524414,656.5413818 619.7524414,657.9905396 
	619.7524414,659.5490112 619.7524414,661.1348877 619.7524414,662.5839844 619.7524414,664.1698608 619.7524414,665.7556763 
	619.7524414,667.204834 619.7524414,668.7907104 619.7524414,670.3765259 619.7524414,671.9897461 619.7524414,673.411499 
	619.7524414,674.9973755 619.7524414,676.6105347 619.7524414,678.0323486 619.7524414,679.6182251 618.1528931,679.6182251 
	616.5806885,679.6182251 614.994873,679.6182251 613.3953247,679.6182251 611.8231812,679.6182251 610.2373047,679.6182251 
	608.6651611,679.6182251 607.0656128,679.6182251 605.6438599,679.6182251 604.0716553,679.6182251 602.4721069,679.6182251 
	600.8862915,679.6182251 599.3140869,679.6182251 597.7145996,679.6182251 596.142395,679.6182251 594.5565796,679.6182251 
	592.9570313,679.6182251 591.3848877,679.6182251 589.7990112,679.6182251 588.2268066,679.6182251 586.6273193,679.6182251 
	585.0551147,679.6182251 583.4692993,679.6182251 581.869751,679.6182251 580.2976074,679.6182251 578.6980591,679.6182251 
	577.2763062,679.6182251 575.6767578,679.6182251 574.1182251,679.6182251 572.5187378,679.6182251 570.9465332,679.6182251 
	569.3470459,679.6182251 567.7885132,679.6182251 566.1890259,679.6182251 564.5894775,679.6182251 564.5894775,681.2313843 
	564.5894775,682.9539795 564.5894775,684.5397949 564.5894775,686.1530151 564.5894775,687.8755493 564.5894775,689.4887695 
	564.5894775,691.074585 564.5894775,692.8518677 564.5894775,694.4103394 564.5894775,695.9962158 564.5894775,697.7734375 
	564.5894775,699.359314 566.1890259,699.359314 567.7885132,699.359314 569.3470459,699.359314 570.9465332,699.359314 
	572.5187378,699.359314 574.1182251,699.359314 575.6767578,699.359314 577.2763062,699.359314 578.8757935,699.359314 
	580.6119995,699.359314 582.197876,699.359314 583.7700806,699.359314 585.3695679,699.359314 586.9417725,699.359314 
	588.5275879,699.359314 590.0997925,699.359314 591.6992798,699.359314 593.2988281,699.359314 594.8572998,699.359314 
	596.4568481,699.359314 598.0290527,699.359314 599.6148682,699.359314 601.2144165,699.359314 602.7865601,699.359314 
	604.3861084,699.359314 605.9719238,699.359314 607.5441284,699.359314 609.1436157,699.359314 610.7021484,699.359314 
	612.4656982,699.359314 614.0379028,699.359314 615.6373901,699.359314 617.1959229,699.359314 618.7954102,699.359314 
	620.3949585,699.359314 621.9671631,699.359314 623.5529785,699.359314 625.1525269,699.359314 626.7246704,699.359314 
	626.7246704,700.9724731 626.7246704,702.3942871 626.7246704,703.9801025 626.7246704,705.5386353 626.7246704,707.1517944 
	626.7246704,708.5736084 626.7246704,710.1594849 626.7246704,711.772644 626.7246704,713.194458 626.7246704,714.7802734 
	626.7246704,716.3934937 626.7246704,717.8153076 626.7246704,719.401123 626.7246704,720.9869995 626.7246704,722.5728149 
	626.7246704,724.0219727 626.7246704,725.6077881 "/>
<polygon fill="#FFFFFF" points="509.3582153,725.6077881 507.7860413,725.6077881 506.1864929,725.6077881 504.4502869,725.6077881 
	502.850769,725.6077881 501.2649231,725.6077881 499.6927185,725.6077881 498.0932007,725.6077881 496.5346985,725.6077881 
	494.7711182,725.6077881 493.1989441,725.6077881 491.5994263,725.6077881 489.9999084,725.6077881 488.4414063,725.6077881 
	486.8418884,725.6077881 485.1056519,725.6077881 483.506134,725.6077881 481.9476318,725.6077881 480.348114,725.6077881 
	480.348114,724.0219727 480.348114,722.4360962 480.348114,720.8502808 480.348114,719.2370605 480.348114,717.6512451 
	480.348114,716.0380249 480.348114,714.4522095 480.348114,712.866333 480.348114,711.2531738 480.348114,709.6946411 
	480.348114,708.1088257 480.348114,706.4956055 480.348114,704.909729 480.348114,703.3239136 480.348114,701.7106934 
	480.348114,700.1248779 480.348114,698.5116577 480.348114,696.9258423 480.348114,695.3399658 480.348114,693.7268066 
	480.348114,692.1409302 480.348114,690.5824585 480.348114,688.9418945 480.348114,687.3834229 480.348114,685.7975464 
	480.348114,684.1843262 480.348114,682.5985107 480.348114,680.9852905 480.348114,679.3994751 480.348114,677.8135986 
	480.348114,676.2004395 480.348114,674.614563 480.348114,673.0560913 480.348114,671.4428711 480.348114,669.8570557 
	480.348114,668.2711792 480.348114,666.65802 480.348114,665.0721436 480.348114,663.4589233 480.348114,661.8731079 
	480.348114,660.2872314 480.348114,658.6740723 480.348114,657.0881958 479.5688477,658.373291 478.6118774,659.795105 
	477.8326111,661.0802002 476.8756409,662.3379517 476.096405,663.7870483 475.1120605,665.0721436 474.3328247,666.329895 
	473.5398865,667.7790527 472.5965881,669.0367432 471.8036804,670.3218384 470.8603516,671.5795898 470.0401001,673.0560913 
	469.0968018,674.3138428 468.3038635,675.598877 467.5245972,677.0206909 466.567627,678.3057861 465.7883911,679.5635376 
	464.8313904,680.9852905 464.0521545,682.2977295 463.0678406,683.555481 462.2885742,685.0046387 461.5093079,686.2623901 
	460.5523376,687.5474243 459.7731018,688.9692383 458.8161011,690.2543335 458.0095215,691.512085 457.0525513,692.8245239 
	456.2732849,694.2462769 455.4803467,695.5313721 454.5370483,696.7891235 453.7441406,698.2382813 452.8008118,699.4959717 
	451.9805603,700.7537231 451.037262,702.2302246 450.2443237,703.4879761 449.6291199,703.4879761 448.6584778,702.0388184 
	447.8655396,700.7537231 446.9222412,699.3319702 446.1293335,698.0742188 445.1860046,696.6524048 444.3657532,695.3673096 
	443.4497986,693.9455566 442.6295166,692.6331177 441.6862183,691.2113037 440.89328,689.9535522 439.9499817,688.5044556 
	439.1570435,687.2467041 438.2137451,685.7975464 437.3934937,684.5124512 436.4775085,683.0633545 435.6572571,681.805603 
	434.7139587,680.3837891 433.756958,679.0986938 432.9777222,677.6768799 432.020752,676.364502 431.2414856,674.942688 
	430.2845154,673.6849365 429.4779053,672.2357788 428.5482788,670.9780884 427.7416687,669.5562744 426.7846985,668.2711792 
	426.0054626,666.8220215 425.0484619,665.5369873 424.2692261,664.1151733 423.3122253,662.8300781 422.5056458,661.4082642 
	421.5760193,660.1505737 420.7694092,658.6740723 419.812439,657.4163208 419.812439,659.029541 419.812439,660.5880127 
	419.812439,662.1738892 419.812439,663.7870483 419.812439,665.3729248 419.812439,666.9587402 419.812439,668.5719604 
	419.812439,670.1577759 419.812439,671.7709961 419.812439,673.3568115 419.812439,674.7786255 419.812439,676.364502 
	419.812439,677.9776611 419.812439,679.5635376 419.812439,681.1766968 419.812439,682.7625732 419.812439,684.3483887 
	419.812439,685.9342651 419.812439,687.5200806 419.812439,689.105957 419.812439,690.7191162 419.812439,692.3049927 
	419.812439,693.9182129 419.812439,695.5040283 419.812439,697.0899048 419.812439,698.703064 419.812439,700.2889404 
	419.812439,701.8747559 419.812439,703.4606323 419.812439,705.0464478 419.812439,706.6323242 419.812439,708.2454834 
	419.812439,709.6946411 419.812439,711.2531738 419.812439,712.866333 419.812439,714.4522095 419.812439,716.0380249 
	419.812439,717.6512451 419.812439,719.2370605 419.812439,720.8502808 419.812439,722.4360962 419.812439,724.0219727 
	419.812439,725.6077881 418.2402649,725.6077881 416.6544189,725.6077881 415.0549011,725.6077881 413.4827271,725.6077881 
	411.8968506,725.6077881 410.3246765,725.6077881 408.7251587,725.6077881 407.1529846,725.6077881 405.5671387,725.6077881 
	403.9676208,725.6077881 402.3954468,725.6077881 400.8096008,725.6077881 399.2374268,725.6077881 397.6379089,725.6077881 
	396.0383911,725.6077881 394.4798584,725.6077881 392.8803406,725.6077881 391.2808228,725.6077881 389.7086487,725.6077881 
	389.7086487,724.0219727 389.7086487,722.4360962 389.7086487,720.8502808 389.7086487,719.2370605 389.7086487,717.6512451 
	389.7086487,716.0927124 389.7086487,714.4795532 389.7086487,712.8936768 389.7086487,711.2805176 389.7086487,709.6946411 
	389.7086487,708.1088257 389.7086487,706.4956055 389.7086487,704.9370728 389.7086487,703.3512573 389.7086487,701.7380371 
	389.7086487,700.1522217 389.7086487,698.5390015 389.7086487,696.953186 389.7086487,695.5313721 389.7086487,693.9455566 
	389.7086487,692.3596802 389.7086487,690.7738037 389.7086487,689.1606445 389.7086487,687.5747681 389.7086487,685.9889526 
	389.7086487,684.3757324 389.7086487,682.789917 389.7086487,681.2313843 389.7086487,679.6182251 389.7086487,678.0323486 
	389.7086487,676.4465332 389.7086487,674.833313 389.7086487,673.2474976 389.7086487,671.6342773 389.7086487,670.0757446 
	389.7086487,668.4899292 389.7086487,666.876709 389.7086487,665.2908936 389.7086487,663.7050171 389.7086487,662.0918579 
	389.7086487,660.5059814 389.7086487,658.9475098 389.7086487,657.3342896 389.7086487,655.7484741 389.7086487,654.1352539 
	389.7086487,652.5767212 389.7086487,650.9909058 389.7086487,649.3776855 389.7086487,647.7918701 389.7086487,646.2059937 
	389.7086487,644.5928345 389.7086487,643.006958 389.7086487,641.4484863 389.7086487,639.8352661 389.7086487,638.4134521 
	389.7086487,636.8276367 389.7086487,635.2144165 389.7086487,633.6286011 389.7086487,632.0153809 389.7086487,630.4295654 
	389.7086487,628.8710327 389.7086487,627.2578735 389.7086487,625.6719971 389.7086487,624.0861816 389.7086487,622.4729614 
	389.7086487,620.887146 389.7086487,619.3012695 389.7086487,617.6880493 389.7086487,616.1295776 389.7086487,614.5163574 
	389.7086487,612.930542 389.7086487,611.3446655 389.7086487,609.7315063 391.2808228,609.7315063 392.8803406,609.7315063 
	394.3021545,609.7315063 395.9016724,609.7315063 397.4738464,609.7315063 399.0733643,609.7315063 400.4951477,609.7315063 
	402.0673218,609.7315063 403.6531982,609.7315063 405.2527161,609.7315063 406.6608276,609.7315063 408.2466736,609.7315063 
	409.8461914,609.7315063 411.4183655,609.7315063 412.8401794,609.7315063 414.4396973,609.7315063 416.0392151,609.7315063 
	417.5977173,609.7315063 419.0331726,609.7315063 420.5916748,609.7315063 422.1912231,609.7315063 422.9841309,611.0166016 
	423.790741,612.4656982 424.7477112,613.7234497 425.526947,615.1452637 426.3062134,616.4303589 427.1264648,617.8521118 
	427.9057312,619.1098633 428.8627014,620.559021 429.6419678,621.8441162 430.4485474,623.1018677 431.2414856,624.5236206 
	432.020752,625.7813721 432.9777222,627.2305298 433.756958,628.4882813 434.5635681,629.9373779 435.3564758,631.1951294 
	436.2998047,632.4802246 437.0927124,633.9020386 437.8719788,635.159729 438.6785583,636.581543 439.4714966,637.8666382 
	440.4147949,639.3157959 441.2077332,640.5734863 442.0143127,641.9953003 442.807251,643.2530518 443.5864868,644.538147 
	444.5298157,645.9599609 445.3500671,647.2723389 446.1293335,648.6941528 446.9222412,649.9519043 447.7015076,651.3737183 
	448.6584778,652.6587524 449.4650879,654.0532227 450.2443237,655.3383179 451.037262,654.0532227 451.8438416,652.6587524 
	452.8008118,651.3737183 453.5800781,649.9519043 454.3593445,648.6941528 455.1522522,647.2723389 456.0955505,645.9599609 
	456.9158325,644.538147 457.6950684,643.2530518 458.4743347,641.9953003 459.4313049,640.5734863 460.2105713,639.3157959 
	461.0308228,637.8666382 461.8100891,636.581543 462.7670593,635.159729 463.5463257,633.9020386 464.3529053,632.4802246 
	465.1458435,631.1951294 465.9250793,629.9373779 466.8820801,628.4882813 467.6886597,627.2305298 468.4815979,625.7813721 
	469.2608337,624.5236206 470.2041321,623.1018677 470.9970703,621.8441162 471.8036804,620.559021 472.5965881,619.1098633 
	473.5398865,617.8521118 474.3328247,616.4303589 475.1120605,615.1452637 475.9186707,613.7234497 476.8756409,612.4656982 
	477.6549072,611.0166016 478.4751587,609.7315063 480.0336609,609.7315063 481.6332092,609.7315063 483.0686646,609.7315063 
	484.6271667,609.7315063 486.2266846,609.7315063 487.7988586,609.7315063 489.2206726,609.7315063 490.8201904,609.7315063 
	492.3923645,609.7315063 493.9782104,609.7315063 495.4136658,609.7315063 496.9995117,609.7315063 498.5716858,609.7315063 
	500.1712341,609.7315063 501.5930176,609.7315063 503.1651917,609.7315063 504.7647095,609.7315063 506.3232117,609.7315063 
	507.7860413,609.7315063 509.3582153,609.7315063 510.9440613,609.7315063 510.9440613,611.3446655 510.9440613,612.930542 
	510.9440613,614.5163574 510.9440613,616.1295776 510.9440613,617.6880493 510.9440613,619.3012695 510.9440613,620.887146 
	510.9440613,622.4729614 510.9440613,624.0861816 510.9440613,625.6719971 510.9440613,627.2578735 510.9440613,628.8710327 
	510.9440613,630.4295654 510.9440613,632.0153809 510.9440613,633.6286011 510.9440613,635.2144165 510.9440613,636.8276367 
	510.9440613,638.4134521 510.9440613,639.8352661 510.9440613,641.4484863 510.9440613,643.006958 510.9440613,644.5928345 
	510.9440613,646.2059937 510.9440613,647.7918701 510.9440613,649.3776855 510.9440613,650.9909058 510.9440613,652.5767212 
	510.9440613,654.1352539 510.9440613,655.7484741 510.9440613,657.3342896 510.9440613,658.9475098 510.9440613,660.5059814 
	510.9440613,662.0918579 510.9440613,663.7050171 510.9440613,665.2908936 510.9440613,666.876709 510.9440613,668.4899292 
	510.9440613,670.0757446 510.9440613,671.6342773 510.9440613,673.2474976 510.9440613,674.833313 510.9440613,676.4465332 
	510.9440613,678.0323486 510.9440613,679.6182251 510.9440613,681.2313843 510.9440613,682.789917 510.9440613,684.3757324 
	510.9440613,685.9889526 510.9440613,687.5747681 510.9440613,689.1606445 510.9440613,690.7738037 510.9440613,692.3596802 
	510.9440613,693.9455566 510.9440613,695.5313721 510.9440613,696.953186 510.9440613,698.5390015 510.9440613,700.1522217 
	510.9440613,701.7380371 510.9440613,703.3512573 510.9440613,704.9370728 510.9440613,706.4956055 510.9440613,708.1088257 
	510.9440613,709.6946411 510.9440613,711.2805176 510.9440613,712.8936768 510.9440613,714.4795532 510.9440613,716.0927124 
	510.9440613,717.6512451 510.9440613,719.2370605 510.9440613,720.8502808 510.9440613,722.4360962 510.9440613,724.0219727 
	510.9440613,725.6077881 "/>
<path fill="#FFFFFF" d="M376.1879272,724.1586914l-0.6425476-1.421814l-0.6152039-1.421814l-0.4784851-1.5858154
	l-0.6425476-1.4491577l-0.6152039-1.4217529l-0.6425171-1.421814l-0.6425476-1.421814l-0.6152039-1.4765015l-0.6425476-1.5584717
	l-0.6425476-1.421814l-0.4511414-1.4490967l-0.6425476-1.4491577l-0.6425476-1.421814l-0.6151733-1.421814l-0.6425476-1.5858154
	l-0.6562195-1.4491577l-0.6152039-1.4217529l-0.6425476-1.4491577l-0.4648132-1.421814l-0.6288757-1.4490967l-0.6425476-1.5858765
	l-0.6425171-1.421814l-0.6152039-1.4217529l-0.6425476-1.4491577l-0.6425476-1.421814l-0.6152039-1.4490967l-0.4784851-1.5585327
	l-0.6425476-1.4765015l-0.6152039-1.4217529l-0.6425171-1.421814l-0.6425476-1.421814l-0.6425476-1.4490967l-0.6288757-1.5858765
	l-0.6288757-1.421814l-0.4784851-1.4217529l-0.6152039-1.4765015l-0.6562195-1.421814l-0.6425171-1.4217529l-0.6425476-1.5858765
	l-0.6152039-1.4491577l-0.6425476-1.4217529l-0.6152039-1.421814l-0.4784851-1.421814l-0.6425476-1.4764404l-0.6425171-1.3944702
	l-0.6152039-1.5858765l-0.6425476-1.4217529l-0.6425476-1.4765015l-0.6152039-1.421814l-0.6425476-1.4217529l-0.4784851-1.421814
	l-0.6425476-1.6132202l-0.6152039-1.4217529l-0.656189-1.421814l-0.601532-1.421814l-0.6562195-1.4764404l-0.6425476-1.421814
	l-0.6152039-1.5858765l-0.4784851-1.4217529l-0.6425476-1.4491577l-0.6425171-1.421814l-0.6152039-1.4217529l-0.6425476-1.421814
	l-0.6152039-1.6132202l-0.6425476-1.4217529l-0.6425476-1.4491577l-0.4784851-1.421814l-0.6152039-1.4490967l-0.6425171-1.421814
	l-0.6152039-1.5858154l-0.6425476-1.421814l-0.6425476-1.4491577l-0.6562195-1.4491577l-0.6152039-1.4217529l-0.4784851-1.421814
	l-0.6288757-1.6131592l-0.6288452-1.421814l-0.6425476-1.421814l-0.6425476-1.421814h-1.5585022h-1.4354858h-1.5995178h-1.5585022
	h-1.5995178h-1.4354553h-1.5858459h-1.5721741h-1.5995483h-1.3944397h-1.5995178h-1.5995178h-1.5585022h-1.4354858h-1.5995178
	h-1.5858459h-1.5721741h-1.4217834h-1.5995178l-0.6152039,1.421814l-0.6425476,1.421814l-0.6425476,1.421814l-0.4784851,1.6131592
	l-0.6152039,1.421814l-0.6425476,1.4217529l-0.6425171,1.4491577l-0.6152039,1.4491577l-0.6562195,1.421814l-0.6425476,1.5858154
	l-0.6152039,1.421814l-0.4648132,1.4490967l-0.6562195,1.421814l-0.6425476,1.4491577l-0.6151733,1.4217529l-0.6425476,1.6132202
	l-0.6152039,1.421814l-0.6425476,1.4217529l-0.6152039,1.421814l-0.5058289,1.4491577l-0.6152039,1.4217529l-0.6425476,1.5858765
	l-0.6152039,1.421814l-0.6425171,1.4764404l-0.6425476,1.421814l-0.6288757,1.421814l-0.6425476,1.4217529l-0.4648132,1.6132202
	l-0.6425476,1.421814l-0.6288757,1.4217529l-0.6425171,1.421814l-0.6152039,1.4765015l-0.6425476,1.4217529l-0.6425476,1.5858765
	l-0.6152039,1.3944702l-0.4784851,1.4764404l-0.6425476,1.421814l-0.6425476,1.421814l-0.6151733,1.4217529l-0.6425476,1.4491577
	l-0.6425476,1.5858765l-0.6152039,1.4217529l-0.6562195,1.421814l-0.4648132,1.4765015l-0.6425476,1.4217529l-0.6152039,1.421814
	l-0.656189,1.5858765l-0.6425476,1.4490967l-0.6152039,1.421814l-0.6425476,1.421814l-0.6152039,1.4217529l-0.5058289,1.4765015
	l-0.6152039,1.5585327l-0.6425476,1.4490967l-0.6151733,1.421814l-0.6425476,1.4491577l-0.6425476,1.4217529l-0.6152039,1.421814
	l-0.6425476,1.5858765l-0.4784851,1.4490967l-0.6152039,1.421814l-0.6425476,1.4491577l-0.6425171,1.4217529l-0.6152039,1.4491577
	l-0.6425476,1.5858154l-0.6288757,1.421814l-0.6425476,1.421814l-0.4784851,1.4491577l-0.6425476,1.4490967l-0.6151886,1.421814
	l-0.6425476,1.5584717l-0.6425323,1.4765015l-0.6152039,1.421814l-0.6425476,1.421814l-0.6425476,1.4217529l-0.4784851,1.4491577
	l-0.6152039,1.5858154l-0.6425323,1.421814l-0.6425476,1.421814l-0.6152039,1.4490967h1.5585175h1.5995178h1.5721741h1.5995178
	h1.7362366h1.5858459h1.5721741h1.5995178h1.5858459h1.5721741h1.5995178h1.5995483h1.5585022h1.5995178h1.7362366h1.5721741
	h1.5858459h1.5995178h1.5721741h1.5995178l0.6425476-1.4490967l0.4648132-1.421814l0.6288757-1.421814l0.6425476-1.5858154
	l0.4784851-1.4491577l0.6425476-1.4217529l0.6151733-1.421814l0.4648438-1.421814l0.656189-1.4765015l0.6425476-1.4217529
	l0.4511414-1.421814l0.6288757-1.5858154l0.6562195-1.4491577l0.4648132-1.421814l0.6288757-1.421814h1.5858459h1.5995178h1.5721741
	h1.5858459h1.4354858h1.5721741h1.5858459h1.5721741h1.5995178h1.5858459h1.5721741h1.5995178h1.5585327h1.5995178h1.4354553
	h1.5585022h1.5995178h1.5995178h1.5721741h1.5858459h1.5722046h1.5995178h1.5995178h1.5585022h1.4354553h1.5858459h1.5721741
	h1.5995483h1.5721741l0.6425171,1.421814l0.4648438,1.421814l0.6425171,1.4491577l0.6288757,1.5858154l0.492157,1.421814
	l0.6288757,1.4217529l0.6425476,1.4765015l0.4648132,1.421814l0.6152039,1.421814l0.6562195,1.4217529l0.4648132,1.4491577
	l0.6562195,1.5858154l0.601532,1.421814l0.4784851,1.421814l0.6425476,1.4490967h1.5995178h1.5721741h1.4217834h1.5995178h1.5721741
	h1.5858459h1.5995483h1.4081116h1.5858459h1.5995178h1.5721741h1.5858459h1.5995178h1.4081421h1.5858459h1.5721741h1.5995178
	h1.5858459h1.4354858h1.5721741h1.5858459L376.1879272,724.1586914z M324.5384827,679.2901001h-1.5995178h-1.5722046h-1.5858459
	h-1.5721741h-1.5995178h-1.5995178h-1.5585022h-1.4354553h-1.5995178h-1.5585327h-1.5995178h-1.5721741h-1.5858459h-1.5995178
	h-1.5721741h-1.5858459l0.6425476-1.421814l0.4784851-1.4217529l0.6425476-1.6132202l0.6152039-1.421814l0.4648132-1.4490967
	l0.656189-1.4491577l0.6152039-1.5858765l0.6425476-1.4217529l0.4648132-1.4491577l0.6562195-1.4491577l0.6152039-1.4217529
	l0.4784851-1.5858765l0.6425476-1.4217529l0.6425476-1.4765015l0.4648132-1.421814l0.6288757-1.421814l0.6425476-1.6131592
	l0.6425171-1.421814l0.4375-1.4490967l0.656189-1.421814l0.6425476-1.6132202l0.4784851-1.4217529l0.6152039-1.4491577
	l0.6425476,1.4491577l0.4648132,1.4217529l0.6288757,1.6132202l0.6425476,1.421814l0.4784851,1.4490967l0.6425476,1.421814
	l0.6152039,1.6131592l0.4648132,1.421814l0.6562195,1.421814l0.6425171,1.4765015l0.4785156,1.4217529l0.6151733,1.5858765
	l0.4648438,1.4217529l0.6425171,1.4491577l0.6562195,1.4491577l0.4648132,1.4217529l0.6288757,1.5858765l0.6425476,1.4491577
	l0.4648132,1.4490967l0.6425476,1.421814l0.6288757,1.6132202l0.4648132,1.4217529l0.6562195,1.421814H324.5384827z"/>
<polygon fill="#FFFFFF" points="236.4281769,710.8156738 235.1704254,711.772644 234.0493927,712.538208 232.7779846,713.522583 
	231.4929047,714.3154907 230.2351532,715.2724609 228.977417,716.0927124 227.7196808,716.8583374 226.2568665,717.6512451 
	224.8624115,718.4714966 223.4269409,719.2370605 222.0051575,719.8933105 220.5833588,720.6588745 218.9838409,721.3150635 
	217.5757141,721.9713135 215.9898682,722.5728149 214.5543976,723.2290649 213.1325989,723.6938477 211.6971283,724.1586914 
	210.2753448,724.6508179 208.6758118,725.1156616 207.2813721,725.6077881 205.681839,725.9359131 204.2600555,726.2366943 
	202.6605225,726.5374756 201.0883484,726.8928833 199.4888306,727.0569458 197.7526093,727.1936646 196.166748,727.3577271 
	194.4305267,727.5217896 192.8310089,727.6585083 191.0947723,727.8498535 189.3585358,727.8498535 187.6223145,727.8498535 
	185.8587341,727.8498535 184.2865601,727.8498535 182.7007141,727.6585083 180.9644775,727.5217896 179.3649597,727.3577271 
	177.7927856,727.1936646 176.1932678,727.0569458 174.6074066,726.7288208 173.0352325,726.4007568 171.6134338,726.0726318 
	170.013916,725.7718506 168.5784607,725.2797241 167.0199432,724.9789429 165.5844879,724.5140991 164.1626892,723.8579102 
	162.7272186,723.3931274 161.1687164,722.7368774 159.7059021,722.1080322 158.3114471,721.479126 156.8759766,720.8502808 
	155.4541931,720.0300293 154.1690979,719.2370605 152.7609863,718.4714966 151.4758911,717.6512451 150.2181549,716.8583374 
	148.933075,715.9013062 147.6753235,714.9716797 146.4039154,714.0147095 145.2828827,713.0577393 144.2028656,712.0734253 
	143.0818329,710.9797363 141.9881439,710.0227661 140.8671112,708.9017334 139.7460785,707.7807007 138.7891083,706.659668 
	137.8457947,705.4019165 136.8888245,704.2808838 136.1095734,702.9957886 135.1525879,701.7380371 134.3733368,700.4530029 
	133.5804138,699.1952515 132.773819,697.7734375 131.9945679,696.4883423 131.3520203,695.0392456 130.7231445,693.6174316 
	130.0806122,692.1956177 129.4654083,690.7738037 128.9595795,689.4887695 128.3443756,688.0396118 128.0162659,686.6177979 
	127.5651245,685.1960449 127.2233505,683.6101685 126.7585297,682.1610107 126.4440918,680.5751953 126.2800369,679.1533813 
	125.9656067,677.5402222 125.8015518,676.1184082 125.6374969,674.5325317 125.5007858,672.9467163 125.3230591,671.3334961 
	125.3230591,669.6109619 125.3230591,667.9977417 125.3230591,667.6696777 125.3230591,666.0838013 125.5007858,664.3339233 
	125.5007858,662.7480469 125.6374969,661.1348877 125.8015518,659.4122925 126.1433258,657.8264771 126.2800369,656.2132568 
	126.6081467,654.7914429 127.0866394,653.2056274 127.4010696,651.5924072 127.8795624,650.1706543 128.3443756,648.5847778 
	128.8228607,647.1356201 129.4654083,645.5498047 130.0806122,644.1279907 130.7231445,642.7062378 131.3520203,641.2570801 
	131.9945679,639.8352661 132.773819,638.4134521 133.5804138,637.128418 134.3733368,635.8706665 135.1525879,634.5855713 
	135.9591827,633.3278198 136.8888245,632.0153809 137.8457947,630.7576294 138.7891083,629.4725952 139.7460785,628.3515625 
	140.8671112,627.2578735 141.8240967,626.1368408 142.9041138,625.0158081 144.0251465,623.8947754 145.1461792,622.9651489 
	146.4039154,621.8441162 147.5249481,620.887146 148.7826843,619.9301147 150.0540924,619.137207 151.3118439,618.2075806 
	152.5969238,617.3873291 153.8546753,616.5943604 155.2901306,615.8014526 156.7119293,615.0085449 158.133728,614.1882935 
	159.5691986,613.586731 160.9909821,612.930542 162.5631714,612.1376343 163.8482513,611.6454468 165.4204254,611.180603 
	166.8422241,610.5517578 168.2776947,610.2236328 169.6994781,609.7315063 171.2990112,609.4307251 172.7207947,608.9658813 
	174.292984,608.6104736 175.8925018,608.4737549 177.4646759,608.1456299 179.0505219,608.0089111 180.6226959,607.8448486 
	182.2222137,607.6808472 183.8217468,607.5167847 185.5442963,607.5167847 187.1438141,607.5167847 188.8800507,607.5167847 
	190.6162872,607.5167847 192.3798523,607.6808472 194.1160889,607.8448486 195.6882629,607.8448486 197.2877808,608.0089111 
	199.0240173,608.3096924 200.445816,608.4737549 202.0453339,608.8018799 203.6038361,609.1026001 205.0393066,609.4307251 
	206.4611053,609.7315063 207.8965607,610.0869141 209.3183594,610.5517578 210.75383,610.8525391 212.0115662,611.3446655 
	213.4333649,611.8095093 214.8688354,612.4656982 216.2906189,613.0946045 217.7260895,613.7234497 219.1478882,614.5163574 
	220.5833588,615.1452637 221.841095,615.9655151 223.2628937,616.7310791 224.5206299,617.5513916 225.9561005,618.3442993 
	227.2411804,619.3012695 228.4989319,620.0941772 229.7566681,621.0511475 231.0144043,622.0081787 232.3131714,623.1291504 
	233.5709076,624.0861816 232.6139374,625.3438721 231.4929047,626.4649048 230.5495911,627.75 229.4559021,629.0077515 
	228.4989319,630.2928467 227.5419464,631.3865356 226.4345856,632.6716309 225.4776154,633.9293823 224.5206299,635.050415 
	223.4269409,636.3354492 222.4836426,637.5932007 221.3626099,638.8782959 220.4056244,639.9719849 219.462326,641.2570801 
	218.3686371,642.5148315 217.4116516,643.8272095 216.2906189,644.9482422 215.3473206,646.2059937 214.0759125,645.2490234 
	212.818161,644.1279907 211.5330811,643.335083 210.2753448,642.3781128 209.0175934,641.5852051 207.7188416,640.7922363 
	206.4611053,639.9719849 205.0393066,639.2064209 203.7815552,638.5501709 202.523819,637.8939819 201.2250671,637.4291382 
	199.8032684,636.9643555 198.4088135,636.472168 196.9459991,636.1714478 195.3738251,635.8706665 193.7879791,635.5151978 
	192.2158051,635.378479 190.4795685,635.2144165 188.7160034,635.050415 186.9797668,635.050415 185.380249,635.050415 
	183.8217468,635.2144165 182.3862762,635.378479 180.7867584,635.706604 179.3649597,636.0073853 177.9294891,636.472168 
	176.5076904,636.9643555 175.1132507,637.5932007 173.6777802,638.2494507 172.3927002,639.0150146 171.1349487,639.8352661 
	169.8772125,640.6281738 168.7561798,641.5852051 167.6351471,642.5148315 166.5414581,643.4718018 165.5844879,644.5928345 
	164.4634552,645.7138672 163.5201416,646.9989624 162.7272186,648.0926514 161.9479675,649.3776855 161.1687164,650.8268433 
	160.3484497,652.0845947 159.7059021,653.5337524 159.227417,654.9555054 158.6122131,656.3773193 158.133728,657.9905396 
	157.832962,659.5490112 157.4911804,660.9981689 157.1904144,662.7480469 157.0263672,664.3339233 156.8759766,665.9470825 
	156.8759766,667.6696777 156.8759766,667.9977417 156.8759766,669.6109619 157.0263672,671.1694336 157.1904144,672.6185913 
	157.3271332,674.2044678 157.6689148,675.6535645 157.9696655,677.0753784 158.3114471,678.4971924 158.7899323,679.9462891 
	159.227417,681.2313843 159.8699493,682.789917 160.5261688,684.2390137 161.3054199,685.6608276 162.084671,686.9459229 
	162.9049377,688.2310181 163.8482513,689.4887695 164.8052216,690.6098022 165.8989105,691.730835 166.8422241,692.8518677 
	167.9632568,693.7814941 169.220993,694.7384644 170.4924164,695.6954346 171.7501526,696.4883423 173.0352325,697.28125 
	174.4570313,697.9101563 175.8925018,698.5390015 177.3142853,699.1952515 178.8864746,699.6600342 180.4859924,700.1522217 
	182.0855103,700.4530029 183.6440125,700.7810669 185.2435303,700.9724731 186.9797668,701.1091919 188.7160034,701.1091919 
	190.6162872,701.1091919 192.3798523,700.9724731 194.1160889,700.7810669 195.6882629,700.6170044 197.2877808,700.3162842 
	198.8736267,699.9881592 200.445816,699.4959717 201.8675995,699.1952515 203.3030701,698.5390015 204.5608215,697.9101563 
	205.9962769,697.28125 207.1036377,696.6524048 208.375061,695.8594971 208.375061,694.2736206 208.375061,692.6604614 
	208.375061,691.074585 208.375061,689.4887695 208.375061,687.7388306 208.375061,686.1530151 208.375061,684.5397949 
	208.375061,682.9539795 208.375061,681.368103 206.8028717,681.368103 205.3400726,681.368103 203.7815552,681.368103 
	202.1820374,681.368103 200.6098633,681.368103 199.1880646,681.368103 197.5885468,681.368103 196.0163727,681.368103 
	194.4305267,681.368103 192.9950562,681.368103 191.4092102,681.368103 189.8370361,681.368103 188.2375031,681.368103 
	186.8157196,681.368103 185.2435303,681.368103 185.2435303,679.7549438 185.2435303,678.3331299 185.2435303,676.7472534 
	185.2435303,675.161438 185.2435303,673.5755615 185.2435303,672.1264648 185.2435303,670.5405884 185.2435303,668.9547119 
	185.2435303,667.3688965 185.2435303,665.9470825 185.2435303,664.3339233 185.2435303,662.7480469 185.2435303,661.1348877 
	185.2435303,659.7130737 185.2435303,658.154541 186.8157196,658.154541 188.4015656,658.154541 190.0010834,658.154541 
	191.5732574,658.154541 193.1727753,658.154541 194.7312927,658.154541 196.3308105,658.154541 197.9303284,658.154541 
	199.4888306,658.154541 201.0883484,658.154541 202.6605225,658.154541 204.2600555,658.154541 205.8185577,658.154541 
	207.4180756,658.154541 209.0175934,658.154541 210.5760956,658.154541 212.1756287,658.154541 213.7478027,658.154541 
	215.3473206,658.154541 216.9331665,658.154541 218.5053406,658.154541 220.1048584,658.154541 221.6907196,658.154541 
	223.2628937,658.154541 224.8624115,658.154541 226.4345856,658.154541 228.0204315,658.154541 229.5926208,658.154541 
	231.1921387,658.154541 232.7779846,658.154541 234.3501587,658.154541 235.9496765,658.154541 237.5218658,658.154541 
	237.5218658,659.7130737 237.5218658,661.3262329 237.5218658,662.9121094 237.5218658,664.3339233 237.5218658,665.9470825 
	237.5218658,667.532959 237.5218658,669.0914307 237.5218658,670.7046509 237.5218658,672.2904663 237.5218658,673.7122803 
	237.5218658,675.3255005 237.5218658,676.9113159 237.5218658,678.4971924 237.5218658,680.1103516 237.5218658,681.696228 
	237.5218658,683.2546997 237.5218658,684.7312012 237.5218658,686.2897339 237.5218658,687.8755493 237.5218658,689.4887695 
	237.5218658,691.074585 237.5218658,692.6604614 237.5218658,694.2736206 237.5218658,695.6954346 237.5218658,697.28125 
	237.5218658,698.8944702 237.5218658,700.4530029 237.5218658,702.0388184 237.5218658,703.6520386 237.5218658,705.0737915 
	237.5218658,706.659668 237.5218658,708.2728271 237.5218658,709.8587036 "/>
<polygon fill="#FFFFFF" points="185.4622803,347.6016235 254.1322632,347.6016235 254.1322632,294.475708 185.4622803,294.475708 
	185.4622803,186.0091248 256.8801575,186.0091248 256.8801575,132.8831787 127.1413193,132.8831787 127.1413193,516.3031006 
	257.9465027,516.3031006 257.9465027,463.1771851 185.4622803,463.1771851 "/>
<path fill="#FFFFFF" d="M677.4035034,359.1127014v86.538147c0,15.3389587-7.081665,22.447937-21.8190918,22.447937h-10.8822021
	c-15.2706299,0-22.3522949-7.1089783-22.3522949-22.447937V203.5354767c0-15.338974,7.081665-22.4479523,22.3522949-22.4479523
	h9.7885132c14.7374268,0,21.8190918,7.1089783,21.8190918,22.4479523v75.0543976h57.2272339V200.227066
	c0-47.6027985-22.8991089-70.624939-70.3104858-70.624939h-28.3538818c-47.3977661,0-70.8710327,23.5416412-70.8710327,71.1991272
	v247.5838165c0,47.6574707,23.4732666,71.1990967,70.8710327,71.1990967h28.8870239
	c47.4387817,0,70.8710327-23.541626,70.8710327-71.1990967v-89.2723694H677.4035034z"/>
<rect x="474.8523254" y="132.8831787" fill="#FFFFFF" width="58.3209534" height="383.4199524"/>
<path fill="#FFFFFF" d="M390.2281494,303.2252197c0,15.3389893-7.0816345,22.4479675-21.8054199,22.4479675h-23.9654541V184.3685913
	h23.9654541c14.7237854,0,21.8054199,7.1089783,21.8054199,22.4479523V303.2252197z M377.6917419,132.8831787h-91.5827637
	v383.4199219h58.3482971V377.1585693h33.2344666c47.4250793,0,70.8573608-23.5416565,70.8573608-71.1991272v-101.877121
	C448.5491028,156.4248352,425.1168213,132.8831787,377.6917419,132.8831787"/>
<polygon fill="#FFFFFF" points="264.727356,862.9750977 598.6168823,862.9750977 428.1791687,919.1907349 "/>
</svg>
