<svg id="Слой_1" data-name="Слой 1" xmlns="http://www.w3.org/2000/svg" viewBox="0 0 312.8175 246.30901">
  <defs>
    <style>
      .cls-1 {
        fill: #e8410f;
      }

      .cls-2 {
        fill: #ef7403;
      }
    </style>
  </defs>
  <title>Vkusno I Tochka symbol</title>
  <g>
    <circle class="cls-1" cx="57.65727" cy="188.65174" r="57.65727"/>
    <path class="cls-2" d="M112.78343,2.28665A4.585,4.585,0,0,0,106.30681.74672,57.19984,57.19984,0,0,0,83.95022,28.25555q-.33366.87978-.63143,1.7519a54.98209,54.98209,0,0,0,4.778,45.16933q48.31814,83.65778,96.63627,167.3156a4.58491,4.58491,0,0,0,6.28092,1.66325,52.0521,52.0521,0,0,0,17.7693-16.79137c6.96534-10.85287,8.40824-22.45423,7.78006-32.17724a65.91065,65.91065,0,0,0-8.87442-28.652Q160.23616,84.41088,112.78343,2.28665Z"/>
    <path class="cls-2" d="M208.90488,2.28665A4.585,4.585,0,0,0,202.42826.74672a57.19984,57.19984,0,0,0-22.35659,27.50883q-.33366.87978-.63143,1.7519a54.98213,54.98213,0,0,0,4.778,45.16933q48.31813,83.65778,96.63627,167.3156a4.58491,4.58491,0,0,0,6.28092,1.66325,52.052,52.052,0,0,0,17.7693-16.79137c6.96534-10.85287,8.40825-22.45423,7.78006-32.17724a65.91052,65.91052,0,0,0-8.87442-28.652Q256.35761,84.41088,208.90488,2.28665Z"/>
  </g>
</svg>
