<?xml version="1.0" encoding="UTF-8" standalone="no"?>
<!-- Created with Inkscape (http://www.inkscape.org/) -->

<svg
   version="1.1"
   id="svg2"
   xml:space="preserve"
   width="1728.8051"
   height="2654.7366"
   viewBox="0 0 1728.805 2654.7366"
   sodipodi:docname="8506e25bc5c7ebb82c3f160ff8d5c82a.ai"
   xmlns:inkscape="http://www.inkscape.org/namespaces/inkscape"
   xmlns:sodipodi="http://sodipodi.sourceforge.net/DTD/sodipodi-0.dtd"
   xmlns="http://www.w3.org/2000/svg"
   xmlns:svg="http://www.w3.org/2000/svg"><defs
     id="defs6"><clipPath
       clipPathUnits="userSpaceOnUse"
       id="clipPath16"><path
         d="M 0,1991.053 H 1296.604 V 0 H 0 Z"
         id="path14" /></clipPath></defs><sodipodi:namedview
     id="namedview4"
     pagecolor="#ffffff"
     bordercolor="#666666"
     borderopacity="1.0"
     inkscape:pageshadow="2"
     inkscape:pageopacity="0.0"
     inkscape:pagecheckerboard="0" /><g
     id="g8"
     inkscape:groupmode="layer"
     inkscape:label="8506e25bc5c7ebb82c3f160ff8d5c82a"
     transform="matrix(1.3333333,0,0,-1.3333333,-2.6666666e-4,2654.7371)"><g
       id="g10"><g
         id="g12"
         clip-path="url(#clipPath16)"><g
           id="g18"
           transform="translate(1244.218,1394.4955)"><path
             d="M 0,0 C 0,329.459 -267.144,596.528 -596.457,596.528 -925.766,596.528 -1192.909,329.459 -1192.909,0 V -0.594 -464.85 c 0,-10.608 8.53,-19.288 19.289,-19.288 H -19.289 c 10.609,0 19.289,8.68 19.289,19.288 z"
             style="fill:#ffffff;fill-opacity:1;fill-rule:nonzero;stroke:none"
             id="path20" /></g><g
           id="g22"
           transform="translate(1121.7737,1416.2094)"><path
             d="m 0,0 c -20.33,50.297 -194.294,12.537 -436.439,-117.362 -236.504,-126.933 -375.825,-273.821 -354.978,-317.442 22.183,-46.217 265.066,-13.724 460.103,94.29 C -66.842,-194.146 25.37,-62.539 0,0"
             style="fill:#242120;fill-opacity:1;fill-rule:nonzero;stroke:none"
             id="path24" /></g><g
           id="g26"
           transform="translate(552.9827,1050.4808)"><path
             d="m 0,0 c -41.549,-0.816 -79.679,15.727 -107.127,42.879 54.747,55.12 137.984,116.175 237.174,170.108 8.974,-18.769 14.539,-39.541 14.982,-61.722 C 146.587,69.438 81.752,1.78 0,0"
             style="fill:#ffffff;fill-opacity:1;fill-rule:nonzero;stroke:none"
             id="path28" /></g><g
           id="g30"
           transform="translate(179.1819,941.7386)"><path
             d="m 0,0 c 10.977,-11.276 20.843,-19.586 47.553,-29.229 0.516,-0.149 6.452,-2.152 6.452,-2.152 h -162.616 c -10.682,0 -19.212,8.68 -19.212,19.288 v 464.255 0.594 c 0,199.56 97.926,376.27 248.52,484.582 l -6.896,-8.16 C 97.85,908.851 99.928,889.488 109.572,863.746 115.875,846.386 96.885,826.579 86.797,815.524 43.474,767.897 0.666,703.727 -4.306,592.3 -8.829,490.442 21.214,400.084 31.451,352.383 c 10.831,-50.446 12.538,-66.916 13.208,-76.708 38.502,32.493 79.674,64.244 121.295,93.325 66.837,44.066 121.218,76.708 168.771,102.303 106.754,57.42 134.053,51.262 49.78,2.077 C 300.375,423.972 218.329,366.997 162.834,316.922 -55.272,120.329 -22.703,23.146 0,0"
             style="fill:#242120;fill-opacity:1;fill-rule:nonzero;stroke:none"
             id="path32" /></g><g
           id="g34"
           transform="translate(1244.218,929.639)"><path
             d="m 0,0 c 0,-10.609 -8.68,-19.289 -19.289,-19.289 h -754.618 c 0,0 10.238,2.151 10.831,2.3 99.483,20.624 214.543,61.5 332.944,127.599 233.389,120.775 386.361,276.492 426.791,389.995 l 1.857,5.268 c 0,0 0.149,-1.706 0.371,-5.119 C -0.521,491.332 0,476.866 0,464.849 V 0"
             style="fill:#242120;fill-opacity:1;fill-rule:nonzero;stroke:none"
             id="path36" /></g><g
           id="g38"
           transform="translate(387.1057,1931.1849)"><path
             d="m 0,0 v 0 c 78.709,38.354 167.212,59.868 260.61,59.868 275.974,0 508.248,-187.542 576.277,-442.073 -0.146,0.148 -8.825,8.457 -30.193,17.879 -14.616,6.453 -35.907,12.389 -64.614,17.804 -36.948,6.899 -74.557,8.902 -116.472,31.826 -76.043,41.618 -177.305,219.59 -339.473,266.624 -77.529,22.478 -137.098,13.279 -161.653,8.976 -13.13,-2.3 -40.135,-5.119 -49.63,7.419 C 55.64,-6.454 41.173,8.383 11.274,2.894 7.417,2.151 0,0 0,0"
             style="fill:#242120;fill-opacity:1;fill-rule:nonzero;stroke:none"
             id="path40" /></g><g
           id="g42"
           transform="translate(109.0432,416.0472)"><path
             d="m 0,0 h 86.56 v 281.647 h 109.471 v 74.847 H -109.043 V 281.647 H 0 Z"
             style="fill:#242120;fill-opacity:1;fill-rule:nonzero;stroke:none"
             id="path44" /></g><g
           id="g46"
           transform="translate(424.8763,665.5424)"><path
             d="M 0,0 43.323,-126.268 H -46.34 Z m -93.193,-249.521 19.895,51.936 H 69.767 l 19.377,-51.936 h 96.209 L 39.707,107.06 h -72.781 l -151.765,-356.581 z"
             style="fill:#242120;fill-opacity:1;fill-rule:nonzero;stroke:none"
             id="path48" /></g><g
           id="g50"
           transform="translate(778.5706,409.9154)"><path
             d="M 0,0 C 69.766,0 116.104,26.958 149.263,64.682 L 77.431,118.17 C 62.186,97.241 36.691,80.445 -2.068,80.445 c -57.018,0 -89.491,43.841 -89.491,103.873 0,60.637 33.506,104.907 92.592,104.907 34.623,0 57.535,-17.312 71.317,-38.671 l 70.197,50.385 c -31.526,39.793 -75.364,67.785 -141.514,67.785 -120.067,0 -183.717,-82.512 -183.717,-184.406 C -182.684,82.511 -119.549,0 0,0"
             style="fill:#242120;fill-opacity:1;fill-rule:nonzero;stroke:none"
             id="path52" /></g><g
           id="g54"
           transform="translate(1114.7825,699.1849)"><path
             d="m 0,0 c 57.018,0 90.607,-44.272 90.607,-104.909 0,-59.602 -33.589,-103.359 -90.607,-103.359 -57.537,0 -91.127,43.757 -91.127,103.359 C -91.127,-44.272 -57.537,0 0,0 m 0,-289.228 c 112.487,0 181.822,82.512 181.822,184.319 0,101.807 -69.335,184.405 -181.822,184.405 -113.606,0 -182.339,-82.598 -182.339,-184.405 0,-101.807 68.733,-184.319 182.339,-184.319"
             style="fill:#242120;fill-opacity:1;fill-rule:nonzero;stroke:none"
             id="path56" /></g><g
           id="g58"
           transform="translate(242.4085,74.3471)"><path
             d="M 0,0 H -51.421 V 73.813 H 1.548 c 46.341,0 66.149,-10.164 66.149,-37.122 C 67.697,8.18 52.452,0 0,0 m -51.421,212.827 h 34.108 c 41.774,0 58.568,-8.613 58.568,-34.107 0,-26.958 -16.365,-37.209 -48.835,-37.209 h -43.841 z m 129.885,-94.14 c 34.107,16.796 49.352,39.707 49.352,79.413 0,52.969 -41.685,83.978 -123.768,83.978 H -133.418 V -74.331 H 21.359 c 90.697,0 134.537,33.074 134.537,102.322 0,47.802 -27.046,79.93 -77.432,90.696"
             style="fill:#242120;fill-opacity:1;fill-rule:nonzero;stroke:none"
             id="path60" /></g><g
           id="g62"
           transform="translate(519.7581,144.1312)"><path
             d="M 0,0 H 150.729 V 72.35 H 0 v 65.113 h 180.788 v 74.849 H -86.562 V -144.097 H 184.836 V -69.25 H 0 Z"
             style="fill:#242120;fill-opacity:1;fill-rule:nonzero;stroke:none"
             id="path64" /></g><g
           id="g66"
           transform="translate(833.593,356.4965)"><path
             d="m 0,0 h -86.562 v -356.496 h 243.923 v 74.847 H 0 Z"
             style="fill:#242120;fill-opacity:1;fill-rule:nonzero;stroke:none"
             id="path68" /></g><g
           id="g70"
           transform="translate(1119.8137,356.4965)"><path
             d="M 0,0 H -86.562 V -356.496 H 157.36 v 74.847 H 0 Z"
             style="fill:#242120;fill-opacity:1;fill-rule:nonzero;stroke:none"
             id="path72" /></g></g></g></g></svg>
