<?xml version="1.0" encoding="UTF-8" standalone="no"?>
<svg
   xmlns:dc="http://purl.org/dc/elements/1.1/"
   xmlns:cc="http://creativecommons.org/ns#"
   xmlns:rdf="http://www.w3.org/1999/02/22-rdf-syntax-ns#"
   xmlns:svg="http://www.w3.org/2000/svg"
   xmlns="http://www.w3.org/2000/svg"
   xmlns:sodipodi="http://sodipodi.sourceforge.net/DTD/sodipodi-0.dtd"
   xmlns:inkscape="http://www.inkscape.org/namespaces/inkscape"
   version="1.1"
   id="svg2"
   xml:space="preserve"
   width="2654.6667"
   height="3601.1201"
   viewBox="0 0 2654.6667 3601.1201"
   sodipodi:docname="KFC 2018 Bucket Alt with Wordmark 2.ai"><metadata
     id="metadata8"><rdf:RDF><cc:Work
         rdf:about=""><dc:format>image/svg+xml</dc:format><dc:type
           rdf:resource="http://purl.org/dc/dcmitype/StillImage" /></cc:Work></rdf:RDF></metadata><defs
     id="defs6"><clipPath
       clipPathUnits="userSpaceOnUse"
       id="clipPath18"><path
         d="M 0,2700.835 H 1991 V 0 H 0 Z"
         id="path16" /></clipPath><clipPath
       clipPathUnits="userSpaceOnUse"
       id="clipPath50"><path
         d="m 94.999,2641.196 c -19.878,0 -35.502,-16.947 -33.929,-36.718 v 0 L 205.262,787.829 c 0.787,-10.368 9.474,-18.377 19.878,-18.377 v 0 h 1540.743 c 10.404,0 19.092,8.009 19.879,18.377 v 0 l 144.192,1816.649 c 1.573,19.771 -14.051,36.718 -33.929,36.718 v 0 z"
         id="path48" /></clipPath></defs><sodipodi:namedview
     pagecolor="#ffffff"
     bordercolor="#666666"
     borderopacity="1"
     objecttolerance="10"
     gridtolerance="10"
     guidetolerance="10"
     inkscape:pageopacity="0"
     inkscape:pageshadow="2"
     inkscape:window-width="640"
     inkscape:window-height="480"
     id="namedview4" /><g
     id="g10"
     inkscape:groupmode="layer"
     inkscape:label="KFC 2018 Bucket Alt with Wordmark 2"
     transform="matrix(1.3333333,0,0,-1.3333333,0,3601.12)"><g
       id="g12"><g
         id="g14"
         clip-path="url(#clipPath18)"><g
           id="g20"
           transform="translate(1838.7203,541.874)"><path
             d="m 0,0 c 8.231,-2.273 13.102,-10.614 11.264,-18.954 l -29.139,-131.163 c -1.409,-6.282 -6.929,-10.723 -13.321,-10.723 h -41.482 c -7.801,0 -13.976,6.607 -13.645,14.406 0.106,1.732 0.106,2.491 0.106,2.491 2.056,42.674 -25.022,74.733 -86.105,74.733 -101.593,0 -175.573,-83.398 -185.211,-193.008 -10.075,-113.075 69.101,-178.819 178.495,-178.71 56.106,0 100.509,10.722 125.425,18.629 9.857,3.141 19.6,-5.416 17.651,-15.597 l -12.891,-67.802 c -1.078,-5.74 -5.302,-10.506 -10.934,-12.238 -22.424,-7.15 -85.351,-23.938 -181.748,-23.938 -229.075,-0.107 -322.002,131.597 -307.596,266.009 12.777,119.466 91.955,295.685 403.888,295.685 C -85.457,19.82 -37.695,10.289 0,0"
             style="fill:#1d1819;fill-opacity:1;fill-rule:nonzero;stroke:none"
             id="path22" /></g><g
           id="g24"
           transform="translate(547.8808,541.5493)"><path
             d="m 0,0 c 1.521,6.823 7.476,11.589 14.404,11.589 h 224.963 c 8.772,0 15.376,-8.123 13.426,-16.679 l -7.576,-34.552 c -1.301,-5.848 -6.173,-10.073 -12.136,-10.721 -1.078,-0.109 -1.733,-0.109 -1.733,-0.109 -17.002,-2.275 -47.544,-7.799 -72.671,-27.402 l -187.05,-155.533 v -0.109 l 143.942,-194.74 c 27.943,-35.851 41.7,-42.349 69.75,-42.783 9.208,-0.216 15.812,-8.881 13.755,-17.872 l -7.906,-34.984 c -1.303,-6.173 -6.716,-10.506 -13.108,-10.506 H 65.961 c -124.123,0 -158.459,54.373 -261.784,243.373 0,0.108 0,0.108 -0.112,0 l -30.218,-137.878 c -4.547,-21.445 13.434,-32.818 26.648,-38.126 0.543,-0.216 1.085,-0.434 1.626,-0.65 6.281,-2.491 9.858,-9.205 8.337,-15.704 l -8.878,-40.4 c -1.408,-6.173 -6.935,-10.615 -13.327,-10.615 h -259.721 c -9.103,0 -15.926,8.449 -13.871,17.331 l 7.696,34.55 c 1.295,6.283 6.498,10.94 12.885,11.697 h 0.759 c 23.831,2.816 48.741,17.763 64.117,91.414 l 59.034,269.691 c 7.47,35.96 -10.399,49.606 -25.888,55.671 -0.217,0.109 -1.189,0.325 -2.492,0.868 -7.146,2.382 -11.371,9.746 -9.638,17.112 L -370.853,0 c 1.52,6.823 7.582,11.589 14.515,11.589 h 246.944 c 8.667,0 15.06,-8.016 13.214,-16.462 l -7.8,-35.527 c -1.189,-5.199 -4.977,-9.315 -10.18,-10.938 -0.543,-0.109 -1.19,-0.325 -1.838,-0.541 -11.588,-3.792 -29.788,-13.215 -35.42,-36.285 l -32.921,-150.009 c 0,-0.109 0.106,-0.216 0.106,-0.109 L 7.364,-79.066 c 11.482,9.531 8.561,22.203 -4.548,27.294 H 2.598 c -7.47,2.275 -11.913,9.964 -10.286,17.546 z"
             style="fill:#1d1819;fill-opacity:1;fill-rule:nonzero;stroke:none"
             id="path26" /></g><g
           id="g28"
           transform="translate(1239.8762,391.7572)"><path
             d="m 0,0 c -8.237,0 -14.623,7.148 -13.651,15.272 0.112,1.407 0.112,1.841 0.112,1.841 2.275,34.118 -9.427,54.154 -47.768,54.154 L -180.016,71.16 -211.747,-73.542 h 169.935 c 8.772,0 15.27,-8.016 13.326,-16.572 l -16.573,-74.626 c -1.302,-6.282 -6.934,-10.614 -13.215,-10.614 h -176.002 c 0,0 -19.609,-88.598 -20.256,-92.496 -6.604,-28.594 12.997,-43.433 25.994,-49.822 0.76,-0.325 1.407,-0.543 2.062,-0.975 5.632,-2.492 8.773,-8.558 7.364,-14.622 l -8.991,-40.726 c -1.407,-6.173 -6.933,-10.614 -13.214,-10.614 h -206.981 c -8.772,0 -15.165,8.016 -13.321,16.464 l 90.111,408.435 c 9.209,35.959 -11.801,50.69 -27.077,56.431 -0.431,0.216 -0.972,0.323 -1.409,0.541 -6.822,2.382 -10.723,9.531 -9.203,16.463 l 8.013,35.959 c 1.521,6.824 7.583,11.697 14.624,11.697 H 73.432 c 8.772,0 15.27,-8.123 13.32,-16.572 L 56.964,10.723 C 55.669,4.44 50.143,0 43.756,0 Z"
             style="fill:#1d1819;fill-opacity:1;fill-rule:nonzero;stroke:none"
             id="path30" /></g><g
           id="g32"
           transform="translate(1913.4395,2693.3916)"><path
             d="m 0,0 h -1835.848 c -40.901,0 -73.151,-34.824 -69.933,-75.511 l 145.694,-1836.169 c 2.896,-36.397 33.322,-64.463 69.897,-64.463 h 1544.496 c 36.611,0 67.037,28.066 69.933,64.463 L 69.897,-75.511 C 73.151,-34.824 40.901,0 0,0"
             style="fill:#ffffff;fill-opacity:1;fill-rule:nonzero;stroke:none"
             id="path34" /></g><g
           id="g36"
           transform="translate(77.5916,2685.9475)"><path
             d="M 0,0 C -17.711,0 -34.083,-7.161 -46.098,-20.164 -58.072,-33.122 -63.901,-49.926 -62.512,-67.479 L 83.182,-1903.648 c 2.57,-32.302 30.013,-57.607 62.476,-57.607 h 1544.496 c 32.483,0 59.942,25.305 62.512,57.609 l 145.659,1836.168 c 1.403,17.549 -4.412,34.348 -16.374,47.304 C 1869.94,-7.165 1853.567,0 1835.848,0 Z M 1690.154,-1976.143 H 145.658 c -19.565,0 -38.254,7.299 -52.626,20.555 -14.373,13.257 -23.142,31.284 -24.692,50.762 L -77.353,-68.655 c -1.695,21.427 5.711,42.784 20.32,58.595 C -42.382,5.794 -21.594,14.888 0,14.888 h 1835.848 c 21.604,0 42.395,-9.098 57.042,-24.963 14.598,-15.812 21.988,-37.165 20.275,-58.585 l -145.657,-1836.164 c -1.55,-19.482 -10.322,-37.51 -24.698,-50.765 -14.376,-13.255 -33.076,-20.554 -52.656,-20.554"
             style="fill:#000000;fill-opacity:1;fill-rule:nonzero;stroke:none"
             id="path38" /></g><g
           id="g40"
           transform="translate(697.7139,1527.8101)"><path
             d="m 0,0 c 0.751,-32.142 19.414,-117.056 127.245,-197.607 44.977,-33.608 65.607,-48.767 71.542,-52.879 l -0.036,-0.25 c 2.968,-2.074 -15.946,-1.573 -21.166,-2.074 -8.437,-0.822 -37.183,1.788 -60.208,-2.467 -20.772,-3.826 -17.948,-8.831 -20.021,-23.847 -1.609,-11.906 -0.072,-30.784 -0.68,-46.872 -0.608,-16.089 -1.501,-27.53 5.292,-35.289 6.721,-7.687 10.976,-8.902 39.471,-7.115 27.137,1.645 102.182,1.681 111.228,3.54 11.619,2.36 9.76,-1.823 3.075,-16.196 -11.477,-24.598 -48.875,-137.435 -106.974,-244.658 -8.151,-15.017 14.766,-7.902 34.323,-17.341 35.324,-17.054 34.18,-21.773 43.476,-4.004 10.047,19.271 61.031,139.294 68.932,176.37 1.037,4.827 3.11,9.01 3.897,1.752 0.572,-5.256 1.323,-156.849 -2.896,-204.686 -0.214,-2.539 0.393,-5.149 2.145,-7.008 2.539,-2.61 6.4,-3.683 9.689,-4.469 h 0.036 c 17.591,5.863 38.864,10.189 56.919,7.186 1.573,0.215 3.11,0.572 4.576,1.001 0.966,0.823 1.824,1.752 2.467,2.896 1.395,2.539 2.11,5.435 2.753,8.259 0.036,0.215 0.108,0.429 0.143,0.644 0.858,4.04 1.573,8.116 2.038,12.227 0.25,2.432 0.429,4.863 0.572,7.294 0.179,3.146 0.322,6.328 0.429,9.475 0.143,3.825 0.215,7.651 0.286,11.441 0.072,4.433 0.108,8.831 0.108,13.228 0,4.898 -0.072,9.832 -0.143,14.766 -0.072,5.363 -0.179,3.575 -0.358,8.938 -0.143,5.721 -0.358,11.477 -0.608,17.233 -0.25,6.043 -0.572,12.085 -0.894,18.163 -0.357,6.292 -0.75,12.585 -1.215,18.878 -0.465,6.471 -0.966,12.942 -1.538,19.414 -0.572,6.542 -1.215,13.121 -1.895,19.699 -0.715,6.579 -1.465,13.193 -2.288,19.772 -0.822,6.578 -1.716,13.121 -2.681,19.664 -0.965,6.471 -1.967,12.943 -3.111,19.378 -1.108,6.293 -2.288,8.974 -3.539,15.231 -1.252,6.042 -2.574,12.084 -4.04,18.091 -1.395,5.721 -2.896,11.441 -4.541,17.126 -1.287,4.505 -2.681,9.01 -4.183,13.479 -0.25,0.715 -1.466,6.864 -1.287,7.651 0.429,2.252 3.218,0.643 6.257,1.216 0,0 1.43,0.285 2.252,0.428 19.307,2.575 52.879,0.858 60.458,0.537 7.473,-0.215 45.657,-3.862 56.419,-4.863 10.69,-1.001 23.668,-3.503 23.096,28.924 -0.143,8.653 -0.179,13.801 -0.143,21.846 v 3.289 c 0.036,2.074 0.036,4.076 0.072,6.006 0.035,1.18 0.035,2.253 0.035,3.397 0.036,1.108 0.036,2.217 0.036,3.289 0.036,0.966 0.036,2.002 0.072,2.896 0.036,1.788 0.071,3.468 0.179,5.006 0,0.464 0,0.929 0.035,1.394 0,1.18 0.036,2.252 0.108,3.218 0,0.536 0.035,1.001 0.071,1.502 0.036,0.893 0.072,1.644 0.107,2.323 0.036,0.215 0.036,0.537 0.072,0.715 0.071,0.966 0.143,2.038 0.179,3.182 0.25,7.902 -0.787,22.418 -15.768,26.243 -17.268,4.326 -47.587,5.363 -74.902,3.003 -3.79,-0.357 -4.648,0 -3.468,1.037 l 0.036,0.251 c 5.863,4.183 45.263,25.956 90.348,66.286 49.553,44.476 73.222,68.145 88.381,100.287 0,0 54.237,105.293 51.52,194.425 -0.536,17.984 2.36,16.482 13.55,16.161 3.361,-0.108 16.197,0.822 23.097,5.363 23.025,5.255 43.333,83.841 43.333,83.841 0,0 34.573,119.307 42.939,168.11 7.473,43.404 5.721,68.754 -20.772,81.66 l -4.434,2.503 c -2.002,1.144 -2.967,3.468 -2.359,5.685 0.5,1.823 1.036,4.004 1.323,5.649 12.942,44.941 36.074,101.86 30.819,124.921 -0.93,6.65 -6.507,8.795 -8.474,10.118 -2.717,1.824 -12.942,13.264 -15.803,21.309 -0.429,1.18 -0.572,2.395 -0.679,3.647 -7.329,84.913 -37.505,191.422 -127.352,284.201 -0.143,0.071 -6.186,5.613 -9.868,8.974 -7.687,6.936 -17.555,15.552 -28.853,24.062 -23.954,17.876 -43.047,31.605 -82.411,51.269 -3.039,1.502 -32.607,14.945 -76.261,25.6 -4.112,1.108 -8.223,2.181 -12.371,3.146 -6.435,1.537 -16.446,3.36 -27.851,4.934 -26.922,4.219 -56.812,6.471 -87.881,4.576 v -0.036 c -3.683,-0.179 -8.009,-0.393 -9.189,-0.429 -1.823,0 -3.79,-0.107 -5.685,-0.178 -2.109,-0.072 -4.183,-0.144 -6.364,-0.215 -6.578,-0.322 -15.266,-1.323 -24.347,-2.61 -14.695,-2.109 -30.462,-5.077 -40.187,-7.329 -10.869,-2.646 -25.528,-5.72 -43.833,-10.941 -7.508,-2.216 -15.088,-4.576 -22.632,-7.007 -2.109,-0.679 -4.219,-1.323 -6.328,-2.002 -8.116,-2.682 -16.303,-5.435 -24.562,-8.438 -6.007,-2.074 -31.463,-13.122 -37.005,-15.66 -2.681,-1.251 -6.328,-2.824 -10.261,-4.398 -17.948,-5.72 -21.738,-16.088 -22.381,-21.809 -0.429,-3.647 -1.252,-7.294 -2.825,-10.619 -25.849,-54.988 -86.701,-60.315 -110.87,-61.531 -6.328,-0.286 -11.906,-1.215 -9.904,-7.365 5.149,-15.767 33.608,-45.192 51.02,-50.554 -0.25,-2.503 -14.909,-5.685 -17.984,-6.508 -7.007,-1.823 -35.86,0.715 -37.255,0.429 -0.143,-0.035 -0.25,-0.035 -0.357,-0.035 -32.714,-2.753 -42.761,-25.028 -45.692,-35.61 -0.894,-3.254 -0.358,-6.794 1.501,-9.654 7.222,-10.976 14.802,-19.95 20.522,-34.466 0.072,-0.143 0.143,-0.321 0.179,-0.464 1.502,-3.826 2.86,-8.045 4.04,-12.764 0.68,-6.221 5.649,-12.693 -0.608,-24.884 -11.155,-21.631 -39.042,-28.388 -43.225,-49.876 -5.935,-30.533 4.612,-50.483 16.16,-100.967 7.938,-34.573 16.483,-70.326 22.596,-86.558 0.322,-0.822 -0.179,-1.716 -1.072,-1.895 -2.431,-0.464 -6.686,-1.358 -8.116,-1.859 -16.161,-6.4 -21.237,-19.128 -23.061,-43.976 -4.04,-54.988 36.54,-139.794 49.125,-212.481 4.254,-24.526 15.517,-63.819 34.323,-79.908 4.326,-3.718 13.407,-6.078 19.056,-7.043 14.695,-2.574 21.059,6.722 21.917,-8.009 0.143,-3.074 1.215,-11.369 1.323,-16.017 C -27.959,51.77 0,0 0,0 m 25.313,873.304 c 3.182,4.934 10.941,12.156 18.699,17.769 8.116,5.792 48.124,35.753 85.271,47.051 6.865,2.074 8.616,3.111 13.014,4.184 5.578,1.43 10.297,13.407 -1.287,15.159 -12.156,1.787 -17.126,0.965 -23.597,0.751 -6.471,-0.108 -9.618,3.36 -4.898,8.437 4.755,5.149 13.371,10.369 28.531,16.447 33.036,13.157 91.635,20.2 118.986,22.631 35.646,3.075 39.972,2.968 63.14,1.18 21.773,-1.644 38.792,-5.685 46.872,-7.114 40.902,-7.402 88.06,-26.351 129.962,-49.34 22.06,-13.085 43.333,-27.709 63.105,-43.154 60.065,-46.8 129.032,-135.861 118.986,-323.386 -1.216,-22.131 -3.826,-34.43 -5.292,-39.758 -1.501,-5.434 -8.688,-14.694 -12.478,-2.431 -12.406,40.115 -28.352,110.835 -64.677,166.681 -5.041,7.794 -12.871,7.079 -12.084,-1.144 0.286,-3.432 1.966,-39.185 1.072,-46.086 -5.863,-46.086 8.224,-28.138 29.032,-77.584 6.435,-15.266 14.73,-45.514 16.804,-64.999 0.536,-4.898 1.215,-10.583 1.323,-16.017 0.143,-6.901 -3.29,-7.366 -3.29,-7.366 -14.194,0.036 -39.006,6.794 -52.378,7.223 -15.231,0.5 -120.809,1.573 -160.531,-1.573 -39.722,-3.039 -61.352,-17.305 -83.841,-35.718 -3.718,-3.074 -9.046,-5.899 -12.013,-7.401 -1.502,-0.751 -3.182,-1.001 -4.827,-0.679 -1.823,0.286 -4.791,0.858 -9.51,1.823 -9.689,2.003 -21.416,2.789 -30.891,-0.107 -9.474,-2.824 -13.908,-5.291 -24.133,0.679 -14.587,8.474 -36.933,42.475 -114.91,43.119 -44.155,0.357 -102.111,0.965 -136.22,-0.537 -11.012,-0.5 -16.768,-1.752 -19.592,-1.68 -0.25,1.287 -0.322,3.11 -0.322,3.468 -0.572,62.246 40.043,48.445 44.691,64.641 11.62,40.33 14.337,137.328 84.771,196.857 33.643,28.459 51.162,29.675 82.411,29.675 33.679,0 66.536,-8.795 83.268,-17.09 13.336,-6.614 19.951,-11.012 25.171,-7.151 5.255,4.005 19.271,16.697 25.063,21.059 5.792,4.469 3.611,11.369 -1.895,15.91 -5.256,4.255 -55.203,67.109 -131.822,79.765 -17.555,2.932 -30.497,5.578 -46.407,5.613 -8.653,0.322 -16.268,0.358 -36.29,-2.073 -29.317,-3.54 -67.645,-19.843 -92.314,-29.64 -1.323,1.395 3.79,9.689 5.327,11.906 M 628.646,468.758 c -3.182,-3.432 -5.971,-1.358 -12.514,-2.967 -5.112,-1.252 -8.473,-4.112 -13.192,-3.718 -7.401,0.679 -11.048,9.546 -7.08,15.337 6.114,8.939 14.766,1.145 21.738,-0.071 3.433,-0.608 5.864,0.429 9.296,-0.822 3.397,-1.18 3.861,-4.362 1.752,-7.759 m -104.935,-31.32 c 0,0 -13.944,9.547 -18.413,17.269 -2.217,3.862 -1.716,7.044 4.219,7.115 20.915,0.215 40.079,0.679 49.411,-7.115 6.793,-5.72 6.971,-17.662 3.646,-25.349 -3.861,-8.795 -11.512,-6.328 -15.91,-5.684 -4.362,0.643 -22.953,13.764 -22.953,13.764 m 9.224,-37.326 c -3.969,-2.002 -18.878,3.004 -22.989,5.328 -8.259,4.612 -14.158,7.901 -25.242,17.376 -7.365,6.221 -20.772,9.152 -33.5,8.545 -9.725,-0.465 -19.414,-2.575 -26.887,-4.291 -7.365,-1.787 -7.937,4.898 -5.756,7.437 2.217,2.503 12.585,11.977 35.145,17.912 3.289,0.858 9.654,0.572 12.836,0.215 9.438,-1.037 20.701,-7.33 28.781,-15.196 8.116,-7.937 24.491,-21.88 33.357,-27.279 4.219,-2.539 13.622,-5.256 4.255,-10.047 M 210.442,243.299 c 2.36,-4.326 3.111,-11.619 2.432,-14.622 -0.68,-3.683 -13.622,-8.474 -24.348,7.579 -10.726,15.982 -5.721,35.61 0.679,43.333 10.118,12.406 25.599,3.396 23.347,-1.18 -7.723,-15.874 -4.291,-30.819 -2.11,-35.11 M 61.495,421.922 c 2.574,2.073 3.683,2.109 12.335,6.864 6.15,3.397 13.193,7.616 20.272,12.228 12.871,8.33 37.183,16.983 47.516,16.875 7.472,-0.107 20.522,-3.289 27.458,-10.869 7.258,-7.901 9.224,-17.09 -0.214,-15.516 -9.368,1.608 -19.343,4.147 -37.362,0 -20.165,-4.613 -33.858,-12.3 -43.583,-16.697 -9.975,-4.577 -20.058,-5.685 -23.383,-5.542 -3.218,0.215 -12.37,5.113 -3.039,12.657 m -13.228,18.019 c -9.618,-6.078 -19.021,-13.121 -26.172,-17.769 -8.723,-5.756 -20.987,-0.25 -17.376,12.013 1.752,5.935 10.19,21.166 24.384,23.847 1.859,0.394 8.902,1.716 14.766,2.432 6.9,0.75 14.194,1.358 17.948,1.537 10.047,0.429 11.119,-7.651 4.326,-11.799 -4.541,-2.788 -11.512,-6.221 -17.876,-10.261 m -160.46,200.575 c 8.402,22.703 23.668,42.046 34.073,55.703 9.545,12.514 5.041,28.996 0.178,43.798 -3.146,13.622 -11.905,27.708 -13.228,31.427 -1.002,2.609 -1.002,4.719 -0.179,6.542 0.608,0.43 1.144,0.787 1.788,1.18 l 18.412,1.574 c 52.772,6.757 99.287,25.277 113.337,33.178 6.937,3.862 14.266,6.936 21.774,9.475 8.831,2.967 17.948,5.971 27.065,7.186 6.901,1.144 15.052,2.181 22.06,2.968 10.44,1.18 26.922,-6.114 23.275,-8.295 C 127.531,819.96 86.522,810.486 50.448,767.404 28.352,741.089 23.204,724.786 15.767,712.666 8.223,700.51 2.181,697.614 -8.438,688.461 c -5.184,-4.434 -15.731,-13.694 -20.915,-28.46 -5.256,-14.873 -25.385,-66.822 -28.031,-149.304 -0.286,-9.582 -1.93,-19.665 -11.012,-23.133 0,0 -0.035,-0.035 -0.071,-0.035 -7.473,-3.039 -13.479,-7.938 -14.731,-2.575 -4.79,18.091 -15.91,57.134 -20.522,81.875 -1.466,7.794 -3.217,15.517 -5.077,23.239 -5.041,21.059 -7.329,39.758 -3.396,50.448 m 44.334,-390.388 c -15.052,10.011 -14.23,23.132 -18.056,36.075 -8.151,27.387 -16.875,60.387 -24.419,88.417 -4.576,16.983 -5.721,56.776 17.304,56.776 11.584,0 20.237,-3.647 23.955,-14.587 8.259,-24.312 -7.294,-20.057 -3.325,-48.803 2.86,-20.308 6.722,-40.329 13.121,-74.867 2.968,-15.874 8.152,-54.166 -5.827,-44.834 m 55.131,214.232 c -4.72,-0.5 -8.653,2.36 -13.801,3.468 -5.935,1.287 -9.546,-0.5 -12.013,2.753 -2.181,3.361 -1.788,6.543 1.609,7.83 3.397,1.251 5.863,0.322 9.26,0.965 6.972,1.323 15.445,9.296 21.738,0.465 4.076,-5.756 0.572,-14.659 -6.793,-15.481 M 0.822,295.106 c -2.074,8.974 1.931,22.453 23.132,8.866 3.397,-2.18 13.336,-6.685 24.42,-9.868 6.686,-1.93 11.048,0.894 12.942,5.757 1.967,4.826 7.437,14.48 -1.966,19.092 -9.403,4.684 -32.643,8.724 -45.907,41.366 -2.36,5.828 1.645,12.55 5.363,14.266 3.79,1.68 8.438,0.822 12.8,-3.29 4.29,-4.04 13.55,-12.978 21.845,-13.336 7.651,-0.357 8.902,2.753 10.475,4.577 6.4,7.186 24.813,34.108 62.962,29.425 15.767,-1.931 30.282,-5.435 35.574,-5.828 3.754,-0.25 14.265,-0.715 24.276,1.18 11.441,2.145 28.495,5.684 20.129,-3.969 -6.793,-7.83 -12.442,-11.083 -6.507,-19.592 0.322,-0.429 0.608,-0.859 0.894,-1.252 5.363,-7.544 5.506,-17.59 0.071,-25.098 l -0.643,-0.966 c -8.438,-10.94 -25.885,-23.561 -61.96,-25.849 -16.447,-1.037 -17.448,-0.429 -17.805,-9.832 -0.143,-3.611 -0.072,-5.542 0.429,-8.045 1.001,-4.755 4.04,-6.686 15.445,-7.401 8.259,-0.5 23.383,1.109 23.418,1.109 3.719,1.108 8.08,-1.252 5.721,-4.362 -0.393,-0.465 -1.895,-2.717 -2.145,-3.075 -8.188,-10.547 -10.762,-20.236 -11.513,-25.992 -0.643,-4.899 -3.468,-9.26 -7.794,-11.513 -0.072,-0.036 -0.107,-0.071 -0.179,-0.071 -5.255,-2.718 -26.528,-7.294 -43.261,-21.13 -16.697,-13.837 -51.52,-25.242 -66.501,-8.224 -14.98,16.912 -27.208,54.845 -33.715,83.055 m 156.849,-398.897 c -29.854,-0.894 -107.867,46.193 -141.904,179.838 -8.831,34.394 12.835,62.281 26.279,67.072 7.972,2.932 12.156,3.862 14.837,4.219 2.753,0.322 16.339,0.251 15.874,-15.088 -0.464,-12.442 9.832,-116.125 36.898,-153.63 6.721,-9.296 12.942,-9.654 16.017,-1.431 2.824,7.652 7.544,17.484 9.045,21.238 1.109,2.681 10.941,17.733 13.873,6.292 6.185,-24.276 20.736,-74.223 26.85,-87.13 10.154,-21.38 -6.578,-21.023 -17.769,-21.38 m 18.735,216.628 c -38.971,0.464 -56.991,14.98 -59.78,19.306 -2.681,4.219 1.824,7.473 5.9,8.795 9.188,2.896 25.527,11.155 32.177,16.197 6.65,4.969 25.027,16.41 34.288,22.381 4.361,2.86 29.424,13.765 44.047,3.54 21.988,-15.338 42.547,-25.564 80.159,-23.276 24.169,1.466 23.632,20.987 43.297,27.208 17.805,5.614 21.201,9.976 26.779,13.229 7.186,1.43 12.478,3.254 20.272,-4.004 9.868,-9.189 13.443,-16.447 24.884,-29.354 15.66,-17.662 32.893,-25.885 38.256,-26.957 5.291,-1.073 9.117,-5.399 9.188,-7.187 0.036,-1.752 -2.145,-7.258 -17.912,-11.762 -52.664,-15.088 -109.691,-5.399 -139.044,6.328 -14.873,5.935 -29.389,7.579 -45.728,-0.465 -16.482,-8.08 -60.423,-14.444 -96.783,-13.979 M 373.298,80.301 c -9.01,-3.289 -34.895,-9.296 -47.445,-10.082 -12.656,-0.715 -52.843,-3.432 -59.564,-3.111 -8.259,0.501 -19.45,4.541 -28.531,12.836 -1.824,1.68 -3.79,7.472 3.611,7.579 13.765,0.251 37.004,7.616 117.055,0.823 8.545,-0.679 12.621,-1.073 14.623,-1.252 2.11,-0.214 9.189,-3.611 0.251,-6.793 m 342.156,309.622 c -10.583,-56.097 -22.345,-84.234 -29.925,-118.843 -7.866,-35.968 -23.311,-88.561 -38.327,-89.919 -15.16,-4.577 -21.237,12.942 -30.962,0 -5.792,-7.723 -10.297,-17.948 -15.446,-24.527 -3.289,-4.29 -6.542,-13.908 -6.614,-19.128 0,-10.154 -0.572,-42.832 -9.618,-85.7 -13.657,-64.713 -38.47,-111.835 -64.248,-141.582 -49.411,-56.99 -95.675,-66.143 -101.181,-69.039 -7.079,-3.754 -17.769,-1.538 -21.273,0.143 -3.575,1.609 -6.293,5.863 -12.406,11.834 -6.293,5.899 -8.474,-3.075 -8.724,-5.327 -0.25,-2.145 3.182,-29.103 -3.683,-41.295 -14.801,-26.243 -29.031,-28.531 -36.968,-61.209 -2.682,-11.012 -0.823,-27.673 -13.98,-20.129 -32.213,18.413 -78.371,68.217 -87.952,116.519 -2.896,14.695 -0.179,31.105 8.795,59.1 5.184,16.411 8.867,34.68 8.867,45.192 0,18.663 -7.294,34.502 0,36.146 13.55,3.003 19.7,-32.035 25.992,-28.388 10.905,6.293 2.789,43.261 2.789,43.261 0,0 -4.469,10.512 -23.633,15.017 -11.012,2.574 -14.48,10.833 -2.753,16.589 8.795,4.29 18.985,9.975 30.855,8.188 79.443,-11.263 102.29,4.719 134.396,13.371 6.328,1.681 10.046,2.396 14.98,0.072 4.898,-2.288 18.091,-9.475 20.773,-16.268 2.717,-6.686 -0.107,-33.072 4.112,-52.879 4.29,-19.95 18.305,-1.823 21.773,6.043 3.504,7.794 7.115,27.065 7.83,31.963 0.787,4.862 4.862,25.349 12.228,31.462 14.551,12.085 19.664,27.959 22.023,34.18 2.396,6.221 6.186,25.385 5.506,53.38 -0.679,27.923 -5.72,30.962 -12.477,36.968 -6.686,5.971 -14.695,4.827 -31.713,20.415 -15.16,13.908 -27.673,36.433 -38.649,50.591 -11.012,14.087 -29.246,29.282 -50.09,34.394 -20.737,5.006 -12.121,-14.158 -11.012,-19.521 0.858,-3.79 5.756,-20.772 -1.18,-26.386 -6.758,-5.577 -48.732,-33.786 -86.201,-24.026 -44.62,11.656 -60.029,36.504 -60.923,60.495 -0.644,17.018 7.508,33.393 17.662,52.914 5.935,11.37 8.33,30.426 10.726,48.66 1.895,14.587 5.828,35.682 9.01,43.19 2.288,5.434 7.651,11.298 19.771,10.618 11.942,-0.679 19.807,-6.65 21.988,-16.947 7.759,-35.896 20.415,-44.977 24.706,-47.873 4.326,-2.896 12.442,2.896 15.588,5.005 3.182,2.074 11.334,10.297 8.759,14.695 -3.861,6.829 -6.006,10.905 -6.864,14.909 -1.466,6.829 7.043,6.007 8.795,4.612 13.979,-11.012 27.172,-11.977 51.341,-15.981 42.296,-7.08 48.339,8.509 77.37,3.468 3.79,-0.644 10.94,-3.79 13.264,-8.152 1.967,-3.718 5.471,-12.299 9.01,-13.801 3.54,-1.358 12.156,-1.895 16.59,-2.717 6.149,-1.037 17.197,-0.322 15.302,-11.691 -4.719,-30.462 -39.829,-38.828 -56.275,-41.652 -6.758,-1.18 -9.868,-1.753 -10.977,-2.718 -3.575,-3.11 -3.682,-12.656 0.394,-18.806 2.896,-4.326 16.16,-4.612 34.358,-1.108 18.985,3.647 37.184,12.764 51.556,35.181 15.231,23.74 23.597,76.011 25.385,85.771 1.716,9.761 5.613,26.1 11.012,29.425 5.291,3.361 30.032,10.869 33.536,10.261 4.148,-0.715 7.151,-2.717 9.117,-12.299 1.967,-9.653 -1.68,-67.251 -1.752,-75.939 -0.107,-9.26 4.648,-9.189 7.294,-7.973 5.756,2.681 21.166,12.942 24.67,24.777 2.574,8.831 -4.863,21.63 -1.109,33.822 5.792,18.985 11.513,24.026 15.445,23.633 24.17,-2.288 29.104,-12.871 23.347,-43.547"
             style="fill:#232020;fill-opacity:1;fill-rule:nonzero;stroke:none"
             id="path42" /></g></g></g><g
       id="g44"><g
         id="g46"
         clip-path="url(#clipPath50)"><path
           d="m 1577.286,1188.656 h 406.262 v 1496.873 h -406.262 z"
           style="fill:#ed302a;fill-opacity:1;fill-rule:nonzero;stroke:none"
           id="path52" /><path
           d="M 7.119,1188.656 H 413.381 V 2685.529 H 7.119 Z"
           style="fill:#ed302a;fill-opacity:1;fill-rule:nonzero;stroke:none"
           id="path54" /></g></g></g></svg>
