<?xml version="1.0" encoding="UTF-8" standalone="no"?>
<!-- Created with Inkscape (http://www.inkscape.org/) -->

<svg
   xmlns:dc="http://purl.org/dc/elements/1.1/"
   xmlns:cc="http://creativecommons.org/ns#"
   xmlns:rdf="http://www.w3.org/1999/02/22-rdf-syntax-ns#"
   xmlns:svg="http://www.w3.org/2000/svg"
   xmlns="http://www.w3.org/2000/svg"
   xmlns:sodipodi="http://sodipodi.sourceforge.net/DTD/sodipodi-0.dtd"
   xmlns:inkscape="http://www.inkscape.org/namespaces/inkscape"
   width="967.57599"
   height="1000"
   viewBox="0 0 967.57598 1000"
   id="svg2"
   version="1.1"
   inkscape:version="0.92.2 (5c3e80d, 2017-08-06)"
   sodipodi:docname="Nestlé 2015 (Stacked).svg">
  <defs
     id="defs4">
    <clipPath
       id="clipPath4150"
       clipPathUnits="userSpaceOnUse">
      <path
         inkscape:connector-curvature="0"
         id="path4152"
         d="M 0,0 H 598.11 V 737.008 H 0 Z" />
    </clipPath>
    <clipPath
       id="clipPath4392"
       clipPathUnits="userSpaceOnUse">
      <path
         inkscape:connector-curvature="0"
         id="path4394"
         d="M 0,0 H 598.11 V 737.008 H 0 Z" />
    </clipPath>
  </defs>
  <sodipodi:namedview
     id="base"
     pagecolor="#ffffff"
     bordercolor="#666666"
     borderopacity="1.0"
     inkscape:pageopacity="0.0"
     inkscape:pageshadow="2"
     inkscape:zoom="0.35"
     inkscape:cx="508.1724"
     inkscape:cy="444.64038"
     inkscape:document-units="px"
     inkscape:current-layer="layer1"
     showgrid="false"
     units="px"
     inkscape:window-width="1360"
     inkscape:window-height="706"
     inkscape:window-x="-8"
     inkscape:window-y="-8"
     inkscape:window-maximized="1" />
  <metadata
     id="metadata7">
    <rdf:RDF>
      <cc:Work
         rdf:about="">
        <dc:format>image/svg+xml</dc:format>
        <dc:type
           rdf:resource="http://purl.org/dc/dcmitype/StillImage" />
        <dc:title></dc:title>
      </cc:Work>
    </rdf:RDF>
  </metadata>
  <g
     inkscape:label="Layer 1"
     inkscape:groupmode="layer"
     id="layer1"
     transform="translate(0,-52.3622)">
    <g
       id="g4168"
       transform="matrix(23.893721,0,0,-23.893721,571.84841,540.24809)">
      <path
         d="M 0,0 C 0.864,1.385 1.636,2.614 3.528,3.614 3.328,3.735 3.043,3.921 2.893,4.021 2.157,3.699 1.428,3.057 0.807,2.407 -0.621,0.921 -0.493,0.064 -2,-0.514 -2.378,-0.657 -2.842,-0.814 -3.435,-0.95 -3.785,0.129 -4.663,1.2 -5.592,1.2 -6.235,1.2 -6.978,0.864 -7.835,0.486 -8.842,0.043 -9.763,-0.464 -10.056,-0.657 l 0.393,-0.529 c 0.3,0.165 1.164,0.593 2.028,0.965 0.75,0.321 1.428,0.585 1.886,0.585 0.735,0 1.214,-0.835 1.478,-1.507 -0.964,-0.228 -2.55,-0.286 -3.028,-0.286 -0.221,0 -0.3,-0.035 -0.379,-0.099 -0.071,-0.065 -0.128,-0.179 -0.164,-0.336 l -0.057,-0.243 h 0.514 c 2.671,0 5.192,0.421 6.814,1.407 0.228,-0.064 0.428,-0.107 0.685,-0.107 0.929,0 1.886,0.507 2.486,0.971 0.214,0.165 0.264,0.315 0.264,0.479 0,0.078 -0.007,0.15 -0.014,0.221 L 2.821,1.143 C 1.964,0.464 1.25,-0.043 0.364,-0.043 0.207,-0.043 0.093,-0.029 0,0 M 5.378,2.685 C 4.307,0.428 2.678,-1.214 1.007,-2.164 0.214,-2.614 -0.5,-2.907 -2.043,-2.907 h -3.335 c -1.193,0 -1.942,-0.157 -2.528,-0.307 -0.629,-0.164 -1.029,-0.328 -1.664,-0.328 -0.943,0 -1.814,0.464 -2.236,0.907 l 0.786,0.621 -0.393,0.521 c -0.228,-0.164 -3.021,-2.228 -3.607,-2.692 l -0.035,0.021 c 0.014,0.143 0.014,0.272 0.014,0.4 0,1.571 -0.729,1.95 -1.835,2.393 l -0.75,-0.443 c 1.521,-0.507 1.9,-0.914 1.9,-2.05 0,-0.9 -0.322,-1.257 -0.786,-1.528 -0.479,-0.279 -1.072,-0.407 -1.593,-0.407 -0.221,0 -0.321,-0.043 -0.4,-0.122 -0.086,-0.085 -0.128,-0.214 -0.128,-0.392 v -0.25 h 0.178 c 0.957,0 1.843,0.149 2.814,0.914 l 3.164,2.471 c 0.45,-0.514 1.586,-1.229 2.928,-1.229 0.757,0 1.243,0.186 1.943,0.365 0.543,0.136 1.071,0.257 2.228,0.257 h 3.35 c 1.714,0 2.542,0.357 3.456,0.871 1.986,1.114 3.679,3 4.636,5.164 -0.25,0.157 -0.486,0.3 -0.686,0.435 m -13.262,2.55 c 0.899,0.636 1.828,0.707 2.578,0.707 0.45,0 0.978,-0.064 1.535,-0.136 0.45,-0.057 0.857,-0.1 1.343,-0.1 0.978,0 1.964,0.357 2.392,0.543 C 0.086,6.099 0.293,5.899 0.457,5.756 0.25,5.628 -1.064,4.914 -2.407,4.914 c -0.593,0 -1.157,0.071 -1.642,0.135 -0.429,0.057 -0.893,0.107 -1.343,0.107 -0.493,0 -1.486,-0.142 -2.1,-0.435 z m -10.278,0.129 c 0.386,0 0.7,0.128 1,0.25 0.286,0.114 0.571,0.228 0.957,0.228 0.914,0 2.042,-0.443 3.035,-0.864 0.057,-0.022 0.122,-0.036 0.186,-0.036 0.157,0 0.279,0.072 0.357,0.222 l 0.128,0.235 c -1.092,0.636 -2.835,1.314 -3.742,1.314 -0.414,0 -0.714,-0.107 -1,-0.221 -0.321,-0.129 -0.6,-0.264 -0.893,-0.264 -0.721,0 -2.57,0.714 -2.57,1.407 0,0.814 2.942,1.128 3.264,1.128 l 0.292,0.664 c -2.135,0 -4.678,-0.75 -4.678,-1.742 0,-0.286 0.165,-0.429 0.165,-0.693 0,-0.357 -0.165,-0.6 -0.165,-1 0,-0.264 0.157,-0.6 0.343,-0.893 0.2,-0.307 0.436,-0.507 0.436,-0.764 0,-0.193 -0.129,-0.421 -0.129,-0.871 0,-0.964 0.55,-1.55 1.621,-2.7 l 0.214,-0.228 c -0.885,-0.343 -2.535,-1.057 -2.92,-1.222 -1.336,-0.557 -1.672,-1.235 -1.672,-2.306 0,-0.415 0,-0.886 0.029,-1.307 h 0.257 c 0.536,0 0.6,0.321 0.6,0.628 0,0.207 -0.007,0.443 -0.007,0.7 0.007,0.593 0.028,1.121 0.985,1.55 0.386,0.171 2.279,0.942 3.686,1.542 0.414,0.179 0.799,0.329 1.228,0.329 0.478,0 1.028,-0.207 1.714,-0.614 0.578,-0.343 1.186,-0.807 1.664,-1.343 l 0.607,0.464 c -0.521,0.615 -1.242,1.164 -1.964,1.593 -0.721,0.429 -1.364,0.678 -1.907,0.678 -0.235,0 -0.428,-0.042 -0.593,-0.085 -0.192,-0.05 -0.371,-0.107 -0.599,-0.107 -0.265,0 -0.486,0.064 -0.808,0.435 -0.121,0.136 -0.892,1.015 -1.056,1.271 -0.079,0.122 -0.222,0.365 -0.222,0.651 0,0.121 0.021,0.264 0.093,0.392 0.664,-0.514 1.485,-0.828 2.485,-0.95 l -0.135,0.679 c -1.436,0.378 -2.964,1.642 -2.964,2.457 0,0.171 0.043,0.292 0.107,0.442 0.557,-0.514 1.864,-1.049 2.571,-1.049 m 12.805,3.263 h 3.65 l -0.271,0.658 h -3.036 z m 18.641,4.671 c 0.857,0.365 2.393,0.979 3.278,1.3 v 0.871 c -1.778,-0.656 -4.899,-1.949 -7.027,-3.106 0.057,-0.072 0.428,-0.593 0.471,-0.657 0.9,0.371 1.707,0.614 2.435,0.614 1.021,0 1.857,0 3.257,0.328 v 0.657 c -0.786,-0.142 -1.621,-0.314 -2.164,-0.314 -0.321,0 -0.414,0.043 -0.414,0.15 0,0.065 0.043,0.107 0.164,0.157 m -1.907,2.593 c -0.557,0 -0.714,0.307 -0.714,0.743 0,0.9 0.564,2.192 0.921,2.928 H 10.72 C 10.27,18.691 8.499,15.898 7.542,14.741 l 0.55,-0.593 c 0.514,0.572 1.078,1.543 1.693,2.5 h 0.114 c 0,-0.05 -0.007,-0.107 -0.007,-0.157 0,-0.807 0.414,-1.407 1.435,-1.407 0.629,0 1.614,0.314 2.543,0.628 0.771,0.265 1.478,0.536 1.828,0.636 v 0.857 c -0.4,-0.121 -1.214,-0.436 -2.057,-0.728 -0.885,-0.308 -1.757,-0.586 -2.264,-0.586 M -7.52,1.557 -7.692,2.214 c 1.471,0.793 2.814,1.429 4.957,1.635 0.042,-0.821 -0.015,-1.856 0.592,-1.856 0.558,0 1.772,1.435 3.171,3.235 C 1.157,5.106 1.364,4.978 1.55,4.835 L 1.193,4.371 C -0.171,2.614 -1.336,1.114 -2.293,1.114 -3.185,1.114 -3.521,2.164 -3.535,2.95 -4.899,2.814 -6.185,2.357 -7.52,1.557 M -8.492,1.878 C -9.434,1.35 -10.413,1 -11.277,1 c -0.964,0 -1.821,0.414 -2.536,1.492 -0.3,0.458 -0.535,1.029 -0.821,1.536 -0.343,0.6 -0.714,0.921 -1.364,0.921 -0.593,0 -1.171,-0.243 -1.785,-0.507 l 0.028,-0.135 c 0.05,-0.222 0.136,-0.379 0.343,-0.379 0.093,0 0.186,0.043 0.236,0.057 0.343,0.107 0.593,0.2 0.942,0.2 0.536,0 0.793,-0.314 1.158,-1.085 l 0.135,-0.286 c -0.371,-0.129 -1.243,-0.193 -1.892,-0.193 h -0.308 l 0.05,-0.307 c 0.022,-0.128 0.072,-0.236 0.179,-0.286 0.128,-0.064 0.314,-0.071 0.636,-0.071 0.814,0 1.406,0.1 1.749,0.186 0.879,-1.307 2.086,-1.807 3.25,-1.807 0.993,0 2,0.364 2.964,0.892 z m -2.657,0.272 c -0.964,0 -1.392,0.457 -1.392,1.035 0,1.014 1.778,2.007 3.378,2.621 L -8.749,5.271 C -9.734,4.878 -11.72,4.035 -11.72,3.307 c 0,-0.257 0.15,-0.443 0.75,-0.443 1.043,0 2.164,0.507 3.2,1.014 0.078,0.036 0.171,0.071 0.257,0.071 0.135,0 0.221,-0.042 0.321,-0.185 L -7.02,3.528 C -8.227,2.864 -9.734,2.15 -11.149,2.15 m 22.076,-18.641 c 0.093,0.879 0.765,1.536 1.786,1.536 1,0 1.693,-0.657 1.785,-1.536 z m 1.779,3.128 c -2.479,0 -3.871,-1.935 -3.871,-3.978 0,-2.178 1.492,-4.092 3.885,-4.092 1.193,0 2.364,0.45 3.035,1.242 0.293,0.343 0.529,0.822 0.529,1.115 0,0.1 -0.022,0.186 -0.079,0.25 -0.057,0.071 -0.143,0.114 -0.293,0.114 h -1.15 c -0.228,0 -0.385,-0.086 -0.499,-0.257 -0.336,-0.493 -0.822,-0.75 -1.536,-0.75 -1.071,0 -1.764,0.814 -1.814,1.707 h 4.985 c 0.221,0 0.379,0.05 0.486,0.157 0.121,0.114 0.178,0.279 0.178,0.586 0,0.935 -0.293,1.906 -0.907,2.649 -0.628,0.75 -1.599,1.257 -2.949,1.257 m 3.149,1.093 c 0.15,0 0.264,0.043 0.35,0.114 0.093,0.086 0.136,0.2 0.136,0.372 v 0.664 c 0,0.257 -0.05,0.386 -0.136,0.478 -0.078,0.086 -0.207,0.136 -0.35,0.136 -0.114,0 -0.228,-0.014 -0.421,-0.036 L 9.735,-11.106 C 9.57,-11.12 9.492,-11.17 9.435,-11.234 9.37,-11.306 9.342,-11.399 9.342,-11.527 v -0.372 c 0,-0.142 0.028,-0.207 0.078,-0.264 0.065,-0.071 0.158,-0.107 0.286,-0.107 z m -24.19,23.433 c 0,0.071 0.008,0.157 0.036,0.243 0.057,0.185 0.179,0.364 0.479,0.364 0.135,0 0.285,-0.036 0.407,-0.121 0.107,-0.072 0.15,-0.165 0.15,-0.257 0,-0.308 -0.515,-0.665 -0.772,-0.665 -0.185,0 -0.3,0.179 -0.3,0.436 m -1.678,4.406 c 0,0.308 0.186,0.643 0.543,0.643 0.157,0 0.343,-0.064 0.478,-0.193 0.079,-0.071 0.115,-0.15 0.115,-0.228 0,-0.172 -0.165,-0.336 -0.358,-0.45 -0.149,-0.086 -0.307,-0.143 -0.442,-0.143 -0.222,0 -0.336,0.136 -0.336,0.371 m 7.249,2.086 c 0,0.25 0.129,0.7 0.593,0.7 0.157,0 0.307,-0.036 0.428,-0.093 0.172,-0.078 0.286,-0.193 0.286,-0.314 0,-0.129 -0.128,-0.257 -0.321,-0.414 -0.2,-0.165 -0.457,-0.315 -0.665,-0.315 -0.25,0 -0.321,0.236 -0.321,0.436 m -18.319,-5.542 c -0.093,-0.036 -0.136,-0.057 -0.186,-0.057 -0.078,0 -0.114,0.064 -0.114,0.114 0,0.05 0.021,0.079 0.071,0.121 0.879,0.686 1.65,0.957 2.714,1.136 l 0.129,-0.428 z m 4.842,3.314 -0.385,0.235 c 0.249,0.593 0.557,1.136 0.921,1.543 0.257,0.293 0.5,0.528 0.771,0.764 0.064,0.05 0.1,0.093 0.165,0.093 0.071,0 0.121,-0.057 0.121,-0.114 0,-0.029 -0.015,-0.064 -0.043,-0.107 -0.435,-0.679 -1.285,-2.022 -1.55,-2.414 m -5.063,2.392 c -0.065,0.057 -0.079,0.093 -0.079,0.136 0,0.05 0.036,0.107 0.114,0.107 0.029,0 0.057,-0.007 0.093,-0.021 0.529,-0.215 0.979,-0.465 1.379,-0.772 0.335,-0.257 0.664,-0.571 0.985,-0.95 l -0.3,-0.342 c -0.371,0.307 -1.571,1.314 -2.192,1.842 m 5.235,-6.449 c 0.107,0.179 0.428,0.614 0.557,0.75 -0.55,1.114 -1.45,2.178 -1.843,2.6 l -0.328,-0.322 c 0.378,-0.55 1.014,-1.614 1.614,-3.028 m 3.835,-27.861 c 0.093,0.879 0.764,1.536 1.785,1.536 1,0 1.693,-0.657 1.786,-1.536 z M 6.914,8.135 C 6.863,8.199 6.821,8.228 6.763,8.228 6.678,8.228 6.635,8.17 6.635,8.106 6.635,8.006 6.706,7.885 6.885,7.585 7.428,6.663 8.099,5.735 8.927,4.864 9.82,3.914 10.87,3.028 11.991,2.235 l 0.35,-0.242 c 0.05,-0.036 0.086,-0.057 0.129,-0.057 0.071,0 0.121,0.071 0.121,0.128 0,0.036 -0.014,0.071 -0.057,0.107 C 11.492,3.121 10.37,4.278 9.32,5.392 8.499,6.271 7.656,7.199 6.914,8.135 M -11.413,8.57 c -0.407,-0.55 -0.964,-1.271 -1.393,-2.035 0.136,-0.064 0.586,-0.307 0.743,-0.393 0.493,0.743 1.179,1.657 1.629,2.35 0.407,0.628 0.571,0.9 0.6,1.743 0.007,0.142 0.007,0.278 0.021,0.413 0.036,0.436 0.15,0.879 0.564,1.286 0.307,0.307 0.75,0.464 1.193,0.464 0.429,0 0.678,-0.121 1.05,-0.121 0.264,0 0.457,0.064 0.628,0.129 l 0.136,0.05 -0.329,-0.786 0.772,-0.314 C -6.292,11.049 -7.37,9.727 -7.37,8.163 c 0,-0.564 0.085,-1.085 0.207,-1.55 0.014,-0.05 0.042,-0.1 0.121,-0.1 0.072,0 0.122,0.043 0.129,0.122 l 0.007,0.164 c 0.021,0.479 0.057,1.236 0.25,1.914 0.321,1.143 1.185,2.214 2.049,2.728 l -1.228,0.536 0.529,1.293 -0.579,-0.122 c -0.35,-0.071 -0.607,-0.135 -0.914,-0.135 -0.2,0 -0.429,0.028 -0.7,0.092 -0.207,0.051 -0.428,0.093 -0.743,0.093 -0.564,0 -1.171,-0.214 -1.585,-0.614 -0.757,-0.721 -0.8,-1.5 -0.85,-2.192 -0.065,-0.922 -0.236,-1.15 -0.736,-1.822 m -1.643,4.864 c -0.335,-0.478 -0.578,-0.714 -1.342,-1.614 -1.007,-1.193 -1.536,-2.157 -2.414,-4.3 0.143,0.015 0.35,0.029 0.578,0.029 0.115,0 0.208,0 0.358,-0.007 l 0.106,0.228 c 0.493,1.057 1.157,2.486 2.086,3.586 l 0.321,0.378 c 0.958,1.122 1.55,1.786 1.922,3.314 0.128,0.543 0.235,1.029 0.6,1.379 0.328,0.314 0.742,0.449 1.164,0.449 0.357,0 0.621,-0.085 1.007,-0.25 0.35,-0.149 0.478,-0.178 0.85,-0.178 0.128,0 0.221,0.007 0.307,0.014 l -0.5,-0.671 0.678,-0.478 c -0.85,-0.251 -1.3,-1.072 -1.449,-1.451 -0.029,-0.078 -0.043,-0.128 -0.043,-0.178 0,-0.057 0.028,-0.114 0.114,-0.114 0.093,0 0.164,0.071 0.286,0.214 0.414,0.5 0.742,0.843 2.271,1.321 l -1.079,0.814 0.814,1.193 h -0.764 c -0.485,0 -0.807,0.007 -1.228,0.2 -0.572,0.264 -0.864,0.379 -1.372,0.379 -0.621,0 -1.185,-0.222 -1.649,-0.65 -0.536,-0.493 -0.7,-1.15 -0.893,-1.872 -0.15,-0.557 -0.328,-1.171 -0.729,-1.735 M 6.028,-20.654 c 0,-0.186 0.057,-0.322 0.143,-0.429 0.107,-0.129 0.257,-0.208 0.478,-0.208 h 0.85 c 0.221,0 0.371,0.079 0.479,0.208 0.085,0.107 0.142,0.243 0.142,0.429 v 9.348 c 0,0.186 -0.057,0.321 -0.142,0.429 -0.108,0.128 -0.258,0.207 -0.479,0.207 h -0.85 c -0.221,0 -0.371,-0.079 -0.478,-0.207 -0.086,-0.108 -0.143,-0.243 -0.143,-0.429 z m -4.371,7.02 h -0.4 c -0.15,0 -0.264,-0.043 -0.35,-0.114 -0.093,-0.086 -0.135,-0.201 -0.135,-0.372 v -0.493 c 0,-0.171 0.042,-0.285 0.135,-0.371 0.086,-0.071 0.2,-0.114 0.35,-0.114 h 0.4 v -3.564 c 0,-0.914 0.25,-1.486 0.714,-1.943 0.429,-0.421 0.986,-0.686 1.957,-0.686 h 0.607 c 0.15,0 0.264,0.043 0.35,0.115 0.093,0.086 0.15,0.2 0.15,0.371 v 0.622 c 0,0.171 -0.057,0.285 -0.15,0.371 -0.086,0.072 -0.2,0.114 -0.35,0.114 H 4.85 c -0.386,0 -0.651,0.1 -0.829,0.272 -0.214,0.199 -0.322,0.507 -0.322,0.907 v 3.421 H 5 c 0.149,0 0.264,0.043 0.349,0.114 0.093,0.086 0.136,0.2 0.136,0.371 v 0.493 c 0,0.171 -0.043,0.286 -0.136,0.372 -0.085,0.071 -0.2,0.114 -0.349,0.114 H 3.707 v 2.328 c 0,0.186 -0.057,0.321 -0.143,0.429 -0.107,0.128 -0.257,0.207 -0.479,0.207 H 2.278 c -0.221,0 -0.371,-0.079 -0.478,-0.207 -0.086,-0.108 -0.143,-0.243 -0.143,-0.429 z m -16.791,32.667 c 0.15,0.329 0.479,0.557 0.871,0.557 0.536,0 0.965,-0.414 0.965,-0.964 0,-0.321 -0.15,-0.6 -0.386,-0.771 0.05,-0.186 0.086,-0.35 0.086,-0.507 0,-0.6 -0.357,-1.021 -1.015,-1.243 -0.085,-0.364 -0.242,-0.693 -0.499,-0.936 -0.429,-0.414 -0.864,-0.414 -0.864,-0.585 0,-0.093 0.064,-0.15 0.242,-0.15 0.793,0 1.571,0.443 1.664,1.178 0.757,0.257 1.214,1.022 1.214,1.629 0,0.157 -0.014,0.293 -0.078,0.421 0.207,0.2 0.45,0.543 0.45,1.05 0,0.443 -0.193,0.893 -0.536,1.221 -0.3,0.293 -0.721,0.486 -1.214,0.486 -0.714,0 -1.178,-0.386 -1.442,-0.764 -0.779,0 -1.786,-0.864 -1.786,-2.1 h -0.107 c -0.072,0.428 -0.514,0.714 -0.886,0.736 -0.3,0.899 -0.978,1.671 -2.093,1.671 -0.128,0 -0.285,-0.007 -0.421,-0.029 -0.328,0.3 -0.692,0.486 -1.2,0.486 -0.971,0 -1.764,-0.778 -1.764,-1.764 0,-0.614 0.279,-1.036 0.807,-1.407 0,0 -0.007,-0.079 -0.007,-0.114 0,-0.786 0.857,-2.014 2.129,-2.014 0,-0.2 0.25,-0.472 0.528,-0.522 v -0.1 h -0.107 c -1.75,0 -2.493,-0.843 -2.493,-1.407 -0.521,-0.214 -0.857,-0.793 -0.857,-1.328 0,-1.064 0.779,-1.821 1.807,-1.821 0.343,0 0.693,0.135 0.936,0.321 0.178,-0.064 0.407,-0.1 0.642,-0.1 0.493,0 1.043,0.171 1.429,0.736 0.057,-0.007 0.107,-0.007 0.164,-0.007 0.629,0 1.172,0.414 1.457,0.957 0.072,0.135 0.1,0.242 0.1,0.321 0,0.079 -0.035,0.143 -0.114,0.143 -0.1,0 -0.114,-0.093 -0.293,-0.257 -0.4,-0.364 -1.014,-0.5 -1.643,-0.5 -0.307,-0.45 -0.685,-0.686 -1.121,-0.686 -0.321,0 -0.571,0.086 -0.828,0.257 -0.207,-0.228 -0.465,-0.321 -0.715,-0.321 -0.564,0 -0.964,0.393 -0.964,0.964 0,0.4 0.257,0.757 0.614,0.893 0.065,0.707 0.822,1.185 1.765,1.185 0.121,0 0.243,-0.007 0.371,-0.021 0.143,0.228 0.486,0.471 0.971,0.535 0.1,0.015 0.179,0.022 0.236,0.05 0.057,0.029 0.086,0.086 0.086,0.151 0,0.057 -0.022,0.107 -0.079,0.142 -0.05,0.029 -0.136,0.043 -0.236,0.064 -0.449,0.086 -0.985,0.365 -1.257,1.044 -1.078,0 -1.871,0.863 -1.871,1.835 v 0.064 c -0.357,0.143 -0.6,0.486 -0.6,0.893 0,0.535 0.422,0.964 0.957,0.964 0.322,0 0.6,-0.157 0.779,-0.393 0.15,0.043 0.321,0.057 0.485,0.057 0.8,0 1.658,-0.507 1.822,-1.492 1.028,-0.093 1.271,-0.965 1.335,-1.329 0.036,-0.186 0.064,-0.343 0.186,-0.343 0.129,0 0.157,0.143 0.2,0.336 0.078,0.364 0.214,0.657 0.486,0.886 0,0.935 0.699,1.742 1.692,1.742 m 12.342,-32.396 c -1.957,0 -3.243,-0.928 -3.243,-2.414 0,-0.528 0.193,-0.956 0.507,-1.292 0.364,-0.393 0.886,-0.665 1.643,-0.857 l 1.635,-0.415 c 0.45,-0.114 0.85,-0.249 0.85,-0.642 0,-0.607 -0.643,-0.815 -1.328,-0.815 -0.336,0 -0.686,0.065 -0.971,0.208 -0.201,0.1 -0.372,0.242 -0.493,0.435 -0.107,0.164 -0.143,0.286 -0.308,0.379 -0.099,0.057 -0.221,0.064 -0.385,0.064 H -5.77 c -0.193,0 -0.286,-0.057 -0.351,-0.136 -0.064,-0.078 -0.086,-0.193 -0.086,-0.307 0,-0.285 0.101,-0.643 0.336,-0.964 0.543,-0.729 1.679,-1.314 3.129,-1.314 1.428,0 3.406,0.593 3.406,2.507 0,0.493 -0.143,0.914 -0.407,1.257 -0.336,0.435 -0.814,0.735 -1.628,0.942 l -1.621,0.415 c -0.672,0.171 -0.986,0.292 -0.986,0.707 0,0.4 0.357,0.721 1.186,0.721 0.485,0 0.928,-0.107 1.214,-0.407 0.235,-0.25 0.193,-0.379 0.378,-0.479 0.115,-0.057 0.243,-0.057 0.443,-0.057 H 0.05 c 0.129,0 0.221,0.022 0.293,0.1 0.057,0.065 0.093,0.165 0.093,0.329 0,0.371 -0.243,0.85 -0.672,1.214 -0.571,0.493 -1.471,0.821 -2.556,0.821 m -7.664,0 c -2.478,0 -3.871,-1.935 -3.871,-3.978 0,-2.178 1.493,-4.092 3.885,-4.092 1.193,0 2.364,0.45 3.036,1.242 0.293,0.343 0.528,0.822 0.528,1.115 0,0.1 -0.021,0.186 -0.078,0.25 -0.057,0.071 -0.143,0.114 -0.293,0.114 h -1.15 c -0.229,0 -0.385,-0.086 -0.5,-0.257 -0.336,-0.493 -0.821,-0.75 -1.535,-0.75 -1.072,0 -1.765,0.814 -1.815,1.707 h 4.971 c 0.222,0 0.379,0.05 0.486,0.157 0.122,0.114 0.179,0.279 0.179,0.586 0,0.935 -0.293,1.906 -0.907,2.649 -0.629,0.75 -1.586,1.257 -2.936,1.257 M 9.385,10.734 c -2.657,3.964 -4.992,5.3 -5.65,5.928 -0.721,0.693 -1.271,1.479 -1.621,1.857 -0.778,0.85 -1.785,1.9 -3.442,1.9 -1.6,0 -2.657,-1.043 -3,-1.943 -0.1,-0.257 -0.179,-0.571 -0.25,-0.685 -0.157,-0.257 -0.864,-1.464 -1.157,-1.943 h 1.322 l -0.643,-1.214 c 0.75,0.164 1.285,0.286 1.999,0.286 0.636,0 1.093,-0.151 1.293,-0.55 0.371,-0.743 0.371,-2.993 1,-4.686 C -0.179,8.092 1.25,6.535 2.857,5.342 2.878,5.328 2.9,5.321 2.928,5.321 c 0.079,0 0.129,0.057 0.129,0.114 0,0.043 -0.014,0.071 -0.05,0.107 -1.343,1.343 -2.436,2.828 -3.021,4.457 -0.579,1.585 -0.486,3.814 -0.993,4.806 -0.336,0.657 -1.05,0.829 -1.707,0.829 -0.529,0 -1.021,-0.107 -1.25,-0.157 l 0.579,0.978 h -0.979 c 0.207,0.364 0.422,0.7 0.529,0.9 0.093,0.171 0.128,0.386 0.243,0.679 0.371,0.935 1.192,1.528 2.264,1.528 1.342,0 2.128,-0.864 2.906,-1.729 0.358,-0.399 0.943,-1.235 1.622,-1.856 0.464,-0.429 1.349,-0.908 2.714,-2.314 0.785,-0.814 1.699,-1.871 2.664,-3.286 3.449,-5.049 5.713,-9.499 6.977,-12.97 L 15.534,-2.607 C 11.913,-0.15 8.778,2.171 6.249,5.035 4.457,7.071 2.9,9.427 1.543,12.434 c -0.093,0.2 -0.172,0.386 -0.257,0.579 -0.036,0.078 -0.072,0.1 -0.129,0.1 -0.071,0 -0.121,-0.05 -0.121,-0.122 0,-0.078 0.035,-0.25 0.114,-0.593 C 1.871,9.285 3.871,6.492 6.007,4.171 8.135,1.864 10.542,-0.121 12.52,-1.564 l 1.543,-4.414 c 0.035,-0.107 0.078,-0.221 0.078,-0.328 0,-0.079 -0.021,-0.143 -0.071,-0.186 -0.043,-0.043 -0.1,-0.064 -0.229,-0.064 h -0.464 c -0.2,0 -0.278,0.028 -0.35,0.085 -0.071,0.057 -0.121,0.143 -0.157,0.243 -0.136,0.415 -0.95,2.736 -1.107,3.207 -0.029,0.086 -0.079,0.114 -0.136,0.114 -0.071,0 -0.121,-0.057 -0.121,-0.121 0,-0.057 0.021,-0.122 0.057,-0.322 0.207,-1.057 0.45,-2.242 0.55,-2.692 0.043,-0.207 0.093,-0.4 0.093,-0.543 0,-0.129 -0.029,-0.2 -0.136,-0.307 l -0.479,-0.486 c -0.114,-0.114 -0.178,-0.143 -0.271,-0.143 -0.114,0 -0.207,0.079 -0.25,0.279 -0.543,2.535 -1.364,5.678 -1.578,6.549 -0.05,0.193 -0.086,0.3 -0.2,0.3 -0.1,0 -0.136,-0.071 -0.136,-0.157 0,-0.064 0.014,-0.143 0.022,-0.2 0.128,-0.9 0.65,-4.178 1.214,-7.171 0.1,-0.514 0.293,-0.799 0.735,-0.799 0.2,0 0.393,0.078 0.572,0.25 0.292,0.292 0.378,0.371 0.728,0.714 0.25,0.243 0.421,0.342 0.85,0.342 h 1.057 c 0.25,0 0.386,0.065 0.507,0.179 0.114,0.107 0.186,0.257 0.186,0.472 0,0.221 -0.057,0.399 -0.136,0.621 -0.271,0.728 -1.143,3.192 -1.4,3.885 l 0.022,0.014 c 0.893,-0.678 2.192,-1.542 2.764,-1.542 0.178,0 0.285,0.078 0.285,0.357 0,1.314 -2.185,6.72 -7.177,14.162 m -26.354,-21.64 c -0.1,-0.121 -0.157,-0.257 -0.157,-0.493 v -6.484 h -0.036 c 0,0 -3.55,6.327 -3.721,6.62 -0.121,0.207 -0.257,0.35 -0.436,0.457 -0.178,0.1 -0.364,0.164 -0.721,0.164 h -1.172 c -0.271,0 -0.442,-0.092 -0.563,-0.235 -0.101,-0.122 -0.158,-0.257 -0.158,-0.493 v -9.192 c 0,-0.235 0.057,-0.371 0.158,-0.493 0.121,-0.143 0.292,-0.236 0.563,-0.236 h 0.665 c 0.271,0 0.443,0.093 0.564,0.236 0.1,0.122 0.157,0.258 0.157,0.493 v 6.642 h 0.036 c 0,0 3.685,-6.528 3.835,-6.771 0.207,-0.342 0.557,-0.6 1.057,-0.6 h 1.136 c 0.271,0 0.443,0.093 0.564,0.236 0.1,0.122 0.157,0.258 0.157,0.493 v 8.292 h 14.92 c 0.15,0 0.264,0.043 0.35,0.114 0.092,0.086 0.135,0.2 0.135,0.372 v 0.628 c 0,0.172 -0.043,0.286 -0.135,0.372 -0.086,0.071 -0.2,0.114 -0.35,0.114 h -16.284 c -0.272,0 -0.443,-0.093 -0.564,-0.236"
         style="fill:#000000;fill-opacity:1;fill-rule:nonzero;stroke:none"
         id="path4170"
         inkscape:connector-curvature="0" />
    </g>
    <g
       id="g4388"
       transform="matrix(7.0555847,0,0,-7.0555847,-3020.0097,5757.0769)">
      <g
         id="g4390"
         clip-path="url(#clipPath4392)">
        <text
           transform="matrix(0,-1,-1,0,-10.0191,708.6614)"
           style="font-variant:normal;font-weight:300;font-stretch:normal;line-height:0%;font-family:LTUnivers;-inkscape-font-specification:LTUnivers-BasicLight;writing-mode:lr-tb;fill:#000000;fill-opacity:1;fill-rule:nonzero;stroke:none"
           id="text4396">
          <tspan
             x="0 5.6782498 9.8017502 13.52775 16.049999 17.913 21.903 23.792999 27.648001 29.538 34.91925 39.285751 43.63575 48.087002 52.0275 53.775002 55.665001 60.66 64.69725 68.670753 70.514252 74.561249 80.71125 82.60125 86.841003 90.920998 94.849503"
             y="0"
             sodipodi:role="line"
             id="tspan4398"
             style="font-size:7.5px;line-height:1.25">Nestlé – Annual Review 2016</tspan>
        </text>
      </g>
    </g>
  </g>
</svg>
