<?xml version="1.0" encoding="utf-8"?>
<!-- Generator: Adobe Illustrator 16.0.0, SVG Export Plug-In . SVG Version: 6.00 Build 0)  -->
<!DOCTYPE svg PUBLIC "-//W3C//DTD SVG 1.1//EN" "http://www.w3.org/Graphics/SVG/1.1/DTD/svg11.dtd">
<svg version="1.1" id="Layer_1" xmlns:sketch="http://www.bohemiancoding.com/sketch/ns"
	 xmlns="http://www.w3.org/2000/svg" xmlns:xlink="http://www.w3.org/1999/xlink" x="0px" y="0px" width="1000px"
	 height="152.875px" viewBox="-381.005 -57.828 1000 152.875" enable-background="new -381.005 -57.828 1000 152.875"
	 xml:space="preserve">
<title>Group</title>
<desc>Created with Sketch.</desc>
<g>
	<path id="Fill-1" sketch:type="MSShapeGroup" fill="#FF6600" d="M-71.092-14.349l-10.982-24.987l-11.637,24.987H-71.092
		L-71.092-14.349z M-106.09,12.98h-23.043l35.56-68.676h25.511l33.931,68.676h-25.6l-5.168-12.378h-35.648L-106.09,12.98
		L-106.09,12.98z"/>
	<path id="Fill-2" sketch:type="MSShapeGroup" fill="#FF6600" d="M-30.769-55.696h22.114v68.674h-22.114V-55.696z"/>
	<path id="Fill-3" sketch:type="MSShapeGroup" fill="#FF6600" d="M4.701-34.829h22.113V12.98H4.701V-34.829z M4.701-55.616h22.113
		v14.012H4.701V-55.616z"/>
	<path id="Fill-4" sketch:type="MSShapeGroup" fill="#FF6600" d="M83.523-10.749c0-4.224-0.996-7.549-2.983-9.989
		c-1.979-2.438-4.678-3.656-8.084-3.656c-3.664,0-6.463,1.173-8.398,3.52c-1.938,2.342-2.913,5.742-2.913,10.216
		c0,4.224,0.981,7.506,2.931,9.849c1.958,2.338,4.683,3.509,8.19,3.509c3.445,0,6.18-1.208,8.21-3.627
		C82.507-3.352,83.523-6.624,83.523-10.749 M39.22-55.696h22.112v27.667c2.633-2.709,5.577-4.74,8.834-6.095
		c3.255-1.349,6.82-2.031,10.693-2.031c7.533,0,13.587,2.409,18.161,7.222c4.571,4.813,6.855,11.195,6.855,19.145
		c0,7.236-2.253,13.031-6.767,17.396c-4.511,4.362-10.495,6.542-17.97,6.542c-4.119,0-7.855-0.75-11.208-2.253
		c-3.344-1.506-6.211-3.722-8.598-6.637c0,1.586-0.058,3.024-0.187,4.329c-0.122,1.306-0.326,2.431-0.607,3.392H38.429
		c0.248-0.896,0.438-2.022,0.579-3.364c0.142-1.354,0.212-2.892,0.212-4.633V-55.696"/>
	<path id="Fill-5" sketch:type="MSShapeGroup" fill="#FF6600" d="M154.311-7.733c-7.155,0-12.029,0.469-14.624,1.396
		c-2.599,0.931-3.899,2.557-3.899,4.881c0,1.578,0.636,2.809,1.893,3.691c1.264,0.884,3.04,1.324,5.345,1.324
		c3.76,0,6.581-0.876,8.456-2.623c1.889-1.752,2.83-4.392,2.83-7.921V-7.733L154.311-7.733z M154.773,5.924
		c-2.106,2.766-4.842,4.813-8.192,6.147c-3.354,1.333-7.41,2.003-12.19,2.003c-6.804,0-12.025-1.212-15.686-3.631
		c-3.664-2.42-5.492-5.848-5.492-10.284c0-6.048,3.154-10.417,9.467-13.104c6.316-2.679,16.883-4.085,31.722-4.209
		c0-0.091,0.017-0.271,0.046-0.533c0.033-0.264,0.045-0.457,0.045-0.58c0-2.446-0.735-4.274-2.206-5.482
		c-1.479-1.204-3.685-1.812-6.634-1.812c-2.661,0-4.71,0.442-6.14,1.326c-1.42,0.88-2.271,2.206-2.548,3.97h-20.412
		c0.097-5.307,2.607-9.256,7.543-11.844c4.941-2.592,12.464-3.89,22.581-3.89c9.716,0,16.953,1.512,21.704,4.538
		c4.738,3.018,7.122,7.626,7.122,13.8V6.722c0,1.51,0.074,2.735,0.21,3.663c0.137,0.931,0.377,1.791,0.719,2.596h-20.484
		c-0.413-1.14-0.703-2.292-0.893-3.449C154.868,8.37,154.773,7.166,154.773,5.924L154.773,5.924z"/>
	<path id="Fill-6" sketch:type="MSShapeGroup" fill="#FF6600" d="M232.193-10.749c0-4.224-0.996-7.549-2.979-9.989
		c-1.982-2.438-4.681-3.656-8.097-3.656c-3.651,0-6.453,1.173-8.391,3.52c-1.937,2.342-2.912,5.742-2.912,10.216
		c0,4.224,0.976,7.506,2.929,9.849c1.963,2.338,4.685,3.509,8.191,3.509c3.445,0,6.173-1.208,8.209-3.627
		C231.182-3.352,232.193-6.624,232.193-10.749 M187.888-55.696h22.117v27.667c2.628-2.709,5.577-4.74,8.832-6.095
		c3.252-1.349,6.825-2.031,10.692-2.031c7.526,0,13.582,2.409,18.159,7.222c4.569,4.813,6.858,11.195,6.858,19.145
		c0,7.236-2.256,13.031-6.771,17.396c-4.507,4.362-10.496,6.542-17.97,6.542c-4.118,0-7.854-0.75-11.199-2.253
		c-3.346-1.506-6.213-3.722-8.602-6.637c0,1.586-0.065,3.024-0.189,4.329c-0.12,1.306-0.322,2.431-0.604,3.392h-22.113
		c0.244-0.896,0.442-2.022,0.583-3.364c0.14-1.354,0.206-2.892,0.206-4.633V-55.696"/>
	<path id="Fill-7" sketch:type="MSShapeGroup" fill="#FF6600" d="M302.979-7.733c-7.154,0-12.029,0.469-14.628,1.396
		c-2.594,0.931-3.896,2.557-3.896,4.881c0,1.578,0.637,2.809,1.892,3.691c1.269,0.884,3.041,1.324,5.347,1.324
		c3.758,0,6.58-0.876,8.468-2.623c1.876-1.752,2.817-4.392,2.817-7.921V-7.733L302.979-7.733z M303.438,5.924
		c-2.107,2.766-4.833,4.813-8.184,6.147c-3.359,1.333-7.42,2.003-12.195,2.003c-6.795,0-12.033-1.212-15.689-3.631
		c-3.656-2.42-5.486-5.848-5.486-10.284c0-6.048,3.152-10.417,9.46-13.104c6.325-2.679,16.896-4.085,31.727-4.209
		c0-0.091,0.021-0.271,0.05-0.533c0.028-0.264,0.042-0.457,0.042-0.58c0-2.446-0.736-4.274-2.206-5.482
		c-1.472-1.204-3.686-1.812-6.627-1.812c-2.668,0-4.717,0.442-6.139,1.326c-1.425,0.88-2.271,2.206-2.562,3.97h-20.398
		c0.091-5.307,2.603-9.256,7.535-11.844c4.937-2.592,12.472-3.89,22.584-3.89c9.721,0,16.95,1.512,21.7,4.538
		c4.751,3.018,7.122,7.626,7.122,13.8V6.722c0,1.51,0.066,2.735,0.211,3.663c0.137,0.931,0.385,1.791,0.723,2.596h-20.49
		c-0.413-1.14-0.71-2.292-0.896-3.449C303.541,8.37,303.438,7.166,303.438,5.924L303.438,5.924z"/>
	<path id="Fill-8" sketch:type="MSShapeGroup" fill="#FF6600" d="M392.837-13.727v-8.018h28.893V3.516
		c-4.44,3.528-9.01,6.184-13.723,7.969c-4.71,1.772-9.556,2.665-14.517,2.665c-6.7,0-12.781-1.432-18.256-4.305
		c-5.473-2.867-9.6-7.017-12.396-12.444c-2.793-5.437-4.185-11.495-4.185-18.198c0-6.632,1.383-12.831,4.168-18.59
		c2.763-5.756,6.758-10.028,11.976-12.82c5.205-2.793,11.207-4.187,17.99-4.187c4.933,0,9.395,0.799,13.373,2.398
		c3.986,1.603,7.118,3.829,9.382,6.69c2.264,2.857,3.981,6.581,5.155,11.179l-8.171,2.229c-1.024-3.474-2.298-6.213-3.81-8.202
		c-1.512-1.998-3.677-3.594-6.506-4.79c-2.817-1.202-5.929-1.795-9.374-1.795c-4.118,0-7.671,0.628-10.674,1.886
		c-3.012,1.26-5.429,2.921-7.271,4.974c-1.843,2.049-3.272,4.304-4.297,6.76c-1.735,4.23-2.594,8.822-2.594,13.763
		c0,6.101,1.036,11.199,3.131,15.303c2.09,4.106,5.122,7.155,9.129,9.145c3.979,1.991,8.229,2.986,12.708,2.986
		c3.903,0,7.708-0.752,11.43-2.268c3.706-1.508,6.532-3.123,8.453-4.838v-12.752H392.837"/>
	<path id="Fill-9" sketch:type="MSShapeGroup" fill="#FF6600" d="M433.875,12.98v-49.442h7.561v7.506
		c1.933-3.501,3.717-5.807,5.354-6.921c1.628-1.113,3.437-1.671,5.395-1.671c2.834,0,5.713,0.889,8.639,2.669l-2.926,7.769
		c-2.053-1.198-4.102-1.795-6.142-1.795c-1.835,0-3.479,0.547-4.946,1.646c-1.453,1.107-2.49,2.638-3.118,4.587
		c-0.934,2.983-1.4,6.236-1.4,9.776V12.98H433.875"/>
	<path id="Fill-10" sketch:type="MSShapeGroup" fill="#FF6600" d="M472.736-11.724c0,6.331,1.383,11.067,4.135,14.217
		c2.76,3.154,6.229,4.73,10.41,4.73c4.152,0,7.609-1.588,10.36-4.749c2.76-3.165,4.132-7.996,4.132-14.475
		c0-6.116-1.38-10.747-4.156-13.897c-2.768-3.148-6.213-4.73-10.336-4.73c-4.181,0-7.65,1.572-10.41,4.705
		C474.119-22.787,472.736-18.054,472.736-11.724 M464.09-11.738c0-9.148,2.553-15.923,7.643-20.329
		c4.246-3.656,9.436-5.482,15.549-5.482c6.804,0,12.36,2.22,16.678,6.67c4.309,4.449,6.465,10.598,6.465,18.443
		c0,6.36-0.955,11.358-2.863,14.998c-1.913,3.646-4.689,6.474-8.336,8.49c-3.641,2.012-7.63,3.023-11.943,3.023
		c-6.924,0-12.517-2.22-16.784-6.653C466.221,2.987,464.09-3.396,464.09-11.738"/>
	<path id="Fill-11" sketch:type="MSShapeGroup" fill="#FF6600" d="M553.965,12.98V5.668c-3.851,5.6-9.067,8.406-15.67,8.406
		c-2.924,0-5.639-0.562-8.162-1.681c-2.532-1.111-4.408-2.516-5.627-4.209c-1.227-1.693-2.086-3.759-2.581-6.209
		c-0.344-1.644-0.513-4.251-0.513-7.82v-30.617h8.415v27.391c0,4.371,0.169,7.316,0.508,8.833c0.521,2.204,1.644,3.93,3.342,5.188
		c1.707,1.251,3.821,1.886,6.325,1.886c2.511,0,4.861-0.646,7.067-1.939c2.194-1.279,3.751-3.032,4.664-5.249
		c0.909-2.216,1.38-5.43,1.38-9.656v-26.454h8.403V12.98H553.965"/>
	<path id="Fill-12" sketch:type="MSShapeGroup" fill="#FF6600" d="M583.643-11.453c0,6.364,1.279,11.067,3.858,14.11
		c2.569,3.044,5.667,4.567,9.331,4.567c3.715,0,6.896-1.576,9.543-4.732c2.656-3.148,3.971-8.029,3.971-14.645
		c0-6.3-1.29-11.02-3.88-14.155c-2.581-3.131-5.671-4.708-9.262-4.708c-3.565,0-6.713,1.673-9.455,5.007
		C585.014-22.667,583.643-17.819,583.643-11.453 M576.09,31.904v-68.367h7.622v6.43c1.798-2.51,3.839-4.389,6.106-5.641
		c2.26-1.254,5.011-1.876,8.229-1.876c4.218,0,7.948,1.076,11.175,3.25c3.227,2.173,5.659,5.233,7.304,9.187
		c1.644,3.954,2.47,8.289,2.47,12.997c0,5.054-0.909,9.608-2.726,13.653c-1.81,4.046-4.454,7.151-7.899,9.303
		c-3.457,2.154-7.097,3.234-10.897,3.234c-2.793,0-5.296-0.586-7.519-1.758c-2.214-1.175-4.036-2.658-5.453-4.449v24.036H576.09"/>
	<path id="Fill-13" sketch:type="MSShapeGroup" d="M-347.182,74.301c-1.229-0.14-3.144-1.23-4.502-2.321
		c-12.951-12.687,3.677-27.272,22.909-35.725v-24.13c4.497,2.867,6.957,3,7.089,3.406l14.723-14.584l-4.908-12.548
		c43.089-14.861,60.398-20.591,95.442-26.449l-6.279-5.87l10.232-5.855c23.586,7.779,45.817,9.817,41.992,29.586
		c0.958-13.362-15.677-18.546-41.038-25.633l-4.907,2.997l9.404,7.775c-41.988,7.225-67.759,15.409-98.436,26.04l4.222,10.912
		l-15.401,15.132c2.592,0.682,29.45,9.679,57.393-9.815c0,0,0.553-0.413,0.553-0.547c-0.813-1.363-2.729-2.867-5.042-4.907
		c8.18,0.547,13.488,7.772,12.538,15.27h-3.814c0.268-2.456-0.277-5.046-1.091-6.818c-21.68,15.82-46.768,18.138-68.175,10.636
		v18.676c-10.36,3.685-28.911,15.128-28.769,26.183C-352.366,71.021-349.638,72.93-347.182,74.301"/>
	<path id="Fill-14" sketch:type="MSShapeGroup" fill="#FF6600" d="M-259.508,69.526c-23.194,11.728-45.409,21.134-79.632,22.497
		c-44.583-0.958-51.535-30.545-30.405-61.494c19.908-31.219,51.541-59.448,101.855-77.04c14.581-5.168,35.99-11.036,56.715-11.311
		c29.725-0.274,58.636,9.001,56.72,37.498c-1.093,21.816-32.582,52.629-49.222,74.719c-7.093,9.67-8.32,15.95,3.813,15.408
		c44.049-2.871,83.994-18.135,121.079-33.953c-25.083,17.045-154.757,81.258-155.294,37.498c0.132-5.598,2.72-11.456,6.946-17.727
		c4.098-6.271,9.822-12.823,15.686-19.499c8.861-10.088,30.81-34.221,38.173-48.678c12.408-27.403-15.405-28.771-39.404-37.221
		l-10.23,5.855l6.279,5.87c-35.044,5.858-52.353,11.588-95.442,26.449l4.908,12.548l-14.723,14.584
		c-0.409-0.407-2.592-0.539-7.091-3.406v24.13c-19.23,8.452-35.86,23.038-22.911,35.725c1.363,1.091,3.277,2.182,4.506,2.321
		C-323.598,87.661-259.383,69.526-259.508,69.526"/>
	<path id="Fill-15" sketch:type="MSShapeGroup" fill="#FF6600" d="M-123.639,86.533V75.73h4.778c0.95,0,1.693,0.096,2.179,0.273
		c0.502,0.21,0.886,0.536,1.183,1.049c0.314,0.479,0.455,1.021,0.455,1.619c0,0.764-0.252,1.417-0.731,1.942
		c-0.501,0.512-1.257,0.842-2.291,1.003c0.382,0.17,0.665,0.348,0.862,0.533c0.4,0.396,0.807,0.859,1.167,1.438l1.878,2.944h-1.791
		l-1.406-2.226c-0.417-0.679-0.783-1.157-1.033-1.513c-0.277-0.338-0.513-0.582-0.731-0.727c-0.219-0.133-0.419-0.24-0.641-0.29
		c-0.165-0.016-0.421-0.04-0.797-0.04h-1.646v4.795H-123.639L-123.639,86.533z M-122.205,80.456h3.053
		c0.651,0,1.145-0.069,1.508-0.181c0.384-0.141,0.659-0.372,0.84-0.646c0.182-0.313,0.29-0.611,0.29-0.958
		c0-0.508-0.194-0.929-0.552-1.256c-0.372-0.317-0.942-0.479-1.731-0.479h-3.408V80.456L-122.205,80.456z"/>
	<path id="Fill-16" sketch:type="MSShapeGroup" fill="#FF6600" d="M-128.02,81.63c0-4.784,3.883-8.671,8.669-8.671
		c4.784,0,8.673,3.887,8.673,8.671c0,4.763-3.889,8.659-8.673,8.659C-124.136,90.289-128.02,86.393-128.02,81.63 M-119.351,91.896
		c5.674,0,10.278-4.614,10.278-10.266c0-5.672-4.604-10.278-10.278-10.278c-5.657,0-10.261,4.606-10.261,10.278
		C-129.612,87.281-125.008,91.896-119.351,91.896"/>
	<path id="Fill-17" sketch:type="MSShapeGroup" fill="#FF6600" d="M-8.74,36.049v7.113h24.648v51.092c2.755,0,8.71-2.66,8.71-8.191
		v-42.9c1.774,0,3.239-5.181,3.239-7.113H-8.74L-8.74,36.049z M1.468,54.497h4.365v22.167H1.468V54.497z M13.921,73.748V47.689
		H-6.631v35.618H3.567c1.621-0.161,3.571-0.818,5.174-1.942c0.985-0.652,1.795-1.293,2.6-2.106
		C12.8,77.64,13.921,75.702,13.921,73.748L13.921,73.748z M-18.439,55.307c0,0.963-0.808,2.591-1.785,3.562
		c-0.153,0.169-0.64,0.652-0.64,0.652c-0.079,0.066-0.163,0.157-0.333,0.157h2.757v16.826h-3.399V43.162h3.399V55.307
		L-18.439,55.307z M-30.421,36.049v58.205c4.044,0,8.562-3.663,8.562-7.712v-3.049h4.848c3.245-0.17,6.981-4.714,6.981-6.989V63.553
		c0-2.434-2.754-4.197-4.055-5.173c1.301-1.14,4.055-3.073,4.055-5.515V36.049H-30.421L-30.421,36.049z"/>
	<path id="Fill-18" sketch:type="MSShapeGroup" fill="#FF6600" d="M43.669,42.617h12.335v7.56H43.669V42.617z M43.669,56.777h12.335
		v7.563H43.669V56.777z M66.377,56.777h4.443c0.654,0,1.317-0.173,1.971-0.669c0.822-0.491,4.771-5.429,5.267-5.932h-11.68v-7.56
		h12.67v21.729h-12.67V56.777L66.377,56.777z M66.377,87.545v-5.444h17.284c2.499,0,4.757-4.263,6.089-6.568H66.377v-4.609h12.996
		c3.695,0,9.702-5.106,9.873-7.742V36.049H33.634v34.874h22.37v4.609h-22.37v6.568h22.37v5.444H32.984v6.738h52.152
		c2.144,0,4.11-4.267,5.761-6.738H66.377L66.377,87.545z"/>
	<path id="Fill-19" sketch:type="MSShapeGroup" fill="#FF6600" d="M107.531,43.533h12.326v19.313h-12.326V43.533z M130.012,43.533
		h11.729v19.313h-11.729V43.533z M107.452,86.736v-16.4h35.552c3.21,0,8.985-5.316,9.138-7.981V36.049H96.955v50.101
		c0,4.007,2.409,8.163,6.911,8.163h42.125c3.181,0,6.998-5.073,7.65-7.576H107.452L107.452,86.736z"/>
	<path id="Fill-20" sketch:type="MSShapeGroup" fill="#FF6600" d="M171.149,43.533h12.302v19.313h-12.302V43.533z M193.621,43.533
		h11.733v19.313h-11.733V43.533z M171.042,86.736v-16.4h35.56c3.223,0,8.989-5.316,9.162-7.981V36.049h-55.19v50.101
		c0,4.007,2.413,8.163,6.907,8.163h42.116c3.177,0,6.994-5.073,7.667-7.576H171.042L171.042,86.736z"/>
	<path id="Fill-21" sketch:type="MSShapeGroup" fill="#FF6600" d="M253.786,74.657v-1.822h4.136V74.4h25.071
		c0,0-0.62,3.379-6.09,3.379H258.19v9.056c0,6.874-4.404,7.691-4.404,7.691V78.04h-29.862v-3.383H253.786"/>
	<path id="Fill-22" sketch:type="MSShapeGroup" fill="#FF6600" d="M235.692,83.291h4.466c0,0-4.647,5.981-6.048,7.556
		c-1.396,1.557-3.26,4.044-5.953,4.044c-1.513,0-2.008,0.037-2.008,0.037L235.692,83.291"/>
	<path id="Fill-23" sketch:type="MSShapeGroup" fill="#FF6600" d="M273.938,83.291h-4.461c0,0,4.65,5.981,6.039,7.556
		c1.4,1.557,3.264,4.044,5.957,4.044c1.504,0,2.003,0.037,2.003,0.037L273.938,83.291"/>
	<path id="Fill-24" sketch:type="MSShapeGroup" fill="#FF6600" d="M253.786,47.219h-21.185l-0.02-1.885l1.082-1.532l1.421-1.821
		h18.701V47.219L253.786,47.219z M232.602,50.911h21.181v5.197h-21.181V50.911z M232.602,59.455h21.181v5.271h-21.181V59.455z
		 M276.903,41.72c5.338,0,6.35-3.383,6.35-3.383h-25.005l1.818-2.352h-4.106l-2.1,2.611h-16.809l2.069-2.611h-4.288l-10.65,13.852
		h4.562v18.934c0,0,0.462,0.062,1.073,0c6.618,0,7.172-0.868,7.172-0.868h39.914c5.305,0,5.825-3.169,5.825-3.169h-24.836v-5.535
		h19.011c5.234,0,6.081-3.358,6.081-3.358h-25.092v-5.453h19.011c5.234,0,6.081-3.421,6.081-3.421h-25.092V41.72H276.903
		L276.903,41.72z"/>
	<path id="Fill-25" sketch:type="MSShapeGroup" fill="#FF6600" d="M345.074,87.434c0,2.128-0.467,3.797-3.264,3.797h-43.475V39.658
		h46.738V87.434L345.074,87.434z M294.643,36.247v58.801h49.481c3.722,0,5.14-3.528,4.957-7.188V36.247H294.643L294.643,36.247z"/>
	<path id="Fill-26" sketch:type="MSShapeGroup" fill="#FF6600" d="M317.71,61.255l-12.509,22.557c0,0,4.197,0.788,6.11-3.189
		l10.629-19.309L317.71,61.255"/>
	<path id="Fill-27" sketch:type="MSShapeGroup" fill="#FF6600" d="M332.467,79.102c0,1.223-0.438,1.835-1.314,1.835h-4.172v3.309
		h5.308c3.276,0,4.354-1.194,4.186-4.85c0,0-0.033-21.978,0-21.978c4.114,0,4.37-3.445,4.37-3.445l-4.37,0.046v-7.577h-4.007v7.577
		h-28.133v3.651h28.133V79.102"/>
</g>
</svg>
