<?xml version="1.0" encoding="UTF-8" standalone="no"?>
<svg
   xmlns:dc="http://purl.org/dc/elements/1.1/"
   xmlns:cc="http://creativecommons.org/ns#"
   xmlns:rdf="http://www.w3.org/1999/02/22-rdf-syntax-ns#"
   xmlns:svg="http://www.w3.org/2000/svg"
   xmlns="http://www.w3.org/2000/svg"
   xmlns:sodipodi="http://sodipodi.sourceforge.net/DTD/sodipodi-0.dtd"
   xmlns:inkscape="http://www.inkscape.org/namespaces/inkscape"
   width="1000"
   height="640.22803"
   viewBox="0 0 1268.772 1268.7731"
   id="svg2"
   sodipodi:version="0.32"
   inkscape:version="0.91 r13725"
   sodipodi:docname="Chanel.svg"
   inkscape:output_extension="org.inkscape.output.svg.inkscape"
   version="1.0">
  <metadata
     id="metadata39">
    <rdf:RDF>
      <cc:Work
         rdf:about="">
        <dc:format>image/svg+xml</dc:format>
        <dc:type
           rdf:resource="http://purl.org/dc/dcmitype/StillImage" />
        <dc:title></dc:title>
      </cc:Work>
    </rdf:RDF>
  </metadata>
  <defs
     id="defs37">
    <inkscape:perspective
       sodipodi:type="inkscape:persp3d"
       inkscape:vp_x="0 : 121.25 : 1"
       inkscape:vp_y="0 : 999.99998 : 0"
       inkscape:vp_z="242.49999 : 121.25 : 1"
       inkscape:persp3d-origin="121.25 : 80.833331 : 1"
       id="perspective41" />
  </defs>
  <sodipodi:namedview
     inkscape:window-height="705"
     inkscape:window-width="1366"
     inkscape:pageshadow="2"
     inkscape:pageopacity="0.0"
     guidetolerance="10.0"
     gridtolerance="10.0"
     objecttolerance="10.0"
     borderopacity="1.0"
     bordercolor="#666666"
     pagecolor="#ffffff"
     id="base"
     showgrid="false"
     inkscape:zoom="0.47628866"
     inkscape:cx="359.90141"
     inkscape:cy="144.05694"
     inkscape:window-x="-8"
     inkscape:window-y="-8"
     inkscape:current-layer="svg2"
     inkscape:window-maximized="1" />
  <g
     id="g4206">
    <g
       id="g4191">
      <g
         transform="matrix(11.276079,0,0,11.276087,-356.48993,957.24866)"
         style="fill:#000000;fill-rule:evenodd;stroke:none;stroke-width:1;stroke-linecap:butt;stroke-linejoin:miter;stroke-dasharray:none"
         id="g4">
        <path
           inkscape:connector-curvature="0"
           style="fill:#000000"
           d="m 25.3349,20.2266 c -0.0215,0.042 -0.0634,0.126 -0.084,0.1895 -2.2705,4.289 -6.7285,7.2109 -11.8164,7.2109 C 6.05473,27.627 0,21.4454 0,13.8135 0,6.2237 6.05473,0 13.4345,0 c 5.1094,0 9.5879,2.9854 11.837,7.3379 0.0634,0.084 0.0839,0.126 0.1474,0.252 0.0215,0.0215 -4.289,3.1328 -4.331,3.0703 -0.0215,-0.084 -0.042,-0.1475 -0.084,-0.1895 C 19.7627,7.3799 16.8203,5.3194 13.4345,5.3829 8.91403,5.4249 5.19243,9.167 5.19243,13.8135 c 0,4.6885 3.7216,8.4737 8.24207,8.4737 3.2803,0 6.1397,-2.0186 7.4424,-4.878 0.0635,-0.1054 0.085,-0.1894 0.127,-0.2734 0,0 4.331,3.0908 4.331,3.0908 z"
           id="path6" />
      </g>
      <g
         transform="matrix(11.276079,0,0,11.276087,-7.9888437,960.10151)"
         style="fill:#000000;fill-rule:evenodd;stroke:none;stroke-width:1;stroke-linecap:butt;stroke-linejoin:miter;stroke-dasharray:none"
         id="g8">
        <path
           inkscape:connector-curvature="0"
           style="fill:#000000"
           d="m 0,0 c 0,0 5.1719,0 5.1719,0 0,0 0,9.6504 0,9.6504 0,0 13.583,0 13.583,0 0,0 0,-9.6504 0,-9.6504 0,0 5.2139,0 5.2139,0 0,0 0,26.8486 0,26.8486 0,0 -5.2139,0 -5.2139,0 0,0 0,-11.7949 0,-11.7949 0,0 -13.583,0 -13.583,0 0,0 0,11.7949 0,11.7949 0,0 -5.1719,0 -5.1719,0 C 0,26.8486 0,0 0,0 Z"
           id="path10" />
      </g>
      <g
         transform="matrix(11.276079,0,0,11.276087,1085.4311,960.10151)"
         style="fill:#000000;fill-rule:evenodd;stroke:none;stroke-width:1;stroke-linecap:butt;stroke-linejoin:miter;stroke-dasharray:none"
         id="g12">
        <path
           inkscape:connector-curvature="0"
           style="fill:#000000"
           d="M 0,26.8486 C 0,26.8486 0,0 0,0 c 0,0 18.775,0 18.775,0 0,0 0,5.4238 0,5.4238 0,0 -13.54,0 -13.54,0 0,0 0,5.3613 0,5.3613 0,0 12.51,0 12.51,0 0,0 0,5.3614 0,5.3614 0,0 -12.51,0 -12.51,0 0,0 0,5.3613 0,5.3613 0,0 15.453,0 15.453,0 0,0 0,5.3408 0,5.3408 0,0 -20.688,0 -20.688,0 z"
           id="path14" />
      </g>
      <g
         transform="matrix(11.276079,0,0,11.276087,1401.4545,960.10151)"
         style="fill:#000000;fill-rule:evenodd;stroke:none;stroke-width:1;stroke-linecap:butt;stroke-linejoin:miter;stroke-dasharray:none"
         id="g16">
        <path
           inkscape:connector-curvature="0"
           style="fill:#000000"
           d="M 0,26.8486 C 0,26.8486 0,0 0,0 c 0,0 5.256,0 5.256,0 0,0 0,21.5078 0,21.5078 0,0 14.592,0 14.592,0 0,0 0,5.3408 0,5.3408 0,0 -19.848,0 -19.848,0 z"
           id="path18" />
      </g>
      <g
         transform="matrix(11.276079,0,0,11.276087,707.9982,960.10151)"
         style="fill:#000000;fill-rule:evenodd;stroke:none;stroke-width:1;stroke-linecap:butt;stroke-linejoin:miter;stroke-dasharray:none"
         id="g20">
        <path
           inkscape:connector-curvature="0"
           style="fill:#000000"
           d="m 5.256,26.8486 c 0,0 -0.168,0 -0.168,0 0,0 -5.088,0 -5.088,0 C 0,26.8486 0,0 0,0 c 0,0 0.378,0 0.378,0 0,0 6.917,0 6.917,0 0,0 11.501,16.1465 11.501,16.1465 0,0 0,-16.1465 0,-16.1465 0,0 5.214,0 5.214,0 0,0 0,26.8486 0,26.8486 0,0 -4.163,0 -4.163,0 0,0 -14.591,-20.2471 -14.591,-20.2471 0,0 0,20.2471 0,20.2471 z"
           id="path22" />
      </g>
      <g
         transform="matrix(11.276079,0,0,11.276087,309.45984,960.10151)"
         style="fill:#000000;fill-rule:evenodd;stroke:none;stroke-width:1;stroke-linecap:butt;stroke-linejoin:miter;stroke-dasharray:none"
         id="g24">
        <path
           inkscape:connector-curvature="0"
           style="fill:#000000"
           d="m 15.5586,5.4238 c 0,0 -4.583,10.7227 -4.583,10.7227 0,0 9.3769,0 9.3769,0 0,0 -4.7939,-10.7227 -4.7939,-10.7227 z m -6.9385,16.084 c 0,0 -2.3965,5.3408 -2.3965,5.3408 0,0 -6.2236,0 -6.2236,0 C 0,26.8486 11.9004,0 11.9004,0 c 0,0 7.2744,0 7.2744,0 0,0 11.9843,26.8486 11.9843,26.8486 0,0 -6.2236,0 -6.2236,0 0,0 -2.417,-5.3408 -2.417,-5.3408 0,0 -13.8984,0 -13.8984,0 z"
           id="path26" />
      </g>
    </g>
    <path
       inkscape:connector-curvature="0"
       style="fill:#000000;fill-rule:evenodd;stroke:none;stroke-width:1;stroke-linecap:butt;stroke-linejoin:miter;stroke-dasharray:none"
       d="m 664.83811,843.49933 c -63.58782,36.76799 -139.65896,58.62123 -220.70861,58.62123 -165.83242,0 -311.08071,-90.40775 -389.639615,-224.46267 0,-0.62268 -0.607857,-0.62268 -0.607857,-1.24536 0,-0.62269 -0.637509,-0.62269 -0.637509,-1.24537 0,0 63.590791,-33.03189 63.590791,-33.03189 0,0 63.58782,-32.43886 63.58782,-32.43886 0.63751,0.65234 1.27502,1.24537 1.88288,2.52039 54.23571,87.88736 151.49884,146.50859 261.82349,146.50859 35.56115,0 69.84431,-6.22684 100.39434,-16.21943 C 476.56241,664.58153 435.4149,562.34279 435.4149,450.73414 c 0,-110.95631 40.53965,-213.19505 107.86357,-291.77181 -30.55003,-10.58562 -64.22533,-16.18978 -99.14897,-16.18978 -109.07928,0 -210.07851,58.59158 -265.55959,152.73543 -0.63751,0.62269 -0.63751,1.27502 -0.63751,1.86805 0,0 -127.786472,-66.06378 -127.786472,-66.06378 0.607857,-1.24536 1.245367,-2.49073 1.853224,-3.14307 C 129.9502,91.653184 277.05172,6.6608908e-5 444.1295,6.6608908e-5 525.17915,6.6608908e-5 601.25029,21.823649 664.83811,59.243977 728.42593,21.823649 804.49708,6.6608908e-5 885.51707,6.6608908e-5 1052.5978,6.6608908e-5 1199.729,91.653184 1277.6533,228.16918 c 0.6227,0.65234 1.2454,1.89771 1.8681,3.14307 0,0 -127.7983,66.06378 -127.7983,66.06378 0,-0.59303 0,-1.24536 -0.6227,-1.86805 -55.4781,-94.14385 -156.47143,-152.73543 -265.58333,-152.73543 -34.89399,0 -68.56929,5.60416 -99.11932,16.18978 67.32392,78.57676 107.86357,180.8155 107.86357,291.77181 0,111.60865 -41.14751,213.84739 -109.10894,291.77182 30.55003,9.99259 64.83319,16.21943 100.36469,16.21943 110.35727,0 207.61443,-58.62123 261.84723,-146.50859 0.6227,-1.27502 1.2454,-1.86805 1.868,-2.52039 0,0 63.573,32.43886 63.573,32.43886 0,0 63.6027,33.03189 63.6027,33.03189 0,0.62268 -0.6227,0.62268 -0.6227,1.24537 0,0.62268 -0.6227,0.62268 -0.6227,1.24536 -78.547,134.05492 -223.8101,224.46267 -389.64553,224.46267 -81.01999,0 -157.09114,-21.85324 -220.67896,-58.62123 z m 0,-178.9178 C 612.45562,609.10338 578.807,533.66969 578.807,450.73414 c 0,-81.66052 31.7954,-155.84884 86.03111,-211.327 54.23571,55.47816 86.03111,129.66648 86.03111,211.327 0,82.93555 -33.67827,158.36924 -86.03111,213.84739 z"
       id="path30" />
  </g>
</svg>
