<?xml version="1.0" encoding="UTF-8" standalone="no"?>
<svg
   xmlns:dc="http://purl.org/dc/elements/1.1/"
   xmlns:cc="http://creativecommons.org/ns#"
   xmlns:rdf="http://www.w3.org/1999/02/22-rdf-syntax-ns#"
   xmlns:svg="http://www.w3.org/2000/svg"
   xmlns="http://www.w3.org/2000/svg"
   xmlns:sodipodi="http://sodipodi.sourceforge.net/DTD/sodipodi-0.dtd"
   xmlns:inkscape="http://www.inkscape.org/namespaces/inkscape"
   width="826.76099"
   height="1000"
   viewBox="0 0 2739.0659 3266.6667"
   version="1.0"
   id="svg2"
   sodipodi:version="0.32"
   inkscape:version="0.92.2 (5c3e80d, 2017-08-06)"
   sodipodi:docname="Louis Vuitton.svg"
   inkscape:output_extension="org.inkscape.output.svg.inkscape">
  <metadata
     id="metadata32">
    <rdf:RDF>
      <cc:Work
         rdf:about="">
        <dc:format>image/svg+xml</dc:format>
        <dc:type
           rdf:resource="http://purl.org/dc/dcmitype/StillImage" />
        <dc:title></dc:title>
      </cc:Work>
    </rdf:RDF>
  </metadata>
  <defs
     id="defs30">
    <inkscape:perspective
       sodipodi:type="inkscape:persp3d"
       inkscape:vp_x="0 : 612.50001 : 1"
       inkscape:vp_y="0 : 1000 : 0"
       inkscape:vp_z="1018.75 : 612.50001 : 1"
       inkscape:persp3d-origin="509.37501 : 408.33333 : 1"
       id="perspective34" />
  </defs>
  <sodipodi:namedview
     inkscape:window-height="706"
     inkscape:window-width="1360"
     inkscape:pageshadow="2"
     inkscape:pageopacity="0.0"
     guidetolerance="10.0"
     gridtolerance="10.0"
     objecttolerance="10.0"
     borderopacity="1.0"
     bordercolor="#666666"
     pagecolor="#ffffff"
     id="base"
     showgrid="false"
     inkscape:zoom="0.37714286"
     inkscape:cx="488.14478"
     inkscape:cy="432.7309"
     inkscape:window-x="-8"
     inkscape:window-y="-8"
     inkscape:current-layer="svg2"
     inkscape:window-maximized="1" />
  <g
     id="#000000ff"
     transform="matrix(3.4297487,0,0,3.4297482,-31.862366,-44.426577)">
    <path
       d="m 599.07,6.2 c 68.56,0 137.13,-0.01 205.69,0.01 0.04,15.44 -0.08,30.89 0.07,46.34 -17.42,0.76 -35.23,2.71 -51.27,10 -16.27,7.31 -29.91,20.61 -36.93,37.08 -83.37,195.98 -166.68,391.98 -249.96,588 -1.44,3.22 -2.6,6.55 -4.28,9.66 -29.82,-0.35 -59.65,-0.05 -89.47,-0.16 -13.16,-26.15 -26.11,-52.41 -39.38,-78.5 -15.21,40.76 -30.51,81.48 -45.72,122.23 98.37,0.01 196.74,0 295.11,0.01 18.01,0.24 36.56,-0.51 53.41,-7.55 28,-11.25 50.29,-32.99 68.43,-56.56 21.9,-28.56 38.52,-60.71 53.33,-93.38 16.61,-0.14 33.21,0.05 49.81,0.02 -31.48,67.24 -63.12,134.42 -94.88,201.53 -226.68,0.01 -453.35,0 -680.03,0 5.52,-14.41 10.77,-28.94 16.69,-43.2 0.36,-1.47 2.19,-1.1 3.3,-1.24 28.3,-0.21 56.79,-1.31 84.56,-7.2 14.45,-3.39 29.4,-7.91 40.52,-18.23 5.88,-5.61 7.71,-13.8 9.66,-21.36 C 214.5,622.06 241.31,550.43 268.1,478.8 211.48,358.16 154.67,237.59 98.02,116.96 93.46,106.41 87.44,95.96 77.97,89.09 58.37,74.41 32.9,72.55 9.3,71.61 9.28,54.32 9.3,37.04 9.29,19.75 c 79.59,-0.03 159.17,-0.02 238.76,-0.01 0.01,17.29 0.02,34.58 -0.01,51.87 -10.37,0.66 -21.38,0.49 -30.77,5.62 -4.66,2.2 -7.4,7.74 -6.2,12.78 1.47,8.25 7.99,14.14 11.29,21.59 33.61,72.39 67.22,144.79 100.93,217.15 16.89,-47.23 33.78,-94.45 50.74,-141.65 2.49,-6.56 3.37,-14.14 0.53,-20.74 -2.23,-5.21 -7.29,-8.43 -12.28,-10.6 -9.7,-4 -20.36,-3.96 -30.64,-4.7 5.25,-14.59 10.53,-29.18 15.97,-43.69 1.26,-0.81 3.01,-0.19 4.46,-0.39 80.75,0.05 161.51,0 242.27,0.03 -5.58,14.66 -11.13,29.32 -16.65,44 -19.45,0.9 -39.5,1.39 -57.74,8.99 -8.36,3.5 -16.27,8.85 -21.21,16.59 -3.43,5.67 -5.56,12 -7.86,18.18 -33.74,92.02 -67.79,183.92 -101.15,276.08 18.48,41.77 37.74,83.18 56.59,124.78 68.45,-161.64 136.88,-323.3 205.41,-484.91 4.62,-9.72 12.14,-18.59 12.73,-29.77 0.57,-8.75 -5.92,-16.3 -13.44,-19.89 -16.21,-7.48 -34.43,-7.85 -51.95,-8.48 -0.02,-15.46 -0.02,-30.92 0,-46.38 z"
       id="path5"
       style="opacity:1;fill:#000000"
       inkscape:connector-curvature="0" />
    <path
       d="m 723.54,876.54 c 21.61,22.38 43.05,44.91 64.45,67.48 -0.03,-20.98 0.09,-41.97 0.07,-62.95 3.7,0.01 7.4,-0.03 11.11,-0.08 0.01,29.95 0.01,59.91 0,89.86 -21.63,-22.27 -42.94,-44.84 -64.46,-67.22 0.03,21.11 -0.05,42.23 -0.06,63.35 -3.71,0.03 -7.41,0.02 -11.11,0.02 -0.01,-30.16 -0.02,-60.31 0,-90.46 z"
       id="path7"
       style="opacity:1;fill:#000000"
       inkscape:connector-curvature="0" />
    <path
       d="m 94.45,879.62 c 23.81,-3.66 49,14.98 51.12,39.26 2,13.89 -3.39,28.37 -13.56,37.94 -16.72,16.36 -46.79,16.06 -63.02,-0.88 -8.77,-8.5 -13.77,-20.75 -13.24,-32.98 0.24,-21.28 17.83,-40.29 38.7,-43.34 m 0.01,11 c -13.86,2.26 -25.14,14.43 -27.08,28.22 -2.64,15.67 7.03,32.53 22.16,37.65 13.24,5 29.35,0.29 37.85,-11.01 10.99,-13.79 9.13,-36.04 -4.39,-47.49 -7.6,-6.91 -18.59,-9.19 -28.54,-7.37 z"
       id="path9"
       style="opacity:1;fill:#000000"
       inkscape:connector-curvature="0" />
    <path
       d="m 266.39,884.25 c 12.2,-9.16 32.13,-5.37 39.17,8.47 -2.94,1.66 -5.88,3.33 -8.82,4.99 -5.29,-8.27 -18.18,-10.29 -25.29,-3.27 -3.01,2.2 -2.68,6.23 -2.36,9.54 0.86,4.32 5.46,6.15 8.85,8.18 8.74,4.6 19.24,7.25 25.38,15.59 6.85,9.31 5.72,23.17 -1.75,31.79 -7.81,9.45 -22.09,11.75 -33.01,6.8 -8.38,-4.14 -13.56,-12.89 -15.24,-21.86 3.75,-0.89 7.52,-1.71 11.28,-2.55 0.38,8.18 6.73,16.45 15.37,16.6 11.66,1.27 20.93,-13.89 14.14,-23.56 -7.25,-9.87 -21.23,-10.01 -29.57,-18.54 -9.82,-8.03 -8.83,-25.34 1.85,-32.18 z"
       id="path11"
       style="opacity:1;fill:#000000"
       inkscape:connector-curvature="0" />
    <path
       d="m 664.46,879.56 c 15.6,-1.95 31.72,5.25 41.3,17.59 13.81,17.28 11.6,44.85 -4.79,59.71 -9.36,9.25 -23.12,13.06 -36.04,11.69 -12.77,-0.84 -24.72,-8 -32.09,-18.36 -7.94,-11.05 -10,-25.82 -6.24,-38.81 4.91,-16.83 20.57,-29.62 37.86,-31.82 m -1.91,11.21 c -17.2,2.93 -29.5,21.25 -26.48,38.29 1.91,16.39 17.46,29.73 33.91,29.42 11.22,0.19 21.92,-6.17 27.97,-15.47 9.19,-13.32 6.77,-33 -5.07,-43.96 -7.75,-7.85 -19.72,-10.5 -30.33,-8.28 z"
       id="path13"
       style="opacity:1;fill:#000000"
       inkscape:connector-curvature="0" />
    <path
       d="m 18.23,881.01 c 3.55,-0.02 7.1,-0.02 10.65,0 0.01,25.39 -0.01,50.79 0.01,76.18 8.82,0.02 17.63,0 26.45,0.01 0.02,3.26 0.02,6.52 0.01,9.79 -12.38,0.01 -24.75,0.02 -37.12,0 0.01,-28.66 0.01,-57.32 0,-85.98 z"
       id="path15"
       style="opacity:1;fill:#000000"
       inkscape:connector-curvature="0" />
    <path
       d="m 154.18,881.08 c 3.76,-0.03 7.52,-0.02 11.29,-0.01 0.03,16.92 -0.05,33.85 0.04,50.77 0.17,7.44 1.09,15.62 6.35,21.35 8.37,8.21 24.81,7.04 30.65,-3.6 2.95,-5 3.81,-10.92 3.73,-16.64 -0.07,-17.29 -0.07,-34.58 -0.06,-51.88 3.76,-0.02 7.52,-0.01 11.28,0 0,17.65 0.04,35.3 -0.01,52.95 0.02,8.01 -1.37,16.48 -6.49,22.92 -11.01,15.25 -36.53,16.12 -48.59,1.71 -5.73,-6 -8.09,-14.46 -8.17,-22.6 -0.05,-18.32 -0.01,-36.65 -0.02,-54.97 z"
       id="path17"
       style="opacity:1;fill:#000000"
       inkscape:connector-curvature="0" />
    <path
       d="m 231.35,881.02 c 3.7,-0.04 7.41,-0.03 11.12,-0.01 0,28.66 0.01,57.32 -0.01,85.99 -3.7,0 -7.41,0.01 -11.12,-0.02 0.02,-28.65 0.02,-57.31 0.01,-85.96 z"
       id="path19"
       style="opacity:1;fill:#000000"
       inkscape:connector-curvature="0" />
    <path
       d="m 342.7,881.09 c 4.07,-0.11 8.16,-0.11 12.24,-0.09 8.54,20.9 16.95,41.85 25.34,62.81 8.37,-20.89 16.98,-41.68 25.16,-62.64 4.19,-0.35 8.39,-0.11 12.59,-0.17 -12.49,30.41 -25.03,60.8 -37.63,91.16 -12.82,-30.25 -25.18,-60.7 -37.7,-91.07 z"
       id="path21"
       style="opacity:1;fill:#000000"
       inkscape:connector-curvature="0" />
    <path
       d="m 423.12,880.99 c 3.7,0.05 7.4,0.09 11.11,0.08 0.13,16.66 -0.02,33.33 0.12,49.99 0.26,7.91 0.87,16.88 6.91,22.74 6.97,5.97 18.07,6.34 25.51,1.03 4.33,-3.08 6.71,-8.2 7.65,-13.3 1.48,-8.78 0.95,-17.71 1.05,-26.57 0.06,-11.29 0.07,-22.58 0.05,-33.87 3.56,-0.04 7.13,-0.03 10.7,-0.02 0.16,15.66 0.03,31.31 0.07,46.97 0.25,9.71 -0.06,20.25 -5.97,28.45 -10.35,14.93 -34.17,16.54 -47.27,4.41 -6.55,-6.06 -9.84,-15 -9.89,-23.82 -0.1,-18.7 -0.02,-37.39 -0.04,-56.09 z"
       id="path23"
       style="opacity:1;fill:#000000"
       inkscape:connector-curvature="0" />
    <path
       d="m 500.18,881.07 c 3.86,0.01 7.72,-0.03 11.59,-0.07 0,28.66 -0.01,57.32 0,85.99 -3.89,0.01 -7.77,0.01 -11.65,0 -0.04,-28.64 0.09,-57.28 0.06,-85.92 z"
       id="path25"
       style="opacity:1;fill:#000000"
       inkscape:connector-curvature="0" />
    <path
       d="m 518.71,881.07 c 34.67,0.03 69.33,-0.06 104,-0.05 -0.01,3.43 -0.01,6.86 0,10.3 -6.65,0.03 -13.29,0 -19.93,0.01 -0.03,25.22 -0.01,50.44 -0.01,75.66 -3.87,0.01 -7.73,0.01 -11.6,0 -0.02,-25.22 0.07,-50.44 -0.04,-75.66 -13.61,0.02 -27.22,-0.01 -40.83,0.01 -0.02,25.22 0,50.43 -0.01,75.65 -3.55,0.01 -7.1,0.01 -10.64,0 -0.01,-25.22 0.01,-50.43 -0.01,-75.65 -6.98,-0.02 -13.95,0.01 -20.93,-0.02 -0.01,-3.42 -0.01,-6.84 0,-10.25 z"
       id="path27"
       style="opacity:1;fill:#000000"
       inkscape:connector-curvature="0" />
  </g>
</svg>
