<svg width="2200" height="886" xmlns="http://www.w3.org/2000/svg" xmlns:xlink="http://www.w3.org/1999/xlink" xml:space="preserve" overflow="hidden"><defs><clipPath id="clip0"><rect x="0" y="340" width="2200" height="886"/></clipPath></defs><g clip-path="url(#clip0)" transform="matrix(1 0 0 1 0 -340)"><path d="M911.777 409.793 713.196 868.68 729.881 866.349C822.672 844.302 984.849 687.71 1037.59 516.61 1054.81 447.696 1020.37 409.793 958.371 409.793ZM827.985 405.34 814.508 406.762C423.698 456.641 139.941 606.223 139.941 783 139.941 905.384 275.943 1014.73 489.313 1086.99L528.417 1098.99 543.482 1055C549.103 1045.89 555.764 1045.1 566.584 1049.51 784.321 1081.54 1018.69 1073 1191.72 1039.5 1307.67 1015.46 1339.39 952.941 1324.33 870.656 1322 853.861 1318.12 844.347 1333.46 832.753L1406.99 784.513 1594.7 794.851 1579.2 843.09 1490.18 860.176C1473.68 862.038 1476.66 879.702 1489.65 887.885 1576.26 958.507 1591.75 1047.22 1532.94 1125.53L1523.28 1136.19 1557.62 1129.4C1856.9 1062.69 2060.06 932.581 2060.06 783 2060.06 619.821 1818.28 479.814 1473.7 420.009L1465.73 418.813 1471.37 434.825C1519.82 600.935 1406.4 736.004 1177.94 874.101 1044.64 934.688 900.995 957.372 674.691 957.66L588.972 957.66ZM1100 340C1707.51 340 2200 538.338 2200 783 2200 1027.66 1707.51 1226 1100 1226 492.487 1226 0 1027.66 0 783 0 538.338 492.487 340 1100 340Z" fill="#4D5863" fill-rule="evenodd"/></g></svg>