<?xml version="1.0" encoding="UTF-8"?>
<svg xmlns="http://www.w3.org/2000/svg" xmlns:xlink="http://www.w3.org/1999/xlink" width="1000pt" height="1000pt" viewBox="0 0 1000 1000" version="1.1">
<g id="surface1">
<path style=" stroke:none;fill-rule:nonzero;fill:rgb(43.529412%,43.529412%,43.529412%);fill-opacity:1;" d="M 500 0 C 223.867188 0 0 223.867188 0 500 C 0 776.132812 223.867188 1000 500 1000 C 776.132812 1000 1000 776.132812 1000 500 C 1000 223.867188 776.132812 0 500 0 Z M 967.484375 500 C 967.484375 758.171875 758.203125 967.484375 500 967.484375 C 241.796875 967.484375 32.515625 758.171875 32.515625 500 C 32.515625 241.828125 241.828125 32.515625 500 32.515625 C 758.171875 32.515625 967.484375 241.828125 967.484375 500 Z M 967.484375 500 "/>
<path style=" stroke:none;fill-rule:nonzero;fill:rgb(43.529412%,43.529412%,43.529412%);fill-opacity:1;" d="M 500 203.703125 L 500 219.949219 C 654.40625 219.949219 780.050781 345.566406 780.050781 500 L 796.296875 500 C 796.296875 336.371094 663.628906 203.703125 500 203.703125 M 500 780.050781 C 345.59375 780.050781 219.949219 654.433594 219.949219 500 L 203.703125 500 C 203.703125 663.628906 336.371094 796.296875 500 796.296875 "/>
<path style=" stroke:none;fill-rule:nonzero;fill:rgb(43.529412%,43.529412%,43.529412%);fill-opacity:1;" d="M 739.402344 289.007812 C 746.1875 296.242188 755.964844 307.910156 761.457031 314.996094 L 862.613281 251.234375 C 857.558594 244.671875 849.511719 234.695312 843.492188 227.667969 L 779.433594 269.726562 L 775.058594 273.460938 L 778.316406 268.734375 L 806.601562 212.675781 L 786.601562 192.8125 L 730.121094 220.898438 L 725.363281 224.136719 L 729.152344 219.792969 L 771.53125 156.203125 C 764.074219 149.90625 756.90625 144.128906 747.773438 137.128906 L 683.566406 237.496094 C 691.703125 243.710938 702.421875 252.839844 709.265625 259.050781 L 769.710938 227.902344 L 773.589844 225.070312 L 770.738281 228.921875 Z M 739.402344 289.007812 "/>
<path style=" stroke:none;fill-rule:nonzero;fill:rgb(43.529412%,43.529412%,43.529412%);fill-opacity:1;" d="M 509.867188 161.804688 L 537.507812 100.316406 L 539.269531 94.863281 L 538.769531 100.550781 L 541.675781 182.71875 C 551.371094 183.621094 561.386719 184.964844 571.253906 186.597656 L 566.757812 64.90625 C 552.957031 63.390625 539.210938 62.3125 525.464844 61.726562 L 498.238281 128.84375 L 497.269531 133.832031 L 496.300781 128.84375 L 469.101562 61.726562 C 455.355469 62.3125 441.609375 63.390625 427.808594 64.90625 L 423.3125 186.597656 C 433.179688 184.964844 443.195312 183.652344 452.890625 182.71875 L 455.796875 100.550781 L 455.296875 94.863281 L 457.058594 100.316406 L 484.699219 161.804688 Z M 509.867188 161.804688 "/>
<path style=" stroke:none;fill-rule:nonzero;fill:rgb(43.529412%,43.529412%,43.529412%);fill-opacity:1;" d="M 286.328125 258.789062 C 302.304688 242.078125 311.351562 222.765625 295.375 204.332031 C 286.679688 194.328125 272.082031 192.140625 259.980469 197.070312 L 258.777344 197.535156 L 259.160156 196.484375 C 260.953125 191.730469 262.097656 176.5625 249.085938 166.09375 C 242.742188 160.988281 234.78125 159.09375 226.734375 159.910156 C 211.726562 161.425781 200.183594 171.605469 168.757812 206.402344 C 159.269531 216.902344 145.464844 233.472656 137.183594 244.207031 C 137.183594 244.207031 223.503906 325.527344 223.503906 325.527344 C 252.109375 294.082031 263.769531 282.386719 286.328125 258.789062 Z M 173.691406 238.898438 C 191.078125 217.777344 209.550781 198.617188 217.921875 191.03125 C 220.566406 188.640625 223.445312 186.25 226.941406 185.316406 C 232.609375 183.769531 238.453125 187.765625 239.773438 193.539062 C 241.097656 199.34375 237.425781 204.859375 233.34375 209.40625 C 224.148438 219.703125 190.433594 254.734375 190.433594 254.734375 C 190.433594 254.734375 173.691406 238.898438 173.691406 238.898438 Z M 207.496094 270.75 C 207.496094 270.75 240.332031 236.273438 251.054688 225.246094 C 255.3125 220.871094 258.042969 218.214844 260.980469 216.789062 C 264.769531 214.949219 268.910156 214.570312 272.613281 217.019531 C 276.253906 219.441406 277.925781 223.613281 277.015625 227.753906 C 275.929688 232.683594 271.878906 237.378906 268.527344 240.96875 C 264.007812 245.78125 225.058594 287.171875 225 287.230469 Z M 207.496094 270.75 "/>
<path style=" stroke:none;fill-rule:nonzero;fill:rgb(0%,40%,69.411765%);fill-opacity:1;" d="M 500 203.703125 L 500 500 L 203.703125 500 C 203.703125 336.253906 336.253906 203.703125 500 203.703125 Z M 500 203.703125 "/>
<path style=" stroke:none;fill-rule:nonzero;fill:rgb(0%,40%,69.411765%);fill-opacity:1;" d="M 796.296875 500 C 796.296875 663.746094 663.746094 796.296875 500 796.296875 L 500 500 Z M 796.296875 500 "/>
</g>
</svg>
