<svg width="101" height="28" viewBox="0 0 101 28" fill="none" xmlns="http://www.w3.org/2000/svg">
<path d="M11.181 0.836594L0.163574 0.836594L0.163574 27.1634L11.181 0.836594Z" fill="#FA0C00"/>
<path d="M18.9324 0.836594L29.9357 0.836594L29.9357 27.1634L18.9324 0.836594Z" fill="#FA0C00"/>
<path d="M15.0564 10.5399L22.0688 27.1634L17.4684 27.1634L15.3721 21.8706H10.2405L15.0564 10.5399Z" fill="#FA0C00"/>
<path fill-rule="evenodd" clip-rule="evenodd" d="M42.5768 17.5786L41.3494 21.2582C41.2987 21.3944 41.2346 21.4371 41.0979 21.4371H38.866C38.7366 21.4371 38.6865 21.3724 38.7079 21.2149L43.3089 8.14092C43.4017 7.91865 43.4664 7.68906 43.5098 6.93617C43.5098 6.84335 43.5599 6.77863 43.646 6.77863H46.7467C46.8615 6.77863 46.8829 6.8 46.9048 6.91479L52.0652 21.2362C52.0865 21.3724 52.0652 21.4371 51.929 21.4371H49.431C49.3162 21.4371 49.2514 21.3944 49.2087 21.301L47.9093 17.5786H42.5768ZM47.1985 15.1478C46.7253 13.6707 45.6775 10.5724 45.2324 9.0086H45.211C44.8519 10.5003 43.9617 13.1107 43.2869 15.1478L47.1985 15.1478Z" fill="#FA0C00"/>
<path fill-rule="evenodd" clip-rule="evenodd" d="M58.6994 21.6593C55.4619 21.6593 52.9858 19.7878 52.9858 16.0367C52.9858 12.8023 55.3978 10.2139 59.3234 10.2139C59.6391 10.2139 59.9048 10.2353 60.2852 10.278V5.70997C60.2852 5.59517 60.3285 5.55182 60.422 5.55182L62.8547 5.55182C62.9627 5.55182 62.9627 5.59517 62.9627 5.68127V19.1637C62.9627 19.6083 63.0128 20.1896 63.0555 20.5907C63.0555 20.6982 63.0342 20.7489 62.9194 20.7916C61.4698 21.4157 60.0415 21.6593 58.6994 21.6593ZM60.2852 12.6234C59.9909 12.5086 59.6391 12.4652 59.2374 12.4652C57.2492 12.4652 55.7495 13.742 55.7495 15.9006C55.7495 18.3388 57.2064 19.3432 58.9864 19.3432C59.4382 19.3432 59.8834 19.2926 60.2852 19.1637V12.6234Z" fill="#FA0C00"/>
<path fill-rule="evenodd" clip-rule="evenodd" d="M76.1296 15.8792C76.1296 19.3432 73.9185 21.6593 70.7677 21.6593C67.043 21.6593 65.3918 18.7839 65.3918 15.9506C65.3918 12.7809 67.4661 10.2139 70.8178 10.2139C74.2562 10.2139 76.1296 12.8243 76.1296 15.8792ZM70.6816 12.4652C69.1813 12.4652 68.1122 13.7848 68.1122 15.9006C68.1122 17.959 69.1172 19.386 70.8178 19.386C72.196 19.386 73.3806 18.246 73.3806 15.9506C73.3806 14.0931 72.5764 12.4652 70.6816 12.4652Z" fill="#FA0C00"/>
<path fill-rule="evenodd" clip-rule="evenodd" d="M80.9847 5.55182C81.1429 5.55182 81.1856 5.5738 81.1856 5.73134L81.2143 10.529C81.8176 10.3281 82.5064 10.2139 83.2459 10.2139C86.4614 10.2139 88.5137 12.4872 88.5137 15.4774C88.5137 19.6083 85.2981 21.6593 81.9898 21.6593C80.8339 21.6593 79.7147 21.5018 78.6448 21.172C78.5514 21.1501 78.4873 21.0353 78.4873 20.9712V5.70997C78.4873 5.59517 78.5514 5.55182 78.6448 5.55182H80.9847ZM82.772 12.5086C81.9898 12.5086 81.566 12.6234 81.2143 12.7596V19.2712C81.5233 19.3646 81.8604 19.386 82.2408 19.386C84.0708 19.386 85.7647 18.224 85.7647 15.7504C85.7647 13.6272 84.5373 12.5086 82.772 12.5086Z" fill="#FA0C00"/>
<path fill-rule="evenodd" clip-rule="evenodd" d="M93.0578 16.5533C93.1226 18.1098 94.1563 19.3646 96.4315 19.3646C97.4366 19.3646 98.3549 19.1851 99.2019 18.8266C99.2666 18.7839 99.3313 18.8053 99.3313 18.9127V20.7702C99.3313 20.8991 99.288 20.9711 99.2019 21.0139C98.3549 21.4157 97.3718 21.6593 95.8502 21.6593C91.7877 21.6593 90.3381 18.8053 90.3381 16.0587C90.3381 12.9604 92.2109 10.2139 95.5846 10.2139C98.8862 10.2139 100.164 12.8023 100.164 14.9254C100.164 15.5495 100.135 16.0587 100.07 16.3023C100.049 16.3958 100.006 16.4385 99.8906 16.4599C99.5823 16.5319 98.6853 16.5533 97.5941 16.5533H93.0578ZM96.3881 14.6311C97.2351 14.6311 97.5227 14.6311 97.6155 14.6097C97.6155 14.545 97.6155 14.4522 97.6155 14.4302C97.6155 13.7848 97.171 12.3578 95.4698 12.3578C93.9267 12.3578 93.2374 13.5411 93.0578 14.6311H96.3881Z" fill="#FA0C00"/>
</svg>
