<svg width="103" height="34" viewBox="0 0 103 34" fill="none" xmlns="http://www.w3.org/2000/svg">
<path d="M45.6447 24.0321H47.6664V28.5964H45.818C45.818 28.5964 44.4895 28.5387 44.0852 27.0387C43.8541 26.404 44.0852 25.5963 44.2007 25.3014C44.3162 24.9616 44.7206 24.2629 45.6447 24.0321Z" fill="white"/>
<path fill-rule="evenodd" clip-rule="evenodd" d="M52.5893 5.88367C52.8139 3.97973 55.1886 0.973159 57.0369 1.37703C58.8853 1.78089 60.6245 4.2682 60.278 6.40934C59.925 8.54406 58.2499 11.3775 55.5929 11.0314C52.9295 10.6852 52.3518 8.25559 52.5893 5.88367ZM47.0378 10.6852C45.0547 10.6852 43.4502 8.40944 43.4502 5.59519C43.4502 2.78736 45.0547 0.511597 47.0378 0.511597C49.0209 0.511597 50.619 2.78736 50.619 5.59519C50.619 8.40944 49.0209 10.6852 47.0378 10.6852ZM35.9348 12.5891C35.9348 12.5891 36.3391 8.37098 39.2272 8.1402C41.5377 7.90942 43.2191 10.4544 43.3924 11.8968C43.508 12.8199 43.97 17.0958 40.3888 17.8458C36.859 18.6023 35.5241 14.4931 35.9348 12.5891ZM62.5884 20.1024C58.6542 20.1601 58.481 17.442 58.481 15.4803C58.481 13.3969 58.8853 10.5121 62.0686 10.5121C65.1877 10.5121 66.0541 13.57 66.0541 14.6149C66.0541 15.5957 66.4649 19.987 62.5884 20.1024ZM63.2238 30.6798C61.2599 35.2442 54.0911 32.8722 54.0911 32.8722C54.0911 32.8722 51.4277 32.0068 48.3663 32.6992C45.2986 33.3402 42.6415 33.1094 42.6415 33.1094C42.6415 33.1094 39.0539 33.1671 38.0142 28.6541C37.0323 24.0897 41.5954 21.6088 41.9484 21.1986C42.295 20.737 44.7209 19.1215 46.2227 16.5765C47.7245 13.9802 52.3518 11.9545 55.5929 16.9804C57.9611 20.3908 62.0686 23.5705 62.0686 23.5705C62.0686 23.5705 65.1299 25.9424 63.2238 30.6798ZM49.8681 30.449L49.8681 19.1792L47.7823 19.1215V22.1858L45.2986 22.1858C45.2986 22.1858 42.8148 22.3589 41.9484 25.186C41.5954 27.0963 42.1794 28.1925 42.295 28.4233C42.3527 28.6541 43.1614 30.0452 45.183 30.449L49.8681 30.449ZM58.4296 30.3914V22.4743H56.1127V28.4233H53.9178C53.9178 28.4233 53.2247 28.3079 53.1092 27.731V22.4166L50.9078 22.4743L50.9078 28.3656C50.9078 28.3656 51.0233 29.8721 53.1092 30.3914H58.4296Z" fill="white"/>
<path fill-rule="evenodd" clip-rule="evenodd" d="M30.9608 15.6533L34.542 15.6533V18.833L30.9608 18.833V15.6533ZM30.9608 20.16H34.542V32.5837L30.9608 32.5837L30.9608 20.16ZM29.1702 23.6858L29.1702 32.5837H19.5112C17.4318 32.1798 16.7387 30.6221 16.6232 30.3913C16.5654 30.1605 16.3857 29.4681 16.5077 28.1347C17.3163 25.3013 19.6845 25.0705 19.6845 25.0705H25.8136V24.1474C25.8136 23.1665 24.1963 22.7627 24.1963 22.7627H17.4896V20.16H25.1205C28.7659 20.6792 29.228 23.7435 29.1702 23.6858ZM25.7559 27.5001H20.9553C20.9553 27.5001 20.3199 27.6732 19.9156 28.4232C19.7423 28.8271 19.8578 29.2374 19.9156 29.3528C19.9733 29.4681 20.2044 29.872 20.8397 30.1605H25.7559V27.5001ZM10.3785 32.7568H0.488525L0.488525 15.5379H9.27466C9.27466 15.5379 14.9417 15.3007 15.1727 19.9292C15.1727 19.9292 15.4615 22.9358 13.1511 24.1474C13.1511 24.1474 15.8723 25.1859 15.7503 28.1924C15.7503 28.1924 16.1547 32.7568 10.3785 32.7568ZM11.5338 28.7694C12.0536 28.0771 11.8226 27.1539 11.8226 27.1539C11.4182 26.1667 10.3144 25.9359 10.3144 25.9359L10.1411 25.8782H4.24943V29.5771H10.1411C11.1872 29.404 11.5915 28.7117 11.5338 28.7694ZM11.5338 19.7561C11.1294 18.7689 9.91003 18.833 9.91003 18.833H4.24943L4.24943 22.4101H9.96779C11.0075 22.2947 11.4182 21.5447 11.4182 21.5447C11.8226 20.8523 11.5915 19.8138 11.5338 19.7561ZM102.489 28.0771V30.5067L101.269 30.5644V32.7568H98.7276V30.6798L93.927 31.0836V32.2952H92.9451C92.0209 32.3551 91.5588 31.7781 91.5588 30.5644L91.501 22.814H93.4649L93.5805 29.6925C93.5805 29.981 93.696 30.0964 93.8115 30.0964H93.927V28.654L98.7854 28.2501V16.4611L101.269 16.4611V28.1347L102.489 28.0771ZM95.0887 25.7628L94.7421 22.8781H96.8215L97.1103 24.6666C97.1681 25.1282 97.4055 25.359 97.8034 25.3013H98.2142V27.2116H96.8793C95.6085 27.2693 95.0309 26.8013 95.0887 25.7628ZM95.0887 20.4485L94.7421 17.2688H96.8215L97.1103 19.3458C97.1681 19.8715 97.3414 20.1023 97.7457 20.0446H98.2719V22.0639H96.5327C96.1284 22.0639 95.7818 21.9485 95.6085 21.7754C95.3775 21.5447 95.2042 21.0831 95.0887 20.4485ZM94.1645 20.16V22.1793H90.6346V32.5837H88.5552V22.1793H85.4875V20.1023H88.5552V19.115H85.5452V16.9803H90.8079C91.0967 16.9803 91.6166 16.8649 91.6166 16.5765V16.288H94.1067V17.1534C94.1067 17.9034 93.9912 18.5381 93.7602 18.7112C93.5291 18.942 92.9515 19.0574 92.1428 19.0574H90.8079V20.16H94.1645ZM85.7827 22.8781H87.9198L87.8043 30.7374C87.8621 31.949 87.2845 32.4683 86.0715 32.3529H85.1473V30.449H85.4361C85.6094 30.449 85.6672 30.2695 85.7249 29.8656L85.7827 22.8781ZM67.7997 16.6983L83.6391 16.6983V19.1215H77.9207L77.3945 20.6279H83.1834V31.2567C83.1834 31.2567 83.2989 32.7055 81.8485 32.7055H68.0885V20.6279H73.871L74.5064 19.1792H67.6841L67.7997 16.6983ZM80.52 27.6796L70.983 27.6796V30.5131L80.1157 30.5131C80.3467 30.5131 80.52 30.1092 80.52 30.1092V27.6796ZM70.9188 25.4231L80.4622 25.4231V22.7627L70.9188 22.7627V25.4231Z" fill="white"/>
</svg>
