<svg width="90" height="54" viewBox="0 0 90 54" fill="none" xmlns="http://www.w3.org/2000/svg">
<path d="M76.793 20.8827C78.4056 22.4922 79.3073 24.6728 79.3073 26.9457C79.3073 29.2185 78.4056 31.3991 76.793 33.0028C75.1862 34.6123 73.0013 35.5122 70.724 35.5122H64.4354V31.4164H70.7934C72.0245 31.4856 73.2325 31.0472 74.1342 30.1992C75.0301 29.3512 75.5388 28.1686 75.5388 26.9399C75.5388 25.7054 75.0301 24.5286 74.1342 23.6806C73.2325 22.8326 72.0245 22.3884 70.7934 22.4576H63.6551V35.5122H59.5918V18.3734H70.724C73.0013 18.3734 75.1862 19.279 76.793 20.8827Z" fill="#E50012"/>
<path d="M38.6046 18.3734V24.1132C38.6046 24.269 38.6335 24.419 38.6913 24.5632C38.7491 24.7074 38.8358 24.8343 38.9398 24.9439C39.0496 25.0535 39.1826 25.14 39.3213 25.2035C39.4658 25.2612 39.6161 25.29 39.7721 25.29H42.7662V28.9878H39.0381C38.4428 28.9878 37.859 28.8724 37.3099 28.6474C36.7666 28.4224 36.2695 28.0936 35.8475 27.6783C35.4314 27.2629 35.0961 26.7668 34.8707 26.2188C34.6453 25.6765 34.5239 25.0881 34.5239 24.4997V18.3734H38.6046Z" fill="#E50012"/>
<path d="M56.6959 18.3734V24.4997C56.6959 25.0881 56.5803 25.6708 56.3549 26.2188C56.1295 26.7611 55.7942 27.2572 55.3781 27.6725C54.9619 28.0879 54.4648 28.4224 53.9215 28.6474C53.3782 28.8724 52.7886 28.9878 52.1991 28.9878H47.6502V35.5122H43.5869V25.29H51.4477C51.6037 25.29 51.7598 25.2612 51.9043 25.2035C52.043 25.1458 52.176 25.0535 52.2858 24.9439C52.3956 24.8343 52.4823 24.7074 52.5401 24.5632C52.6037 24.419 52.6326 24.269 52.6326 24.1132V18.3734H56.6959Z" fill="#E50012"/>
<path fill-rule="evenodd" clip-rule="evenodd" d="M32.0613 23.6517C32.0613 23.9478 32.0362 24.2401 31.9862 24.5286C31.9399 24.817 31.8686 25.0997 31.7723 25.3766C31.676 25.6573 31.5584 25.9265 31.4197 26.1842C31.2771 26.4418 31.1153 26.6861 30.9342 26.9168C31.5469 27.7014 31.9284 28.6359 32.0324 29.6223C32.1364 30.6145 31.963 31.6068 31.5238 32.5009C31.0903 33.3951 30.414 34.145 29.5701 34.6757C28.732 35.2007 27.7552 35.4833 26.7611 35.4891H17.2125V31.4337L26.5819 31.3876C26.9518 31.3876 27.3044 31.2433 27.5645 30.9837C27.8246 30.7242 27.9691 30.3665 27.9691 30.0031C27.9691 29.6339 27.8246 29.282 27.5645 29.0166C27.3044 28.757 26.9518 28.6128 26.5819 28.5724H16.3918V35.5122H12.3169V18.3734H26.7611C27.4604 18.3734 28.154 18.5118 28.8014 18.7772C29.4487 19.0425 30.0325 19.429 30.5296 19.9251C31.0267 20.4155 31.4197 21.0039 31.6856 21.65C31.9515 22.2903 32.0902 22.9825 32.0902 23.6806M26.5819 25.2497C26.9518 25.2497 27.3044 25.1054 27.5645 24.8458C27.8246 24.5862 27.9691 24.2286 27.9691 23.8594C27.9691 23.496 27.8246 23.1383 27.5645 22.8787C27.3044 22.6191 26.9518 22.4749 26.5819 22.4288H16.3918V25.267H26.4952L26.5819 25.2497Z" fill="#E50012"/>
<path fill-rule="evenodd" clip-rule="evenodd" d="M44.9971 53.8913C20.1143 53.8913 0 41.8462 0 26.9456C0 12.0451 20.1143 0 44.9971 0C69.8857 0 90 12.0451 90 26.9456C90 41.8462 69.8857 53.8913 44.9971 53.8913ZM87.1447 26.9802C87.1447 14.3641 68.3078 4.16501 44.9971 4.16501C21.6922 4.16501 2.85531 14.3641 2.85531 26.9802C2.85531 39.5964 21.6922 49.7955 44.9971 49.7955C68.3078 49.7955 87.1447 39.5964 87.1447 26.9802Z" fill="#E50012"/>
</svg>
