<svg width="111" height="35" viewBox="0 0 111 35" fill="none" xmlns="http://www.w3.org/2000/svg">
<path d="M33.7618 21.5313C33.6288 21.9302 33.3629 22.4621 33.3629 22.4621C33.3629 22.4621 32.2431 21.0694 30.8573 19.5507C28.9397 17.563 27.288 16.0443 26.2941 15.1835C25.6992 14.6586 25.1043 14.3926 24.5794 14.3926C23.9845 14.3926 23.3897 14.6586 22.9907 15.0505C22.8578 15.1835 22.5988 15.3864 22.2629 15.7154C20.6811 17.2341 17.2448 20.3415 15.4601 21.8673C15.2641 22.0632 14.9982 22.2592 14.8652 22.3922C14.1373 22.9871 13.2835 23.386 12.4226 23.386C11.5618 23.386 10.638 23.057 9.77711 22.3292C5.08795 18.2909 1.65157 14.1896 0.923702 13.1328C0.860713 12.9999 0.727737 12.8669 0.860713 12.5379C0.993689 12.209 1.25264 11.6771 1.25264 11.6771C1.25264 11.6771 2.37944 13.0698 3.76519 14.5886C6.01179 17.1011 7.92944 18.6268 8.32837 19.0188C8.92326 19.5507 9.51116 19.8166 10.0431 19.8166C10.638 19.8166 11.2328 19.5507 11.6318 19.1517C11.7578 19.0188 17.3777 13.8607 19.1624 12.342C19.4214 12.146 19.6243 11.943 19.7573 11.8101C20.4782 11.2152 21.339 10.8232 22.1999 10.8232C23.0607 10.8232 23.9845 11.1522 24.8384 11.8801C26.0982 12.9369 30.6543 17.0381 33.6918 21.0694C33.7618 21.1394 33.8948 21.3353 33.7618 21.5313Z" fill="white"/>
<path d="M22.7249 5.92416C24.6426 6.98097 29.5977 11.1522 34.2868 17.899C34.4898 18.2909 34.4198 18.7528 34.4198 18.7528C34.3568 19.2218 34.2238 19.7467 34.2238 19.7467C33.496 18.6269 29.0728 12.7409 24.1177 9.0316C22.067 7.51287 19.8204 7.64585 17.9028 9.29755C17.2449 9.82945 12.1568 14.3226 9.64426 16.8352C9.31532 17.2341 8.85341 17.3041 8.52446 16.9682C7.2017 15.8484 6.27787 14.8545 6.27787 14.8545C7.53064 13.3988 14.0045 7.37989 15.5932 6.2601C18.1057 4.40543 20.6813 4.80436 22.7249 5.92416ZM21.3392 0.836073C23.1238 1.75991 25.8323 3.27863 30.1296 8.30373C32.3062 10.8233 33.8249 13.3988 34.1608 14.0637C34.2868 14.2597 34.3568 14.5256 34.3568 14.6586C34.5528 15.5124 34.5528 16.1773 34.5528 16.1773C32.8381 13.7277 31.3194 11.5441 28.9398 8.96861C27.0851 7.05095 25.8323 5.92416 24.3766 4.80436C20.4783 1.75991 16.587 2.02586 13.2136 4.60139C11.233 6.12712 7.7966 9.29755 4.62617 12.342C4.36021 12.538 4.16425 12.608 3.8983 12.405C2.70851 11.2152 1.91765 10.2284 1.91765 10.2284C2.97446 9.10158 7.13871 5.26627 10.3091 2.68374C14.5994 -0.689652 19.0926 -0.353713 21.3392 0.836073ZM11.7579 28.2781C9.84723 27.2213 4.89212 23.0571 0.195965 16.3103C1.66863e-08 15.9114 0.0699874 15.4494 0.0699874 15.4494C0.132976 14.9875 0.265952 14.4556 0.265952 14.4556C0.993821 15.5824 5.41702 21.4684 10.3721 25.1707C12.4228 26.6894 14.6694 26.5634 16.587 24.9047C17.2449 24.3798 22.333 19.8796 24.9085 17.4301C25.2375 17.0382 25.6994 16.9682 26.0283 17.3041C27.3511 18.4239 28.2749 19.4177 28.2749 19.4177C27.0221 20.8735 20.5483 26.8924 18.9596 28.0122C16.454 29.8039 13.9415 29.4679 11.7579 28.2781ZM13.2136 33.4362C11.4289 32.5124 8.72043 30.9936 4.4302 25.9615C2.2466 23.386 0.727869 20.8035 0.398928 20.1456C0.265952 19.9496 0.265952 19.6837 0.195965 19.5507C1.66863e-08 18.6269 0 18.032 0 18.032C1.72169 20.4745 3.24042 22.6581 5.61999 25.2407C7.46766 27.1583 8.72043 28.2781 10.1762 29.4049C14.0745 32.4494 17.9728 32.1834 21.3392 29.6009C23.3198 28.0822 26.7562 24.9047 29.9266 21.8673C30.1296 21.6643 30.3255 21.6013 30.5915 21.7973C31.7813 22.9871 32.5721 23.9809 32.5721 23.9809C31.5153 25.1077 27.3511 28.943 24.1806 31.5185C20.0164 34.9619 15.4602 34.563 13.2136 33.4362Z" fill="white"/>
<path d="M69.5672 10.2284C70.0991 10.8233 70.757 11.5442 71.1559 12.0761L71.2189 12.2091L70.0291 13.1329L69.9662 12.9999C69.5042 12.3421 68.9093 11.6142 68.4474 11.1523L68.3145 11.0193L69.4343 10.1584L69.5672 10.2284Z" fill="white"/>
<path d="M71.9468 14.7216H62.4355V13.3359H66.3968V10.0255H63.0304V8.63973H66.3968V6.51911H62.7015V5.19635H71.6179V6.51911H67.8526V8.63973H71.289V10.0255H67.8526V13.3359H71.9468V14.7216Z" fill="white"/>
<path fill-rule="evenodd" clip-rule="evenodd" d="M50.0129 4.93734H56.2208V13.3988H50.0129V17.962H48.3612V13.3988H42.2163V4.93734H48.3612V1.89288H50.0129V4.93734ZM43.868 11.8801H48.4312V6.39307H43.868V11.8801ZM50.0829 11.8801H54.6391V6.38607H50.0829V11.8801ZM60.0561 2.49478H74.2565V17.5071H60.0561V2.49478ZM61.5748 16.1143H72.7378V3.88053H61.5748V16.1143ZM84.0408 11.2222L82.984 12.412L82.851 12.279C82.3891 11.8801 81.8572 11.4182 81.3323 10.8933V17.836H79.8765V11.4182C79.4146 12.545 78.8197 13.6018 78.1548 14.5256C78.1548 14.5956 77.098 13.4058 77.098 13.4058C78.0918 11.9501 79.0857 10.0954 79.6806 8.17775H77.364V6.72201H79.8765V4.53841C78.8827 4.74137 77.6929 4.87435 77.6929 4.87435L77.5599 3.41861C77.5599 3.41861 78.6238 3.34862 80.4714 3.08967C81.9202 2.88671 83.3129 2.55776 83.3129 2.55776L83.6418 4.0135C83.6418 4.0135 82.984 4.20947 81.3953 4.47542V6.792H83.5719V8.24774H81.3953V9.0386C81.3953 9.0386 83.3129 10.5573 83.9708 11.1522L84.0408 11.2222ZM93.2931 9.96943V11.3552C91.6414 17.703 83.4459 17.906 83.4459 17.906L82.851 16.6462C82.851 16.6462 85.6295 16.5133 87.7431 15.5894C87.2812 15.1275 86.8193 14.5956 86.2244 14.0707L87.2812 13.1399C87.8761 13.7348 88.471 14.2667 88.9959 14.7986C90.3816 13.9377 91.3755 12.545 91.5714 11.4252H88.268C88.268 11.4252 86.6163 13.5388 84.2367 14.6656C83.7748 14.2037 83.1169 13.5388 83.1169 13.5388C84.6357 12.7479 86.7493 11.1592 87.7431 9.24156C87.0152 9.5705 85.2935 10.3684 84.4397 10.6273C84.3697 10.6273 83.4459 9.37454 83.4459 9.37454C84.9016 8.97561 86.1544 8.4507 87.2812 7.84881C86.8823 7.45688 86.4833 7.12794 85.8255 6.59604L85.6925 6.52605L86.6163 5.53923L86.7493 5.60222C87.4772 6.19711 87.9391 6.59604 88.534 7.12794C89.3948 6.52605 90.1227 5.73519 90.9135 4.74137H86.5533C86.0214 5.46924 85.2306 6.2671 84.3697 7.05795C83.9778 6.72901 83.1799 6.13412 83.1799 6.13412C84.6357 4.94433 85.8255 3.4886 86.6163 1.89988L86.6863 1.76691L88.072 2.29881L88.0091 2.43179C87.8761 2.69074 87.6731 2.95669 87.5401 3.22264H92.6282V4.60839C91.8374 6.13412 90.6476 7.45688 88.8629 8.57668C88.597 8.70966 88.338 8.91262 88.072 9.0456L89.5278 9.30455C89.5278 9.30455 89.3948 9.70348 89.1289 10.0324L93.2931 9.96943ZM96.0646 3.42561H102.741V4.88135H96.0646V3.42561ZM101.356 15.5264L101.223 15.1275C99.9629 15.2605 95.6727 16.4503 95.6727 16.4503L95.2108 15.3935C95.2108 15.3935 95.4767 15.1975 95.6027 14.9315C96.8625 12.6849 97.7863 9.90644 97.9193 9.0456H95.2738V7.58986H103.266V9.0456H99.571C99.0391 10.5643 98.1152 13.4758 97.3244 14.7356L100.824 13.8747C100.495 13.0139 100.166 12.286 99.8369 11.4952L99.7669 11.3622L101.153 10.7673L101.223 10.8933C101.818 12.09 102.545 13.7418 103.007 14.9315L101.356 15.5264ZM111 5.21029V5.34326C110.93 9.37454 110.804 12.615 110.671 15.0645C110.538 16.6532 109.81 17.5071 108.424 17.5071H106.507C106.507 17.5071 106.311 16.3873 106.241 15.9254C106.241 15.9254 107.431 15.9254 108.025 15.9254C108.683 15.9254 109.082 15.5264 109.082 14.7356C109.215 12.153 109.348 9.44452 109.348 6.72901H106.64V9.37454C106.64 16.0513 102.545 18.172 102.545 18.172L101.356 16.9822C101.356 16.9822 102.608 16.2543 103.336 15.1275C104.526 13.3428 105.051 11.7541 105.051 8.71665V6.72901H103.007V5.21029H105.121C105.121 4.21647 105.121 3.02668 105.121 1.96987H106.703V2.10285C106.703 3.15966 106.64 4.15348 106.64 5.21029C106.64 5.21029 110.93 5.21029 111 5.21029Z" fill="white"/>
<path fill-rule="evenodd" clip-rule="evenodd" d="M57.2149 25.0377C57.3479 25.3037 57.4109 25.7026 57.4109 26.1645V30.3988H56.1581V26.3605C56.1581 25.8986 56.0951 25.4997 55.8922 25.3037C55.7592 25.1077 55.5002 24.9748 55.1013 24.9748C54.7724 24.9748 54.5064 25.0377 54.1775 25.2407C53.8485 25.4367 53.5826 25.6326 53.3796 25.9616V30.3988H52.1269V20.8035H53.3796V24.7088C53.4496 24.6435 53.5173 24.5782 53.5826 24.5128C53.7156 24.3799 53.8485 24.2469 54.0445 24.1769C54.2405 24.1116 54.4388 24.0463 54.6394 23.9809C55.0313 23.848 55.5632 23.848 56.0251 23.9809C56.2211 24.0439 56.4871 24.1139 56.683 24.3099C56.886 24.4429 57.082 24.7088 57.2149 25.0377ZM58.7337 21.4684H59.9864V22.8541H58.7337V21.4684ZM58.7337 23.9809H59.9864V30.3358H58.7337V23.9809ZM66.5303 25.0377C66.5932 25.3037 66.6632 25.6956 66.6632 26.0946V30.3288H65.4105V26.2905C65.4105 25.8286 65.3405 25.4297 65.1445 25.2337C64.9415 25.0377 64.6826 24.9048 64.3536 24.9048C64.0177 24.9048 63.7588 24.9678 63.4228 25.1707C63.0939 25.3667 62.8279 25.5627 62.632 25.8986V30.3288H61.3792V23.9809H62.366L62.499 24.7088C62.569 24.5758 62.7019 24.5058 62.7649 24.4429C62.8979 24.3099 63.0309 24.1769 63.2268 24.1069C63.4275 24.0416 63.6258 23.9763 63.8217 23.9109C64.2837 23.848 64.8786 23.848 65.3405 23.9809C65.6064 24.0439 65.8024 24.1769 65.9983 24.3729C66.1313 24.5758 66.3343 24.7718 66.5303 25.0377ZM72.4092 25.4997C72.4792 25.6326 72.4792 25.8286 72.4792 26.0316V30.2588H71.4224L71.3524 29.7339C71.2894 29.7339 71.2194 29.7969 71.1564 29.8669C71.0234 29.9299 70.8905 30.0628 70.6945 30.1258C70.5615 30.1958 70.3656 30.2588 70.1626 30.3288C69.9666 30.3918 69.7007 30.3918 69.5047 30.3918C69.1758 30.3918 68.9098 30.3288 68.6439 30.2588C68.3779 30.1958 68.182 30.0628 67.986 29.8669C67.783 29.6639 67.6501 29.4679 67.5241 29.202C67.4541 28.936 67.3911 28.6701 67.3911 28.3412C67.3911 28.0122 67.4541 27.7463 67.5871 27.4803C67.65 27.2214 67.853 27.0184 68.049 26.8224C68.2449 26.6894 68.5109 26.4935 68.7768 26.4235C69.1058 26.3605 69.4347 26.2905 69.7707 26.2905C70.0996 26.2905 70.4286 26.2905 70.6945 26.3605C70.8905 26.3605 71.0864 26.4235 71.2894 26.4935V26.2275C71.2894 26.0946 71.2194 25.9616 71.2194 25.8286C71.2194 25.6956 71.2194 25.5627 71.1564 25.4997C71.0864 25.3037 70.8905 25.1707 70.6945 25.0377C70.4915 24.9048 70.1626 24.8348 69.7707 24.8348C69.4347 24.8348 69.1758 24.8348 68.9098 24.9048C68.6439 24.9678 68.3779 25.1007 68.119 25.1707L67.986 25.2337V24.1769H68.049C68.182 24.1069 68.3149 24.1069 68.4479 24.0439C68.5809 23.9809 68.7768 23.9809 68.9098 23.9109C69.1058 23.9109 69.2388 23.848 69.4347 23.848C69.6377 23.848 69.7707 23.848 69.9666 23.848C70.6245 23.848 71.1564 23.9809 71.5483 24.1769C72.0173 24.4429 72.2762 24.7088 72.4792 25.1007C72.6052 25.2337 72.6052 25.4297 72.4092 25.4997ZM70.8905 27.3473C70.6945 27.2843 70.3656 27.2843 70.0996 27.2843C69.7007 27.2843 69.3717 27.4173 69.1758 27.5503C68.9728 27.6833 68.8398 27.9492 68.8398 28.2782C68.8398 28.4741 68.8398 28.6071 68.9098 28.7401C68.9728 28.8731 69.0428 29.006 69.1058 29.069C69.1758 29.139 69.3018 29.202 69.4347 29.272C69.766 29.4026 70.0973 29.4026 70.4286 29.272C70.5615 29.202 70.7575 29.139 70.8905 29.069C71.0234 28.936 71.1564 28.8731 71.2194 28.8031C71.2894 28.7401 71.3524 28.7401 71.4224 28.6701V27.6133C71.2894 27.6133 71.0234 27.5503 70.8905 27.3473ZM51.14 27.3473L51.07 27.5503C50.3422 29.272 48.6905 30.3288 46.8428 30.3288C44.3303 30.3288 42.2866 28.2782 42.2866 25.7656C42.2866 23.2531 44.3303 21.2024 46.8428 21.2024C48.6905 21.2024 50.3422 22.3222 51.07 23.9809L51.14 24.1769H49.8173L49.7473 24.1069C49.1524 23.1201 48.0326 22.4552 46.8428 22.4552C44.9951 22.4552 43.4764 23.9809 43.4764 25.8286C43.4764 27.6833 44.9951 29.202 46.8428 29.202C48.0326 29.202 49.1524 28.6071 49.7473 27.5503L51.14 27.3473ZM83.6492 21.4614H85.3639V30.2588H84.0411V25.9546C84.0411 25.1007 84.0411 24.2399 84.1111 23.2461C83.8451 23.9039 83.5792 24.5058 83.3832 25.0307L81.1996 30.2588H80.5417L78.3651 25.0307C78.1622 24.5058 77.9662 23.904 77.7002 23.3091C77.7702 24.3029 77.7702 25.2267 77.7702 26.0246V30.3218H76.4475V21.4614H78.1622L80.2128 26.4235C80.4087 26.9484 80.6047 27.5433 80.8707 28.2082C81.1366 27.4103 81.3326 26.8154 81.5355 26.4235L83.6492 21.4614ZM99.3053 26.0246C99.3683 26.3535 99.4383 26.7524 99.4383 27.1444C99.4383 27.7393 99.3053 28.2712 99.1724 28.6701C98.9764 29.062 98.7734 29.4609 98.5145 29.7269C98.2485 30.0558 97.9196 30.2518 97.5837 30.3848C97.2547 30.5178 96.8628 30.5877 96.5268 30.5877C96.2679 30.5877 96.0019 30.5178 95.806 30.4548C95.603 30.3848 95.407 30.2518 95.2741 30.1888C95.1411 30.0558 95.0081 29.9929 94.9451 29.8599L94.8751 29.7899L94.6792 30.3848H93.6854V20.7965H94.9451V24.4359C95.0781 24.3029 95.3371 24.1699 95.54 24.0369C95.869 23.904 96.1979 23.841 96.5968 23.841C96.7928 23.841 96.9888 23.841 97.1917 23.904C97.3877 23.904 97.5837 24.0369 97.7866 24.1069C97.9826 24.2376 98.1809 24.3682 98.3815 24.4988C98.5775 24.6318 98.7734 24.8278 98.9064 25.0937C99.1094 25.3597 99.1724 25.6256 99.3053 26.0246ZM97.9196 26.0246C97.8496 25.7586 97.6536 25.4927 97.5207 25.3597C97.3247 25.1637 97.1917 25.0937 96.9888 25.0307C96.5268 24.8278 96.0019 24.8978 95.603 25.0937C95.3371 25.2267 95.1411 25.3597 94.9451 25.5557V28.6701C95.0104 28.7354 95.0758 28.8007 95.1411 28.8661C95.2111 28.999 95.3371 29.062 95.47 29.132C95.54 29.195 95.736 29.265 95.869 29.328C96.0649 29.391 96.1979 29.391 96.4009 29.391C96.6598 29.391 96.9258 29.391 97.1217 29.265C97.3247 29.132 97.5207 28.999 97.6536 28.7961C97.7866 28.6001 97.9196 28.3342 97.9826 28.0682C98.0456 27.8092 98.1156 27.4733 98.1156 27.1444C98.1156 26.6824 98.0456 26.2835 97.9196 26.0246ZM100.362 23.9739H101.615V30.3218H100.362V23.9739ZM100.362 21.4614H101.615V22.8471H100.362V21.4614ZM103.001 20.8035H104.26V30.3918H103.001V20.8035ZM110.867 27.0184C110.867 27.0814 110.867 27.4173 110.867 27.5503H106.64C106.64 27.8792 106.703 28.1452 106.773 28.4041C106.899 28.6701 107.032 28.8731 107.235 29.006C107.431 29.132 107.627 29.265 107.893 29.335C108.159 29.398 108.425 29.4679 108.754 29.4679C109.083 29.4679 109.349 29.4679 109.607 29.398C109.873 29.398 110.139 29.265 110.405 29.202L110.538 29.132V30.1958L110.468 30.2588C110.202 30.3918 109.943 30.4548 109.607 30.5248C109.279 30.5877 108.95 30.5877 108.551 30.5877C108.089 30.5877 107.697 30.5248 107.298 30.3918C106.899 30.2588 106.507 30.0628 106.241 29.7969C105.975 29.5309 105.716 29.202 105.583 28.8031C105.38 28.3412 105.317 27.8792 105.317 27.2843C105.317 26.6894 105.45 26.1575 105.583 25.7656C105.779 25.3667 105.975 24.9678 106.241 24.7018C106.507 24.3729 106.836 24.1769 107.165 24.0439C107.83 23.715 108.621 23.715 109.279 23.9739C109.545 24.1092 109.81 24.3075 110.076 24.5688C110.272 24.8348 110.468 25.1637 110.601 25.5627C110.671 25.9616 110.734 26.4235 110.867 27.0184ZM109.482 26.4235C109.482 26.2275 109.482 26.0246 109.412 25.8916C109.349 25.6956 109.279 25.4997 109.146 25.3667C109.083 25.2337 108.95 25.1007 108.754 25.0377C108.425 24.9048 107.893 24.9048 107.564 25.0377C107.431 25.1007 107.235 25.2337 107.102 25.3667C106.969 25.5627 106.836 25.6956 106.773 25.8916C106.703 26.0946 106.64 26.2275 106.64 26.4235H109.482ZM89.5281 30.4548C87.7014 30.4548 86.2247 28.978 86.2247 27.1514C86.2247 25.3247 87.7014 23.841 89.5281 23.841C91.3548 23.841 92.8315 25.3247 92.8315 27.1514C92.8315 28.978 91.3548 30.4548 89.5281 30.4548ZM91.7747 27.1514C91.7747 25.9056 90.7669 24.9048 89.5281 24.9048C88.2823 24.9048 87.2815 25.9056 87.2815 27.1514C87.2815 28.3971 88.2823 29.398 89.5281 29.398C90.7669 29.398 91.7747 28.3971 91.7747 27.1514Z" fill="white"/>
</svg>
