<svg width="110" height="35" viewBox="0 0 110 35" fill="none" xmlns="http://www.w3.org/2000/svg">
<path fill-rule="evenodd" clip-rule="evenodd" d="M46.4981 24.238C46.8889 24.5231 47.1639 24.9399 47.3231 25.4883L46.5849 25.6637C46.4595 25.264 46.2713 24.9643 46.0205 24.7644C45.7672 24.567 45.4487 24.4646 45.0724 24.4646C44.45 24.4646 43.9796 24.6694 43.6612 25.0788C43.3428 25.4883 43.1835 26.0391 43.1835 26.7312C43.1835 27.5282 43.35 28.1204 43.6901 28.5079C44.023 28.8955 44.4645 29.0929 45.0073 29.0929C45.4511 29.0929 45.8106 28.971 46.0856 28.7273C46.3654 28.4836 46.5608 28.118 46.6718 27.6306L47.4172 27.828C47.2508 28.4714 46.9685 28.954 46.556 29.2684C46.1435 29.5828 45.6441 29.7363 45.0724 29.7363C44.1388 29.7363 43.4658 29.4438 43.046 28.8589C42.6215 28.274 42.4092 27.5672 42.4092 26.7385C42.4092 25.8246 42.6552 25.1081 43.1546 24.5889C43.6515 24.0722 44.2932 23.8139 45.0796 23.8139C45.6297 23.8139 46.1025 23.9553 46.4981 24.238ZM49.1251 23.9163V26.2633H52.0706V23.9163H52.8305V29.6412H52.0706V26.9433H49.1251V29.6412H48.3725V23.9163H49.1251ZM54.9727 23.9163V29.6412H54.22V23.9163H54.9727ZM57.0859 23.9163L60.0458 28.4129H60.0603V23.9163H60.7768V29.6412H60.0096L57.0424 25.1446H57.028V29.6412H56.3187V23.9163H57.0859ZM64.4459 23.9163L66.7618 29.6412H65.915L65.2492 27.9011H62.8827L62.2531 29.6412H61.457L63.6426 23.9163H64.4459ZM72.7613 23.9163V28.9613H75.5548V29.6412H72.0086V23.9163H72.7613ZM77.7838 23.9163V29.6412H77.0311V23.9163H77.7838ZM83.1754 23.9163V24.5889H80.0996V26.3656H82.7628V27.0456H80.0996V29.6412H79.347V23.9163H83.1754ZM88.4005 23.9163V24.5889H85.0425V26.3437H88.1834V27.0237H85.0425V28.9613H88.5308V29.6412H84.2971V23.9163H88.4005ZM63.7295 25.5833L63.0926 27.2942H65.0177C64.5545 26.0561 64.2939 25.3542 64.2361 25.1885C64.1782 25.0179 64.113 24.7912 64.0407 24.5085H64.0189C63.9466 24.896 63.8525 25.2543 63.7295 25.5833Z" fill="white"/>
<path fill-rule="evenodd" clip-rule="evenodd" d="M48.0685 21.6935C47.7356 21.4961 47.6126 20.7869 47.5981 18.8786L47.5836 17.3066H46.3244C44.7612 17.3066 44.4428 17.4016 43.6612 18.0597C42.9592 18.6519 42.7131 18.6665 42.3296 18.1255C42.0763 17.7672 42.0763 17.716 42.3585 16.6339C42.5611 15.8662 42.6552 15.0034 42.6697 13.8701C42.6769 12.3859 42.6407 12.1592 42.3078 11.5158C41.9243 10.7992 41.917 10.3679 42.2789 10.0681C42.4309 9.93648 42.7059 9.97304 43.4079 10.207C44.4934 10.5653 46.2158 10.7408 46.8455 10.558C47.258 10.4337 47.2869 10.3752 47.3303 9.62208C47.3882 8.59114 47.6488 8.28406 48.481 8.28406C49.4146 8.28406 49.6172 8.59115 49.7547 10.1485C49.7982 10.5945 49.7982 10.5945 50.8258 10.6384C51.3975 10.6603 52.389 10.6165 53.0404 10.5433C54.3864 10.3898 54.6976 10.4995 55.1897 11.3111C55.595 11.991 55.5516 12.4517 54.9726 13.4241C54.2851 14.5793 54.1621 15.3544 54.5963 15.815C54.9799 16.2391 54.9147 16.7509 54.4081 17.2408C54.097 17.5405 53.9812 17.5552 52.5989 17.4528C51.7883 17.387 50.8258 17.3285 50.4567 17.3212L49.7982 17.3066L49.7837 19.193C49.7765 21.4011 49.6028 21.8544 48.7922 21.8471C48.5317 21.8471 48.206 21.7739 48.0685 21.6935ZM47.0553 14.8499C47.4823 14.6232 47.7139 13.8994 47.4968 13.4826C47.2363 12.9781 47.0843 12.9123 46.1435 12.9123C45.0724 12.905 44.6599 13.2413 44.7322 14.0675C44.7684 14.477 44.8697 14.6598 45.1448 14.806C45.5862 15.0253 46.679 15.0546 47.0553 14.8499ZM52.5265 14.7694C52.7726 14.4697 52.7871 13.4168 52.5555 13.1755C52.4469 13.0732 51.8969 12.9635 51.3035 12.9342C49.9791 12.8757 49.7186 13.0293 49.6751 13.9432C49.6534 14.5135 49.6968 14.6305 50.0153 14.7987C50.5436 15.0765 52.2877 15.0546 52.5265 14.7694ZM103.446 21.0062C102.998 20.6845 103.034 20.414 103.562 20.1362C104.394 19.7048 104.829 18.5495 104.438 17.8184C104.3 17.5552 104.112 17.5332 102.296 17.5332H100.313V17.0068C100.313 16.7216 100.284 16.4877 100.24 16.4877C100.204 16.4877 99.6902 16.9775 99.0968 17.5844C97.4612 19.2588 95.9921 19.6901 94.8197 18.8493C94.4579 18.5861 94.4072 18.4618 94.4072 17.7526C94.4072 17.3139 94.4796 16.9117 94.5592 16.8606C94.6388 16.8094 94.8848 16.9044 95.0947 17.0726C95.6013 17.4747 95.9776 17.4601 97.15 16.9849C98.1126 16.5973 99.133 15.8004 99.133 15.4421C99.133 15.1862 97.4033 15.3471 96.5204 15.6834C95.9125 15.9174 95.8618 15.9174 95.5868 15.6615C95.2322 15.3397 95.2177 15.018 95.5579 14.6013C96.0138 14.031 96.5059 13.8774 98.0981 13.8043C99.4731 13.7385 99.654 13.6946 99.6975 13.446C99.7481 13.1755 99.6758 13.1682 98.4165 13.2486C97.2224 13.3291 97.0415 13.2998 96.7013 13.0366L96.325 12.7368L96.629 12.2981C96.9329 11.8667 96.9546 11.8667 98.3876 11.8667C99.4659 11.8667 99.8567 11.8156 99.9146 11.662C100.095 11.1794 99.7915 11.0917 98.0836 11.1429L96.4046 11.1941L96.354 10.6018C96.2816 9.73175 96.5132 9.62939 98.4599 9.62939H100.088L100.385 9.0664C100.602 8.65695 100.79 8.49609 101.094 8.45954C101.651 8.39373 102.23 8.79587 102.23 9.24188V9.60015L105.169 9.65133C107.825 9.6952 108.136 9.73175 108.418 9.99497C108.642 10.1924 108.722 10.419 108.693 10.7408L108.65 11.1941H105.523C103.236 11.1941 102.346 11.2453 102.209 11.3769C102.107 11.4792 102.078 11.6108 102.144 11.6766C102.201 11.7351 103.461 11.8082 104.937 11.8302C108.107 11.8741 108.281 11.9033 108.281 12.3566C108.281 13.022 108.1 13.0585 104.937 13.0585C102.165 13.0585 101.934 13.0805 101.796 13.3364C101.717 13.4899 101.695 13.6581 101.746 13.7093C101.796 13.7604 103.309 13.8043 105.111 13.8043C107.564 13.8043 108.563 13.7458 109.106 13.585C109.554 13.446 109.88 13.4168 109.96 13.5045C110.14 13.6873 109.685 14.7256 109.229 15.157C108.91 15.4567 108.773 15.4787 107.694 15.4056C106.616 15.3324 106.493 15.3471 106.348 15.6176C106.261 15.7784 106.232 16.0197 106.283 16.144C106.356 16.3414 106.587 16.3707 107.774 16.2976C109.344 16.2025 109.496 16.2829 109.171 17.0726C108.932 17.6502 108.36 17.8622 107.224 17.8038L106.29 17.7526L106.204 18.8712C106.16 19.4854 106.044 20.1362 105.95 20.3116C105.487 21.1671 104.184 21.5254 103.446 21.0062ZM103.041 16.0855L104.59 16.1221V15.7126C104.59 15.369 104.517 15.2959 104.061 15.2081C103.772 15.1496 103.005 15.135 102.361 15.1789C101.42 15.2301 101.116 15.3105 100.87 15.5518C100.45 15.9832 100.609 16.3853 101.116 16.1879C101.326 16.1075 102.194 16.0636 103.041 16.0855ZM59.9228 20.7211C58.801 20.2312 58.6997 19.9095 59.1918 18.4837C59.4524 17.716 59.4958 17.1969 59.5175 14.3965C59.5392 12.6345 59.4885 10.7919 59.4234 10.2947C59.3221 9.59283 59.3366 9.35886 59.4958 9.23456C59.6333 9.12489 60.2701 9.11758 61.4715 9.1907C64.8295 9.41004 69.5118 9.29306 71.4731 8.94941C72.1533 8.82512 72.5369 9.11027 72.7757 9.92917C72.906 10.3679 72.8843 10.887 72.6816 12.3347C72.4645 13.8482 72.4356 14.7036 72.5224 17.1676C72.602 19.5366 72.5803 20.202 72.4283 20.3263C72.3053 20.4286 71.4875 20.4359 69.8809 20.3555C68.5782 20.2824 66.2479 20.2239 64.6992 20.2239C61.9708 20.2166 61.8623 20.2239 61.1892 20.5895C60.8057 20.7942 60.48 20.955 60.4655 20.955C60.4511 20.9477 60.205 20.8454 59.9228 20.7211ZM70.8652 18.0523C69.9316 18.0523 71.0388 11.1063 70.8724 10.9455C70.7928 10.8651 68.9835 10.7992 66.5446 10.7846C62.9261 10.77 62.2893 10.7992 61.8912 11.0113C61.6379 11.1502 61.3919 11.3696 61.334 11.5012C61.2833 11.6401 61.2037 13.1682 61.1458 14.9084C61.0807 17.2261 61.1024 18.1474 61.2327 18.396L61.4064 18.725L66.0815 18.6885L70.7638 18.6446L70.8652 18.0523ZM61.7248 18.1182C61.3919 17.9865 61.3919 17.9719 61.6307 17.4967C62.1011 16.5462 62.2169 16.4877 63.5268 16.4877C64.265 16.4877 64.8005 16.4145 64.9091 16.3049C65.1624 16.049 65.1262 15.3397 64.8512 15.2374C64.4604 15.0838 63.2373 15.135 63.0636 15.3105C62.9478 15.4275 62.7959 15.3982 62.5209 15.2228C62.0577 14.9084 61.9202 14.5062 62.1373 14.0968C62.282 13.8116 62.4123 13.7897 63.5558 13.8116C64.5545 13.8409 64.8584 13.797 65.0538 13.5996C65.2492 13.4022 65.2637 13.2925 65.1334 13.0951C64.9959 12.8757 64.786 12.8392 63.8308 12.883C62.6367 12.9342 62.1301 12.7222 62.1373 12.1738C62.1445 11.545 62.2459 11.5231 65.6545 11.5523C67.6881 11.5743 69.0125 11.5231 69.1934 11.428C69.4177 11.3111 69.5552 11.333 69.7868 11.5304C70.0329 11.7424 70.0691 11.8814 69.975 12.3127L69.8664 12.8319L68.6 12.7807C67.167 12.7222 66.6604 12.8904 66.7328 13.4022C66.7762 13.7019 66.8703 13.7312 67.8907 13.7531C68.4986 13.7678 69.0776 13.7824 69.1789 13.7897C69.4684 13.8116 69.396 14.477 69.0704 14.7694C68.6579 15.1423 68.7013 15.2959 69.2006 15.2959C69.7362 15.2959 69.8954 15.6541 69.577 16.144C69.3454 16.5096 69.3454 16.5096 69.8303 16.4584C70.279 16.4145 70.3296 16.4511 70.373 16.8386C70.3947 17.0726 70.3441 17.4455 70.25 17.6721L70.0836 18.0889L66.8848 18.067C65.1189 18.0597 63.3169 18.0962 62.8682 18.1547C62.4268 18.2059 61.9057 18.1913 61.7248 18.1182ZM68.0282 16.0928C68.4407 15.5591 68.4118 15.3324 67.8907 15.2228C67.0585 15.0327 66.5591 15.4714 66.7835 16.1879C66.921 16.6412 67.6447 16.5827 68.0282 16.0928ZM99.6034 20.2093C99.1692 19.946 99.1185 19.8437 99.1619 19.3538C99.2053 18.8347 99.2343 18.7981 99.6468 18.8493C100.617 18.959 101.536 18.8786 101.869 18.6592C102.346 18.3448 102.527 18.3667 102.527 18.7323C102.527 19.2368 102.267 19.5878 101.601 19.968C100.674 20.509 100.175 20.5675 99.6034 20.2093ZM88.4584 19.3977C87.7202 19.1345 86.5478 18.3229 85.6359 17.4455C84.7168 16.5535 83.2477 15.5883 82.8135 15.5883C82.6326 15.5883 81.9812 15.932 81.3661 16.3414C79.9331 17.3139 78.189 18.1255 77.5377 18.1255C76.6403 18.1255 75.8153 17.175 75.8153 16.1367C75.8153 15.7346 75.9311 15.5225 76.3363 15.157C76.8357 14.7109 76.8791 14.7036 77.2916 14.923C77.8851 15.2301 78.2686 15.2008 79.2094 14.7621C80.4397 14.1845 81.149 13.3875 81.5542 12.13C81.7135 11.6401 81.699 11.5158 81.4023 10.9967C80.9753 10.2509 81.1707 9.92917 82.0391 9.92917C83.5444 9.92917 84.6372 11.4719 83.9859 12.6929C83.776 13.0878 83.7543 13.2706 83.8701 13.468C84.1523 13.9286 85.455 14.8426 86.28 15.1496C88.0748 15.8369 90.8466 15.8369 91.9973 15.1496C92.7861 14.6817 92.8947 14.9011 92.5762 16.2683C92.2795 17.5332 91.7584 18.3375 90.738 19.1272C90.0288 19.6755 89.4209 19.7486 88.4584 19.3977Z" fill="white"/>
<path d="M25.2644 18.1328C30.2206 18.1328 34.2384 14.0736 34.2384 9.06638C34.2384 4.05915 30.2206 0 25.2644 0C20.3083 0 16.2905 4.05915 16.2905 9.06638C16.2905 14.0736 20.3083 18.1328 25.2644 18.1328Z" fill="url(#paint0_radial_125_128)"/>
<path d="M0 17.5259C0 8.19628 7.36729 0.621471 16.5366 0.380188V8.50337C11.8108 8.73734 8.04757 12.6856 8.04757 17.5259C8.04757 22.5124 12.0497 26.5557 16.9853 26.5557C21.7979 26.5557 25.7276 22.7025 25.9158 17.8841H33.9561C33.768 27.1918 26.2415 34.6789 16.9853 34.6789C7.60612 34.6789 0 27.0017 0 17.5259Z" fill="#00A86D"/>
<defs>
<radialGradient id="paint0_radial_125_128" cx="0" cy="0" r="1" gradientUnits="userSpaceOnUse" gradientTransform="translate(24.1065 12.5979) scale(17.1518 17.3285)">
<stop stop-color="#F7F7F8"/>
<stop offset="0.3" stop-color="#B9B9BA"/>
<stop offset="0.7" stop-color="#7B7B7C"/>
<stop offset="1"/>
</radialGradient>
</defs>
</svg>
