<svg width="111" height="38" viewBox="0 0 111 38" fill="none" xmlns="http://www.w3.org/2000/svg">
<path d="M42.2505 32.4109C38.1574 29.7741 32.6025 29.3115 23.6441 31.7969C14.0937 34.0412 10.9095 35.4799 6.7277 32.5918C5.12115 31.1731 4.54516 28.8888 4.97526 25.5984C5.97283 20.2345 8.66866 15.0726 13.4572 9.34685C16.13 6.36832 18.6094 3.81219 21.8831 2.78575C24.3922 2.14184 24.1576 4.11373 23.854 4.39574C23.5337 4.39574 22.9955 4.4462 22.5795 4.71763C22.242 4.97943 21.3154 5.82478 21.2656 6.9619C21.1938 8.70266 22.9952 8.34034 23.7722 7.38458C24.6097 6.30754 25.8475 4.24504 24.8739 2.32279C24.4658 1.63859 23.7607 1.16572 22.8852 1.00471C19.8874 0.833384 17.0956 2.26242 14.5189 3.8423C8.88385 7.75679 4.37618 13.1809 1.82555 19.1182C0.355122 22.7005 -0.97478 27.832 1.01856 32.0085C2.56076 34.9065 5.76218 36.4458 9.5818 36.1239C12.2607 35.8424 15.5001 34.9766 17.6788 34.4538C19.8576 33.9301 31.01 30.0966 34.6743 36.7688C34.6743 36.7688 35.8929 34.4034 38.9381 34.3529C41.4417 34.1219 45.0535 35.0777 47.6836 37.0094C46.8074 35.6916 44.323 33.7494 42.2505 32.4109Z" fill="#E61A27"/>
<path d="M24.7812 10.021C22.6953 8.65251 18.5029 11.2689 15.145 15.7567C12.0744 19.7823 10.7485 24.461 12.1915 26.6246C14.3379 29.1704 18.3228 25.4674 20.0174 23.4853L20.236 23.2536C21.3884 22.0159 22.2785 20.5265 23.1404 19.0973C23.1404 19.0973 23.9324 17.7891 23.9702 17.7286C24.4597 17.6384 25.0493 17.4975 25.7137 17.3062C25.7042 17.3362 23.1717 21.5929 23.4301 23.7057C23.5105 24.3503 23.4492 26.705 25.7481 27.4194C28.8121 27.9329 31.2588 25.5577 33.4173 23.4445C33.4173 23.4445 33.7851 23.0926 33.9931 22.8917C33.9405 23.1024 33.8719 23.3836 33.8719 23.3836C32.9748 26.5032 34.184 27.1578 34.9404 27.3993C37.2263 28.064 39.9572 24.7429 39.9662 24.7429C39.8952 25.789 39.6883 26.6543 40.791 27.3488C41.8318 27.7214 42.8851 27.1533 43.6859 26.6199C46.57 24.5874 48.8935 21.4059 50.7701 18.6561H49.573C49.5589 18.6561 46.6192 22.9169 44.7103 23.843C44.7073 23.843 44.3598 24.0213 44.1598 23.8802C43.9119 23.6689 44.0096 23.2293 44.1627 22.918C44.1723 22.8978 51.5332 10.131 51.5332 10.131H48.0578C48.0578 10.131 47.6781 10.7453 47.6472 10.7855C47.6238 10.7655 47.5681 10.6599 47.5296 10.6093C45.3764 7.63074 40.5002 12.2122 36.8291 17.5253C35.4157 19.5682 33.6163 21.8685 31.7504 23.5288C31.7504 23.5288 28.9861 26.0626 27.8051 24.2421C27.3733 23.4772 27.5062 22.3589 27.7497 21.6245C29.1248 17.7099 31.4944 14.1573 34.1909 12.0138C34.9519 11.4205 35.7794 11.2489 36.1898 11.5005C36.5812 11.7324 36.6443 12.3055 36.3968 12.698C35.7688 12.678 35.2656 12.8688 34.8566 13.2915C34.0509 14.1368 33.7709 14.9521 34.0271 15.717C35.2716 17.488 37.7536 13.986 37.6336 11.8527C37.5907 11.0878 37.1827 10.3634 36.5736 10.0109C35.666 9.46774 34.2813 9.60841 33.3853 10.0414C32.1856 10.494 30.2868 12.0738 29.1784 13.3017C27.7831 14.8415 25.3899 16.552 24.6416 16.3605C24.8862 15.7063 26.9076 11.5705 24.7812 10.021ZM41.5371 16.1393C42.2132 15.2036 44.1809 12.6978 44.6607 12.2752C46.2741 10.8558 46.919 11.4803 46.9748 11.9228C45.469 14.6196 43.6919 17.7091 42.021 20.4866C42.0244 20.4767 41.498 21.2815 41.498 21.2815C40.7601 22.4082 40.017 23.3744 38.805 24.0484C38.6321 24.0991 38.3472 24.1193 38.1576 23.9779C37.9294 23.8269 37.8393 23.5753 37.865 23.3136C37.9378 22.4484 38.8186 19.8024 41.5371 16.1393ZM22.6301 17.7593C22.6301 17.7593 22.5997 17.8502 22.5849 17.8799C22.581 17.8799 21.0695 20.345 21.0695 20.345C20.1573 21.5628 19.0184 23.0928 17.5947 23.827C17.1727 23.9678 16.5893 24.0587 16.2921 23.6866C15.6619 22.9318 15.9867 21.8851 16.2505 21.04L16.344 20.7381C17.1006 18.6855 18.3008 16.8738 19.4693 15.1933C19.4839 15.1834 19.5166 15.1733 19.5284 15.1733C19.5313 15.1833 19.536 15.1834 19.5379 15.2036C20.271 16.6121 21.6458 17.2659 22.6739 17.5683C22.68 17.5683 22.6868 17.5783 22.6868 17.5985C22.6869 17.6285 22.6701 17.6691 22.6301 17.7593ZM24.0621 14.8514C24.0553 14.8715 23.3889 16.4011 23.3889 16.4011C23.2925 16.4815 23.1401 16.4413 22.9655 16.4011L22.6663 16.3505C21.7268 16.0588 21.0181 15.4348 20.7996 14.6903C20.4983 13.2412 21.7362 12.104 22.2816 11.6917C22.8049 11.3291 23.6185 11.138 24.0909 11.5104C24.3823 11.8527 24.4927 12.2953 24.4927 12.7786C24.4928 13.4324 24.291 14.1669 24.0621 14.8514ZM67.9989 19.5202C67.6636 18.7959 66.8682 18.3329 66.0204 18.3831C63.2672 18.6349 60.5743 20.899 59.1602 24.149C58.4183 25.8197 58.0133 27.1981 57.7478 29.3918C58.604 28.4059 60.3503 26.7859 62.3319 25.9002C62.3319 25.9002 62.6016 23.7972 63.9766 21.9254C64.4969 21.1503 65.538 19.9026 66.7072 20.2346C67.7288 20.5768 67.3697 23.4046 66.012 26.1411C65.0074 28.154 63.4702 30.1672 61.9148 31.5555C60.5396 32.7227 58.505 34.1316 56.725 33.0449C55.6038 32.381 55.0319 30.9919 55.1526 29.2008C55.6883 24.1192 58.0016 19.7921 61.312 14.8613C64.7253 10.2827 68.4878 5.58336 73.5565 3.07729C74.5903 2.5541 75.5478 2.43337 76.3754 2.7554C76.3754 2.7554 71.6173 5.37175 69.3493 10.2122C68.7723 11.44 67.9699 13.0999 68.7779 14.5693C69.2002 15.3339 69.9499 15.3944 70.5536 15.3541C73.3337 14.7099 75.1299 12.1138 76.5974 9.73917C77.4483 7.93792 78.2045 6.1467 78.2045 4.15419C78.2045 3.91274 78.192 3.59085 78.1717 3.34912C79.4998 2.64498 82.2235 3.89252 82.2235 3.89252C84.3519 4.59721 88.8838 8.06909 90.4125 8.73294C91.1582 7.86765 92.3836 6.55961 93.0737 5.90539L92.0747 5.29145C90.4756 4.31534 88.7853 3.38941 87.1217 2.4738C83.3433 0.411157 80.2677 1.13551 78.7026 1.69912C78.0874 1.92036 77.5253 2.11162 77.5253 2.11162C76.3637 0.843733 74.4585 0.964183 73.0547 1.30656C68.0066 2.75553 63.3196 6.2875 58.2947 12.416C54.6003 17.2162 52.3087 21.3622 51.0873 25.4576C50.1458 28.2148 49.8597 32.2701 52.1576 34.6752C54.1113 36.7175 56.702 36.2751 58.5313 35.5408C62.495 33.5886 66.0575 29.382 67.8326 24.5416C68.2611 23.1028 68.7364 21.0701 67.9989 19.5202ZM77.1133 4.35562C76.5886 10.3733 71.911 13.9057 70.7535 14.187C70.0522 14.3277 68.8554 14.016 69.9239 11.4905C71.4971 8.08889 74.1835 5.20111 77.0655 3.72175C77.1358 3.97337 77.1338 4.13397 77.1133 4.35562ZM104.861 5.12013C102.344 6.5493 99.7361 7.47482 96.5788 7.15293C95.7039 8.13935 94.8518 9.15562 94.0666 10.202C98.4981 11.3291 103.196 8.82342 105.816 6.43875C108.588 4.0336 110.009 1.00488 110.009 1.00488C110.009 1.00488 107.932 3.37951 104.861 5.12013ZM57.3095 10.1313H54.0089L52.1472 13.1563H55.447L57.3095 10.1313Z" fill="#E61A27"/>
<path d="M96.5656 32.6909C96.2107 32.9324 95.7121 32.7467 95.8984 32.1934C96.3629 30.7846 98.209 27.9136 98.209 27.9136L103.351 18.7938H99.8289C99.6614 19.0688 99.3035 19.7002 99.3035 19.7002C99.1406 19.4287 98.6533 18.8252 98.4526 18.6948C97.5922 18.1509 96.3298 18.4081 95.4588 18.901C91.6722 21.1152 88.9094 25.4897 86.7305 28.9013C86.7305 28.9013 84.4368 32.6935 83.1637 32.9755C82.1697 33.0561 82.2723 31.7171 82.3153 31.4051C82.6997 29.1507 83.5922 27.0075 84.4913 25.0653C86.3203 23.7974 88.4074 22.1371 90.3042 20.3157C94.4207 16.3808 97.8911 11.9229 98.3983 10.9267C98.3983 10.9267 97.8493 11.0375 97.201 11.0574C94.0341 15.4751 87.5534 21.8955 85.5887 22.8513C86.459 20.7577 92.0825 10.7655 96.8678 5.98575L97.6209 5.26099C98.7854 4.12386 99.9918 2.95663 100.932 2.76536C101.031 2.75532 101.159 2.76536 101.27 2.99719C101.312 3.88255 100.982 4.53678 100.604 5.28134L100.074 6.36828C100.074 6.36828 100.825 6.22734 101.318 6.06592C101.889 4.9897 102.523 3.78176 102.289 2.3431C102.212 1.88014 101.876 1.528 101.438 1.44742C100.011 1.17572 98.4553 2.232 97.2033 3.08766L97.1529 3.11764C90.7176 8.15922 85.2837 15.4247 80.5328 25.3469C80.1885 25.6081 78.8582 25.9204 78.6321 25.7693C79.1013 24.8035 79.692 23.5051 79.9875 22.0962C80.0386 21.6935 80.0862 21.2813 80.0862 20.8788C80.0862 20.0127 79.8783 19.1979 79.1025 18.6347C78.1928 18.1817 77.0685 18.3932 76.3103 18.735C72.9145 20.1439 70.3763 23.6259 68.5447 26.4935C67.5597 28.3154 66.5775 30.2666 66.3055 32.501C66.114 34.2517 66.5039 35.3789 67.4994 35.9425C68.523 36.4654 69.8114 35.9219 70.3175 35.6605C73.7579 33.8491 76.1618 30.2166 78.0566 26.8957C78.1319 26.8858 79.1665 26.8558 79.9491 26.6542C79.9594 26.6542 79.9638 26.6542 79.9811 26.6647C79.9363 26.8151 79.5319 28.023 79.5319 28.023C78.331 31.5447 77.7756 33.94 78.91 35.3587C80.531 37.3612 83.2147 35.2886 85.3978 32.5509C84.9292 35.8313 86.6293 36.3448 87.9254 36.0935C89.4141 35.6912 91.073 34.1008 91.8429 33.286C91.5956 34.2418 91.6627 35.9528 93.0171 36.1236C93.9452 36.2952 94.64 35.7903 95.4437 35.3574C98.327 33.7875 101.778 28.556 102.674 27.0435H101.5C100.226 28.9689 98.6046 31.4929 96.5656 32.6909ZM70.6856 32.3405C70.5027 32.0687 70.4421 31.7717 70.436 31.4505C70.401 29.4772 72.524 25.9438 74.0223 24.0188H74.0255C74.6533 25.3938 76.0753 26.2776 76.9337 26.6501C75.8677 29.0251 72.2111 34.1116 70.6856 32.3405ZM77.5356 25.5883C77.4341 25.6593 75.641 25.0551 75.2943 23.3948C75.0003 21.9653 75.9847 20.8484 76.937 20.2855C77.3458 19.9632 77.9615 19.8529 78.4132 20.0132C78.8325 20.2955 78.946 20.7991 78.946 21.3415C78.946 21.6742 78.9019 22.0161 78.863 22.3279L78.8545 22.3986C78.5541 23.5142 78.1108 24.5864 77.5356 25.5883ZM91.9177 31.7067C91.9162 31.7067 91.5774 32.0085 91.5774 32.0085C91.0936 32.4411 90.5959 32.9039 89.995 32.6723C89.829 32.6121 89.7123 32.3909 89.6843 32.2193C89.6569 30.9815 90.2142 29.8346 90.7548 28.7177L90.8934 28.4258C92.4483 25.8296 94.2556 22.7705 96.9099 20.6475C97.3572 20.3248 97.8426 20.0537 98.3549 20.2651C98.4727 20.3757 98.6099 20.567 98.6099 20.7579C98.6099 20.8186 98.556 20.9795 98.5251 21.0296C97.7837 22.2277 97.0778 23.4853 96.3912 24.6928C95.0495 27.0777 93.6576 29.5427 91.9177 31.7067Z" fill="#E61A27"/>
</svg>
