<svg width="66" height="43" viewBox="0 0 66 43" fill="none" xmlns="http://www.w3.org/2000/svg">
<path fill-rule="evenodd" clip-rule="evenodd" d="M29.8127 0.568193C32.4208 -0.0378523 35.1932 -0.0215717 37.7721 0.71594C41.0489 2.19788 44.2314 3.88293 47.4887 5.41045C48.2855 5.77962 49.0355 6.26519 49.8892 6.49759C50.892 6.70883 51.9213 6.78698 52.9453 6.75442C56.0692 6.83908 59.2505 6.44875 62.1701 5.28876C62.7058 5.09705 63.2412 4.82394 63.829 4.85813C64.2266 4.85976 64.4701 5.29527 64.488 5.651C64.3562 6.29775 63.9619 6.84722 63.6099 7.38977C62.4688 8.89613 61.0794 10.232 59.4518 11.1986C60.9546 12.1461 62.7835 12.5751 64.0725 13.8458C65.4713 15.1328 65.9453 17.1443 65.8526 18.984C65.851 25.9175 65.8428 32.8498 65.8315 39.7833C65.7506 40.5652 65.6628 41.4427 65.1046 42.0471C64.7006 42.411 64.1973 42.7134 63.6473 42.7667C60.1367 42.8172 56.6213 42.702 53.1123 42.8481C38.6647 42.9002 24.2135 42.7993 9.76918 42.84C7.60251 42.8188 5.43421 42.9246 3.26917 42.8074C2.53543 42.7944 1.84722 42.3768 1.44803 41.7691C0.793963 40.9356 0.919167 39.798 0.970793 38.8085C0.964289 33.3358 0.988679 27.8626 0.970793 22.3899C0.873638 20.9373 0.935427 19.4826 0.865508 18.03C0.832988 16.7267 1.25657 15.3897 2.146 14.421C3.1086 13.2333 4.58381 12.6773 5.91958 12.0322C8.84397 10.5551 11.8074 9.15947 14.7322 7.68567C15.9883 7.12643 17.17 6.41171 18.4489 5.90131C21.0472 4.58177 23.6928 3.36317 26.2993 2.0599C27.4416 1.5027 28.5664 0.864094 29.8127 0.568193ZM28.7871 5.62007C28.607 5.67542 28.4318 5.74543 28.2615 5.82805C26.9501 5.85736 25.7164 6.3531 24.4765 6.72511C21.5001 7.83016 18.5623 9.17087 16.0354 11.1225C15.1785 11.8519 14.2696 12.6012 13.7989 13.6541C14.4399 13.4006 14.9854 12.9716 15.5745 12.6256C18.0578 11.3158 20.6497 10.1652 23.4021 9.56404C26.5716 8.71094 29.8582 8.308 33.1399 8.37271C36.9525 8.32265 40.6639 9.30071 44.329 10.2271C46.1709 10.8071 48.0355 11.3207 49.9103 11.7835C52.2814 12.1917 54.8099 12.1885 57.0725 11.28C59.2863 10.5323 61.1428 8.99219 62.6229 7.21597C62.8697 6.9217 63.0432 6.57737 63.1961 6.22611C63.2461 6.17931 63.3485 6.08488 63.3989 6.03766C62.8014 5.98923 62.279 6.31403 61.727 6.48131C56.881 8.08373 51.52 8.09675 46.666 6.52527C43.8209 5.76008 40.9123 5.21549 37.9668 5.05961C34.9009 4.94239 31.8074 5.02379 28.7871 5.62007ZM14.2224 16.7869C14.1513 17.3995 14.1415 18.0267 14.2306 18.6393C14.3834 19.3251 15.1281 19.6601 15.7773 19.6454C17.6163 19.6617 19.455 19.647 21.294 19.6503C24.5074 19.5559 27.7257 19.6715 30.9375 19.5656C30.9538 18.9449 30.9554 18.3242 30.9326 17.7035C29.394 17.7247 27.857 17.6189 26.3188 17.697C23.446 17.5945 20.57 17.7394 17.6956 17.6433C17.6777 17.3539 17.6631 17.0649 17.6456 16.7755C16.5062 16.7593 15.3619 16.7169 14.2224 16.7869ZM10.6115 17.0568C10.1017 17.0698 9.61349 17.4435 9.62162 17.9844C9.62162 18.6848 9.48666 19.4407 9.77406 20.1021C10.0952 20.687 10.8452 20.5502 11.4001 20.5746C11.9472 20.5376 12.5314 20.6642 13.0541 20.4611C13.0899 19.4793 13.2456 18.428 12.8883 17.4907C12.3578 16.8032 11.3631 17.0535 10.6115 17.0568ZM37.9001 17.4353C37.829 18.1309 37.8432 18.831 37.8497 19.5282C40.4643 19.6259 43.0855 19.538 45.7017 19.5738C45.8058 21.2181 45.7164 22.8677 45.7473 24.5121C43.1359 24.5996 40.5196 24.4991 37.9082 24.5691C37.8708 25.2805 37.8676 25.994 37.9115 26.7059C40.4095 26.7429 42.907 26.6961 45.4066 26.7336C45.2359 28.5712 44.4733 30.3068 43.5676 31.8957C42.1639 34.0537 40.1936 35.8544 37.8952 37.0193C37.905 37.5036 37.905 37.9896 37.9245 38.4739C39.5656 38.2786 41.0196 37.3917 42.3798 36.5109C44.7509 34.9459 46.6611 32.7228 47.87 30.1525C48.8229 32.221 50.2493 34.0635 52.0168 35.4982C53.7079 36.8503 55.6152 38.0238 57.7623 38.456C57.8205 37.9326 57.8953 37.3917 57.7168 36.8829C54.7436 35.401 52.455 32.7586 51.0562 29.7752C50.7054 28.7841 50.3518 27.7833 50.1684 26.7446C52.6985 26.6815 55.2302 26.7494 57.7623 26.7092C57.7867 25.9924 57.7883 25.274 57.7591 24.5577C55.1542 24.53 52.5493 24.5544 49.9444 24.5463C49.9266 22.8885 49.842 21.2279 49.9233 19.5705C52.5396 19.5347 55.1623 19.6405 57.7753 19.5152C57.7786 18.82 57.7835 18.1228 57.7688 17.4255C54.8635 17.3572 51.955 17.4158 49.0485 17.3962C45.3318 17.4158 41.6152 17.3523 37.9001 17.4353ZM14.6346 21.0411C14.5033 22.7359 14.6379 24.4388 14.5814 26.1369C14.6041 28.9514 14.6346 31.7643 14.62 34.5788C14.4806 35.8837 15.5647 37.2016 16.9005 37.2032C20.2294 37.2321 23.5578 37.1837 26.8883 37.2272C26.9143 37.6273 26.833 38.0531 26.9761 38.4349C27.5164 38.4756 28.07 38.3648 28.5485 38.108C29.5094 37.6611 30.0529 36.5789 30.1034 35.5536C30.118 33.742 30.0936 31.9283 30.1147 30.1167C30.3631 30.0955 30.6147 30.0939 30.8615 30.0532C30.9716 29.4178 30.8968 28.7662 30.9001 28.126C30.6456 28.1243 30.3924 28.1243 30.1408 28.1243C30.0773 26.8683 30.1131 25.6106 30.1099 24.3546C30.1017 23.7388 30.1716 23.0969 29.9395 22.5116C29.5859 21.5173 28.4903 20.947 27.4741 20.9711C23.1928 20.9584 18.9147 20.9922 14.6346 21.0411ZM9.53381 23.5369C9.53869 24.1853 9.39276 24.9183 9.7708 25.4918C10.2302 26.0946 11.0724 25.8772 11.7265 25.9191C12.3074 25.9664 12.981 25.6416 13.0509 25.0046C13.1513 24.1739 13.0964 23.3338 13.0623 22.5018C12.2342 22.4644 11.405 22.4888 10.5773 22.497C9.99967 22.4257 9.52243 22.9878 9.53381 23.5369ZM9.80658 28.1309C9.70414 30.3361 9.81959 32.5425 9.77568 34.7493C9.81308 35.578 9.66186 36.4686 10.0484 37.2386C10.5399 38.1976 11.6517 38.664 12.6936 38.5126C13.0525 38.5338 13.0086 38.0738 13.0363 37.8402C12.968 34.6016 13.1432 31.3532 12.9631 28.1195C11.9115 28.1227 10.8582 28.1129 9.80658 28.1309Z" fill="#E93323"/>
<path d="M17.8322 22.983C20.3428 22.9765 22.8521 22.9927 25.3627 22.9732C26.1871 22.8999 26.9664 23.6737 26.9404 24.4958C26.929 25.7014 27.0115 26.9139 26.8948 28.1162C25.9875 28.1081 25.0769 28.1553 24.1696 28.1016C24.1278 28.0707 24.04 28.0092 23.9977 27.9799C23.9119 27.2029 24.0172 26.4182 23.957 25.6416C23.9379 25.0807 23.4135 24.6696 22.8989 24.574C22.1786 24.5072 21.4497 24.5398 20.729 24.5952C20.7013 25.7682 20.7404 26.9416 20.7046 28.1162C19.7489 28.126 18.7944 28.1195 17.8404 28.1211C17.8143 26.41 17.7704 24.6957 17.8322 22.983Z" fill="#E93323"/>
<path d="M17.8485 30.0857C18.8042 30.1553 19.7652 30.0271 20.7209 30.133C20.7452 30.8265 20.6562 31.5319 20.7648 32.2193C20.9822 32.6955 21.216 33.3195 21.8018 33.42C22.516 33.5144 23.2416 33.4575 23.9587 33.4347C23.9863 32.3312 23.9505 31.2278 23.9831 30.1248C24.9522 30.0646 25.9339 30.032 26.9014 30.115C27.0018 31.8001 27.0636 33.503 26.9241 35.1865C24.3953 35.1897 21.8652 35.193 19.3351 35.1881C18.5721 35.2109 17.7526 34.5837 17.8306 33.7664C17.8355 32.5392 17.8176 31.3125 17.8485 30.0857Z" fill="#E93323"/>
<path d="M28.7868 5.61987C31.8072 5.0236 34.9007 4.94219 37.9665 5.05941C40.9121 5.2153 43.8206 5.75989 46.6657 6.52508C51.5198 8.09656 56.8808 8.08354 61.7267 6.48112C62.2788 6.31383 62.8011 5.98904 63.3987 6.03747C63.3483 6.08468 63.2458 6.17911 63.1958 6.22592C61.9962 7.18973 60.6653 8.01353 59.1983 8.49462C56.8889 9.23702 54.4283 9.58502 52.0117 9.27284C50.2913 9.02089 48.5726 8.69447 46.9352 8.09493C42.5238 6.51368 37.8495 5.59871 33.1527 5.67848C31.5202 5.68011 29.8954 5.89786 28.2612 5.82786C28.4316 5.74523 28.6068 5.67523 28.7868 5.61987Z" fill="white"/>
<path d="M14.2223 16.7868C15.3617 16.7168 16.506 16.7591 17.6454 16.7754C17.6629 17.0648 17.6775 17.3538 17.6954 17.6432C20.5698 17.7392 23.4458 17.5943 26.3186 17.6969C27.8568 17.6188 29.3938 17.7246 30.9324 17.7034C30.9552 18.3241 30.9536 18.9448 30.9373 19.5655C27.7255 19.6713 24.5072 19.5557 21.2938 19.6502C19.4548 19.6469 17.6162 19.6616 15.7771 19.6453C15.1279 19.6599 14.3832 19.325 14.2304 18.6391C14.1414 18.0266 14.1511 17.3994 14.2223 16.7868Z" fill="white"/>
<path d="M10.6113 17.0566C11.363 17.0533 12.3577 16.803 12.8882 17.4905C13.2455 18.4278 13.0898 19.4791 13.054 20.4609C12.5313 20.664 11.9471 20.5374 11.4 20.5744C10.8451 20.55 10.0951 20.6868 9.77394 20.1019C9.48654 19.4405 9.6215 18.6847 9.6215 17.9842C9.61337 17.4433 10.1016 17.0696 10.6113 17.0566Z" fill="white"/>
<path d="M37.8996 17.4351C41.6146 17.352 45.3313 17.4155 49.048 17.396C51.9545 17.4155 54.863 17.3569 57.7683 17.4253C57.783 18.1225 57.7781 18.8197 57.7748 19.5149C55.1618 19.6403 52.539 19.5345 49.9228 19.5703C49.8415 21.2276 49.926 22.8883 49.9439 24.546C52.5488 24.5542 55.1537 24.5298 57.7586 24.5574C57.7878 25.2738 57.7862 25.9922 57.7618 26.7089C55.2297 26.7492 52.698 26.6812 50.1679 26.7443C50.3512 27.783 50.7049 28.7839 51.0557 29.775C52.4545 32.7584 54.7431 35.4007 57.7163 36.8827C57.8947 37.3914 57.8199 37.9324 57.7618 38.4558C55.6147 38.0235 53.7073 36.8501 52.0163 35.498C50.2488 34.0633 48.8224 32.2207 47.8695 30.1523C46.6606 32.7226 44.7504 34.9457 42.3793 36.5107C41.0191 37.3914 39.565 38.2783 37.924 38.4737C37.9045 37.9894 37.9045 37.5034 37.8947 37.019C40.1931 35.8541 42.1634 34.0535 43.5671 31.8955C44.4728 30.3065 45.2354 28.571 45.4061 26.7333C42.9065 26.6959 40.4089 26.7427 37.911 26.7057C37.8671 25.9938 37.8703 25.2803 37.9077 24.5688C40.5191 24.4988 43.1354 24.5994 45.7468 24.5119C45.7159 22.8675 45.8053 21.2179 45.7012 19.5735C43.085 19.5377 40.4638 19.6256 37.8492 19.528C37.8427 18.8307 37.8285 18.1307 37.8996 17.4351Z" fill="white"/>
<path fill-rule="evenodd" clip-rule="evenodd" d="M14.6345 21.0409C18.9146 20.9921 23.1926 20.9583 27.4739 20.9709C28.4902 20.9469 29.5857 21.5171 29.9394 22.5115C30.1715 23.0968 30.1016 23.7386 30.1097 24.3544C30.1129 25.6105 30.0772 26.8682 30.1406 28.1242C30.3922 28.1242 30.6455 28.1242 30.8999 28.1258C30.8967 28.7661 30.9715 29.4177 30.8613 30.0531C30.6146 30.0938 30.3629 30.0954 30.1146 30.1166C30.0934 31.9282 30.1178 33.7418 30.1032 35.5535C30.0528 36.5787 29.5093 37.661 28.5483 38.1079C28.0699 38.3647 27.5162 38.4754 26.976 38.4347C26.8329 38.0529 26.9142 37.6272 26.8881 37.2271C23.5577 37.1836 20.2292 37.232 16.9003 37.2031C15.5646 37.2015 14.4804 35.8835 14.6198 34.5787C14.6345 31.7641 14.604 28.9513 14.5812 26.1368C14.6377 24.4387 14.5032 22.7357 14.6345 21.0409ZM17.832 22.9828C17.7702 24.6955 17.8142 26.4099 17.8402 28.121C18.7942 28.1193 19.7487 28.1258 20.7044 28.1161C20.7402 26.9414 20.7011 25.768 20.7288 24.595C21.4495 24.5396 22.1784 24.5071 22.8987 24.5738C23.4133 24.6695 23.9377 25.0806 23.9568 25.6414C24.017 26.418 23.9117 27.2027 23.9975 27.9797C24.0398 28.009 24.1276 28.0705 24.1694 28.1014C25.0768 28.1551 25.9873 28.1079 26.8947 28.1161C27.0113 26.9137 26.9288 25.7012 26.9402 24.4957C26.9662 23.6735 26.1869 22.8998 25.3625 22.973C22.852 22.9926 20.3426 22.9763 17.832 22.9828ZM17.8483 30.0856C17.8174 31.3124 17.8353 32.5391 17.8304 33.7663C17.7524 34.5835 18.5719 35.2108 19.3349 35.188C21.865 35.1928 24.3951 35.1896 26.9239 35.1863C27.0634 33.5029 27.0016 31.8 26.9012 30.1149C25.9337 30.0319 24.952 30.0645 23.9829 30.1247C23.9503 31.2277 23.9861 32.3311 23.9585 33.4345C23.2414 33.4573 22.5158 33.5143 21.8016 33.4199C21.2158 33.3194 20.982 32.6954 20.7646 32.2192C20.656 31.5317 20.745 30.8264 20.7207 30.1328C19.765 30.027 18.804 30.1552 17.8483 30.0856Z" fill="white"/>
<path d="M9.53348 23.5367C9.5221 22.9877 9.99933 22.4256 10.577 22.4968C11.4046 22.4887 12.2339 22.4642 13.0619 22.5017C13.0961 23.3336 13.151 24.1737 13.0506 25.0044C12.9806 25.6414 12.3071 25.9662 11.7262 25.919C11.0721 25.8771 10.2298 26.0944 9.77047 25.4916C9.39242 24.9181 9.53836 24.1851 9.53348 23.5367Z" fill="white"/>
<path d="M9.80624 28.1307C10.8579 28.1127 11.9111 28.1225 12.9627 28.1193C13.1428 31.353 12.9676 34.6014 13.0359 37.84C13.0083 38.0736 13.0522 38.5336 12.6932 38.5124C11.6514 38.6638 10.5396 38.1974 10.0481 37.2384C9.66152 36.4684 9.81274 35.5778 9.77535 34.7491C9.81925 32.5423 9.7038 30.3359 9.80624 28.1307Z" fill="white"/>
<path d="M33.1529 5.67865C37.8497 5.59887 42.5241 6.51384 46.9355 8.0951C48.5729 8.69463 50.2916 9.02106 52.0119 9.273C54.4286 9.58518 56.8891 9.23718 59.1985 8.49479C60.6656 8.01369 61.9965 7.1899 63.1961 6.22608C63.0432 6.57734 62.8696 6.92167 62.6229 7.21594C61.1428 8.99216 59.2863 10.5323 57.0725 11.28C54.8099 12.1885 52.2814 12.1917 49.9103 11.7835C48.0355 11.3207 46.1708 10.807 44.329 10.227C40.6639 9.30068 36.9525 8.32262 33.1399 8.37268C29.8582 8.30797 26.5716 8.71091 23.4021 9.56402C20.6497 10.1652 18.0578 11.3158 15.5744 12.6256C14.9854 12.9715 14.4399 13.4005 13.7988 13.6541C14.2696 12.6012 15.1785 11.8518 16.0354 11.1225C18.5623 9.17084 21.5001 7.83013 24.4765 6.72508C25.7163 6.35307 26.9501 5.85733 28.2615 5.82802C29.8956 5.89803 31.5204 5.68028 33.1529 5.67865Z" fill="#F8DB4A"/>
</svg>
