<svg width="101" height="24" viewBox="0 0 101 24" fill="none" xmlns="http://www.w3.org/2000/svg">
<path d="M55.5471 7.23993V13.4679C55.5471 15.2369 54.6693 16.1809 53.0742 16.1809C51.4702 16.1809 50.5872 15.2097 50.5872 13.3924V7.24675L48.3804 7.24675V13.4679C48.3804 16.5289 50.0807 18.283 53.0452 18.283C56.0377 18.283 57.7539 16.4953 57.7539 13.3782V7.23993H55.5471ZM63.6662 7.23993L58.8733 18.1135H61.1259L62.0511 16.0076L62.1173 15.8498L67.0964 15.8498L68.073 18.1135H70.3868L65.6385 7.30429L65.5958 7.2399L63.6662 7.23993ZM76.7874 7.23993L74.3176 14.7216L71.9134 7.24551L69.565 7.24551L73.3559 18.1203H75.1833L77.6581 10.9765L80.1309 18.1203H81.9738L85.7555 7.24551H83.4671L81.0579 14.7216L78.5876 7.23993L76.7874 7.23993ZM98.3828 7.23993V18.1042H100.561V7.23993L98.3828 7.23993ZM35.9214 7.24057V18.1197H38.1288V13.7012H43.1129V18.1197H45.3209V7.24057L43.1129 7.24057V11.6293H38.1288V7.24057H35.9214ZM87.5353 7.24793V18.1122H95.7509V16.1313H89.713V13.4375H93.728V11.456H89.713V9.22885H95.5405V7.24793L87.5353 7.24793ZM64.6013 9.99309L66.175 13.6355H66.1695L66.2765 13.8868H62.9379L63.0437 13.6355L64.6013 9.99309Z" fill="white"/>
<path d="M12.7554 0.439793C12.3738 0.476055 11.3426 0.728213 11.3426 0.728213C9.0184 1.37362 8.46863 3.63959 8.46863 3.63959C8.35513 4.02062 8.30357 4.41112 8.28841 4.77902V5.27975C8.31925 6.05339 8.4794 6.63106 8.4794 6.63106C9.25577 10.3295 13.073 16.4066 13.8934 17.6832C13.9516 17.7452 13.9983 17.7228 13.9983 17.7228C14.0868 17.6966 14.0799 17.6053 14.0799 17.6053L14.0816 17.6058C15.3452 4.03655 12.7554 0.439793 12.7554 0.439793ZM16.9307 0.439793C16.9307 0.439793 14.3295 4.03845 15.5941 17.6156H15.5958C15.6056 17.7017 15.6625 17.7197 15.6625 17.7197C15.7472 17.7549 15.7905 17.6676 15.7905 17.6676L15.791 17.6685C16.6324 16.3593 20.4279 10.3153 21.2009 6.631C21.2009 6.631 21.6199 4.8478 21.2154 3.63951C21.2154 3.63951 20.6408 1.33846 18.3136 0.730375C18.3136 0.730375 17.6429 0.547535 16.9307 0.439793ZM4.93303 4.5133C4.93303 4.5133 2.71848 6.77145 2.60841 9.16543H2.60929V9.52818C2.61097 9.55548 2.61226 9.58313 2.61386 9.61095C2.70926 11.5414 4.061 12.6839 4.061 12.6839C6.23895 14.9643 11.5126 17.8435 12.738 18.4968C12.7552 18.5037 12.8185 18.5259 12.8557 18.4755C12.8557 18.4755 12.875 18.4597 12.8839 18.4314V18.3712C12.883 18.3678 12.8813 18.3643 12.8797 18.3606C9.52375 10.4843 4.93303 4.5133 4.93303 4.5133ZM24.7476 4.5133C24.7476 4.5133 20.1704 10.4656 16.8159 18.3259L16.8172 18.3255C16.8172 18.3255 16.7776 18.4166 16.8416 18.4755C16.8416 18.4755 16.8607 18.491 16.8872 18.4973H16.9336C16.9419 18.4947 16.9509 18.4912 16.9597 18.4848C18.2184 17.8136 23.4513 14.9542 25.6189 12.6843C25.6189 12.6843 26.9917 11.5 27.0636 9.59843C27.2221 6.95742 24.7476 4.5133 24.7476 4.5133ZM28.8674 12.3327C28.8674 12.3327 21.4051 16.6351 17.5467 19.4311L17.548 19.4324C17.548 19.4324 17.478 19.4817 17.5025 19.5699C17.5025 19.5699 17.5391 19.6412 17.5924 19.6412C18.9744 19.6438 24.2039 19.6505 24.335 19.6242C24.335 19.6242 25.0112 19.5952 25.8468 19.2504C25.8468 19.2504 27.707 18.615 28.6731 16.3461C28.6731 16.3461 29.1146 15.3974 29.121 14.0646V14.0081C29.1178 13.4941 29.0503 12.925 28.8674 12.3327ZM0.811187 12.3528C0.132229 14.6109 1.04628 16.4305 1.04775 16.4334C2.0003 18.5957 3.81857 19.2509 3.81857 19.2509C4.65805 19.6214 5.49772 19.647 5.49772 19.647C5.62883 19.6728 10.7191 19.6496 12.083 19.6427C12.1407 19.6422 12.1725 19.5799 12.1725 19.5799C12.1765 19.573 12.18 19.5661 12.1816 19.5598V19.5033C12.1703 19.4655 12.1401 19.4388 12.1401 19.4388L12.141 19.4384C8.2846 16.6432 0.811187 12.3528 0.811187 12.3528ZM11.9272 20.3369L3.14865 20.6676C4.10065 22.4908 5.70392 23.9078 7.37407 23.4726C8.52664 23.163 11.1377 21.2064 11.9997 20.5452L11.9968 20.5426C12.0638 20.4779 12.0399 20.426 12.0399 20.426C12.0178 20.3413 11.9272 20.3414 11.9272 20.3414L11.9272 20.3369ZM17.7414 20.3438L17.7406 20.3472C17.7406 20.3472 17.6635 20.3577 17.642 20.4197C17.642 20.4197 17.6232 20.5045 17.6751 20.5466L17.6742 20.5475C18.5147 21.195 21.0625 23.1086 22.2899 23.4802C22.2899 23.4802 22.4758 23.5481 22.7875 23.5603H22.9747C23.7971 23.5293 25.2297 23.0754 26.5315 20.6725L17.7414 20.3438Z" fill="#CF0A2C"/>
</svg>
