<svg width="111" height="38" viewBox="0 0 111 38" fill="none" xmlns="http://www.w3.org/2000/svg">
<path d="M0.336914 0.666626L0.336914 37.3332L110.333 37.3332L110.333 0.666625L0.336914 0.666626Z" fill="#E42022"/>
<mask id="mask0_394_44" style="mask-type:luminance" maskUnits="userSpaceOnUse" x="0" y="0" width="111" height="38">
<path d="M0.333252 0.666626L0.333252 37.3332L110.333 37.3332L110.333 0.666625L0.333252 0.666626Z" fill="white"/>
</mask>
<g mask="url(#mask0_394_44)">
<path d="M48.2548 13.024C46.6306 13.024 44.7828 13.7773 43.6531 15.2849L43.6542 15.2822L43.6531 15.2833L43.6542 13.2606L39.7788 13.2606L39.7788 27.3729L43.6531 27.3729L43.6531 19.3434C43.6531 17.8979 44.7736 16.3616 46.8482 16.3616C48.4519 16.3616 50.1107 17.4767 50.1107 19.3434L50.1107 27.3729L53.9862 27.3729L53.9862 18.6247C53.9862 15.3794 51.6642 13.024 48.2548 13.024Z" fill="white"/>
<path d="M81.5284 13.2614L78.025 22.8747L74.5217 13.2614L70.0955 13.2614L75.9018 27.3684L80.1477 27.3684L85.9546 13.2614L81.5284 13.2614Z" fill="white"/>
<path d="M28.2096 17.5129C28.8694 16.6268 29.9208 16.1068 31.1903 16.1068C32.5872 16.1068 33.6466 16.9043 34.1936 18.081L27.4239 20.8899C27.2387 19.4487 27.6075 18.3212 28.2096 17.5129ZM35.6548 23.0342C34.0235 24.241 33.0915 24.5294 31.6044 24.5294C30.2658 24.5294 29.2183 24.1141 28.479 23.3852L38.386 19.2748C38.17 17.7435 37.589 16.3757 36.6943 15.3352C35.3924 13.8232 33.4657 13.0235 31.1206 13.0235C26.8591 13.0235 23.6462 16.1673 23.6462 20.3186C23.6462 24.578 26.8667 27.6132 31.5472 27.6132C34.1693 27.6132 36.8508 26.3701 38.1047 24.9181L35.6548 23.0342Z" fill="white"/>
<path d="M23.2774 23.8148L14.4698 23.8148L14.4698 9.0405L10.542 9.0405L10.542 27.3727L23.2774 27.3727L23.2774 23.8148Z" fill="white"/>
<path d="M92.9121 16.3443C90.7479 16.3443 89.1771 17.9842 89.1771 20.3174C89.1771 22.5448 90.8413 24.2906 92.9645 24.2906C95.1287 24.2906 96.6995 22.6053 96.6995 20.3174C96.6995 18.0895 95.0358 16.3443 92.9121 16.3443ZM92.9121 27.6109C88.6738 27.6109 85.3535 24.4536 85.3535 20.3174C85.3535 16.2276 88.6971 13.0234 92.9645 13.0234C97.2022 13.0234 100.522 16.1807 100.522 20.3174C100.522 24.4067 97.1796 27.6109 92.9121 27.6109Z" fill="white"/>
<path d="M63.0773 16.3442C60.9131 16.3442 59.3423 17.9841 59.3423 20.3174C59.3423 22.5448 61.0065 24.2905 63.1297 24.2905C65.294 24.2905 66.8653 22.6052 66.8653 20.3174C66.8653 18.0894 65.2011 16.3442 63.0773 16.3442ZM63.0773 27.6108C58.8391 27.6108 55.5193 24.4536 55.5193 20.3174C55.5193 16.2276 58.8623 13.0233 63.1297 13.0233C67.3675 13.0233 70.6878 16.1806 70.6878 20.3174C70.6878 24.4066 67.3448 27.6108 63.0773 27.6108Z" fill="white"/>
</g>
</svg>
