<svg width="100" height="27" viewBox="0 0 100 27" fill="none" xmlns="http://www.w3.org/2000/svg">
<path fill-rule="evenodd" clip-rule="evenodd" d="M13.75 25.2591C12.2461 25.5235 10.7152 25.6022 9.13189 25.8134L4.30184 11.6804V26.4195C2.79724 26.5776 1.4252 26.7888 0 27V0H4.01181L9.50131 15.3196V0H13.75V25.2591ZM27.7119 9.80834V14.0274C25.8379 14.0274 23.6476 14.0274 22.0637 14.1061V20.3815C24.5446 20.2234 27.0256 20.0122 29.5328 19.9335V23.9938L17.8412 24.9167V0H29.5328V4.21904H22.0637V9.88771C23.7001 9.88771 26.2073 9.80834 27.7119 9.80834ZM40.855 4.21904V23.6252C39.4298 23.6252 38.0046 23.6252 36.6325 23.6776V4.21904H32.2513V0H45.2362V4.21904H40.855ZM57.878 9.59778V13.8162H52.0978V23.3877H47.9541V0H59.752V4.21904H52.0978V9.59778H57.878ZM66.6135 19.6961C69.0158 19.7485 71.4436 19.9335 73.7927 20.0654V24.2313C70.0184 23.9938 66.2441 23.757 62.3911 23.6776V0H66.6135V19.6961ZM77.3557 24.5212V0H81.4987V24.8373C80.1266 24.6799 78.7014 24.6006 77.3557 24.5212ZM94.6424 12.8408L100 27C98.416 26.7888 96.8327 26.4989 95.2493 26.2352L92.2146 18.4307L89.1266 25.6022C87.5958 25.3385 86.1175 25.2591 84.5873 25.0486L90.0236 12.6827L85.1148 0H89.6542L92.4252 7.09273L95.3812 0H100L94.6424 12.8408Z" fill="#D81F26"/>
</svg>
