<svg width="110" height="26" viewBox="0 0 110 26" fill="none" xmlns="http://www.w3.org/2000/svg">
<path fill-rule="evenodd" clip-rule="evenodd" d="M24.2899 13.9031H32.4302C35.227 13.9031 36.2623 15.3012 36.2623 17.773C36.2623 19.9016 35.2557 21.5485 32.4588 21.5485H28.2339V24.999H24.2899V13.9031ZM28.2339 18.8446H30.7797C31.7724 18.8446 32.1506 18.5028 32.1506 17.6947C32.1506 16.8559 31.7731 16.5133 30.7797 16.5133H28.2339V18.8446ZM37.5632 13.9031H48.1788V16.6063H41.5072V18.0988H47.7034V20.8033H41.5072V22.2951H48.1788V24.999H37.5632V13.9031ZM49.8292 13.9031H57.9695C60.767 13.9031 61.8023 15.3012 61.8023 17.773C61.8023 19.9016 60.795 21.5485 57.9974 21.5485H53.7732V24.999H49.8292V13.9031ZM53.7732 18.8446H56.3191C57.3124 18.8446 57.6899 18.5028 57.6899 17.6947C57.6899 16.8559 57.3124 16.5133 56.3191 16.5133H53.7732V18.8446ZM65.6197 20.2902C63.6904 19.9631 62.8935 18.7202 62.8935 17.1662C62.8935 14.2911 65.4254 13.5145 68.6689 13.5145C73.1162 13.5145 74.9491 14.8042 75.0889 17.1509H70.5011C70.5011 16.7 70.2635 16.4197 69.9007 16.2645C69.5504 16.0939 69.1031 16.0317 68.6689 16.0317C67.4946 16.0317 67.0891 16.3582 67.0891 16.8244C67.0891 17.1348 67.2142 17.3375 67.6064 17.3997L72.3193 18.1764C74.306 18.5028 75.537 19.5283 75.537 21.408C75.537 24.1133 73.5503 25.3876 69.1163 25.3876C66.0818 25.3876 62.767 24.9214 62.753 21.6576H67.5085C67.5218 22.0301 67.6483 22.279 67.928 22.4496C68.2209 22.6055 68.655 22.683 69.2701 22.683C70.5011 22.683 70.8374 22.3098 70.8374 21.7813C70.8374 21.4555 70.6549 21.1291 70.1243 21.0361L65.6197 20.2902ZM76.8232 13.9031H80.7672V24.999H76.8232V13.9031ZM95.384 20.6782C95.1324 22.1392 94.6836 23.3206 93.7049 24.128C92.7403 24.9367 91.229 25.3876 88.8243 25.3876C86.4322 25.3876 81.9989 25.2003 81.9989 19.4514C81.9989 13.7011 86.4322 13.5145 88.8243 13.5145C91.201 13.5145 94.8661 13.8563 95.384 18.2546H90.9361C90.8242 17.4612 90.3482 16.3113 88.8243 16.3113C87.2151 16.3113 86.1938 17.197 86.1938 19.4507C86.1938 21.7044 87.1871 22.5894 88.6278 22.5894C89.8728 22.5894 90.6145 22.0148 90.9361 20.6782H95.384ZM103.174 13.5145C105.566 13.5145 110 13.7011 110 19.4514C110 25.2003 105.566 25.3876 103.174 25.3876C100.782 25.3876 96.348 25.2003 96.348 19.4514C96.348 13.7011 100.782 13.5145 103.174 13.5145ZM100.544 19.4514C100.544 21.7044 101.566 22.5901 103.175 22.5901C104.783 22.5901 105.804 21.7051 105.804 19.4514C105.804 17.1977 104.783 16.312 103.175 16.312C101.566 16.312 100.544 17.197 100.544 19.4514ZM18.3299 14.0129C18.585 8.68972 13.991 2.69478 7.7283 1.9538L7.73948 1.8811C13.9134 1.8811 18.6459 7.59294 18.6459 12.0989C18.6403 13.037 18.5662 13.6186 18.434 14.0402L18.3299 14.0129ZM18.0391 14.7462C16.8759 16.7643 13.9847 19.4199 9.70867 19.4199C7.81777 19.4199 6.57838 18.8999 6.21278 18.7656L6.23865 18.686C6.53854 18.7482 6.84122 18.7978 7.1453 18.8362C7.44938 18.8747 7.75486 18.9006 8.06104 18.9152C8.36722 18.9292 8.67409 18.932 8.98027 18.9222C9.28715 18.9124 9.59263 18.8915 9.89741 18.8579C6.48261 17.6031 3.91016 13.6193 3.91016 8.40661C3.91016 5.15679 5.2558 3.29595 5.47111 2.9709L5.5466 3.00096C5.36905 3.38194 4.45051 5.24417 4.45051 8.25422C4.45051 12.8658 6.97753 17.3669 10.5272 18.7726C10.7523 18.7356 10.9767 18.6922 11.1997 18.644C11.422 18.5951 11.6436 18.5399 11.8638 18.479C12.0833 18.4189 12.3021 18.3518 12.5181 18.2798C12.7348 18.2071 12.9487 18.1288 13.1612 18.0449C9.45771 14.5043 6.4211 7.24761 6.39943 2.973L6.49589 2.94434C7.44449 7.34757 10.3881 14.2876 13.5457 17.8856C13.7708 17.7884 13.9931 17.6856 14.2126 17.5759C14.4321 17.4661 14.6488 17.3501 14.8613 17.2285C15.0745 17.1068 15.2835 16.9789 15.489 16.8454C15.6952 16.7119 15.8965 16.5721 16.0944 16.4267C14.5425 10.6701 10.5517 5.34064 7.20612 2.59622L7.27672 2.54659C10.6041 4.17954 15.3101 9.77603 16.4236 16.1757C17.0283 15.6962 17.5456 15.1915 17.9559 14.6896L18.0391 14.7462Z" fill="white"/>
<path fill-rule="evenodd" clip-rule="evenodd" d="M9.28059 0C10.5927 0 11.5748 0.541754 11.5748 1.56305C11.5748 3.50427 8.19638 6.00123 4.56069 6.00123C2.99415 6.00123 2.23779 5.3022 2.23779 4.47593C2.23779 2.33828 6.03846 0 9.28059 0ZM10.5745 1.50293C10.5745 1.12056 10.2662 0.303382 8.65915 0.303382C6.19364 0.303382 3.01372 2.26907 3.01372 3.92929C3.01372 4.68285 3.64076 5.13932 4.80256 5.13932C7.43024 5.13932 10.5745 3.13938 10.5745 1.50293Z" fill="white"/>
<path fill-rule="evenodd" clip-rule="evenodd" d="M0.946007 5.46504C0.855132 5.62303 0.490234 6.33674 0.490234 7.06863C0.490234 8.42547 1.86175 9.68513 4.38527 9.68513C9.24008 9.68513 14.8485 6.11445 14.8485 2.79962C14.8485 1.31137 13.4392 0.50258 12.4605 0.33551L12.4424 0.39353C12.7465 0.489997 13.8614 1.00798 13.8614 2.33336C13.8614 4.97432 8.90944 8.57296 3.97703 8.57296C2.08823 8.57296 0.899171 7.64115 0.899171 6.28432C0.899171 5.85511 0.987949 5.5727 1.01172 5.49021L0.946007 5.46504Z" fill="white"/>
<path fill-rule="evenodd" clip-rule="evenodd" d="M16.8497 3.04712C16.9833 3.14848 17.783 3.81466 17.783 5.07363C17.783 9.36781 11.0505 13.59 5.09823 13.59C1.54922 13.59 -0.0690473 11.8389 0.0022545 10.2836H0.0658669C0.204975 11.0916 1.35769 12.5365 4.46421 12.5365C10.4235 12.5365 17.0776 8.16757 17.0776 4.33964C17.0776 3.68254 16.8987 3.27361 16.798 3.09186L16.8497 3.04712Z" fill="white"/>
<path fill-rule="evenodd" clip-rule="evenodd" d="M19.0996 7.05609C19.1276 7.14767 19.273 7.5587 19.273 8.20251C19.273 12.979 12.4595 17.0684 6.53372 17.0684C3.48452 17.0684 1.89141 15.5878 1.55518 14.9867L1.6097 14.9468C2.45344 15.6843 4.11575 16.2449 6.05558 16.2449C11.2886 16.2449 19.0975 12.266 19.0283 7.07357L19.0996 7.05609Z" fill="white"/>
</svg>
