<svg width="89" height="33" viewBox="0 0 89 33" fill="none" xmlns="http://www.w3.org/2000/svg">
<path d="M57.5829 2.06656e-05C56.5604 0.00227226 55.5377 0.00910693 54.5174 0.00233522C54.5129 0.377036 54.5105 0.751845 54.5128 1.12655C53.3774 1.13107 52.2445 1.11968 51.1091 1.13547C51.2649 0.781086 51.4184 0.424447 51.5674 0.067804C50.6013 0.0520089 49.635 0.0519356 48.6689 0.0654791C48.1971 1.61395 46.9105 2.69753 45.5043 3.3905C45.4997 4.02478 45.4976 4.66148 45.4953 5.29802C45.8587 5.21224 46.2244 5.13069 46.5901 5.05168C46.5833 6.72881 46.5947 8.40375 46.5789 10.0809C49.2244 10.0831 51.872 10.0809 54.5175 10.0832C54.5107 10.5798 54.5084 11.0809 54.5016 11.5797C51.5604 11.5752 48.6171 11.5662 45.6759 11.5797C45.6781 12.047 45.6759 12.5142 45.6759 12.9837C46.7842 12.9859 47.8949 12.9793 49.0032 12.9883C48.1274 14.4916 47.231 15.9814 46.3101 17.4577C47.4771 17.4487 48.6463 17.4464 49.8133 17.4577C50.6846 15.9995 51.4973 14.5074 52.2535 12.9883C53.0052 12.9815 53.7592 12.9815 54.5109 12.986C54.5086 14.5231 54.5086 16.0604 54.5109 17.5975C55.5356 17.6066 56.5625 17.5952 57.5895 17.5929C57.5805 16.0557 57.5896 14.5188 57.5806 12.9794C58.3368 12.9839 59.095 12.9839 59.8512 12.9929C60.5487 14.5075 61.3005 15.9972 62.0861 17.4689C63.2756 17.4734 64.4629 17.4713 65.6548 17.4736C64.8173 15.9725 63.9256 14.5006 63.1107 12.986C64.122 12.9814 65.1356 12.9859 66.1491 12.9813C66.1468 12.5141 66.1445 12.0493 66.1445 11.582C63.2936 11.5685 60.4428 11.5729 57.5919 11.5774C57.5851 11.0785 57.5805 10.5798 57.576 10.0855C60.2779 10.0765 62.98 10.0854 65.6842 10.0809C65.6932 9.6723 65.7021 9.26382 65.7156 8.85977C63.0047 8.76271 60.2938 8.82581 57.5806 8.80323V7.50774C60.2871 7.50322 62.9933 7.50322 65.6997 7.50774C65.6975 7.06081 65.6954 6.61395 65.6954 6.16927C62.9913 6.1625 60.2892 6.16915 57.5872 6.16464C57.5827 5.7448 57.5806 5.32279 57.5806 4.9052C60.2825 4.90745 62.9866 4.91185 65.6885 4.90058C65.6975 4.48976 65.7023 4.07879 65.7113 3.67023C63.0049 3.65668 60.3007 3.66812 57.5965 3.6636C57.5897 3.2415 57.5828 2.81932 57.5783 2.39721C60.287 2.40173 62.9957 2.40399 65.7044 2.39721C65.6998 1.97285 65.6977 1.55067 65.6954 1.13082C62.9935 1.12405 60.2892 1.14227 57.5872 1.12421C57.5827 0.747251 57.5829 0.374723 57.5829 2.06656e-05ZM29.0964 0.0449891C28.6111 0.0436348 28.1258 0.0463413 27.6405 0.0542473C27.6473 0.442492 27.6518 0.832924 27.6541 1.22343C25.9093 1.22117 24.1644 1.21446 22.4196 1.22575C22.4263 1.79683 22.4286 2.3681 22.4331 2.93918C24.1735 2.9437 25.9161 2.8873 27.6564 2.97985C27.6519 3.3839 27.6474 3.7877 27.6429 4.194C28.6067 4.20529 29.5706 4.20089 30.5367 4.19864C30.539 3.77202 30.5432 3.34999 30.5522 2.92563C32.0759 2.94143 33.6019 2.92338 35.1278 2.93919C35.1255 3.35452 35.1231 3.76975 35.1231 4.18508C36.0599 4.19637 36.9969 4.20321 37.9337 4.20094C37.9359 3.77658 37.9405 3.3544 37.9472 2.93455C39.6514 2.93003 41.3555 2.93444 43.0574 2.92993C43.0574 2.36111 43.0576 1.79227 43.0644 1.22345C41.3511 1.2212 39.6377 1.21893 37.9267 1.22345C37.9313 0.830688 37.9358 0.438154 37.9426 0.047655C36.9991 0.0454034 36.0578 0.0429132 35.1165 0.0519534C35.121 0.440198 35.1256 0.828591 35.1324 1.21683C33.5975 1.22586 32.0647 1.21673 30.5297 1.22575C30.5365 0.837507 30.5432 0.449447 30.5522 0.0612013C30.0669 0.052178 29.5817 0.0463942 29.0964 0.0449891ZM78.2975 0.0711105C75.0561 0.071449 71.8148 0.0745259 68.5734 0.0790461C68.5824 5.91627 68.5847 11.7557 68.5734 17.5929C73.9276 17.6087 79.2839 17.5887 84.638 17.6045C85.5003 17.5977 86.4437 17.5639 87.1592 17.0176C87.6062 16.6971 87.8229 16.1709 88.0216 15.6788V0.081371C84.7802 0.073465 81.5389 0.0708227 78.2975 0.0711105ZM0.440918 0.0724641V17.5976C5.85603 17.5998 11.271 17.5977 16.6861 17.5999C17.5935 17.5977 18.6071 17.512 19.2956 16.8483C19.8667 16.3021 19.9977 15.4735 19.9886 14.7173C19.9796 9.83715 19.984 4.95494 19.984 0.0747889C13.4696 0.0702688 6.95531 0.0747258 0.440918 0.0724641ZM3.4948 1.78325C8.00025 1.80131 12.508 1.78573 17.0134 1.79251C16.9999 5.56435 17.0088 9.33849 17.0088 13.1103C16.9998 14.0448 17.1082 15.0039 16.7764 15.9C16.3023 16.0016 15.8263 16.117 15.3387 16.1192C11.3885 16.117 7.4404 16.11 3.49249 16.1212C3.49926 11.3427 3.49255 6.56182 3.4948 1.78325ZM71.5754 1.78325C76.0673 1.79679 80.5615 1.79454 85.0556 1.78325C85.0602 2.84641 85.0556 3.90982 85.0556 4.97072C84.1527 4.97297 83.2522 4.96598 82.3516 4.96146C82.3561 4.34072 82.3583 3.72229 82.3628 3.10155C81.4328 3.10155 80.5028 3.1017 79.5728 3.09493C79.5728 3.72018 79.5729 4.34744 79.5774 4.97269C77.2321 4.98623 74.8868 4.92554 72.5415 5.00906C72.5438 5.51468 72.5436 6.0225 72.5481 6.53038C73.7557 6.55521 74.9658 6.54383 76.1734 6.53931C75.9138 9.1103 74.5325 11.4556 72.5461 13.0786C72.5439 13.7083 72.5436 14.3358 72.5481 14.9656C74.9272 13.8167 77.0607 11.9659 78.0696 9.47614C78.4985 8.55518 78.6225 7.53692 78.9204 6.57534C79.0829 6.5618 79.4126 6.53037 79.5751 6.51683C79.5616 8.34293 79.5907 10.1713 79.5682 11.9997C79.593 12.4014 79.4034 12.8731 78.9836 12.986C78.496 13.0921 77.995 13.0629 77.5029 13.0832C77.5029 13.7017 77.503 14.3201 77.5075 14.9408C78.6181 14.9182 79.7555 15.0356 80.8458 14.7715C81.7758 14.548 82.399 13.6113 82.3539 12.6745C82.3697 10.6362 82.3606 8.59577 82.3516 6.55749C83.2499 6.53943 84.1503 6.54163 85.051 6.54163C85.0487 9.41735 85.0804 12.2952 85.0421 15.1709C85.0646 15.8504 84.3108 16.1393 83.7419 16.11C79.6834 16.1326 75.6226 16.1079 71.5641 16.1192C71.5867 11.3407 71.5618 6.56182 71.5754 1.78325ZM50.3979 2.39958C51.768 2.40183 53.1405 2.39743 54.5151 2.40422C54.5129 2.82181 54.5129 3.23919 54.5151 3.65904C52.8087 3.66356 51.1021 3.66581 49.3957 3.65904C49.732 3.24145 50.0683 2.82394 50.3979 2.39958ZM4.39318 3.76282C4.39544 4.28424 4.39544 4.81039 4.39318 5.33407C5.74527 5.34309 7.09724 5.33407 8.45158 5.33407C8.44707 6.11282 8.44491 6.8938 8.44265 7.67706C7.21697 7.66803 5.98919 7.67237 4.76351 7.67011C4.76125 8.19379 4.76125 8.71768 4.76351 9.24136C5.99145 9.24362 7.21703 9.24809 8.44497 9.23905C8.44723 10.397 8.45383 11.5549 8.43802 12.7129C6.99791 12.7016 5.55787 12.7105 4.11775 12.7105C4.12226 13.232 4.12238 13.7535 4.12238 14.2772C8.08157 14.2907 12.0431 14.2793 16.0023 14.2838C16.0226 13.7601 16.0339 13.239 16.0407 12.7198C14.4719 12.6972 12.903 12.7128 11.3365 12.7105C11.3365 11.5548 11.3342 10.3971 11.3365 9.24136C12.657 9.23911 13.9799 9.25242 15.3003 9.23211C15.2936 8.71294 15.2867 8.19159 15.2845 7.67243C13.9685 7.67018 12.6525 7.6701 11.3365 7.6701C11.3365 6.89361 11.3365 6.11711 11.3253 5.33836C12.797 5.33384 14.2688 5.33638 15.7427 5.33638C15.7427 4.81271 15.7425 4.28881 15.747 3.76513C11.9639 3.76061 8.17857 3.76734 4.39318 3.76282ZM26.9329 4.35898C26.4854 4.357 26.0378 4.36 25.5908 4.36561C24.9069 5.89376 23.871 7.23014 22.7062 8.41971C22.695 8.95016 22.6927 9.48266 22.6927 10.0131C23.8032 10.0086 24.9138 9.98852 26.0243 9.91855C25.1327 10.765 24.1417 11.4964 23.144 12.2119C23.1418 12.7808 23.1397 13.3516 23.1374 13.9227C25.7874 13.9205 28.4396 13.9161 31.0919 13.9161C31.0851 13.336 31.0827 12.7581 31.0872 12.1825C29.4169 12.1735 27.7465 12.1849 26.0739 12.1871C28.2928 10.7402 30.1529 8.77412 31.4576 6.46722C30.584 6.46947 29.7127 6.47178 28.8391 6.46953C28.3583 7.12413 27.9725 7.878 27.3337 8.39491C26.573 8.47391 25.8076 8.42876 25.0469 8.44682C26.3742 7.31369 27.4486 5.91414 28.2747 4.38148C27.8278 4.36793 27.3804 4.36096 26.9329 4.35898ZM33.5387 4.49422C33.2926 6.26841 32.3287 7.91856 30.8141 8.90046C30.8051 9.42866 30.8005 9.9568 30.7983 10.4873C32.4144 9.82814 34.0195 8.95675 35.0646 7.51438C36.5589 7.49858 38.0553 7.50771 39.5496 7.50546C39.5293 9.90265 39.5746 12.3022 39.5317 14.6971C39.5407 15.2027 39.0848 15.5865 38.6062 15.6249C37.6695 15.7152 36.7237 15.6451 35.7825 15.6722C35.787 16.3087 35.7868 16.9476 35.7868 17.5886C37.0283 17.6022 38.2697 17.6044 39.5112 17.5999C40.2832 17.6044 41.1206 17.4575 41.6985 16.9045C42.2334 16.4034 42.3464 15.6294 42.3396 14.9342C42.3283 11.9027 42.3464 8.87112 42.3284 5.83964C40.1682 5.8419 38.0081 5.83722 35.8479 5.84626C35.9766 5.4061 36.096 4.96613 36.2156 4.52597C35.324 4.51243 34.4303 4.50099 33.5387 4.49422ZM54.5151 4.9029C54.5129 5.32501 54.5131 5.74691 54.5108 6.17128C52.836 6.15548 51.1588 6.17363 49.4816 6.16236C49.4749 5.74477 49.4679 5.32949 49.4611 4.91415C51.145 4.89836 52.829 4.91419 54.5151 4.9029ZM49.4658 7.50776C51.1497 7.50099 52.8335 7.50324 54.5174 7.50776C54.5152 7.94115 54.5152 8.37449 54.5174 8.80788C52.8381 8.81013 51.1587 8.80336 49.4793 8.80788C49.4725 8.37449 49.468 7.94115 49.4658 7.50776ZM13.4887 9.80545C13.1354 9.80511 12.7822 9.80681 12.429 9.8124C12.6366 10.6182 12.8332 11.4264 13.0205 12.239H15.2167C14.9955 11.4287 14.7742 10.6182 14.5484 9.81008C14.1952 9.80783 13.842 9.80572 13.4887 9.80545ZM35.017 10.2548C34.5836 10.6453 34.1436 11.0334 33.708 11.4217C34.6041 12.1936 35.5049 12.9658 36.3829 13.7604C36.8344 13.3721 37.2833 12.9816 37.728 12.5866C36.8161 11.8168 35.9402 11.0087 35.017 10.2548ZM24.8862 15.655C24.1935 15.6557 23.5007 15.6576 22.8078 15.6609C22.81 16.302 22.8101 16.9453 22.8101 17.5886C25.5797 17.5999 28.3493 17.5952 31.119 17.5929C31.1167 16.9474 31.1168 16.3019 31.1213 15.6586C29.0424 15.6603 26.9645 15.653 24.8862 15.655Z" fill="#3668CE"/>
<path d="M38.2977 23.329C37.2512 23.3237 36.41 23.3647 36.41 23.3647V32.037H38.7801L38.7573 28.3351C39.825 28.2741 40.9402 28.4211 41.9537 27.9922C42.8814 27.6581 43.7301 26.7686 43.6172 25.719C43.5788 24.5542 42.4615 23.7936 41.4164 23.5724C40.5959 23.3862 39.3442 23.3344 38.2977 23.329ZM69.0369 23.336C67.9904 23.3306 67.1489 23.3717 67.1489 23.3717V32.044H69.519L69.4965 28.3424C69.674 28.3322 69.8531 28.3284 70.0325 28.3262L73.09 32.0532L75.6453 32.0351L72.4175 28.0997C72.5099 28.0699 72.602 28.0376 72.6929 27.9991C73.6207 27.6651 74.4693 26.7759 74.3564 25.7262C74.3181 24.5615 73.2007 23.8005 72.1556 23.5793C71.3351 23.3931 70.0834 23.3413 69.0369 23.336ZM13.7876 23.3571V32.0271H15.2821V26.123L20.7332 32.0159H22.2479V23.3614H20.7332V28.873L15.2821 23.3571H13.7876ZM61.3863 23.3694L60.1672 23.3806L55.6304 32.044L57.2578 32.0417L58.4654 29.7347L62.1267 29.7258L63.283 32.042L65.7608 32.037L61.3863 23.3694ZM45.5608 23.3717V32.044H47.9309V28.0474H51.7793V32.0529H54.1315V23.3919H51.7793V27.2135H47.9309V23.3717H45.5608ZM4.27677 23.372C3.16761 23.3673 1.96275 23.6091 1.19247 24.4619C0.508523 25.1819 0.574085 26.4505 1.35283 27.0803C2.43631 27.9674 3.85834 28.2856 4.99825 29.0824C5.5603 29.4548 5.9215 30.3373 5.37751 30.8745C4.2534 31.7413 2.38876 31.1703 2.05017 29.746L0.431641 29.7642C0.707024 30.3669 0.959971 31.0349 1.53105 31.4254C2.6371 32.2605 4.11095 32.0755 5.4066 31.9898C6.78352 31.8837 8.23946 30.4435 7.56906 29.0192C6.51041 27.3782 4.27354 27.2948 2.93499 25.9878C2.56932 25.6741 2.52434 25.0826 2.82456 24.7102C3.24215 24.0939 4.09963 24.1346 4.75423 24.2023C5.55104 24.2926 6.01609 25.0035 6.34565 25.6558L7.74529 25.6515C7.31642 24.2656 5.91002 23.3918 4.49698 23.376C4.42405 23.3736 4.35072 23.3723 4.27677 23.372ZM29.4095 23.3744C28.7974 23.365 28.1879 23.4364 27.6157 23.5837C26.2253 23.9042 24.907 24.8095 24.3449 26.1548C23.81 27.3669 23.9793 28.8275 24.6858 29.9358C25.4375 31.0667 26.7196 31.7888 28.0469 31.9987C29.6337 32.1409 31.3716 32.1388 32.7124 31.1456C34.4346 30.0418 35.0939 27.5566 34.0465 25.7802C33.1053 24.1583 31.2459 23.4024 29.4095 23.3744ZM88.0192 23.3761L85.7982 23.3784L82.5658 29.3509L79.2342 23.383L76.916 23.3784L76.9183 32.0484L78.4214 32.0417L78.4238 26.4032L81.5749 32.0348L82.6472 32.0371L85.6561 26.4574L85.701 32.0464L88.0149 32.053L88.0192 23.3761ZM9.43359 23.3896V32.0417H11.8106V23.3896H9.43359ZM29.2723 24.0803C30.0131 24.08 30.753 24.3817 31.2294 24.9652C31.9201 25.8003 32.0558 26.9449 32.0196 27.9923C32.0016 28.99 31.7171 30.0464 30.988 30.7664C29.9948 31.7461 28.1392 31.6242 27.3221 30.4797C26.5795 29.4843 26.46 28.1682 26.5728 26.9696C26.6835 25.8816 27.2025 24.6922 28.2859 24.2701C28.5984 24.1432 28.9355 24.0805 29.2723 24.0803ZM38.7801 24.209C39.3444 24.2541 39.9877 24.146 40.4707 24.5184C41.4684 25.1663 41.324 26.8929 40.2518 27.3918C39.7801 27.5543 39.2677 27.4821 38.7801 27.5115V24.209ZM69.519 24.2162C70.0833 24.2614 70.7269 24.153 71.21 24.5254C72.2077 25.1732 72.0629 26.8999 70.9907 27.3988C70.519 27.5613 70.0066 27.4891 69.519 27.5184V24.2162ZM60.3524 26.1142L61.7947 28.9313L58.8989 28.9267L60.3524 26.1142Z" fill="white"/>
</svg>
