<svg width="112" height="29" viewBox="0 0 112 29" fill="none" xmlns="http://www.w3.org/2000/svg">
<path d="M28.2603 13.7948C28.2603 17.396 26.8515 20.6671 24.5575 23.0891L23.9598 22.5895C26.1427 20.3034 27.4828 17.2071 27.4828 13.7948C27.4828 6.76713 21.7945 1.07051 14.775 1.07051C7.75733 1.07051 2.0691 6.76713 2.0691 13.7948C2.0691 14.9775 2.22955 16.1214 2.53107 17.2089L1.90864 17.8461C1.50838 16.5663 1.2915 15.207 1.2915 13.7948C1.2915 6.33816 7.32886 0.292015 14.775 0.292015C22.223 0.292015 28.2603 6.33816 28.2603 13.7948ZM6.63766 23.5639V24.5578C5.22531 23.4845 4.03335 22.1376 3.13762 20.5965L3.54141 19.7191C4.31371 21.1949 5.36989 22.5012 6.63766 23.5639Z" fill="#ED1C24"/>
<path fill-rule="evenodd" clip-rule="evenodd" d="M21.0682 23.5499L22.4788 22.1889L23.7907 23.5499H22.0415V24.9621H23.8876V25.9842H22.0415V27.4424H23.7907L22.4788 28.7081L21.0682 27.2482V23.5499ZM17.279 23.5499L18.7372 22.1871L20.0967 23.5499V27.2482L19.1745 28.2703L18.1536 27.2005H19.2221V23.647H18.1042V28.7081H17.279V23.5499ZM13.391 23.5976L14.7999 22.1871L16.2087 23.5499V27.3453L14.7523 28.7081L13.391 27.3453V23.5976ZM4.44609 23.8023C4.99093 24.166 7.66049 26.1537 4.98564 28.6569H0.708008L2.45891 27.1493C2.45891 27.1493 3.3088 27.4406 4.08639 26.6392C4.08639 26.6392 4.64534 25.5676 3.91535 25.008C3.91535 25.008 3.33172 24.3266 2.21558 23.7423C2.21558 23.7423 0.611029 23.0132 1.29164 20.7254C1.29164 20.7254 1.7783 17.2231 6.15115 15.3254L6.40858 15.2318C6.53906 15.2283 3.18713 17.4667 2.45891 20.5807C2.45891 20.5807 2.23851 21.2868 2.45891 22.2595C2.45891 22.2595 2.45891 22.9162 3.3088 23.354C3.3088 23.354 4.0617 23.6699 4.30503 23.7194L4.44609 23.8023ZM7.55998 3.11128L8.53329 2.23569L8.53329 28.7063H7.55998L7.55998 3.11128ZM10.1361 1.65138L11.4462 13.463C11.425 13.0517 11.4479 1.11649 11.4479 1.11649H12.3719L12.3719 28.7046L11.4479 28.7046L10.2842 17.3678L10.2842 17.8056L10.2824 28.7046H9.26151L9.26151 2.18273L10.1361 1.65138ZM11.4479 13.4753L11.4462 13.4648C11.4474 13.4718 11.4479 13.4753 11.4479 13.4753ZM14.218 27.2464H15.3359V23.6947H14.218V27.2464ZM24.9086 23.4987L26.2204 22.1853L27.6769 23.6947V24.9109H26.8517V23.5976H25.6861V27.197H26.8023V26.0778H27.6769V27.2941L26.268 28.7063L24.9086 27.3435V23.4987Z" fill="white"/>
<path fill-rule="evenodd" clip-rule="evenodd" d="M14.3149 12.9916L14.2656 12.5043V12.1636L14.2409 11.9218L14.3626 11.7753L14.5583 11.7276V12.9916C14.5583 12.9916 14.9215 12.8945 15.2371 12.9192L15.5545 13.0163L15.6268 13.1628L15.5774 13.3076L15.4328 13.4046L15.2142 13.5017C15.2142 13.5017 14.7029 13.673 15.0185 14.2079L14.9215 14.3297L14.7522 14.3544L14.5336 14.3297C14.5336 14.3297 14.3872 14.305 14.3872 14.5238V16.3739L14.3626 16.5928V16.8117L14.2656 16.9335L14.1933 16.8117L14.1439 16.6404V14.8893C14.1439 14.8893 14.2409 14.5009 13.95 14.5486C13.95 14.5486 13.8283 14.402 13.9993 14.3297C13.9993 14.3297 14.218 14.2079 14.2903 14.0384C14.2903 14.0384 14.3149 13.989 14.2903 13.7701C14.2903 13.7701 14.3379 13.4046 13.9253 13.673C13.9253 13.673 13.4404 13.9642 13.3434 14.4762C13.3434 14.4762 13.1248 14.598 13.1477 14.0137C13.1477 14.0137 13.2217 13.6235 13.3663 13.3817C13.3663 13.3817 13.6343 13.0887 13.6097 13.4541C13.6097 13.4541 13.6343 13.673 13.853 13.4788C13.853 13.4788 14.121 13.2105 14.2656 13.1381L14.3149 12.9916ZM14.4613 13.7454L14.6076 13.6977C14.8263 13.5512 14.6799 13.4046 14.6799 13.4046C14.4119 13.4046 14.4119 13.6006 14.4119 13.6006L14.4613 13.7454ZM16.3815 12.9174C16.3815 12.9174 17.0127 12.6014 17.2807 12.4796C17.2807 12.4796 17.5963 12.4073 17.912 12.5043C17.912 12.5043 18.2276 12.5273 18.277 13.0392C18.277 13.0392 18.3739 14.0119 18.3969 14.3279C18.3969 14.3279 18.4462 14.5238 18.3493 14.7657C18.3493 14.7657 18.3246 15.0834 18.2276 15.2529L18.0812 15.5689C18.0812 15.5689 17.9843 15.8619 17.7656 15.7401C17.7656 15.7401 17.5717 15.5936 17.815 15.3253C17.815 15.3253 18.0812 15.1558 18.0566 14.8398C18.0566 14.8398 18.0336 13.9148 17.9843 13.8177L17.8626 13.1363C17.8626 13.1363 17.8873 12.6244 17.3283 12.748L16.8911 12.9174L16.6724 13.0145L16.5261 13.0887L16.3815 13.0639V12.9174ZM16.0412 13.5988L16.0659 13.7189L16.0165 13.8654V14.9122L15.9918 15.1311L15.8701 15.2529L15.7255 15.35L15.6286 15.2035V15.0093L15.6515 14.8134C15.8948 14.741 15.8225 14.425 15.8225 14.425V13.8901L15.9195 13.5988H16.0412ZM16.5031 13.5741L16.8664 13.5494C16.8664 13.5494 16.9157 13.3058 16.8188 13.1593C16.8188 13.1593 17.1344 13.2581 17.2067 13.5247V13.8654C17.2067 13.8654 17.1097 14.109 17.4253 13.9872C17.4253 13.9872 17.815 13.5741 17.5964 14.0119C17.5964 14.0119 17.4253 14.1567 17.3054 14.3032C17.3054 14.3032 17.2314 14.4974 17.4253 14.6439L17.4747 14.9369L17.5717 15.057L17.547 15.1788L17.4253 15.2282L17.45 15.35L17.644 15.4224L17.4253 15.4718L17.353 15.5689L17.0127 15.5936L16.7694 15.5195L16.5507 15.4948L16.3568 15.4718L16.4062 15.3747C16.4062 15.3747 17.0127 15.057 17.1097 14.741C17.1097 14.741 17.2067 14.3032 16.9651 14.0843C16.9651 14.0843 16.7694 14.3526 16.6001 14.5468C16.6001 14.5468 16.8434 14.5962 16.9651 14.5715C16.9651 14.5715 16.7465 14.7904 16.4291 14.9599C16.4291 14.9599 16.1135 15.057 16.2351 14.7904C16.2351 14.7904 16.5031 14.5962 16.5278 14.3526L16.4538 14.2555L16.4291 14.0366L16.5507 13.9872L16.5278 13.8654L16.3321 13.8901V13.793L16.3815 13.6465L16.5031 13.5741ZM17.2314 13.0392L17.3283 13.0145L17.45 13.0869L17.547 13.1858L17.5717 13.3305L17.4024 13.3552L17.2807 13.2087L17.2314 13.0392ZM19.6858 12.9421C19.6858 12.9421 20.0984 12.7232 21.1193 12.6014L21.2886 12.5767L21.1193 12.7727L20.973 12.9421L20.8037 13.0639L20.5357 13.1381L20.2447 13.1858L19.952 13.0887L19.7828 12.9669L19.6858 12.9421ZM20.1231 13.5017L20.0261 13.5741L20.0014 13.6959L19.952 13.8672L19.8551 14.0137C19.7105 14.3526 20.0014 14.402 20.0014 14.402L20.1707 14.3773L20.414 14.402C20.7296 14.4744 21.0223 14.1831 21.0223 14.1831L21.2163 14.0861C21.6289 13.9148 21.4596 14.2555 21.4596 14.2555L21.3133 14.402L21.1669 14.5962C20.9977 14.9616 21.2639 14.9864 21.2639 14.9864L21.4596 15.034L21.2639 15.1311L20.9483 15.2282C20.4634 15.4241 20.6327 15.1082 20.6327 15.1082L20.8037 14.9122C20.9483 14.5486 20.5357 14.6457 20.5357 14.6457L20.2694 14.5962C20.0014 14.5486 19.9767 14.9122 19.9767 14.9122L20.0737 14.9864V15.1311C20.0508 15.4241 19.6858 15.3518 19.6858 15.3518L19.5641 15.2529L19.4425 15.1311L19.3702 15.2282L19.3208 15.3271L19.2485 15.4489L19.1762 15.5936L19.0775 15.7401L18.9805 15.9343L18.8588 16.1532L18.7619 16.3492L18.6402 16.4939L18.5185 16.7128L18.3986 16.8841L18.2999 17.0288L18.1553 17.2248L17.9596 17.4189L17.6686 17.6378L17.7656 17.4437L17.8873 17.2724L18.0336 17.0782L18.18 16.907L18.3246 16.7128L18.4462 16.5433L18.5679 16.3245L18.7142 16.1285L18.8835 15.8619L19.0052 15.643L19.1022 15.4718L19.2238 15.2053L19.3208 14.9864L19.4425 14.6933L19.5394 14.3773L19.6364 14.0861L19.6611 13.7701L19.7334 13.6235L19.8798 13.5017L20.0737 13.3799L20.1231 13.5017ZM23.2828 12.7727L23.4045 12.748L23.4521 12.845L23.3304 12.9174L23.1612 13.0145L23.0395 13.1381L22.9425 13.3076L22.8685 13.477C22.6745 13.673 22.8685 13.7454 22.8685 13.7454C23.0395 13.8177 23.0148 14.0613 23.0148 14.0613L23.0395 14.2326V14.6209C22.9672 15.0834 22.6022 15.1329 22.6022 15.1329H22.3113L22.4312 15.0111L22.6022 14.8398C22.8208 14.6933 22.7468 14.4762 22.7468 14.4762V14.0137C22.7239 13.7948 22.5528 13.9642 22.5528 13.9642C22.4805 14.1831 22.2125 14.2326 22.2125 14.2326L22.0433 14.2555L21.874 14.2326L21.8969 14.1108L21.9939 14.0366H22.1402L22.2372 13.9395L22.3342 13.8177L22.4805 13.6959L22.5775 13.5512L22.6992 13.4294L22.7962 13.3076L22.9425 13.0145L23.0395 12.8945L23.1612 12.7974L23.2828 12.7727ZM24.011 13.1858L24.108 13.0887L24.2297 12.9898L24.2544 13.161C24.3513 13.3305 24.6176 13.1363 24.6176 13.1363L24.7886 12.9898L24.8856 12.8698L25.0073 12.8203L25.1765 12.7956L25.2735 12.9174L25.1536 13.0392L24.9826 13.161L24.7886 13.3076L24.4959 13.5265L24.2297 13.7454L24.0833 13.8901V14.3526C24.1327 14.7904 24.667 14.9369 24.667 14.9369L24.8609 14.9864H25.1042L25.3229 14.9616L25.5168 14.8893L25.6632 14.8151L25.8572 14.6686L26.0511 14.5486L26.1975 14.402L26.2944 14.2555L26.3438 14.1337V13.9395L26.3191 13.7454L26.3438 13.477V13.0392L26.3914 12.845L26.4408 12.6985L26.5131 12.8203L26.5625 13.1134L26.5378 13.5265L26.6347 13.7454C26.8287 14.0613 26.5131 14.2802 26.5131 14.2802L26.3438 14.4991L26.0282 14.7427C25.5662 15.1558 25.1289 15.1805 25.1289 15.1805H24.8856L24.399 15.2053C23.7924 15.2282 23.7924 14.6457 23.7924 14.6457V14.3279L23.7677 14.0119L23.6707 13.9872H23.5015V13.8672L23.6214 13.8424C24.108 13.7454 23.9864 13.3799 23.9864 13.3799L24.011 13.1858Z" fill="white"/>
<path fill-rule="evenodd" clip-rule="evenodd" d="M40.1828 11.561C40.2398 11.648 40.2839 11.7424 40.3032 11.984L43.6068 11.984C43.6028 11.1791 43.4986 10.7887 43.1022 10.188C42.7098 9.58339 42.1512 9.11489 41.4264 8.78253C40.7016 8.45018 39.8427 8.284 38.8496 8.284C37.8766 8.284 37.0137 8.44817 36.2609 8.77653C35.5121 9.10488 34.9254 9.56337 34.501 10.152C34.0805 10.7366 33.8723 11.4194 33.8763 12.2002C33.8723 13.1612 34.1826 13.9201 34.8073 14.4767C35.436 15.0292 36.2949 15.4237 37.3841 15.6599L38.6094 15.9242C38.6445 15.9319 38.679 15.9396 38.713 15.9474L38.7175 15.9483C39.4909 15.9483 40.2328 16.2996 40.409 16.8589C40.4405 16.9417 40.4574 17.0305 40.4594 17.1255C40.458 17.1944 40.4495 17.2607 40.4339 17.3243C40.3967 18.0288 39.6425 18.5912 38.7175 18.5912C37.7688 18.5912 36.6032 17.7983 36.6032 16.4769C36.6032 16.4605 36.6036 16.4445 36.6044 16.4288H33.564C33.568 17.4579 33.7882 18.3028 34.2247 18.9635C34.6651 19.6202 35.2818 20.1067 36.0747 20.423C36.8715 20.7394 37.8045 20.8976 38.8737 20.8976C39.9148 20.8976 40.8057 20.7514 41.5465 20.4591C42.2913 20.1668 42.864 19.7403 43.2644 19.1797C43.6648 18.6191 43.867 17.9344 43.871 17.1255C43.87 17.0025 43.8751 16.8785 43.8802 16.7545C43.8945 16.4062 43.9088 16.0579 43.787 15.732C43.5571 15.1169 43.4351 14.9917 43.1282 14.6769L43.1263 14.6749C42.7565 14.2955 42.7316 14.2789 42.0865 13.8495L41.937 13.7499C41.2763 13.4856 40.8798 13.3534 40.087 13.0892L40.087 13.0892L40.087 13.0892L39.4732 12.8921C39.1668 12.8608 38.823 12.748 38.5274 12.651C38.3457 12.5914 38.1822 12.5377 38.0568 12.5126C37.2639 12.2484 36.9997 11.9841 36.9997 11.5877C36.9997 10.9269 37.5913 10.5305 38.3211 10.5305C38.9307 10.5305 39.8513 10.9016 40.1828 11.561ZM48.9405 20.7534L48.9884 8.59633H45.2405V20.7534L48.9405 20.7534ZM62.419 8.59633V20.7534L58.719 20.7534L54.7548 14.2905L54.4905 14.2905L54.4905 20.7534L51.0785 20.7534L51.0548 8.59633H54.4902L58.4547 14.8911L58.719 14.8911V8.59633L62.419 8.59633ZM74.9271 18.0685C75.4596 17.1275 75.7259 15.9723 75.7259 14.6028C75.7259 13.2333 75.4596 12.0801 74.9271 11.1431C74.3945 10.2021 73.6757 9.49129 72.7707 9.01078C71.8658 8.52626 70.8567 8.284 69.7435 8.284C68.6223 8.284 67.6092 8.52626 66.7042 9.01078C65.8033 9.49129 65.0865 10.2021 64.5539 11.1431C64.0253 12.0801 63.7611 13.2333 63.7611 14.6028C63.7611 15.9643 64.0253 17.1155 64.5539 18.0565C65.0865 18.9935 65.8033 19.7063 66.7042 20.1948C67.6092 20.6793 68.6223 20.9216 69.7435 20.9216C70.8567 20.9216 71.8658 20.6813 72.7707 20.2008C73.6757 19.7163 74.3945 19.0055 74.9271 18.0685ZM77.351 8.45218H83.0882C84.0012 8.45218 84.8 8.63237 85.4848 8.99276C86.1695 9.35315 86.7021 9.85969 87.0825 10.5124C87.4629 11.1651 87.6531 11.9279 87.6531 12.8009C87.6531 13.6818 87.3898 14.1623 86.9974 14.807L86.9863 14.8181C86.3367 15.4678 86.3322 15.4722 85.5438 15.8641C84.8223 16.2229 83.9051 16.2606 82.9681 16.2606H80.9189L80.9189 20.7534L77.351 20.7534V8.45218ZM80.8708 13.8339L82.7208 13.8339C83.2668 13.8339 83.7354 13.5028 83.9369 13.0304L83.9411 13.0231C83.9593 12.9925 83.9732 12.971 83.9834 12.9562C83.9782 12.9576 83.9726 12.9568 83.9674 12.9521C84.0158 12.8146 84.0422 12.6666 84.0422 12.5125C84.0422 11.7827 83.4506 11.1911 82.7208 11.1911L80.8708 11.1911L80.8708 13.8339ZM98.6259 8.45218L88.8474 8.45218V20.7534L98.6259 20.7534V18.0625L92.7254 18.0625L92.7254 15.9482H98.6259L98.6259 13.2573H92.7254V11.1431L98.6259 11.1431V8.45218ZM111.708 11.8999L108.346 13.4517C107.913 12.5819 107.015 11.9841 105.978 11.9841C104.518 11.9841 103.335 13.1674 103.335 14.627C103.335 16.0866 104.518 17.2698 105.978 17.2698C107.025 17.2698 107.931 16.6603 108.358 15.7766L111.576 17.4498C111.562 17.635 111.575 17.6801 111.587 17.6856C111.569 17.7087 111.532 17.7715 111.461 17.9244C111.209 18.4609 110.85 18.9575 110.386 19.414C109.925 19.8664 109.355 20.2308 108.674 20.5071C107.993 20.7834 107.202 20.9216 106.301 20.9216C105.172 20.9216 104.159 20.6793 103.262 20.1948C102.369 19.7103 101.393 19.0035 100.872 18.0625C100.356 17.1215 100.097 15.9703 100.097 14.6088C100.097 13.2393 100.362 12.0861 100.89 11.1491C101.419 10.2081 102.401 9.49129 103.298 9.01078C104.195 8.52626 105.196 8.284 106.301 8.284C107.078 8.284 107.793 8.39011 108.446 8.60234C109.098 8.81457 109.671 9.1249 110.164 9.53334C110.656 9.93777 111.053 10.4363 111.353 11.0289C111.415 11.152 111.456 11.231 111.485 11.2851L111.485 11.2853L111.485 11.2855C111.522 11.3566 111.537 11.385 111.548 11.4147C111.556 11.4344 111.562 11.4546 111.572 11.4883C111.591 11.5511 111.625 11.6605 111.708 11.8999ZM111.599 17.6767C111.601 17.6723 111.598 17.6709 111.587 17.6856C111.592 17.6885 111.598 17.6811 111.599 17.6767ZM69.7709 17.2698C71.2305 17.2698 72.4137 16.0866 72.4137 14.627C72.4137 13.1674 71.2305 11.9841 69.7709 11.9841C68.3113 11.9841 67.128 13.1674 67.128 14.627C67.128 16.0866 68.3113 17.2698 69.7709 17.2698Z" fill="#E60012"/>
</svg>
