<svg width="111" height="21" viewBox="0 0 111 21" fill="none" xmlns="http://www.w3.org/2000/svg">
<path fill-rule="evenodd" clip-rule="evenodd" d="M102.543 2.53444L110.825 9.1978H105.579L103.557 20.6925H99.3507L101.37 9.1978H98.969L97.1058 6.52553H101.842L102.543 2.53444ZM19.1097 3.0096H11.6263L8.51761 20.6932H4.3111L7.41975 3.0096H0L0.521571 0H19.632L19.1097 3.0096ZM28.7072 13.0954C28.5915 13.7617 28.4308 14.2958 28.2971 14.6005H17.1814C16.8454 17.1696 18.9837 18.2896 21.674 18.2896C23.6037 18.2896 25.8819 17.5727 27.6724 16.2899L27.103 19.5281C25.2702 20.5463 23.0149 21 20.6038 21C15.208 21 12.5406 17.8221 13.2942 13.4812C13.9737 9.57184 17.3961 6.20691 22.7427 6.20691C28.1462 6.20691 29.2454 9.99367 28.7072 13.0954ZM22.0556 8.6506C19.4685 8.6506 18.0472 10.6538 17.6074 12.1028H24.9232C25.1684 10.7909 24.8713 8.6506 22.0556 8.6506ZM46.194 12.2781L44.7131 20.6925H40.5059L41.9127 12.6992C42.2646 10.6676 41.6405 9.11884 39.345 9.11884C37.6737 9.11884 36.3555 10.126 35.7273 11.2197C35.5458 11.5141 35.4066 11.9477 35.3366 12.357L33.8737 20.6925H29.6679L31.3968 10.739C31.6815 9.10222 31.863 7.43499 31.9994 6.2076L35.7024 8.39571H35.8C36.7275 7.29576 38.6939 6.2076 41.3191 6.2076C44.2172 6.2076 46.9719 7.79794 46.194 12.2781ZM96.6507 12.2781L95.1719 20.6925H90.9661L92.3722 12.6992C92.724 10.6676 92.0999 9.11884 89.8017 9.11884C88.1317 9.11884 86.8136 10.126 86.1846 11.2197C86.0046 11.5141 85.8653 11.9477 85.7961 12.357L84.3325 20.6925H80.1274L81.8548 10.739C82.1395 9.10222 82.3224 7.43499 82.4581 6.2076L86.1611 8.39571H86.2588C87.1862 7.29576 89.1506 6.2076 91.7772 6.2076C94.6752 6.2076 97.4293 7.79794 96.6507 12.2781ZM79.168 13.0954C79.0503 13.7617 78.8889 14.2958 78.7573 14.6005H67.6408C67.3069 17.1696 69.4431 18.2896 72.1313 18.2896C74.0638 18.2896 76.3413 17.5727 78.1311 16.2899L77.5617 19.5281C75.7297 20.5463 73.473 21 71.0625 21C65.6674 21 63 17.8221 63.7529 13.4812C64.4324 9.57184 67.8541 6.20691 73.2008 6.20691C78.6035 6.20691 79.7034 9.99367 79.168 13.0954ZM72.513 8.6506C69.9266 8.6506 68.5052 10.6538 68.0668 12.1028H75.3813C75.6278 10.7909 75.33 8.6506 72.513 8.6506ZM58.7298 6.21522C60.8728 6.21522 62.3205 6.71047 63.2251 7.05818L62.5733 10.9094C61.4568 9.43954 59.6849 9.00247 58.3793 9.00247C55.173 9.00247 52.7133 10.998 52.2756 13.5955C51.7713 16.4998 53.9386 18.167 56.8014 18.167C58.2075 18.167 60.1885 17.8408 61.6493 16.2685L60.9698 20.0552C60.032 20.4029 57.5585 20.9986 55.486 20.9986C50.2752 20.9986 47.1963 17.8165 47.9589 13.4189C48.6966 9.17772 52.883 6.21522 58.7298 6.21522Z" fill="white"/>
</svg>
