<svg width="111" height="28" viewBox="0 0 111 28" fill="none" xmlns="http://www.w3.org/2000/svg">
<path fill-rule="evenodd" clip-rule="evenodd" d="M10.9584 0.929885C16.9846 -0.556152 23.7965 2.7358 26.3934 8.36789C28.7035 13.0866 27.7941 19.163 24.1679 22.9716C20.4779 27.0284 14.2341 28.5913 9.12185 26.4987C4.89371 24.9612 1.54964 21.1696 0.661668 16.7414C0.182826 13.8677 0.383483 10.7895 1.74639 8.16723C3.51452 4.50393 7.05925 1.9247 10.9584 0.929885ZM4.22334 7.3216C1.97246 10.4051 1.41739 14.5811 2.80114 18.1421C7.52441 14.0215 11.2613 8.57702 12.5389 2.36836C9.2756 2.88499 6.11981 4.55931 4.22334 7.3216ZM15.6093 2.37292C17.0654 8.53011 20.4271 14.2267 25.1888 18.3982C26.2227 15.486 26.3289 12.1595 24.9751 9.32883C23.3223 5.58409 19.6238 2.98793 15.6093 2.37292ZM11.7141 9.03436C12.2868 8.85911 12.8588 8.67995 13.4314 8.5047C13.4269 7.26232 13.4438 6.01929 13.4523 4.7769C12.9018 6.20756 12.3467 7.63757 11.7141 9.03436ZM14.7767 4.71306C14.7207 5.98541 14.7422 7.26232 14.7422 8.53467C15.3103 8.69689 15.8784 8.86367 16.4465 9.0298C15.8146 7.61673 15.3233 6.15219 14.7767 4.71306ZM9.97595 13.7824C9.76682 16.2163 12.2138 18.3174 14.5885 17.9115C17.3221 17.7193 18.9319 14.5642 17.9625 12.0957C16.9885 13.3596 16.681 14.9524 16.2374 16.4515C15.853 16.4639 15.0797 16.4939 14.6953 16.5108C14.4777 15.7043 14.2855 14.8971 14.0888 14.086C13.8327 14.8801 13.5976 15.6828 13.3754 16.49C13.0001 16.4854 12.2483 16.4769 11.8724 16.4724C11.3858 15.0593 10.933 13.6332 10.4333 12.224C10.8431 12.2279 11.6587 12.2364 12.0646 12.241C12.2868 13.0566 12.5174 13.8677 12.7519 14.6749C12.9487 13.8677 13.1363 13.0521 13.3331 12.241C13.7813 12.2279 14.2301 12.2156 14.6784 12.2025C14.8875 13.0482 15.1012 13.8938 15.3272 14.7349C15.5579 13.9146 15.7631 13.0905 15.9722 12.2664C16.6217 12.2156 17.2752 12.1641 17.9286 12.1211C17.1937 11.31 16.4465 10.3751 15.3403 10.0715C12.9617 9.13664 9.88669 11.1992 9.97595 13.7824ZM3.34774 19.4106C4.21487 20.8067 5.25268 22.0921 6.46575 23.2068C7.83191 21.524 9.19482 19.7265 9.79679 17.6125C9.33554 16.4724 8.77591 15.3622 8.51532 14.1498C6.91788 16.0241 5.23574 17.8261 3.34774 19.4106ZM19.6023 14.312C19.3378 15.5674 18.8251 16.7499 18.0309 17.7662C19.0049 19.6666 19.9189 21.6438 21.3281 23.2706C22.6389 22.3097 23.6343 21.0158 24.5738 19.7096C22.7587 18.0652 21.0629 16.2847 19.6023 14.312ZM11.0138 18.4965C10.1681 20.4953 8.96419 22.3058 7.62734 24.0048C9.42544 24.9612 11.3858 25.5762 13.4184 25.7345C13.4314 23.595 13.423 21.4556 13.4484 19.3167C12.6281 19.0601 11.821 18.7825 11.0138 18.4965ZM14.7767 19.2992C14.7592 21.4432 14.7298 23.5905 14.7552 25.7384C16.6517 25.5677 18.4707 24.9827 20.1665 24.1371C18.928 22.3781 17.8517 20.5161 16.9247 18.578C16.2113 18.8255 15.494 19.0685 14.7767 19.2992Z" fill="white"/>
<path fill-rule="evenodd" clip-rule="evenodd" d="M103.665 0.869934C105.712 -0.219349 108.508 2.95338 106.89 4.84529C105.861 6.52743 103.149 6.39974 102.196 4.70001C101.163 3.29085 102.32 1.54031 103.665 0.869934ZM103.123 1.54878C103.734 1.63413 104.96 1.80937 105.57 1.89472C104.934 2.17616 104.229 2.25304 103.55 2.3475C103.867 2.86804 104.336 3.20095 104.925 3.3547C105.293 2.85566 105.656 2.35141 106.087 1.89863C105.933 2.60354 105.75 3.29541 105.54 3.98273C105.822 4.30717 106.104 4.63617 106.386 4.96061C106.536 4.14495 107.223 3.21398 106.527 2.47128C105.951 1.14747 104.268 1.4465 103.123 1.54878ZM103.115 5.16517C103.23 4.04267 103.234 2.91104 103.153 1.78332C102.201 2.74882 102.376 4.13648 103.115 5.16517ZM103.832 3.49607C103.79 4.00814 103.704 5.03748 103.661 5.54955C104.426 5.51111 105.19 5.4603 105.955 5.38733C105.361 4.63617 104.738 3.87589 103.832 3.49607ZM94.2911 4.28176C94.8422 3.54298 95.7686 3.29541 96.5804 2.95794C95.8716 4.75148 95.252 6.59584 95.282 8.54768C97.067 7.82584 98.2456 6.24143 98.5915 4.36254C99.3264 5.61405 100.749 6.20299 101.56 7.36003C100.676 9.55097 97.8827 9.69625 96.0677 10.7934C95.2474 11.0324 95.4742 12.0488 95.2305 12.6768C96.5804 11.639 97.9511 10.6311 99.3394 9.64935C99.9968 10.3152 99.8131 11.1908 99.6293 12.0103C100.334 11.7243 101.035 11.4214 101.748 11.1523C101.791 11.9419 101.902 12.7322 101.846 13.5263C100.279 14.6795 98.6944 15.9088 97.7843 17.6809C98.7199 18.6633 100.095 19.0477 101.235 19.7435C104.084 21.4132 107.338 22.1259 110.426 23.2107C108.807 23.5436 107.181 23.911 105.702 24.6882C105.489 24.6967 105.058 24.7136 104.84 24.7221C101.753 22.5318 98.7583 20.1409 95.4273 18.3343C95.282 19.9656 95.4012 21.6008 95.3803 23.2322C95.0898 24.0133 94.2995 24.6452 93.4539 24.2439C93.0272 22.6217 92.3053 21.1187 91.3229 19.7565C91.8565 20.021 92.3822 20.2985 92.9119 20.5676C92.9542 19.5812 92.9927 18.5903 93.048 17.6001C92.2754 18.518 91.532 19.4874 90.5457 20.1878C89.6355 20.0425 89.1489 19.1884 88.5808 18.5649C89.9906 17.3095 91.6858 16.3401 92.8474 14.8287C93.0695 13.7908 92.9242 12.7107 92.9712 11.6559C91.5959 11.4084 90.6441 10.4435 90.631 9.00828C91.4128 8.95747 92.1985 8.92294 92.9796 8.89753C93.2962 7.33918 93.2363 5.57561 94.2911 4.28176ZM97.2423 15.2515C98.3316 14.7902 99.198 13.7993 99.1511 12.5524C98.284 13.2657 97.6306 14.2006 97.2423 15.2515ZM95.6878 17.258C96.0892 17.1004 96.469 16.8867 96.8449 16.6691C96.4481 16.0326 96.1745 15.3368 96.0423 14.6026C95.3758 15.3407 95.0044 16.387 95.6878 17.258ZM64.8993 7.99653C65.3775 6.10918 66.556 4.46548 68.2473 3.47848C68.1365 4.8707 67.5254 6.15217 67.171 7.48837C68.1535 7.07012 68.9776 6.39127 69.7249 5.63946C70.1692 5.83164 70.6135 6.02383 71.0617 6.21602C70.2891 7.65906 69.106 8.80372 68.145 10.1099C68.9307 9.65781 69.6311 9.08125 70.3529 8.53466C71.852 9.29494 73.5817 8.949 74.9439 8.06884C75.5465 8.38481 76.14 8.70534 76.7381 9.02978C76.1531 10.678 75.6104 12.3693 75.7042 14.1452C74.5126 15.2638 72.766 14.8417 71.2839 15.0293C71.8735 15.4652 72.4331 15.9772 73.1373 16.2248C74.611 16.071 75.5889 14.8202 76.4729 13.7693C76.9726 14.641 77.4769 15.516 77.9551 16.4046C76.8019 16.9082 75.5504 17.1173 74.2989 17.1988C77.1779 19.6796 80.4021 21.7416 83.9683 23.0784C82.6145 23.4967 81.3037 24.3677 79.834 24.1931C77.5492 22.8523 75.6319 20.9735 73.5686 19.3291C72.7145 20.636 72.1295 22.0836 71.822 23.612C71.566 23.7957 71.0532 24.1631 70.7972 24.3468C70.1568 23.7657 69.5626 23.1383 68.9946 22.4849C69.4473 19.0516 69.2128 15.6013 69.3066 12.1556C69.1828 12.224 68.9392 12.3517 68.82 12.4162C68.1535 13.9615 66.945 15.3922 67.1541 17.1812C67.0857 19.4405 68.1835 22.1175 66.3339 23.941C65.6935 23.4458 64.997 23.0061 64.4635 22.3826C64.5573 21.1396 64.7071 19.9018 64.7195 18.6548C64.0361 19.4105 63.4426 20.2516 62.6784 20.9266C61.922 20.9774 61.1748 20.8321 60.4321 20.7428C60.3721 17.3694 65.1983 16.4984 64.8609 13.0266C63.8784 13.5048 62.9514 14.086 61.952 14.5166C60.9526 14.3374 60.1454 13.6801 59.4027 13.0351C60.9911 11.4168 63.9299 12.3862 65.1299 10.2468C63.9638 9.99072 62.8536 9.52491 62.58 8.24409C63.3488 8.15484 64.126 8.07796 64.8993 7.99653ZM67.1756 8.89297C67.1072 9.05128 66.9665 9.36269 66.8935 9.51644C67.6453 10.8064 68.6831 8.16722 67.1756 8.89297ZM71.6044 10.6311C71.5914 11.0155 71.579 11.3953 71.566 11.7797C72.2279 11.5751 72.8982 11.3738 73.5686 11.1823C73.637 10.9855 73.7699 10.5881 73.8377 10.3875C73.095 10.4644 72.3477 10.5503 71.6044 10.6311ZM68.0427 11.4168C67.5215 11.5491 66.8212 12.1686 67.0642 12.7491C67.6792 13.082 68.7346 11.7628 68.0427 11.4168ZM71.25 12.9628C71.7067 14.1114 72.8298 13.3472 73.6885 13.185C73.6501 12.9797 73.5732 12.5784 73.5347 12.3732C72.7745 12.5784 72.0142 12.7745 71.25 12.9628ZM71.2624 20.7767C71.8689 19.9786 72.4416 19.1584 73.0266 18.3473C72.4839 17.8776 71.9419 17.4079 71.3953 16.9421C71.2969 18.219 71.2715 19.4959 71.2624 20.7767ZM71.0363 7.71053C71.9373 6.45055 72.8259 5.16127 73.8761 4.01661C74.9354 4.12801 75.2729 5.61796 75.9049 6.34827C74.3888 7.10855 72.7745 7.81281 71.0363 7.71053ZM85.6426 9.70472C86.0185 7.79131 86.3299 5.86161 86.9664 4.0127C87.9059 4.45245 88.8245 4.93064 89.7 5.4857C89.4049 6.10462 89.115 6.71962 88.8284 7.34309C87.6629 7.97959 86.6081 8.79069 85.6426 9.70472ZM45.7782 7.41996C47.4955 7.02321 49.1653 6.44665 50.8735 6.02383C51.8989 5.69092 52.5732 6.71571 53.2866 7.24471C52.441 8.67147 51.5823 10.093 50.7797 11.5491C51.7022 11.4422 52.6162 11.1693 53.5517 11.1693C54.5127 11.4299 54.8625 12.4716 55.3668 13.2188C53.5641 14.9655 52.1634 17.0619 51.0233 19.2868C52.7231 19.1969 54.4058 18.9239 56.0411 18.4496C56.5883 18.9148 57.1603 19.3552 57.6431 19.8842C57.7284 20.7168 56.9766 21.238 56.5499 21.8445C55.243 21.6139 53.8417 21.4002 52.6462 22.139C52.5178 22.109 52.2618 22.0536 52.138 22.0237C52.6677 21.5839 53.1928 21.1441 53.7179 20.6998C50.2031 20.9389 46.7138 21.6738 43.4765 23.083C41.7423 23.8771 39.808 23.911 37.963 24.2439C36.8868 23.0784 35.7206 22.0067 34.5544 20.9305C35.9942 20.3708 37.3904 21.1741 38.821 21.3148C41.5716 21.6523 44.3052 20.922 46.9229 20.1409C47.491 19.9141 48.2643 19.8373 48.5073 19.1754C49.3705 17.3694 50.2631 15.5844 51.1341 13.7824C48.4904 14.4443 48.3281 17.6124 46.4232 19.12C45.7229 19.7565 44.788 19.3291 43.9847 19.2223C44.5697 17.916 45.2531 16.6522 46.0349 15.4521C45.4453 15.4007 44.8557 15.3453 44.2707 15.2899C43.9932 14.8072 43.7202 14.3251 43.4511 13.8377C44.6766 13.4879 45.9411 13.1973 47.0766 12.5999C48.3197 11.9719 48.4865 10.4689 48.9477 9.30732C47.5294 9.41872 46.2141 8.86365 45.7782 7.41996ZM84.81 13.3172C84.9722 12.3094 85.3051 11.3399 85.6296 10.3705C86.3684 11.067 87.8166 11.3869 87.8765 12.57C87.6752 13.8423 86.9625 14.9824 86.8596 16.2763C86.8003 17.4587 86.928 18.6418 87.0863 19.8073C87.9274 18.262 87.8974 16.4131 88.7007 14.8502C88.6837 17.3479 88.2433 19.9272 89.085 22.3481C89.3925 23.3774 88.2648 23.8726 87.6752 24.4622C87.1417 23.9625 86.6166 23.4582 86.0954 22.9546C86.326 19.6366 84.1351 16.6391 84.81 13.3172Z" fill="white"/>
</svg>
