<svg width="30" height="30" viewBox="0 0 30 30" fill="none" xmlns="http://www.w3.org/2000/svg">
<path d="M0.47277 29.5339C-0.15759 28.9123 -0.15759 27.9046 0.47277 27.2831L11.5418 16.3692C12.1721 15.7477 13.1942 15.7477 13.8245 16.3692C14.4549 16.9908 14.4549 17.9985 13.8245 18.62L2.7555 29.5339C2.12515 30.1554 1.10313 30.1554 0.47277 29.5339Z" fill="black"/>
<path fill-rule="evenodd" clip-rule="evenodd" d="M19.5081 17.5066C23.5197 17.5066 26.7717 14.3002 26.7717 10.3448C26.7717 6.38947 23.5197 3.18302 19.5081 3.18302C15.4965 3.18302 12.2445 6.38947 12.2445 10.3448C12.2445 14.3002 15.4965 17.5066 19.5081 17.5066ZM19.5081 20.6897C25.3026 20.6897 30 16.0581 30 10.3448C30 4.63154 25.3026 0 19.5081 0C13.7136 0 9.01622 4.63154 9.01622 10.3448C9.01622 16.0581 13.7136 20.6897 19.5081 20.6897Z" fill="black"/>
</svg>
