<svg width="27" height="100" viewBox="0 0 27 100" fill="none" xmlns="http://www.w3.org/2000/svg">
<path d="M26.3269 11.0174L26.3269 0L9.53674e-05 -1.15078e-06L26.3269 11.0174Z" fill="#FA0C00"/>
<path d="M26.3269 18.7688L26.3269 29.7721L9.48865e-05 29.7721L26.3269 18.7688Z" fill="#FA0C00"/>
<path d="M16.6235 14.8928L6.05181e-05 21.9052L6.07192e-05 17.3048L5.2929 15.2085L5.2929 10.0769L16.6235 14.8928Z" fill="#FA0C00"/>
<path fill-rule="evenodd" clip-rule="evenodd" d="M9.585 42.4132L5.90542 41.1859C5.76925 41.1352 5.72651 41.0711 5.72651 40.9343L5.72651 38.7025C5.72651 38.573 5.79123 38.5229 5.94877 38.5443L19.0227 43.1453C19.245 43.2381 19.4746 43.3029 20.2275 43.3462C20.3203 43.3462 20.385 43.3963 20.385 43.4824L20.385 46.5831C20.385 46.6979 20.3636 46.7193 20.2488 46.7413L5.9274 51.9016C5.79123 51.923 5.72651 51.9016 5.72651 51.7654L5.72651 49.2674C5.72651 49.1526 5.76925 49.0879 5.86267 49.0451L9.585 47.7457L9.585 42.4132ZM12.0159 47.035C13.493 46.5617 16.5912 45.5139 18.155 45.0688L18.155 45.0474C16.6633 44.6884 14.0529 43.7981 12.0159 43.1233L12.0159 47.035Z" fill="#FA0C00"/>
<path fill-rule="evenodd" clip-rule="evenodd" d="M5.50432 58.5358C5.50432 55.2983 7.37586 52.8222 11.1269 52.8222C14.3613 52.8222 16.9497 55.2342 16.9497 59.1598C16.9497 59.4755 16.9284 59.7411 16.8856 60.1216L21.4537 60.1216C21.5685 60.1216 21.6118 60.1649 21.6118 60.2583L21.6118 62.6911C21.6118 62.7991 21.5685 62.7991 21.4824 62.7991L7.99991 62.7991C7.55538 62.7991 6.97407 62.8492 6.5729 62.8919C6.46543 62.8919 6.41475 62.8706 6.37201 62.7558C5.74795 61.3062 5.50432 59.8779 5.50432 58.5358ZM14.5402 60.1216C14.655 59.8272 14.6984 59.4755 14.6984 59.0737C14.6984 57.0856 13.4216 55.5859 11.2631 55.5859C8.82486 55.5859 7.82039 57.0428 7.82039 58.8228C7.82039 59.2746 7.87107 59.7198 7.99991 60.1216L14.5402 60.1216Z" fill="#FA0C00"/>
<path fill-rule="evenodd" clip-rule="evenodd" d="M11.2844 75.9659C7.82035 75.9659 5.50428 73.7549 5.50428 70.6041C5.50428 66.8793 8.37968 65.2282 11.2129 65.2282C14.3827 65.2282 16.9497 67.3025 16.9497 70.6542C16.9497 74.0926 14.3393 75.9659 11.2844 75.9659ZM14.6984 70.518C14.6984 69.0177 13.3788 67.9485 11.263 67.9485C9.20462 67.9485 7.77761 68.9536 7.77761 70.6542C7.77761 72.0323 8.91763 73.2169 11.2129 73.2169C13.0704 73.2169 14.6984 72.4127 14.6984 70.518Z" fill="#FA0C00"/>
<path fill-rule="evenodd" clip-rule="evenodd" d="M21.6118 80.8211C21.6118 80.9792 21.5898 81.022 21.4323 81.022L16.6347 81.0507C16.8356 81.654 16.9497 82.3427 16.9497 83.0822C16.9497 86.2977 14.6764 88.35 11.6862 88.35C7.55538 88.35 5.50432 85.1345 5.50432 81.8262C5.50432 80.6703 5.66186 79.551 5.99159 78.4812C6.01357 78.3878 6.12837 78.3236 6.19248 78.3236L21.4537 78.3236C21.5685 78.3236 21.6118 78.3878 21.6118 78.4812L21.6118 80.8211ZM14.655 82.6083C14.655 81.8261 14.5402 81.4024 14.4041 81.0507L7.89244 81.0507C7.79902 81.3596 7.77765 81.6967 7.77765 82.0771C7.77765 83.9071 8.93965 85.601 11.4133 85.601C13.5364 85.601 14.655 84.3736 14.655 82.6083Z" fill="#FA0C00"/>
<path fill-rule="evenodd" clip-rule="evenodd" d="M10.6103 92.8941C9.0538 92.9589 7.79898 93.9926 7.79898 96.2678C7.79898 97.2729 7.9785 98.1912 8.33694 99.0382C8.37968 99.1029 8.35831 99.1676 8.25084 99.1676L6.39334 99.1676C6.2645 99.1676 6.19244 99.1243 6.1497 99.0382C5.74791 98.1912 5.50428 97.2082 5.50428 95.6865C5.50428 91.624 8.35831 90.1744 11.1049 90.1744C14.2031 90.1744 16.9497 92.0472 16.9497 95.4209C16.9497 98.7225 14.3613 99.9999 12.2382 99.9999C11.6141 99.9999 11.1049 99.9712 10.8612 99.9065C10.7678 99.8851 10.7251 99.8424 10.7037 99.7269C10.6316 99.4186 10.6103 98.5216 10.6103 97.4304L10.6103 92.8941ZM12.5325 96.2244C12.5325 97.0714 12.5325 97.359 12.5539 97.4518C12.6186 97.4518 12.7114 97.4518 12.7334 97.4518C13.3788 97.4518 14.8058 97.0073 14.8058 95.3061C14.8058 93.763 13.6224 93.0737 12.5325 92.8941L12.5325 96.2244Z" fill="#FA0C00"/>
</svg>
