<svg width="14" height="107" viewBox="0 0 14 107" fill="none" xmlns="http://www.w3.org/2000/svg">
<path d="M13.729 13.9385L13.729 14.8918C13.6541 16.2332 13.4021 17.6631 12.5236 18.7321C11.829 19.5833 10.6509 19.9442 9.5817 19.7331C8.79173 19.5765 8.05625 19.2088 7.35482 18.8139C5.97238 18.0172 4.70572 17.0298 3.405 16.097C3.19389 15.9268 2.9283 15.7974 2.64909 15.811C2.43117 15.8314 2.25411 16.0017 2.17239 16.1991C2.01576 16.5804 2.04981 17.0094 2.07024 17.4112C2.20644 18.6913 2.59461 19.9238 2.98278 21.1426C3.03726 21.2311 2.94192 21.2652 2.87382 21.2992C2.01576 20.0055 1.29389 18.6096 0.762712 17.1456C0.49031 16.3353 0.23153 15.4773 0.33368 14.6126C0.38135 14.1632 0.646942 13.7069 1.10321 13.564C1.68888 13.3869 2.34264 13.455 2.90106 13.7069C3.77274 14.0951 4.51504 14.7011 5.27095 15.2663C6.51037 16.2127 7.74299 17.1865 9.12542 17.9287C9.60894 18.1806 10.2082 18.4394 10.7462 18.1942C11.2433 17.9695 11.5362 17.4656 11.7609 16.989C12.1355 16.1446 12.367 15.239 12.619 14.347C12.5282 14.2108 12.4396 14.0769 12.3534 13.9453C12.115 14.2517 11.8767 14.5649 11.6383 14.8713C11.4272 13.7001 11.1889 12.529 10.896 11.3714C10.4534 9.61461 9.86772 7.89869 9.25482 6.19639C8.92112 6.35981 8.58743 6.53004 8.25374 6.68665C7.82471 6.29852 7.39568 5.91721 6.97346 5.53589C6.69425 6.45514 6.65338 7.45609 6.8645 8.39576C7.04837 9.19925 7.42973 9.96188 7.98134 10.5747C8.19245 10.4045 8.3627 10.1934 8.4989 9.96869C8.47847 10.7177 7.83152 11.3986 7.0688 11.3986C7.0688 11.2534 7.0688 11.1081 7.0688 10.9628C7.23224 10.9311 7.39341 10.8857 7.55231 10.8267C6.78278 9.9755 6.29926 8.87921 6.17668 7.74208C6.06091 6.74112 6.19711 5.71974 6.55123 4.77326C5.97011 4.84135 5.38899 4.9049 4.80787 4.96392C4.59676 4.42599 4.29712 3.92892 3.92937 3.48632C3.62292 3.13224 3.2688 2.77816 2.80572 2.64878C2.39712 2.5126 1.93404 2.73049 1.71612 3.08457C1.45053 3.51355 1.32113 4.01744 1.25303 4.52132C1.1645 5.175 1.17131 5.84231 1.21898 6.5028C1.31432 7.79655 1.55949 9.08349 1.86594 10.3432C1.91361 10.4658 1.70931 10.527 1.67526 10.3977C1.15769 9.38991 0.721851 8.34129 0.44264 7.23819C0.170239 6.21 0.0340383 5.14777 -1.16224e-05 4.07872C0.0340384 2.99605 0.24515 1.83849 0.953392 0.980526C1.47095 0.34046 2.29497 -4.99798e-07 3.11217 -4.64076e-07L3.15303 -4.6229e-07C4.0179 0.0204272 4.85554 0.313224 5.59783 0.735395C6.65339 1.28694 7.64084 1.96786 8.51933 2.77135C10.0584 4.16043 11.2433 5.90359 12.1014 7.77612C12.9799 9.72356 13.6132 11.8004 13.729 13.9385Z" fill="white"/>
<path fill-rule="evenodd" clip-rule="evenodd" d="M13.2998 30.6482C13.2998 32.1917 13.3021 33.7351 13.3066 35.2785C9.02994 37.3145 4.75324 39.3504 0.476547 41.3796C0.476548 39.8407 0.476548 38.295 0.476548 36.7561C1.24835 36.4429 2.02015 36.1274 2.79196 35.8096C2.79196 33.6852 2.79196 31.5607 2.79196 29.4362C2.02015 29.1003 1.24835 28.7621 0.476548 28.4216C0.476548 27.0326 0.476548 25.6435 0.476548 24.2544C2.44465 25.2349 4.40593 26.2223 6.37403 27.196C8.68944 28.3467 10.9912 29.5043 13.2998 30.6482ZM10.2353 32.7387C8.68717 32.0441 7.1413 31.3496 5.59769 30.6551C5.59769 32.0078 5.59769 33.3583 5.59769 34.7065C7.14357 34.0529 8.68944 33.3924 10.2353 32.7387ZM13.2998 42.5439C13.2998 43.8922 13.2998 45.2381 13.2998 46.5818C9.02767 46.5818 4.75324 46.5818 0.476547 46.5818C0.476547 45.2381 0.476547 43.8922 0.476547 42.5439C4.75324 42.5439 9.02767 42.5439 13.2998 42.5439ZM13.2998 49.1148C13.2998 50.4631 13.2998 51.8113 13.2998 53.1595C12.4463 53.1595 11.5928 53.1595 10.7393 53.1595C10.7393 51.8113 10.7393 50.4631 10.7393 49.1148C11.5928 49.1148 12.4463 49.1148 13.2998 49.1148ZM13.2862 55.7062C13.2907 57.0271 13.2907 58.3481 13.2862 59.6691C11.5474 59.6691 9.81082 59.6691 8.07654 59.6691C8.90736 60.4318 9.49983 61.4736 9.6156 62.6107C9.71094 63.6389 9.54069 64.7284 8.96865 65.6068C8.71668 66.0085 8.38299 66.3694 8.01525 66.669C7.15037 67.2886 6.09482 67.6495 5.03246 67.6768C4.14715 67.704 3.23461 67.5814 2.45145 67.1524C1.93389 66.8733 1.47762 66.4783 1.1235 66.0153C0.565077 65.2254 0.231386 64.2585 0.258626 63.2848C0.265436 62.3724 0.517408 61.4463 1.04859 60.6973C1.33461 60.2888 1.68873 59.9415 2.0769 59.6283C1.54118 59.6283 1.00773 59.6283 0.476547 59.6283C0.476547 58.3209 0.476547 57.0135 0.476547 55.7062C4.7487 55.7016 9.01859 55.7016 13.2862 55.7062ZM7.49088 61.1331C7.3683 60.5884 6.97331 60.1185 6.46256 59.8938C6.0131 59.71 5.52278 59.6487 5.03927 59.6351C4.39231 59.6419 3.69088 59.7372 3.17332 60.173C2.77834 60.4658 2.6149 60.9629 2.53998 61.4259C2.45146 62.0319 2.73067 62.6311 3.18013 63.0329C3.52744 63.4006 4.03138 63.5436 4.5217 63.6185C5.05289 63.6797 5.61131 63.6593 6.12206 63.4891C6.57833 63.3461 7.01417 63.0737 7.26614 62.6652C7.54536 62.209 7.61346 61.6438 7.49088 61.1331ZM13.2862 82.514C13.2907 83.835 13.2907 85.156 13.2862 86.477C11.5474 86.477 9.81082 86.4793 8.07654 86.4838C8.78478 87.1375 9.33639 87.9955 9.54069 88.9556C9.73137 89.8476 9.65646 90.8008 9.35001 91.6588C8.98227 92.6325 8.23998 93.4632 7.30019 93.9058C6.18335 94.4914 4.86901 94.614 3.64321 94.3825C2.80558 94.2259 2.02242 93.7969 1.42995 93.1841C0.769377 92.4895 0.381205 91.5567 0.279056 90.6102C0.190525 89.6297 0.367585 88.6015 0.891957 87.7571C1.19841 87.2464 1.61382 86.8106 2.0769 86.4361C1.53891 86.443 1.00773 86.443 0.476545 86.443C0.476546 85.1265 0.476546 83.8123 0.476546 82.5004C2.02923 82.5004 3.58419 82.5004 5.14141 82.5004C7.85862 82.5208 10.5758 82.514 13.2862 82.514ZM7.49087 87.9478C7.36829 87.3622 6.91883 86.8719 6.36041 86.6677C5.91776 86.5042 5.45468 86.4498 4.98478 86.443C4.44679 86.4634 3.88837 86.5247 3.41848 86.8106C3.16651 86.9741 2.92135 87.1647 2.79196 87.4439C2.58084 87.8729 2.45826 88.37 2.56722 88.8466C2.68981 89.3777 3.07798 89.8135 3.52063 90.1131C4.27654 90.5012 5.17546 90.5489 5.99267 90.3378C6.47618 90.2152 6.93926 89.9565 7.22528 89.5411C7.53854 89.0781 7.62027 88.4857 7.49087 87.9478ZM9.51345 72.4909C9.71775 73.5395 9.72456 74.6222 9.67008 75.6844C9.59517 76.7058 9.43854 77.7544 8.94822 78.66C8.69625 79.1094 8.34894 79.518 7.90629 79.7767C7.40234 80.0763 6.80987 80.1853 6.23102 80.1921C4.31513 80.1921 2.40151 80.1921 0.490167 80.1921C0.490167 78.9528 0.490167 77.7158 0.490167 76.4811C0.926009 76.4811 1.36185 76.4811 1.79769 76.4811C1.04859 75.9159 0.605938 75.0375 0.435687 74.1319C0.238196 73.1173 0.210955 72.0415 0.510596 71.0405C0.667228 70.5502 0.898769 70.0668 1.27332 69.6991C1.65468 69.3178 2.18586 69.1203 2.72386 69.0931C3.48658 69.0318 4.27654 69.3042 4.81454 69.8693C5.48873 70.5775 5.79518 71.5444 5.96543 72.4909C6.18335 73.7778 6.21059 75.092 6.24464 76.3926C6.68729 76.3926 7.15718 76.27 7.46363 75.9363C7.75647 75.6231 7.85181 75.1737 7.845 74.7515C7.85181 74.3906 7.77009 74.0025 7.5113 73.737C7.34105 73.5667 7.11632 73.4578 6.89159 73.3897C6.89159 72.164 6.89159 70.9361 6.89159 69.7059C7.46363 69.7944 8.02887 70.0055 8.46471 70.4004C9.05718 70.9384 9.35682 71.7214 9.51345 72.4909ZM4.49446 74.6017C4.42636 74.1727 4.32421 73.7165 4.01776 73.3897C3.67045 73.0152 2.96902 73.0356 2.67619 73.4646C2.46507 73.7846 2.44464 74.1796 2.45827 74.5473C2.47869 75.0579 2.60809 75.6095 3.00988 75.9568C3.42529 76.3381 4.01776 76.413 4.56256 76.4062C4.56256 75.8001 4.56256 75.2009 4.49446 74.6017ZM9.52026 99.3396C9.72456 100.415 9.72456 101.519 9.66327 102.601C9.58836 103.589 9.42492 104.596 8.95503 105.475C8.71668 105.904 8.38299 106.292 7.96758 106.557C7.51811 106.85 6.97331 106.98 6.43532 107C4.45587 107 2.47415 107 0.490166 107C0.490166 105.77 0.490166 104.54 0.490166 103.309C0.926008 103.309 1.36866 103.303 1.8045 103.309C1.03497 102.731 0.592316 101.818 0.422065 100.885C0.238195 99.8775 0.210955 98.8221 0.524216 97.8348C0.660417 97.4058 0.851098 96.9904 1.15074 96.6432C1.47762 96.2618 1.95432 96.0099 2.45145 95.9418C3.07798 95.8465 3.74536 95.935 4.29016 96.2687C4.86901 96.6227 5.27762 97.2015 5.54321 97.8211C5.93819 98.754 6.05396 99.7822 6.14249 100.79C6.20378 101.593 6.22421 102.411 6.24464 103.221C6.66005 103.2 7.1027 103.105 7.41596 102.805C7.73603 102.499 7.84499 102.043 7.84499 101.621C7.85181 101.226 7.77689 100.804 7.47725 100.524C7.31381 100.368 7.1027 100.279 6.89159 100.211C6.89159 98.9855 6.89159 97.7531 6.89159 96.5274C7.45001 96.6091 8.00163 96.8134 8.43066 97.1947C9.05718 97.7326 9.35682 98.5497 9.52026 99.3396ZM4.48765 101.403C4.42636 100.994 4.32421 100.558 4.045 100.238C3.7045 99.8367 2.96902 99.8435 2.67618 100.293C2.45145 100.633 2.43783 101.069 2.45826 101.464C2.49231 101.954 2.64213 102.465 3.0235 102.792C3.44572 103.153 4.02457 103.241 4.56256 103.214C4.56256 102.615 4.55575 102.009 4.48765 101.403ZM9.37044 49.1148C9.37044 50.4631 9.37044 51.8113 9.37044 53.1595C6.40581 53.1595 3.44118 53.1595 0.476547 53.1595C0.476547 51.8113 0.476547 50.4631 0.476547 49.1148C3.44118 49.1148 6.40581 49.1148 9.37044 49.1148Z" fill="white"/>
</svg>
