<svg width="87" height="12" viewBox="0 0 87 12" fill="none" xmlns="http://www.w3.org/2000/svg">
<path d="M11.6504 0.635468L12.4222 0.635468C13.5083 0.696121 14.6661 0.900135 15.5317 1.61143C16.2209 2.17385 16.5131 3.12776 16.3422 3.99344C16.2154 4.63305 15.9176 5.22856 15.5979 5.79649C14.9528 6.91581 14.1534 7.9414 13.3981 8.99456C13.2602 9.16549 13.1555 9.38053 13.1665 9.6066C13.1831 9.78305 13.3209 9.92641 13.4808 9.99258C13.7895 10.1194 14.1369 10.0918 14.4621 10.0753C15.4986 9.96501 16.4965 9.65072 17.4834 9.33642C17.5551 9.29231 17.5826 9.36951 17.6102 9.42464C16.5627 10.1194 15.4325 10.7039 14.2471 11.134C13.591 11.3545 12.8964 11.564 12.1962 11.4813C11.8323 11.4427 11.4629 11.2277 11.3472 10.8583C11.2038 10.3841 11.2589 9.85473 11.4629 9.40259C11.7772 8.69681 12.2679 8.09579 12.7255 7.48375C13.4918 6.48021 14.2802 5.4822 14.8811 4.36287C15.0851 3.97138 15.2946 3.48616 15.0962 3.05056C14.9142 2.64805 14.5062 2.41095 14.1203 2.22899C13.4367 1.92572 12.7034 1.73825 11.9812 1.53424C11.8709 1.60775 11.7625 1.67944 11.6559 1.74928C11.904 1.94226 12.1576 2.13525 12.4057 2.32824C11.4574 2.49917 10.5091 2.69216 9.57188 2.92926C8.14946 3.28766 6.76012 3.76186 5.38181 4.25811C5.51413 4.52829 5.65196 4.79847 5.77876 5.06865C5.46451 5.41603 5.15577 5.76341 4.84702 6.10527C5.59131 6.33134 6.40176 6.36442 7.16259 6.19349C7.81315 6.04462 8.43064 5.73584 8.92683 5.28921C8.789 5.11828 8.61809 4.98043 8.43615 4.87015C9.04261 4.88669 9.59394 5.41052 9.59394 6.02807C9.47632 6.02807 9.3587 6.02807 9.24109 6.02807C9.21536 5.89574 9.1786 5.76524 9.13082 5.63659C8.44167 6.25966 7.55403 6.65115 6.63332 6.7504C5.82287 6.84413 4.99588 6.73386 4.22954 6.44713C4.28467 6.91765 4.33613 7.38817 4.38391 7.85869C3.94836 8.02962 3.54589 8.27224 3.18753 8.56999C2.90084 8.81811 2.61415 9.10484 2.5094 9.47978C2.39914 9.81062 2.57556 10.1856 2.86225 10.362C3.20959 10.5771 3.61757 10.6818 4.02555 10.737C4.55482 10.8086 5.09512 10.8031 5.6299 10.7645C6.67742 10.6873 7.71943 10.4888 8.73938 10.2407C8.83862 10.2021 8.88824 10.3675 8.78349 10.3951C7.96752 10.8142 7.11848 11.167 6.22534 11.3931C5.39284 11.6137 4.53277 11.7239 3.66719 11.7515C2.79058 11.7239 1.85333 11.553 1.15865 10.9796C0.640409 10.5605 0.364746 9.89333 0.364746 9.23166V9.19857C0.381286 8.49831 0.618356 7.8201 0.960178 7.21908C1.40675 6.36442 1.95808 5.56491 2.60864 4.85361C3.73335 3.60747 5.14474 2.64805 6.66088 1.95329C8.23767 1.242 9.91922 0.729204 11.6504 0.635468Z" fill="white"/>
<path fill-rule="evenodd" clip-rule="evenodd" d="M25.1799 0.982855C26.4295 0.982855 27.6792 0.981017 28.9289 0.977341C30.5774 4.44008 32.2258 7.90282 33.8688 11.3656C32.6228 11.3656 31.3713 11.3656 30.1253 11.3656C29.8717 10.7406 29.6162 10.1157 29.3589 9.49082C27.6388 9.49082 25.9187 9.49082 24.1985 9.49082C23.9265 10.1157 23.6527 10.7406 23.377 11.3656C22.2523 11.3656 21.1276 11.3656 20.0029 11.3656C20.7968 9.77203 21.5963 8.18403 22.3847 6.5905C23.3164 4.71577 24.2536 2.85207 25.1799 0.982855ZM26.8724 3.46412C26.3101 4.71761 25.7477 5.96927 25.1854 7.21909C26.2807 7.21909 27.3742 7.21909 28.4658 7.21909C27.9365 5.96743 27.4017 4.71577 26.8724 3.46412ZM34.8115 0.982855C35.9032 0.982855 36.9929 0.982855 38.0809 0.982855C38.0809 4.44192 38.0809 7.90282 38.0809 11.3656C36.9929 11.3656 35.9032 11.3656 34.8115 11.3656C34.8115 7.90282 34.8115 4.44192 34.8115 0.982855ZM40.1318 0.982855C41.2234 0.982855 42.3151 0.982855 43.4067 0.982855C43.4067 1.67393 43.4067 2.36501 43.4067 3.05609C42.3151 3.05609 41.2234 3.05609 40.1318 3.05609C40.1318 2.36501 40.1318 1.67393 40.1318 0.982855ZM45.4687 0.993882C46.5382 0.990207 47.6078 0.990207 48.6774 0.993882C48.6774 2.40177 48.6774 3.80782 48.6774 5.21203C49.2949 4.53933 50.1384 4.05962 51.0591 3.96588C51.8916 3.88869 52.7737 4.02653 53.4849 4.4897C53.8102 4.69372 54.1024 4.9639 54.345 5.26165C54.8467 5.96192 55.1389 6.81657 55.161 7.67675C55.183 8.39355 55.0838 9.13242 54.7364 9.76652C54.5104 10.1856 54.1906 10.555 53.8157 10.8417C53.1762 11.2939 52.3933 11.5641 51.6049 11.542C50.8661 11.5365 50.1163 11.3325 49.5099 10.9024C49.1791 10.6708 48.8979 10.3841 48.6443 10.0698C48.6443 10.5035 48.6443 10.9355 48.6443 11.3656C47.5857 11.3656 46.5272 11.3656 45.4687 11.3656C45.465 7.90649 45.465 4.44927 45.4687 0.993882ZM49.8627 5.68622C49.4217 5.78547 49.0412 6.10528 48.8593 6.51882C48.7104 6.88274 48.6608 7.27974 48.6498 7.67123C48.6553 8.19505 48.7325 8.76299 49.0854 9.18204C49.3224 9.50185 49.7249 9.63418 50.0998 9.69484C50.5905 9.76652 51.0756 9.54045 51.4009 9.17653C51.6986 8.89532 51.8144 8.48729 51.8751 8.09029C51.9247 7.6602 51.9081 7.20806 51.7703 6.79452C51.6545 6.42509 51.434 6.0722 51.1032 5.86818C50.7338 5.64211 50.2762 5.58697 49.8627 5.68622ZM67.1743 0.993882C68.2439 0.990207 69.3135 0.990207 70.3831 0.993882C70.3831 2.40177 70.3849 3.80782 70.3886 5.21203C70.9178 4.63858 71.6125 4.19195 72.3899 4.02653C73.1121 3.87215 73.884 3.9328 74.5786 4.18092C75.367 4.47868 76.0397 5.07969 76.398 5.84061C76.8722 6.74489 76.9714 7.80908 76.7839 8.80158C76.6571 9.4798 76.3098 10.1139 75.8136 10.5936C75.2513 11.1285 74.4959 11.4427 73.7296 11.5255C72.9357 11.5971 72.1032 11.4538 71.4196 11.0292C71.0061 10.7811 70.6532 10.4447 70.35 10.0698C70.3555 10.5054 70.3555 10.9355 70.3555 11.3656C69.2896 11.3656 68.2255 11.3656 67.1633 11.3656C67.1633 10.1084 67.1633 8.84937 67.1633 7.58852C67.1799 5.38847 67.1743 3.18842 67.1743 0.993882ZM71.5739 5.68622C71.0998 5.78547 70.7028 6.14939 70.5374 6.60153C70.4051 6.95994 70.361 7.33488 70.3555 7.71534C70.372 8.15094 70.4217 8.60308 70.6532 8.98354C70.7855 9.18756 70.9399 9.38606 71.1659 9.49082C71.5133 9.66175 71.9157 9.761 72.3017 9.67278C72.7317 9.57353 73.0846 9.25924 73.3271 8.90083C73.6414 8.28879 73.68 7.56095 73.5091 6.89928C73.4098 6.5078 73.2003 6.13285 72.864 5.90127C72.4891 5.64763 72.0095 5.58146 71.5739 5.68622ZM59.0588 4.04859C59.9079 3.88317 60.7845 3.87766 61.6445 3.92177C62.4715 3.98242 63.3206 4.10924 64.0538 4.50624C64.4177 4.71026 64.7485 4.99147 64.958 5.34987C65.2006 5.7579 65.2888 6.23761 65.2943 6.7063C65.2943 8.25754 65.2943 9.80695 65.2943 11.3545C64.2909 11.3545 63.2893 11.3545 62.2896 11.3545C62.2896 11.0016 62.2896 10.6487 62.2896 10.2959C61.832 10.9024 61.1208 11.2608 60.3875 11.3986C59.566 11.5585 58.695 11.5806 57.8845 11.338C57.4876 11.2112 57.0961 11.0237 56.7984 10.7204C56.4897 10.4116 56.3298 9.98156 56.3077 9.54596C56.2581 8.9284 56.4786 8.28879 56.9362 7.85319C57.5096 7.30731 58.2925 7.05919 59.0588 6.92134C60.1008 6.74489 61.1649 6.72284 62.2179 6.69527C62.2179 6.33686 62.1187 5.9564 61.8485 5.70828C61.5949 5.47118 61.2311 5.39399 60.8892 5.3995C60.597 5.39399 60.2828 5.46015 60.0678 5.66968C59.9299 5.80753 59.8417 5.98949 59.7866 6.17145C58.7942 6.17145 57.8 6.17145 56.8039 6.17145C56.8756 5.70828 57.0465 5.25062 57.3663 4.89773C57.8018 4.41802 58.4358 4.17541 59.0588 4.04859ZM60.7679 8.11234C60.4206 8.16748 60.0512 8.25019 59.7866 8.49832C59.4834 8.77953 59.4999 9.34746 59.8472 9.58456C60.1063 9.75549 60.4261 9.77203 60.7238 9.761C61.1373 9.74446 61.5839 9.6397 61.8651 9.31438C62.1738 8.97803 62.2345 8.49832 62.2289 8.05721C61.7383 8.05721 61.2531 8.05721 60.7679 8.11234ZM80.7976 4.04308C81.6687 3.87766 82.5618 3.87766 83.4385 3.92728C84.2379 3.98794 85.0538 4.12027 85.765 4.50073C86.1124 4.69372 86.4266 4.9639 86.6416 5.30025C86.8787 5.66417 86.9835 6.10528 87 6.54088C87 8.14359 87 9.74814 87 11.3545C86.0039 11.3545 85.0079 11.3545 84.0118 11.3545C84.0118 11.0016 84.0063 10.6432 84.0118 10.2903C83.5432 10.9134 82.8044 11.2718 82.0491 11.4097C81.2331 11.5585 80.3786 11.5806 79.5792 11.327C79.2318 11.2167 78.8955 11.0623 78.6144 10.8197C78.3056 10.555 78.1016 10.169 78.0465 9.76652C77.9693 9.25924 78.041 8.71888 78.3111 8.27776C78.5978 7.80908 79.0664 7.47824 79.5681 7.2632C80.3235 6.94339 81.156 6.84966 81.9719 6.77798C82.6225 6.72835 83.2841 6.71181 83.9401 6.69527C83.9236 6.35892 83.8464 6.00052 83.6038 5.74688C83.3558 5.48772 82.9864 5.3995 82.6445 5.3995C82.3248 5.39399 81.983 5.45464 81.7569 5.69725C81.6301 5.82958 81.5584 6.00052 81.5033 6.17145C80.5109 6.17145 79.513 6.17145 78.5206 6.17145C78.5868 5.71931 78.7522 5.27268 79.0609 4.9253C79.4965 4.41802 80.1581 4.17541 80.7976 4.04308ZM82.4681 8.11786C82.1373 8.16748 81.7845 8.25019 81.5253 8.47626C81.2001 8.75196 81.2056 9.34746 81.5694 9.58456C81.8451 9.76652 82.198 9.77755 82.5177 9.761C82.9147 9.73344 83.3282 9.61213 83.5928 9.30335C83.885 8.96149 83.9567 8.4928 83.9346 8.05721C83.4495 8.05721 82.9588 8.06272 82.4681 8.11786ZM40.1318 4.16438C41.2234 4.16438 42.3151 4.16438 43.4067 4.16438C43.4067 6.56477 43.4067 8.96516 43.4067 11.3656C42.3151 11.3656 41.2234 11.3656 40.1318 11.3656C40.1318 8.96516 40.1318 6.56477 40.1318 4.16438Z" fill="white"/>
</svg>
