<svg width="108" height="15" viewBox="0 0 108 15" fill="none" xmlns="http://www.w3.org/2000/svg">
<path d="M14.303 0.635498L15.2563 0.635498C16.5977 0.710408 18.0276 0.962379 19.0967 1.84087C19.9478 2.5355 20.3087 3.71363 20.0976 4.7828C19.941 5.57277 19.5733 6.30825 19.1784 7.00968C18.3817 8.39212 17.3943 9.65878 16.4615 10.9595C16.2913 11.1706 16.1619 11.4362 16.1755 11.7154C16.1959 11.9333 16.3662 12.1104 16.5636 12.1921C16.9449 12.3487 17.3739 12.3147 17.7757 12.2943C19.0558 12.1581 20.2883 11.7699 21.5071 11.3817C21.5956 11.3272 21.6297 11.4226 21.6637 11.4907C20.37 12.3487 18.9741 13.0706 17.5101 13.6018C16.6998 13.8742 15.8418 14.133 14.9771 14.0308C14.5277 13.9832 14.0715 13.7176 13.9285 13.2613C13.7514 12.6756 13.8195 12.0219 14.0715 11.4634C14.4596 10.5918 15.0656 9.84946 15.6308 9.09355C16.5772 7.85413 17.551 6.62151 18.2932 5.23908C18.5451 4.75556 18.8039 4.15628 18.5587 3.61829C18.334 3.12116 17.8301 2.82833 17.3535 2.6036C16.5091 2.22904 15.6035 1.9975 14.7115 1.74553C14.5753 1.83633 14.4414 1.92486 14.3098 2.01112C14.6162 2.24947 14.9294 2.48783 15.2358 2.72618C14.0646 2.93729 12.8935 3.17564 11.7359 3.46847C9.97911 3.91112 8.26319 4.49678 6.56089 5.10969C6.72431 5.44338 6.89454 5.77707 7.05115 6.11076C6.66303 6.53979 6.28171 6.96882 5.90039 7.39104C6.81964 7.67026 7.82059 7.71112 8.76026 7.50001C9.56375 7.31614 10.3264 6.93477 10.9392 6.38316C10.769 6.17205 10.5579 6.0018 10.3332 5.8656C11.0822 5.88603 11.7631 6.53298 11.7631 7.29571C11.6179 7.29571 11.4726 7.29571 11.3273 7.29571C11.2956 7.13226 11.2502 6.97109 11.1912 6.81219C10.34 7.58173 9.24372 8.06524 8.10658 8.18782C7.10562 8.30359 6.08424 8.16739 5.13776 7.81327C5.20585 8.39439 5.26941 8.97551 5.32842 9.55663C4.79049 9.76774 4.29342 10.0674 3.85082 10.4351C3.49674 10.7416 3.14266 11.0957 3.01329 11.5588C2.8771 11.9674 3.095 12.4305 3.44908 12.6484C3.87806 12.914 4.38194 13.0434 4.88582 13.1115C5.53951 13.2 6.20681 13.1932 6.8673 13.1455C8.16105 13.0502 9.44799 12.805 10.7077 12.4986C10.8303 12.4509 10.8915 12.6552 10.7622 12.6892C9.75441 13.2068 8.70579 13.6427 7.6027 13.9219C6.57451 14.1943 5.51227 14.3305 4.44322 14.3645C3.36056 14.3305 2.20299 14.1194 1.34503 13.4111C0.704963 12.8935 0.364502 12.0695 0.364502 11.2523V11.2115C0.38493 10.3466 0.677726 9.50896 1.0999 8.76667C1.65144 7.71112 2.33236 6.72366 3.13585 5.84517C4.52493 4.3061 6.26809 3.12116 8.14062 2.26309C10.0881 1.3846 12.1649 0.751269 14.303 0.635498Z" fill="white"/>
<path fill-rule="evenodd" clip-rule="evenodd" d="M31.0127 1.06455C32.5562 1.06455 34.0996 1.06228 35.643 1.05774C37.679 5.33444 39.7149 9.61113 41.7441 13.8878C40.2052 13.8878 38.6595 13.8878 37.1206 13.8878C36.8074 13.116 36.4919 12.3442 36.1741 11.5724C34.0497 11.5724 31.9252 11.5724 29.8007 11.5724C29.4648 12.3442 29.1266 13.116 28.7861 13.8878C27.3971 13.8878 26.008 13.8878 24.6189 13.8878C25.5994 11.9197 26.5868 9.95845 27.5605 7.99035C28.7112 5.67494 29.8688 3.37315 31.0127 1.06455ZM33.1032 4.12906C32.4086 5.67721 31.7141 7.22308 31.0196 8.76669C32.3723 8.76669 33.7228 8.76669 35.071 8.76669C34.4174 7.22081 33.7569 5.67494 33.1032 4.12906ZM42.9084 1.06455C44.2567 1.06455 45.6026 1.06455 46.9463 1.06455C46.9463 5.33671 46.9463 9.61113 46.9463 13.8878C45.6026 13.8878 44.2567 13.8878 42.9084 13.8878C42.9084 9.61113 42.9084 5.33671 42.9084 1.06455ZM49.4793 1.06455C50.8276 1.06455 52.1758 1.06455 53.524 1.06455C53.524 1.91807 53.524 2.7716 53.524 3.62512C52.1758 3.62512 50.8276 3.62512 49.4793 3.62512C49.4793 2.7716 49.4793 1.91807 49.4793 1.06455ZM56.0707 1.07817C57.3916 1.07363 58.7126 1.07363 60.0336 1.07817C60.0336 2.817 60.0336 4.55355 60.0336 6.28784C60.7963 5.45702 61.8381 4.86454 62.9752 4.74877C64.0034 4.65343 65.0929 4.82368 65.9713 5.39573C66.373 5.6477 66.7339 5.98139 67.0335 6.34913C67.6531 7.214 68.014 8.26956 68.0413 9.33192C68.0685 10.2172 67.9459 11.1298 67.5169 11.9129C67.2378 12.4305 66.8428 12.8868 66.3798 13.2409C65.5899 13.7993 64.623 14.133 63.6493 14.1058C62.7369 14.0989 61.8108 13.847 61.0618 13.3158C60.6533 13.0298 60.306 12.6756 59.9928 12.2875C59.9928 12.8232 59.9928 13.3566 59.9928 13.8878C58.6854 13.8878 57.378 13.8878 56.0707 13.8878C56.0661 9.61567 56.0661 5.34579 56.0707 1.07817ZM61.4976 6.8735C60.9529 6.99608 60.483 7.39106 60.2583 7.90182C60.0745 8.35128 60.0132 8.8416 59.9996 9.32511C60.0064 9.97207 60.1017 10.6735 60.5375 11.1911C60.8303 11.586 61.3274 11.7495 61.7904 11.8244C62.3964 11.9129 62.9956 11.6337 63.3974 11.1842C63.7651 10.8369 63.9081 10.333 63.983 9.84267C64.0442 9.31149 64.0238 8.75307 63.8536 8.24232C63.7106 7.78605 63.4382 7.3502 63.0297 7.09823C62.5735 6.81902 62.0083 6.75092 61.4976 6.8735ZM82.8785 1.07817C84.1995 1.07363 85.5205 1.07363 86.8415 1.07817C86.8415 2.817 86.8438 4.55355 86.8483 6.28784C87.502 5.5796 88.36 5.02799 89.3201 4.82368C90.2121 4.633 91.1653 4.70791 92.0233 5.01437C92.997 5.38211 93.8278 6.1244 94.2703 7.06418C94.8559 8.18103 94.9785 9.49536 94.747 10.7212C94.5904 11.5588 94.1614 12.342 93.5486 12.9344C92.854 13.595 91.9212 13.9832 90.9747 14.0853C89.9942 14.1739 88.966 13.9968 88.1216 13.4724C87.6109 13.166 87.1752 12.7506 86.8006 12.2875C86.8075 12.8255 86.8075 13.3566 86.8075 13.8878C85.491 13.8878 84.1768 13.8878 82.8649 13.8878C82.8649 12.3351 82.8649 10.7802 82.8649 9.22296C82.8853 6.50576 82.8785 3.78856 82.8785 1.07817ZM88.3123 6.8735C87.7267 6.99608 87.2364 7.44554 87.0322 8.00397C86.8687 8.44662 86.8143 8.9097 86.8075 9.37959C86.8279 9.91758 86.8892 10.476 87.1752 10.9459C87.3386 11.1979 87.5292 11.443 87.8084 11.5724C88.2374 11.7835 88.7345 11.9061 89.2111 11.7972C89.7422 11.6746 90.178 11.2864 90.4776 10.8437C90.8657 10.0878 90.9134 9.18891 90.7023 8.37171C90.5798 7.8882 90.321 7.42512 89.9056 7.13909C89.4426 6.82583 88.8502 6.74411 88.3123 6.8735ZM72.8554 4.85092C73.904 4.64662 74.9867 4.63981 76.0489 4.69429C77.0703 4.7692 78.1189 4.92583 79.0245 5.41616C79.4739 5.66813 79.8825 6.01544 80.1412 6.45809C80.4408 6.96203 80.5498 7.55451 80.5566 8.13336C80.5566 10.0492 80.5566 11.9629 80.5566 13.8742C79.3173 13.8742 78.0803 13.8742 76.8456 13.8742C76.8456 13.4384 76.8456 13.0025 76.8456 12.5667C76.2804 13.3158 75.402 13.7584 74.4964 13.9287C73.4818 14.1262 72.406 14.1534 71.405 13.8538C70.9147 13.6972 70.4313 13.4656 70.0636 13.0911C69.6823 12.7097 69.4848 12.1785 69.4576 11.6405C69.3963 10.8778 69.6687 10.0878 70.2338 9.54984C70.942 8.87565 71.9089 8.5692 72.8554 8.39895C74.1423 8.18103 75.4565 8.15379 76.7571 8.11974C76.7571 7.67709 76.6345 7.20719 76.3008 6.90074C75.9876 6.60791 75.5382 6.51257 75.116 6.51938C74.7551 6.51257 74.367 6.59429 74.1015 6.85307C73.9312 7.02332 73.8223 7.24805 73.7542 7.47279C72.5285 7.47279 71.3006 7.47279 70.0704 7.47279C70.1589 6.90074 70.37 6.33551 70.7649 5.89967C71.3029 5.3072 72.0859 5.00756 72.8554 4.85092ZM74.9662 9.86992C74.5372 9.93802 74.081 10.0402 73.7542 10.3466C73.3797 10.6939 73.4001 11.3954 73.8291 11.6882C74.1491 11.8993 74.5441 11.9197 74.9118 11.9061C75.4224 11.8857 75.974 11.7563 76.3213 11.3545C76.7026 10.9391 76.7775 10.3466 76.7707 9.80182C76.1646 9.80182 75.5654 9.80182 74.9662 9.86992ZM99.7041 4.84411C100.78 4.63981 101.883 4.63981 102.966 4.7011C103.953 4.77601 104.961 4.93945 105.839 5.40935C106.268 5.6477 106.656 5.98139 106.922 6.3968C107.215 6.84626 107.344 7.39106 107.364 7.92906C107.364 9.9085 107.364 11.8902 107.364 13.8742C106.134 13.8742 104.904 13.8742 103.674 13.8742C103.674 13.4384 103.667 12.9957 103.674 12.5599C103.095 13.3294 102.183 13.7721 101.25 13.9423C100.242 14.1262 99.1866 14.1534 98.1993 13.8402C97.7703 13.704 97.3549 13.5133 97.0077 13.2136C96.6263 12.8868 96.3744 12.4101 96.3063 11.9129C96.211 11.2864 96.2995 10.619 96.6332 10.0742C96.9872 9.49536 97.566 9.08676 98.1856 8.82117C99.1185 8.42619 100.147 8.31042 101.154 8.22189C101.958 8.1606 102.775 8.14017 103.585 8.11974C103.565 7.70433 103.47 7.26167 103.17 6.94841C102.864 6.62834 102.407 6.51938 101.985 6.51938C101.59 6.51257 101.168 6.58748 100.889 6.88712C100.732 7.05056 100.644 7.26167 100.576 7.47279C99.35 7.47279 98.1176 7.47279 96.8919 7.47279C96.9736 6.91436 97.1779 6.36275 97.5592 5.93372C98.0971 5.3072 98.9142 5.00756 99.7041 4.84411ZM101.767 9.87672C101.359 9.93801 100.923 10.0402 100.603 10.3194C100.201 10.6599 100.208 11.3954 100.657 11.6882C100.998 11.9129 101.434 11.9265 101.829 11.9061C102.319 11.8721 102.83 11.7222 103.156 11.3409C103.517 10.9187 103.606 10.3398 103.579 9.80182C102.979 9.80182 102.373 9.80862 101.767 9.87672ZM49.4793 4.99394C50.8276 4.99394 52.1758 4.99394 53.524 4.99394C53.524 7.95857 53.524 10.9232 53.524 13.8878C52.1758 13.8878 50.8276 13.8878 49.4793 13.8878C49.4793 10.9232 49.4793 7.95857 49.4793 4.99394Z" fill="white"/>
</svg>
