<svg width="33" height="102" viewBox="0 0 33 102" fill="none" xmlns="http://www.w3.org/2000/svg">
<path d="M9.45654 45.1563L9.45654 47.1779L4.8922 47.1779L4.8922 45.3296C4.8922 45.3296 4.9499 44.0011 6.44998 43.5967C7.08463 43.3657 7.89236 43.5967 8.18725 43.7122C8.52701 43.8278 9.22576 44.2321 9.45654 45.1563Z" fill="white"/>
<path fill-rule="evenodd" clip-rule="evenodd" d="M27.605 52.1007C29.5089 52.3253 32.5155 54.6999 32.1116 56.5483C31.7078 58.3966 29.2204 60.1359 27.0793 59.7893C24.9446 59.4363 22.1111 57.7613 22.4573 55.1042C22.8034 52.4408 25.2331 51.8632 27.605 52.1007ZM22.8034 46.5492C22.8034 44.566 25.0792 42.9615 27.8935 42.9615C30.7013 42.9615 32.9771 44.566 32.9771 46.5492C32.9771 48.5323 30.7013 50.1304 27.8935 50.1304C25.0792 50.1304 22.8034 48.5323 22.8034 46.5492ZM20.8995 35.4462C20.8995 35.4462 25.1177 35.8505 25.3484 38.7386C25.5792 41.049 23.0342 42.7305 21.5918 42.9038C20.6687 43.0193 16.3929 43.4814 15.6428 39.9002C14.8864 36.3703 18.9956 35.0354 20.8995 35.4462ZM13.3863 62.0998C13.3286 58.1656 16.0467 57.9923 18.0083 57.9923C20.0918 57.9923 22.9765 58.3966 22.9765 61.5799C22.9765 64.699 19.9187 65.5655 18.8738 65.5655C17.8929 65.5655 13.5017 65.9762 13.3863 62.0998ZM2.80882 62.7352C-1.75552 60.7713 0.616397 53.6025 0.616397 53.6025C0.616397 53.6025 1.48183 50.939 0.789482 47.8777C0.148422 44.8099 0.379204 42.1529 0.379204 42.1529C0.379204 42.1529 0.32151 38.5653 4.83456 37.5256C9.3989 36.5436 11.8798 41.1068 12.2901 41.4598C12.7516 41.8063 14.3671 44.2323 16.9121 45.7341C19.5084 47.2359 21.5341 51.8632 16.5082 55.1042C13.0978 57.4725 9.91816 61.5799 9.91816 61.5799C9.91816 61.5799 7.54624 64.6413 2.80882 62.7352ZM3.0396 49.3795L14.3094 49.3795L14.3671 47.2936L11.3028 47.2936L11.3028 44.8099C11.3028 44.8099 11.1298 42.3262 8.30269 41.4598C6.39234 41.1068 5.29613 41.6908 5.06535 41.8063C4.83457 41.8641 3.44347 42.6727 3.0396 44.6944L3.0396 49.3795ZM3.09729 57.941L11.0144 57.941L11.0144 55.6241L5.06534 55.6241L5.06534 53.4292C5.06534 53.4292 5.18074 52.736 5.75769 52.6205L11.0721 52.6205L11.0144 50.4192L5.12304 50.4192C5.12304 50.4192 3.61655 50.5347 3.09729 52.6205L3.09729 57.941Z" fill="white"/>
<path fill-rule="evenodd" clip-rule="evenodd" d="M17.8352 30.4723L17.8352 34.0535L14.6555 34.0535L14.6555 30.4723L17.8352 30.4723ZM13.3286 30.4723L13.3286 34.0535L0.904829 34.0535L0.90483 30.4723L13.3286 30.4723ZM9.80273 28.6817L0.90483 28.6817L0.90483 19.0227C1.3087 16.9433 2.86647 16.2502 3.09725 16.1346C3.32803 16.0769 4.02038 15.8972 5.35378 16.0191C8.18726 16.8278 8.41804 19.196 8.41804 19.196L8.41804 25.3251L9.34116 25.3251C10.322 25.3251 10.7259 23.7078 10.7259 23.7078L10.7259 17.0011L13.3286 17.0011L13.3286 24.632C12.8093 28.2774 9.74503 28.7394 9.80273 28.6817ZM5.98843 25.2674L5.98843 20.4667C5.98843 20.4667 5.81534 19.8314 5.0653 19.427C4.66143 19.2538 4.25116 19.3693 4.13577 19.427C4.02038 19.4848 3.61651 19.7158 3.32803 20.3512L3.32803 25.2674L5.98843 25.2674ZM0.731744 9.89001L0.731745 -7.52749e-07L17.9506 0L17.9506 8.78613C17.9506 8.78613 18.1878 14.4532 13.5593 14.6842C13.5593 14.6842 10.5528 14.973 9.34116 12.6626C9.34116 12.6626 8.30265 15.3838 5.29608 15.2618C5.29608 15.2618 0.731744 15.6661 0.731744 9.89001ZM4.71913 11.0452C5.41147 11.5651 6.3346 11.334 6.3346 11.334C7.32183 10.9297 7.55261 9.82583 7.55261 9.82583L7.6103 9.65255L7.6103 3.7609L3.9114 3.7609L3.9114 9.65255C4.08448 10.6987 4.77683 11.103 4.71913 11.0452ZM13.7324 11.0452C14.7196 10.6409 14.6555 9.42151 14.6555 9.42151L14.6555 3.7609L11.0784 3.7609L11.0784 9.47927C11.1938 10.519 11.9439 10.9297 11.9439 10.9297C12.6362 11.334 13.6747 11.103 13.7324 11.0452ZM5.41147 102L2.98186 102L2.92416 100.781L0.73174 100.781L0.73174 98.2391L2.80877 98.2391L2.4049 93.4385L1.1933 93.4385L1.1933 92.4565C1.13347 91.5324 1.71042 91.0703 2.92416 91.0703L10.6746 91.0125L10.6746 92.9764L3.796 93.0919C3.50752 93.0919 3.39213 93.2074 3.39213 93.323L3.39213 93.4385L4.83452 93.4385L5.23838 98.2969L17.0275 98.2969L17.0275 100.781L5.35377 100.781L5.41147 102ZM7.72569 94.6001L10.6105 94.2536L10.6105 96.333L8.8219 96.6218C8.36034 96.6795 8.12956 96.917 8.18725 97.3149L8.18725 97.7257L6.2769 97.7257L6.2769 96.3907C6.2192 95.12 6.68718 94.5424 7.72569 94.6001ZM13.0401 94.6001L16.2197 94.2536L16.2197 96.333L14.1427 96.6218C13.617 96.6795 13.3862 96.8528 13.4439 97.2572L13.4439 97.7834L11.4246 97.7834L11.4246 96.0442C11.4246 95.6398 11.54 95.2933 11.7131 95.12C11.9439 94.8889 12.4054 94.7157 13.0401 94.6001ZM13.3285 93.676L11.3092 93.676L11.3092 90.1461L0.904827 90.1461L0.904827 88.0667L11.3092 88.0667L11.3092 84.9989L13.3862 84.9989L13.3862 88.0667L14.3735 88.0667L14.3735 85.0567L16.5082 85.0567L16.5082 90.3194C16.5082 90.6082 16.6236 91.128 16.9121 91.128L17.2005 91.128L17.2005 93.6182L16.3351 93.6182C15.5851 93.6182 14.9504 93.5027 14.7773 93.2716C14.5466 93.0406 14.4312 92.463 14.4312 91.6543L14.4312 90.3194L13.3285 90.3194L13.3285 93.676ZM10.6105 85.2942L10.6105 87.4313L2.75108 87.3158C1.53947 87.3736 1.02022 86.7959 1.13561 85.583L1.13561 84.6588L3.03955 84.6588L3.03955 84.9476C3.03955 85.1209 3.21905 85.1786 3.62292 85.2364L10.6105 85.2942ZM16.7903 67.3111L16.7903 83.1506L14.3671 83.1506L14.3671 77.4322L12.8606 76.9059L12.8606 82.6949L2.23182 82.6949C2.23182 82.6949 0.783024 82.8104 0.783024 81.36L0.783025 67.6L12.8606 67.6L12.8606 73.3825L14.3094 74.0179L14.3094 67.1956L16.7903 67.3111ZM5.80893 80.0315L5.80893 70.4944L2.97545 70.4944L2.97545 79.6271C2.97545 79.8582 3.37931 80.0315 3.37931 80.0315L5.80893 80.0315ZM8.06545 70.4303L8.06545 79.9737L10.7258 79.9737L10.7258 70.4303L8.06545 70.4303Z" fill="white"/>
</svg>
