<svg width="110" height="32" viewBox="0 0 110 32" fill="none" xmlns="http://www.w3.org/2000/svg">
<mask id="mask0_133_68" style="mask-type:luminance" maskUnits="userSpaceOnUse" x="0" y="0" width="110" height="32">
<path d="M0 0H110V31.1527H0V0Z" fill="white"/>
</mask>
<g mask="url(#mask0_133_68)">
<path fill-rule="evenodd" clip-rule="evenodd" d="M15.5788 31.1544C6.96438 31.1544 0 24.19 0 15.5756C0 6.96123 6.96438 -0.00314331 15.5788 -0.00314331C24.1931 -0.00314331 31.1575 6.96123 31.1575 15.5756C31.1575 24.19 24.1931 31.1544 15.5788 31.1544ZM19.5319 9.22998C21.45 9.22998 22.9763 10.6256 22.9763 12.5369V18.5387C22.9763 20.45 21.5669 21.8869 19.6488 21.8869H17.3594L17.3663 27.6825C23.2788 26.8162 27.8094 21.7219 27.8094 15.5756C27.8094 9.42248 23.265 4.33498 17.3594 3.47561V9.22998H19.5319ZM8.1125 12.5437C8.1125 10.6325 9.27437 9.22311 11.1925 9.22311L13.7363 9.21623V3.49623C7.85813 4.38311 3.34813 9.44998 3.34813 15.5756C3.34813 21.7081 7.85813 26.7887 13.7363 27.6756L13.7294 21.9281H11.5981C9.68 21.9281 8.1125 20.45 8.1125 18.5387V12.5437ZM19.3463 18.58C19.3463 18.58 19.4631 18.5387 19.525 18.4837C19.5869 18.4356 19.6488 18.2844 19.6488 18.2844V12.9494C19.6488 12.9494 19.5869 12.7019 19.47 12.64C19.3325 12.5644 19.2156 12.585 19.2156 12.585H11.8594C11.8594 12.585 11.6875 12.585 11.5913 12.695C11.495 12.805 11.5019 12.9906 11.5019 12.9906V18.1881C11.5019 18.1881 11.4744 18.2706 11.5638 18.415C11.6462 18.5594 11.8181 18.58 11.8181 18.58H17.3938H19.3463Z" fill="white"/>
</g>
<mask id="mask1_133_68" style="mask-type:luminance" maskUnits="userSpaceOnUse" x="0" y="0" width="110" height="32">
<path d="M0 0H110V31.1527H0V0Z" fill="white"/>
</mask>
<g mask="url(#mask1_133_68)">
<path fill-rule="evenodd" clip-rule="evenodd" d="M104.081 29.8141C104.081 29.8141 104.101 29.7041 104.15 29.6491C104.198 29.6079 104.473 29.5322 104.583 29.3947C104.693 29.2572 106.975 24.0941 106.975 24.0941L107.113 24.0597L109.21 28.8722C109.347 29.1885 109.443 29.3947 109.519 29.4772C109.608 29.5529 109.815 29.6422 109.959 29.6491C110.041 29.656 109.993 29.7797 109.993 29.7797H107.69C107.69 29.7797 107.539 29.6629 107.69 29.601C107.786 29.5666 108.158 29.4497 108.213 29.216C108.24 29.1129 108.185 28.8654 108.082 28.5904C108.013 28.391 107.8 27.9579 107.683 27.8754C107.58 27.7997 107.147 27.841 106.748 27.8272C106.384 27.8135 105.91 27.7997 105.751 27.8822C105.566 27.9854 105.353 28.7829 105.311 28.8997C105.27 29.0235 105.311 29.2985 105.415 29.381C105.593 29.5185 105.944 29.6285 106.068 29.6629C106.116 29.6766 106.102 29.8072 106.102 29.8072L104.081 29.8141ZM107.566 27.4491C107.628 27.3735 107.408 26.9472 107.202 26.4935C107.051 26.1566 106.796 25.4966 106.714 25.5241C106.652 25.5379 106.446 26.0604 106.281 26.4316C106.102 26.8372 105.889 27.346 105.978 27.4285C106.026 27.4766 106.418 27.511 106.748 27.4972C107.126 27.4835 107.511 27.5247 107.566 27.4491ZM39.6552 29.5872C39.937 29.5116 40.1433 29.436 40.2258 29.3329C40.322 29.216 40.3564 29.1404 40.3564 28.8241V25.0772C40.3564 24.8504 40.3014 24.7197 40.1708 24.5822C39.9164 24.3072 39.6208 24.486 39.5727 24.3829C39.5383 24.3004 39.552 24.1629 39.552 24.1629H41.9102C42.5839 24.1629 43.0377 24.1904 43.4364 24.3966C43.7389 24.5479 44.1033 24.9122 44.1033 25.4554C44.1033 26.2116 43.4983 26.4797 43.2508 26.6516C43.7183 26.7822 44.4883 27.0504 44.4883 27.9304C44.4883 28.8379 43.9864 29.4154 43.5052 29.5666C43.1752 29.6697 42.7695 29.7385 42.2952 29.7385H39.6552V29.5872ZM58.4583 29.5872C58.4652 29.601 58.7539 29.5185 58.8845 29.3191C58.9464 29.216 59.0358 29.0716 59.0358 28.7141V25.1322C59.0358 24.9054 58.9602 24.6922 58.8708 24.6029C58.7814 24.5135 58.6302 24.4172 58.307 24.3966C58.307 24.3966 58.0595 24.2385 58.307 24.1697C58.3208 24.1835 60.4727 24.1697 60.4727 24.1697C60.4727 24.1697 60.672 24.2316 60.5002 24.321C60.342 24.4035 60.2045 24.3485 60.0739 24.486C59.9845 24.5891 59.9364 24.7747 59.9364 25.0841V26.851C59.9364 26.9197 60.0052 27.0229 60.0258 27.0297C60.1427 27.0366 60.2114 26.8922 60.2733 26.8647C60.507 26.6654 60.8714 26.2735 61.1945 25.9572C61.7858 25.4004 62.0814 25.1116 62.1777 24.981C62.3083 24.8022 62.3358 24.5547 62.2602 24.4722C62.1777 24.3829 62.0058 24.3829 61.8545 24.3347C61.8545 24.3347 61.7102 24.2385 61.8752 24.1835C61.8752 24.1904 63.807 24.1835 63.807 24.1835C63.807 24.1835 63.8758 24.3554 63.7727 24.4035C63.5045 24.431 63.4083 24.486 63.2433 24.5685C63.092 24.6441 62.7758 24.871 62.5008 25.146C62.5008 25.146 61.0845 26.356 61.1395 26.5004C61.222 26.7204 62.0333 27.676 62.5902 28.446C62.8239 28.7691 63.0645 29.1816 63.202 29.2847C63.3327 29.381 63.5389 29.5804 63.7177 29.5804C63.917 29.5804 63.8208 29.766 63.8208 29.766C63.8208 29.766 62.7208 29.7247 62.5352 29.7454C62.4045 29.7522 62.2464 29.5185 62.2533 29.5185C61.8202 28.9616 60.5895 27.236 60.4933 27.1329C60.452 27.0985 59.9433 27.4697 59.9364 27.786C59.9433 27.7791 59.9364 28.831 59.9364 28.831C59.9364 29.1404 60.0052 29.2985 60.0945 29.3879C60.2527 29.5391 60.6377 29.5872 60.6377 29.5804C60.8095 29.6285 60.6927 29.7454 60.6927 29.7454H58.362C58.362 29.7454 58.2864 29.6285 58.4583 29.5872ZM51.2395 29.5941C51.3977 29.5322 51.6864 29.3535 51.7964 29.2297C51.9064 29.0991 51.982 28.996 51.982 28.5491C51.982 28.5491 51.9614 25.8335 51.9614 25.4347C51.9614 25.1116 51.8445 24.6716 51.6933 24.5547C51.5352 24.4379 51.3564 24.3691 51.1639 24.3554C51.1639 24.3554 51.0127 24.1972 51.1777 24.156C51.2258 24.1491 52.642 24.156 52.642 24.156L56.107 27.9854C56.107 27.9854 56.2377 28.1572 56.3133 28.116C56.327 28.1091 56.3477 27.9441 56.3477 27.9304C56.3614 27.6347 56.3545 25.3866 56.3545 25.3866C56.3545 25.146 56.4027 24.871 56.2308 24.6854C56.0245 24.4447 55.6052 24.4035 55.4883 24.3554C55.392 24.321 55.392 24.2179 55.4952 24.1835C55.4952 24.211 57.3445 24.1835 57.3445 24.1835C57.4752 24.1904 57.3789 24.321 57.3789 24.321C57.1727 24.3829 56.9664 24.4241 56.8702 24.5547C56.7533 24.706 56.6914 24.9397 56.6914 25.3866V29.8416H56.5333C56.5333 29.8416 52.7314 25.7097 52.4977 25.4829C52.3945 25.3729 52.3602 25.5172 52.3602 25.6547C52.3602 25.7991 52.3464 28.501 52.3464 28.501C52.3464 28.9685 52.4427 29.2504 52.7383 29.4085C52.8552 29.4635 53.1508 29.5391 53.2814 29.5666C53.3433 29.5804 53.3708 29.7454 53.3708 29.7454H51.2395C51.2395 29.7454 51.1845 29.6147 51.2395 29.5941ZM44.9283 29.7591C44.9283 29.7591 44.9489 29.6491 44.997 29.601C45.0452 29.5529 45.3202 29.4841 45.4302 29.3466C45.5333 29.2022 47.8158 24.0391 47.8158 24.0391L47.9602 24.0047L50.057 28.8172C50.1945 29.1335 50.2839 29.3466 50.3733 29.4291C50.4558 29.5047 50.662 29.5872 50.8064 29.601C50.8889 29.6079 50.8408 29.7316 50.8408 29.7316L48.5102 29.7866C48.5102 29.7866 48.4277 29.6629 48.5789 29.601C48.6752 29.5666 48.9983 29.4016 49.0602 29.1679C49.0877 29.0579 49.0327 28.8172 48.9295 28.5354C48.8539 28.336 48.6477 27.9029 48.5308 27.8204C48.4277 27.7447 47.9945 27.786 47.5958 27.7791C47.2314 27.7654 46.7502 27.7516 46.5989 27.8341C46.4133 27.9372 46.2002 28.7279 46.152 28.8516C46.1108 28.9754 46.152 29.2504 46.262 29.3329C46.4339 29.4704 46.7914 29.5804 46.9152 29.6147C46.9633 29.6285 46.9495 29.7522 46.9495 29.7522L44.9283 29.7591ZM48.4139 27.401C48.4758 27.3254 48.2558 26.8922 48.0564 26.4385C47.8983 26.1016 47.6439 25.4416 47.5614 25.4691C47.4995 25.4829 47.2933 26.0054 47.1283 26.3835C46.9495 26.7822 46.7364 27.291 46.8258 27.3735C46.8739 27.4285 47.2658 27.456 47.5958 27.4422C47.9739 27.4354 48.3658 27.4697 48.4139 27.401ZM43.2095 25.6135C43.2095 25.2354 42.9895 24.8847 42.7489 24.6854C42.6114 24.5685 42.3364 24.4241 42.0339 24.4241C41.6145 24.4241 41.3327 24.486 41.3327 24.8847V26.3697C41.2983 26.7204 42.137 26.631 42.137 26.631C42.8452 26.631 43.1958 26.5347 43.2095 25.6135ZM43.4845 28.5835C43.6083 27.9854 43.4777 27.5866 43.127 27.291C42.9552 27.1535 42.5152 26.9404 42.1508 26.9404C41.6558 26.9404 41.3258 26.8991 41.3258 27.4491L41.3327 28.8035C41.3327 29.5666 42.2814 29.4841 42.2814 29.4841C43.0514 29.4841 43.3952 29.0372 43.4845 28.5835ZM73.597 29.6354C73.597 29.6491 73.8927 29.5391 74.0164 29.436C74.1127 29.3604 74.1814 29.2091 74.1814 28.8379L74.1952 25.2972C74.1952 24.9947 74.1608 24.8572 74.0577 24.6991C73.9477 24.5341 73.6933 24.4997 73.3908 24.4516C73.3908 24.4516 73.1639 24.2866 73.322 24.2179C73.3083 24.2179 74.9652 24.2316 75.7627 24.2385C76.5877 24.2522 77.3989 24.1697 77.4883 24.2316C77.5914 24.3004 77.5364 25.0841 77.557 25.2354C77.5639 25.3179 77.502 25.4829 77.4264 25.4897C77.3302 25.5035 77.3095 25.3385 77.3095 25.2354C77.3095 25.0222 77.1308 24.7816 77.0895 24.7197C76.9727 24.5685 76.7595 24.541 76.6564 24.541H75.3983C75.2814 24.541 75.2539 24.541 75.2127 24.5754C75.1852 24.6166 75.137 24.706 75.1302 24.8229V26.3835C75.1302 26.4729 75.137 26.6035 75.192 26.6241C75.3227 26.6722 76.1614 26.6585 76.1614 26.6585C76.3058 26.6585 76.4639 26.521 76.5189 26.4385C76.5877 26.3147 76.7114 26.1566 76.7733 25.971C76.8077 25.8679 76.9933 25.7854 76.9933 26.0191C76.9933 26.1635 77.0208 27.841 77.0208 27.841C76.9245 27.9716 76.842 27.8066 76.842 27.8066C76.7802 27.4835 76.7252 27.3666 76.6152 27.2566C76.5189 27.1535 76.3745 27.0229 76.1614 27.0229C76.1614 27.0229 75.4533 27.016 75.4395 27.016C75.1645 26.9885 75.1577 27.2772 75.1439 27.3872C75.1439 27.401 75.1302 28.886 75.1302 28.886C75.1439 29.0372 75.1783 29.2435 75.2745 29.3329C75.3708 29.4154 75.6114 29.5872 75.9277 29.6079C76.0789 29.6216 75.9758 29.8004 75.9758 29.8004H73.542C73.542 29.8004 73.4252 29.7179 73.597 29.6354ZM67.767 24.8504C68.2895 24.3554 69.0389 24.1354 69.7952 24.1354C70.5514 24.1354 71.177 24.2522 71.7064 24.7541C72.2633 25.2904 72.552 25.9572 72.5589 26.8647C72.5589 27.7722 72.2633 28.5216 71.6789 29.0579C71.1564 29.546 70.4277 29.8279 69.6852 29.8347C68.9014 29.8347 68.1383 29.6216 67.6158 29.0854C67.0933 28.5422 66.8939 27.8135 66.8939 26.9541C66.8939 26.0604 67.2033 25.3935 67.767 24.8504ZM68.4958 28.9204C68.9564 29.4497 69.2795 29.5666 69.9258 29.5666C70.3658 29.5666 70.8195 29.3054 71.1633 28.886C71.4589 28.5354 71.5964 27.9166 71.5964 27.0022C71.5964 26.081 71.342 25.4691 70.9983 25.0497C70.5995 24.5547 70.1733 24.4447 69.6783 24.4379C69.1764 24.4379 68.6677 24.5685 68.3377 24.9397C67.9802 25.3522 67.822 26.0054 67.8152 26.8991C67.8152 27.7791 68.2345 28.6316 68.4958 28.9204ZM97.8658 29.5872C97.8658 29.601 98.2439 29.4704 98.3814 29.2572C98.4708 29.1266 98.5258 29.0029 98.5258 28.556L98.4777 25.0566C98.457 24.7885 98.2508 24.6029 98.1614 24.5547C98.0445 24.4997 97.852 24.5066 97.7489 24.4241C97.7489 24.4241 97.5152 24.2522 97.7145 24.2179C97.7008 24.2247 99.1308 24.1697 99.1514 24.2247C99.3095 24.321 101.544 26.8029 102.465 27.8685C102.775 28.2329 102.891 28.171 102.878 27.8204C102.891 27.8204 102.891 25.201 102.891 25.201C102.891 24.8229 102.706 24.6991 102.623 24.6372C102.451 24.5135 102.293 24.4241 102.011 24.376C102.011 24.376 101.778 24.3004 102.011 24.2247C102.025 24.2316 103.854 24.2247 103.854 24.2247C103.978 24.2179 103.978 24.321 103.854 24.3554C103.689 24.3554 103.49 24.486 103.386 24.6097C103.276 24.7404 103.221 25.0154 103.221 25.4622V29.7454C103.208 29.9379 103.022 29.8347 103.022 29.8347C103.022 29.8347 99.5295 26.0329 99.117 25.5654C99.1102 25.5585 99.0483 25.4485 98.952 25.5172C98.8833 25.5654 98.8764 25.586 98.8833 25.6891C98.8833 25.7029 98.897 28.556 98.897 28.556C98.897 29.0235 99.0552 29.2779 99.1927 29.4154C99.2752 29.5047 99.4195 29.5804 99.7289 29.6079C99.9145 29.601 99.8802 29.8004 99.8802 29.8004H97.742C97.742 29.8004 97.7077 29.6354 97.8658 29.5872ZM94.6139 29.6491C94.6964 29.6285 94.8752 29.5254 94.9783 29.4497C95.0745 29.3672 95.1295 29.216 95.1364 28.886L95.1502 25.2697C95.1364 25.036 95.1364 24.7541 95.0264 24.6372C94.8545 24.4654 94.662 24.3966 94.3183 24.376C94.3183 24.376 94.167 24.3004 94.3183 24.2247C94.3252 24.2385 96.642 24.2247 96.642 24.2247C96.8277 24.2522 96.6145 24.376 96.6145 24.376C96.4289 24.3829 96.2777 24.4791 96.2089 24.5685C96.0989 24.6991 96.1058 24.9604 96.0852 25.1529V28.886C96.0852 29.2091 96.1952 29.4016 96.2983 29.4841C96.4014 29.5597 96.5183 29.6216 96.862 29.6491C97.082 29.6835 96.862 29.8004 96.862 29.8004H94.6139C94.4352 29.7454 94.6139 29.6491 94.6139 29.6491ZM87.3058 29.6285C87.2989 29.6285 87.6564 29.3879 87.7389 29.2985C87.8214 29.2091 87.897 29.0647 87.897 28.7004L87.9177 25.2147C87.9177 24.9122 87.8558 24.7404 87.787 24.6235C87.7045 24.486 87.5189 24.4654 87.2027 24.4379C87.2027 24.4379 86.7558 24.3347 87.1683 24.2316C87.1614 24.2454 89.3545 24.2316 89.3545 24.2316C89.5883 24.2385 89.3958 24.376 89.3958 24.376C89.217 24.3829 89.0727 24.4379 88.9902 24.5479C88.9077 24.6441 88.832 24.8229 88.8458 25.1322V26.3697C88.8458 26.3697 88.832 26.6585 89.0864 26.6516C89.4645 26.631 91.1489 26.686 91.4102 26.6654C91.7127 26.6379 91.7677 26.4522 91.7677 26.3079C91.7814 25.9572 91.7677 25.1735 91.7677 25.1735C91.7677 24.871 91.6852 24.6372 91.5958 24.5479C91.5064 24.4585 91.307 24.4035 90.9908 24.376C90.7708 24.3485 90.9289 24.2247 90.9289 24.2247H93.2527C93.2527 24.2247 93.3695 24.3554 93.1839 24.3829C92.9983 24.3691 92.9227 24.4516 92.8264 24.5479C92.737 24.6372 92.6958 24.8297 92.6958 25.1322V28.8516C92.6958 29.1541 92.7508 29.2504 92.847 29.3466C92.9364 29.4222 93.0395 29.5666 93.3489 29.601C93.5139 29.6285 93.5827 29.7866 93.397 29.8004C93.4108 29.821 91.2658 29.8485 91.2658 29.8485C91.2658 29.8485 90.9839 29.7179 91.3002 29.6079C91.3002 29.6216 91.5477 29.5322 91.6439 29.381C91.6989 29.2779 91.747 29.0029 91.747 28.8172C91.747 28.8172 91.7608 27.5179 91.7608 27.3185C91.7608 27.181 91.7127 26.9885 91.5202 27.0229C91.5202 27.0229 89.2377 27.016 89.052 27.0022C88.9214 26.9885 88.8389 27.0572 88.8389 27.3047C88.8458 27.2979 88.8389 28.7829 88.8389 28.7829C88.8389 29.0854 89.0039 29.3329 89.1002 29.4222C89.1895 29.5116 89.3614 29.5941 89.6708 29.6285C89.9458 29.6629 89.7395 29.8004 89.7395 29.8004H87.2508C87.2508 29.8004 87.1133 29.6697 87.3058 29.6285ZM84.9752 24.3829C85.2777 24.5341 85.5183 24.6647 85.6489 24.651C85.7245 24.6441 85.7933 24.4791 85.8208 24.3829C85.9514 24.2041 85.9927 24.5204 85.9927 24.5066L86.1027 26.0879C86.1027 26.0879 85.9927 26.2391 85.8895 26.0879C85.7795 25.7166 85.4839 25.2972 85.2845 25.0841C84.9752 24.7541 84.4252 24.4241 83.8408 24.4172C83.1739 24.4035 82.7133 24.6785 82.3695 25.1047C82.0739 25.4691 81.902 26.081 81.902 26.7135C81.902 27.456 82.2183 28.3222 82.6652 28.7485C83.0914 29.1541 83.552 29.3604 84.1639 29.3672C84.597 29.3672 84.8377 29.2504 85.2089 29.0372C85.422 28.9204 85.7039 28.6179 85.9652 28.3704C86.1164 28.2397 86.192 28.4185 86.192 28.4185C86.2195 28.5491 85.7314 29.051 85.3395 29.3672C85.0508 29.601 84.2877 29.8691 83.9027 29.8691C82.9952 29.8691 82.4727 29.821 81.6752 29.1129C81.2283 28.7072 80.9739 27.8685 80.967 27.0641C80.967 26.246 81.2283 25.5585 81.7439 25.0016C82.2939 24.4172 82.9952 24.1216 83.882 24.1216C84.1845 24.1216 84.6864 24.2316 84.9752 24.3829ZM58.2314 3.90223C58.1833 3.79223 58.472 3.41411 59.2283 2.46536C59.902 1.62661 61.3045 1.06973 61.8752 0.863484C61.9989 0.822234 62.4114 0.705359 62.5489 0.670984C62.652 0.650359 63.0783 0.629734 63.1814 0.602234C63.3808 0.533484 63.7177 0.554109 63.7727 0.526609C63.9239 0.450984 64.0752 0.416609 64.247 0.382234C64.4395 0.334109 64.687 0.444109 64.8658 0.409734C65.2095 0.347859 65.4777 0.540359 65.6702 0.643484C66.3302 0.987234 67.052 2.21098 67.3202 2.90536C67.5952 3.59973 68.152 5.54536 68.2552 7.14036C68.317 8.15786 68.2758 10.8322 68.2414 11.2379C68.1658 11.9666 68.1383 13.6785 68.0902 14.0085C68.0283 14.4004 67.9802 15.081 67.8358 15.3285C67.5745 15.7754 66.4952 16.5797 66.2683 16.786C66.0758 16.9647 65.2577 17.6729 65.1683 17.666C65.0514 17.6591 64.9139 17.4185 64.6595 17.171C64.2058 16.7241 63.0233 16.3047 62.5214 16.0297C62.0333 15.7616 60.4245 15.6104 59.4414 15.5485C58.7402 15.5072 57.6677 15.411 57.6333 15.3285C57.5989 15.2391 57.5164 15.2666 57.4133 15.2666C57.317 15.2666 57.3033 15.3835 57.2827 15.4316C57.2483 15.5004 57.3239 15.466 57.2895 15.6654C57.2552 15.8647 57.3514 15.7341 57.372 15.8991C57.3927 16.0641 57.4614 15.9954 57.4064 16.1466C57.3445 16.2979 57.647 16.4079 57.702 16.566C57.7708 16.7654 57.7639 17.0129 57.5577 17.0197C57.3308 17.0335 57.1314 17.1229 56.8908 17.0404C56.712 16.9785 56.1139 16.4354 56.0795 16.0916C56.0589 15.8029 56.0108 15.136 55.9902 14.9229C55.9489 14.5516 55.8114 13.5685 55.7702 13.0735C55.7289 12.5854 55.6808 12.6885 55.777 12.4891C55.8733 12.2897 55.6258 12.2622 55.7083 12.001C55.7702 11.8085 55.6945 11.451 55.8045 11.2172C55.8527 11.1072 55.722 11.1141 55.7358 11.0041C55.7495 10.8666 55.7633 10.7704 55.7977 10.6329C55.8252 10.5229 55.8114 10.3991 55.8045 10.1997C55.7908 10.0004 55.7977 9.91786 55.8802 9.78036C55.9283 9.69098 55.832 9.64973 55.8458 9.47786C55.8527 9.37473 55.9764 8.46036 56.0245 8.10973C56.0795 7.75911 56.1552 6.83098 56.2239 6.70723C56.4027 6.37723 56.5058 5.61411 56.5745 5.34598C56.657 5.06411 56.9045 4.80973 56.9595 4.58973C56.9802 4.50036 57.1383 4.41786 57.1933 4.45223C57.2758 4.50723 57.3102 4.74786 57.3033 4.84411C57.3033 4.97473 57.2139 5.57286 57.1589 5.68973C57.0833 5.84786 57.0077 6.39098 56.9939 6.47348C56.9733 6.61786 56.9664 6.78973 56.9527 6.89286C56.9389 6.99598 56.8702 7.14036 56.8358 7.25723C56.8014 7.35348 56.8564 7.54598 56.8289 7.64223C56.7877 7.76598 56.8014 7.84848 56.7395 7.95848C56.6845 8.05473 56.7739 8.15098 56.7395 8.23348C56.6914 8.33661 56.7808 8.43286 56.712 8.54973C56.6364 8.67348 56.7602 8.70098 56.7189 8.85223C56.6708 9.04473 56.6777 9.19598 56.6364 9.28536C56.5883 9.38161 56.7189 9.49848 56.6708 9.67036C56.6158 9.90411 56.657 11.231 56.6158 11.4922C56.5814 11.7604 56.5952 12.606 56.6227 12.7572C56.6502 12.8604 56.657 13.0735 56.7533 13.0597C56.8633 13.0529 56.8839 12.6679 57.0008 12.6954C57.0695 12.7022 57.0283 12.9222 57.042 13.0666C57.0764 13.3347 57.0558 13.1079 57.1177 13.5822C57.1589 13.8985 57.1039 14.421 57.152 14.586C57.2002 14.751 57.1727 14.9022 57.3445 14.9022C57.4958 14.9022 57.4408 14.7854 57.5577 14.641C57.6814 14.4897 57.6883 14.4622 57.7845 14.5379C57.867 14.5997 58.4377 14.5929 58.6233 14.5585C58.8708 14.5172 59.0358 14.3179 59.2008 14.1941C59.4002 14.0429 60.1839 13.3072 60.5758 12.9704C60.7477 12.8191 61.2358 12.2416 61.4283 12.056C61.7377 11.7535 62.2258 11.2447 62.3014 11.1554C62.3633 11.0866 62.3839 10.9972 62.3152 10.8666C62.2739 10.7841 62.212 10.7704 62.1295 10.8185C61.9302 10.9285 61.6689 11.2654 61.4695 11.3891C61.1189 11.616 60.6789 11.9116 60.4314 12.056C60.1633 12.2141 59.7714 12.3997 59.5239 12.5372C59.2077 12.716 58.8502 12.8329 58.7952 12.8535C58.6783 12.9154 58.637 12.9497 58.5339 12.8604C58.4377 12.7916 58.4652 12.8329 58.5545 12.5372C58.6164 12.3379 58.4652 12.1247 58.6852 11.836C58.8227 11.6504 58.9602 11.176 59.187 10.8941C59.2695 10.7979 59.7027 10.2547 59.792 10.1104C59.8677 9.99348 60.0052 9.93161 60.0258 9.89036C60.1014 9.74598 60.1908 9.57411 60.232 9.55348C60.3764 9.47786 60.5277 9.25786 60.5483 9.23036C60.5964 9.17536 60.617 9.14098 60.5895 9.04473C60.5758 9.00348 60.5002 8.87973 60.4108 8.98286C60.3214 9.09973 60.1427 9.12723 60.0739 9.17536C59.9433 9.26473 59.9777 9.42286 59.847 9.42973C59.6545 9.45036 59.6752 9.14098 59.7027 9.03098C59.7302 8.90723 59.6339 8.87973 59.6889 8.74911C59.8264 8.46036 59.792 8.42598 59.8264 8.36411C59.8608 8.30911 59.8952 8.35723 59.9639 8.26786C60.012 8.20598 59.9227 8.12348 59.9777 8.05473C60.1014 7.91036 60.1358 7.74536 60.2527 7.66973C60.3833 7.59411 60.6102 7.29161 60.6308 7.20911C60.6652 7.10598 60.672 7.00973 60.7064 6.90661C60.7202 6.87223 60.5827 6.85161 60.5345 6.78973C60.4727 6.71411 60.5208 6.67286 60.5483 6.54223C60.562 6.47348 60.4245 6.39098 60.4245 6.29473C60.4245 6.19161 60.4108 6.14348 60.287 6.15036C60.1564 6.16411 59.8745 6.45286 59.6477 6.49411C59.4139 6.54223 59.2283 6.37723 59.3452 6.14348C59.4964 5.85473 59.847 5.43536 59.9158 5.35286C60.0258 5.23598 60.0052 5.11911 59.9914 5.00223C59.9845 4.88536 59.8745 4.61723 59.8402 4.33536C59.8195 4.17036 59.6408 3.56536 59.6064 3.48973C59.5789 3.44161 59.5308 3.29723 59.6614 3.24223C59.7233 3.22161 59.8402 3.35223 59.9158 3.46911C60.0395 3.64786 60.2252 3.97786 60.287 4.09473C60.3558 4.23911 60.4245 4.39036 60.4589 4.50723C60.4795 4.58973 60.5345 4.74098 60.6514 4.75473C60.7683 4.76848 60.837 4.75473 60.9127 4.68598C61.0295 4.56911 61.6552 4.32848 61.9233 4.23223C62.047 4.19098 62.1227 4.16348 62.2602 4.24598C62.3358 4.29411 62.432 4.56223 62.4802 4.58973C62.5764 4.63786 62.6177 4.62411 62.5902 4.69973C62.5764 4.74098 62.5902 4.72036 62.4733 4.85786C62.3564 4.99536 62.4595 5.04348 62.3427 5.22911C62.2189 5.41473 62.1227 5.66911 62.0745 5.78598C62.0333 5.90286 61.9233 5.95098 61.8408 6.03348C61.7445 6.12286 61.7789 6.25348 61.7308 6.27411C61.5864 6.34973 61.5864 6.32223 61.5452 6.42536C61.4902 6.52848 61.4695 6.69348 61.5864 6.90661C61.6414 7.00973 61.7514 7.03723 61.7652 7.11973C61.8064 7.27786 61.9164 7.27098 61.9783 7.35348C62.0745 7.49786 62.0539 7.48411 62.1158 7.58036C62.2189 7.74536 62.2052 7.67661 62.3289 7.76598C62.4114 7.82786 62.4802 8.01348 62.5764 8.10973C62.7277 8.26098 62.9202 8.38473 63.0577 8.54973C63.1677 8.68036 63.1745 8.74911 63.1608 8.86598C63.1402 9.05848 63.1814 8.94848 63.1127 9.08598C63.0577 9.18911 63.1127 9.33348 63.1058 9.40223C63.1058 9.53286 63.1058 9.62223 63.0233 9.73911C62.9408 9.85598 62.7002 10.1585 62.652 10.2754C62.6108 10.3716 62.5833 10.4679 62.6245 10.516C62.6933 10.5847 62.7414 10.6122 62.8239 10.5572C62.9752 10.4541 63.4152 9.71848 63.8002 9.23723C63.9995 8.97598 64.4189 8.28161 64.5152 8.09598C64.6114 7.91036 64.907 7.55286 64.9689 7.47036C65.0033 7.42911 65.1064 7.42911 65.127 7.51161C65.1477 7.58036 65.1202 7.66286 65.1408 7.71098C65.1683 7.77286 65.2577 7.73161 65.2645 7.84161C65.2783 7.94473 65.2852 7.99286 65.2508 8.04786C65.2233 8.09598 65.3195 8.11661 65.2645 8.21286C65.2164 8.29536 65.2714 8.46036 65.1408 8.61161C64.9552 8.82473 64.5014 9.42973 64.3089 9.67723C64.0477 10.0072 63.2914 10.9147 63.1677 11.0179C63.1058 11.0729 63.0233 11.1966 63.0645 11.2722C63.1195 11.4029 63.3327 11.7672 63.4633 11.8704C63.6283 12.0079 63.9789 12.2141 64.1233 12.221C64.3089 12.221 64.4258 12.166 64.4877 12.1179C64.7695 11.8979 65.0033 11.4235 65.0927 11.1897C65.2302 10.8666 65.4502 10.1997 65.4639 10.0966C65.4777 9.93161 65.4089 9.75973 65.4158 9.69786C65.4364 9.62223 65.5395 9.64286 65.5602 9.71161C65.5877 9.80786 65.6152 9.97973 65.6358 10.0966C65.677 10.296 65.3814 11.286 65.3264 11.6229C65.2645 12.0354 64.7695 12.7297 64.7283 12.8329C64.7008 12.8879 64.7145 12.9841 64.5977 12.991C64.4602 13.0047 64.412 12.9635 64.3295 12.9429C64.027 12.8604 63.7727 12.6472 63.5802 12.4685C63.3808 12.2897 62.9133 11.726 62.8583 11.6297C62.817 11.561 62.6658 11.451 62.5902 11.5129C62.4664 11.616 62.2739 11.9047 62.1777 11.9735C62.102 12.0285 61.9645 12.0835 61.882 12.166C61.7652 12.2966 61.6208 12.4547 61.4833 12.5854C61.3802 12.6747 60.9264 13.0116 60.8439 13.0872C60.7133 13.2179 60.5552 13.4241 60.4658 13.4929C60.3695 13.5616 60.0533 13.761 59.957 13.8641C59.847 13.981 59.7027 14.2147 59.5789 14.2629C59.4964 14.2972 59.3864 14.4416 59.4689 14.5104C59.5514 14.5791 59.8195 14.4554 59.9983 14.421C60.1358 14.3935 60.3489 14.3935 60.5002 14.3797C60.5964 14.3729 60.6789 14.2766 60.8989 14.2147C61.0845 14.1529 61.2152 14.2354 61.2977 14.2147C61.4008 14.1872 61.4627 14.146 61.6277 14.1047C61.8064 14.0497 62.0608 14.0841 62.1639 14.0429C62.2395 14.0085 62.2327 13.981 62.377 13.8916C62.4733 13.8297 62.5902 13.8847 62.6933 13.8572C62.8239 13.8229 63.0577 13.761 63.3052 13.6647C63.4977 13.596 64.1233 13.4447 64.2195 13.431C64.3089 13.4241 64.4395 13.2247 64.5908 13.1697C64.7902 13.0941 65.1545 13.1629 65.3058 13.0735C65.402 13.0185 65.6083 13.1354 65.7045 13.3141C65.8283 13.5341 65.6839 13.651 65.6495 13.7816C65.5602 14.0979 65.4708 14.2422 65.3677 14.3591C65.2577 14.476 65.2233 14.6822 65.0445 14.7304C64.8452 14.7785 64.7352 14.8129 64.5152 14.7097C64.1233 14.531 63.9102 14.7029 63.6764 14.6547C63.3327 14.5791 63.1952 14.751 63.037 14.7372C62.9477 14.7304 62.6864 14.6891 62.6108 14.7372C62.3839 14.8679 62.2052 14.8335 62.047 14.8816C61.9233 14.916 61.8752 15.0397 61.9439 15.1016C62.0608 15.2047 62.4664 15.3079 62.7964 15.2872C63.3189 15.2529 63.7039 15.3629 63.917 15.3835C64.2264 15.4041 64.4464 15.576 64.6045 15.576C64.7764 15.576 64.8452 15.6585 65.0239 15.7135C65.1408 15.741 65.2783 15.7822 65.402 15.7754C65.5464 15.7616 65.6495 15.8647 65.7114 15.8441C65.9177 15.7685 65.9177 15.7822 66.0345 15.7547C66.1308 15.7341 66.3164 15.4866 66.4539 15.4041C66.6189 15.2872 66.9627 14.9641 67.0314 14.7647C67.107 14.5654 67.1277 14.476 67.2033 14.2147C67.2652 14.0016 67.1689 13.981 67.2514 13.6304C67.327 13.3279 67.2514 12.8397 67.3133 12.6541C67.3545 12.5372 67.3408 12.4754 67.3752 12.3722C67.4233 12.2347 67.3752 12.1247 67.3683 12.0697C67.3545 12.001 67.4645 11.8497 67.4645 11.7535C67.4645 11.671 67.3752 11.6022 67.4302 11.4372C67.5127 11.231 67.4508 11.0179 67.5127 10.9491C67.5677 10.8804 67.4439 10.7635 67.4783 10.6535C67.5333 10.4954 67.5402 9.84911 67.5058 9.51223C67.4645 9.08598 67.5264 8.51536 67.547 8.30911C67.547 8.19911 67.4027 8.11661 67.4508 8.02723C67.5195 7.89661 67.4439 7.69723 67.4233 7.53223C67.3958 7.31911 67.327 6.91348 67.3133 6.66598C67.3064 6.24661 66.9077 3.79911 66.6602 3.18036C66.3027 2.29348 65.3745 1.37223 64.9827 1.20723C64.6183 1.04223 64.1439 1.06973 63.8414 1.06286C63.6077 1.06286 62.7758 1.18661 62.0402 1.42723C61.3802 1.63348 60.6789 1.96348 60.452 2.09411C60.1839 2.25911 59.8745 2.62348 59.6752 2.83661C59.4552 3.06348 59.4002 3.33161 59.3383 3.44848C59.1733 3.78536 59.3383 4.21161 59.3727 4.32848C59.4345 4.52786 59.3795 4.66536 59.297 4.69973C59.1183 4.77536 59.1939 4.78223 58.8502 4.82348C58.7402 4.83723 58.5408 4.74098 58.527 4.65848C58.4927 4.45223 58.3208 4.11536 58.2314 3.90223ZM60.9195 9.21661C60.7133 9.31286 60.6308 9.46411 60.562 9.58786C60.4933 9.71848 60.5483 9.75286 60.3558 9.95911C60.1702 10.1722 60.1839 10.0416 60.067 10.131C59.9502 10.2272 60.1839 10.241 60.0739 10.3304C59.9708 10.4197 59.9914 10.3304 59.847 10.5022C59.7095 10.681 59.6958 10.736 59.902 10.8185C60.1152 10.901 60.0808 10.9629 60.3283 10.791C60.5758 10.6191 60.6927 10.6879 60.9608 10.4472C61.2358 10.2066 61.5039 10.2341 61.7033 10.0004C61.9027 9.76661 61.9302 9.88348 61.8477 9.64286C61.772 9.39536 61.7652 9.44348 61.6758 9.21661C61.5864 8.99661 61.4627 8.78348 61.3939 8.82473C61.3183 8.87286 61.1189 9.12723 60.9195 9.21661ZM62.927 3.84723C63.0027 3.81286 63.1539 3.81286 63.312 3.84036C63.4083 3.85411 63.2433 3.81286 63.6558 3.79223C63.862 3.78536 63.9789 3.89536 64.1645 3.99848C64.6045 4.25286 64.907 4.34223 65.0033 4.47973C65.0789 4.59661 65.1408 4.82348 65.1133 4.99536C65.0858 5.13286 65.072 5.40098 64.8933 5.55223C64.742 5.68286 64.6527 5.79973 64.577 5.87536C64.5083 5.94411 64.5358 6.15723 64.4052 6.19848C64.2539 6.26036 64.1439 6.15036 63.9514 6.15036C63.752 6.14348 63.6008 6.26036 63.5458 6.19848C63.5045 6.15723 63.4564 6.08848 63.3808 6.03348C63.312 5.99223 63.2089 6.01973 63.1952 5.93723C63.1745 5.81348 63.0095 5.46973 62.8858 5.33911C62.8445 5.29098 62.9614 5.05036 62.8927 4.96786C62.8239 4.88536 62.8377 4.75473 62.8239 4.67223C62.817 4.58973 62.817 4.51411 62.817 4.42473C62.817 4.34911 62.707 4.21848 62.762 4.10848C62.7964 4.03973 62.8514 3.88161 62.927 3.84723ZM61.0914 5.57286C61.1739 5.70348 61.1464 5.83411 61.3114 5.71723C61.4764 5.60036 61.4764 5.64848 61.5383 5.39411C61.6002 5.13973 61.7377 5.31161 61.6689 5.12598C61.6002 4.94036 61.717 4.90598 61.4833 5.02973C61.2495 5.15348 60.9952 5.09161 61.0364 5.31848C61.0777 5.53848 61.0089 5.44223 61.0914 5.57286ZM61.7652 8.48098C61.7308 8.69411 61.7445 8.69411 61.8958 8.82473C62.047 8.95536 61.9095 9.17536 62.0608 9.32661C62.212 9.48473 62.0883 9.53973 62.2395 9.40911C62.3908 9.28536 62.4252 9.31973 62.4527 9.14786C62.4802 8.96911 62.4733 9.05161 62.3702 8.90036C62.267 8.74223 62.3702 8.68723 62.1983 8.50161C62.0264 8.30911 62.0195 8.17848 61.9852 8.25411C61.9439 8.32286 61.8064 8.27473 61.7652 8.48098ZM110 8.15786C109.801 8.26786 109.21 8.93473 109.058 9.00348C108.907 9.06536 108.694 8.90723 108.563 8.92786C108.226 8.98286 107.415 9.17536 106.845 9.27848C106.363 9.36786 105.566 9.66348 105.353 9.77348C105.201 9.85598 105.195 9.96598 105.277 10.0416C105.566 10.3166 105.813 10.4472 105.951 10.626C106.04 10.7429 105.903 10.7979 105.861 10.9972C105.82 11.2379 105.662 12.386 105.738 13.0047C105.8 13.5479 106.088 15.1772 106.157 15.631C106.226 16.0297 106.281 16.5729 106.329 16.7791C106.405 17.061 106.301 17.5697 106.191 17.6866C105.8 18.106 105.188 18.7385 105.023 18.7935C104.775 18.876 104.445 18.8691 104.218 18.6766C103.916 18.436 103.806 17.9822 103.71 17.7485C103.558 17.3497 103.111 17.0404 102.802 16.8135C102.245 16.4147 101.035 15.796 100.856 15.3629C100.829 15.301 100.788 15.1772 100.918 15.1291C101.159 15.0466 101.276 15.3491 101.434 15.466C101.743 15.6929 102.005 15.7547 102.231 15.8235C102.575 15.9404 103.201 16.0916 103.345 16.1397C103.703 16.2566 103.881 16.3116 104.15 16.2222C104.335 16.1604 104.638 15.5897 104.651 15.3422C104.686 14.7441 104.555 14.0429 104.569 13.7472C104.61 12.9085 104.596 12.7504 104.679 12.111C104.748 11.6504 104.624 11.2929 104.638 11.0866C104.651 10.8254 104.658 10.4404 104.727 10.2547C104.789 10.1035 104.596 10.1104 104.459 10.1447C103.813 10.3372 103.51 10.6397 102.953 10.901C102.568 11.0866 101.867 11.506 101.592 11.6091C101.393 11.6779 101.235 11.9529 101.118 11.8497C100.987 11.726 100.801 11.7604 100.691 11.5541C100.526 11.2447 100.788 10.956 101.001 10.8322C101.283 10.6604 101.544 10.7635 102.396 10.3441C103.256 9.92473 104.184 9.36098 104.885 9.08598C105.559 8.82473 107.408 8.27473 107.676 8.21286C107.945 8.15786 108.529 8.10286 108.625 8.06161C108.99 7.90348 109.313 7.90348 109.43 7.88286C109.595 7.85536 109.828 7.91036 109.973 7.92411C110.138 7.94473 110.193 8.05473 110 8.15786ZM102.706 6.14348C102.953 6.01973 103.022 6.30848 103.105 6.30848C103.352 6.31536 103.565 6.34286 103.875 6.23973C104.115 6.15723 105.593 5.41473 106.095 5.29786C106.955 5.08473 108.165 4.74786 108.584 4.77536C108.721 4.78223 108.735 4.88536 108.591 4.96098C108.433 5.05036 108.391 5.27723 108.261 5.40098C108.178 5.48348 108.206 5.74473 108.137 5.83411C108.048 5.95098 107.924 6.00598 107.773 6.00598C107.539 6.00598 107.511 6.00598 107.36 5.99911C107.195 5.99911 106.845 6.21911 106.714 6.25348C106.673 6.26036 106.549 6.15723 106.439 6.12973C106.171 6.05411 105.153 6.45973 104.761 6.63161C104.349 6.81723 103.62 7.17473 103.256 7.56661C103.111 7.71098 102.967 7.99286 102.733 7.86223C102.527 7.74536 102.438 7.26411 102.383 7.05098C102.335 6.86536 102.355 6.32223 102.706 6.14348ZM101.386 0.375359C101.606 0.416609 102.018 1.41348 102.245 1.86036C102.321 2.00473 102.369 2.23848 102.417 2.60973C102.431 2.78161 102.596 3.11848 102.555 3.51036C102.534 3.70973 102.589 4.06723 102.52 4.23911C102.472 4.34911 102.286 4.46598 102.286 4.63098C102.286 4.72723 102.128 4.94036 102.032 5.03661C101.888 5.18098 101.791 5.55911 101.702 5.68973C101.523 5.91661 101.07 5.90973 100.746 5.99911C100.513 6.06786 100.231 6.21911 99.9833 6.39098C99.7358 6.56286 99.2889 6.71411 98.9795 6.92723C98.7458 7.09223 98.2645 7.57348 98.1202 7.69036C98.0239 7.76598 97.852 7.90348 98.0102 8.04098C98.1752 8.17848 98.6289 8.10286 99.2477 8.37786C99.6533 8.56348 100.011 8.81098 100.217 9.14786C100.389 9.43661 100.306 9.67723 100.114 9.79411C99.9627 9.88348 99.8595 10.1585 99.5364 10.4266C99.3714 10.571 99.2545 10.9216 98.9864 11.1485C98.787 11.3204 98.0583 12.0904 97.7833 12.3035C97.632 12.4135 97.632 12.606 97.8864 12.7022C98.1202 12.7847 98.8352 13.2935 99.0758 13.6372C99.3302 14.0016 99.4402 14.7922 99.4883 15.4316C99.5158 15.851 99.227 16.4904 99.1102 16.9304C99.0483 17.1572 99.0002 17.2535 98.7183 17.1985C98.6427 17.1847 98.5189 17.0129 98.3952 16.8891C98.2233 16.7104 97.9827 16.6416 97.8589 16.511C97.7214 16.3529 97.5289 16.2704 97.4327 16.1191C97.3227 15.9404 97.3295 15.136 97.3914 14.7716C97.4395 14.4691 97.4877 14.256 97.5633 14.0291C97.6252 13.8435 97.742 13.2316 97.5152 13.1835C97.3845 13.1629 96.9033 13.4241 96.6489 13.5479C96.3602 13.6922 96.037 13.8779 95.8927 14.0429C95.7345 14.2216 95.6452 14.4691 95.6177 14.6547C95.5902 14.8404 95.4595 14.971 95.377 14.9229C95.2052 14.8335 95.0333 14.9091 94.9095 14.9435C94.7377 14.9847 94.6208 14.8266 94.4214 14.751C94.0845 14.6135 94.2427 14.7166 93.947 14.476C93.7614 14.3179 93.3489 13.7197 93.507 13.2866C93.5895 13.0597 93.507 12.9497 93.7477 12.7297C94.3252 12.1935 94.5452 11.8979 95.1364 11.2654C95.4389 10.9285 95.9614 10.3854 96.2777 10.1172C96.4083 10.0141 96.5252 9.82161 96.6214 9.60161C96.6833 9.45723 97.0202 9.20286 96.807 9.06536C96.5733 8.90723 96.2777 8.89348 96.1058 8.96223C95.9408 9.03098 95.8377 8.83848 95.6452 8.73536C95.4664 8.63911 95.2739 8.76973 95.1364 8.66661C94.9783 8.54973 94.8958 8.46723 94.7445 8.35723C94.607 8.26098 94.3458 8.11661 94.4695 7.85536C94.5658 7.65598 94.4902 7.37411 94.7033 7.21598C94.9714 7.00973 95.157 6.80348 95.3495 6.63848C95.7208 6.32223 96.7245 5.16036 97.4052 4.38348C98.1133 3.56536 99.4195 1.62661 99.9283 1.10411C100.038 1.00098 99.9902 0.739734 100.533 0.457859C100.863 0.285984 101.125 0.334109 101.386 0.375359ZM77.5914 7.82098C77.832 7.80036 77.8389 7.91723 77.8527 7.93098C77.9077 7.99973 78.0314 8.30223 78.1277 8.40536C78.2033 8.49473 78.272 8.60473 78.4027 8.65286C78.4714 8.67348 78.4783 8.98973 78.4645 9.13411C78.4508 9.28536 78.0864 9.34723 77.9008 9.48473C77.7839 9.58098 77.7152 9.65661 77.6395 9.75286C77.5433 9.88348 77.5227 9.95223 77.392 10.0622C77.282 10.1585 77.4127 10.6604 77.337 10.8941C77.3027 10.9972 77.4402 10.9904 77.557 10.9904C77.612 10.9904 77.6327 10.8804 77.7083 10.8185C77.8045 10.736 78.0658 10.5504 78.1964 10.4747C78.2858 10.4129 78.162 10.0966 78.3064 10.0622C78.3958 10.0416 78.4027 10.3854 78.4645 10.5229C78.5058 10.626 78.657 11.0179 78.6158 11.176C78.5745 11.3204 78.5539 11.4716 78.5058 11.561C78.4577 11.6572 77.8939 11.8979 77.9489 12.1385C77.9833 12.2829 78.4027 12.0835 78.6158 12.0972C78.7808 12.111 79.0902 12.0835 79.2345 12.0835C79.3789 12.0835 79.647 12.2966 79.8052 12.5716C79.8808 12.716 79.3033 13.2179 79.0077 13.6029C78.712 13.981 77.557 14.9641 77.3164 15.1979C77.1995 15.3147 77.2752 15.7479 77.1789 15.8029C77.0689 15.8716 76.9658 15.8029 76.842 15.8304C76.7458 15.851 76.5877 15.9197 76.5327 16.0297C76.4845 16.1329 76.4777 16.2154 76.567 16.2635C76.6839 16.3185 77.9077 15.7066 78.4989 15.1772C79.1177 14.6204 79.9633 13.7679 80.2727 13.3691C80.5133 13.0735 80.417 11.7947 80.692 10.5504C80.8227 9.97973 81.0977 8.12348 81.297 7.25036C81.5239 6.25348 82.3008 4.69973 82.452 4.47286C82.5139 4.37661 82.4452 4.28723 82.5002 4.20473C82.562 4.10848 82.5827 4.03973 82.7958 4.13598C82.8783 4.17723 83.0158 4.33536 83.0983 4.30098C83.277 4.22536 83.002 4.38348 83.6689 3.73723C84.3289 3.09098 84.9614 2.76786 85.312 2.50661C85.6695 2.24536 85.9102 1.94286 86.082 1.86036C86.2333 1.79848 86.3639 1.86036 86.4189 2.00473C86.4739 2.16286 86.4877 2.38286 86.412 2.65786C86.3639 2.83661 86.2333 3.08411 86.0752 3.44848C86.0133 3.59973 85.8208 4.34223 85.6833 4.74098C85.5527 5.15348 85.3877 6.11598 85.2914 6.28098C85.147 6.53536 85.3189 6.59723 85.2158 6.87911C85.1814 6.96848 84.9958 7.39473 84.8789 7.62848C84.7552 7.87598 84.4114 8.64598 84.3358 8.71473C84.2464 8.80411 84.3152 8.98973 84.3564 9.06536C84.4183 9.15473 84.7345 9.36098 84.9545 9.89036C85.0233 10.0554 85.0027 10.2272 84.8652 10.406C84.7689 10.5297 84.3908 10.6535 84.1777 10.7566C83.8889 10.8941 82.7614 11.4647 82.3833 11.7741C82.3008 11.8429 82.1633 11.8222 82.1977 11.6985C82.2595 11.4785 82.1839 10.8047 82.2664 10.571C82.397 10.2272 82.342 10.3579 82.6308 9.96598C82.7752 9.75973 83.0983 8.98973 83.4352 8.61161C83.4764 8.57036 83.5452 8.37786 83.4352 8.30223C83.3389 8.24723 83.222 8.37098 83.1052 8.40536C83.0295 8.42598 83.0227 8.60473 82.9333 8.63911C82.8095 8.69411 82.6927 8.55661 82.5758 8.65973C82.4933 8.72161 82.342 9.05848 82.3077 9.28536C82.3008 9.37473 82.1358 9.49848 82.0945 9.56036C82.0464 9.63598 82.0808 9.93848 82.0533 10.1447C82.0189 10.3991 81.7852 11.0522 81.7233 11.3204C81.6889 11.4991 81.6133 11.891 81.6339 12.1179C81.6408 12.2485 81.7027 12.3379 81.792 12.3172C81.8952 12.2966 81.9708 12.1179 82.0739 12.0972C82.2045 12.0766 82.6308 12.0697 82.8095 12.1179C82.8989 12.1454 83.057 12.2554 83.3389 12.1935C83.497 12.166 83.7445 12.0972 83.937 12.0972C84.1227 12.1041 85.0302 12.0972 85.4152 12.1041C85.5595 12.111 86.3433 11.7191 86.5908 11.6022C86.797 11.5129 87.2852 11.0522 87.622 10.7085C87.8145 10.5091 88.2545 10.3785 88.4883 10.4816C88.6052 10.5366 88.5364 10.8872 88.3577 11.0179C88.2133 11.121 87.8695 11.3066 87.7045 11.4235C87.4433 11.6022 87.017 12.1316 86.8177 12.4754C86.7214 12.6335 86.412 13.0735 86.2608 13.3554C86.2264 13.4104 86.2264 13.5479 86.3433 13.6716C86.4602 13.7885 87.4295 14.0497 87.8833 14.2079C87.9245 14.2216 87.9864 14.2972 88.0827 14.2629C88.1445 14.2422 88.2339 14.2079 88.2408 14.3729C88.2477 14.4554 88.8802 14.4691 88.9558 14.5241C89.1964 14.7029 90.1314 14.9091 90.4339 15.1016C90.5439 15.1704 90.5852 15.2047 90.6883 15.3285C90.757 15.411 90.9289 15.4041 90.9083 15.5279C90.8808 15.6585 89.0864 16.0985 88.4402 16.071C87.8902 16.0435 87.3264 15.9747 86.797 15.7891C86.3364 15.631 85.4427 14.9572 85.312 14.9572C85.1058 14.9572 85.1264 14.9985 84.982 15.1429C84.9477 15.1772 84.872 15.3079 84.7689 15.4041C84.652 15.521 84.2395 15.9266 84.157 16.0435C84.0333 16.2016 83.7514 16.2635 83.5795 16.4079C83.4489 16.511 83.1945 16.786 83.0433 16.8891C82.7614 17.0816 82.4108 17.3154 82.1977 17.4047C81.9845 17.501 81.6064 17.3635 81.2833 17.3154C80.9395 17.2672 80.5133 16.896 80.3483 16.5797C80.252 16.3872 80.2589 15.9197 80.2108 15.6447C80.1764 15.4522 80.3277 14.8747 80.2039 14.7991C80.0458 14.696 79.9564 14.8129 79.8808 14.9022C79.7502 15.0397 79.592 15.3079 79.1795 15.5966C79.0008 15.7204 79.0008 15.8097 78.7877 16.0091C78.6364 16.1604 78.272 16.3735 78.0245 16.5866C77.777 16.7929 77.3302 16.9166 77.0345 16.9716C76.9314 16.9922 76.6358 17.171 76.4708 17.2466C76.3195 17.3085 75.8314 17.4804 75.5358 17.5697C75.3433 17.6247 75.2608 17.2191 75.2127 16.9372C75.1714 16.6554 75.2814 16.3666 75.4464 16.2772C75.7214 16.1191 76.1545 15.6172 76.3883 15.3629C76.4502 15.2941 76.3264 15.1429 76.2164 15.1497C75.8314 15.1704 75.5839 14.9985 75.5839 14.9985C75.8727 14.9572 76.347 14.9435 76.512 14.7304C76.5464 14.7029 76.622 14.6272 76.622 14.531C76.6289 14.4004 76.5808 14.366 76.567 14.2766C76.5533 14.2079 76.6495 14.0979 76.6152 14.0291C76.5808 13.9604 76.5189 13.7954 76.3952 13.8641C76.1545 14.0085 75.7283 14.4347 75.6183 14.6479C75.5427 14.7922 75.5289 14.9435 75.5289 14.9435C75.4602 15.0122 75.3295 14.9504 75.3295 14.9504C75.1027 15.1841 74.752 15.576 74.5733 15.7272C74.4427 15.8372 74.2639 15.9197 74.1195 15.851C73.9408 15.7616 73.8239 15.3972 73.7483 15.2804C73.6795 15.1772 73.7758 15.026 73.8789 14.9572C74.0439 14.8541 74.4633 14.6341 74.5802 14.531C74.7108 14.421 75.2677 13.8641 75.3914 13.761C75.5977 13.596 75.8864 13.4035 76.0583 13.2316C76.1752 13.101 76.0239 12.9497 75.9414 13.0185C75.8727 13.0735 75.7627 13.0529 75.7214 12.9497C75.6045 12.6816 75.3708 12.0285 75.3708 11.781C75.3708 11.6297 75.3777 11.5472 75.4327 11.4097C75.6114 10.9972 76.2095 10.2135 76.3952 10.0691C76.5739 9.93161 76.4708 9.79411 76.4158 9.69786C76.347 9.56723 76.0033 9.14098 76.0102 8.98973C76.0308 8.76286 76.3677 8.56348 76.6977 8.32973C77.0277 8.09598 77.3577 7.84161 77.5914 7.82098ZM83.3114 9.63598C83.2977 9.75286 82.9952 9.89036 83.0502 10.1447C83.0914 10.351 83.1258 10.3029 83.222 10.2685C83.3664 10.2066 84.1777 9.91098 84.3152 9.73911C84.4114 9.62911 84.377 9.47098 84.3427 9.30598C84.2877 9.01036 84.1914 9.05848 84.1364 9.12723C84.0677 9.20973 83.9783 9.34036 83.8752 9.36098C83.7102 9.39536 83.7239 9.05848 83.552 9.18223C83.4077 9.28536 83.3389 9.42286 83.3114 9.63598ZM85.1745 13.1422C85.3052 13.211 85.4908 13.3004 85.6283 13.3416C85.697 13.3691 85.7933 13.3072 85.8277 13.2179C85.8895 13.0666 86.1645 12.7435 86.247 12.606C86.3158 12.4754 86.1989 12.3241 86.0752 12.4272C85.8964 12.5647 85.4702 12.8054 85.3052 12.7779C85.1539 12.7572 85.0095 13.046 85.1745 13.1422ZM81.3245 14.2491C81.297 14.586 81.3245 15.2941 81.3795 15.6654C81.4139 15.906 81.5445 16.0779 81.6614 16.1947C81.8058 16.3254 82.232 16.4285 82.4589 16.236C82.6377 16.0916 83.9714 15.3835 84.3702 15.1154C84.5214 15.0122 84.5695 14.8954 84.652 14.806C84.7208 14.7235 84.7552 14.5997 84.6658 14.5104C84.4389 14.2766 84.1708 14.2216 83.9714 14.0841C83.6827 13.8779 83.2702 13.6579 82.892 13.5547C82.6102 13.486 82.3558 13.376 82.1289 13.3279C81.9227 13.2729 81.5995 12.8947 81.5445 13.0254C81.3589 13.4447 81.352 13.9329 81.3245 14.2491ZM77.2408 13.871C77.2477 14.036 77.3783 14.2972 77.447 14.2285C77.7633 13.8779 78.6777 12.9979 78.7395 12.8054C78.7739 12.6816 78.6639 12.5922 78.5677 12.606C78.3683 12.6266 78.1552 12.7229 77.9283 12.8329C77.6945 12.9429 77.2752 13.1354 77.2683 13.2179C77.2683 13.3966 77.2339 13.6854 77.2408 13.871ZM78.6364 1.17286C78.7258 1.15223 78.7945 1.31036 78.9389 1.37911C79.042 1.42723 79.0833 1.51661 79.1933 1.52348C79.3377 1.52348 79.3377 1.74348 79.4202 1.81223C79.4889 1.87411 79.5852 2.09411 79.6608 2.16973C79.757 2.25223 79.7914 2.36223 79.8808 2.43098C79.9839 2.50661 80.0114 2.76786 79.8877 2.91911C79.7914 3.03598 79.6402 3.19411 79.4408 3.25598C79.2552 3.31098 78.8358 3.32473 78.6089 3.46223C78.4164 3.57911 78.0658 3.85411 77.8733 4.06723C77.5089 4.45911 77.0895 5.13973 76.7527 5.72411C76.5258 6.11598 75.6802 7.56661 75.4258 8.13723C75.3227 8.37098 74.7795 9.52598 74.5939 9.94536C74.3395 10.4954 73.7208 11.6847 73.597 12.0079C73.4252 12.4341 73.5214 12.7985 73.4045 12.9635C73.3014 13.1147 73.0883 13.101 72.9577 13.0047C72.8339 12.9085 72.6277 12.716 72.5795 12.5166C72.5383 12.3447 72.6277 11.9322 72.6827 11.726C72.7239 11.5885 72.7927 11.4922 72.9095 11.4372C72.9852 11.4029 73.102 11.4372 73.2052 11.396C73.2808 11.3616 73.6177 10.8047 73.7895 10.4885C74.0095 10.076 74.5939 8.83161 74.7314 8.53598C74.8208 8.35723 75.1577 7.59411 75.4052 7.13348C75.5633 6.83786 76.3264 4.74786 76.6908 4.23911C76.7802 4.12223 77.1652 3.29036 77.4127 2.91223C77.6258 2.57536 78.492 1.20723 78.6364 1.17286ZM83.9989 4.14973C83.6689 4.54161 83.2358 5.07786 83.2358 5.46973C83.2358 5.68286 83.1327 6.00598 83.0777 6.17098C83.0364 6.27411 82.8577 6.52161 82.8714 6.72098C82.8783 6.95473 82.8783 7.05786 82.8989 7.17473C82.9333 7.35348 83.1052 7.40161 83.1877 7.30536C83.3458 7.13348 83.9164 6.77598 84.1914 6.51473C84.6383 6.07473 84.4045 6.28098 84.5145 6.16411C84.6108 6.06098 84.7689 6.17786 84.8514 5.92348C85.037 5.35286 85.0852 5.14661 85.2914 4.51411C85.4977 3.88848 85.6695 3.15286 85.6283 2.95348C85.6283 2.95348 84.3289 3.75786 83.9989 4.14973ZM78.712 4.32161C78.8014 4.14286 79.372 4.10848 79.6264 4.14973C79.8602 4.19786 80.1352 4.65848 80.2245 4.87848C80.2864 5.01598 80.3827 5.31161 80.3345 5.42848C80.2727 5.57973 80.032 5.57973 79.7983 5.64161C79.7089 5.66223 79.4889 5.74473 79.3377 5.82036C79.1383 5.92348 78.8908 6.14348 78.8083 6.22598C78.712 6.31536 78.5539 6.35661 78.4783 6.33598C78.4302 6.32911 78.4302 6.19161 78.5127 6.10911C78.6639 5.94411 78.8633 5.49036 78.8152 5.31161C78.7945 5.22223 78.7052 5.18098 78.6914 4.90598C78.6914 4.76161 78.6433 4.46598 78.712 4.32161ZM76.4158 11.4304C76.2989 11.5129 76.237 11.6022 76.3127 11.6985C76.3539 11.7604 76.5533 11.6985 76.622 11.5954C76.732 11.4441 76.677 11.2585 76.5464 11.2722C76.4502 11.2791 76.5189 11.3616 76.4158 11.4304ZM39.0364 6.29473C39.1808 6.25348 39.4558 6.79661 39.7308 7.09223C40.0058 7.38786 40.4183 7.75223 40.5008 7.82786C40.597 7.91036 40.8102 8.24036 40.8927 8.24036C40.9339 8.24036 41.1952 8.01348 41.4152 7.86223C41.6489 7.70411 42.1783 7.33973 42.3433 7.23661C42.4739 7.14723 42.8795 6.85848 43.127 6.66598C43.3745 6.47348 43.9177 6.12286 43.9383 6.07473C43.9452 6.04036 43.9245 5.92348 44.007 5.68973C44.062 5.54536 43.9452 5.48348 43.9452 5.45598C43.9314 5.40098 44.0002 5.22223 44.0139 5.13286C44.0414 4.96098 44.0002 4.60348 44.0208 4.52786C44.0827 4.34223 44.1033 3.95723 44.1102 3.84723C44.1377 3.53098 44.1033 3.39348 44.1445 3.26286C44.282 2.84348 44.2889 2.49973 44.2614 2.19036C44.2339 1.92223 44.172 1.90161 44.2477 1.49598C44.3164 1.12473 44.6464 0.739734 44.7977 0.560984C44.9008 0.444109 45.1964 0.423484 45.4302 0.650359C45.5127 0.732859 45.7189 0.829109 45.9114 1.02161C46.097 1.22098 46.4545 1.65411 46.5783 1.76411C46.7708 1.94286 47.1489 2.42411 47.3895 2.72661C47.5752 2.96036 47.6714 3.37973 47.692 3.53098C47.7264 3.76473 47.6714 4.06723 47.8295 4.09473C48.0564 4.13598 48.4895 3.76473 49.1908 3.63411C49.6514 3.54473 50.4077 3.56536 50.9095 3.57223C51.1295 3.57223 51.5558 3.55161 51.5902 3.65473C51.6589 3.84723 51.542 4.41786 51.2602 5.06411C51.0127 5.62786 50.8752 5.73098 50.5864 6.09536C50.3527 6.39786 50.3183 6.58348 49.8852 7.14036C49.4727 7.68348 48.6545 8.47411 48.8127 8.62536C48.9502 8.75598 49.3558 8.56348 49.4245 8.86598C49.4795 9.11348 49.2114 9.27161 49.1152 9.51223C48.9845 9.84911 49.0602 10.0897 48.7577 10.241C48.4827 10.3785 48.3177 10.3304 48.1389 10.4404C47.9327 10.5779 48.0083 10.9285 47.8777 11.1829C47.637 11.6297 47.7608 12.0629 47.6164 12.4272C47.3964 12.9704 47.4514 12.7572 47.2727 13.3279C47.2314 13.4516 47.1489 14.0772 47.0939 14.2972C47.0527 14.4829 46.9083 14.6272 46.9014 14.696C46.8877 14.8885 46.7983 15.3835 46.8052 15.4385C46.812 15.5072 46.6814 15.6035 46.6952 15.7272C46.7089 15.8441 46.5852 16.1397 46.5577 16.3391C46.4752 17.1435 46.5439 17.2535 46.5783 17.7004C46.6127 18.1472 46.5233 18.2435 46.4752 18.3604C46.4339 18.4704 46.2689 18.4979 46.152 18.5322C46.0214 18.5666 46.0352 18.7041 45.9527 18.7316C45.8564 18.7591 45.7258 18.6629 45.6777 18.7385C45.5883 18.8966 45.492 19.096 45.3752 19.1029C45.2583 19.1097 45.217 19.041 45.1827 18.8554C45.1758 18.8072 45.0589 18.7935 45.0383 18.6972C44.997 18.5254 44.9627 18.6285 44.8183 18.3604C44.6945 18.1335 44.7977 18.051 44.7839 17.8447C44.777 17.6935 44.5639 17.5491 44.6189 17.3016C44.6464 17.171 44.612 16.896 44.5845 16.676C44.5502 16.4216 44.5433 16.2429 44.5433 16.1741C44.5433 16.0572 44.5089 16.1741 44.5364 15.8097C44.5639 15.4797 44.4608 15.2116 44.4608 15.1222C44.4677 15.0054 44.4195 14.9229 44.3302 14.9229C44.2545 14.9229 44.2133 14.9641 44.172 15.1497C44.1308 15.3354 44.1308 15.7066 44.1514 15.9335C44.172 16.1397 44.3027 16.7172 44.3164 16.9029C44.3302 17.1572 44.3027 17.0335 44.3095 17.3704C44.3095 17.5354 44.3852 17.941 44.447 18.1679C44.5089 18.3879 44.6327 18.381 44.6808 18.5391C44.722 18.6972 44.7633 18.8416 44.8252 18.931C44.8939 19.0547 45.1827 19.1235 45.1414 19.1922C45.1002 19.2747 44.9764 19.4466 44.887 19.4535C44.6945 19.4741 44.3577 19.0891 44.2889 18.9172C44.1652 18.6147 44.0827 17.5285 44.0208 17.1366C43.9108 16.4697 43.8008 16.1741 43.7183 15.4385C43.6358 14.6685 43.4502 12.6679 43.457 12.2416C43.457 11.9597 43.2714 11.8704 43.1752 11.8635C43.0514 11.8566 42.8933 11.9872 42.8864 12.1179C42.8727 12.2829 42.9139 12.6679 42.742 12.7297C42.6045 12.7847 41.6077 12.5097 40.8377 12.001C39.5727 11.1691 39.1258 9.09973 38.9127 8.70786C38.6308 8.16473 38.6239 7.05098 38.6789 6.83098C38.7408 6.61098 38.8233 6.35661 39.0364 6.29473ZM47.4514 6.36348C47.4308 6.65223 47.5339 7.03036 47.5545 7.14036C47.5752 7.23661 47.637 7.30536 47.5889 7.40848C47.5477 7.49098 47.5752 7.64223 47.5958 7.81411C47.6164 8.01348 47.692 8.15098 47.7883 8.09598C47.8708 8.04098 48.6889 7.09911 49.0258 6.70723C49.342 6.32911 50.0089 5.27723 50.0433 5.14661C50.0777 4.98848 50.112 4.87161 50.002 4.73411C49.8783 4.57598 49.5964 4.70661 49.3627 4.69286C49.2114 4.67911 48.9777 4.63786 48.7233 4.77536C48.5445 4.87161 48.3795 5.06411 48.1733 5.19473C47.9464 5.34598 47.4789 5.62786 47.4927 5.75848C47.5064 5.94411 47.4652 6.15036 47.4514 6.36348ZM42.0202 9.64973C42.1714 9.82161 42.137 9.92473 42.2608 10.1241C42.3639 10.2891 42.4189 10.5229 42.6458 10.6879C42.8795 10.8529 42.7833 11.1072 42.9208 11.066C43.0652 11.0179 43.5052 10.6604 43.5945 10.5022C43.677 10.3441 43.6083 10.1997 43.622 10.1104C43.6427 9.95911 43.6702 9.93161 43.6564 9.85598C43.6427 9.77348 43.5945 9.70473 43.6014 9.57411C43.6152 9.42286 43.6633 9.37473 43.6495 9.18911C43.6427 9.00348 43.677 8.48098 43.6564 8.19223C43.6358 7.95161 43.4708 8.00661 43.3539 8.08223C43.1064 8.25411 43.1408 8.20598 42.8727 8.43973C42.7764 8.52223 42.5358 8.68036 42.4395 8.75598C42.302 8.87286 41.9927 9.03098 41.9583 9.09973C41.8758 9.29911 41.8758 9.47098 42.0202 9.64973ZM45.3889 15.1566C45.3889 15.3972 45.437 15.4247 45.4302 15.6172C45.4302 15.8166 45.1964 16.0229 45.1895 16.2222C45.1895 16.3872 45.2377 16.5935 45.2102 16.7654C45.1827 16.9304 45.1483 17.1847 45.1414 17.3222C45.1414 17.4529 45.2789 17.7966 45.3202 17.9066C45.3683 18.0097 45.5195 18.0922 45.6433 18.106C45.7602 18.1197 45.822 18.1197 45.822 17.996C45.822 17.7829 45.6502 17.6041 45.6639 17.4322C45.6845 17.226 45.7602 17.006 45.767 16.8685C45.767 16.7172 45.712 16.6691 45.7602 16.5179C45.8083 16.3666 45.7945 16.1466 45.7739 15.906C45.767 15.7616 45.7808 15.6791 45.7464 15.5416C45.7189 15.4247 45.7739 15.3904 45.7464 15.2529C45.7258 15.1154 45.7464 15.1154 45.7189 14.9504C45.696 14.8358 45.6502 14.7762 45.5814 14.7716C45.4852 14.7716 45.3958 14.916 45.3889 15.1566Z" fill="white"/>
</g>
</svg>
