<svg width="95" height="39" viewBox="0 0 95 39" fill="none" xmlns="http://www.w3.org/2000/svg">
<g filter="url(#filter0_d_118_122)">
<path d="M54 29.9535L54 22.7535L39.3 22.7535L24.6 15.8535L24.6 21.8535L37.2 32.6535L51.24 32.6535L54 29.9535ZM49.2 16.1535L49.2 19.7535L54 19.7535L54 10.4535L51.3 7.75352L42.6 7.75351L42.6 16.1535L49.2 16.1535ZM12 14.6535L12 22.7535L20.4 22.7535L20.4 14.6535L12 14.6535Z" fill="#EE2838"/>
</g>
<path d="M82.06 9.02C82.56 8.62 84.64 6.9 85.38 6.18L86.6 6.18L86.6 8.78L88.84 8.78L88.84 6.18L92.94 6.18L92.94 3.9L88.84 3.9L88.84 0.96L86.6 0.96L86.6 3.6C84.2 2.96 81.5 1.78 79.92 0.459999C79.32 0.839999 78.36 1.36 77.68 1.58C78.8 2.46 80.46 3.24 82.26 3.9L74.28 3.9L74.28 6.18L82.6 6.18C81.72 6.74 80.78 7.32 80.14 7.64L82.06 9.02ZM76.66 17.2C76.66 17.1 76.7 17.02 76.78 16.98C76.86 16.94 77.14 16.92 77.66 16.92L91.8 16.92L91.8 9.76L85.36 9.76C82.36 9.76 78.46 9.52 75.82 6.88C75.52 7.4 74.74 8.34 74.3 8.72C77.18 11.6 81.98 12.06 85.34 12.06L89.54 12.06L89.54 14.56L77.6 14.56C75.88 14.56 75.4 14.72 75.02 15.1C74.66 15.44 74.48 16 74.48 16.5L74.48 17.6C74.48 18.04 74.58 18.52 74.84 18.84C75.08 19.16 75.46 19.36 76.06 19.48C76.64 19.6 78.06 19.68 79.12 19.7C79.32 19.12 79.68 18.46 80.08 18C78.9 18 77.92 17.96 77.48 17.94C77.08 17.9 76.88 17.88 76.78 17.8C76.7 17.74 76.66 17.64 76.66 17.54L76.66 17.2ZM79.64 30.84C79.1 31.42 78.48 32 77.86 32.56L77.46 25.6C78.46 26.72 79.62 27.82 80.76 28.74L80.76 37.14L83.06 37.14L83.06 20.6L80.76 20.6L80.76 25.44C79.44 24.36 78.36 23.28 78 22.8C77.46 22.18 77.12 21.74 77.02 21.22C76.34 21.5 75.12 21.9 74.62 22.02C74.98 23 75.06 24.38 75.78 34.24C75.24 34.64 74.72 34.98 74.26 35.22L75.56 37.34C77.06 36.46 79.16 34.62 80.68 32.88L79.64 30.84ZM86.92 25.5C87.76 26.7 88.66 27.84 89.66 28.84C88.74 29.82 87.8 31.06 86.92 32.38L86.92 25.5ZM93.04 28.72C90.48 26.82 88.04 23.2 86.6 19.4C86.12 19.96 85.08 20.76 84.48 21.1C84.96 22.18 85.5 23.18 86.06 24.16L84.74 24.16L84.74 33.5L86.22 33.5C85.62 34.5 85.1 35.56 84.68 36.6C85.32 36.98 86.28 37.74 86.78 38.28C87.72 35.32 89.52 32.16 91.16 30.22C91.44 30.46 91.72 30.68 92 30.9L93.04 28.72Z" fill="white"/>
<defs>
<filter id="filter0_d_118_122" x="12" y="7.75351" width="45" height="28.9" filterUnits="userSpaceOnUse" color-interpolation-filters="sRGB">
<feFlood flood-opacity="0" result="BackgroundImageFix"/>
<feColorMatrix in="SourceAlpha" type="matrix" values="0 0 0 0 0 0 0 0 0 0 0 0 0 0 0 0 0 0 127 0" result="hardAlpha"/>
<feOffset dx="3" dy="4"/>
<feComposite in2="hardAlpha" operator="out"/>
<feColorMatrix type="matrix" values="0 0 0 0 0.333333 0 0 0 0 0.333333 0 0 0 0 0.333333 0 0 0 1 0"/>
<feBlend mode="normal" in2="BackgroundImageFix" result="effect1_dropShadow_118_122"/>
<feBlend mode="normal" in="SourceGraphic" in2="effect1_dropShadow_118_122" result="shape"/>
</filter>
</defs>
</svg>
