<svg width="110" height="31" viewBox="0 0 110 31" fill="none" xmlns="http://www.w3.org/2000/svg">
<path d="M19.6923 5.07258C19.6923 5.07258 19.1458 4.4687 18.4277 4.4687C18.4277 4.4687 16.8581 4.4687 15.7842 7.86949C15.7842 7.86949 14.8755 10.8444 14.8755 15.2559C14.8755 15.2559 14.8755 19.4195 15.727 22.3562C15.727 22.3562 16.5849 25.3311 17.824 25.3311C17.824 25.3311 18.701 25.3311 19.4381 23.6975C19.4381 23.6975 20.1752 22.0638 20.4866 19.4004L22.8188 18.8156C22.8188 18.8156 22.2151 23.7737 20.3532 26.9838C20.3532 26.9838 18.4277 30.2066 16.0003 30.2066C16.0003 30.2066 13.0899 30.2066 11.031 25.8333C11.031 25.8333 8.97209 21.4599 8.97209 15.2559C8.97209 15.2559 8.97209 9.05818 11.031 4.64669C11.031 4.64669 13.0899 0.247908 16.0003 0.247908C16.0003 0.247908 18.9107 0.247908 20.9886 4.72296L19.6923 5.07258ZM27.8897 11.0414C27.8897 11.0414 23.8673 14.366 17.4618 15.9805C17.4618 15.9805 11.0373 17.5697 5.92824 16.5208C5.92824 16.5208 0.819146 15.4339 0.0629496 12.3064C0.0629496 12.3064 -0.578865 9.70019 2.23622 6.82065C2.23622 6.82065 5.01318 3.96653 10.0079 2.05954L10.3383 3.34358C10.3383 3.34358 7.42157 4.58312 5.81386 6.15956C5.81386 6.15956 4.16166 7.81228 4.53023 9.22981C4.53023 9.22981 5.01318 11.0414 8.43195 11.5818C8.43195 11.5818 11.8317 12.1094 16.2354 11.0224C16.2354 11.0224 20.6074 9.92903 23.4034 7.85042C23.4034 7.85042 26.1613 5.75274 25.6974 3.92203C25.6974 3.92203 25.3034 2.35195 22.5074 1.67179L22.0816 0C22.0816 0 25.7165 0.133489 28.1185 1.34125C28.1185 1.34125 30.5904 2.54265 31.0924 4.58312C31.0924 4.58312 31.8868 7.69786 27.8897 11.0414Z" fill="white"/>
<path fill-rule="evenodd" clip-rule="evenodd" d="M51.0268 3.90293L51.999 4.0237H51.9418C51.7448 4.08091 51.5161 4.0237 51.5161 4.0237L51.3191 4.00463L51.2238 4.06184L51.0268 4.11905L50.8743 4.06184V4.0237L51.0268 3.90293ZM46.8709 1.99594C46.8709 1.99594 47.9003 3.74401 48.1354 3.922L48.3261 4.1127L48.5231 4.23347C48.5231 4.23347 48.6184 4.25254 48.7899 4.13177L49.0823 4.25254L49.203 4.34789L49.3174 4.42417L49.3746 4.25254L49.7813 4.19533L50.2324 4.23347C50.2324 4.23347 50.1689 4.07456 49.7241 4.13177C49.7241 4.13177 49.3174 4.19533 49.3174 3.99828L50.7535 3.90293C50.7535 3.90293 50.6391 4.17626 50.404 4.17626L50.5184 4.4051L50.404 4.52588L50.5819 4.58309L50.7344 4.4051H50.9696L50.9886 4.30975H51.0458L51.103 4.42417H51.1411C51.1411 4.42417 51.1602 4.13177 51.4906 4.29068L51.3763 4.71657C51.3763 4.71657 51.7448 4.71657 51.7448 4.81828H51.802L51.9355 4.60216L51.8402 4.54495L51.8592 4.42417L52.1134 4.46231C52.1134 4.46231 52.2278 4.46231 52.2278 4.30975L52.8887 4.60216V4.65936L52.482 4.58309C52.482 4.58309 52.285 4.58309 52.285 4.87549C52.285 4.87549 52.1134 4.83735 52.1325 4.65936L52.0753 4.60216C52.0753 4.60216 51.9609 5.00898 50.9314 5.43487C50.9314 5.43487 49.7813 5.86712 49.5906 6.09596V6.49007C49.5906 6.49007 49.5906 6.60449 49.4699 6.77612L49.5525 7.4817C49.5525 7.4817 49.5525 8.37163 49.6669 8.54961L49.7622 8.62589C49.7622 8.62589 49.9973 8.3907 50.7344 8.37163L51.2809 8.02201L51.8973 7.17023C51.8973 7.17023 52.3485 6.64263 52.4248 6.36929L52.4057 6.15953C52.4057 6.15953 52.698 5.90526 52.8696 5.45394C52.8696 5.45394 53.0666 4.95177 52.984 4.64029C52.984 4.64029 52.9268 4.42417 52.6599 4.29068C52.6599 4.29068 52.3676 4.19533 52.2278 4.1127L52.285 4.07456C52.285 4.07456 52.8887 4.23347 53.1047 4.42417C53.1047 4.42417 53.4352 4.6975 53.378 5.26324L53.1619 6.46464L53.0475 7.69147L52.7743 8.21907L52.4629 9.81458C52.4629 9.81458 52.3104 11.4228 51.9355 11.4228C51.9355 11.4228 51.999 11.8169 51.2619 12.0458L50.1308 12.3C50.1308 12.3 49.902 12.3954 49.5525 13.3107L49.1013 14.5757C49.1013 14.5757 49.0823 14.6901 48.8726 14.8872L48.6374 15.2177L48.5802 16.5208C48.5802 16.5208 48.5612 17.2963 48.4023 17.7794L47.8431 19.0444V19.4703C47.8431 19.4703 47.824 19.8835 47.6652 20.659C47.6652 20.659 47.7669 21.1675 47.7224 21.3391L47.608 21.5934L47.4173 21.765L47.2585 21.6315V22.388L47.2013 22.4452L47.0678 22.3308H46.9852C46.9852 22.3308 46.9852 23.1253 46.8518 23.1253L46.7946 22.7948H46.6739V22.7376L46.7565 22.6232C46.7565 22.6232 46.4451 22.8584 46.3879 22.8584C46.3879 22.8584 46.2672 22.8393 46.2862 22.2163C46.2862 22.2163 46.3244 21.5934 46.5214 21.4726L46.6357 21.5743V21.3963H46.229C46.229 21.3963 46.21 21.0849 46.0575 20.6018C46.0575 20.6018 45.8795 19.9597 45.7652 19.9216C45.7652 19.9216 45.6063 20.1504 45.6063 20.5064C45.6063 20.5064 45.6063 20.8942 45.8223 20.9704L45.8605 21.3391L45.8033 21.3582L45.7652 21.0658L45.5491 21.0276L45.6063 21.6315H45.4919L45.4347 20.9704L45.2377 20.3856V19.6864L45.3203 19.4512L45.1233 18.8728L45.0852 16.9848L45.009 16.578L44.8882 16.1458L44.9454 15.1351C44.9454 15.1351 45.009 14.6329 44.6785 14.0099C44.6785 14.0099 44.2718 14.2261 43.4521 14.3977L42.1939 14.6901L41.6283 14.9444L41.0437 14.8872L40.4845 14.7664C40.4845 14.7664 40.3256 14.652 40.2494 14.2261L40.0969 13.565L39.3534 13.7748C39.3534 13.7748 38.9467 13.8955 38.756 13.4442L38.6353 13.2535L38.54 13.2726L38.2477 12.6878C38.2477 12.6878 38.3049 12.6306 38.1905 12.4526C38.1905 12.4526 37.9172 12.3 37.9808 11.4864C37.9808 11.4864 38.0952 10.6664 38.0761 10.5138C38.0761 10.5138 38.0952 10.5519 38.2095 10.2595L38.3684 9.87179C38.3684 9.87179 38.5972 9.71287 38.5972 9.17256L38.756 9.01365C38.756 9.01365 39.1246 8.25721 39.1055 8.16186L39.4169 7.30372L39.6457 6.71891L39.8999 6.07689H40.0142L40.154 5.72728L40.3256 5.45394C40.3256 5.45394 40.4273 5.49844 40.5607 5.96247L40.7133 6.54728L40.8531 6.77612C40.8531 6.77612 41.0628 7.22744 40.8531 7.65333H41.0056V7.63426H41.0628L41.1263 7.59612C41.1263 7.59612 41.5139 7.53891 41.8825 7.17023C41.8825 7.17023 42.4417 6.9541 42.7149 6.77612L43.3186 6.60449C43.3186 6.60449 43.4711 6.38836 44.5959 5.98154V5.67007C44.5959 5.67007 44.8882 5.37766 44.9073 5.1234L44.8501 4.48774L44.9454 4.13177L45.028 3.80758C45.028 3.80758 45.028 2.54261 44.9073 1.90059L44.7357 1.33486H44.9073L44.6595 0.750046C44.6595 0.750046 44.7357 0.730977 44.7929 0.673767C44.7929 0.673767 46.1147 0.730977 46.8709 1.99594ZM43.5283 8.62589L42.3083 9.17256L41.2979 10.3358C41.2979 10.3358 41.336 10.4947 41.1263 10.6282L41.0056 11.1304L40.7959 11.5436L40.5036 11.8932C40.5036 11.8932 40.3638 12.2237 40.4464 12.3382C40.4464 12.3382 40.2112 12.5161 40.3256 12.8022C40.3256 12.8022 40.4464 12.7831 40.5417 12.7259C40.5417 12.7259 40.7323 12.745 41.2788 12.2809C41.2788 12.2809 41.8253 11.7724 42.3083 11.7152L43.2996 11.5817C43.2996 11.5817 43.6872 11.4609 44.2083 11.1304L44.6595 10.5519L45.028 10.0053C45.028 10.0053 45.0852 9.75101 44.9708 9.36326L44.831 8.74031L44.5959 7.81225C44.5959 7.81225 44.4053 8.25721 43.5283 8.62589ZM63.9393 4.05549L63.5326 4.29068C63.2022 4.29068 63.0624 4.46231 63.0624 4.46231C62.4015 4.75471 62.2871 4.6975 62.2871 4.6975C61.766 5.04712 60.8319 4.89456 60.8319 4.89456L60.4443 4.77378C60.4061 4.58309 60.0566 4.48774 60.0566 4.48774C59.7071 4.4051 59.7071 4.36696 59.7071 4.36696C60.2282 4.05549 61.55 3.72494 61.55 3.72494C61.8613 3.78215 62.465 3.27998 62.465 3.27998L63.145 3.02571L63.8186 2.69517L64.5811 2.42184H64.7908L65.3754 2.30742L66.1126 2.23114L66.1698 2.17393L66.5765 2.07222L66.9641 2.11036C67.2564 1.77982 68.343 1.6654 68.343 1.6654L69.8999 1.4302C70.135 1.37299 70.5799 1.60819 70.5799 1.60819L71.2979 2.40277C71.7999 3.04478 71.8571 3.33719 71.8571 3.33719L71.6856 4.46231C71.5521 5.37766 71.7999 5.39673 71.7999 5.39673C71.7237 6.1341 71.7809 6.36929 71.7809 6.36929C71.6856 6.52821 71.6284 6.93503 71.6284 6.93503L71.7999 8.33349L71.8571 9.81458L71.9016 11.4609L72.016 13.0755V13.8192L71.9779 14.5375C72.0922 15.4465 71.9207 16.2475 71.9207 16.2475C72.016 16.3047 72.016 17.3345 72.016 17.3345C71.7999 17.4107 71.9016 17.9193 71.9016 17.9193L72.0732 18.5613V19.2796L71.9588 19.9788V20.9704C71.9207 21.4726 71.5712 21.9239 71.5712 21.9239C71.2979 22.2354 71.1835 22.2354 71.1835 22.2354V22.3308L71.0628 22.3498C69.7855 21.765 69.4551 21.301 69.4551 21.301L69.0039 19.9788L68.9467 19.8644C68.4066 19.0062 68.343 18.6757 68.343 18.6757L68.2477 18.6185C67.7838 17.9002 67.7838 17.1819 67.7838 17.1819C68.0126 17.0611 68.521 17.4934 68.521 17.4934V17.5124L68.7561 17.7794L69.042 17.9765C69.1628 17.9765 69.2009 17.7222 69.2009 17.7222L69.1628 17.3917L69.22 17.042L69.1437 16.9467L69.1628 16.6543L69.3344 16.1458L69.5504 15.6245C69.6076 15.491 69.22 13.0374 69.22 13.0374C69.3915 12.8658 69.22 12.0458 69.22 12.0458C69.3725 11.5245 69.3725 11.213 69.3725 11.213L69.2772 9.59845L69.3915 8.44791L69.5504 6.83968C69.6076 5.33952 69.722 5.10433 69.722 5.10433C69.5695 4.95177 69.722 4.19533 69.722 4.19533L69.4551 3.6868L69.22 3.33719L68.8895 3.22277L68.5782 3.2037L67.7838 3.16556L66.9895 3.2037L66.6972 3.31812L65.9982 3.3944L65.2166 3.61052L64.4604 3.90293L63.9393 4.05549ZM47.5508 22.2863C47.5508 22.6613 47.4173 22.6613 47.4173 22.6613L47.4364 21.8604C47.5953 21.9366 47.5508 22.2863 47.5508 22.2863ZM45.6508 21.765L45.924 21.9176L45.8668 22.1146L45.8859 22.0956H45.9431V22.4452L45.8668 22.6168H45.8223L45.727 22.2863C45.5936 21.9366 45.6508 21.765 45.6508 21.765ZM46.0575 22.852C45.9431 22.229 46.0956 22.0956 46.0956 22.0956C46.2163 22.21 46.1528 22.7948 46.1528 22.7948L46.1147 22.852H46.0575ZM45.708 24.2123V26.3926H47.5381V24.2123H49.1077V29.4438H47.5381V27.2063H45.708V29.4438H44.1193V24.2123H45.708ZM40.3637 25.4391C40.3637 25.4391 39.8999 25.9032 39.8999 26.8185V26.8757C39.8999 26.8757 39.8999 27.8292 40.3256 28.2933C40.3256 28.2933 40.834 28.7446 41.5711 28.7446L42.4862 28.6429L43.0645 28.5094V29.2849L42.4862 29.4629L41.4758 29.5201C41.4758 29.5201 40.0397 29.5201 39.1246 28.8781C39.1246 28.8781 38.2477 28.236 38.2477 26.9711V26.7422C38.2477 26.7422 38.2477 25.5536 39.1627 24.8543C39.1627 24.8543 40.0778 24.117 41.4567 24.117L42.4417 24.1742L43.0645 24.3331V25.1467L42.5052 25.0132L41.7046 24.9497C41.7046 24.9497 40.8531 24.9497 40.3637 25.4391ZM67.6059 10.1006L67.8982 10.215L68.2858 10.393L68.3494 10.4502L68.7561 10.4884L68.9277 10.5647L69.0484 10.6219L69.1437 10.838L69.2009 11.1304L69.1437 11.658C68.8705 12.0648 68.521 11.944 68.521 11.944L68.3685 11.9885L68.1143 12.0076L67.7457 12.0458L67.4343 12.122C67.1039 12.2937 66.9069 12.2364 66.9069 12.2364L66.8497 12.2174L66.9069 12.103L67.0848 11.9885L67.142 11.7152L67.2564 11.48L67.2755 11.4228L67.3962 11.2639C67.7838 10.838 67.7457 10.5075 67.7457 10.5075L67.6059 10.1006ZM66.7862 4.9327L66.926 5.1234L67.2183 5.63193L67.2564 5.90526L67.1992 6.07689L67.2183 6.33115L67.1611 6.58542L66.9641 6.83333C66.6908 7.39907 66.5383 7.39907 66.5383 7.39907L65.9537 8.02201C65.8203 8.31442 65.8203 8.56868 65.8203 8.56868L65.7631 8.66403L65.9537 8.79752L66.049 8.89923L66.2841 9.01365L66.8497 9.4014L67.1611 9.71287L67.2183 10.0053V10.2595L67.0975 10.4884L67.0785 10.6282L66.5765 11.1495L66.1126 11.8106L65.8965 11.8296L65.7821 11.9313C65.7821 12.103 65.8775 12.103 65.8775 12.103L65.7631 12.4144L65.7186 12.6687L65.6423 12.9802L66.4621 12.923C66.4621 13.0374 66.748 13.0374 66.748 13.0374L67.2183 13.0755L67.0785 13.3298C66.9832 13.565 67.1357 13.565 67.1357 13.565H67.3708L67.3136 13.6603L67.2183 13.832C67.1611 14.0672 66.9641 14.1816 66.9641 14.1816L66.5765 14.5121L66.049 14.8617L65.6614 14.9825C65.5279 15.0779 65.3691 15.1351 65.3691 15.1351L65.1022 15.2113C64.7908 15.3893 64.7908 15.3703 64.7908 15.3703C64.5557 15.6055 64.4604 15.5419 64.4604 15.5419C63.9901 15.8915 63.8758 15.8915 63.8758 15.8915L63.7042 16.0313L62.9035 16.3047L62.4587 16.5335L61.6644 16.7115C61.4292 16.7687 61.0225 16.7115 61.0225 16.7115C60.8256 16.6352 60.8255 16.5971 60.8255 16.5971C60.7874 16.6352 60.673 16.4763 60.673 16.4763L60.4951 16.203L60.3426 15.7771V15.5419L60.457 15.3703L60.5968 15.0779V14.9444L60.7684 14.6329L60.9463 14.3977L61.2958 14.1244L61.353 13.9909L61.4864 13.7175L61.6072 13.3298C61.5246 13.3298 61.6072 13.1518 61.6072 13.1518L61.6453 12.9802L61.4102 13.0183L61.1179 12.9611L60.8891 12.7259L60.7112 12.4144L60.3235 12.3572L60.0503 12.103L59.974 12.0458L59.9359 11.8106L60.171 11.6008V11.5182L60.1456 11.4228L60.3807 11.1876L60.8255 10.9016L61.1179 10.6664L61.855 10.374L62.1092 10.215L62.4396 10.1578L62.5731 9.86543L62.6175 9.42047L62.5731 9.12807L62.5159 8.74031C62.5159 8.66403 62.4015 8.66403 62.4015 8.66403H61.9948L61.7406 8.62589H60.9653C60.7874 8.50512 60.7302 8.25721 60.7302 8.25721L60.7112 7.9076C59.974 7.59612 59.974 7.51348 59.974 7.51348H59.8597C59.7389 7.06852 60.3426 7.06852 60.3426 7.06852L60.673 6.83333L60.9463 6.69984L61.0797 6.52185L61.1179 6.48371L61.1941 6.4265L61.4674 6.36929L61.855 6.1341L62.6366 5.78449L62.8463 5.72728L63.0624 5.68914C63.1767 5.67007 63.253 5.61286 63.253 5.61286L63.7232 5.49208L64.2634 5.18061L65.331 4.95177L65.8965 4.83099L66.3985 4.6975C66.7862 4.6975 66.7862 4.9327 66.7862 4.9327ZM62.052 17.8938L62.3252 17.9574C62.4396 17.9193 62.9035 17.6841 62.9035 17.6841L63.4691 17.5696L63.7042 17.5442L64.1109 17.3535L64.5176 17.2772L65.331 16.9276L65.9346 16.8259L66.4621 16.6352L66.6336 16.5971L67.2183 16.3619C67.8347 16.203 67.9935 16.0886 67.9935 16.0886H68.1651V16.1458L67.8982 16.4C66.7862 16.9276 66.3032 17.2391 66.3032 17.2391L65.1022 18.0909L64.632 18.3833L64.2062 18.5994L63.9329 18.6757L63.3547 18.949L62.7319 19.1016C62.6175 19.2796 62.1092 19.394 62.1092 19.394H61.9948C61.9376 19.5084 61.5436 19.5911 61.5436 19.5911L61.0035 19.7436L60.654 19.6483C60.5396 19.6292 60.171 18.949 60.171 18.949L59.7961 18.129L60.1456 18.1481L60.457 18.0909H61.1369L61.5881 17.9765L62.052 17.8938ZM58.7857 5.18061L58.9446 5.3141L59.1162 5.86076L59.2941 6.21038L59.4466 6.38201L59.6245 6.94775C59.6245 7.90124 59.758 7.90124 59.758 7.90124L59.7961 8.25085L59.758 8.60047H59.7961L59.7008 9.0645L59.6245 9.28062V9.5921L59.7389 9.80187V9.94171L59.4657 10.7363L59.1734 12.1157L59.1162 12.3318L59.059 12.6242C59.0208 12.6242 58.9637 12.9166 58.9637 12.9166L58.9446 13.2662L58.9065 13.8065C58.7095 14.741 59.0018 14.938 59.0018 14.938C58.9446 15.0906 58.9446 15.4847 58.9446 15.4847L58.8238 16.3555L58.8874 16.6289L58.9637 17.5633C58.9637 18.1227 58.7285 18.4341 58.7285 18.4341L58.5951 18.6121C58.4172 18.6693 58.2075 18.4723 58.2075 18.4723C57.5847 17.951 57.6419 16.8831 57.6419 16.8831L57.6991 16.4127C57.8135 16.2793 57.7944 16.0059 57.7944 16.0059L57.7563 15.5037L57.7372 15.1287C57.6228 14.8617 57.68 14.4104 57.68 14.4104L57.8135 14.0989L57.877 13.7303H57.9151L57.9914 12.5098L58.0867 12.1157L58.1439 11.5754V11.302L58.2456 10.9524V10.3295L58.1884 10.196L58.36 9.45225L58.4743 9.18527L58.4934 8.56233L58.5951 8.19364L58.5379 7.68511V6.87147L58.4743 6.63627C58.4362 6.30573 58.5379 6.01332 58.5379 6.01332L58.7095 5.49208L58.7857 5.18061ZM51.5987 4.47502V4.24618L51.6813 4.39874L51.6622 4.51952L51.5987 4.47502ZM51.7131 4.33518V4.23983L51.9863 4.33518H51.7131ZM59.2242 24.206V29.4311H58.5442L55.0302 26.1511V29.4311H53.8863V24.206H54.7378L58.1185 27.3143V24.206H59.2242ZM50.7408 24.206H52.3295V29.4311H50.7408V24.206ZM63.6915 24.206L66.1571 29.4374H64.5049L64.0028 28.1916H61.6516L61.1306 29.4374H59.8469L62.2172 24.206H63.6915ZM61.9821 27.4351H63.6915L62.7955 25.49L61.9821 27.4351ZM68.6226 24.2123H73.325V24.9688H71.7872V29.4374H70.1986V24.9688H68.6226V24.2123ZM102.62 3.62324L102.467 3.56603L102.524 3.38804L103.09 3.19734L103.204 3.10199H103.147C102.931 3.1592 103.204 2.90494 103.204 2.90494L103.649 2.5744L103.789 2.47905L103.77 2.45998L104.018 2.28199L104.234 2.3392L104.253 2.28199L104.621 1.65904L104.857 1.60183L105.263 1.71625L106.35 2.18664L106.604 2.39641L106.833 2.42184L107.227 2.70788L107.265 3.31176C107.201 3.43254 107.322 3.78215 107.322 3.78215L107.284 4.04913C107.265 4.24618 107.633 4.24618 107.633 4.24618H108.644L109.343 4.22711L109.959 4.39874C110.137 4.63394 109.673 4.94541 109.673 4.94541L109.438 5.10433V5.49208L109.4 5.68278C109.279 5.62557 108.93 5.80356 108.93 5.80356L108.663 5.78449L108.371 5.72092L107.398 5.86076L103.592 5.95611L102.391 6.1341L101.654 6.3248L100.853 6.48371L100.116 6.69348C100.002 6.69348 99.7665 6.57906 99.7665 6.57906L99.417 6.48371C99.2645 6.38201 99.2645 6.1341 99.2645 6.1341C99.2645 5.95611 99.3217 5.8417 99.3217 5.8417L99.4742 5.68278L99.5378 5.80356H99.5949L99.9254 5.6065L100.466 5.43487L101.768 5.27596L102.391 5.10433L103.166 5.04076L104.177 4.83099L104.431 4.81192L104.679 4.69115L104.971 4.3606L104.583 3.95378C104.291 3.71859 104.081 3.68045 104.081 3.68045L103.42 3.60417L103.204 3.48975L103.554 3.33083C104.177 3.33083 104.138 3.21641 104.138 3.21641L103.497 3.27362L103.357 3.31176L103.147 3.27362L102.931 3.54696L102.62 3.62324ZM82.9141 3.38804L83.378 3.62324C84.2168 4.01099 84.1533 4.80557 84.1533 4.80557L83.9245 6.30573H84.274L85.4369 5.66371L86.5045 5.16154L87.1082 5.25689C87.3814 5.18061 87.6674 5.37131 87.6674 5.37131L88.1185 5.54929L88.1948 5.48572C88.6777 5.68278 88.7985 5.97518 88.7985 5.97518L89.0272 6.63627L89.3196 7.06216C89.3196 7.18294 89.4403 7.35457 89.4403 7.35457L89.5165 7.64697L89.4594 7.90124L89.5165 8.26992C89.5547 8.42248 89.4403 8.67674 89.4403 8.67674L89.3386 9.12171L89.2624 9.53489C89.167 9.53489 89.0908 9.82094 89.0908 9.82094L88.9891 10.196L88.4299 11.6326L88.7413 12.2746L89.0272 12.9547L88.9319 13.3044V13.5968C88.9129 13.8256 88.6205 14.0608 88.6205 14.0608L88.3473 14.4486L88.1948 14.6837L88.0169 14.8172L86.7015 14.9952L86.3901 15.0715L86.0596 15.1478L85.7292 15.2113L85.475 15.3639L85.0683 15.4211L84.7379 15.4783C84.4075 15.4402 84.2168 15.5991 84.2168 15.5991L83.9245 15.8534L83.378 16.5717C83.3208 16.7624 83.7084 17.5633 83.7084 17.5633L83.7656 17.7731C83.8228 17.8557 83.9245 17.8557 83.9245 17.8557L84.4075 18.0273L86.2948 17.8303L86.6443 17.7731L87.6102 17.4807L88.7603 17.2709L89.1099 17.112L89.4594 17.0357L89.7898 16.8005L89.9995 16.6861C90.0186 16.5907 90.1393 16.5907 90.1393 16.5907L90.349 16.6289H90.3109L90.1965 16.7052L90.2537 16.6861L90.3109 16.7052L90.4253 16.9403H90.4634V16.7624H90.3681V16.6861L90.4062 16.7433L90.5269 16.7052L90.546 16.7433L90.6413 16.8641L90.6604 16.8196L90.7748 16.9403V16.9785L90.6985 16.9403V16.9976L90.7557 17.0548L90.6413 17.112L90.8129 17.1501L90.7748 17.29L90.8129 17.3281L90.8955 17.2709L91.1433 17.29L91.1052 17.3472H91.0099L90.9527 17.5442L91.1052 17.3853L91.1433 17.4425L91.0099 17.5442L91.0861 17.6205V17.7159L91.1433 17.7349V17.6777L91.2069 17.7159V17.8557L91.2641 17.7731L91.3784 17.8303V18.0083L91.3213 18.0273L91.2259 18.1417L91.2069 18.1227L91.1052 18.1862L91.0861 18.3007C91.0099 18.3197 91.048 18.2625 91.048 18.2625L91.0099 18.2053L91.0861 18.1417V18.1227H91.048L90.8955 18.3197V18.2053H90.8764L90.6604 18.4151L90.5269 18.6693L90.6032 18.6503L90.5269 18.7647L90.546 18.8219L90.5269 18.8855L90.4634 18.8219H90.4062L90.4253 18.9427H90.3681L90.2918 19.1143H90.3681L89.9423 19.2923L88.1948 19.7373L88.0804 19.7563C88.1376 19.858 87.1653 20.0869 87.1653 20.0869L86.2693 20.2076C86.174 20.3793 85.3035 20.4746 85.3035 20.4746L84.274 20.3793L83.378 20.3602L82.3486 20.2076C81.9419 20.0869 81.4208 19.7373 81.4208 19.7373L81.1285 19.5656C80.9124 19.4067 80.8934 19.2923 80.8934 19.2923H80.8552C80.4867 19.1779 80.1944 18.0273 80.1944 18.0273L79.8639 16.6861L79.4 16.5145L78.8345 16.4127L78.2562 16.0059C78.1545 15.9678 78.0401 15.6754 78.0401 15.6754L77.805 15.4211C77.6144 15.383 77.2458 15.2113 77.2458 15.2113C76.8773 14.9952 76.7756 14.8172 76.7756 14.8172C76.604 14.3913 76.7756 14.0036 76.7756 14.0036L77.0107 13.2472L77.1823 12.1157L77.284 10.9715C77.2268 9.82094 77.284 9.57303 77.284 9.57303L77.5127 9.1662C77.7478 8.85473 77.7478 8.67674 77.7478 8.67674L77.805 8.65768L77.8622 8.44155L78.0401 8.03473C78.1355 7.68511 78.1927 7.68511 78.1927 7.68511L78.3706 8.03473C78.3896 8.32713 78.7201 8.38434 78.7201 8.38434C78.7392 8.54326 79.0124 8.89287 79.0124 8.89287L79.2412 9.29969L79.2793 9.63024L79.1649 10.4248C79.1077 11.0287 79.1649 11.2067 79.1649 11.2067C80.7408 10.1515 80.7409 9.70652 80.7409 9.70652L81.0713 9.18527L80.9696 9.04543L80.9506 8.65768L80.4485 8.71488L79.9783 8.85473L79.7495 8.60047L79.3428 8.54326L79.3619 8.50512L80.3723 7.78046L80.779 7.51348L81.1475 7.3355L81.478 7.0431C81.6496 6.83333 81.9228 4.74836 81.9228 4.74836C81.9991 4.47502 82.3295 3.95378 82.3295 3.95378L82.3867 3.31176L82.9141 3.38804ZM85.653 6.88418L85.2081 7.00496L84.8777 7.17658C84.4519 7.29736 84.2168 7.41178 84.2168 7.41178L83.9436 7.5262C83.6767 7.64697 83.6767 7.79953 83.6767 7.79953C83.5941 7.83767 83.4987 8.13008 83.4987 8.13008L83.4416 8.5369C83.4987 8.73395 83.8673 8.79116 83.8673 8.79116C84.1215 8.84837 84.3503 8.79116 84.3503 8.79116H84.5663L85.0111 8.73395C85.5576 8.61954 86.4727 7.97752 86.4727 7.97752H86.7968C87.0319 7.74232 87.0319 7.58976 87.0319 7.58976V7.41178L86.8603 7.17658L86.8794 7.06216L86.0025 6.86511L85.653 6.88418ZM85.4814 10.3295L84.6426 10.6219L84.0008 10.9715L83.7529 11.2639C83.6767 11.4164 83.7148 11.6898 83.7148 11.6898L83.6131 12.0013L83.772 12.4081C84.2168 12.7386 85.0111 12.211 85.0111 12.211C85.7928 11.8614 85.9453 11.6516 85.9453 11.6516L86.0787 11.4164L86.2757 10.482C86.3329 10.3676 86.2376 10.2723 86.2376 10.2723L86.1804 10.2087L85.4814 10.3295ZM79.8703 12.2746L79.4572 12.3954C79.1713 12.567 78.9552 12.567 78.9552 12.567H78.9361L78.8408 12.8594L78.6057 13.5014L78.5676 13.7748L78.4913 14.0417L78.5485 14.3341L78.3897 14.8236L78.4341 14.8617L78.5676 14.7028C78.7836 14.6265 78.9552 14.5121 78.9552 14.5121C79.3428 14.296 79.4572 14.296 79.4572 14.296L79.8703 14.2197L80.0418 13.9464L80.08 13.8129L80.3151 13.0946C80.4295 12.567 80.2579 12.3954 80.2579 12.3954L79.8703 12.2364V12.2746ZM96.837 5.1234L97.2819 5.51115L97.4789 6.01332L97.517 6.24852L97.9237 7.06216C98.1588 7.57069 98.1207 7.95845 98.1207 7.95845L98.0444 8.25085L98.0063 8.83566L97.8856 9.12807L97.8093 9.47768L98.1588 9.39504L98.7244 9.64931C98.8959 9.74466 99.0294 9.80822 99.0294 9.80822L99.2073 9.99892L99.3789 10.1578L99.4424 10.3676C99.4424 10.838 99.3598 11.0096 99.3598 11.0096L99.1882 11.4228C99.1501 11.6516 99.2454 12.2364 99.2454 12.2364L99.0294 14.8236L98.915 15.4847L98.8578 16.1458L98.6799 18.0845L98.5655 18.9808L98.2732 19.4512H98.0635L97.8284 19.6228V19.858C98.0063 20.0869 97.5742 20.0678 97.5742 20.0678L97.3073 20.3793C96.7227 20.3221 96.7227 19.6991 96.7227 19.6991L96.7417 18.2435L96.9768 16.8831L97.1484 16.3555L97.2819 15.2113L97.4217 14.5693V13.4442L97.3073 12.567L97.2437 12.122C97.034 11.6326 96.6845 11.747 96.6845 11.747L95.4772 12.9166L95.3056 13.031L94.9942 13.3806L94.8163 13.9273L94.721 14.1053H94.6638L94.6256 14.0417L94.6828 13.9273L94.6638 13.8892H94.6256V13.9273L94.5494 14.1625L94.4477 14.296L94.4858 13.654L94.4477 13.031L94.2571 12.7386C94.1999 12.7196 94.0982 12.6623 94.0982 12.6623L94.0792 11.9822L94.041 11.5372L94.1999 11.0668L94.3333 10.6219L94.7782 9.94171L95.0705 9.5921L95.5979 8.44791L95.9283 7.74232L96.0427 7.51348L96.0999 7.29736L96.4875 6.69348C96.4875 6.36294 96.7227 5.66371 96.7227 5.66371V5.49208L96.837 5.1234ZM81.0904 24.2123V28.681H83.7084V29.4438H79.5144V24.2123H81.0904ZM75.6381 24.9688V26.4117H77.7351V27.2063H75.6381V28.681H78.5104V29.4438H74.0622V24.2123H78.3325V24.9688H75.6381ZM84.7697 24.2123H89.059V24.9688H86.3583V26.4117H88.4363V27.2063H86.3583V28.681H89.2687V29.4438H84.7697V24.2123ZM92.0457 25.4328C92.0457 25.4328 91.5627 25.9413 91.5627 26.8122V26.8757C91.5627 26.8757 91.5627 27.8229 91.9885 28.2933C91.9885 28.2933 92.535 28.7382 93.234 28.7382L94.1427 28.6429L94.7273 28.503V29.2849L94.1427 29.4565L93.1323 29.5201C93.1323 29.5201 91.6771 29.5201 90.8256 28.8781C90.8256 28.8781 89.9105 28.236 89.9105 26.9711V26.7359C89.9105 26.7359 89.9105 25.5536 90.8256 24.8543C90.8256 24.8543 91.7343 24.1106 93.1323 24.1106L94.1046 24.1678L94.7273 24.3267V25.1404L94.2062 25.0069L93.4056 24.9497C93.4056 24.9497 92.554 24.9497 92.0457 25.4328ZM100.472 24.8543C101.253 25.5917 101.253 26.6977 101.253 26.6977V26.9902C101.253 28.1979 100.415 28.8781 100.415 28.8781C99.6585 29.5201 98.3367 29.5201 98.3367 29.5201C97.0213 29.5201 96.2588 28.8781 96.2588 28.8781C95.4263 28.1979 95.4263 26.9902 95.4263 26.9902V26.6977C95.4263 25.5917 96.2016 24.8543 96.2016 24.8543C96.9197 24.1106 98.3558 24.1106 98.3558 24.1106C99.7729 24.1106 100.472 24.8543 100.472 24.8543ZM97.3073 25.2993C97.0404 25.7061 97.0404 26.755 97.0404 26.755V26.9139C97.0404 28.0199 97.2882 28.3695 97.2882 28.3695C97.5233 28.7954 98.3367 28.7954 98.3367 28.7954C99.0357 28.7954 99.328 28.3505 99.328 28.3505C99.6204 27.8483 99.6204 26.9139 99.6204 26.9139V26.755C99.6204 25.846 99.3852 25.3184 99.3852 25.3184C99.1946 24.8925 98.3367 24.8925 98.3367 24.8925C97.5233 24.8925 97.3073 25.2993 97.3073 25.2993ZM107.036 7.0431L107.271 7.27829C107.386 7.3355 107.64 7.41178 107.64 7.41178L107.792 7.79953L108.047 8.03473L108.027 8.30806V8.54326L107.875 8.71488C107.64 9.18527 107.506 9.28062 107.506 9.28062C107.405 9.33783 107.29 9.28062 107.29 9.28062L107.055 9.18527H106.356L105.854 9.0645L104.825 8.60047L104.647 8.42248L103.91 8.03473C103.681 7.97752 103.541 7.79953 103.541 7.79953C103.427 7.58976 103.503 7.39271 103.503 7.39271C103.56 7.24015 103.681 7.22108 103.681 7.22108L104.259 6.98589L104.882 6.8079H105.619C105.797 6.92868 106.204 6.92868 106.204 6.92868H106.788L107.036 7.0431ZM105.289 9.76373L105.905 9.80187L107.036 10.0561L107.443 9.99892L107.811 10.0371C108.104 10.0943 108.104 10.1515 108.104 10.1515V10.5583L107.907 10.6791C107.754 10.7363 107.735 10.8507 107.735 10.8507L107.691 11.0096V11.1813L107.519 11.6326C107.386 11.8805 107.227 11.944 107.227 11.944C107.208 11.9822 106.896 12.0394 106.896 12.0394L106.604 12.1729H106.312L105.905 12.2301C105.498 12.0013 105.263 11.9822 105.263 11.9822L104.761 11.8805L104.177 11.8614C103.91 11.8042 103.77 11.6516 103.77 11.6516L103.23 11.2003L102.937 10.8316L102.74 10.4439C102.683 10.3104 102.74 10.1896 102.74 10.1896L102.76 10.0561L103.948 9.85908L105.289 9.76373ZM101.247 14.1561L101.362 13.4188L101.501 13.3616L101.597 13.476C101.673 13.654 101.851 13.7303 101.851 13.7303L102.219 13.8892L102.569 14.0417L102.683 14.3341L102.861 14.5312L103.052 14.76C103.154 14.8617 103.382 14.8617 103.382 14.8617L103.617 14.7982L103.853 14.7028L105.676 13.8065L106.585 13.1899L106.839 13.3044L107.328 13.2662L107.792 13.3806L107.964 13.5396L108.377 13.8701L108.726 14.3913L109.051 14.76V15.3639C108.936 15.6754 109.012 15.8279 109.012 15.8279L108.993 16.47L108.549 17.6586L108.587 17.8938L108.898 18.1417L108.955 18.1799L109.229 18.3197L109.171 19.038V19.3495L108.955 19.5847L108.726 19.68L108.415 19.858L107.678 19.8771L107.112 19.7563L106.14 19.9534L105.206 19.8771L104.977 19.68L104.685 19.5656L104.431 19.3876C104.374 19.2732 104.374 18.8028 104.374 18.8028L104.412 18.2625L104.431 18.0655L104.571 17.9701C104.628 17.7159 104.882 17.4997 104.882 17.4997L105.289 17.0929L105.95 16.3365C106.026 15.8534 105.905 15.5419 105.905 15.5419L105.772 15.3258C105.46 15.4402 104.977 15.9106 104.977 15.9106L104.647 16.2793L103.77 16.2411L103.713 16.2793V16.5717L103.675 16.8831L103.833 17.112L103.91 17.3472L103.732 18.9427L103.656 19.2732L103.541 19.7373L103.503 20.1822L103.268 20.5954C103.268 20.8433 103.173 20.8878 103.173 20.8878C103.052 20.9069 102.976 20.7861 102.976 20.7861L102.823 20.5954L102.353 20.3793L102.003 20.303C101.794 20.2076 101.736 19.9534 101.736 19.9534V19.4639L101.673 19.3304L101.362 18.0273L101.387 17.3472L101.362 16.4127C101.304 16.0059 101.387 15.5419 101.387 15.5419L101.209 14.741L101.247 14.1561ZM103.173 29.4374H102.099V24.206H103.268L105.905 28.0199L108.606 24.206H109.635V29.4374H108.199V26.4435L106.064 29.4374H105.206L103.173 26.4435V29.4374Z" fill="white"/>
</svg>
