<svg width="37" height="110" viewBox="0 0 37 110" fill="none" xmlns="http://www.w3.org/2000/svg">
<path d="M4.59891 42.2412C7.23562 38.1481 7.6983 32.5932 5.21285 23.6348C2.96857 14.0844 1.52991 10.9002 4.41796 6.71843C5.83669 5.11187 8.12098 4.53589 11.4114 4.96599C16.7752 5.96355 21.9371 8.65938 27.6629 13.448C30.6414 16.1207 33.1976 18.6001 34.224 21.8738C34.8679 24.3829 32.896 24.1484 32.614 23.8448C32.614 23.5244 32.5636 22.9862 32.2921 22.5703C32.0303 22.2327 31.185 21.3061 30.0479 21.2563C28.3071 21.1845 28.6694 22.9859 29.6252 23.7629C30.7022 24.6005 32.7647 25.8382 34.687 24.8646C35.3712 24.4565 35.844 23.7514 36.0051 22.8759C36.1764 19.8782 34.7473 17.0864 33.1675 14.5096C29.253 8.87457 23.8289 4.3669 17.8916 1.81627C14.3093 0.345843 9.17781 -0.984058 5.00124 1.00928C2.10329 2.55148 0.563972 5.7529 0.88586 9.57252C1.16732 12.2514 2.03316 15.4908 2.55594 17.6695C3.07967 19.8483 6.91318 31.0007 0.240981 34.6651C0.240981 34.6651 2.6064 35.8836 2.65686 38.9288C2.88786 41.4324 1.9321 45.0443 0.000356498 47.6744C1.31816 46.7981 3.26035 44.3137 4.59891 42.2412Z" fill="#E61A27"/>
<path d="M26.9887 24.772C28.3573 22.6862 25.7409 18.4938 21.253 15.1359C17.2274 12.0652 12.5487 10.7393 10.3852 12.1824C7.83935 14.3288 11.5424 18.3136 13.5244 20.0082L13.7561 20.2268C14.9939 21.3792 16.4833 22.2694 17.9125 23.1312C17.9125 23.1312 19.2206 23.9232 19.2812 23.9611C19.3713 24.4506 19.5123 25.0402 19.7035 25.7046C19.6736 25.6951 15.4168 23.1626 13.304 23.4209C12.6594 23.5014 10.3047 23.4401 9.59041 25.7389C9.07685 28.803 11.452 31.2497 13.5653 33.4081C13.5653 33.4081 13.9171 33.776 14.118 33.984C13.9074 33.9313 13.6262 33.8627 13.6262 33.8627C10.5066 32.9657 9.85194 34.1748 9.61049 34.9312C8.94581 37.2172 12.2669 39.9481 12.2669 39.957C11.2208 39.886 10.3555 39.6791 9.66095 40.7819C9.28832 41.8226 9.85647 42.876 10.3898 43.6768C12.4224 46.5609 15.6038 48.8843 18.3537 50.7609L18.3537 49.5639C18.3537 49.5497 14.0929 46.6101 13.1668 44.7012C13.1668 44.6981 12.9885 44.3507 13.1295 44.1506C13.3409 43.9027 13.7805 44.0005 14.0918 44.1535C14.112 44.1631 26.8787 51.5241 26.8787 51.5241L26.8787 48.0486C26.8787 48.0486 26.2645 47.669 26.2242 47.638C26.2443 47.6147 26.3499 47.559 26.4005 47.5205C29.379 45.3672 24.7975 40.491 19.4845 36.8199C17.4415 35.4066 15.1413 33.6071 13.481 31.7412C13.481 31.7412 10.9471 28.9769 12.7676 27.7959C13.5325 27.3642 14.6508 27.497 15.3852 27.7405C19.2998 29.1157 22.8524 31.4852 24.9959 34.1817C25.5892 34.9428 25.7608 35.7703 25.5092 36.1807C25.2774 36.572 24.7043 36.6351 24.3117 36.3876C24.3318 35.7597 24.141 35.2564 23.7183 34.8475C22.8729 34.0417 22.0577 33.7618 21.2928 34.018C19.5218 35.2625 23.0238 37.7445 25.1571 37.6244C25.922 37.5815 26.6463 37.1736 26.9989 36.5645C27.542 35.6568 27.4014 34.2722 26.9684 33.3761C26.5157 32.1764 24.936 30.2777 23.7081 29.1693C22.1682 27.7739 20.4577 25.3807 20.6493 24.6325C21.3035 24.8771 25.4392 26.8985 26.9887 24.772ZM20.8705 41.5279C21.8062 42.204 24.312 44.1718 24.7345 44.6515C26.154 46.265 25.5294 46.9098 25.087 46.9657C22.3902 45.4599 19.3007 43.6827 16.5232 42.0118C16.5331 42.0152 15.7283 41.4889 15.7283 41.4889C14.6016 40.7509 13.6354 40.0079 12.9614 38.7958C12.9106 38.623 12.8904 38.3381 13.0319 38.1485C13.1829 37.9202 13.4345 37.8301 13.6962 37.8559C14.5613 37.9286 17.2074 38.8094 20.8705 41.5279ZM19.2505 22.621C19.2505 22.621 19.1596 22.5906 19.1299 22.5757C19.1299 22.5719 16.6648 21.0603 16.6648 21.0603C15.447 20.1482 13.917 19.0093 13.1827 17.5856C13.0419 17.1636 12.9511 16.5802 13.3231 16.2829C14.078 15.6527 15.1247 15.9775 15.9697 16.2414L16.2717 16.3349C18.3243 17.0914 20.136 18.2916 21.8165 19.4601C21.8264 19.4747 21.8365 19.5074 21.8365 19.5192C21.8264 19.5221 21.8264 19.5268 21.8062 19.5287C20.3977 20.2619 19.7438 21.6366 19.4415 22.6647C19.4415 22.6709 19.4314 22.6776 19.4112 22.6776C19.3812 22.6778 19.3407 22.661 19.2505 22.621ZM22.1583 24.0529C22.1383 24.0462 20.6087 23.3797 20.6087 23.3797C20.5283 23.2833 20.5684 23.131 20.6087 22.9563L20.6593 22.6571C20.951 21.7176 21.5749 21.0089 22.3195 20.7904C23.7686 20.4892 24.9057 21.7271 25.3181 22.2724C25.6807 22.7957 25.8718 23.6093 25.4993 24.0818C25.1571 24.3731 24.7145 24.4836 24.2312 24.4836C23.5773 24.4837 22.8428 24.2818 22.1583 24.0529ZM17.4895 67.9897C18.2139 67.6545 18.6768 66.859 18.6266 66.0112C18.3749 63.2581 16.1108 60.5651 12.8607 59.1511C11.1901 58.4091 9.81165 58.0042 7.61797 57.7387C8.60385 58.5949 10.2239 60.3411 11.1095 62.3228C11.1095 62.3228 13.2126 62.5924 15.0844 63.9674C15.8595 64.4877 17.1071 65.5289 16.7752 66.698C16.433 67.7197 13.6051 67.3605 10.8686 66.0028C8.85575 64.9983 6.84261 63.461 5.45427 61.9056C4.28703 60.5305 2.87821 58.4959 3.96487 56.7158C4.62872 55.5946 6.01788 55.0228 7.80896 55.1435C12.8906 55.6792 17.2177 57.9925 22.1484 61.3028C26.7271 64.7161 31.4264 68.4787 33.9325 73.5473C34.4557 74.5812 34.5764 75.5386 34.2544 76.3662C34.2544 76.3662 31.638 71.6082 26.7976 69.3401C25.5697 68.7631 23.9098 67.9607 22.4405 68.7688C21.6759 69.191 21.6154 69.9407 21.6556 70.5445C22.2998 73.3246 24.896 75.1207 27.2706 76.5883C29.0718 77.4391 30.8631 78.1954 32.8556 78.1954C33.097 78.1954 33.4189 78.1829 33.6606 78.1625C34.3648 79.4906 33.1172 82.2144 33.1172 82.2144C32.4126 84.3427 28.9407 88.8746 28.2768 90.4033C29.1421 91.149 30.4501 92.3744 31.1044 93.0645L31.7183 92.0656C32.6944 90.4665 33.6204 88.7762 34.536 87.1125C36.5986 83.3342 35.8743 80.2586 35.3106 78.6934C35.0894 78.0782 34.8981 77.5161 34.8981 77.5161C36.166 76.3545 36.0456 74.4493 35.7032 73.0456C34.2542 67.9974 30.7223 63.3104 24.5937 58.2855C19.7936 54.5911 15.6476 52.2996 11.5521 51.0782C8.79497 50.1367 4.73968 49.8505 2.33453 52.1485C0.292238 54.1022 0.734713 56.6928 1.46897 58.5221C3.42119 62.4858 7.62773 66.0483 12.4682 67.8235C13.907 68.2519 15.9396 68.7273 17.4895 67.9897ZM32.6541 77.1042C26.6364 76.5795 23.1041 71.9019 22.8227 70.7444C22.6821 70.043 22.9938 68.8462 25.5193 69.9147C28.9209 71.488 31.8086 74.1743 33.288 77.0563C33.0364 77.1266 32.8758 77.1247 32.6541 77.1042ZM31.8896 104.851C30.4605 102.335 29.5349 99.727 29.8568 96.5697C28.8704 95.6948 27.8541 94.8427 26.8078 94.0574C25.6807 98.4889 28.1863 103.187 30.571 105.807C32.9762 108.579 36.0049 110 36.0049 110C36.0049 110 33.6303 107.923 31.8896 104.851ZM26.8784 57.3003L26.8784 53.9998L23.8534 52.138L23.8534 55.4379L26.8784 57.3003Z" fill="#E61A27"/>
<path d="M4.31899 96.5564C4.07754 96.2015 4.26316 95.7029 4.81646 95.8892C6.22529 96.3537 9.09629 98.1998 9.09629 98.1998L18.2161 103.342L18.2161 99.8197C17.9411 99.6522 17.3097 99.2943 17.3097 99.2943C17.5812 99.1313 18.1846 98.644 18.3151 98.4434C18.8589 97.5829 18.6018 96.3206 18.1089 95.4496C15.8947 91.663 11.5201 88.9002 8.10863 86.7213C8.10863 86.7213 4.31637 84.4276 4.03436 83.1545C3.95379 82.1605 5.29276 82.2631 5.60475 82.3061C7.8592 82.6904 10.0024 83.5829 11.9446 84.4821C13.2125 86.3111 14.8728 88.3982 16.6941 90.295C20.6291 94.4115 25.087 97.8819 26.0832 98.3891C26.0832 98.3891 25.9724 97.8401 25.9524 97.1918C21.5348 94.0249 15.1144 87.5442 14.1586 85.5795C16.2522 86.4498 26.2444 92.0733 31.0241 96.8586L31.7489 97.6117C32.886 98.7762 34.0533 99.9826 34.2445 100.923C34.2546 101.022 34.2445 101.15 34.0127 101.26C33.1273 101.302 32.4731 100.973 31.7285 100.595L30.6416 100.065C30.6416 100.065 30.7825 100.815 30.944 101.308C32.0202 101.88 33.2281 102.514 34.6668 102.28C35.1297 102.202 35.4819 101.867 35.5625 101.429C35.8342 100.002 34.7779 98.446 33.9222 97.1941L33.8922 97.1436C28.8507 90.7084 21.5852 85.2745 11.663 80.5236C11.4018 80.1793 11.0895 78.849 11.2406 78.6229C12.2064 79.0921 13.5048 79.6828 14.9136 79.9782C15.3164 80.0294 15.7286 80.077 16.1311 80.077C16.9972 80.077 17.812 79.8691 18.3752 79.0933C18.8281 78.1836 18.6167 77.0593 18.2748 76.3011C16.866 72.9052 13.384 70.3671 10.5164 68.5355C8.69452 67.5504 6.74325 66.5683 4.50888 66.2963C2.75822 66.1048 1.631 66.4947 1.06738 67.4902C0.544472 68.5138 1.08801 69.8021 1.3494 70.3083C3.16082 73.7487 6.7933 76.1526 10.1142 78.0473C10.1241 78.1227 10.1541 79.1572 10.3557 79.9399C10.3557 79.9502 10.3557 79.9546 10.3452 79.9719C10.1948 79.9271 8.98684 79.5227 8.98684 79.5227C5.46519 78.3218 3.06994 77.7664 1.65121 78.9008C-0.351342 80.5218 1.72134 83.2055 4.45896 85.3886C1.17862 84.92 0.665057 86.6201 0.916408 87.9161C1.31873 89.4048 2.90906 91.0638 3.72389 91.8336C2.76812 91.5864 1.05707 91.6535 0.886294 93.0079C0.714694 93.936 1.2196 94.6308 1.65245 95.4345C3.22242 98.3177 8.45389 101.769 9.96639 102.665L9.96639 101.49C8.04098 100.216 5.51703 98.5954 4.31899 96.5564ZM4.66934 70.6764C4.94118 70.4935 5.23818 70.4329 5.55938 70.4268C7.53264 70.3917 11.0661 72.5147 12.9911 74.0131L12.9911 74.0162C11.6161 74.6441 10.7323 76.0661 10.3598 76.9245C7.98474 75.8585 2.89833 72.2019 4.66934 70.6764ZM11.4216 77.5263C11.3506 77.4249 11.9548 75.6317 13.6151 75.2851C15.0445 74.9911 16.1615 75.9755 16.7244 76.9278C17.0467 77.3366 17.157 77.9523 16.9966 78.404C16.7144 78.8232 16.2108 78.9368 15.6684 78.9368C15.3356 78.9368 14.9938 78.8927 14.682 78.8538L14.6113 78.8452C13.4956 78.5449 12.4235 78.1016 11.4216 77.5263ZM5.30321 91.9084C5.30321 91.9069 5.0014 91.5681 5.0014 91.5681C4.56883 91.0844 4.106 90.5867 4.33755 89.9858C4.39777 89.8198 4.61901 89.7031 4.79061 89.675C6.02839 89.6477 7.17528 90.205 8.29219 90.7456L8.58411 90.8842C11.1802 92.4391 14.2394 94.2464 16.3624 96.9007C16.6851 97.348 16.9562 97.8333 16.7447 98.3457C16.6342 98.4635 16.4429 98.6007 16.2519 98.6007C16.1913 98.6007 16.0304 98.5468 15.9802 98.5159C14.7822 97.7745 13.5246 97.0686 12.3171 96.382C9.93216 95.0403 7.46719 93.6484 5.30321 91.9084Z" fill="#E61A27"/>
</svg>
