<svg width="43" height="65" viewBox="0 0 43 65" fill="none" xmlns="http://www.w3.org/2000/svg">
<path fill-rule="evenodd" clip-rule="evenodd" d="M42.2957 28.9489C42.9017 31.5571 42.8855 34.3294 42.1479 36.9083C40.666 40.1851 38.981 43.3676 37.4534 46.625C37.0843 47.4217 36.5987 48.1717 36.3663 49.0254C36.1551 50.0282 36.0769 51.0575 36.1095 52.0815C36.0248 55.2055 36.4151 58.3868 37.5751 61.3063C37.7668 61.8421 38.0399 62.3774 38.0058 62.9652C38.0041 63.3628 37.5686 63.6063 37.2129 63.6242C36.5661 63.4925 36.0167 63.0982 35.4741 62.7461C33.9678 61.6051 32.6319 60.2156 31.6653 58.588C30.7177 60.0908 30.2887 61.9197 29.018 63.2087C27.7311 64.6075 25.7196 65.0815 23.8799 64.9888C16.9464 64.9872 10.0141 64.9791 3.08059 64.9677C2.29872 64.8868 1.42119 64.799 0.816773 64.2409C0.452901 63.8368 0.150487 63.3335 0.0971652 62.7835C0.0466969 59.273 0.161882 55.7575 0.0157639 52.2486C-0.0363328 37.801 0.0646123 23.3497 0.0239101 8.90541C0.0450742 6.73874 -0.0607531 4.57044 0.0564689 2.4054C0.0694923 1.67166 0.487095 0.983445 1.09477 0.584258C1.92833 -0.069808 3.06594 0.0553955 4.0554 0.107022C9.52812 0.100518 15.0013 0.124908 20.474 0.107022C21.9266 0.00986779 23.3813 0.0716566 24.8339 0.00173783C26.1372 -0.0307825 27.4742 0.392795 28.4429 1.28223C29.6306 2.24483 30.1866 3.72004 30.8317 5.05581C32.3088 7.9802 33.7044 10.9436 35.1782 13.8684C35.7375 15.1245 36.4522 16.3062 36.9626 17.5851C38.2821 20.1835 39.5007 22.829 40.804 25.4355C41.3612 26.5778 41.9998 27.7026 42.2957 28.9489ZM37.2438 27.9233C37.1885 27.7432 37.1185 27.568 37.0358 27.3977C37.0065 26.0863 36.5108 24.8526 36.1388 23.6127C35.0337 20.6363 33.693 17.6985 31.7414 15.1717C31.012 14.3148 30.2627 13.4058 29.2098 12.9351C29.4633 13.5761 29.8923 14.1217 30.2383 14.7107C31.5481 17.194 32.6987 19.7859 33.2998 22.5384C34.153 25.7079 34.5559 28.9945 34.4912 32.2762C34.5412 36.0888 33.5632 39.8002 32.6368 43.4652C32.0568 45.3071 31.5432 47.1717 31.0804 49.0465C30.6722 51.4177 30.6754 53.9461 31.5839 56.2087C32.3316 58.4225 33.8717 60.2791 35.6479 61.7591C35.9422 62.0059 36.2865 62.1795 36.6378 62.3323C36.6846 62.3823 36.779 62.4847 36.8262 62.5352C36.8747 61.9376 36.5499 61.4152 36.3826 60.8632C34.7802 56.0173 34.7671 50.6563 36.3386 45.8022C37.1038 42.9571 37.6484 40.0485 37.8043 37.103C37.9215 34.0372 37.8401 30.9437 37.2438 27.9233ZM26.077 13.3587C25.4644 13.2875 24.8372 13.2778 24.2246 13.3668C23.5388 13.5196 23.2038 14.2644 23.2185 14.9135C23.2022 16.7526 23.2169 18.5912 23.2136 20.4302C23.308 23.6436 23.1924 26.8619 23.2983 30.0737C23.919 30.09 24.5397 30.0916 25.1604 30.0689C25.1392 28.5302 25.245 26.9932 25.1669 25.455C25.2694 22.5823 25.1245 19.7062 25.2206 16.8318C25.51 16.814 25.799 16.7993 26.0884 16.7818C26.1046 15.6424 26.147 14.4981 26.077 13.3587ZM25.8071 9.74769C25.7941 9.23793 25.4204 8.74972 24.8795 8.75785C24.179 8.75785 23.4232 8.62289 22.7618 8.91029C22.1769 9.23142 22.3137 9.98143 22.2893 10.5363C22.3263 11.0835 22.1997 11.6676 22.4028 12.1904C23.3845 12.2261 24.4359 12.3818 25.3732 12.0245C26.0607 11.494 25.8104 10.4993 25.8071 9.74769ZM25.4286 37.0363C24.733 36.9652 24.0329 36.9794 23.3357 36.9859C23.238 39.6006 23.3259 42.2217 23.2901 44.838C21.6458 44.942 19.9961 44.8526 18.3518 44.8835C18.2643 42.2721 18.3648 39.6559 18.2948 37.0445C17.5834 37.0071 16.8699 37.0038 16.158 37.0477C16.121 39.5457 16.1678 42.0433 16.1303 44.5429C14.2926 44.3721 12.5571 43.6095 10.9681 42.7038C8.81015 41.3002 7.00951 39.3298 5.84463 37.0315C5.36029 37.0412 4.87431 37.0412 4.38996 37.0607C4.58533 38.7018 5.47222 40.1559 6.353 41.516C7.91797 43.8872 10.1411 45.7973 12.7114 47.0063C10.6429 47.9591 8.80038 49.3855 7.36565 51.153C6.01354 52.8441 4.84012 54.7514 4.40787 56.8986C4.93129 56.9567 5.47221 57.0315 5.98098 56.853C7.46293 53.8799 10.1053 51.5912 13.0887 50.1925C14.0798 49.8416 15.0806 49.488 16.1193 49.3047C16.1824 51.8347 16.1144 54.3665 16.1547 56.8986C16.8715 56.923 17.5899 56.9246 18.3062 56.8953C18.3339 54.2904 18.3095 51.6855 18.3176 49.0807C19.9754 49.0628 21.636 48.9782 23.2934 49.0595C23.3292 51.6758 23.2234 54.2986 23.3487 56.9116C24.0439 56.9148 24.7411 56.9197 25.4383 56.9051C25.5067 53.9998 25.4481 51.0912 25.4677 48.1847C25.4481 44.4681 25.5116 40.7514 25.4286 37.0363ZM21.8228 13.7709C20.128 13.6396 18.4251 13.7741 16.727 13.7176C13.9125 13.7404 11.0996 13.7709 8.2851 13.7562C6.98021 13.6168 5.66229 14.7009 5.66066 16.0367C5.63177 19.3656 5.6802 22.694 5.63665 26.0245C5.23656 26.0506 4.81081 25.9693 4.42903 26.1123C4.38833 26.6526 4.49904 27.2062 4.75587 27.6847C5.20277 28.6457 6.28503 29.1892 7.3103 29.2396C9.12192 29.2542 10.9356 29.2298 12.7472 29.251C12.7684 29.4993 12.77 29.751 12.8107 29.9977C13.4461 30.1079 14.0977 30.0331 14.7379 30.0363C14.7395 29.7819 14.7395 29.5286 14.7395 29.277C15.9956 29.2136 17.2533 29.2493 18.5093 29.2461C19.1251 29.238 19.767 29.3079 20.3523 29.0758C21.3466 28.7221 21.9169 27.6266 21.8928 26.6103C21.9055 22.329 21.8717 18.0509 21.8228 13.7709ZM19.327 8.67004C18.6786 8.67492 17.9456 8.52898 17.3721 8.90703C16.7693 9.36638 16.9867 10.2087 16.9448 10.8627C16.8975 11.4436 17.2223 12.1172 17.8593 12.1871C18.69 12.2875 19.5301 12.2326 20.3621 12.1985C20.3995 11.3705 20.3751 10.5412 20.3669 9.71354C20.4382 9.1359 19.8761 8.65866 19.327 8.67004ZM14.733 8.94281C12.5278 8.84037 10.3214 8.95581 8.11456 8.91191C7.28588 8.94931 6.39532 8.79809 5.62525 9.18468C4.66632 9.67614 4.19989 10.7879 4.35129 11.8298C4.33013 12.1887 4.79006 12.1448 5.02368 12.1725C8.26231 12.1042 11.5107 12.2794 14.7444 12.0993C14.7412 11.0477 14.7509 9.99443 14.733 8.94281Z" fill="#E93323"/>
<path d="M19.8809 16.9685C19.8874 19.479 19.8712 21.9884 19.8907 24.499C19.964 25.3233 19.1902 26.1026 18.368 26.0766C17.1625 26.0652 15.95 26.1477 14.7476 26.0311C14.7558 25.1237 14.7086 24.2132 14.7623 23.3059C14.7932 23.264 14.8547 23.1762 14.884 23.1339C15.661 23.0481 16.4457 23.1534 17.2223 23.0933C17.7832 23.0742 18.1943 22.5498 18.2899 22.0351C18.3566 21.3148 18.3241 20.5859 18.2687 19.8652C17.0957 19.8376 15.9223 19.8766 14.7476 19.8408C14.7379 18.8851 14.7444 17.9306 14.7428 16.9766C16.4539 16.9506 18.1682 16.9067 19.8809 16.9685Z" fill="#E93323"/>
<path d="M12.7782 16.9848C12.7086 17.9405 12.8368 18.9015 12.7309 19.8572C12.0374 19.8816 11.332 19.7926 10.6446 19.9011C10.1684 20.1186 9.54442 20.3523 9.44388 20.9381C9.34945 21.6523 9.40644 22.3779 9.42923 23.095C10.5326 23.1227 11.6361 23.0869 12.7391 23.1194C12.7993 24.0885 12.8319 25.0702 12.7488 26.0377C11.0638 26.1381 9.36085 26.1999 7.67744 26.0605C7.67418 23.5316 7.67092 21.0015 7.67581 18.4714C7.65302 17.7084 8.28023 16.8889 9.09751 16.967C10.3247 16.9718 11.5514 16.954 12.7782 16.9848Z" fill="#E93323"/>
<path d="M37.2439 27.9231C37.8402 30.9434 37.9216 34.0369 37.8044 37.1028C37.6485 40.0483 37.1039 42.9568 36.3387 45.802C34.7672 50.656 34.7802 56.017 36.3827 60.8629C36.5499 61.415 36.8747 61.9373 36.8263 62.5349C36.7791 62.4845 36.6847 62.3821 36.6378 62.3321C35.674 61.1325 34.8502 59.8016 34.3691 58.3345C33.6267 56.0251 33.2788 53.5646 33.5909 51.1479C33.8429 49.4276 34.1693 47.7089 34.7688 46.0715C36.3501 41.6601 37.2651 36.9857 37.1853 32.2889C37.1837 30.6564 36.9659 29.0316 37.0359 27.3975C37.1185 27.5678 37.1885 27.743 37.2439 27.9231Z" fill="white"/>
<path d="M26.0772 13.3585C26.1472 14.4979 26.1049 15.6422 26.0886 16.7817C25.7992 16.7991 25.5102 16.8138 25.2208 16.8317C25.1248 19.7061 25.2697 22.5821 25.1671 25.4548C25.2453 26.9931 25.1394 28.5301 25.1606 30.0687C24.5399 30.0914 23.9192 30.0898 23.2985 30.0735C23.1927 26.8618 23.3083 23.6435 23.2138 20.43C23.2171 18.591 23.2024 16.7524 23.2187 14.9134C23.2041 14.2642 23.5391 13.5195 24.2249 13.3666C24.8374 13.2776 25.4646 13.2873 26.0772 13.3585Z" fill="white"/>
<path d="M25.8074 9.74751C25.8107 10.4991 26.061 11.4939 25.3735 12.0243C24.4362 12.3817 23.3849 12.226 22.4031 12.1902C22.2 11.6674 22.3266 11.0833 22.2896 10.5361C22.314 9.98125 22.1772 9.23125 22.7621 8.91011C23.4235 8.62271 24.1794 8.75767 24.8798 8.75767C25.4208 8.74954 25.7944 9.23775 25.8074 9.74751Z" fill="white"/>
<path d="M25.4286 37.0359C25.5116 40.751 25.4481 44.4677 25.4676 48.1843C25.4481 51.0908 25.5067 53.9994 25.4383 56.9047C24.7411 56.9193 24.0439 56.9144 23.3487 56.9112C23.2234 54.2982 23.3292 51.6754 23.2934 49.0591C21.636 48.9778 19.9754 49.0624 18.3176 49.0803C18.3095 51.6852 18.3339 54.29 18.3062 56.8949C17.5899 56.9242 16.8715 56.9226 16.1547 56.8982C16.1144 54.3661 16.1824 51.8343 16.1193 49.3043C15.0806 49.4876 14.0798 49.8412 13.0887 50.1921C10.1053 51.5908 7.46291 53.8795 5.98097 56.8526C5.4722 57.0311 4.93128 56.9563 4.40786 56.8982C4.84011 54.751 6.01353 52.8437 7.36564 51.1526C8.80037 49.3852 10.6429 47.9587 12.7114 47.0059C10.1411 45.7969 7.91796 43.8868 6.35298 41.5156C5.4722 40.1555 4.58532 38.7014 4.38995 37.0603C4.8743 37.0408 5.36027 37.0408 5.84462 37.0311C7.0095 39.3294 8.81013 41.2998 10.9681 42.7034C12.5571 43.6091 14.2926 44.3717 16.1303 44.5425C16.1678 42.0429 16.1209 39.5453 16.158 37.0473C16.8699 37.0034 17.5833 37.0067 18.2948 37.0441C18.3648 39.6555 18.2643 42.2717 18.3518 44.8831C19.9961 44.8522 21.6458 44.9416 23.2901 44.8376C23.3259 42.2213 23.238 39.6002 23.3357 36.9855C24.0329 36.979 24.733 36.9648 25.4286 37.0359Z" fill="white"/>
<path fill-rule="evenodd" clip-rule="evenodd" d="M21.8228 13.7708C21.8717 18.0509 21.9055 22.3289 21.8928 26.6102C21.9169 27.6265 21.3466 28.722 20.3523 29.0757C19.767 29.3078 19.1251 29.2379 18.5093 29.246C17.2533 29.2492 15.9956 29.2135 14.7396 29.2769C14.7396 29.5285 14.7396 29.7818 14.7379 30.0362C14.0977 30.033 13.4461 30.1078 12.8107 29.9976C12.77 29.7509 12.7684 29.4992 12.7472 29.2509C10.9356 29.2297 9.12193 29.2541 7.31031 29.2395C6.28504 29.1891 5.20278 28.6456 4.75588 27.6846C4.49905 27.2061 4.38835 26.6525 4.42905 26.1122C4.81083 25.9692 5.23657 26.0505 5.63666 26.0244C5.68021 22.6939 5.63178 19.3655 5.66067 16.0366C5.6623 14.7008 6.98022 13.6167 8.28511 13.7561C11.0996 13.7708 13.9125 13.7403 16.727 13.7175C18.4251 13.774 20.128 13.6395 21.8228 13.7708ZM19.881 16.9683C18.1683 16.9065 16.4539 16.9504 14.7428 16.9765C14.7444 17.9305 14.7379 18.885 14.7477 19.8407C15.9223 19.8765 17.0958 19.8374 18.2688 19.8651C18.3241 20.5858 18.3567 21.3147 18.29 22.035C18.1943 22.5496 17.7832 23.074 17.2223 23.0931C16.4458 23.1533 15.661 23.048 14.884 23.1338C14.8547 23.1761 14.7933 23.2639 14.7623 23.3057C14.7086 24.2131 14.7558 25.1236 14.7477 26.0309C15.95 26.1476 17.1625 26.0651 18.3681 26.0765C19.1903 26.1025 19.964 25.3232 19.8907 24.4988C19.8712 21.9883 19.8875 19.4789 19.881 16.9683ZM12.7782 16.9846C11.5514 16.9537 10.3247 16.9716 9.09751 16.9667C8.28023 16.8887 7.65301 17.7082 7.67581 18.4712C7.67092 21.0013 7.67418 23.5313 7.67743 26.0602C9.36085 26.1996 11.0638 26.1379 12.7488 26.0374C12.8319 25.07 12.7993 24.0883 12.7391 23.1192C11.6361 23.0866 10.5326 23.1224 9.42923 23.0948C9.40644 22.3777 9.34945 21.6521 9.44388 20.9378C9.54442 20.3521 10.1684 20.1183 10.6446 19.9009C11.332 19.7923 12.0374 19.8813 12.7309 19.8569C12.8368 18.9013 12.7086 17.9403 12.7782 16.9846Z" fill="white"/>
<path d="M19.327 8.66971C19.8761 8.65833 20.4382 9.13556 20.367 9.71321C20.3751 10.5408 20.3995 11.3701 20.3621 12.1982C19.5301 12.2323 18.6901 12.2872 17.8593 12.1868C17.2224 12.1169 16.8976 11.4433 16.9448 10.8624C16.9867 10.2083 16.7694 9.36605 17.3721 8.9067C17.9456 8.52865 18.6787 8.67459 19.327 8.66971Z" fill="white"/>
<path d="M14.7332 8.94253C14.7511 9.99416 14.7414 11.0474 14.7446 12.099C11.5109 12.2791 8.26251 12.1039 5.02388 12.1722C4.79026 12.1446 4.33033 12.1885 4.35149 11.8295C4.20009 10.7877 4.66652 9.67587 5.62545 9.1844C6.39552 8.79782 7.28608 8.94904 8.11476 8.91164C10.3216 8.95554 12.528 8.84009 14.7332 8.94253Z" fill="white"/>
<path d="M37.1851 32.2892C37.2649 36.9859 36.3499 41.6603 34.7687 46.0717C34.1691 47.7091 33.8427 49.4278 33.5908 51.1481C33.2786 53.5648 33.6266 56.0254 34.369 58.3347C34.8501 59.8018 35.6739 61.1327 36.6377 62.3323C36.2864 62.1794 35.9421 62.0059 35.6478 61.7591C33.8716 60.279 32.3315 58.4225 31.5838 56.2087C30.6753 53.9461 30.6721 51.4176 31.0803 49.0465C31.5431 47.1717 32.0567 45.3071 32.6367 43.4652C33.5631 39.8001 34.5411 36.0887 34.4911 32.2761C34.5558 28.9944 34.1529 25.7078 33.2998 22.5383C32.6986 19.7859 31.548 17.194 30.2382 14.7107C29.8922 14.1216 29.4632 13.5761 29.2097 12.9351C30.2626 13.4058 31.0119 14.3147 31.7413 15.1716C33.6929 17.6985 35.0336 20.6363 36.1387 23.6127C36.5107 24.8526 37.0064 26.0863 37.0357 27.3977C36.9657 29.0318 37.1835 30.6566 37.1851 32.2892Z" fill="#F8DB4A"/>
</svg>
