<svg width="24" height="100" viewBox="0 0 24 100" fill="none" xmlns="http://www.w3.org/2000/svg">
<path d="M16.3203 54.9866L10.0923 54.9866C8.32328 54.9866 7.37934 54.1088 7.37934 52.5137C7.37934 50.9097 8.35052 50.0266 10.1678 50.0266L16.3135 50.0266L16.3135 47.8199L10.0923 47.8199C7.03128 47.8199 5.27716 49.5201 5.27716 52.4846C5.27716 55.4772 7.06489 57.1933 10.182 57.1933L16.3203 57.1933L16.3203 54.9866ZM16.3203 63.1057L5.44673 58.3128L5.44673 60.5654L7.55261 61.4905L7.71045 61.5568L7.71044 66.5359L5.44675 67.5124L5.44675 69.8263L16.2559 65.0779L16.3203 65.0353L16.3203 63.1057ZM16.3203 76.2268L8.83857 73.7571L16.3147 71.3529L16.3147 69.0044L5.43993 72.7954L5.43993 74.6228L12.5837 77.0975L5.43993 79.5704L5.43993 81.4133L16.3147 85.195L16.3147 82.9065L8.83857 80.4974L16.3203 78.027L16.3203 76.2268ZM16.3203 97.8223L5.45602 97.8223L5.45602 100L16.3203 100L16.3203 97.8223ZM16.3196 35.3609L5.44053 35.3609L5.44052 37.5682L9.859 37.5682L9.859 42.5523L5.44052 42.5523L5.44052 44.7603L16.3196 44.7603L16.3196 42.5523L11.9309 42.5523L11.9309 37.5682L16.3196 37.5682L16.3196 35.3609ZM16.3123 86.9748L5.44799 86.9748L5.44799 95.1904L7.42888 95.1904L7.42888 89.1524L10.1227 89.1524L10.1227 93.1674L12.1042 93.1674L12.1042 89.1524L14.3314 89.1524L14.3314 94.98L16.3123 94.98L16.3123 86.9748ZM13.5671 64.0407L9.92468 65.6145L9.92468 65.6089L9.6734 65.716L9.6734 62.3774L9.92468 62.4832L13.5671 64.0407Z" fill="white"/>
<path d="M23.1205 12.1951C23.0843 11.8135 22.8321 10.7823 22.8321 10.7823C22.1867 8.4581 19.9207 7.90833 19.9207 7.90833C19.5397 7.79483 19.1492 7.74327 18.7813 7.72811L18.2806 7.72811C17.5069 7.75895 16.9293 7.9191 16.9293 7.9191C13.2308 8.69547 7.15374 12.5127 5.87713 13.3331C5.81512 13.3913 5.8375 13.438 5.8375 13.438C5.86377 13.5265 5.95503 13.5196 5.95503 13.5196L5.95457 13.5213C19.5238 14.7849 23.1205 12.1951 23.1205 12.1951ZM23.1205 16.3704C23.1205 16.3704 19.5219 13.7692 5.94477 15.0338L5.94477 15.0355C5.85858 15.0453 5.84063 15.1022 5.84063 15.1022C5.80541 15.1869 5.89274 15.2302 5.89274 15.2302L5.89188 15.2307C7.20108 16.0721 13.2451 19.8676 16.9293 20.6406C16.9293 20.6406 18.7125 21.0596 19.9208 20.6551C19.9208 20.6551 22.2219 20.0805 22.83 17.7533C22.83 17.7533 23.0128 17.0826 23.1205 16.3704ZM19.047 4.37273C19.047 4.37273 16.7889 2.15818 14.3949 2.04811L14.3949 2.04899L14.0322 2.04899C14.0048 2.05067 13.9772 2.05195 13.9494 2.05356C12.019 2.14895 10.8764 3.5007 10.8764 3.5007C8.59598 5.67865 5.7168 10.9523 5.06351 12.1777C5.05662 12.1949 5.0344 12.2582 5.08487 12.2954C5.08487 12.2954 5.10064 12.3147 5.12898 12.3236L5.18909 12.3236C5.19254 12.3227 5.19599 12.321 5.19978 12.3194C13.076 8.96345 19.047 4.37273 19.047 4.37273ZM19.047 24.1873C19.047 24.1873 13.0947 19.6101 5.23442 16.2556L5.23487 16.2569C5.23487 16.2569 5.14373 16.2173 5.08487 16.2813C5.08487 16.2813 5.06937 16.3004 5.06308 16.3269L5.06308 16.3733C5.06566 16.3816 5.06911 16.3906 5.07556 16.3994C5.74672 17.6581 8.60613 22.891 10.8761 25.0586C10.8761 25.0586 12.0604 26.4314 13.9619 26.5033C16.6029 26.6618 19.047 24.1873 19.047 24.1873ZM11.2276 28.3071C11.2276 28.3071 6.92527 20.8448 4.12924 16.9864L4.12792 16.9877C4.12792 16.9877 4.07866 16.9177 3.99038 16.9421C3.99038 16.9421 3.91915 16.9788 3.91915 17.032C3.91657 18.4141 3.90982 23.6436 3.93609 23.7747C3.93609 23.7747 3.96511 24.4509 4.30997 25.2865C4.30997 25.2865 4.94532 27.1467 7.21421 28.1128C7.21421 28.1128 8.16293 28.5543 9.49577 28.5607L9.55227 28.5607C10.0663 28.5575 10.6353 28.49 11.2276 28.3071ZM11.2075 0.250884C8.94941 -0.428074 7.12986 0.485973 7.12692 0.487449C4.96464 1.44 4.30947 3.25827 4.30947 3.25827C3.93895 4.09774 3.91333 4.93741 3.91333 4.93741C3.88758 5.06852 3.91075 10.1588 3.91764 11.5227C3.9181 11.5804 3.98044 11.6122 3.98044 11.6122C3.98733 11.6162 3.99422 11.6197 4.0005 11.6213L4.057 11.6213C4.09482 11.61 4.12151 11.5798 4.12151 11.5798L4.12197 11.5807C6.91709 7.7243 11.2075 0.250884 11.2075 0.250884ZM3.22344 11.3669L2.89273 2.58835C1.06952 3.54034 -0.347435 5.14362 0.0877416 6.81376C0.397306 7.96633 2.35397 10.5774 3.01514 11.4394L3.01772 11.4365C3.0824 11.5035 3.13433 11.4796 3.13433 11.4796C3.219 11.4575 3.21892 11.3669 3.21892 11.3669L3.22344 11.3669ZM3.21655 17.1811L3.21311 17.1803C3.21311 17.1803 3.2026 17.1032 3.14059 17.0816C3.14059 17.0816 3.05583 17.0629 3.01373 17.1148L3.01288 17.1139C2.36538 17.9544 0.451724 20.5022 0.0801458 21.7296C0.0801458 21.7296 0.0121851 21.9155 4.09901e-05 22.2272L4.09819e-05 22.4144C0.0310487 23.2368 0.48491 24.6694 2.88783 25.9712L3.21655 17.1811Z" fill="#CF0A2C"/>
</svg>
