<svg width="110" height="37" viewBox="0 0 110 37" fill="none" xmlns="http://www.w3.org/2000/svg">
<path fill-rule="evenodd" clip-rule="evenodd" d="M73.605 18.2033C73.605 8.14604 81.7458 0 91.8009 0C101.853 0 110 8.14604 110 18.2033C110 28.2606 101.853 36.4094 91.8009 36.4094C81.7458 36.4094 73.605 28.2606 73.605 18.2033ZM76.4222 18.2033C76.4222 26.6997 83.3078 33.5911 91.8009 33.5911C100.292 33.5911 107.179 26.6997 107.179 18.2033C107.179 9.70973 100.292 2.81354 91.8009 2.81354C83.3078 2.81354 76.4222 9.70973 76.4222 18.2033ZM98.8165 25.1931V22.3961H93.2267V14.003H98.8165V11.1998H92.5458V8.40069H101.616V16.8014H96.0377V19.5984H101.616V27.9895H92.5458V25.1931H98.8165ZM84.8485 11.1922V13.9892H90.4383V22.3899H84.8485V25.1862H91.1351V27.9846H82.054V19.5901H87.6183V16.7897H82.054V8.3945H91.1351V11.1922H84.8485Z" fill="#CB0202"/>
<path fill-rule="evenodd" clip-rule="evenodd" d="M26.8615 28.0438V8.37659L37.0624 8.38347C39.0309 8.38347 40.6665 8.93338 41.7876 9.97744C42.8104 10.9279 43.3723 12.2727 43.3723 13.7655C43.3723 16.482 42.2477 17.3933 41.3983 17.842L41.3199 17.884L41.4024 17.9184C43.2863 18.767 44.2403 20.361 44.2403 22.6535C44.2403 23.7024 43.9934 25.1917 42.8207 26.3507C41.6796 27.4781 39.912 28.0493 37.57 28.0493M30.5688 16.1475H36.7632C37.279 16.1475 38.0363 16.1179 38.643 15.8323C39.3156 15.5157 39.6568 14.9548 39.6568 14.162C39.6568 11.9981 37.8355 11.9981 36.7481 11.9981H30.5688V16.1475ZM30.5688 19.7587L30.5447 24.381V24.4223H37.3575C38.1938 24.4223 39.3363 24.423 39.9986 23.7574C40.3542 23.3968 40.5358 22.8737 40.5358 22.2054C40.5358 21.3665 40.1967 20.7182 39.5344 20.2797C38.8232 19.8124 37.9359 19.7133 37.3189 19.7133H30.5688V19.7587ZM0 8.38278H3.8861V28.0493H0V8.38278ZM7.04106 18.0485C7.04106 14.0601 9.1031 11.7139 10.3308 10.6691C11.194 9.93546 12.2244 9.40482 13.4782 9.049C14.7342 8.69455 16.1827 8.51974 17.9118 8.51974H23.0449V12.2012H18.0212C15.3312 12.2012 13.3517 12.8261 12.137 14.0601C11.1665 15.0463 10.6802 16.4311 10.6954 18.1723C10.7071 19.7959 11.1452 21.116 11.9988 22.0933C13.1997 23.4711 15.2259 24.1697 18.0212 24.1697H23.0449V27.8814H17.7261C14.6386 27.8814 12.1927 27.1739 10.4553 25.7809C9.33902 24.8841 8.56593 23.9522 8.01706 22.8469C7.3602 21.52 7.04106 19.9501 7.04106 18.0485ZM46.585 18.0485C46.585 13.7889 48.8844 11.3711 49.8769 10.5294C50.7373 9.79506 51.7677 9.26717 53.0208 8.91204C54.2781 8.55691 55.726 8.38347 57.4531 8.38347H62.8764V12.0621H57.5652C54.9144 12.0621 52.9528 12.6919 51.7312 13.9355C50.7263 14.9555 50.2229 16.3829 50.2394 18.1723C50.2497 19.8172 50.6878 21.1634 51.5407 22.1745C52.7485 23.6102 54.7754 24.339 57.5652 24.339H62.8764V28.05H57.2694C53.9418 28.05 51.6308 27.4402 49.9986 26.1271C48.9422 25.2805 48.1237 24.2351 47.561 23.0217C46.9118 21.6218 46.585 19.9459 46.585 18.0485Z" fill="white"/>
</svg>
