<svg width="37" height="110" viewBox="0 0 37 110" fill="none" xmlns="http://www.w3.org/2000/svg">
<path d="M36.6665 0.00376892L-0.000102997 0.00376572L-0.000112613 110L36.6665 110L36.6665 0.00376892Z" fill="#E42022"/>
<mask id="mask0_133_122" style="mask-type:luminance" maskUnits="userSpaceOnUse" x="0" y="0" width="37" height="110">
<path d="M36.6665 0L-0.000102997 -3.2055e-06L-0.000112613 110L36.6665 110L36.6665 0Z" fill="white"/>
</mask>
<g mask="url(#mask0_133_122)">
<path d="M24.3091 47.9216C24.3091 46.2973 23.5558 44.4495 22.0482 43.3199L22.0509 43.3209L22.0498 43.3199L24.0726 43.321L24.0726 39.4455L9.96027 39.4455L9.96027 43.3199L17.9897 43.3199C19.4352 43.3199 20.9715 44.4403 20.9715 46.5149C20.9715 48.1186 19.8564 49.7775 17.9897 49.7775L9.96027 49.7775L9.96026 53.6529L18.7084 53.6529C21.9537 53.6529 24.3091 51.331 24.3091 47.9216Z" fill="white"/>
<path d="M24.0718 81.1952L14.4586 77.6918L24.0718 74.1885L24.0718 69.7623L9.96487 75.5686L9.96487 79.8145L24.0718 85.6214L24.0718 81.1952Z" fill="white"/>
<path d="M19.8202 27.8765C20.7063 28.5363 21.2263 29.5877 21.2263 30.8571C21.2263 32.2541 20.4288 33.3135 19.2521 33.8605L16.4432 27.0908C17.8844 26.9056 19.0119 27.2744 19.8202 27.8765ZM14.2989 35.3217C13.0921 33.6904 12.8037 32.7584 12.8037 31.2713C12.8037 29.9327 13.219 28.8851 13.9479 28.1459L18.0583 38.0529C19.5896 37.8369 20.9574 37.2559 21.9979 36.3611C23.5099 35.0593 24.3096 33.1326 24.3096 30.7875C24.3096 26.526 21.1658 23.3131 17.0145 23.3131C12.7551 23.3131 9.71992 26.5335 9.71992 31.2141C9.71992 33.8362 10.963 36.5177 12.415 37.7716L14.2989 35.3217Z" fill="white"/>
<path d="M13.5184 22.9442L13.5184 14.1366L28.2927 14.1366L28.2927 10.2088L9.9605 10.2088L9.9605 22.9442L13.5184 22.9442Z" fill="white"/>
<path d="M20.989 92.579C20.989 90.4147 19.349 88.8439 17.0158 88.8439C14.7884 88.8439 13.0426 90.5081 13.0426 92.6313C13.0426 94.7956 14.7279 96.3664 17.0158 96.3664C19.2437 96.3664 20.989 94.7027 20.989 92.579ZM9.72233 92.579C9.72233 88.3407 12.8796 85.0204 17.0158 85.0204C21.1056 85.0204 24.3098 88.3639 24.3098 92.6313C24.3098 96.8691 21.1526 100.189 17.0158 100.189C12.9266 100.189 9.72233 96.8464 9.72233 92.579Z" fill="white"/>
<path d="M20.989 62.7441C20.989 60.5799 19.349 59.0091 17.0158 59.0091C14.7884 59.0091 13.0426 60.6733 13.0426 62.7965C13.0426 64.9607 14.7279 66.5321 17.0158 66.5321C19.2437 66.5321 20.989 64.8679 20.989 62.7441ZM9.72233 62.7441C9.72233 58.5059 12.8796 55.1861 17.0158 55.1861C21.1056 55.1861 24.3098 58.5291 24.3098 62.7965C24.3098 67.0343 21.1526 70.3546 17.0158 70.3546C12.9266 70.3546 9.72233 67.0116 9.72233 62.7441Z" fill="white"/>
</g>
</svg>
