<svg width="25" height="109" viewBox="0 0 25 109" fill="none" xmlns="http://www.w3.org/2000/svg">
<path d="M12.7443 24.1594C6.66153 24.1594 1.72941 19.2219 1.72941 13.1323C1.72941 7.04205 6.66153 2.10528 12.7443 2.10528C18.8273 2.10528 23.7593 7.04205 23.7593 13.1323C23.7593 19.2219 18.8273 24.1594 12.7443 24.1594Z" fill="white"/>
<path d="M11.9153 13.0375L8.77021 1.91425C7.53587 2.23772 5.87885 1.73657 4.87682 2.46108C3.82896 3.21877 3.81685 5.06398 3.05047 6.10525C2.28353 7.15044 0.520885 7.72524 0.10975 8.98502C-0.29207 10.2099 0.773302 11.7229 0.774605 13.0837C0.777399 14.401 -0.297474 15.8697 0.0803149 17.0589C0.482322 18.3073 2.23137 18.8824 2.98098 19.9271C3.73675 20.9756 3.73079 22.8195 4.76877 23.5862C5.80881 24.3539 7.50383 23.7351 8.75754 24.1421L11.9153 13.0375Z" fill="#C7000D"/>
<path fill-rule="evenodd" clip-rule="evenodd" d="M12.7472 10.6851C12.9219 10.6851 13.071 10.5833 13.1416 10.4351L16.0037 1.84801C14.8379 1.37948 13.7686 -0.00260658 12.4674 3.53751e-06C11.1669 0.00354586 10.1088 1.47233 8.93465 1.8674L12.3439 10.4196C12.4113 10.5759 12.5656 10.6851 12.747 10.6851L12.7472 10.6851Z" fill="url(#paint0_linear_125_96)"/>
<path fill-rule="evenodd" clip-rule="evenodd" d="M13.973 10.7471L13.973 10.7517C13.9745 10.9186 14.0697 11.0786 14.2312 11.153C14.3606 11.213 14.5048 11.2011 14.6211 11.1388L21.9075 6.06033C21.2421 4.99165 21.2054 3.2749 20.2085 2.54107C19.1733 1.77517 17.4308 2.30709 16.1777 1.91164L13.973 10.7471Z" fill="url(#paint1_linear_125_96)"/>
<path fill-rule="evenodd" clip-rule="evenodd" d="M15.0608 12.3437C15.1236 12.4949 15.2613 12.5917 15.4127 12.6083L24.208 12.9405C24.2548 11.6502 25.2674 10.2299 24.8969 9.06758C24.4977 7.82533 22.7613 7.24997 22.0091 6.2141L15.1497 11.8672C15.0301 11.991 14.9902 12.1774 15.0608 12.3437Z" fill="url(#paint2_linear_125_96)"/>
<path fill-rule="evenodd" clip-rule="evenodd" d="M12.7556 15.4454L12.7472 15.4454L12.7392 15.4454C12.5615 15.4489 12.4102 15.5569 12.3439 15.7101L8.93465 24.2161C10.1088 24.6106 11.1669 26.0809 12.4674 26.083C13.7686 26.0848 14.8379 24.7035 16.0037 24.237L13.1416 15.6962C13.0721 15.55 12.927 15.4487 12.7556 15.4454Z" fill="url(#paint3_linear_125_96)"/>
<path fill-rule="evenodd" clip-rule="evenodd" d="M14.0121 15.3541L14.0121 15.3588L16.1777 24.1737C17.4306 23.7766 19.1732 24.3066 20.2085 23.5434C21.2052 22.8077 21.2419 21.0915 21.9075 20.0233L14.6609 14.9676C14.5434 14.9042 14.3999 14.8949 14.271 14.9544C14.1095 15.0286 14.0138 15.1865 14.0123 15.3541L14.0121 15.3541Z" fill="url(#paint4_linear_125_96)"/>
<path fill-rule="evenodd" clip-rule="evenodd" d="M15.0608 13.7385C15.1236 13.5889 15.2613 13.4933 15.4127 13.4739L24.208 13.1282C24.2548 14.4201 25.2674 15.8549 24.8969 17.0159C24.4977 18.2576 22.7613 18.8343 22.0091 19.8683L15.1497 14.2163C15.0301 14.0927 14.9902 13.9063 15.0608 13.7385Z" fill="url(#paint5_linear_125_96)"/>
<path fill-rule="evenodd" clip-rule="evenodd" d="M6.81134 28.0829L16.3236 29.43L16.3236 33.6232C16.3236 36.4337 15.3815 37.9362 12.8827 37.4897C10.7611 37.1086 9.46235 35.5009 9.46235 33.3062L9.46235 31.5107L6.81134 31.1321L6.81134 28.0829ZM13.021 34.509C13.8882 34.6841 14.3303 34.127 14.3303 33.0416L14.3303 32.2155L11.5634 31.8457L11.5634 32.8117C11.5634 33.8076 12.1477 34.328 13.021 34.509ZM13.3835 45.5386C12.7224 46.1965 11.8486 46.4503 10.7902 46.2997L10.1497 46.2101L9.91022 46.1769L9.91022 40.2859C9.35646 40.2473 8.96344 40.372 8.74641 40.6645C8.47454 41.0206 8.33908 41.5288 8.33908 42.1774C8.33908 42.623 8.38392 43.091 8.4712 43.5733C8.55658 44.0571 8.6949 44.5672 8.87138 45.0935L8.98919 45.4354L8.64672 45.386L7.50199 45.2246L7.34793 45.2021L7.28498 45.0495C7.08322 44.5638 6.92582 44.0287 6.82661 43.4593C6.71881 42.8949 6.66968 42.2498 6.66968 41.5376C6.66968 40.149 6.96874 39.0641 7.56162 38.3168C8.17548 37.54 9.07647 37.2314 10.2403 37.3967L10.7254 37.4647C11.748 37.6105 12.6175 38.1275 13.3201 39.0025C14.0179 39.8707 14.368 41.0451 14.368 42.486C14.368 43.8609 14.0384 44.8866 13.3835 45.5386ZM11.3664 43.6242C11.8486 43.6242 12.2025 43.5205 12.4162 43.3136C12.6724 43.0715 12.7954 42.7296 12.7954 42.2649C12.7954 41.8619 12.6724 41.4955 12.4162 41.1399C12.2078 40.8504 11.8539 40.6435 11.3664 40.5134L11.3664 43.6242ZM14.1782 52.5917L12.2245 52.2762L12.2245 49.9832L9.49812 49.6129C9.19906 49.5728 8.66771 49.5239 8.69681 50.3515C8.71159 50.8211 8.90715 51.4594 8.90715 51.4594L7.07129 51.2368C7.07129 51.2368 6.76364 50.5252 6.73932 49.1869C6.72453 48.3334 6.96683 47.6756 7.4128 47.2324C7.86449 46.7834 8.51222 46.6132 9.33786 46.7311L16.3236 47.7861L16.3236 50.6215L14.1782 50.3036L14.1782 52.5917ZM13.3783 67.4702C12.7081 68.2014 11.8195 68.4993 10.7425 68.3472L10.3051 68.2855C9.16328 68.1222 8.26277 67.57 7.61981 66.6499C6.98544 65.7411 6.66968 64.5717 6.66968 63.1694C6.66968 61.7759 6.99641 60.6905 7.64079 59.947C8.29663 59.1894 9.19572 58.8842 10.3051 59.0436L10.7425 59.1087C11.8248 59.2579 12.7167 59.812 13.3816 60.7443C14.0384 61.6599 14.368 62.8377 14.368 64.241C14.368 65.659 14.037 66.7429 13.3783 67.4702ZM10.5699 62.0825L10.4692 62.0664C9.34596 61.9089 8.8895 62.0757 8.70157 62.2439C8.42302 62.4944 8.28852 62.8641 8.28852 63.3709C8.28852 63.8287 8.42303 64.2263 8.69824 64.5912C8.9601 64.9331 9.56871 65.1821 10.4692 65.3068L10.5699 65.3225C11.4298 65.4452 12.0127 65.3679 12.3051 65.1028C12.6027 64.824 12.7477 64.465 12.7477 64.0023C12.7477 63.5215 12.597 63.1165 12.2793 62.7746C11.9683 62.4293 11.3907 62.196 10.5699 62.0825ZM16.117 77.9124L16.0531 78.0532L15.8943 78.0283L14.5116 77.8341L14.1634 77.7827L14.2912 77.4692C14.368 77.2765 14.44 77.006 14.5082 76.6607C14.575 76.3139 14.6074 75.8962 14.6074 75.4179C14.6074 74.5536 14.3527 73.8644 13.8233 73.3151C13.2943 72.7595 12.546 72.4108 11.6025 72.2758L11.4742 72.2601C10.4592 72.1148 9.70178 72.2303 9.23197 72.6093C8.75976 72.9825 8.52748 73.5421 8.52748 74.3217C8.52748 74.8725 8.5685 75.3509 8.65435 75.7456C8.74116 76.1486 8.82464 76.4768 8.89666 76.7189L8.9992 77.0554L8.66914 77.006L7.31216 76.8153L7.17002 76.7942L7.10516 76.6592C6.99641 76.4416 6.89672 76.0909 6.80419 75.5842C6.71023 75.0936 6.66968 74.5326 6.66968 73.9119C6.66968 72.3286 7.06795 71.0696 7.84875 70.1721C8.6472 69.2569 9.82675 68.9048 11.3578 69.1239L11.7189 69.1708C13.146 69.3724 14.3045 70.0664 15.1731 71.2242C16.0312 72.3687 16.4671 73.7328 16.4671 75.2672C16.4671 75.9143 16.4366 76.4607 16.3713 76.8906C16.3031 77.3328 16.2229 77.6702 16.1166 77.9124L16.117 77.9124ZM13.7083 86.0797C13.302 86.4299 12.6876 86.5477 11.8844 86.4333L7.0503 85.7515L6.81182 85.7148L6.81182 82.8128L7.0503 82.85L11.8896 83.5353C12.0346 83.5548 12.1477 83.523 12.2402 83.4286C12.339 83.3338 12.3905 83.1396 12.3905 82.8642C12.3905 82.5482 12.3375 82.2435 12.235 81.9574C12.1463 81.7099 12.0313 81.4961 11.8949 81.3176L7.0503 80.6299L6.81182 80.5986L6.81182 77.6967L7.0503 77.7324L16.0875 79.0104L16.3236 79.0417L16.3236 81.9471L16.0875 81.9138L13.4465 81.5387C13.6177 81.7823 13.7765 82.0611 13.9254 82.3731C14.1882 82.9288 14.3222 83.5989 14.3222 84.3594C14.3222 85.1469 14.1152 85.7236 13.7083 86.0797ZM13.7083 99.4869C13.302 99.8391 12.6876 99.9599 11.8844 99.8439L7.0503 99.1636L6.81182 99.1254L6.81182 96.2254L7.0503 96.2587L11.8896 96.9445C12.0346 96.9655 12.1477 96.9288 12.2402 96.8373C12.339 96.741 12.3905 96.5468 12.3905 96.2749C12.3905 95.9608 12.3375 95.6542 12.235 95.3685C12.1463 95.121 12.0313 94.9048 11.8949 94.7248L7.0503 94.043L6.81182 94.0058L6.81182 91.1039L7.0503 91.1396L14.1233 92.0948L14.1233 94.9983L13.4465 94.944C13.6177 95.1895 13.7765 95.4698 13.9254 95.7803C14.1882 96.3379 14.3222 97.0061 14.3222 97.7701C14.3222 98.5556 14.1152 99.1342 13.7083 99.4869ZM15.0157 88.4935C15.2532 88.2186 15.5609 88.1041 15.9301 88.1555C16.2859 88.2112 16.5883 88.4079 16.8296 88.7493C17.0567 89.076 17.1711 89.4438 17.1711 89.8454C17.1711 90.2558 17.0567 90.5874 16.8263 90.8481C16.5849 91.12 16.2825 91.2301 15.9301 91.1817C15.5628 91.1303 15.2532 90.9307 15.0157 90.5874C14.7853 90.266 14.667 89.8977 14.667 89.4893C14.667 89.0897 14.7853 88.7532 15.0157 88.4935ZM14.1782 90.9043L13.9387 90.8696L7.0503 89.8943L6.81134 89.861L6.81134 86.9596L7.0503 86.9929L13.9387 87.9677L14.1782 88.0009L14.1782 90.9043ZM14.3494 59.5298L11.7098 58.8969C11.5667 57.2315 11.1699 56.9067 10.5136 56.3525C9.85727 55.7934 8.70158 55.6883 8.70158 55.6883L6.81134 55.4163L6.81134 52.5164L14.1782 53.5596L14.1782 56.3579L13.0625 56.218C14.5812 58.242 14.3499 59.5264 14.3494 59.5298ZM14.0603 108.274C13.4417 108.928 12.5049 108.672 11.551 108.539C11.551 108.539 6.64059 107.696 6.63534 107.703C7.16001 106.387 7.16 105.886 6.6196 103.71C6.24899 102.206 6.65251 99.6043 9.19571 100.134C12.4739 100.809 11.9392 105.166 11.768 105.723C12.0981 105.791 12.5903 105.988 12.8331 105.467C13.1217 104.852 13.2314 102.781 12.4692 101.389L14.1667 101.629C14.1667 101.629 15.6467 106.603 14.0603 108.274ZM8.51699 105.176L10.2417 105.498C10.2417 105.498 10.8622 103.179 9.4757 102.851C8.73401 102.674 8.20934 103.188 8.33908 104.328L8.51699 105.176Z" fill="white"/>
<defs>
<linearGradient id="paint0_linear_125_96" x1="12.6105" y1="10.7734" x2="12.3273" y2="-0.0910422" gradientUnits="userSpaceOnUse">
<stop stop-color="#FFE200"/>
<stop offset="1" stop-color="#F08300"/>
</linearGradient>
<linearGradient id="paint1_linear_125_96" x1="14.5708" y1="11.3312" x2="21.3172" y2="1.66205" gradientUnits="userSpaceOnUse">
<stop stop-color="#FFE200"/>
<stop offset="1" stop-color="#F08300"/>
</linearGradient>
<linearGradient id="paint2_linear_125_96" x1="14.9474" y1="11.3146" x2="25.312" y2="7.84516" gradientUnits="userSpaceOnUse">
<stop stop-color="#FFE200"/>
<stop offset="1" stop-color="#F08300"/>
</linearGradient>
<linearGradient id="paint3_linear_125_96" x1="12.4691" y1="15.4454" x2="12.4691" y2="26.0848" gradientUnits="userSpaceOnUse">
<stop stop-color="#FFE200"/>
<stop offset="1" stop-color="#F08300"/>
</linearGradient>
<linearGradient id="paint4_linear_125_96" x1="14.6089" y1="14.777" x2="21.3182" y2="24.4193" gradientUnits="userSpaceOnUse">
<stop stop-color="#FFE200"/>
<stop offset="1" stop-color="#F08300"/>
</linearGradient>
<linearGradient id="paint5_linear_125_96" x1="14.9453" y1="14.7633" x2="25.3141" y2="18.2281" gradientUnits="userSpaceOnUse">
<stop stop-color="#FFE200"/>
<stop offset="1" stop-color="#F08300"/>
</linearGradient>
</defs>
</svg>
