<svg width="109" height="26" viewBox="0 0 109 26" fill="none" xmlns="http://www.w3.org/2000/svg">
<path d="M24.2975 13.0955C24.2975 19.1783 19.36 24.1105 13.2705 24.1105C7.18018 24.1105 2.24341 19.1783 2.24341 13.0955C2.24341 7.01253 7.18018 2.0806 13.2705 2.0806C19.36 2.0806 24.2975 7.01253 24.2975 13.0955Z" fill="white"/>
<path d="M13.1758 13.9245L2.05249 17.0696C2.37597 18.3039 1.87481 19.961 2.59932 20.963C3.35702 22.0109 5.20223 22.023 6.2435 22.7893C7.28869 23.5563 7.86349 25.3189 9.12327 25.7301C10.3482 26.1319 11.8612 25.0665 13.222 25.0652C14.5392 25.0624 16.008 26.1373 17.1971 25.7595C18.4455 25.3575 19.0207 23.6084 20.0653 22.8588C21.1139 22.1031 22.9578 22.109 23.7244 21.071C24.4922 20.031 23.8734 18.336 24.2804 17.0823L13.1758 13.9245Z" fill="#C7000D"/>
<path fill-rule="evenodd" clip-rule="evenodd" d="M10.8233 13.0927C10.8233 12.918 10.7215 12.769 10.5733 12.6984L1.98619 9.83626C1.51767 11.002 0.135577 12.0713 0.138187 13.3725C0.14173 14.673 1.61051 15.7311 2.00558 16.9053L10.5578 13.496C10.7141 13.4286 10.8233 13.2744 10.8233 13.0929V13.0927Z" fill="url(#paint0_linear_394_22)"/>
<path fill-rule="evenodd" clip-rule="evenodd" d="M10.8852 11.867H10.8899C11.0568 11.8655 11.2167 11.7703 11.2911 11.6088C11.3512 11.4793 11.3392 11.3351 11.277 11.2189L6.19849 3.93248C5.12981 4.5979 3.41306 4.63459 2.67923 5.63141C1.91333 6.66661 2.44525 8.40913 2.0498 9.66228L10.8852 11.867Z" fill="url(#paint1_linear_394_22)"/>
<path fill-rule="evenodd" clip-rule="evenodd" d="M12.4819 10.7791C12.6331 10.7163 12.7299 10.5786 12.7465 10.4272L13.0787 1.63184C11.7884 1.58508 10.368 0.57243 9.20578 0.942954C7.96352 1.34217 7.38816 3.07854 6.35229 3.83077L12.0054 10.6902C12.1292 10.8098 12.3156 10.8497 12.4819 10.7791Z" fill="url(#paint2_linear_394_22)"/>
<path fill-rule="evenodd" clip-rule="evenodd" d="M15.5835 13.0843V13.0927V13.1007C15.587 13.2785 15.695 13.4297 15.8482 13.496L24.3542 16.9053C24.7488 15.7311 26.219 14.673 26.2211 13.3725C26.2229 12.0713 24.8416 11.002 24.3751 9.83626L15.8343 12.6984C15.6881 12.7678 15.5869 12.913 15.5835 13.0843Z" fill="url(#paint3_linear_394_22)"/>
<path fill-rule="evenodd" clip-rule="evenodd" d="M15.4923 11.8277H15.497L24.3119 9.6621C23.9148 8.40913 24.4448 6.66661 23.6815 5.63123C22.9458 4.6346 21.2297 4.5979 20.1615 3.9323L15.1058 11.1788C15.0424 11.2964 15.0331 11.4398 15.0926 11.5687C15.1668 11.7302 15.3247 11.826 15.4923 11.8275V11.8277Z" fill="url(#paint4_linear_394_22)"/>
<path fill-rule="evenodd" clip-rule="evenodd" d="M13.8766 10.7791C13.7271 10.7163 13.6314 10.5786 13.612 10.4272L13.2664 1.63184C14.5582 1.58508 15.9931 0.57243 17.154 0.942954C18.3957 1.34217 18.9724 3.07854 20.0064 3.83077L14.3544 10.6902C14.2308 10.8098 14.0444 10.8497 13.8766 10.7791Z" fill="url(#paint5_linear_394_22)"/>
<path fill-rule="evenodd" clip-rule="evenodd" d="M28.2212 19.0285L29.5682 9.51631H33.7614C36.5719 9.51631 38.0745 10.4583 37.6279 12.9572C37.2469 15.0787 35.6392 16.3775 33.4445 16.3775H31.6489L31.2704 19.0285H28.2212ZM34.6472 12.8189C34.8223 11.9517 34.2652 11.5096 33.1799 11.5096H32.3538L31.984 14.2765H32.95C33.9458 14.2765 34.4663 13.6922 34.6472 12.8189ZM45.6769 12.4564C46.3347 13.1174 46.5886 13.9912 46.4379 15.0496L46.3484 15.6902L46.3152 15.9297L40.4242 15.9297C40.3856 16.4834 40.5103 16.8764 40.8028 17.0935C41.1589 17.3653 41.6671 17.5008 42.3156 17.5008C42.7612 17.5008 43.2293 17.456 43.7116 17.3687C44.1953 17.2833 44.7055 17.145 45.2318 16.9685L45.5736 16.8507L45.5242 17.1932L45.3628 18.3379L45.3403 18.4919L45.1877 18.5549C44.702 18.7567 44.1669 18.9141 43.5976 19.0133C43.0332 19.1211 42.388 19.1702 41.6759 19.1702C40.2873 19.1702 39.2024 18.8711 38.455 18.2783C37.6783 17.6644 37.3697 16.7634 37.535 15.5996L37.603 15.1145C37.7487 14.0919 38.2657 13.2224 39.1408 12.5198C40.0089 11.822 41.1833 11.4719 42.6243 11.4719C43.9992 11.4719 45.0249 11.8015 45.6769 12.4564ZM43.7624 14.4735C43.7624 13.9912 43.6587 13.6373 43.4519 13.4237C43.2097 13.1675 42.8678 13.0445 42.4032 13.0445C42.0001 13.0445 41.6338 13.1675 41.2782 13.4237C40.9887 13.6321 40.7818 13.986 40.6516 14.4735L43.7624 14.4735ZM52.7299 11.6617L52.4145 13.6154H50.1215L49.7512 16.3418C49.7111 16.6408 49.6622 17.1722 50.4898 17.1431C50.9593 17.1283 51.5976 16.9327 51.5976 16.9327L51.3751 18.7686C51.3751 18.7686 50.6634 19.0762 49.3252 19.1006C48.4717 19.1153 47.8138 18.873 47.3707 18.4271C46.9217 17.9754 46.7514 17.3277 46.8693 16.502L47.9244 9.51631H50.7598L50.4418 11.6617H52.7299ZM67.6084 12.4616C68.3397 13.1317 68.6375 14.0203 68.4854 15.0973L68.4238 15.5347C68.2604 16.6766 67.7082 17.5771 66.7882 18.2201C65.8794 18.8544 64.7099 19.1702 63.3076 19.1702C61.9141 19.1702 60.8288 18.8435 60.0853 18.1991C59.3277 17.5432 59.0224 16.6442 59.1819 15.5347L59.247 15.0973C59.3961 14.0151 59.9503 13.1232 60.8826 12.4583C61.7982 11.8015 62.976 11.4719 64.3793 11.4719C65.7972 11.4719 66.8811 11.8029 67.6084 12.4616ZM62.2208 15.27L62.2047 15.3706C62.0472 16.4939 62.2139 16.9504 62.3822 17.1383C62.6326 17.4168 63.0024 17.5514 63.5091 17.5514C63.9669 17.5514 64.3646 17.4168 64.7295 17.1416C65.0714 16.8798 65.3203 16.2712 65.4451 15.3706L65.4607 15.27C65.5835 14.41 65.5062 13.8272 65.2411 13.5348C64.9623 13.2372 64.6033 13.0922 64.1406 13.0922C63.6598 13.0922 63.2548 13.2429 62.9129 13.5605C62.5676 13.8715 62.3343 14.4491 62.2208 15.27ZM78.0506 9.72284L78.1915 9.78675L78.1665 9.94558L77.9724 11.3283L77.921 11.6765L77.6075 11.5487C77.4148 11.4719 77.1443 11.3999 76.799 11.3317C76.4522 11.2649 76.0345 11.2324 75.5561 11.2324C74.6918 11.2324 74.0027 11.4872 73.4534 12.0166C72.8978 12.5455 72.549 13.2939 72.414 14.2374L72.3984 14.3657C72.2531 15.3807 72.3685 16.1381 72.7476 16.6079C73.1208 17.0801 73.6804 17.3124 74.46 17.3124C75.0108 17.3124 75.4891 17.2714 75.8838 17.1855C76.2869 17.0987 76.6151 17.0152 76.8572 16.9432L77.1937 16.8407L77.1443 17.1707L76.9535 18.5277L76.9325 18.6698L76.7975 18.7347C76.5798 18.8435 76.2291 18.9431 75.7224 19.0357C75.2318 19.1296 74.6708 19.1702 74.0501 19.1702C72.4668 19.1702 71.2079 18.7719 70.3103 17.9911C69.3952 17.1927 69.043 16.0131 69.2621 14.482L69.3091 14.121C69.5106 12.6939 70.2047 11.5353 71.3624 10.6668C72.507 9.80869 73.8711 9.37274 75.4055 9.37274C76.0526 9.37274 76.5989 9.40327 77.0289 9.46861C77.471 9.53682 77.8085 9.61695 78.0506 9.72331V9.72284ZM86.2179 12.1315C86.5681 12.5379 86.686 13.1523 86.5716 13.9555L85.8897 18.7896L85.853 19.0281H82.9511L82.9883 18.7896L83.6735 13.9502C83.6931 13.8052 83.6613 13.6922 83.5669 13.5997C83.472 13.5009 83.2778 13.4494 83.0025 13.4494C82.6865 13.4494 82.3818 13.5023 82.0956 13.6049C81.8481 13.6936 81.6344 13.8086 81.4559 13.945L80.7682 18.7896L80.7369 19.0281H77.8349L77.8706 18.7896L79.1487 9.75241L79.18 9.51631H82.0854L82.0521 9.75241L81.677 12.3934C81.9205 12.2222 82.1993 12.0633 82.5114 11.9145C83.067 11.6517 83.7371 11.5177 84.4977 11.5177C85.2852 11.5177 85.8618 11.7247 86.2179 12.1315ZM99.6252 12.1315C99.9773 12.5379 100.098 13.1523 99.9822 13.9555L99.3018 18.7896L99.2637 19.0281H96.3637L96.397 18.7896L97.0827 13.9502C97.1037 13.8052 97.0671 13.6922 96.9756 13.5997C96.8792 13.5009 96.6851 13.4494 96.4131 13.4494C96.0991 13.4494 95.7924 13.5023 95.5068 13.6049C95.2593 13.6936 95.0431 13.8086 94.8631 13.945L94.1813 18.7896L94.1441 19.0281H91.2421L91.2779 18.7896L92.2331 11.7166H95.1365L95.0822 12.3934C95.3278 12.2222 95.608 12.0633 95.9186 11.9145C96.4762 11.6517 97.1443 11.5177 97.9083 11.5177C98.6939 11.5177 99.2725 11.7247 99.6252 12.1315ZM88.6317 10.8242C88.3568 10.5866 88.2424 10.279 88.2937 9.90981C88.3495 9.55399 88.5461 9.25159 88.8875 9.01024C89.2143 8.78321 89.5821 8.66873 89.9836 8.66873C90.394 8.66873 90.7256 8.7832 90.9863 9.01358C91.2583 9.25493 91.3683 9.55733 91.3199 9.90981C91.2686 10.2771 91.069 10.5866 90.7256 10.8242C90.4043 11.0545 90.036 11.1728 89.6276 11.1728C89.228 11.1728 88.8914 11.0545 88.6317 10.8242ZM91.0426 11.6617L91.0079 11.9012L90.0326 18.7896L89.9993 19.0285L87.0978 19.0285L87.1311 18.7896L88.1059 11.9012L88.1392 11.6617H91.0426ZM59.6681 11.4905L59.0352 14.13C57.3697 14.2731 57.0449 14.67 56.4908 15.3263C55.9317 15.9826 55.8265 17.1383 55.8265 17.1383L55.5546 19.0285H52.6546L53.6979 11.6617H56.4962L56.3563 12.7774C58.3802 11.2587 59.6647 11.49 59.6681 11.4905ZM108.412 11.7795C109.066 12.3982 108.81 13.3349 108.677 14.2889C108.677 14.2889 107.835 19.1993 107.841 19.2045C106.526 18.6799 106.024 18.6799 103.849 19.2203C102.344 19.5909 99.7425 19.1874 100.272 16.6442C100.947 13.3659 105.304 13.9006 105.861 14.0719C105.929 13.7418 106.126 13.2496 105.605 13.0068C104.99 12.7182 102.919 12.6085 101.527 13.3707L101.767 11.6732C101.767 11.6732 106.741 10.1931 108.412 11.7795ZM105.314 17.3229L105.636 15.5982C105.636 15.5982 103.317 14.9776 102.989 16.3642C102.812 17.1059 103.326 17.6305 104.466 17.5008L105.314 17.3229Z" fill="white"/>
<defs>
<linearGradient id="paint0_linear_394_22" x1="10.9116" y1="13.2294" x2="0.0471415" y2="13.5127" gradientUnits="userSpaceOnUse">
<stop stop-color="#FFE200"/>
<stop offset="1" stop-color="#F08300"/>
</linearGradient>
<linearGradient id="paint1_linear_394_22" x1="11.4693" y1="11.2691" x2="1.80021" y2="4.52271" gradientUnits="userSpaceOnUse">
<stop stop-color="#FFE200"/>
<stop offset="1" stop-color="#F08300"/>
</linearGradient>
<linearGradient id="paint2_linear_394_22" x1="11.4527" y1="10.8924" x2="7.98335" y2="0.52785" gradientUnits="userSpaceOnUse">
<stop stop-color="#FFE200"/>
<stop offset="1" stop-color="#F08300"/>
</linearGradient>
<linearGradient id="paint3_linear_394_22" x1="15.5836" y1="13.3708" x2="26.2229" y2="13.3708" gradientUnits="userSpaceOnUse">
<stop stop-color="#FFE200"/>
<stop offset="1" stop-color="#F08300"/>
</linearGradient>
<linearGradient id="paint4_linear_394_22" x1="14.9152" y1="11.2309" x2="24.5574" y2="4.5216" gradientUnits="userSpaceOnUse">
<stop stop-color="#FFE200"/>
<stop offset="1" stop-color="#F08300"/>
</linearGradient>
<linearGradient id="paint5_linear_394_22" x1="14.9014" y1="10.8945" x2="18.3663" y2="0.525787" gradientUnits="userSpaceOnUse">
<stop stop-color="#FFE200"/>
<stop offset="1" stop-color="#F08300"/>
</linearGradient>
</defs>
</svg>
