<svg width="105" height="31" viewBox="0 0 105 31" fill="none" xmlns="http://www.w3.org/2000/svg">
<path fill-rule="evenodd" clip-rule="evenodd" d="M56.695 0C59.8265 0 62.3679 2.2732 62.3679 5.07447V5.48232C62.3679 5.70272 62.1905 5.88112 61.972 5.88112H59.1863C58.9671 5.88112 58.7929 5.70272 58.7929 5.48232V3.56719C58.7929 3.34356 58.6155 3.16516 58.397 3.16516H49.2023C48.9806 3.16516 48.8032 3.34356 48.8032 3.56719V13.5817C48.8032 13.8015 48.9806 13.9805 49.2023 13.9805H58.397C58.6155 13.9805 58.7929 13.8015 58.7929 13.5817V10.337H53.9883C53.7698 10.337 53.5917 10.1619 53.5917 9.94147V7.58295H62.3679V12.068C62.3679 14.8725 59.8265 17.145 56.695 17.145H50.9044C47.7729 17.145 45.2308 14.8725 45.2308 12.068V5.07447C45.2308 2.2732 47.7729 0 50.9044 0H56.695ZM104.603 0.229453C104.823 0.229453 105 0.408492 105 0.625018V16.5271C105 16.7436 104.823 16.922 104.603 16.922H102.208C102.002 16.922 101.691 16.8774 101.453 16.626C101.228 16.3868 92.116 5.99875 91.1718 4.92194V16.5271C91.1718 16.7436 90.9943 16.922 90.7758 16.922H88.262C88.0467 16.922 87.8693 16.7436 87.8693 16.5271V0.625018C87.8693 0.408492 88.0467 0.229453 88.262 0.229453H90.7469C90.95 0.229453 91.2637 0.274698 91.4983 0.522895C91.7168 0.758812 100.391 10.6428 101.698 12.1345V0.625018C101.698 0.408492 101.875 0.229453 102.093 0.229453H104.603ZM86.1672 16.1251C86.4269 16.6228 86.2052 16.922 85.7456 16.922H83.2736C82.9123 16.922 82.7761 16.8264 82.5955 16.4793L76.4057 4.04484L70.2153 16.4793C70.0347 16.8264 69.8984 16.922 69.5404 16.922H67.0684C66.6056 16.922 66.3839 16.6228 66.6467 16.1251L74.4466 0.669616C74.6053 0.38587 74.8554 0.204246 75.1658 0.204246H77.6449C77.9554 0.204246 78.2086 0.38587 78.3642 0.669616L86.1672 16.1251ZM42.5717 0.625018V16.5271C42.5717 16.7436 42.3943 16.922 42.1757 16.922H39.7763C39.5706 16.922 39.2595 16.8774 39.0256 16.626C38.8 16.3868 29.6883 5.99875 28.7402 4.92194V16.5271C28.7402 16.7436 28.5628 16.922 28.3443 16.922H25.8343C25.6158 16.922 25.4377 16.7436 25.4377 16.5271V0.625018C25.4377 0.408492 25.6151 0.229453 25.8343 0.229453H28.3192C28.5217 0.229453 28.8321 0.274698 29.0699 0.522895C29.2891 0.758812 37.9605 10.6428 39.2692 12.1345V0.625018C39.2692 0.408492 39.4466 0.229453 39.6658 0.229453H42.1757C42.3943 0.229453 42.5717 0.408492 42.5717 0.625018ZM16.2881 5.30716V7.16864C16.2881 9.97379 13.7492 11.8353 10.6145 11.8353H3.62257V16.5271C3.62257 16.7436 3.44517 16.922 3.22664 16.922H0.396581C0.178043 16.922 0 16.7436 0 16.5271V0.625018C0 0.408492 0.177401 0.229453 0.396581 0.229453H10.6145C13.7492 0.229453 16.2881 2.50266 16.2881 5.30716ZM12.5035 3.56719C12.5035 3.34679 12.3261 3.1684 12.1076 3.1684H3.62257V8.89633H12.1076C12.3261 8.89633 12.5035 8.7147 12.5035 8.49818V3.56719ZM22.3126 0.625018V16.5271C22.3126 16.7436 22.1352 16.922 21.9167 16.922H19.1149C18.8964 16.922 18.719 16.7436 18.719 16.5271V0.625018C18.719 0.408492 18.8964 0.229453 19.1149 0.229453H21.9167C22.1352 0.229453 22.3126 0.408492 22.3126 0.625018Z" fill="#F35E17"/>
<path d="M78.5354 11.9309H74.2758C74.0573 11.9309 73.8799 12.1093 73.8799 12.329V16.5206C73.8799 16.7371 74.0573 16.9187 74.2758 16.9187H78.5354C78.7539 16.9187 78.9313 16.7371 78.9313 16.5206V12.329C78.9313 12.1093 78.7539 11.9309 78.5354 11.9309Z" fill="#0A753D"/>
<path d="M46.2451 28.1704V28.164C46.2451 27.8259 46.5273 27.5486 46.8602 27.5486C47.1868 27.5486 47.4689 27.8259 47.4689 28.164V28.1704C47.4689 28.5085 47.1932 28.7793 46.8602 28.7793C46.5209 28.7793 46.2451 28.5085 46.2451 28.1704Z" fill="#F35E17"/>
<path d="M18.2021 25.7227C18.2021 25.4932 18.3795 25.3116 18.6109 25.3116H21.3079C21.5111 25.3116 21.6756 25.477 21.6756 25.6845C21.6756 25.8881 21.5111 26.0575 21.3079 26.0575H19.0133V27.3224H21.0103C21.2128 27.3224 21.378 27.4917 21.378 27.6953C21.378 27.8996 21.2128 28.0683 21.0103 28.0683H19.0133V29.5891C19.0133 29.8153 18.8391 29.997 18.6109 29.997C18.3795 29.997 18.2021 29.8153 18.2021 29.5891V25.7227Z" fill="#F35E17"/>
<path d="M22.4272 25.512C22.4272 25.2735 22.6271 25.1203 22.8836 25.1203C23.1401 25.1203 23.34 25.2735 23.34 25.512V25.5508C23.34 25.7893 23.1407 25.9489 22.8836 25.9489C22.6271 25.9489 22.4272 25.7893 22.4272 25.5508V25.512ZM22.4877 26.8189C22.4877 26.5927 22.6586 26.4143 22.8836 26.4143C23.1086 26.4143 23.286 26.5927 23.286 26.8189V29.5956C23.286 29.8219 23.1086 29.9938 22.8836 29.9938C22.6651 29.9938 22.4877 29.8219 22.4877 29.5956V26.8189Z" fill="#F35E17"/>
<path d="M24.3286 26.8189C24.3286 26.5927 24.5028 26.4143 24.7246 26.4143C24.9495 26.4143 25.1269 26.5927 25.1269 26.8189V26.9948C25.3519 26.6664 25.6752 26.3827 26.217 26.3827C27.0031 26.3827 27.4595 26.9146 27.4595 27.7245V29.5957C27.4595 29.8219 27.2885 29.9938 27.0635 29.9938C26.8386 29.9938 26.6612 29.8219 26.6612 29.5957V27.9701C26.6612 27.4246 26.3919 27.1124 25.913 27.1124C25.4502 27.1124 25.1269 27.4375 25.1269 27.9824V29.5957C25.1269 29.8219 24.9495 29.9938 24.7246 29.9938C24.506 29.9938 24.3286 29.8219 24.3286 29.5957V26.8189Z" fill="#F35E17"/>
<path fill-rule="evenodd" clip-rule="evenodd" d="M28.1919 28.9512V28.9389C28.1919 28.1801 28.7787 27.8104 29.631 27.8104C30.0212 27.8104 30.2969 27.8679 30.5694 27.9538V27.8679C30.5694 27.3702 30.2648 27.1058 29.7037 27.1058C29.3996 27.1058 29.1496 27.1601 28.9304 27.2429C28.8829 27.259 28.8449 27.2655 28.8038 27.2655C28.62 27.2655 28.4683 27.1188 28.4683 26.9307C28.4683 26.7872 28.5692 26.6599 28.6868 26.6153C29.0166 26.4873 29.3521 26.4078 29.8084 26.4078C30.3316 26.4078 30.7211 26.548 30.9654 26.8001C31.2225 27.0515 31.3427 27.4245 31.3427 27.8834V29.6078C31.3427 29.8276 31.1685 29.9937 30.9525 29.9937C30.7211 29.9937 30.563 29.8341 30.563 29.6557V29.5219C30.3252 29.8089 29.9608 30.0351 29.4253 30.0351C28.7723 30.0351 28.1925 29.6557 28.1925 28.9512M30.5823 28.4606C30.3792 28.3811 30.1067 28.3203 29.7898 28.3203C29.2762 28.3203 28.9722 28.5401 28.9722 28.9066V28.9195C28.9722 29.2575 29.2698 29.4488 29.6503 29.4488C30.1793 29.4488 30.5823 29.1425 30.5823 28.6997V28.4606Z" fill="#F35E17"/>
<path d="M32.2969 26.8189C32.2969 26.5927 32.4711 26.4143 32.6928 26.4143C32.9178 26.4143 33.0958 26.5927 33.0958 26.8189V26.9948C33.3208 26.6664 33.6441 26.3827 34.1859 26.3827C34.972 26.3827 35.4284 26.9146 35.4284 27.7245V29.5957C35.4284 29.8219 35.2574 29.9938 35.0324 29.9938C34.8075 29.9938 34.6294 29.8219 34.6294 29.5957V27.9701C34.6294 27.4246 34.3601 27.1124 33.8819 27.1124C33.4223 27.1124 33.0958 27.4375 33.0958 27.9824V29.5957C33.0958 29.8219 32.9178 29.9938 32.6928 29.9938C32.4775 29.9938 32.2969 29.8219 32.2969 29.5957V26.8189Z" fill="#F35E17"/>
<path d="M36.1978 28.2279V28.2117C36.1978 27.2176 36.9646 26.3793 38.0168 26.3793C38.5625 26.3793 38.9391 26.561 39.2373 26.8189C39.2913 26.8667 39.364 26.9656 39.364 27.0961C39.364 27.3036 39.1988 27.4626 38.9931 27.4626C38.8948 27.4626 38.8093 27.4245 38.7553 27.3831C38.5496 27.2112 38.3246 27.0864 38.011 27.0864C37.4273 27.0864 36.9999 27.5906 36.9999 28.202V28.2117C36.9999 28.8367 37.4273 29.337 38.0425 29.337C38.3593 29.337 38.6036 29.2097 38.8221 29.0248C38.8665 28.9835 38.9455 28.9389 39.0407 28.9389C39.2309 28.9389 39.3833 29.0979 39.3833 29.2892C39.3833 29.3978 39.3453 29.4837 39.2688 29.5439C38.9616 29.8405 38.5843 30.0415 38.0013 30.0415C36.9646 30.0415 36.1978 29.222 36.1978 28.2279Z" fill="#F35E17"/>
<path fill-rule="evenodd" clip-rule="evenodd" d="M41.6618 30.0415C40.6508 30.0415 39.8711 29.3021 39.8711 28.2182V28.2085C39.8711 27.2047 40.5781 26.3793 41.5731 26.3793C42.6825 26.3793 43.2308 27.2971 43.2308 28.107C43.2308 28.3332 43.0598 28.4922 42.8535 28.4922H40.67C40.7555 29.063 41.1579 29.3848 41.6715 29.3848C42.0108 29.3848 42.2737 29.264 42.4987 29.0759C42.5591 29.0313 42.6092 29.0054 42.7044 29.0054C42.8824 29.0054 43.0187 29.1425 43.0187 29.3273C43.0187 29.4294 42.9743 29.5154 42.9139 29.5762C42.597 29.8631 42.2004 30.0415 41.6618 30.0415ZM42.4511 27.9635C42.4003 27.4439 42.0963 27.0393 41.5667 27.0393C41.0788 27.0393 40.7362 27.418 40.6604 27.9635H42.4511Z" fill="#F35E17"/>
<path d="M50.4483 26.0162H49.3228C49.1139 26.0162 48.9487 25.8436 48.9487 25.64C48.9487 25.4326 49.1139 25.2606 49.3228 25.2606H52.3971C52.6002 25.2606 52.7648 25.4326 52.7648 25.64C52.7648 25.8436 52.6002 26.0162 52.3971 26.0162H51.2691V29.5349C51.2691 29.7644 51.082 29.9395 50.8571 29.9395C50.6321 29.9395 50.4483 29.7644 50.4483 29.5349V26.0162Z" fill="#F35E17"/>
<path fill-rule="evenodd" clip-rule="evenodd" d="M54.343 29.9873C53.3319 29.9873 52.5522 29.2511 52.5522 28.1672V28.1549C52.5522 27.1537 53.2593 26.3283 54.2575 26.3283C55.3669 26.3283 55.9151 27.2462 55.9151 28.056C55.9151 28.2822 55.7435 28.4412 55.5378 28.4412H53.3544C53.4367 29.012 53.8423 29.3306 54.3558 29.3306C54.6913 29.3306 54.9581 29.213 55.1798 29.0249C55.2402 28.9803 55.2936 28.9512 55.3855 28.9512C55.5636 28.9512 55.7024 29.0915 55.7024 29.2763C55.7024 29.3785 55.658 29.4644 55.5983 29.5219C55.2814 29.8089 54.8848 29.9873 54.343 29.9873ZM55.1355 27.9093C55.0815 27.3929 54.7775 26.985 54.2511 26.985C53.7632 26.985 53.4174 27.3644 53.348 27.9093H55.1355Z" fill="#F35E17"/>
<path d="M56.5391 28.1737V28.1607C56.5391 27.1667 57.3059 26.3283 58.3587 26.3283C58.907 26.3283 59.2804 26.5067 59.5787 26.7679C59.6326 26.8125 59.7053 26.9146 59.7053 27.0451C59.7053 27.2526 59.5407 27.4123 59.3344 27.4123C59.2361 27.4123 59.1474 27.3703 59.0966 27.3321C58.8909 27.157 58.6659 27.0329 58.3491 27.0329C57.7687 27.0329 57.338 27.5364 57.338 28.1485V28.1607C57.338 28.7858 57.7687 29.2828 58.3838 29.2828C58.7007 29.2828 58.9449 29.1587 59.1634 28.9706C59.2078 28.9325 59.2868 28.8846 59.382 28.8846C59.5722 28.8846 59.7246 29.0436 59.7246 29.2382C59.7246 29.3435 59.6834 29.4295 59.6102 29.4903C59.3029 29.7895 58.9256 29.9873 58.3426 29.9873C57.3059 29.9873 56.5391 29.1716 56.5391 28.1737Z" fill="#F35E17"/>
<path d="M60.5015 25.426C60.5015 25.2063 60.6724 25.0279 60.8974 25.0279C61.1224 25.0279 61.2998 25.2063 61.2998 25.426V26.9404C61.5247 26.6153 61.8487 26.3283 62.3905 26.3283C63.1766 26.3283 63.633 26.8603 63.633 27.6702V29.5446C63.633 29.7676 63.4614 29.9427 63.2364 29.9427C63.0114 29.9427 62.834 29.7676 62.834 29.5446V27.919C62.834 27.3735 62.5615 27.0581 62.0859 27.0581C61.6231 27.0581 61.2998 27.3864 61.2998 27.9281V29.5446C61.2998 29.7676 61.1224 29.9427 60.8974 29.9427C60.6821 29.9427 60.5015 29.7676 60.5015 29.5446V25.426Z" fill="#F35E17"/>
<path d="M64.5962 26.7679C64.5962 26.5416 64.7672 26.3632 64.9921 26.3632C65.2171 26.3632 65.3945 26.5416 65.3945 26.7679V26.9404C65.6195 26.6153 65.9428 26.3283 66.4853 26.3283C67.2707 26.3283 67.7245 26.8603 67.7245 27.6702V29.5446C67.7245 29.7708 67.5529 29.9427 67.3311 29.9427C67.1062 29.9427 66.9288 29.7708 66.9288 29.5446V27.9158C66.9288 27.3703 66.6562 27.0613 66.1806 27.0613C65.7178 27.0613 65.3945 27.3832 65.3945 27.928V29.5446C65.3945 29.7708 65.2171 29.9427 64.9921 29.9427C64.7736 29.9427 64.5962 29.7708 64.5962 29.5446V26.7679Z" fill="#F35E17"/>
<path fill-rule="evenodd" clip-rule="evenodd" d="M68.498 28.1737V28.1607C68.498 27.157 69.2899 26.3283 70.3614 26.3283C71.4297 26.3283 72.2157 27.1473 72.2157 28.1485V28.1607C72.2157 29.1587 71.4232 29.9873 70.3453 29.9873C69.2841 29.9873 68.498 29.1716 68.498 28.1737ZM71.4168 28.1607C71.4168 27.5461 70.9733 27.0329 70.3453 27.0329C69.7051 27.0329 69.2963 27.5364 69.2963 28.1485V28.1607C69.2963 28.7728 69.7373 29.2828 70.3614 29.2828C71.008 29.2828 71.4168 28.7793 71.4168 28.1737V28.1607Z" fill="#F35E17"/>
<path d="M73.0708 25.426C73.0708 25.2063 73.245 25.0279 73.4674 25.0279C73.6917 25.0279 73.873 25.2063 73.873 25.426V29.5446C73.873 29.7676 73.6917 29.9427 73.4674 29.9427C73.2482 29.9427 73.0708 29.7676 73.0708 29.5446V25.426Z" fill="#F35E17"/>
<path fill-rule="evenodd" clip-rule="evenodd" d="M74.7222 28.1737V28.1607C74.7222 27.157 75.5147 26.3283 76.5862 26.3283C77.6538 26.3283 78.4399 27.1473 78.4399 28.1485V28.1607C78.4399 29.1587 77.6474 29.9873 76.5733 29.9873C75.5083 29.9873 74.7222 29.1716 74.7222 28.1737ZM77.6416 28.1607C77.6416 27.5461 77.1974 27.0329 76.5733 27.0329C75.9299 27.0329 75.5211 27.5364 75.5211 28.1485V28.1607C75.5211 28.7728 75.9646 29.2828 76.5862 29.2828C77.2328 29.2828 77.6416 28.7793 77.6416 28.1737V28.1607Z" fill="#F35E17"/>
<path fill-rule="evenodd" clip-rule="evenodd" d="M79.4573 30.6724C79.3178 30.6188 79.2323 30.507 79.2323 30.3538C79.2323 30.1754 79.3847 30.0222 79.5685 30.0222C79.6289 30.0222 79.6733 30.0351 79.7144 30.0545C80.0313 30.2329 80.3797 30.3318 80.7852 30.3318C81.4987 30.3318 81.885 29.9621 81.885 29.2576V28.9868C81.597 29.3629 81.2326 29.6305 80.6586 29.6305C79.8378 29.6305 79.0742 29.0184 79.0742 27.9888V27.9759C79.0742 26.9404 79.8475 26.3283 80.6586 26.3283C81.2448 26.3283 81.6093 26.6024 81.8818 26.9275V26.762C81.8818 26.5416 82.0598 26.3632 82.2751 26.3632C82.5033 26.3632 82.6807 26.5416 82.6807 26.7679V29.1904C82.6807 29.7837 82.5284 30.2232 82.2372 30.5134C81.9203 30.8321 81.4319 30.9853 80.8045 30.9853C80.3167 30.9853 79.879 30.8767 79.4573 30.6724ZM81.8946 27.9823V27.9701C81.8946 27.3961 81.4254 27.007 80.8675 27.007C80.3167 27.007 79.879 27.3929 79.879 27.9701V27.9823C79.879 28.5531 80.3192 28.9454 80.8675 28.9454C81.4254 28.9454 81.8946 28.5531 81.8946 27.9823Z" fill="#F35E17"/>
<path d="M83.7618 30.8928C83.6416 30.8514 83.5118 30.7525 83.5118 30.5612C83.5118 30.3602 83.6634 30.2264 83.8351 30.2264C83.9013 30.2264 83.9398 30.2426 83.981 30.2548C84.0729 30.2807 84.1455 30.3027 84.2567 30.3027C84.4939 30.3027 84.6212 30.2006 84.751 29.9297L84.7793 29.8567L83.4828 26.9468C83.4578 26.8861 83.4385 26.8066 83.4385 26.7523C83.4385 26.5293 83.6101 26.3632 83.8351 26.3632C84.0407 26.3632 84.1519 26.4815 84.2246 26.6663L85.163 28.999L86.0346 26.6663C86.0982 26.5002 86.212 26.3632 86.4176 26.3632C86.6272 26.3632 86.8014 26.5293 86.8014 26.7426C86.8014 26.8066 86.7782 26.8925 86.7667 26.9339L85.4921 30.0067C85.1945 30.7267 84.8776 30.991 84.3165 30.991C84.0915 30.991 83.927 30.9561 83.7618 30.8928Z" fill="#F35E17"/>
</svg>
