<svg width="109" height="23" viewBox="0 0 109 23" fill="none" xmlns="http://www.w3.org/2000/svg">
<path d="M48.9833 16.759C48.9902 16.4808 48.9972 16.1747 48.9972 15.8546L49.0111 13.6493L48.9972 10.4631V8.5917L48.9415 7.08206L48.8511 6.19159L50.4372 6.28898C50.6227 6.29826 50.8686 6.30522 51.1747 6.30986C51.4761 6.31913 51.8402 6.32377 52.2669 6.32377C53.533 6.32377 54.4421 6.30754 54.994 6.27507L56.0584 6.19159L56.0236 6.94988L56.0584 7.76384L54.9383 7.69427L52.733 7.63166L51.7382 7.61774V11.4231L52.8373 11.444C53.1852 11.444 53.5284 11.4394 53.867 11.4301C54.2055 11.4208 54.5395 11.4023 54.8687 11.3744L55.9331 11.3118L55.8844 12.1049L55.9331 12.8841L54.8131 12.8006C54.5209 12.7936 54.2078 12.7797 53.8739 12.7728C53.5446 12.7588 53.1875 12.7473 52.8026 12.738L51.7382 12.7519V16.9608L52.7678 16.9816C53.0692 16.9816 53.3893 16.977 53.7278 16.9677C54.0664 16.9585 54.4165 16.9399 54.7783 16.9121L56.0584 16.8286L56.0236 17.6286L56.0584 18.4008L54.8479 18.3382L52.7121 18.2687L50.4372 18.2895L48.8511 18.4008L48.9415 17.5243C48.9601 17.2924 48.974 17.0373 48.9833 16.759ZM89.4303 16.759C89.4373 16.4808 89.4442 16.1747 89.4442 15.8546L89.4582 13.6493L89.4442 10.4631V8.5917L89.3886 7.08206L89.2981 6.19159L90.8843 6.28898C91.0698 6.29826 91.3156 6.30522 91.6217 6.30986C91.9278 6.31913 92.2942 6.32377 92.7209 6.32377C93.9824 6.32377 94.8891 6.30754 95.441 6.27507L96.5054 6.19159L96.4707 6.94988L96.5054 7.76384L95.3854 7.69427L93.1801 7.63166L92.1852 7.61774V11.4231L93.2844 11.444C93.6323 11.444 93.9755 11.4394 94.314 11.4301C94.6526 11.4208 94.9865 11.4023 95.3158 11.3744L96.3802 11.3118L96.3315 12.1049L96.3802 12.8841L95.2602 12.8006C94.968 12.7936 94.6549 12.7797 94.321 12.7728C93.9917 12.7588 93.6346 12.7473 93.2496 12.738L92.1852 12.7519V16.9608L93.2149 16.9816C93.5163 16.9816 93.8363 16.977 94.1749 16.9677C94.5135 16.9585 94.8636 16.9399 95.2254 16.9121L96.5054 16.8286L96.4707 17.6286L96.5054 18.4008L95.295 18.3382L93.1592 18.2687L90.8843 18.2895L89.2981 18.4008L89.3886 17.5243C89.4071 17.2924 89.4211 17.0373 89.4303 16.759Z" fill="white"/>
<path fill-rule="evenodd" clip-rule="evenodd" d="M59.2516 13.6006C59.8152 12.3831 60.3926 11.0822 60.9909 9.69781L61.9161 7.46466L62.3614 6.28896L63.0153 6.33765L63.8362 6.28896L64.3023 7.46466L65.1719 9.66998C66.2943 12.4156 67.3981 14.8644 68.4834 17.0164L69.1582 18.3034L67.3633 18.2686L65.7911 18.3034L65.4224 17.1277L64.831 15.625L64.5667 14.8598L63.5718 14.7624C63.4188 14.7531 63.2333 14.7462 63.0153 14.7415C62.802 14.7322 62.5654 14.7276 62.3057 14.7276C62.046 14.7276 61.8141 14.7299 61.61 14.7346C61.4083 14.7415 61.2274 14.7485 61.0813 14.7624L60.1143 14.8598L59.8152 15.6042C59.727 15.8361 59.6389 16.0796 59.5508 16.3346C59.4604 16.5851 59.3699 16.8425 59.2795 17.0999L58.9038 18.3034L57.9438 18.2686L56.935 18.3034L57.6098 17.0442C58.1432 15.9729 58.6905 14.825 59.2516 13.6006ZM61.3248 13.5519C61.6634 13.589 62.039 13.6076 62.4518 13.6076C62.6257 13.6076 62.7927 13.6076 62.9457 13.6006C63.0988 13.596 63.2472 13.5867 63.391 13.5728L63.9962 13.4893L63.6971 12.8075L62.7718 10.6787L62.3405 9.68389L61.8952 10.6787L60.9909 12.8075L60.6848 13.4893L61.3248 13.5519ZM71.1409 16.7033C71.1502 16.388 71.1594 16.0494 71.1687 15.6876V8.71689C71.1687 8.40615 71.1641 8.11861 71.1548 7.85425C71.1455 7.59452 71.1316 7.35335 71.1131 7.13073L71.0087 6.28896L72.574 6.33765L74.0349 6.28896L73.9584 7.13073C73.9399 7.3719 73.9259 7.62699 73.9167 7.89599C73.9097 8.1673 73.8958 8.45253 73.8888 8.75168V17.1625L75.4541 17.1416C75.853 17.1416 76.2078 17.1393 76.5185 17.1347C76.8246 17.1208 77.0959 17.1068 77.3255 17.0929L78.2856 17.0234L78.2508 17.719L78.2856 18.4008L76.9499 18.3034C76.6669 18.2941 76.2866 18.2872 75.8089 18.2826C75.3266 18.2826 74.7515 18.2779 74.0836 18.2686C73.6848 18.2686 73.3462 18.2686 73.0679 18.2686C72.7897 18.2686 72.567 18.2756 72.3931 18.2826L71.0087 18.4008L71.0783 17.573C71.1061 17.3086 71.12 17.0164 71.1409 16.7033ZM77.8403 6.20547L79.3152 6.25417C79.9738 6.27736 80.579 6.29823 81.1309 6.31678C81.6828 6.3307 82.1814 6.33765 82.6266 6.33765C83.0997 6.33765 83.6076 6.3307 84.1571 6.31678C84.7044 6.29823 85.2981 6.27736 85.9381 6.25417L87.399 6.20547L87.3643 6.90116L87.399 7.57597L86.2025 7.51336L84.7276 7.44379H83.9832V11.4648L84.018 14.8459L84.0667 17.1416L84.1432 18.3034L82.6266 18.2686L81.117 18.3034L81.1657 17.1416L81.2422 14.8459L81.2561 11.4648L81.277 8.18817V7.44379H80.5257L79.03 7.51336L77.8403 7.57597L77.896 6.90116L77.8403 6.20547ZM101.828 6.28896L101.758 7.249L101.737 8.58471L101.668 10.5535V11.7501L102.788 10.5883L103.977 9.21779C104.334 8.81893 104.65 8.45717 104.923 8.13252C105.197 7.80787 105.429 7.518 105.619 7.26291L106.329 6.28896L107.518 6.33765L108.784 6.28896L107.699 7.31161L106.294 8.71689L104.513 10.5535L103.838 11.2979L104.923 12.8701L106.913 15.5694L108.235 17.3573L109 18.3034L107.198 18.2686L105.348 18.3034L104.777 17.3712C104.666 17.1903 104.515 16.9608 104.325 16.6825C104.135 16.3996 103.908 16.0726 103.643 15.7016L102.502 14.0458L101.681 12.891L101.668 14.0458V15.7016C101.668 15.9938 101.672 16.2674 101.681 16.5225C101.691 16.7776 101.709 17.0164 101.737 17.239L101.828 18.3034L100.387 18.2686L98.8152 18.3034L98.8709 17.2599L98.9056 15.7503L98.9265 14.0458L98.9404 10.6231L98.9056 8.5708L98.8709 7.22813L98.8152 6.28896L100.311 6.33765L101.828 6.28896ZM39.4594 3.86798L41.4769 3.83319C42.1726 3.83319 42.7848 3.90276 43.3135 4.04885C43.8422 4.19727 44.2944 4.41061 44.6701 4.68888C45.1223 5.03672 45.4632 5.43326 45.6858 5.89242C45.9131 6.34229 46.0313 6.8571 46.0406 7.43683C46.0406 7.69192 46.0221 7.93773 45.985 8.17426C45.9432 8.41079 45.8806 8.64037 45.7832 8.86994C45.6441 9.20851 45.4655 9.50534 45.2475 9.76042C45.0295 10.0248 44.7652 10.2497 44.4544 10.4352C44.2736 10.5674 44.0162 10.6926 43.6753 10.8109C43.3414 10.9361 42.9309 11.0474 42.4648 11.1587L43.1466 12.2927C43.7518 13.2458 44.3292 14.1293 44.8788 14.9433C45.4354 15.7642 45.9641 16.5086 46.4719 17.1834L47.3694 18.3034L45.164 18.2617L43.2161 18.3034L42.5274 17.1486L41.0943 14.7554C40.8902 14.4215 40.6606 14.0551 40.4056 13.6563C40.1505 13.262 39.8583 12.8261 39.529 12.3484L38.9446 11.5135V12.3484L38.9725 14.7554C38.9725 15.6923 38.9933 16.49 39.0351 17.1486L39.1185 18.3034L37.275 18.2617L35.494 18.3034L35.6262 17.1277C35.6332 16.8981 35.6401 16.5851 35.6471 16.1885C35.6471 15.792 35.654 15.305 35.668 14.7346V6.93594C35.668 6.46983 35.668 6.04547 35.654 5.67675C35.6448 5.30108 35.6285 4.97875 35.6053 4.70975L35.494 3.83319L37.2332 3.88885L39.4594 3.86798ZM39.7168 10.6787C40.1111 10.6694 40.4751 10.579 40.8091 10.4074C41.143 10.2358 41.4421 9.98072 41.7065 9.64215C41.9338 9.36388 42.0984 9.05082 42.2004 8.70298C42.3071 8.35978 42.3651 7.98411 42.3743 7.57597C42.3743 6.75506 42.1587 6.14286 41.7134 5.73937C41.2821 5.32891 40.6282 5.12716 39.7586 5.12716L38.9446 5.18282V10.6579L39.7168 10.6787ZM17.3019 18.7626H21.1421V20.0983H17.3019V18.7626ZM11.5347 20.0983H10.0737V18.3452H9.1276V16.7451H8.22321V20.0983H6.92228V13.0162L6.44922 12.5153V10.7205L11.5347 13.9971V20.0983ZM8.22321 15.5972H10.0737V14.6511H8.22321V15.5972Z" fill="white"/>
<path fill-rule="evenodd" clip-rule="evenodd" d="M12.4319 10.484H16.3068V8.3343C15.8199 8.19516 15.4581 7.74992 15.4581 7.21424C15.4581 6.57422 15.9729 6.05245 16.6129 6.05245C17.253 6.05245 17.7678 6.57422 17.7678 7.21424C17.7678 7.74296 17.4199 8.18125 16.9399 8.32734V11.2144H11.7988V8.32734C11.3257 8.18125 10.9709 7.74296 10.9709 7.21424C10.9709 6.57422 11.4927 6.05245 12.1327 6.05245C12.7658 6.05245 13.2876 6.57422 13.2876 7.21424C13.2876 7.74992 12.9258 8.19516 12.4319 8.3343V10.484ZM12.5014 15.7155V20.0983H10.8805V14.6581H7.59687V12.2371H6.44899V10.3379L3.67321 7.65253V4.3202H2.45577V0H3.93757V1.30093H4.76544V2.60882H5.48895V1.30093H6.44899V0H7.88906V4.3202H6.69248V6.50465L9.4613 9.59348V12.2719H11.8684L14.3728 15.0616V17.8026L12.5014 15.7155ZM14.3728 15.0546L16.8773 12.2719H19.2774V9.59348L22.0532 6.50465V4.31324H20.8497V0H22.2967V1.30093H23.2567V2.60882H23.9733V1.30093H24.8081V0H26.2899V4.31324H25.0725V7.64557L22.2967 10.3379V12.2371H21.1418V14.6511H17.8652V20.0983H16.2442V15.7155L14.3728 17.7956V15.0546ZM0.911346 19.02H0V15.6946L2.41402 13.0093H6.42812V13.8928H2.97057L0.911346 16.1816V19.02ZM1.48181 16.933L3.52712 14.6581H6.42812V15.6042H4.18802L2.39315 17.6008V20.1053H1.48181V16.933ZM6.42812 16.4738V17.3851H4.84892L3.77757 18.5748V21.1349H3.01231V17.9626L4.34803 16.4738H6.42812ZM6.42812 19.0131H5.86462L5.4959 19.4305V22.2341H4.66108V18.7626L5.2385 18.1295H6.42812V19.0131ZM27.2708 16.1747L25.2116 13.8789H21.754V13.0023H25.7681L28.1822 15.6877V19.0131H27.2708V16.1747ZM26.7004 20.0844H25.789V17.5869L23.9941 15.5833H21.754V14.6442H24.655L26.7004 16.919V20.0844ZM23.8341 16.4599L25.1699 17.9487V21.121H24.4046V18.5609L23.3332 17.3712H21.754V16.4599H23.8341ZM21.761 18.1156H22.9506L23.5211 18.7556V22.2271H22.6932V19.4165L22.3175 19.0061H21.761V18.1156Z" fill="white"/>
</svg>
