<svg width="29" height="111" viewBox="0 0 29 111" fill="none" xmlns="http://www.w3.org/2000/svg">
<path d="M14.9133 27.5525C11.312 27.5525 8.04095 26.1436 5.61896 23.8496L6.11854 23.2519C8.4046 25.4348 11.5009 26.7749 14.9133 26.7749C21.9409 26.7749 27.6375 21.0866 27.6375 14.0672C27.6375 7.04944 21.9409 1.36121 14.9133 1.36121C13.7305 1.36121 12.5866 1.52166 11.4992 1.82318L10.8619 1.20075C12.1417 0.800497 13.501 0.583618 14.9133 0.583618C22.3699 0.583618 28.416 6.62097 28.416 14.0672C28.416 21.5151 22.3699 27.5525 14.9133 27.5525ZM5.14409 5.92978L4.15023 5.92978C5.22353 4.51742 6.57045 3.32546 8.11156 2.42974L8.98891 2.83352C7.51312 3.60582 6.2068 4.662 5.14409 5.92978Z" fill="#ED1C24"/>
<path fill-rule="evenodd" clip-rule="evenodd" d="M5.1579 20.3602L6.51894 21.7708L5.1579 23.0827L5.1579 21.3335L3.74566 21.3335L3.74566 23.1796L2.72355 23.1796L2.72355 21.3335L1.26542 21.3335L1.26542 23.0826L-0.000302313 21.7708L1.4596 20.3602L5.1579 20.3602ZM5.1579 16.571L6.52071 18.0292L5.1579 19.3886L1.4596 19.3886L0.437493 18.4665L1.50726 17.4456L1.50726 18.5141L5.06081 18.5141L5.06081 17.3962L-0.000302121 17.3962L-0.000302085 16.571L5.1579 16.571ZM5.11024 12.683L6.52071 14.0919L5.1579 15.5007L1.36251 15.5007L-0.000301975 14.0443L1.36251 12.683L5.11024 12.683ZM4.90546 3.73808C4.54181 4.28292 2.55409 6.95248 0.0508936 4.27763L0.0508938 -1.20383e-06L1.55846 1.7509C1.55846 1.7509 1.26719 2.60079 2.06863 3.37838C2.06863 3.37838 3.14016 3.93733 3.69976 3.20734C3.69976 3.20734 4.38117 2.62371 4.96548 1.50757C4.96548 1.50757 5.69455 -0.0969794 7.98238 0.583634C7.98238 0.583634 11.4847 1.07029 13.3824 5.44314L13.476 5.70057C13.4795 5.83105 11.2411 2.47912 8.12713 1.7509C8.12713 1.7509 7.42101 1.5305 6.44833 1.7509C6.44833 1.7509 5.79164 1.7509 5.35385 2.60079C5.35385 2.60079 5.03786 3.35369 4.98843 3.59702L4.90546 3.73808ZM25.5965 6.85197L26.4721 7.82528L0.0014645 7.82528L0.00146454 6.85197L25.5965 6.85197ZM27.0564 9.42808L15.2448 10.7382C15.6561 10.717 27.5913 10.7399 27.5913 10.7399L27.5913 11.6639L0.00323054 11.6639L0.00323058 10.7399L11.34 9.57619L10.9022 9.57619L0.00323063 9.57442L0.00323067 8.5535L26.5251 8.55351L27.0564 9.42808ZM15.2325 10.7399L15.243 10.7382C15.236 10.7393 15.2325 10.7399 15.2325 10.7399ZM1.46137 13.51L1.46137 14.6279L5.01314 14.6279L5.01314 13.51L1.46137 13.51ZM5.20909 24.2005L6.52248 25.5124L5.01314 26.9688L3.79685 26.9688L3.79685 26.1436L5.11024 26.1436L5.11024 24.9781L1.51079 24.9781L1.51079 26.0943L2.62999 26.0943L2.62999 26.9688L1.4137 26.9688L0.00146373 25.56L1.36427 24.2005L5.20909 24.2005Z" fill="white"/>
<path fill-rule="evenodd" clip-rule="evenodd" d="M15.7165 13.6069L16.2037 13.5575L16.5444 13.5575L16.7863 13.5328L16.9328 13.6545L16.9805 13.8502L15.7165 13.8502C15.7165 13.8502 15.8136 14.2135 15.7889 14.5291L15.6918 14.8465L15.5453 14.9188L15.4005 14.8694L15.3034 14.7248L15.2063 14.5062C15.2063 14.5062 15.0351 13.9948 14.5002 14.3104L14.3784 14.2135L14.3537 14.0442L14.3784 13.8255C14.3784 13.8255 14.4031 13.6792 14.1842 13.6792L12.3342 13.6792L12.1153 13.6545L11.8964 13.6545L11.7746 13.5575L11.8964 13.4852L12.0676 13.4359L13.8188 13.4359C13.8188 13.4359 14.2072 13.5328 14.1595 13.2419C14.1595 13.2419 14.306 13.1202 14.3784 13.2913C14.3784 13.2913 14.5002 13.5099 14.6697 13.5822C14.6697 13.5822 14.7191 13.6069 14.938 13.5822C14.938 13.5822 15.3034 13.6298 15.0351 13.2172C15.0351 13.2172 14.7438 12.7323 14.2319 12.6354C14.2319 12.6354 14.1101 12.4167 14.6944 12.4396C14.6944 12.4396 15.0845 12.5137 15.3264 12.6583C15.3264 12.6583 15.6194 12.9263 15.254 12.9016C15.254 12.9016 15.0351 12.9263 15.2293 13.1449C15.2293 13.1449 15.4976 13.4129 15.57 13.5575L15.7165 13.6069ZM14.9627 13.7533L15.0104 13.8996C15.1569 14.1182 15.3034 13.9719 15.3034 13.9719C15.3034 13.7039 15.1075 13.7039 15.1075 13.7039L14.9627 13.7533ZM15.7907 15.6734C15.7907 15.6734 16.1066 16.3047 16.2285 16.5727C16.2285 16.5727 16.3008 16.8883 16.2037 17.2039C16.2037 17.2039 16.1808 17.5195 15.6689 17.5689C15.6689 17.5689 14.6962 17.6659 14.3802 17.6888C14.3802 17.6888 14.1842 17.7382 13.9424 17.6412C13.9424 17.6412 13.6246 17.6165 13.4552 17.5195L13.1392 17.3732C13.1392 17.3732 12.8461 17.2762 12.9679 17.0576C12.9679 17.0576 13.1145 16.8636 13.3828 17.1069C13.3828 17.1069 13.5523 17.3732 13.8682 17.3485C13.8682 17.3485 14.7933 17.3256 14.8904 17.2762L15.5718 17.1546C15.5718 17.1546 16.0837 17.1792 15.9601 16.6203L15.7907 16.183L15.6936 15.9644L15.6194 15.818L15.6441 15.6734L15.7907 15.6734ZM15.1093 15.3331L14.9892 15.3578L14.8427 15.3084L13.7959 15.3084L13.577 15.2838L13.4552 15.1621L13.3581 15.0175L13.5046 14.9205L13.6988 14.9205L13.8947 14.9434C13.9671 15.1868 14.2831 15.1145 14.2831 15.1145L14.818 15.1145L15.1093 15.2115L15.1093 15.3331ZM15.134 15.7951L15.1587 16.1583C15.1587 16.1583 15.4023 16.2077 15.5488 16.1107C15.5488 16.1107 15.45 16.4263 15.1834 16.4986L14.8427 16.4986C14.8427 16.4986 14.5991 16.4016 14.7209 16.7173C14.7209 16.7173 15.134 17.1069 14.6962 16.8883C14.6962 16.8883 14.5514 16.7173 14.4049 16.5974C14.4049 16.5974 14.2107 16.5233 14.0642 16.7173L13.7712 16.7666L13.6511 16.8636L13.5293 16.8389L13.4799 16.7173L13.3581 16.742L13.2857 16.9359L13.2363 16.7173L13.1392 16.645L13.1145 16.3047L13.1886 16.0613L13.2133 15.8427L13.2363 15.6487L13.3334 15.6981C13.3334 15.6981 13.6511 16.3047 13.9671 16.4016C13.9671 16.4016 14.4049 16.4986 14.6238 16.2571C14.6238 16.2571 14.3555 16.0613 14.1613 15.8921C14.1613 15.8921 14.1119 16.1354 14.1366 16.2571C14.1366 16.2571 13.9177 16.0384 13.7482 15.721C13.7482 15.721 13.6511 15.4054 13.9177 15.5271C13.9177 15.5271 14.1119 15.7951 14.3555 15.8198L14.4526 15.7457L14.6715 15.721L14.7209 15.8427L14.8427 15.8198L14.818 15.6241L14.9151 15.6241L15.0616 15.6734L15.134 15.7951ZM15.6689 16.5233L15.6936 16.6203L15.6212 16.742L15.5223 16.8389L15.3776 16.8636L15.3529 16.6943L15.4994 16.5727L15.6689 16.5233ZM15.7659 18.9778C15.7659 18.9778 15.9848 19.3903 16.1066 20.4113L16.1314 20.5805L15.9354 20.4113L15.7659 20.2649L15.6441 20.0956L15.57 19.8276L15.5223 19.5367L15.6194 19.244L15.7412 19.0747L15.7659 18.9778ZM15.2063 19.415L15.134 19.3181L15.0122 19.2934L14.8409 19.244L14.6944 19.147C14.3555 19.0024 14.306 19.2934 14.306 19.2934L14.3308 19.4626L14.306 19.706C14.2337 20.0216 14.5249 20.3143 14.5249 20.3143L14.622 20.5082C14.7933 20.9208 14.4526 20.7516 14.4526 20.7516L14.306 20.6052L14.1119 20.4589C13.7464 20.2896 13.7217 20.5559 13.7217 20.5559L13.6741 20.7516L13.577 20.5559L13.4799 20.2402C13.2839 19.7553 13.5999 19.9246 13.5999 19.9246L13.7959 20.0956C14.1595 20.2402 14.0624 19.8276 14.0624 19.8276L14.1119 19.5614C14.1595 19.2934 13.7959 19.2687 13.7959 19.2687L13.7217 19.3657L13.577 19.3657C13.2839 19.3427 13.3563 18.9778 13.3563 18.9778L13.4552 18.8561L13.577 18.7344L13.4799 18.6621L13.381 18.6128L13.2592 18.5405L13.1145 18.4682L12.9679 18.3694L12.7738 18.2725L12.5549 18.1508L12.3589 18.0538L12.2142 17.9321L11.9953 17.8105L11.824 17.6906L11.6793 17.5918L11.4833 17.4473L11.2891 17.2515L11.0703 16.9606L11.2644 17.0576L11.4357 17.1792L11.6298 17.3256L11.8011 17.4719L11.9953 17.6165L12.1647 17.7382L12.3836 17.8599L12.5796 18.0062L12.8461 18.1755L13.065 18.2971L13.2363 18.3941L13.5028 18.5158L13.7217 18.6128L14.0148 18.7344L14.3308 18.8314L14.622 18.9284L14.938 18.9531L15.0845 19.0254L15.2063 19.1717L15.3281 19.3657L15.2063 19.415ZM15.9354 22.5748L15.9601 22.6964L15.863 22.744L15.7907 22.6224L15.6936 22.4531L15.57 22.3314L15.4005 22.2345L15.2311 22.1604C15.0351 21.9665 14.9627 22.1604 14.9627 22.1604C14.8904 22.3314 14.6467 22.3068 14.6467 22.3068L14.4755 22.3314L14.0871 22.3314C13.6246 22.2592 13.5752 21.8942 13.5752 21.8942L13.5752 21.6032L13.697 21.7231L13.8682 21.8942C14.0148 22.1128 14.2319 22.0387 14.2319 22.0387L14.6944 22.0387C14.9133 22.0158 14.7438 21.8448 14.7438 21.8448C14.5249 21.7725 14.4755 21.5045 14.4755 21.5045L14.4526 21.3352L14.4755 21.1659L14.5973 21.1889L14.6715 21.2858L14.6715 21.4322L14.7685 21.5292L14.8904 21.6261L15.0122 21.7725L15.1569 21.8695L15.2787 21.9911L15.4005 22.0881L15.6936 22.2345L15.8136 22.3314L15.9107 22.4531L15.9354 22.5748ZM15.5223 23.303L15.6194 23.4L15.7183 23.5216L15.547 23.5463C15.3776 23.6433 15.5718 23.9095 15.5718 23.9095L15.7183 24.0806L15.8383 24.1776L15.8877 24.2992L15.9125 24.4685L15.7907 24.5655L15.6689 24.4456L15.547 24.2745L15.4005 24.0806L15.1816 23.7879L14.9627 23.5216L14.818 23.3753L14.3555 23.3753C13.9177 23.4247 13.7712 23.9589 13.7712 23.9589L13.7217 24.1529L13.7217 24.3962L13.7464 24.6148L13.8188 24.8088L13.893 24.9552L14.0395 25.1491L14.1595 25.3431L14.306 25.4894L14.4526 25.5864L14.5744 25.6358L14.7685 25.6358L14.9627 25.6111L15.2311 25.6358L15.6689 25.6358L15.863 25.6834L16.0096 25.7327L15.8877 25.805L15.5947 25.8544L15.1816 25.8297L14.9627 25.9267C14.6467 26.1207 14.4278 25.805 14.4278 25.805L14.2089 25.6358L13.9653 25.3201C13.5523 24.8582 13.5275 24.4209 13.5275 24.4209L13.5275 24.1776L13.5028 23.6909C13.4799 23.0843 14.0624 23.0844 14.0624 23.0844L14.3802 23.0844L14.6962 23.0597L14.7209 22.9627L14.7209 22.7934L14.8409 22.7934L14.8656 22.9133C14.9627 23.4 15.3281 23.2783 15.3281 23.2783L15.5223 23.303Z" fill="white"/>
<path fill-rule="evenodd" clip-rule="evenodd" d="M17.1468 39.4748C17.0598 39.5318 16.9654 39.5759 16.7239 39.5952L16.7239 42.8988C17.5287 42.8948 17.9191 42.7907 18.5198 42.3943C19.1244 42.0018 19.5929 41.4432 19.9253 40.7185C20.2576 39.9937 20.4238 39.1348 20.4238 38.1417C20.4238 37.1686 20.2597 36.3057 19.9313 35.5529C19.6029 34.8041 19.1445 34.2175 18.5558 33.793C17.9712 33.3726 17.2885 33.1643 16.5076 33.1683C15.5466 33.1643 14.7878 33.4747 14.2312 34.0993C13.6786 34.728 13.2842 35.5869 13.0479 36.6761L12.7836 37.9014C12.7759 37.9365 12.7682 37.971 12.7604 38.005L12.7595 38.0095C12.7595 38.7829 12.4082 39.5248 11.8489 39.701C11.7662 39.7326 11.6773 39.7494 11.5823 39.7514C11.5134 39.75 11.4472 39.7415 11.3835 39.726C10.679 39.6887 10.1166 38.9345 10.1166 38.0095C10.1166 37.0608 10.9095 35.8953 12.2309 35.8953C12.2473 35.8953 12.2634 35.8957 12.2791 35.8965L12.2791 32.856C11.25 32.86 10.4051 33.0802 9.74435 33.5167C9.08764 33.9572 8.60112 34.5738 8.28478 35.3667C7.96844 36.1636 7.81027 37.0966 7.81027 38.1657C7.81027 39.2068 7.95643 40.0978 8.24874 40.8386C8.54106 41.5834 8.96751 42.156 9.52812 42.5564C10.0887 42.9569 10.7735 43.1591 11.5823 43.1631C11.7053 43.162 11.8294 43.1671 11.9534 43.1722C12.3017 43.1865 12.6499 43.2008 12.9758 43.079C13.591 42.8491 13.7161 42.7271 14.031 42.4202L14.033 42.4183C14.4123 42.0485 14.4289 42.0237 14.8583 41.3786L14.958 41.229C15.2222 40.5683 15.3544 40.1719 15.6187 39.379L15.6187 39.379L15.6187 39.379L15.8157 38.7652C15.847 38.4588 15.9598 38.115 16.0568 37.8194C16.1165 37.6377 16.1701 37.4742 16.1952 37.3488C16.4595 36.556 16.7237 36.2917 17.1202 36.2917C17.7809 36.2917 18.1773 36.8833 18.1773 37.6131C18.1773 38.2227 17.8063 39.1433 17.1468 39.4748ZM7.95443 48.2325L20.1115 48.2805L20.1115 44.5326L7.95443 44.5326L7.95443 48.2325ZM20.1115 61.711L7.95442 61.711L7.95442 58.0111L14.4174 54.0468L14.4174 53.7825L7.95442 53.7825L7.95443 50.3706L20.1115 50.3468L20.1115 53.7823L13.8167 57.7468L13.8167 58.0111L20.1115 58.0111L20.1115 61.711ZM10.6393 74.2191C11.5803 74.7517 12.7356 75.018 14.105 75.018C15.4745 75.018 16.6277 74.7517 17.5648 74.2191C18.5058 73.6865 19.2165 72.9678 19.697 72.0628C20.1816 71.1578 20.4238 70.1487 20.4238 69.0355C20.4238 67.9143 20.1816 66.9012 19.697 65.9963C19.2165 65.0953 18.5058 64.3785 17.5648 63.846C16.6277 63.3174 15.4745 63.0531 14.105 63.0531C12.7436 63.0531 11.5923 63.3174 10.6513 63.846C9.71432 64.3785 9.00155 65.0953 8.51302 65.9963C8.0285 66.9012 7.78624 67.9143 7.78624 69.0355C7.78624 70.1487 8.0265 71.1578 8.50702 72.0628C8.99154 72.9678 9.7023 73.6865 10.6393 74.2191ZM20.2556 76.6431L20.2556 82.3802C20.2556 83.2932 20.0755 84.0921 19.7151 84.7768C19.3547 85.4616 18.8481 85.9941 18.1954 86.3745C17.5427 86.755 16.7799 86.9452 15.907 86.9452C15.026 86.9452 14.5455 86.6819 13.9008 86.2894L13.8897 86.2783C13.2401 85.6287 13.2356 85.6243 12.8437 84.8359C12.4849 84.1143 12.4473 83.1971 12.4473 82.2601L12.4473 80.2109L7.95442 80.2109L7.95442 76.6431L20.2556 76.6431ZM14.8739 80.1628L14.8739 82.0128C14.8739 82.5588 15.205 83.0275 15.6774 83.2289L15.6847 83.2332C15.7154 83.2514 15.7369 83.2652 15.7516 83.2755C15.7502 83.2702 15.751 83.2647 15.7558 83.2594C15.8933 83.3079 16.0412 83.3343 16.1953 83.3343C16.9251 83.3343 17.5167 82.7426 17.5167 82.0128L17.5167 80.1628L14.8739 80.1628ZM20.2556 97.9179L20.2556 88.1394L7.95442 88.1394L7.95442 97.9179L10.6453 97.9179L10.6453 92.0175L12.7596 92.0175L12.7596 97.9179L15.4505 97.9179L15.4505 92.0175L17.5648 92.0175L17.5648 97.9179L20.2556 97.9179ZM16.8079 111L15.2561 107.638C16.1259 107.205 16.7237 106.307 16.7237 105.27C16.7237 103.81 15.5404 102.627 14.0808 102.627C12.6212 102.627 11.438 103.81 11.438 105.27C11.438 106.317 12.0475 107.223 12.9312 107.65L11.258 110.868C11.0728 110.854 11.0277 110.867 11.0222 110.879C10.9991 110.861 10.9364 110.824 10.7835 110.753C10.2469 110.501 9.75035 110.142 9.29386 109.678C8.84138 109.217 8.47698 108.647 8.20069 107.966C7.92439 107.285 7.78624 106.494 7.78624 105.593C7.78624 104.464 8.0285 103.451 8.51302 102.554C8.99754 101.661 9.7043 100.685 10.6453 100.164C11.5863 99.6478 12.7376 99.3895 14.099 99.3895C15.4685 99.3895 16.6217 99.6538 17.5587 100.182C18.4998 100.711 19.2165 101.693 19.697 102.59C20.1816 103.487 20.4238 104.488 20.4238 105.593C20.4238 106.37 20.3177 107.085 20.1055 107.738C19.8933 108.39 19.5829 108.963 19.1745 109.456C18.77 109.948 18.2715 110.345 17.6789 110.645C17.5558 110.707 17.4769 110.748 17.4227 110.777L17.4225 110.777L17.4223 110.777C17.3512 110.814 17.3228 110.829 17.2932 110.84C17.2735 110.848 17.2532 110.854 17.2195 110.864C17.1567 110.883 17.0473 110.917 16.8079 111ZM11.0311 110.891C11.0355 110.893 11.0369 110.89 11.0222 110.879C11.0194 110.884 11.0267 110.89 11.0311 110.891ZM11.438 69.0629C11.438 70.5225 12.6212 71.7058 14.0808 71.7058C15.5404 71.7058 16.7237 70.5225 16.7237 69.0629C16.7237 67.6033 15.5404 66.4201 14.0808 66.4201C12.6212 66.4201 11.438 67.6033 11.438 69.0629Z" fill="#E60012"/>
</svg>
