<svg width="113" height="33" viewBox="0 0 113 33" fill="none" xmlns="http://www.w3.org/2000/svg">
<path d="M87.7461 19.385C88.847 20.2317 97.7129 23.8039 103.516 21.8214C104.214 21.5826 104.572 21.1693 104.572 20.7719C104.572 19.2682 100.01 18.9035 99.1943 18.8091C95.3691 18.3664 91.8288 17.8761 90.1976 17.1417C89.2317 16.7065 88.549 16.2035 88.1507 15.6307C89.4707 15.1174 90.7224 14.606 91.9005 14.0973C95.2396 12.6208 97.798 11.226 99.6721 9.93049C103.418 9.9093 107.973 10.4292 112.225 12.2673L112.226 15.4173C110.546 14.0262 100.378 11.3583 97.2853 13.1068C96.1832 13.7296 95.9862 14.5418 97.2999 15.0012C100.894 16.2583 112.949 16.7549 113 20.147C113.039 22.775 109.709 24.0076 105.869 24.5598C99.2527 25.511 89.9474 24.3447 87.7461 23.1705V19.385Z" fill="white"/>
<path d="M60.4941 10.3052H67.3615L80.7722 17.3865L80.6805 10.3052H87.1228V15.7717C82.7662 17.4528 77.671 19.1557 72.0467 20.8655L66.4546 18.4118L66.4606 22.5175C64.5184 23.077 62.5275 23.6369 60.4941 24.1967V10.3052Z" fill="white"/>
<path d="M87.1228 16.0253C82.8062 17.6646 77.8127 19.3236 72.3276 20.9886L81.2232 24.8915H87.1228V16.0253Z" fill="white"/>
<path d="M66.4612 22.7202C64.5178 23.2792 62.5262 23.8381 60.4941 24.3967V24.8915H66.4646L66.4612 22.7202Z" fill="white"/>
<path d="M35.9009 10.3052H59.5287V13.4195H44.8076V16.1458H59.618V18.8497H44.8076V21.5872H59.5242V24.8916H35.9009V10.3052Z" fill="white"/>
<path d="M34.9355 16.1988V24.8916H25.6816V16.0559C26.6149 17.9576 28.3541 19.2368 30.345 19.2368C32.2855 19.2368 33.9865 18.0211 34.9355 16.1988Z" fill="white"/>
<path d="M30.3453 18.3537C32.9027 18.3537 34.9884 15.8362 34.9884 12.7495C34.9884 9.66271 32.9027 7.1452 30.3453 7.1452C27.7878 7.1452 25.7021 9.66271 25.7021 12.7495C25.7021 15.8362 27.7878 18.3537 30.3453 18.3537Z" fill="#86C337"/>
<path d="M91.1279 14.1412C81.937 18.1116 68.1577 22.2348 52.6311 26.3075C22.9678 34.0879 0 34.1378 0 28.5466C0 26.6943 2.85705 24.3716 7.61578 21.859C10.8673 20.0109 15.1206 18.0322 21.9728 15.284C17.3059 17.3666 10.4899 20.0187 6.88888 23.2991C1.2695 28.8771 7.75196 30.4089 13.1822 30.8368C21.3645 31.4814 34.7918 30.2225 50.3496 26.1671C63.8012 22.6839 75.4158 18.3491 83.3784 14.9531C114.639 -0.192192 77.109 1.07186 43.9068 8.71639C58.1981 4.76415 73.2826 1.62596 84.6149 0.641534C101.636 -1.13576 112.14 4.8507 91.1279 14.1412Z" fill="#F9E100"/>
<path d="M0.059082 10.3052H25.0163V13.3659H16.956V24.8916H7.61585V13.3659H0.059082V10.3052Z" fill="white"/>
</svg>
