<svg width="110" height="28" viewBox="0 0 110 28" fill="none" xmlns="http://www.w3.org/2000/svg">
<path d="M18.5032 8.21314V5.24716L12.3542 5.30549C11.5725 5.30549 11.6167 5.13555 11.6167 4.10801L11.6822 0.0540054L8.57605 0C7.62189 2.1631 6.43756 3.591 5.76345 3.87255L0 6.44104V8.27003L2.15702 8.32403C3.11474 8.32403 3.50809 8.27003 3.50809 9.41206V21.4387C3.50809 25.0909 5.47841 27.7725 10.5649 27.8927C14.3887 28 16.7096 26.2869 18.3386 24.6862L17.8925 23.1467C17.2084 23.6104 16.6554 24.0072 15.7433 24.0072C11.4022 24.0072 11.5191 20.5825 11.5191 17.5618V9.4135C11.5191 8.21386 11.6167 8.21386 12.4155 8.21386H18.5032V8.21314ZM30.4676 27.604C35.4372 27.3699 40.2265 26.2884 40.2265 21.4416C40.2265 17.9161 36.3971 15.6832 32.3367 13.9161C29.7329 12.8324 25.959 11.2396 25.959 9.97804C25.959 8.50045 28.8322 5.64464 31.5956 7.92583L36.3971 11.9798L38.599 11.5168L37.3626 5.48047C36.2289 5.53447 35.4386 5.59496 31.3141 4.90153C26.2341 4.16562 20.2006 6.73555 20.2006 11.5168C20.2006 14.7226 24.7768 16.9404 28.3918 18.4209C30.3621 19.2749 33.8645 20.5336 33.8645 22.4698C33.8645 24.3406 30.5852 24.8655 28.7274 24.8655C25.5664 24.8655 22.0633 20.584 22.0633 20.584H19.9832L21.1091 26.9797C21.4939 26.6319 22.9184 26.6823 23.2013 26.8054C24.2089 27.1957 27.873 27.7739 30.4676 27.604ZM43.1617 21.4977C43.1617 25.0355 42.2631 26.9134 39.437 27.079L39.5061 27.6565C44.2299 27.6018 49.0442 27.6565 53.6575 27.5485L53.7102 27.2504C51.5781 27.2504 49.9328 24.9707 49.9328 22.1321V12.6049C49.9328 10.2596 52.7546 8.7784 54.6729 8.95193C57.653 9.23492 59.2984 11.1698 59.2984 12.8878V22.2401C59.2984 25.0931 58.4525 26.8572 56.2535 27.0243V27.55H69.2248V27.1482C67.3058 26.9127 65.9561 25.1399 65.9561 22.4677V12.6488C65.9561 10.5512 67.7597 9.12403 70.9806 9.07075C73.8032 9.01242 75.492 11.1265 75.492 13.1247V22.0112C75.492 25.0362 74.5913 26.9134 72.3395 27.1496V27.5514C77.0761 27.6047 80.9647 27.6047 85.6436 27.5514V27.2526C83.1673 27.2526 82.3243 25.6065 82.3243 22.1357V12.3176C82.3243 9.06931 80.5742 5.18956 75.6645 5.18956C72.3395 5.18956 69.8967 6.83204 68.5043 7.31161C67.5423 7.69253 66.8632 8.15553 66.6338 8.15553C66.1934 8.15553 65.6882 7.87039 65.0582 7.18776C63.8711 5.92043 61.7333 5.18956 59.4701 5.18956C56.5905 5.18956 53.7116 6.83204 52.352 7.31161C52.1917 7.35697 51.1812 7.87039 51.0579 7.87039C50.837 7.87039 49.9328 7.87039 49.9328 7.76238C49.9328 5.01962 50.1045 6.38488 49.9933 4.44861H48.1256C47.5705 4.44861 46.5993 5.47903 45.4734 5.92187C44.1173 6.50513 41.4087 6.44464 40.2907 6.73267V8.66967L43.2137 9.23636V13.0038L43.1617 21.4977ZM98.8907 4.95842C90.5398 4.95842 84.1621 9.35013 84.1621 16.9995C84.1621 23.4463 89.9705 28 97.7605 28C103.688 28 108.594 23.668 110 20.9296C110 20.0806 109.157 19.7314 108.371 19.7314C107.012 21.8412 103.178 23.4463 101.604 23.3786C92.1774 23.0351 90.6538 19.2166 90.5398 15.2281C90.3638 10.8925 94.9971 7.12367 98.9477 7.41746C101.253 7.5802 102.05 11.393 104.073 12.7683C104.707 13.1226 106.167 13.0563 107.13 12.8878C107.864 12.7683 109.828 12.3154 109.828 10.6038C109.828 9.18164 108.08 7.5802 106.398 6.55409C104.707 5.76418 100.921 4.95842 98.8907 4.95842Z" fill="#E60012"/>
</svg>
