<svg width="27" height="110" viewBox="0 0 27 110" fill="none" xmlns="http://www.w3.org/2000/svg">
<path fill-rule="evenodd" clip-rule="evenodd" d="M15.0017 28.9715C15.0017 28.9715 14.6462 28.3626 13.1806 27.4349C12.8178 27.1449 12.1721 26.7898 11.5699 26.4998C8.7403 25.1444 4.83689 23.6078 2.22495 19.9546C0.1499 17.0625 -0.278168 13.5543 0.1499 11.0537C0.403838 15.0547 2.61674 18.4542 7.05704 20.8896C7.48511 21.1361 8.09457 21.4623 8.70402 21.7449L8.70402 22.0639C8.70402 23.0714 9.4876 23.9267 10.5324 23.9267C11.033 23.9267 11.5699 23.6802 11.8891 23.3178C12.2447 23.499 12.5711 23.644 12.709 23.7455C14.1456 24.4268 15.0017 25.572 15.0017 26.9347L15.0017 28.9715ZM15.0017 37.8362L15.0017 34.3353L8.2034 32.1173C7.52139 31.9361 7.02077 31.8636 6.55642 31.8636C5.83814 31.8636 5.33751 32.081 5.01827 32.5812C4.72806 33.0451 4.59021 33.7626 4.59021 34.6542L4.59021 41.9895C4.59021 42.5983 4.62648 43.0985 4.76434 43.6348C4.87317 44.0987 5.12711 44.5626 5.37379 44.954C5.66401 45.3817 6.0558 45.7079 6.44759 46.0268C6.83938 46.3167 7.31098 46.5632 7.8116 46.7444L15.0017 49.0348L15.0017 45.5629L6.87566 42.9535C6.70153 42.881 6.55642 42.7361 6.41131 42.5983C6.30248 42.4534 6.23718 42.3084 6.23718 42.1634C6.23718 42.0257 6.2009 41.8445 6.2009 41.6633C6.2009 41.4531 6.23718 41.3444 6.23718 41.1994C6.23718 41.0544 6.30248 40.953 6.41131 40.8805C6.5927 40.7718 6.87566 40.808 7.05704 40.8805C9.74154 41.6995 12.3535 42.5983 15.0017 43.4174L15.0017 39.9817L14.6462 39.844L7.31098 37.4448C7.16587 37.3965 7.02077 37.3481 6.87566 37.2998C6.70153 37.2273 6.55642 37.1259 6.41131 36.9809C6.30248 36.8359 6.23718 36.691 6.23718 36.5532C6.23718 36.4083 6.20091 36.2271 6.20091 36.0531C6.20091 35.8719 6.23718 35.7269 6.23718 35.582C6.23718 35.4442 6.30248 35.3355 6.41131 35.263C6.5927 35.1543 6.91194 35.2268 7.1296 35.263L15.0017 37.8362ZM4.80061 92.3073C4.90944 92.7712 5.1271 93.2351 5.41006 93.67C5.69544 94.0952 6.05338 94.4528 6.48387 94.7427C6.87566 95.0254 7.34 95.2791 7.84062 95.453L15.038 97.7797L15.038 94.2788L7.55766 91.8434C7.37628 91.8071 7.20215 91.6984 6.98449 91.6622C6.72329 91.522 6.49596 91.3312 6.30248 91.0895C6.12351 90.9108 6.0171 90.6981 5.98324 90.4517C5.91069 90.2343 5.91069 89.9806 5.91069 89.6979C5.91069 89.3789 5.91069 89.1615 5.98324 88.9078C6.01952 88.6614 6.12835 88.5526 6.30248 88.4439C6.37503 88.3352 6.52014 88.3352 6.7378 88.3352C6.91193 88.3352 7.09332 88.3352 7.34 88.4439L15.038 90.9156L15.038 87.4799L8.20339 85.2257C7.55766 85.0445 7.05704 84.943 6.5927 84.943C5.87441 84.943 5.37379 85.1894 5.05455 85.6896C4.76917 86.1921 4.62648 86.8952 4.62648 87.7988L4.62648 90.6981C4.62648 91.307 4.6555 91.8071 4.80061 92.3073ZM8.4138 52.2531C8.8854 52.3908 9.13209 52.8257 9.13209 53.3621L9.13209 55.1089C9.13209 55.4713 9.05953 55.5728 8.9507 55.6453C8.8854 55.7178 8.77657 55.7178 8.48636 55.6091L4.62648 54.3623L4.62648 57.8633L11.4248 60.045C12.0342 60.2987 12.6002 60.3712 13.0355 60.3712C13.7828 60.3712 14.2834 60.0813 14.5736 59.6174C14.8929 59.1172 15.038 58.3997 15.038 57.5081L15.038 54.5726C15.038 54.0362 15.0017 53.4636 14.8566 52.9997C14.7115 52.4633 14.5374 51.9994 14.2471 51.608C13.9642 51.2093 13.6087 50.8542 13.108 50.5352C12.7453 50.2815 12.3172 50.0713 11.8166 49.8539L4.62648 47.5272L4.62648 51.0354L8.4138 52.2531ZM13.674 54.8625C13.674 55.0437 13.7102 55.3264 13.7102 55.6163C13.7102 55.899 13.674 56.1889 13.674 56.3629C13.6377 56.5803 13.5289 56.7905 13.3475 56.863C13.2024 56.8993 13.0645 56.9717 12.9194 56.9717C12.738 56.9717 12.5639 56.8993 12.2737 56.863L11.1273 56.5078C10.663 56.3629 10.4888 56.2542 10.4526 55.7903L10.4526 53.507C10.4888 53.2896 10.5251 53.1446 10.5904 53.1446C10.663 53.0721 10.8081 53.0359 11.091 53.1446L11.9907 53.4346C12.2011 53.4708 12.4188 53.536 12.6002 53.6448C12.9194 53.7897 13.1733 53.9347 13.3475 54.1449C13.5289 54.3986 13.6377 54.645 13.674 54.8625ZM15.0307 73.3892L15.0307 69.9172L8.44282 67.808C8.23242 67.6992 8.19614 67.4166 8.44282 67.3803L15.0307 66.5975L15.0307 63.0893L4.61923 59.7261L4.61923 63.1618L11.1999 65.3435C11.3813 65.3798 11.3813 65.6625 11.1999 65.6987L4.61923 66.5613L4.61923 70.0259L15.0307 73.3892ZM4.61197 71.925L4.61197 75.3607L8.4791 76.6437C8.90717 76.7524 9.08855 77.18 9.12483 77.7164L9.12483 79.4705C9.12483 79.8619 9.05228 79.9344 8.94345 80.0069C8.90717 80.0431 8.79834 80.0794 8.62421 80.0431L4.61197 78.7167L4.61197 82.2249L15.0307 85.5881L15.0307 82.0799L11.1636 80.8332C10.6993 80.6882 10.4816 80.6157 10.4453 80.1156L10.4453 77.9339C10.4453 77.6077 10.5541 77.5062 10.6267 77.47C10.6993 77.4337 10.8081 77.3612 11.091 77.47L15.0307 78.7167L15.0307 75.2882L4.61197 71.925ZM8.37027 100.933C8.83461 101.034 9.11757 101.469 9.11757 102.042L9.11757 103.752C9.11757 104.151 9.04502 104.289 8.94344 104.325C8.83461 104.361 8.76206 104.361 8.47184 104.289L4.61197 103.078L4.61197 106.507L11.4103 108.725C12.0197 108.942 12.5929 109.051 13.021 109.051C13.7683 109.051 14.2689 108.761 14.5591 108.297C14.8784 107.797 15.0235 107.079 15.0235 106.188L15.0235 103.252C15.0235 102.68 14.9872 102.143 14.8421 101.643C14.7042 101.143 14.4866 100.679 14.2399 100.324C13.9497 99.889 13.5579 99.4976 13.0935 99.2512C12.7308 98.9975 12.3027 98.751 11.8021 98.5698L4.61197 96.2431L4.61197 99.715L8.37027 100.933ZM11.1563 105.151C10.692 105.006 10.5179 104.934 10.4816 104.47L10.4816 102.187C10.5179 101.933 10.5541 101.861 10.6194 101.788C10.692 101.752 10.8371 101.716 11.1201 101.788L12.0197 102.078C12.2301 102.187 12.4115 102.216 12.6292 102.324C12.9484 102.469 13.1661 102.651 13.3765 102.825C13.5579 103.078 13.6304 103.288 13.703 103.542C13.703 103.723 13.7393 104.006 13.7393 104.296C13.7393 104.542 13.703 104.832 13.703 105.006C13.6304 105.26 13.5579 105.441 13.3765 105.543C13.2386 105.579 13.0935 105.615 12.9484 105.615C12.767 105.615 12.5566 105.579 12.3027 105.543L11.1563 105.151ZM12.4841 2.68188C13.2169 2.68188 13.8046 2.08027 13.8046 1.34094C13.8046 0.601609 13.2169 -5.6071e-07 12.4841 -5.92742e-07C11.7513 -6.24773e-07 11.1563 0.601609 11.1563 1.34094C11.1563 2.08027 11.7513 2.68188 12.4841 2.68188ZM7.79709 20.0996C8.18889 20.2808 8.72579 20.4982 9.26268 20.7809C9.58192 20.462 10.0825 20.2445 10.5832 20.2445C11.6207 20.2445 12.4115 21.0708 12.4115 22.0711L12.4115 22.2813C12.8396 22.4625 13.2314 22.709 13.6304 22.8902C14.5229 23.3903 15.0598 24.2166 15.0598 24.2166L15.0598 21.571C15.0598 20.3533 14.2689 19.0631 12.5929 18.2802C11.9472 17.9903 9.69076 16.99 8.61696 16.4537C4.43059 14.4531 2.60223 11.8365 2.60223 8.04563C2.60223 6.72643 2.85617 5.50872 3.39307 4.43597C0.991529 6.90039 0.853675 9.55327 0.962507 11.0899C1.24547 15.4172 4.96749 18.6354 7.79709 20.0996ZM10.5832 23.3903C11.3377 23.3903 11.9472 22.7959 11.9472 22.0494C11.9472 21.31 11.3377 20.7084 10.5832 20.7084C9.83586 20.7084 9.22641 21.31 9.22641 22.0494C9.22641 22.7959 9.83586 23.3903 10.5832 23.3903ZM9.19013 15.4172C10.2639 15.9173 11.0838 16.3449 11.8746 16.6349C14.3052 17.6714 14.7405 18.3455 15.0598 18.7804L15.0598 14.9533C15.0598 13.2354 13.8046 12.0902 12.4841 11.5538C11.8408 11.2687 11.1491 10.9353 10.409 10.5535C6.50563 8.54576 7.43432 3.54442 10.9097 2.39919C10.7283 2.10926 10.5832 1.75409 10.5832 1.36268C10.5832 1.07275 10.692 0.790065 10.7646 0.608858C9.97371 0.717582 9.19013 0.891542 8.47185 1.14523C6.46936 1.9353 3.61073 3.75463 3.61073 8.04563C3.61073 10.4086 4.50314 13.1629 9.19013 15.4172ZM13.986 2.43543C15.0598 2.82684 16.061 3.6459 16.5979 4.97234C17.5266 7.15408 17.2799 10.0534 16.9171 13.0905C16.6705 15.4172 16.9897 17.5627 18.6729 19.527C21.1398 22.4625 26.0444 23.644 26.0444 23.644C26.0444 23.644 24.9344 22.6075 24.5426 19.9908C24.3612 18.7441 24.47 17.0625 24.6514 15.5259C25.0795 12.0177 24.5426 9.11838 23.1133 6.69019C20.4288 2.21798 16.5253 0.927784 14.1673 0.608858C14.2689 0.862549 14.3052 1.07275 14.3052 1.36268C14.3052 1.75409 14.1673 2.10926 13.986 2.43543Z" fill="white"/>
</svg>
