<svg width="110" height="27" viewBox="0 0 110 27" fill="none" xmlns="http://www.w3.org/2000/svg">
<path fill-rule="evenodd" clip-rule="evenodd" d="M29.4683 11.5459C29.4683 11.5459 28.8595 11.9014 27.9317 13.367C27.6418 13.7298 27.2866 14.3755 26.9967 14.9777C25.6412 17.8073 24.1046 21.7107 20.4514 24.3227C17.5594 26.3977 14.0512 26.8258 11.5505 26.3977C15.5516 26.1438 18.951 23.9309 21.3865 19.4906C21.6329 19.0625 21.9591 18.4531 22.2418 17.8436H22.5607C23.5682 17.8436 24.4235 17.06 24.4235 16.0153C24.4235 15.5146 24.1771 14.9777 23.8146 14.6585C23.9959 14.303 24.1408 13.9765 24.2423 13.8386C24.9236 12.4021 26.0689 11.5459 27.4316 11.5459L29.4683 11.5459ZM38.333 11.5459H34.8321L32.6141 18.3442C32.4329 19.0262 32.3604 19.5269 32.3604 19.9912C32.3604 20.7095 32.5779 21.2101 33.078 21.5294C33.5419 21.8196 34.2595 21.9574 35.151 21.9574H42.4863C43.0952 21.9574 43.5953 21.9212 44.1317 21.7833C44.5956 21.6745 45.0595 21.4205 45.4509 21.1738C45.8785 20.8836 46.2047 20.4918 46.5236 20.1C46.8135 19.7083 47.06 19.2367 47.2412 18.736L49.5317 11.5459H46.0597L43.4503 19.672C43.3778 19.8461 43.2329 19.9912 43.0952 20.1363C42.9502 20.2452 42.8052 20.3105 42.6603 20.3105C42.5225 20.3105 42.3413 20.3467 42.1601 20.3467C41.9499 20.3467 41.8412 20.3105 41.6962 20.3105C41.5513 20.3105 41.4498 20.2452 41.3773 20.1363C41.2686 19.9549 41.3048 19.672 41.3773 19.4906C42.1964 16.8061 43.0952 14.1941 43.9142 11.5459H40.4785L40.3408 11.9014L37.9416 19.2367C37.8933 19.3818 37.845 19.5269 37.7966 19.672C37.7242 19.8461 37.6227 19.9912 37.4777 20.1363C37.3328 20.2452 37.1878 20.3105 37.0501 20.3105C36.9051 20.3105 36.7239 20.3467 36.5499 20.3467C36.3687 20.3467 36.2238 20.3105 36.0788 20.3105C35.9411 20.3105 35.8324 20.2452 35.7599 20.1363C35.6511 19.9549 35.7236 19.6357 35.7599 19.418L38.333 11.5459ZM92.8041 21.747C93.268 21.6382 93.7319 21.4205 94.1668 21.1376C94.592 20.8522 94.9496 20.4943 95.2395 20.0638C95.5222 19.672 95.7759 19.2076 95.9499 18.707L98.2766 11.5097H94.7756L92.3402 18.99C92.304 19.1714 92.1952 19.3455 92.159 19.5631C92.0189 19.8243 91.828 20.0517 91.5864 20.2452C91.4076 20.4241 91.195 20.5305 90.9485 20.5644C90.7311 20.6369 90.4774 20.6369 90.1947 20.6369C89.8758 20.6369 89.6583 20.6369 89.4046 20.5644C89.1582 20.5281 89.0495 20.4193 88.9407 20.2452C88.832 20.1726 88.832 20.0275 88.832 19.8098C88.832 19.6357 88.832 19.4543 88.9407 19.2076L91.4124 11.5097H87.9767L85.7225 18.3442C85.5413 18.99 85.4398 19.4906 85.4398 19.9549C85.4398 20.6732 85.6862 21.1738 86.1864 21.4931C86.6889 21.7785 87.392 21.9212 88.2956 21.9212H91.195C91.8038 21.9212 92.304 21.8921 92.8041 21.747ZM52.7499 18.1338C52.8876 17.6622 53.3225 17.4155 53.8589 17.4155H55.6057C55.9682 17.4155 56.0696 17.4881 56.1421 17.5969C56.2146 17.6622 56.2146 17.7711 56.1059 18.0613L54.8592 21.9212L58.3601 21.9212L60.5419 15.1228C60.7955 14.5134 60.868 13.9475 60.868 13.5121C60.868 12.7648 60.5781 12.2642 60.1142 11.974C59.6141 11.6548 58.8965 11.5097 58.0049 11.5097H55.0694C54.533 11.5097 53.9604 11.5459 53.4965 11.691C52.9601 11.8361 52.4962 12.0103 52.1048 12.3005C51.7062 12.5835 51.351 12.939 51.0321 13.4396C50.7784 13.8024 50.5682 14.2304 50.3507 14.731L48.024 21.9212H51.5322L52.7499 18.1338ZM55.3593 12.8737C55.5405 12.8737 55.8232 12.8374 56.1131 12.8374C56.3958 12.8374 56.6857 12.8737 56.8597 12.8737C57.0772 12.9099 57.2874 13.0188 57.3598 13.2002C57.3961 13.3453 57.4686 13.4831 57.4686 13.6282C57.4686 13.8096 57.3961 13.9837 57.3598 14.274L57.0047 15.4203C56.8597 15.8847 56.751 16.0588 56.2871 16.0951H54.0039C53.7864 16.0588 53.6415 16.0225 53.6415 15.9572C53.569 15.8847 53.5327 15.7396 53.6415 15.4566L53.9314 14.5569C53.9676 14.3465 54.0329 14.1289 54.1416 13.9475C54.2866 13.6282 54.4315 13.3743 54.6417 13.2002C54.8954 13.0188 55.1419 12.9099 55.3593 12.8737ZM73.886 11.5169L70.4141 11.5169L68.3048 18.1048C68.1961 18.3152 67.9134 18.3515 67.8771 18.1048L67.0943 11.5169H63.5861L60.2229 21.9284H63.6586L65.8404 15.3478C65.8766 15.1664 66.1593 15.1664 66.1955 15.3478L67.0581 21.9284H70.5228L73.886 11.5169ZM72.4218 21.9357H75.8575L77.1405 18.0685C77.2492 17.6405 77.6769 17.4591 78.2132 17.4228H79.9673C80.3587 17.4228 80.4312 17.4954 80.5037 17.6042C80.5399 17.6405 80.5762 17.7493 80.5399 17.9234L79.2135 21.9357H82.7217L86.0849 11.5169L82.5767 11.5169L81.33 15.384C81.185 15.8484 81.1126 16.066 80.6124 16.1023H78.4307C78.1045 16.1023 78.003 15.9935 77.9668 15.9209C77.9306 15.8484 77.8581 15.7396 77.9668 15.4566L79.2135 11.5169H75.785L72.4218 21.9357ZM101.43 18.1774C101.531 17.713 101.966 17.4301 102.539 17.4301H104.249C104.648 17.4301 104.786 17.5026 104.822 17.6042C104.858 17.713 104.858 17.7856 104.786 18.0758L103.575 21.9357H107.004L109.222 15.1374C109.439 14.5279 109.548 13.9547 109.548 13.5267C109.548 12.7793 109.258 12.2787 108.794 11.9885C108.294 11.6693 107.576 11.5242 106.685 11.5242L103.749 11.5242C103.176 11.5242 102.64 11.5604 102.14 11.7055C101.64 11.8434 101.176 12.0611 100.821 12.3077C100.386 12.598 99.9944 12.9898 99.748 13.4541C99.4943 13.8169 99.2478 14.2449 99.0666 14.7456L96.7399 21.9357L100.212 21.9357L101.43 18.1774ZM105.648 15.3913C105.503 15.8556 105.431 16.0298 104.967 16.066H102.684C102.43 16.0298 102.357 15.9935 102.285 15.9282C102.249 15.8556 102.212 15.7105 102.285 15.4276L102.575 14.5279C102.684 14.3175 102.713 14.1361 102.821 13.9184C102.966 13.5992 103.147 13.3815 103.321 13.1711C103.575 12.9898 103.785 12.9172 104.039 12.8446C104.22 12.8446 104.503 12.8084 104.793 12.8084C105.039 12.8084 105.329 12.8446 105.503 12.8446C105.757 12.9172 105.938 12.9898 106.04 13.1711C106.076 13.309 106.112 13.4541 106.112 13.5992C106.112 13.7806 106.076 13.991 106.04 14.2449L105.648 15.3913ZM3.1787 14.0636C3.1787 13.3308 2.57709 12.7431 1.83776 12.7431C1.09844 12.7431 0.496826 13.3308 0.496826 14.0636C0.496826 14.7963 1.09844 15.3913 1.83776 15.3913C2.57709 15.3913 3.1787 14.7963 3.1787 14.0636ZM20.5964 18.7505C20.7776 18.3588 20.9951 17.8219 21.2777 17.285C20.9588 16.9657 20.7414 16.4651 20.7414 15.9645C20.7414 14.9269 21.5677 14.1361 22.5679 14.1361H22.7781C22.9593 13.708 23.2058 13.3162 23.387 12.9172C23.8871 12.0248 24.7134 11.4879 24.7134 11.4879H22.0678C20.8501 11.4879 19.5599 12.2787 18.7771 13.9547C18.4871 14.6005 17.4869 16.8569 16.9505 17.9307C14.95 22.117 12.3333 23.9454 8.54245 23.9454C7.22326 23.9454 6.00554 23.6915 4.93279 23.1546C7.39722 25.5561 10.0501 25.694 11.5867 25.5851C15.914 25.3022 19.1322 21.5801 20.5964 18.7505ZM23.8871 15.9645C23.8871 15.2099 23.2928 14.6005 22.5462 14.6005C21.8069 14.6005 21.2053 15.2099 21.2053 15.9645C21.2053 16.7118 21.8069 17.3212 22.5462 17.3212C23.2928 17.3212 23.8871 16.7118 23.8871 15.9645ZM15.914 17.3575C16.4141 16.2837 16.8418 15.4638 17.1317 14.673C18.1682 12.2424 18.8423 11.8071 19.2772 11.4879L15.4501 11.4879C13.7322 11.4879 12.587 12.7431 12.0506 14.0636C11.7655 14.7069 11.4321 15.3985 11.0504 16.1386C9.04259 20.042 4.04125 19.1133 2.89602 15.638C2.60609 15.8194 2.25092 15.9645 1.85951 15.9645C1.56958 15.9645 1.28689 15.8556 1.10568 15.7831C1.21441 16.5739 1.38837 17.3575 1.64206 18.0758C2.43213 20.0783 4.25145 22.9369 8.54245 22.9369C10.9054 22.9369 13.6598 22.0445 15.914 17.3575ZM2.93226 12.5617C3.32367 11.4879 4.14273 10.4866 5.46917 9.94974C7.65091 9.02105 10.5502 9.26773 13.5873 9.6305C15.914 9.87719 18.0595 9.55795 20.0238 7.87469C22.9593 5.40786 24.1408 0.503204 24.1408 0.503204C24.1408 0.503204 23.1043 1.61328 20.4877 2.00507C19.241 2.18646 17.5594 2.07763 16.0227 1.89624C12.5145 1.46817 9.6152 2.00507 7.18702 3.43439C2.71481 6.11889 1.42461 10.0223 1.10568 12.3803C1.35938 12.2787 1.56958 12.2424 1.85951 12.2424C2.25092 12.2424 2.60609 12.3803 2.93226 12.5617Z" fill="white"/>
</svg>
