<svg width="34" height="103" viewBox="0 0 34 103" fill="none" xmlns="http://www.w3.org/2000/svg">
<path d="M0.000183105 -1.44471e-06L2.67946 -1.32759e-06L2.67946 0.891165C2.67946 11.679 11.617 20.3092 11.617 29.643L11.617 30.5342L0.000181771 30.5342L0.000183105 -1.44471e-06ZM8.02468 -1.09395e-06L8.02468 0.891165C8.02468 11.679 16.9556 20.3092 16.9556 29.643L16.9556 30.5342L16.0692 30.5342L16.0692 29.643C16.0692 21.5287 3.56589 14.2587 3.56589 0.891165L3.56589 -1.28885e-06L8.02468 -1.09395e-06ZM13.3899 -8.59425e-07L13.3899 0.891166C13.3899 11.679 22.3208 20.3092 22.3208 29.643L22.3208 30.5342L21.4344 30.5342L21.4344 29.643C21.4344 21.5287 8.93111 14.2587 8.93111 0.891165L8.93111 -1.05433e-06L13.3899 -8.59425e-07ZM18.7551 -6.24904e-07L18.7551 0.891166C18.7551 11.679 27.6927 20.3092 27.6927 29.643L27.6927 30.5342L26.8063 30.5342L26.8063 29.643C26.8063 21.5287 14.303 14.2587 14.303 0.891166L14.303 -8.19513e-07L18.7551 -6.24904e-07ZM33.0513 30.5342L32.1448 30.5342L32.1448 29.643C32.1448 21.5287 19.6416 14.2587 19.6416 0.891166L19.6416 -5.86157e-07L33.0513 0L33.0513 30.5342Z" fill="white"/>
<path fill-rule="evenodd" clip-rule="evenodd" d="M11.6103 38.8561L11.617 40.3369L6.87827 41.9049L11.617 43.5733L11.617 44.6052L6.87827 46.2736L11.617 47.8415L11.617 49.3223L4.05903 46.8096L4.05903 45.7778L8.83774 44.0892L4.05903 42.4007L4.05903 41.3688L11.6103 38.8561ZM7.45812 56.2372L7.45812 52.4381L4.05237 52.438L4.05237 50.984L11.6103 50.984L11.6103 52.4381L8.73777 52.4381L8.73777 56.2372L11.6103 56.2372L11.6103 57.6912L4.05237 57.6912L4.05237 56.2372L7.45812 56.2372ZM7.83135 64.2108C6.35841 64.2108 5.23871 65.3365 5.23871 66.7905C5.23871 67.4941 5.47198 68.0569 5.82522 68.479L7.45812 68.479L7.45812 66.5292L8.76443 66.5292L8.76443 69.9532L5.37868 69.9532C4.51891 69.2764 3.9324 68.1507 3.9324 66.7637C3.9324 64.3984 5.6586 62.73 7.83135 62.73C9.99743 62.73 11.7236 64.3716 11.7236 66.7436C11.7236 67.8693 11.3037 68.8275 10.6506 69.5109L9.65086 68.5729C10.0907 68.1239 10.4173 67.4673 10.4173 66.7168C10.4173 65.3097 9.25097 64.2108 7.83135 64.2108ZM7.3848 73.6384L4.05237 73.6384L4.05237 72.1844L11.6103 72.1844L11.6103 74.9517C11.6103 75.7223 11.3971 76.2382 11.0505 76.6135C10.6506 77.0356 10.1174 77.2969 9.51089 77.2969C8.90439 77.2969 8.34454 77.0356 7.97131 76.6135C7.78469 76.4057 7.61807 76.1712 7.52476 75.863L4.05237 78.704L4.05237 76.8949L7.3848 74.2013L7.3848 73.6384ZM8.69112 74.8579C8.69112 75.2801 8.78442 75.4677 8.92439 75.5816C9.06435 75.7223 9.27762 75.796 9.51089 75.796C9.74416 75.796 9.95078 75.7022 10.0907 75.5816C10.2307 75.4409 10.324 75.2801 10.324 74.8579L10.324 73.6384L8.71777 73.6384L8.71777 74.8579L8.69112 74.8579ZM11.697 83.1598C11.697 85.505 9.97077 87.1198 7.80469 87.1198C5.65193 87.1198 3.90574 85.505 3.90574 83.1598C3.90574 80.8147 5.63194 79.1931 7.80469 79.1931C9.97077 79.1931 11.697 80.8147 11.697 83.1598ZM7.82468 85.6457C9.25763 85.6457 10.4173 84.5334 10.4173 83.1598C10.4173 81.7795 9.25763 80.674 7.82468 80.674C6.39174 80.674 5.23871 81.7795 5.23871 83.1598C5.23871 84.5334 6.39174 85.6457 7.82468 85.6457ZM4.72552 89.7464C5.28537 89.1166 6.07849 88.7615 7.24484 88.7615L11.6037 88.7615L11.6037 90.2155L7.12487 90.2155C6.42506 90.2155 6.00517 90.4031 5.72525 90.7113C5.42533 91.0396 5.23871 91.4819 5.23871 91.9978C5.23871 92.5137 5.39867 92.9627 5.72525 93.291C6.03183 93.5925 6.45172 93.7801 7.12487 93.7801L11.6037 93.7801L11.6037 95.2341L7.24484 95.2341C6.07849 95.2341 5.28537 94.8857 4.72552 94.2492C4.21232 93.6662 3.95239 92.822 3.95239 91.9777C3.9324 91.1803 4.18566 90.3361 4.72552 89.7464ZM7.12487 99.0333L4.0457 99.0333L4.0457 97.5592L11.6037 97.5592L11.6037 100.42C11.6037 101.405 11.3704 101.968 10.9305 102.39C10.5306 102.766 9.95078 103 9.36427 103C8.78442 103 8.19791 102.786 7.80469 102.39C7.3848 101.968 7.12487 101.379 7.12487 100.42L7.12487 99.0333ZM8.40452 100.347C8.40452 100.836 8.52449 101.097 8.71111 101.258C8.87107 101.425 9.10434 101.519 9.33761 101.519C9.59754 101.519 9.80415 101.425 9.99076 101.258C10.1774 101.097 10.2973 100.836 10.2973 100.347L10.2973 99.0333L8.40452 99.0333L8.40452 100.347Z" fill="white"/>
<path fill-rule="evenodd" clip-rule="evenodd" d="M24.7936 74.9988L24.7936 78.8717L20.8746 78.8717L20.8746 74.9988L24.7936 74.9988ZM21.9277 76.2451L21.9277 77.6522L23.7472 77.6522L23.7472 76.2451L21.9277 76.2451ZM19.5217 79.2L18.402 74.5298L19.9416 74.5298L20.4547 79.6691L19.5217 79.2ZM25.4001 79.4547L25.4001 74.5298L26.5664 74.5298L26.5664 79.4547L27.4995 79.4547L27.4995 80.8417L26.5664 80.8417L26.5664 81.6122L27.3595 81.0963L27.3595 82.5302L26.5664 82.8116L26.5664 83.2337L25.4001 83.2337L25.4001 80.8417L23.7005 80.8417C23.4206 80.8417 23.114 80.8618 22.7874 80.8886C22.7874 80.8886 22.6275 80.9087 22.3942 80.9355L22.8341 81.1432L24.1871 81.7797L24.1871 83.3744L20.668 81.4045C20.3614 81.5452 19.9682 81.7328 19.8016 81.9204L20.9946 82.5034L20.9946 83.609L17.7955 82.6173L17.7955 81.4983L17.8155 81.4246C18.262 81.0762 18.7285 80.7948 19.1484 80.5602L18.0287 79.9237L18.0287 78.9186L20.3348 79.9706C20.5214 79.9036 20.6414 79.8567 20.6414 79.8567C21.4078 79.5954 22.7141 79.4547 23.6939 79.4547L25.4001 79.4547Z" fill="white"/>
<path fill-rule="evenodd" clip-rule="evenodd" d="M29.1323 85.5988L15.576 85.5988L15.576 83.984L16.1625 83.984L16.1625 73.8261L15.576 73.8261L15.576 72.2112L29.1323 72.2112L29.1323 85.5988ZM17.4688 73.8261L17.4688 83.9773L27.7994 83.9773L27.7994 73.8261L17.4688 73.8261Z" fill="white"/>
<path fill-rule="evenodd" clip-rule="evenodd" d="M25.6798 57.4098L28.7589 55.4868L28.7589 57.3629L25.6798 58.6762L25.6798 57.4098ZM25.0932 57.3629L22.0141 58.6762L22.0141 57.4098L25.0999 55.4868L25.0932 57.3629ZM29.1255 69.0687L15.5225 69.0687L15.5225 67.4003L22.5939 67.4003L22.5939 66.7235L24.3868 65.7117L15.6625 65.7117L15.6625 64.05L22.5939 64.05L22.5939 63.3197L24.3668 62.3079L18.0218 62.3079C16.8088 62.3079 16.109 62.1471 15.4292 61.2559L15.4092 61.209L16.7155 59.8689L16.7622 59.9426C17.2087 60.5054 17.5086 60.6462 18.3284 60.6462L24.3668 60.6462L22.5939 59.6344L22.5939 58.6293L25.5065 59.5674L25.5065 60.6462L29.1255 60.6462L29.1255 62.3079L25.5065 62.3079L25.5065 63.3867L23.4337 64.0433L28.9855 64.0433L28.9855 65.7117L25.5065 65.7117L25.5065 66.7905L23.5737 67.4003L29.1255 67.4003L29.1255 69.0687ZM20.8011 57.316L20.8011 58.6561L15.969 57.2959L15.969 55.4198L20.8011 57.316ZM21.1076 92.9828C19.9413 92.9828 18.6083 92.6544 17.7219 92.0447L17.6752 91.9978L18.6816 90.5438L18.7283 90.5907C19.3548 91.1066 20.3345 91.3679 21.1543 91.3679C21.9674 91.3679 22.9738 91.1066 23.6003 90.5706L23.627 90.5438L24.5334 90.5438L27.5659 91.6025L27.5659 90.2423L15.5491 90.2423L15.5558 88.6207L28.9922 88.6207L28.9922 93.1503L27.5659 93.1503L24.4667 92.0447C23.5803 92.6544 22.2473 92.9828 21.1076 92.9828ZM21.5942 102.437L20.1746 102.437L20.1746 98.6849L17.9352 98.6849C16.7222 98.6849 16.0423 98.5174 15.3892 97.653L15.3692 97.6061L16.5089 96.266L16.5555 96.3129C16.9754 96.8557 17.422 97.0433 18.2151 97.0433L20.1746 97.0433L20.1746 93.291L21.5942 93.291L21.5942 102.437ZM19.3548 94.5775L19.3548 95.5893L16.4422 94.6512L16.4422 92.9158L19.3548 94.5775ZM16.4356 102.484L16.4356 100.769L19.3548 99.8307L19.3548 100.842L16.4356 102.484ZM25.2532 92.5606C26.4862 93.4786 27.7259 94.0615 29.0788 94.3899L29.1255 94.4167L29.1255 95.8238C28.8656 95.797 28.7056 95.7769 28.7056 95.7769L28.7056 97.8607C26.3929 97.6999 24.76 97.0634 23.667 96.3866L23.667 99.4353C24.8333 98.705 26.5795 98.0282 29.1255 97.9076L29.1255 99.2678C29.1255 99.2678 28.9589 99.2946 28.6789 99.3147L28.6789 102.176L27.7259 102.176L24.5534 100.655C23.8269 101.077 23.1738 101.64 22.6406 102.39L21.7075 101.218C21.7075 101.218 22.0807 100.608 22.9871 99.9044L22.2207 99.9044L22.2207 95.9645L22.9871 95.9645C22.0807 95.2609 21.7075 94.6244 21.7075 94.6244L22.6406 93.4987C23.0138 94.0414 23.4803 94.4837 23.9669 94.8589L24.76 93.9677C24.5534 93.8538 24.4801 93.8069 24.2935 93.6662L24.2468 93.6193L25.2065 92.5405L25.2532 92.5606ZM27.166 95.2542L26.3929 96.1186C26.7928 96.266 27.166 96.3531 27.5126 96.4268L27.5126 95.3748C27.3993 95.3279 27.2793 95.281 27.166 95.2542ZM27.5126 99.5225C27.046 99.6163 26.5129 99.757 25.973 99.9714L27.5126 100.722L27.5126 99.5225ZM25.6264 94.477L24.8067 95.3882C25.0199 95.5089 25.2065 95.6228 25.4132 95.7233L26.2329 94.8053C26.0197 94.7115 25.813 94.5909 25.6264 94.477ZM26.9994 42.93L26.9994 39.3654L28.2124 39.3654L28.2124 42.93L29.1255 42.93L29.1255 44.5717L28.2124 44.5717L28.2124 47.1044L29.1255 47.1044L29.1255 48.7662L28.2124 48.7662L28.2124 52.3107L26.9994 52.3107L26.9994 48.7662L26.3262 48.7662L26.3262 47.1044L26.9994 47.1044L26.9994 44.5717L26.3262 44.5717L26.3262 42.93L26.9994 42.93ZM14.916 51.2319L14.8893 51.185L15.989 50.0795L16.0357 50.1532C16.5022 50.7629 17.1554 50.716 17.9685 50.716L18.9749 50.716L18.9749 46.6555L17.8552 46.6555L17.8552 48.0626L18.5084 47.808L18.5084 49.3759L15.9157 49.8717L15.9157 48.8131L16.6422 48.5316L16.6422 41.8714L17.8285 41.8714L17.8285 45.0139L18.9482 45.0139L18.9482 41.007L15.3292 41.007L15.3292 39.3386L20.2545 39.3386L20.2545 44.9938L20.7477 44.9938L20.7477 40.8395L26.0663 40.8395L26.0663 50.8768L20.7211 50.8768L20.7211 46.6555L20.2346 46.6555L20.2346 52.3107L17.9018 52.3107C16.3156 52.3308 15.6158 52.1432 14.916 51.2319ZM21.8874 42.4141L21.8874 44.9938L22.8205 44.9938L22.8205 42.4141L21.8874 42.4141ZM21.8874 46.6555L21.8874 49.3089L22.8205 49.3089L22.8205 46.6555L21.8874 46.6555ZM23.9669 46.6555L23.9669 49.3089L24.9 49.3089L24.9 46.6555L23.9669 46.6555ZM23.9869 42.4141L23.9869 44.9938L24.92 44.9938L24.92 42.4141L23.9869 42.4141Z" fill="white"/>
</svg>
