<svg width="104" height="35" viewBox="0 0 104 35" fill="none" xmlns="http://www.w3.org/2000/svg">
<path d="M0.0258789 34.0256L0.0258789 31.3463H0.917045C11.7048 31.3463 20.3351 22.4087 29.6689 22.4087H30.5601V34.0256L0.0258789 34.0256ZM0.0258789 26.0011H0.917045C11.7048 26.0011 20.3351 17.0701 29.6689 17.0701H30.5601V17.9566H29.6689C21.5546 17.9566 14.2845 30.4599 0.917045 30.4599H0.0258789L0.0258789 26.0011ZM0.0258789 20.6359H0.917045C11.7048 20.6359 20.3351 11.7049 29.6689 11.7049H30.5601L30.5601 12.5914H29.6689C21.5546 12.5914 14.2845 25.0946 0.917045 25.0946H0.0258789L0.0258789 20.6359ZM0.0258789 15.2706H0.917045C11.7048 15.2706 20.3351 6.33304 29.6689 6.33304L30.5601 6.33304V7.21947L29.6689 7.21947C21.5546 7.21947 14.2845 19.7228 0.917045 19.7228H0.0258789L0.0258789 15.2706ZM30.5601 0.974487V1.88091H29.6689C21.5546 1.88091 14.2845 14.3842 0.917045 14.3842H0.0258789L0.0258789 0.974487L30.5601 0.974487Z" fill="white"/>
<path fill-rule="evenodd" clip-rule="evenodd" d="M38.8818 22.4153L40.3626 22.4086L41.9306 27.1474L43.599 22.4086H44.6309L46.2993 27.1474L47.8672 22.4086H49.348L46.8353 29.9666H45.8035L44.1149 25.1879L42.4264 29.9666H41.3945L38.8818 22.4153ZM56.2629 26.5675L52.4637 26.5675V29.9733H51.0097V22.4153H52.4637V25.2879H56.2629V22.4153H57.7169V29.9733H56.2629V26.5675ZM64.2365 26.1943C64.2365 27.6672 65.3622 28.7869 66.8162 28.7869C67.5198 28.7869 68.0826 28.5536 68.5047 28.2004V26.5675H66.5549V25.2612H69.9789V28.647C69.3021 29.5067 68.1764 30.0932 66.7894 30.0932C64.4241 30.0932 62.7557 28.367 62.7557 26.1943C62.7557 24.0282 64.3973 22.302 66.7693 22.302C67.895 22.302 68.8532 22.7219 69.5366 23.375L68.5986 24.3748C68.1496 23.9349 67.493 23.6083 66.7425 23.6083C65.3354 23.6083 64.2365 24.7747 64.2365 26.1943ZM73.6641 26.6408V29.9733H72.2101V22.4153H74.9774C75.748 22.4153 76.2639 22.6286 76.6392 22.9752C77.0613 23.375 77.3226 23.9082 77.3226 24.5147C77.3226 25.1212 77.0613 25.6811 76.6392 26.0543C76.4314 26.2409 76.1969 26.4076 75.8887 26.5009L78.7297 29.9733H76.9206L74.227 26.6408H73.6641ZM74.8836 25.3345C75.3057 25.3345 75.4934 25.2412 75.6073 25.1012C75.748 24.9613 75.8217 24.748 75.8217 24.5147C75.8217 24.2815 75.7279 24.0749 75.6073 23.9349C75.4666 23.7949 75.3057 23.7016 74.8836 23.7016H73.6641V25.3079H74.8836V25.3345ZM83.1855 22.3287C85.5307 22.3287 87.1455 24.0549 87.1455 26.2209C87.1455 28.3737 85.5307 30.1199 83.1855 30.1199C80.8404 30.1199 79.2188 28.3937 79.2188 26.2209C79.2188 24.0549 80.8404 22.3287 83.1855 22.3287ZM85.6714 26.201C85.6714 24.768 84.5591 23.6083 83.1855 23.6083C81.8052 23.6083 80.6997 24.768 80.6997 26.201C80.6997 27.6339 81.8052 28.7869 83.1855 28.7869C84.5591 28.7869 85.6714 27.6339 85.6714 26.201ZM89.7721 29.3001C89.1423 28.7403 88.7872 27.9471 88.7872 26.7808V22.422H90.2412V26.9008C90.2412 27.6006 90.4288 28.0205 90.737 28.3004C91.0653 28.6003 91.5076 28.7869 92.0235 28.7869C92.5394 28.7869 92.9884 28.627 93.3167 28.3004C93.6182 27.9938 93.8058 27.5739 93.8058 26.9008V22.422L95.2598 22.422V26.7808C95.2598 27.9471 94.9114 28.7403 94.2749 29.3001C93.6919 29.8133 92.8477 30.0732 92.0034 30.0732C91.206 30.0932 90.3618 29.84 89.7721 29.3001ZM99.059 26.9008V29.9799H97.5849V22.422H100.446C101.431 22.422 101.994 22.6552 102.416 23.0951C102.791 23.495 103.026 24.0749 103.026 24.6614C103.026 25.2412 102.811 25.8277 102.416 26.2209C101.994 26.6408 101.404 26.9008 100.446 26.9008H99.059ZM100.372 25.6211C100.861 25.6211 101.123 25.5011 101.284 25.3145C101.451 25.1546 101.545 24.9213 101.545 24.688C101.545 24.4281 101.451 24.2215 101.284 24.0349C101.123 23.8483 100.861 23.7283 100.372 23.7283H99.059V25.6211H100.372Z" fill="white"/>
<path fill-rule="evenodd" clip-rule="evenodd" d="M75.0247 9.2323H78.8976V13.1512H75.0247V9.2323ZM76.271 12.0982H77.6781V10.2787H76.271V12.0982ZM79.2259 14.5042L74.5557 15.6239V14.0843L79.6949 13.5711L79.2259 14.5042ZM79.4805 8.6258H74.5557V7.45945L79.4805 7.45945V6.52637H80.8675V7.45945H81.6381L81.1222 6.66633H82.5561L82.8375 7.45945H83.2596V8.6258L80.8675 8.6258V10.3253C80.8675 10.6053 80.8876 10.9119 80.9144 11.2384C80.9144 11.2384 80.9345 11.3984 80.9613 11.6317L81.1691 11.1918L81.8056 9.83881H83.4003L81.4304 13.3579C81.5711 13.6644 81.7587 14.0577 81.9463 14.2243L82.5293 13.0313L83.6348 13.0313L82.6432 16.2304H81.5242L81.4505 16.2104C81.102 15.7639 80.8206 15.2973 80.5861 14.8774L79.9496 15.9971H78.9445L79.9965 13.6911C79.9295 13.5045 79.8826 13.3845 79.8826 13.3845C79.6212 12.6181 79.4805 11.3117 79.4805 10.332V8.6258Z" fill="white"/>
<path fill-rule="evenodd" clip-rule="evenodd" d="M85.6249 4.89331V18.4497H84.0101V17.8631H73.8521V18.4497H72.2373V4.89331L85.6249 4.89331ZM73.8521 16.5568H84.0034V6.22628L73.8521 6.22628V16.5568Z" fill="white"/>
<path fill-rule="evenodd" clip-rule="evenodd" d="M57.4355 8.34588L55.5125 5.26671H57.3886L58.7019 8.34588H57.4355ZM57.3886 8.93239L58.7019 12.0116H57.4355L55.5125 8.92573L57.3886 8.93239ZM69.0944 4.90015V18.5031H67.426V11.4317H66.7492L65.7374 9.63887V18.3632H64.0757V11.4317H63.3453L62.3336 9.65886V16.0038C62.3336 17.2168 62.1728 17.9166 61.2816 18.5965L61.2347 18.6164L59.8946 17.3101L59.9683 17.2635C60.5311 16.8169 60.6718 16.517 60.6718 15.6972V9.65886L59.6601 11.4317H58.655L59.5931 8.51917H60.6718V4.90015H62.3336V8.51917H63.4124L64.069 10.5919V5.04011L65.7374 5.04011V8.51917H66.8162L67.426 10.452V4.90015H69.0944ZM57.3417 13.2246H58.6818L57.3216 18.0566L55.4455 18.0566L57.3417 13.2246ZM93.0085 12.918C93.0085 14.0843 92.6801 15.4173 92.0704 16.3037L92.0235 16.3504L90.5695 15.344L90.6164 15.2973C91.1323 14.6708 91.3936 13.6911 91.3936 12.8713C91.3936 12.0582 91.1323 11.0518 90.5963 10.4253L90.5695 10.3987V9.49224L91.6282 6.45973L90.268 6.45973V18.4765L88.6464 18.4698V5.03344L93.176 5.03344V6.45973L92.0704 9.55889C92.6801 10.4453 93.0085 11.7783 93.0085 12.918ZM102.463 12.4314V13.8511L98.7106 13.8511V16.0905C98.7106 17.3035 98.5431 17.9833 97.6787 18.6364L97.6318 18.6564L96.2917 17.5167L96.3386 17.4701C96.8814 17.0502 97.069 16.6037 97.069 15.8105V13.8511H93.3167V12.4314L102.463 12.4314ZM94.6032 14.6708H95.615L94.6769 17.5834H92.9415L94.6032 14.6708ZM102.51 17.5901H100.794L99.8564 14.6708L100.868 14.6708L102.51 17.5901ZM92.5863 8.77244C93.5043 7.53943 94.0872 6.29977 94.4156 4.9468L94.4424 4.90015H95.8495C95.8227 5.16008 95.8026 5.32003 95.8026 5.32003L97.8864 5.32003C97.7256 7.63274 97.0891 9.26564 96.4123 10.3587L99.461 10.3587C98.7307 9.19232 98.0539 7.44613 97.9333 4.90015H99.2935C99.2935 4.90015 99.3203 5.06677 99.3404 5.34669H102.202V6.29977L100.681 9.47225C101.103 10.1987 101.666 10.8519 102.416 11.3851L101.243 12.3181C101.243 12.3181 100.634 11.9449 99.9301 11.0385V11.805L95.9902 11.805V11.0385C95.2866 11.9449 94.6501 12.3181 94.6501 12.3181L93.5244 11.3851C94.0671 11.0118 94.5094 10.5453 94.8846 10.0588L93.9934 9.26564C93.8795 9.47225 93.8326 9.54556 93.6919 9.73218L93.645 9.77883L92.5662 8.81909L92.5863 8.77244ZM95.2799 6.85962L96.1443 7.63274C96.2917 7.23285 96.3788 6.85962 96.4525 6.51304H95.4005C95.3536 6.62635 95.3067 6.74632 95.2799 6.85962ZM99.5482 6.51304C99.642 6.97959 99.7827 7.51278 99.9971 8.05263L100.748 6.51304H99.5482ZM94.5027 8.3992L95.4139 9.21898C95.5346 9.00571 95.6485 8.81909 95.749 8.61248L94.831 7.7927C94.7372 8.00598 94.6166 8.21259 94.5027 8.3992ZM42.9557 7.02624H39.3911V5.81323L42.9557 5.81323V4.90015H44.5974V5.81323H47.1301V4.90015L48.7919 4.90015V5.81323H52.3364V7.02624H48.7919V7.69939H47.1301V7.02624L44.5974 7.02624V7.69939L42.9557 7.69939V7.02624ZM51.2576 19.1096L51.2107 19.1363L50.1052 18.0366L50.1789 17.9899C50.7886 17.5234 50.7417 16.8703 50.7417 16.0571V15.0507H46.6812V16.1704H48.0883L47.8337 15.5173H49.4016L49.8974 18.1099H48.8388L48.5573 17.3834H41.8971V16.1971H45.0396V15.0774L41.0327 15.0774V18.6964H39.3643V13.7711L45.0195 13.7711V13.2779L40.8652 13.2779V7.95932L50.9025 7.95932V13.3045H46.6812V13.7911H52.3364V16.1238C52.3565 17.71 52.1689 18.4098 51.2576 19.1096ZM42.4398 12.1382H45.0195V11.2051H42.4398V12.1382ZM46.6812 12.1382L49.3346 12.1382V11.2051L46.6812 11.2051V12.1382ZM46.6812 10.0588L49.3346 10.0588V9.12567L46.6812 9.12567V10.0588ZM42.4398 10.0388H45.0195V9.10568H42.4398V10.0388Z" fill="white"/>
</svg>
