<svg width="110" height="28" viewBox="0 0 110 28" fill="none" xmlns="http://www.w3.org/2000/svg">
<path fill-rule="evenodd" clip-rule="evenodd" d="M1.8879 0.793823L17.4161 0.905235C17.4161 0.905235 23.8809 1.39963 23.8461 8.20969C23.8043 15.0128 20.1678 16.0782 15.5978 16.7675C10.6029 17.0321 9.24446 16.4611 6.03293 17.4151C2.9259 18.5919 0 20.4511 0 20.4511V15.2843C0 15.2843 6.38822 12.3876 11.9962 12.6174C17.7435 13.5296 19.9658 10.3822 18.7606 7.19305C16.8379 3.3563 11.9265 5.70292 11.5643 8.59963C11.3762 9.75553 11.5991 11.2874 11.5991 11.2874C11.5991 11.2874 9.29322 11.3571 8.42938 11.4685C7.56555 11.5729 5.67068 11.9072 5.49652 12.0882C5.42685 10.0341 5.49652 5.16675 5.49652 5.16675H1.95757L1.8879 0.793823Z" fill="white"/>
<path fill-rule="evenodd" clip-rule="evenodd" d="M2.18045 20.3396C2.18045 20.3396 6.03289 17.6031 13.9886 17.9094C21.5959 18.2855 24.3964 14.6785 24.8283 10.3265C24.8283 10.3265 24.7308 10.0549 24.8005 7.65953C24.8353 7.42974 26.0544 12.311 26.6605 12.8472C26.3749 15.3957 24.062 18.6058 20.3768 19.6572C16.8239 20.5485 14.3996 20.3605 11.5642 20.2352C11.6339 20.465 11.5642 26.0077 11.5642 26.0077H5.42681V21.3702C5.42681 21.3702 2.38945 22.547 2.18045 22.9996C1.9645 23.4591 2.18045 20.3396 2.18045 20.3396Z" fill="white"/>
<path fill-rule="evenodd" clip-rule="evenodd" d="M58.992 25.4159V18.383H62.1687V26.5161H58.992L56.3656 26.5091C56.0103 25.5203 55.6899 24.3157 55.3903 22.8952C55.2997 23.5219 55.1883 24.1903 55.049 24.8936L54.7424 26.5091H51.6215L52.7988 20.9872L51.6354 16.6004H54.7285C54.7842 16.872 54.8957 17.3246 55.0629 17.9652C55.1883 18.448 55.2974 18.8959 55.3903 19.3091L56.073 16.6004H58.7481L57.6265 20.9872L58.992 25.4159ZM44.0281 16.5934L42.5999 26.5091H38.6082C38.2529 24.9841 37.9324 23.2503 37.6468 21.3006C37.5121 22.1408 37.2103 23.877 36.7412 26.5091H32.7773L31.3352 16.5934H34.4492L34.7906 20.0472L35.118 23.4035C35.2364 21.6696 35.536 19.3996 35.9958 16.5934H39.3188C39.3559 16.8812 39.472 17.9722 39.6671 19.8662L40.0293 23.6402C40.2035 21.2379 40.503 18.8843 40.9141 16.5934H44.0281ZM51.3289 18.4387V26.5718H48.201L48.2497 25.8963C48.0338 26.1749 47.776 26.3768 47.4625 26.5161C47.156 26.6553 46.7937 26.718 46.3897 26.718C45.9229 26.718 45.5467 26.6553 45.2402 26.523C44.9337 26.3907 44.7177 26.2236 44.5714 26.0077C44.4228 25.7896 44.3323 25.5621 44.2998 25.3253C44.2649 25.0886 44.244 24.6221 44.244 23.9257V18.4387H47.3232V23.9814C47.3232 24.6151 47.3511 24.9911 47.3928 25.1095C47.4439 25.2255 47.574 25.2859 47.783 25.2905C48.0059 25.2905 48.1452 25.2209 48.187 25.1025C48.2288 24.9772 48.2497 24.5826 48.2497 23.9188V18.4387H51.3289ZM58.992 16.5934H62.1687V17.8886H58.992V16.5934ZM58.992 25.4089V26.5021H59.3333L58.992 25.4089ZM71.3922 16.5934L73.2383 26.5021H69.9641L69.7969 24.7195H68.6265L68.4454 26.5021H65.1364L66.7665 16.5934H71.3922ZM69.6994 22.9648C69.5391 21.8368 69.3719 20.4511 69.2117 18.7938C68.8982 20.6948 68.6962 22.0874 68.6126 22.9648H69.6994ZM76.8678 18.578L76.8191 19.2952C77.0907 19.0097 77.3903 18.7938 77.7177 18.6545C78.0452 18.5083 78.4074 18.4387 78.7975 18.4387C79.2643 18.4387 79.6823 18.5362 80.0306 18.7451C80.3719 18.954 80.5879 19.1907 80.6715 19.4623C80.7597 19.7315 80.8039 20.1888 80.8039 20.834V24.26C80.8039 24.9981 80.7504 25.5226 80.6436 25.8337C80.5322 26.147 80.3092 26.3977 79.9749 26.5857C79.6335 26.7667 79.2294 26.8642 78.7557 26.8642C78.3795 26.8642 78.0312 26.7876 77.7038 26.6484C77.3787 26.5045 77.0838 26.2909 76.8191 26.0077V27.8739H73.7329V18.578H76.8678ZM77.7247 20.9455C77.7247 20.4441 77.7038 20.1377 77.662 20.0333C77.6132 19.9219 77.4878 19.8731 77.2858 19.8731C77.0908 19.8731 76.9584 19.9358 76.9027 20.0542C76.8469 20.1795 76.8191 20.472 76.8191 20.9455V24.3226C76.8191 24.817 76.8469 25.1164 76.9096 25.2418C76.9654 25.3671 77.0977 25.4298 77.2928 25.4298C77.4878 25.4298 77.6063 25.3741 77.655 25.2627C77.7015 25.1466 77.7247 24.8727 77.7247 24.441V20.9455ZM84.2453 18.578L84.1895 19.2952C84.4682 19.0097 84.7678 18.7869 85.0952 18.6476C85.4226 18.5083 85.7779 18.4317 86.168 18.4317C86.6487 18.4317 87.0527 18.5362 87.4011 18.7451C87.7494 18.9493 87.9654 19.1861 88.0489 19.4553C88.1325 19.7269 88.1813 20.1865 88.1813 20.8271V24.253C88.1813 24.9911 88.1256 25.518 88.0141 25.8337C87.9073 26.1447 87.6844 26.393 87.3453 26.5787C87.011 26.7667 86.6069 26.8573 86.1332 26.8573C85.7523 26.8573 85.4017 26.7853 85.0812 26.6414C84.7538 26.5021 84.4543 26.2863 84.1895 26.0077V27.8669H81.1104V18.578H84.2453ZM85.0952 20.9455C85.0952 20.4371 85.0812 20.1377 85.0394 20.0333C84.9907 19.9219 84.8653 19.8731 84.6633 19.8731C84.4636 19.8731 84.3358 19.9335 84.2801 20.0542C84.2244 20.1795 84.1965 20.472 84.1965 20.9455V24.3157C84.1965 24.8101 84.2244 25.1164 84.2871 25.2418C84.3428 25.3602 84.4752 25.4228 84.6702 25.4228C84.8653 25.4228 84.9837 25.3671 85.0325 25.2557C85.0812 25.1443 85.0952 24.8727 85.0952 24.434V20.9455ZM95.4821 16.5934V18.578H93.5873V26.5021H90.3827V18.578H88.4878V16.5934H95.4821ZM102.288 22.7977H98.3314V24.5594C98.3314 24.9284 98.3662 25.1652 98.4289 25.2696C98.4986 25.3741 98.617 25.4298 98.8051 25.4298C99.035 25.4298 99.1883 25.3602 99.2649 25.2139C99.3346 25.0747 99.3764 24.8031 99.3764 24.3923V23.3199H102.288V23.9188C102.288 24.4201 102.254 24.8101 102.17 25.0816C102.093 25.3462 101.912 25.6387 101.627 25.9451C101.334 26.2468 100.967 26.4766 100.526 26.6344C100.08 26.7876 99.5227 26.8642 98.8539 26.8642C98.2083 26.8642 97.6371 26.7876 97.1401 26.6344C96.6455 26.4882 96.2624 26.2793 95.9837 26.0147C95.7051 25.7501 95.517 25.4576 95.4125 25.1443C95.3056 24.8286 95.2522 24.3691 95.2522 23.7656V21.3911C95.2522 20.6809 95.3707 20.1238 95.6075 19.713C95.8444 19.3021 96.2345 18.9888 96.7779 18.766C97.3213 18.5501 97.9413 18.4387 98.6449 18.4387C99.5041 18.4387 100.215 18.571 100.777 18.8356C101.334 19.1002 101.731 19.4484 101.954 19.8801C102.177 20.3164 102.288 20.9292 102.288 21.7184V22.7977ZM99.2092 21.4747V20.8758C99.2092 20.4511 99.1813 20.1795 99.1256 20.0542C99.0768 19.9358 98.9584 19.8731 98.7912 19.8731C98.5822 19.8731 98.4568 19.9219 98.4011 20.0333C98.3593 20.1377 98.3314 20.4163 98.3314 20.8758V21.4747H99.2092ZM109.513 21.6557H106.614V20.7157C106.614 20.3884 106.58 20.1656 106.517 20.0472C106.454 19.9288 106.329 19.8731 106.155 19.8731C105.974 19.8731 105.855 19.9219 105.799 20.0263C105.739 20.1284 105.709 20.3582 105.709 20.7157V24.5594C105.709 24.8449 105.751 25.0677 105.841 25.207C105.932 25.3532 106.064 25.4298 106.238 25.4298C106.447 25.4298 106.587 25.3532 106.656 25.2C106.731 25.0468 106.768 24.759 106.768 24.3366V23.3756H109.513C109.506 24.0232 109.478 24.5106 109.422 24.831C109.366 25.1582 109.199 25.4925 108.913 25.8337C108.628 26.1679 108.252 26.4255 107.792 26.5996C107.325 26.7737 106.761 26.8642 106.078 26.8642C105.214 26.8642 104.525 26.7389 104.023 26.5021C103.507 26.2654 103.152 25.9311 102.943 25.4994C102.734 25.0677 102.623 24.4549 102.623 23.6611V21.3493C102.623 20.6623 102.711 20.1424 102.887 19.7896C103.055 19.4414 103.424 19.128 103.988 18.8495C104.552 18.578 105.235 18.4387 106.043 18.4387C106.842 18.4387 107.527 18.5756 108.098 18.8495C108.663 19.1211 109.039 19.4692 109.227 19.8801C109.417 20.2979 109.513 20.8898 109.513 21.6557ZM38.5385 6.81006C38.7754 6.76132 38.9913 6.74043 39.1934 6.74043C39.6671 6.74739 40.0851 6.87969 40.4613 7.15126C40.8328 7.4205 41.0162 7.73849 41.0116 8.10522C41.0116 8.21664 40.9977 8.33501 40.9698 8.45339C40.8374 9.01741 40.7747 9.5118 40.7678 9.95049C40.7538 10.8905 40.6006 11.6495 40.308 12.2066C40.0154 12.7706 39.6392 13.1605 39.1934 13.3694C38.7429 13.583 38.4317 13.6874 38.2599 13.6828C38.0927 13.6828 37.9696 13.5923 37.8906 13.4112C37.8117 13.2209 37.6933 13.0213 37.5353 12.8124C37.3751 12.6035 37.187 12.3946 36.9641 12.1857C36.7412 11.9768 36.5252 11.6983 36.3162 11.3571C36.1072 11.0135 35.9888 10.7304 35.9609 10.5075C36.4068 11.0925 36.8805 11.5103 37.3891 11.7679C37.8906 12.0255 38.2668 12.1509 38.5106 12.1578C38.7522 12.1578 38.9449 12.072 39.0889 11.9002C39.2282 11.7331 39.3606 11.3919 39.4929 10.8766C39.6137 10.3613 39.6764 9.79497 39.681 9.17756C39.688 8.55784 39.6183 8.17486 39.4929 8.03559C39.3582 7.89168 39.2189 7.81973 39.0749 7.81973C38.9844 7.81973 38.8032 7.87544 38.5176 7.99381C38.2343 8.10987 37.8256 8.29323 37.2915 8.54391C37.1104 8.6205 36.978 8.65532 36.8666 8.65532C36.769 8.65532 36.6994 8.5648 36.6576 8.38375C36.6111 8.20271 36.5879 8.04023 36.5879 7.89633C36.5926 7.60387 36.6994 7.42979 36.9084 7.37408C37.1174 7.31141 37.2637 7.17911 37.3473 6.95629C37.4309 6.73811 37.4727 6.55242 37.4727 6.39923C37.4727 6.23907 37.4239 6.08588 37.3194 5.93269C37.2219 5.78414 37.129 5.70987 37.0407 5.70987C36.3766 6.21122 35.7519 6.69865 35.1668 7.17215C35.399 7.25107 35.5151 7.41818 35.5151 7.6735C35.5151 7.83366 35.4594 8.00774 35.3479 8.18182C35.0135 8.70406 34.7627 9.12186 34.5816 9.4352C34.7674 9.50484 34.9183 9.63714 35.0344 9.83211C35.4942 9.16364 35.9888 8.09826 36.5252 6.63598C36.567 6.5176 36.6018 6.4619 36.6436 6.4619C36.6854 6.4619 36.6994 6.51064 36.6994 6.5942C36.6994 6.85184 36.5392 7.4089 36.2257 8.26538C35.9122 9.12186 35.529 9.99923 35.0971 10.8975C34.6698 11.7888 34.3726 12.3412 34.2054 12.5547C34.0452 12.7706 33.9058 12.8751 33.7944 12.8751C33.6829 12.8751 33.59 12.7729 33.5157 12.5687C33.4391 12.3598 33.3973 12.1718 33.3973 11.9977C33.3973 11.7261 33.467 11.5172 33.6063 11.3849C33.9546 11.0437 34.1218 10.6747 34.1218 10.2638C34.1218 10.1803 34.0939 10.1455 34.0243 10.1455C33.9546 10.1455 33.813 10.2313 33.5993 10.4031C33.3834 10.5772 33.2371 10.6677 33.1604 10.6677C33.035 10.6677 32.9723 10.4751 32.9723 10.0898C32.9723 9.70445 33.0908 9.46538 33.3276 9.37254C33.5575 9.28201 33.7665 9.08008 33.9407 8.7737C34.1218 8.46035 34.2124 8.27234 34.2124 8.20967C34.2124 8.14932 34.1961 8.11915 34.1636 8.11915C34.08 8.11915 33.8362 8.25842 33.4321 8.53695C33.1813 8.71103 32.9723 8.79459 32.8121 8.79459C32.6519 8.79459 32.5753 8.63443 32.5753 8.30716C32.5753 7.97989 32.6519 7.69439 32.8121 7.45764C32.97 7.22089 33.1581 7.09555 33.3764 7.08163C33.5993 7.0677 33.8222 6.96325 34.0521 6.77524C34.4283 6.48279 35.0274 6.0325 35.8495 5.42437C36.6785 4.81857 37.2358 4.42166 37.5284 4.23366C37.3147 4.23366 37.064 4.294 36.776 4.4147C36.4904 4.53308 35.8982 4.88124 34.9926 5.4383C34.087 6.00929 33.5575 6.35745 33.4112 6.49671C33.258 6.63598 33.0304 6.70561 32.7285 6.70561C32.429 6.70561 32.1015 6.58027 31.7462 6.33656C31.391 6.09284 31.2168 5.90484 31.2168 5.7795C31.2168 5.72843 31.2447 5.67969 31.3004 5.63327C31.3631 5.58453 31.9413 5.33385 33.049 4.87428C34.1427 4.42166 35.0274 4.08743 35.6753 3.88549C35.9609 3.80193 36.2257 3.66267 36.4625 3.47466C36.6994 3.28665 37.0338 2.95938 37.4587 2.49284C37.8837 2.01934 38.1275 1.71992 38.1972 1.58762C38.2599 1.45532 38.2877 1.31605 38.2947 1.1559C38.2947 0.898259 38.1972 0.717215 38.016 0.633656C37.9394 0.591876 37.8976 0.55706 37.8976 0.529207C37.8976 0.496712 37.944 0.482785 38.0369 0.487428C38.3992 0.487428 38.7196 0.633656 38.9704 0.926112C39.2282 1.21857 39.3536 1.53192 39.3536 1.86615C39.3489 2.11683 39.2653 2.3118 39.1028 2.45106C38.7614 2.72959 38.4967 2.98723 38.3086 3.23095C38.8056 3.10561 39.1725 3.04526 39.4093 3.0499C39.6508 3.0499 39.8529 3.16132 40.0154 3.38414C40.1826 3.61161 40.2662 3.80193 40.2662 3.95513C40.2592 4.11528 40.1687 4.21277 39.9666 4.24758C39.3536 4.37292 38.6221 4.68627 37.7722 5.20155C38.3017 5.52186 38.5733 5.94662 38.5664 6.47582C38.5664 6.58027 38.5594 6.69168 38.5385 6.81006ZM37.7234 0.612766C37.7234 0.696325 37.6886 0.779884 37.6189 0.87737C36.8735 1.88704 36.4695 2.59033 36.4068 2.9942C36.3441 3.39807 36.1908 3.6 35.9749 3.6C35.7473 3.6 35.5197 3.41431 35.2922 3.04294C35.0692 2.67157 34.9578 2.33501 34.9578 2.03327C34.9578 1.93578 34.9787 1.80348 35.0274 1.64333C35.0692 1.48549 35.1134 1.40658 35.1598 1.40658C35.2016 1.40658 35.2504 1.44139 35.2922 1.51103C35.3409 1.58762 35.4385 1.62244 35.5708 1.6294C35.7101 1.6294 36.0097 1.50406 36.4625 1.26035C36.9153 1.00967 37.2776 0.779884 37.5493 0.570987C37.5911 0.543134 37.6259 0.529207 37.6677 0.529207C37.7025 0.529207 37.7234 0.55706 37.7234 0.612766ZM36.8317 8.98956C37.2149 8.99652 37.5423 9.1149 37.807 9.35861C38.0787 9.60929 38.2181 9.89478 38.2111 10.2221C38.2111 10.3822 38.1554 10.5006 38.0439 10.5911C37.9324 10.6747 37.7792 10.7234 37.598 10.7164C37.4169 10.7164 37.2567 10.6538 37.1243 10.5215C36.992 10.3892 36.776 10.2708 36.4765 10.1733C36.372 10.1455 36.2535 10.041 36.1351 9.86693C36.0143 9.69053 35.954 9.5443 35.954 9.42824C35.954 9.30755 36.0399 9.20542 36.2117 9.12186C36.3859 9.03134 36.5879 8.98956 36.8317 8.98956ZM59.8697 2.40232C60.2181 2.11683 60.5315 1.92882 60.8102 1.81741C61.3814 1.60155 61.7158 1.42747 61.8064 1.31605C61.9039 1.19768 62.0154 1.14197 62.1547 1.14197C62.4334 1.14197 62.7469 1.29516 63.0952 1.60155C63.4365 1.90097 63.6037 2.20735 63.6037 2.5207C63.6037 2.63675 63.5805 2.74352 63.5341 2.84101C63.3437 3.19845 63.195 3.78105 63.0882 4.58878C62.9814 5.38724 62.928 6.21818 62.928 7.08163C62.9141 7.94507 62.9489 8.75281 63.0116 9.5118C63.0766 10.2731 63.1091 10.8023 63.1091 11.0994C63.1045 11.3965 63.0487 11.7911 62.9419 12.2832C62.8305 12.7845 62.6842 13.0282 62.4961 13.0282C62.4055 13.0282 62.3149 12.9656 62.2035 12.8333C62.092 12.701 61.7576 12.3667 61.2073 11.8375C60.4967 11.1551 59.9255 10.3961 59.4935 9.56751C59.1313 10.3752 58.7899 11.0437 58.4695 11.5729C58.149 12.1021 57.8843 12.3598 57.6614 12.3598C57.4454 12.3598 57.3339 12.2832 57.3339 12.123C57.3339 12.0325 57.3827 11.9698 57.4872 11.9489C57.6405 11.9118 57.8495 11.5335 58.1142 10.8139C58.3859 10.0967 58.6227 9.20542 58.8317 8.13308C58.7435 7.8499 58.6994 7.6619 58.6994 7.56905C58.6994 7.47621 58.7087 7.42979 58.7272 7.42979C58.769 7.42979 58.8248 7.52727 58.9084 7.70832C58.978 7.55513 59.0268 7.27196 59.0547 6.8588C59.0872 6.44565 59.0941 6.14623 59.0756 5.96054C58.9084 6.0441 58.7946 6.26693 58.7342 6.62901C58.7133 6.7265 58.6854 6.77524 58.6436 6.77524C58.5949 6.77524 58.574 6.65687 58.574 6.42708C58.5786 6.19961 58.6227 5.9884 58.7063 5.79342C58.7899 5.6031 58.9246 5.37563 59.1104 5.11103C59.1592 4.74894 59.2706 4.16402 59.4517 3.34932C59.475 3.26112 59.4866 3.15899 59.4866 3.04294C59.4866 2.92457 59.4239 2.7853 59.3054 2.63211C59.1847 2.47428 59.0941 2.39536 59.0338 2.39536C59.0059 2.39536 58.9873 2.4 58.978 2.40928C58.9502 2.43017 58.8596 2.56944 58.7133 2.83404C58.4277 3.37718 58.2535 3.76016 58.1908 3.99691C58.0979 4.36828 58.0143 4.76286 57.94 5.18066C57.8704 5.59845 57.8146 5.99536 57.7728 6.37834C57.7032 7.2 57.5917 7.8058 57.4315 8.17486C57.2852 8.55087 57.1668 8.87118 57.0901 9.14275C57.0065 9.42128 56.902 9.55358 56.7836 9.55358C56.6512 9.55358 56.498 9.4561 56.3308 9.27505C56.1497 9.08704 56.0173 8.87814 55.9128 8.64139C55.7688 8.89671 55.6597 9.06615 55.5854 9.14971C55.5064 9.23791 55.4205 9.2913 55.3276 9.30987C55.2301 9.33076 55.1326 9.3795 55.0211 9.46306C54.9096 9.54662 54.826 9.5884 54.7773 9.58143C54.7285 9.58143 54.6519 9.50484 54.5613 9.34468C54.4638 9.18453 54.3105 8.98956 54.1085 8.7737C53.9065 8.55087 53.788 8.34894 53.7532 8.15397C53.7253 7.96828 53.7114 7.68975 53.7114 7.31838C53.716 6.32495 53.7486 5.51722 53.8089 4.89516C53.8182 4.78839 53.8229 4.67234 53.8229 4.547C53.8229 4.42863 53.8159 4.34507 53.788 4.31025C53.658 4.16635 53.593 3.98994 53.593 3.78105C53.593 3.70445 53.6487 3.66267 53.7602 3.66963C54.141 3.66963 54.4545 3.79497 54.7006 4.04565C54.9584 4.29633 55.1117 4.6236 55.1813 5.03443C55.3578 4.94623 55.5529 4.90213 55.7665 4.90213C55.9825 4.90213 56.1706 4.97176 56.3308 5.11103C56.498 5.24565 56.5816 5.42669 56.5816 5.65416C56.5769 5.87698 56.4887 6.16248 56.3169 6.51064C56.1357 6.86344 55.9105 7.16751 55.6411 7.42283C55.3764 7.68047 55.1604 7.94507 54.9863 8.21664C55.0977 8.24449 55.3415 8.09826 55.7177 7.77795C56.1079 7.45764 56.3238 7.24874 56.3795 7.15126C56.4422 7.04681 56.5189 6.60116 56.6234 5.80735C56.7209 5.01354 56.7766 4.46344 56.7766 4.1501C56.7836 3.83675 56.7557 3.61393 56.7139 3.47466C56.6582 3.32843 56.6094 3.2588 56.5398 3.2588C56.4771 3.2588 56.3795 3.30754 56.2542 3.40503C56.1984 3.44217 56.1055 3.46074 55.9755 3.46074L55.4669 3.39807C55.244 3.39807 55.0048 3.4793 54.7494 3.64178C54.6937 3.68356 54.6449 3.70445 54.6101 3.70445C54.5776 3.69981 54.5613 3.66499 54.5613 3.6C54.5613 3.53037 54.5892 3.41199 54.6519 3.24487C54.7076 3.0824 54.7726 2.95242 54.8469 2.85493C54.9212 2.75745 55.0582 2.64371 55.258 2.51373C55.46 2.38143 55.6132 2.30484 55.7177 2.27002C55.8153 2.2352 55.9337 2.21431 56.073 2.22128C56.4283 2.22128 56.8115 2.33965 57.2016 2.56944C57.5963 2.79691 57.9145 3.12186 58.156 3.54429C58.3162 3.32147 58.5043 2.94546 58.6994 2.40928C58.776 2.17253 58.9084 2.05416 59.0965 2.06112C59.1452 2.06112 59.1801 2.06809 59.2149 2.08898C59.4726 2.25609 59.6886 2.36054 59.8697 2.40232ZM59.6468 9.10097C59.9347 8.94778 60.1855 8.68085 60.3992 8.30019C60.6082 7.92418 60.715 7.69439 60.7196 7.61083C60.7196 7.52727 60.7057 7.48085 60.6778 7.47157C60.5106 7.38337 60.3736 7.22321 60.2668 6.9911C60.1623 6.76828 60.1066 6.55938 60.1066 6.37834C60.1066 6.19729 60.1972 6.02321 60.3643 5.86306C60.4061 5.81431 60.4897 5.6472 60.6082 5.36867C60.7266 5.09014 60.7893 4.90909 60.7963 4.83946C60.7963 4.76286 60.7684 4.72805 60.7336 4.72805C60.643 4.72805 60.4201 4.86035 60.0718 5.13192C59.9951 5.54971 59.9464 5.89091 59.9255 6.15551C59.9115 6.41315 59.9046 6.81702 59.8976 7.36712C59.8976 7.91025 59.814 8.4882 59.6468 9.10097ZM54.833 7.99381C54.9793 7.56905 55.2301 7.03985 55.5923 6.40619C55.6272 6.35048 55.6411 6.30174 55.6411 6.25996C55.6411 6.22283 55.5645 6.20426 55.4112 6.20426C55.2533 6.20426 55.0977 6.19265 54.9445 6.16944C54.8051 6.61509 54.7285 6.99807 54.7285 7.31141C54.7285 7.63172 54.7564 7.86151 54.833 7.99381ZM61.9945 11.1691C62.0711 10.3056 62.1129 9.44217 62.1129 8.57176V7.45068C62.1269 5.90948 62.1663 4.72108 62.2313 3.88549C62.301 3.0499 62.3358 2.60658 62.3358 2.55551C62.3358 2.34662 62.2801 2.2352 62.1617 2.2352C62.1199 2.2352 62.0781 2.24913 62.0293 2.27698C61.5417 2.56944 61.1585 2.71567 60.8868 2.7087C60.7127 2.7087 60.4619 2.67389 60.1345 2.60426C60.362 2.83172 60.4758 2.9942 60.4758 3.09168C60.4758 3.18221 60.4479 3.27969 60.3852 3.37021C60.3295 3.4677 60.2715 3.69981 60.2111 4.06654C60.4131 3.89942 60.6569 3.82282 60.9286 3.82282C61.2003 3.82282 61.4372 3.91335 61.6462 4.10135C61.8552 4.28936 61.9597 4.49826 61.9597 4.74197C61.9597 4.97872 61.897 5.18762 61.7785 5.37563C61.3745 5.97447 61.1794 6.33656 61.1724 6.44797C61.1724 6.5176 61.2142 6.57331 61.2909 6.61509C61.4952 6.72186 61.6694 6.90058 61.8134 7.15126C61.9573 7.39729 62.0293 7.62476 62.0293 7.83366C62.0293 8.04255 61.9945 8.20271 61.9179 8.30716C61.8435 8.41393 61.6067 8.59033 61.2073 8.83637C60.8102 9.08704 60.3783 9.3029 59.9185 9.49787C60.7545 10.5841 61.4372 11.1412 61.9945 11.1691ZM82.8799 9.6441C83.4441 9.30987 83.7925 9.08704 83.9318 8.98259C84.0642 8.87118 84.1547 8.76673 84.1895 8.65532C84.2244 8.54391 84.3149 8.45339 84.4612 8.38375C84.6052 8.31876 84.7469 8.28627 84.8862 8.28627C85.0185 8.28627 85.1788 8.34894 85.346 8.47428C85.5271 8.60658 85.6107 8.8294 85.6107 9.14971C85.6107 9.35165 85.541 9.48395 85.4017 9.53965C85.2693 9.5884 85.0952 9.74159 84.8792 9.99923C84.6702 10.2545 84.5657 10.4565 84.5657 10.605C84.5657 10.7536 84.7376 10.858 85.0812 10.9184C85.4226 10.988 85.7082 11.1551 85.9312 11.4337C86.1541 11.6983 86.2655 11.9977 86.2655 12.325C86.2655 12.6453 86.1959 12.8054 86.0705 12.8054C86.0426 12.8054 86.0031 12.7892 85.9521 12.7567C85.7918 12.6592 85.555 12.5617 85.2554 12.4642C84.9559 12.3667 84.6911 12.2971 84.4543 12.2553C83.8691 12.1439 83.5835 12.0255 83.5835 11.9002C83.5788 11.812 83.6508 11.7818 83.7994 11.8097C83.8552 11.8236 83.9248 11.8306 84.0154 11.8306C84.092 11.8306 84.2104 11.8097 84.3567 11.7749C83.883 11.3222 83.6462 10.9253 83.6462 10.5841C83.6462 10.2429 83.7785 9.88085 84.0433 9.49091C83.681 9.66499 83.2909 9.91567 82.859 10.2429C82.9008 11.0368 82.9286 11.7122 82.9217 12.2762C82.9217 12.8402 82.8799 13.2998 82.8032 13.648C82.7266 13.9961 82.643 14.1702 82.5385 14.1702C82.441 14.1702 82.3016 14.0658 82.1414 13.8499C81.6538 13.2139 81.129 12.6615 80.567 12.1927C80.0933 12.8681 79.7589 13.2093 79.5847 13.2023C79.4872 13.207 79.3781 13.0631 79.2573 12.7706C79.1412 12.4874 79.0831 12.188 79.0831 11.8723C79.0831 11.566 79.2155 11.364 79.4802 11.2665C79.745 11.1691 79.8773 10.995 79.8773 10.7443C79.8773 10.5633 79.7868 10.4797 79.5987 10.4727C79.5638 10.4727 79.522 10.4797 79.4802 10.4867C79.4384 10.5006 79.3618 10.5006 79.2712 10.5006C79.1807 10.5006 79.0762 10.4658 78.9647 10.3822C78.8533 10.3056 78.7975 10.1872 78.7975 10.034C78.7975 9.87621 78.8695 9.73695 79.0135 9.61625C79.1528 9.49787 79.3479 9.43521 79.5917 9.44217C79.9447 9.44217 80.2256 9.58376 80.4346 9.86693C80.6483 10.1501 80.7342 10.5168 80.6924 10.9671C81.2126 10.6375 81.6468 10.3752 81.9951 10.1803C82.0021 9.47002 81.9951 8.97563 81.9882 8.69014C81.4657 8.98956 81.0686 9.14275 80.7969 9.13579C80.5322 9.13579 80.2883 9.08704 80.0654 8.99652C79.8495 8.89904 79.738 8.78762 79.745 8.66228C79.7403 8.52766 79.8959 8.41393 80.2117 8.32108C80.985 8.0913 81.5702 7.88936 81.9812 7.72921C81.9998 7.54352 81.9951 7.36248 81.9673 7.18607C81.5702 7.41586 81.3054 7.53424 81.1731 7.53424C81.0407 7.53424 80.8805 7.48549 80.7063 7.39497C80.5252 7.29749 80.4137 7.22785 80.3789 7.17911C80.3418 7.13269 80.3232 7.07002 80.3232 6.9911C80.3232 6.91451 80.351 6.83791 80.3928 6.75435C80.4439 6.68008 80.5089 6.62669 80.5879 6.5942C81.1243 6.37834 81.5771 6.12766 81.9464 5.84217C81.9673 5.70987 81.9673 5.56364 81.9464 5.42437C81.6886 5.62631 81.3542 5.81431 80.9711 5.99536C80.5809 6.16944 80.2465 6.25996 79.9749 6.25996C79.7008 6.25996 79.4268 6.49671 79.1528 6.97021C79.104 7.05377 79.0692 7.10252 79.0483 7.10252C79.0297 7.10252 79.0205 7.09091 79.0205 7.0677C79.0205 6.98414 79.1319 6.76132 79.3618 6.40619C79.5847 6.05106 79.9191 5.68898 80.3719 5.31992C80.8224 4.94855 81.3403 4.65145 81.9255 4.42863C82.0299 4.25455 82.0857 4.11528 82.0926 3.99691C82.088 3.88549 82.0346 3.82979 81.9324 3.82979C81.8813 3.82979 81.8349 3.83907 81.7931 3.85764C81.7466 3.87621 81.7002 3.88549 81.6538 3.88549C81.605 3.88549 81.5423 3.82282 81.4796 3.69749L80.9502 3.92727C80.783 3.99691 80.6018 4.1501 80.4137 4.39381C80.2256 4.63056 80.0236 4.92302 79.8146 5.27118C79.6126 5.61238 79.4106 5.99536 79.2085 6.40619C78.9996 6.81934 78.7441 7.453 78.4422 8.30716C78.1287 9.16364 77.7456 10.1037 77.3067 11.1203C76.8609 12.1439 76.5752 12.7636 76.4498 12.9865C76.3198 13.2093 76.2339 13.3207 76.1921 13.3207C76.1503 13.3207 76.0922 13.2371 76.0179 13.07C75.9413 12.9029 75.9134 12.7358 75.9134 12.5756C75.9134 12.4085 75.9622 12.2484 76.0597 12.0952C76.4707 11.4058 76.8748 10.5354 77.2858 9.48395C78.2147 7.02824 78.8997 5.36867 79.3409 4.50522C79.0762 4.58182 78.8393 4.61663 78.6234 4.61663C78.2402 4.61663 77.9616 4.49826 77.7665 4.27544C77.5714 4.05261 77.4739 3.77408 77.4739 3.43985C77.4809 3.32147 77.5087 3.22399 77.5505 3.13346C77.5993 3.0499 77.6829 2.96634 77.7944 2.88975C77.9058 2.81315 78.3586 2.58337 79.1319 2.20735L81.0407 1.30213C81.18 1.2325 81.2567 1.13501 81.2567 1.01663C81.2567 0.895938 81.2172 0.79149 81.1382 0.703288C80.9919 0.522244 80.9084 0.341199 80.9084 0.160155C80.9084 0.055706 80.978 0 81.1104 0C81.2427 0 81.5144 0.0487427 81.9255 0.146228C82.3388 0.248356 82.6244 0.40619 82.7823 0.619729C82.9449 0.833269 83.0772 1.14197 83.1794 1.54584C83.2398 1.52727 83.328 1.51799 83.4441 1.51799C83.5602 1.51799 83.7344 1.55745 83.9666 1.63636C84.1895 1.71296 84.3428 1.84526 84.4194 2.03327C84.4961 2.21431 84.5379 2.36054 84.5379 2.45803C84.5379 2.55551 84.4752 2.60426 84.3358 2.61818C84.2058 2.62747 83.9666 2.68781 83.6183 2.79923C83.2746 2.91528 82.9658 3.03598 82.6918 3.16132C82.9333 3.39807 83.0772 3.65106 83.1237 3.92031C83.6601 3.70445 84.0572 3.59304 84.3219 3.59304C84.5866 3.6 84.8374 3.68356 85.0812 3.87157C85.3251 4.05261 85.5132 4.2058 85.6386 4.34507C85.7733 4.48433 85.8406 4.67466 85.8406 4.91605C85.8336 5.33385 85.757 5.56364 85.6107 5.59845C85.5062 5.62631 85.3808 5.77253 85.2484 6.02321C85.1091 6.27389 84.8305 6.87969 84.4055 7.84758C84.3637 7.94507 84.2383 8.03559 84.0293 8.13308C83.8203 8.23056 83.6601 8.27931 83.5556 8.27931C83.4488 8.27931 83.3791 8.27234 83.3466 8.25842C83.3118 8.25145 83.256 8.24449 83.1794 8.24449C83.1097 8.24449 83.0308 8.26538 82.9426 8.30716C82.9008 8.71103 82.8799 9.16364 82.8799 9.6441ZM80.9084 11.8723C81.3681 12.0673 81.6468 12.1648 81.7652 12.1648C81.8767 12.1694 81.9417 12.1369 81.9603 12.0673C81.9812 11.9977 81.9812 11.6077 81.9673 10.8836C81.5562 11.2526 81.2009 11.5799 80.9084 11.8723ZM78.6861 3.40503C79.0483 3.40503 79.3711 3.33772 79.6544 3.2031C80.3092 2.88279 81.2009 2.51373 82.3295 2.09594C82.4479 2.0472 82.5037 1.99149 82.5037 1.93578C82.5083 1.87544 82.369 1.84526 82.0857 1.84526C81.8001 1.84526 81.2776 1.90793 80.5182 2.02631C79.7473 2.147 79.1389 2.30716 78.693 2.50677C78.2472 2.70174 78.0243 2.89903 78.0243 3.09865C78.0173 3.30058 78.2402 3.39807 78.6861 3.40503ZM83.7089 6.96325C83.9364 6.49903 84.1129 6.06963 84.2383 5.67505C84.3683 5.28047 84.4334 5.0205 84.4334 4.89516C84.4334 4.76983 84.3985 4.65841 84.3219 4.57486C84.2522 4.48665 84.1686 4.44255 84.0711 4.44255C83.8064 4.43791 83.4952 4.55164 83.1376 4.78375C83.1097 5.00658 83.1028 5.19458 83.1028 5.34081C83.1655 5.31992 83.2142 5.31296 83.263 5.31296C83.4302 5.31296 83.5742 5.41277 83.6949 5.61238C83.8134 5.81431 83.8761 5.96054 83.8761 6.05803C83.8691 6.253 83.6183 6.44101 83.1097 6.62901C83.1585 6.92843 83.2351 7.08163 83.3327 7.08163C83.4348 7.08163 83.5602 7.04217 83.7089 6.96325ZM106.001 9.91567C106.399 9.84604 106.74 9.74855 107.039 9.62321C107.346 9.49323 107.536 9.37486 107.611 9.26809C107.722 9.11025 107.92 9.03366 108.203 9.0383C108.621 9.0383 108.962 9.22631 109.227 9.59536C109.492 9.96673 109.624 10.2638 109.624 10.4867C109.624 10.5772 109.492 10.6747 109.234 10.7861C108.976 10.8975 108.746 10.9532 108.551 10.9532C108.196 10.9462 107.813 10.7373 107.402 10.3195C107.824 10.1756 108.022 10.0155 107.994 9.83907C107.652 10.0619 107.36 10.2012 107.123 10.2708C106.891 10.3358 106.7 10.4286 106.552 10.5493C107.019 10.9114 107.395 11.2665 107.687 11.6147C107.855 11.8236 108.019 11.9745 108.182 12.0673C108.349 12.1578 108.454 12.2553 108.502 12.3598C108.551 12.4642 108.579 12.6035 108.572 12.7776C108.572 12.8658 108.53 12.9354 108.447 12.9865C108.363 13.0422 108.196 13.0909 107.931 13.1397C107.666 13.1884 107.388 13.2093 107.102 13.2023C106.803 13.2023 106.419 13.1745 105.96 13.1048C105.493 13.0422 105.04 12.9029 104.601 12.701C104.162 12.4921 103.87 12.311 103.709 12.1648C103.549 12.0186 103.41 11.7957 103.291 11.4963C103.18 11.2039 103.103 10.8418 103.069 10.431C103.041 10.1455 102.964 9.9853 102.839 9.95745C102.734 10.1803 102.658 10.4031 102.602 10.6259C102.539 10.8487 102.511 10.995 102.525 11.0507C102.539 11.1064 102.539 11.183 102.539 11.2735C102.539 11.4058 102.504 11.6913 102.435 12.123C102.37 12.5547 102.24 12.7706 102.045 12.7706C101.947 12.7706 101.836 12.6104 101.71 12.3041C101.592 11.9907 101.529 11.7749 101.529 11.6565C101.529 11.4244 101.736 10.8604 102.149 9.96441C101.996 9.95745 101.794 9.88782 101.543 9.75552C101.299 9.63018 101.174 9.49787 101.174 9.36557C101.174 9.19845 101.227 9.1149 101.334 9.1149C101.445 9.11954 101.578 9.159 101.731 9.23327C102.804 8.85029 103.918 8.49517 105.075 8.16093C105.535 8.02631 105.853 7.88704 106.029 7.74313C106.057 7.65261 106.029 7.57602 105.932 7.52031C105.528 7.49246 105.026 7.56905 104.427 7.76402C103.823 7.96364 103.398 8.17021 103.152 8.38375C103.103 8.41857 103.048 8.43946 103.006 8.43946C102.829 8.43946 102.662 8.21896 102.504 7.77795C102.344 7.33927 102.288 7.01199 102.323 6.79613C102.337 6.71954 102.344 6.64294 102.344 6.55938C102.344 6.47582 102.307 6.38066 102.233 6.27389C102.163 6.16712 102.007 5.99072 101.766 5.74468C101.705 5.9118 101.592 6.04874 101.424 6.15551C101.125 6.33656 100.742 6.74739 100.282 7.38801C100.484 7.65261 100.582 7.83366 100.582 7.92418C100.582 8.0147 100.568 8.11219 100.54 8.20271C100.4 8.64836 100.331 8.99652 100.324 9.26809C100.324 9.53269 100.328 9.73927 100.338 9.88782C100.484 9.54662 100.665 9.01741 100.86 8.30716C100.777 9.06847 100.691 9.93888 100.602 10.9184C100.519 11.8932 100.477 12.4781 100.477 12.6592L100.484 13.07C100.484 13.2279 100.449 13.3068 100.38 13.3068C100.275 13.2998 100.101 13.1188 99.8501 12.7497C99.6063 12.3876 99.4809 12.0116 99.4878 11.6356C99.4878 11.5381 99.4948 11.4406 99.5157 11.3571C99.6341 10.8418 99.6968 9.75551 99.6968 8.09826C99.5018 8.33501 99.1674 8.68317 98.6728 9.14971C98.1781 9.60929 97.8647 9.84604 97.7253 9.83907C97.6696 9.83907 97.6208 9.7764 97.579 9.65107C97.5419 9.52573 97.5233 9.40039 97.5233 9.27505C97.5233 9.14275 97.579 8.95474 97.6766 8.71103C97.7834 8.46499 97.9204 8.2677 98.0876 8.11915C98.0829 8.2677 98.0876 8.37911 98.1015 8.45339C98.5566 8.0913 98.8632 7.68975 99.0211 7.24874C99.0164 7.19304 98.9932 7.16518 98.9514 7.16518C98.8748 7.15822 98.7355 7.28356 98.5265 7.52727C98.6519 7.03288 98.9445 6.76132 99.4391 6.7265C99.662 6.39691 99.8965 6.02785 100.143 5.61934C100.386 5.20851 100.519 4.97872 100.533 4.92302C100.551 4.86267 100.561 4.8 100.561 4.73501C100.561 4.66538 100.53 4.61431 100.47 4.58182C100.001 4.73965 99.669 4.95319 99.4739 5.22244C99.4321 5.27814 99.3903 5.31296 99.3415 5.31296C99.244 5.31296 99.1674 5.19458 99.1047 4.9648C99.0396 4.73733 99.0095 4.49362 99.0141 4.23366C99.0141 3.9737 99.0907 3.84604 99.244 3.85068C99.3415 3.85068 99.5923 3.66267 99.9824 3.27969C100.38 2.90368 100.602 2.63211 100.644 2.45106C100.665 2.36054 100.721 2.3118 100.818 2.3118C100.911 2.3118 101.088 2.4325 101.348 2.67389C101.603 2.91064 101.787 3.14275 101.898 3.37021C102.01 3.6 102.065 3.78105 102.065 3.89942C102.065 4.0178 101.982 4.12224 101.829 4.2058C101.675 4.28936 101.422 4.35899 101.069 4.4147C101.418 4.63056 101.64 5.00658 101.738 5.55667C102.051 4.91605 102.4 4.31025 102.797 3.73927C102.797 3.6 102.841 3.49787 102.929 3.43288C103.017 3.36325 103.182 3.31915 103.424 3.30058C103.967 3.2588 104.295 3.16828 104.434 3.02901C104.552 2.61122 104.615 2.31876 104.615 2.14468C104.615 1.97756 104.571 1.8824 104.483 1.85919C104.399 1.8383 104.309 1.77563 104.225 1.65725C104.137 1.53656 104.093 1.41586 104.093 1.29516C104.093 1.17447 104.127 1.07234 104.197 0.988782C104.267 0.905223 104.406 0.870406 104.608 0.870406C104.808 0.870406 104.959 0.884333 105.061 0.912186C105.159 0.947002 105.27 1.05841 105.395 1.26035C105.521 1.45996 105.695 1.82437 105.918 2.35358C106.043 2.30251 106.159 2.27698 106.266 2.27698C106.378 2.27698 106.489 2.3118 106.621 2.37447C106.751 2.43017 106.907 2.5323 107.088 2.68085C107.269 2.82708 107.374 2.93153 107.409 2.9942C107.437 3.05687 107.457 3.1265 107.457 3.21006C107.457 3.29362 107.437 3.35629 107.395 3.40503C107.358 3.44681 107.044 3.56286 106.454 3.75319C105.864 3.94816 105.402 4.08279 105.068 4.15706C104.97 4.2824 104.915 4.48433 104.908 4.7559C105.451 4.68627 105.953 4.56093 106.399 4.36596C106.475 4.33114 106.566 4.31025 106.663 4.31025C106.886 4.31025 107.214 4.4588 107.646 4.7559C108.077 5.04836 108.293 5.29903 108.286 5.50097C108.286 5.70522 108.201 5.85377 108.029 5.94662C107.848 6.03714 107.701 6.16944 107.569 6.34352C106.991 7.08163 106.656 7.47157 106.559 7.50638C106.461 7.53424 106.408 7.59226 106.399 7.68047C106.726 7.81277 106.949 7.94507 107.067 8.07737C107.193 8.20735 107.255 8.3118 107.255 8.39072C107.255 8.46731 107.179 8.51606 107.039 8.53695C106.35 8.58569 105.653 8.75977 104.929 9.05223C105.395 9.21238 105.758 9.50484 106.001 9.91567ZM104.936 5.62631C104.775 5.73075 104.587 5.80735 104.378 5.86306C104.369 6.28085 104.292 6.66383 104.148 7.01199L104.65 6.76828C104.878 6.3737 104.973 5.99304 104.936 5.62631ZM103.682 7.1443C103.575 6.84255 103.538 6.45261 103.57 5.97447C103.31 5.94197 103.131 6.01857 103.034 6.20426C103.02 6.54313 103.052 6.89362 103.131 7.25571C103.312 7.2766 103.494 7.24178 103.682 7.1443ZM102.908 9.67892C103.18 9.74159 103.396 9.85996 103.57 10.034C103.73 10.2081 103.814 10.3892 103.828 10.5563C103.846 10.9462 103.923 11.2526 104.058 11.4754C104.202 11.6936 104.545 11.8631 105.089 11.9838C105.632 12.1021 106.036 12.1648 106.301 12.1648C106.566 12.1648 106.691 12.1021 106.698 11.9768C106.698 11.9489 106.684 11.9141 106.663 11.8723C106.517 11.5938 106.364 11.2178 106.203 10.7652C106.001 10.8627 105.82 11.0994 105.66 11.4754C105.611 11.5938 105.528 11.6495 105.416 11.6495C105.305 11.6495 105.235 11.6147 105.207 11.5451C105.133 11.3408 105.024 11.1923 104.88 11.0994C104.741 11.0089 104.643 10.8905 104.58 10.7582C104.525 10.619 104.497 10.5006 104.497 10.4031C104.501 10.366 104.525 10.3149 104.566 10.2499C104.608 10.1872 104.643 10.1106 104.678 10.0201C104.706 9.92263 104.72 9.80426 104.72 9.6441C104.72 9.48627 104.717 9.30755 104.713 9.10793C103.995 9.27505 103.396 9.47002 102.908 9.67892ZM104.134 4.40077C103.709 4.13617 103.431 4.00387 103.298 4.00387C103.166 4.00387 103.069 4.05261 103.006 4.15706C102.943 4.25455 102.901 4.30329 102.874 4.30329C102.85 4.30329 102.825 4.24062 102.797 4.11528C102.525 4.44952 102.212 4.92302 101.849 5.55667C102.184 5.60542 102.449 5.72379 102.651 5.9118C102.776 5.69594 102.929 5.52186 103.124 5.36867C103.319 5.2294 103.64 5.053 104.086 4.83946C104.137 4.69091 104.153 4.54468 104.134 4.40077ZM106.05 6.49671C106.148 6.35048 106.273 6.13462 106.412 5.8352C106.552 5.54275 106.628 5.3617 106.628 5.306C106.628 5.24565 106.568 5.21548 106.447 5.21548C106.327 5.21548 106.104 5.25725 105.779 5.34081C105.779 5.77253 105.681 6.14855 105.5 6.48279C105.602 6.50136 105.7 6.51064 105.792 6.51064C105.883 6.51064 105.974 6.51064 106.05 6.49671ZM31.3352 14.7482H110V15.3679H31.3352V14.7482Z" fill="white"/>
</svg>
