<svg width="27" height="110" viewBox="0 0 27 110" fill="none" xmlns="http://www.w3.org/2000/svg">
<path fill-rule="evenodd" clip-rule="evenodd" d="M26.4966 10.5319C27.9827 16.5581 24.6907 23.37 19.0586 25.9669C14.3399 28.277 8.26352 27.3675 4.45494 23.7414C0.398141 20.0514 -1.16477 13.8075 0.927799 8.69534C2.4653 4.4672 6.25694 1.12313 10.6851 0.235153C13.5588 -0.243688 16.6371 -0.0430306 19.2593 1.31988C22.9226 3.08801 25.5018 6.63274 26.4966 10.5319ZM20.1049 3.79682C17.0214 1.54594 12.8454 0.990876 9.2844 2.37463C13.405 7.0979 18.8495 10.8348 25.0581 12.1124C24.5415 8.84909 22.8672 5.69329 20.1049 3.79682ZM25.0536 15.1828C18.8964 16.6389 13.1998 20.0006 9.02836 24.7623C11.9405 25.7962 15.267 25.9024 18.0977 24.5486C21.8424 22.8958 24.4386 19.1973 25.0536 15.1828ZM18.3922 11.2876C18.5674 11.8603 18.7466 12.4323 18.9218 13.0049C20.1642 13.0003 21.4072 13.0173 22.6496 13.0258C21.2189 12.4753 19.7889 11.9202 18.3922 11.2876ZM22.7135 14.3502C21.4411 14.2942 20.1642 14.3157 18.8918 14.3157C18.7296 14.8838 18.5628 15.4519 18.3967 16.02C19.8098 15.388 21.2743 14.8968 22.7135 14.3502ZM13.6441 9.54943C11.2102 9.34031 9.10915 11.7873 9.51502 14.1619C9.70721 16.8956 12.8624 18.5054 15.3308 17.536C14.0669 16.562 12.4741 16.2545 10.975 15.8109C10.9626 15.4265 10.9327 14.6532 10.9157 14.2688C11.7223 14.0512 12.5294 13.859 13.3405 13.6623C12.5464 13.4062 11.7438 13.171 10.9366 12.9489C10.9411 12.5736 10.9496 11.8218 10.9542 11.4459C12.3672 10.9592 13.7933 10.5065 15.2025 10.0068C15.1986 10.4166 15.1901 11.2322 15.1855 11.6381C14.3699 11.8603 13.5588 12.0909 12.7516 12.3254C13.5588 12.5222 14.3744 12.7098 15.1855 12.9065C15.1986 13.3548 15.211 13.8036 15.224 14.2519C14.3784 14.461 13.5327 14.6747 12.6917 14.9007C13.5119 15.1314 14.336 15.3366 15.1601 15.5457C15.211 16.1952 15.2624 16.8487 15.3054 17.5021C16.1165 16.7672 17.0514 16.02 17.355 14.9138C18.2899 12.5352 16.2273 9.46018 13.6441 9.54943ZM8.01595 2.92123C6.61982 3.78835 5.33444 4.82617 4.21975 6.03923C5.90254 7.4054 7.69999 8.7683 9.81405 9.37028C10.9542 8.90902 12.0643 8.3494 13.2767 8.0888C11.4024 6.49136 9.60037 4.80923 8.01595 2.92123ZM13.1145 19.1758C11.8591 18.9113 10.6766 18.3986 9.6603 17.6044C7.75992 18.5784 5.78266 19.4924 4.15591 20.9016C5.11685 22.2123 6.4107 23.2078 7.71692 24.1473C9.36127 22.3322 11.1418 20.6364 13.1145 19.1758ZM8.92999 10.5872C6.93123 9.74162 5.12076 8.53768 3.42168 7.20083C2.4653 8.99893 1.8503 10.9592 1.69199 12.9919C3.83147 13.0049 5.97094 12.9964 8.10977 13.0218C8.36645 12.2016 8.64399 11.3944 8.92999 10.5872ZM8.12736 14.3502C5.98332 14.3326 3.83603 14.3033 1.68808 14.3287C1.85877 16.2252 2.4438 18.0441 3.28943 19.74C5.04844 18.5015 6.91038 17.4252 8.84855 16.4982C8.60099 15.7848 8.35798 15.0675 8.12736 14.3502Z" fill="white"/>
<path fill-rule="evenodd" clip-rule="evenodd" d="M26.5567 103.239C27.646 105.285 24.4733 108.082 22.5813 106.464C20.8992 105.434 21.0269 102.722 22.7266 101.77C24.1358 100.736 25.8863 101.894 26.5567 103.239ZM25.8779 102.697C25.7925 103.307 25.6173 104.533 25.5319 105.144C25.2505 104.507 25.1736 103.803 25.0791 103.124C24.5586 103.44 24.2257 103.91 24.0719 104.499C24.571 104.866 25.0752 105.229 25.528 105.66C24.8231 105.507 24.1312 105.324 23.4439 105.114C23.1195 105.396 22.7905 105.678 22.466 105.959C23.2817 106.109 24.2127 106.797 24.9553 106.101C26.2792 105.524 25.9801 103.841 25.8779 102.697ZM22.2615 102.688C23.384 102.804 24.5156 102.808 25.6433 102.727C24.6778 101.774 23.2902 101.95 22.2615 102.688ZM23.9306 103.406C23.4185 103.363 22.3891 103.277 21.8771 103.235C21.9155 103.999 21.9663 104.764 22.0393 105.528C22.7905 104.935 23.5507 104.311 23.9306 103.406ZM23.1449 93.8646C23.8837 94.4158 24.1312 95.3422 24.4687 96.1539C22.6752 95.4451 20.8308 94.8256 18.8789 94.8555C19.6008 96.6406 21.1852 97.8191 23.0641 98.1651C21.8126 98.8999 21.2236 100.322 20.0666 101.134C17.8757 100.25 17.7304 97.4562 16.6333 95.6412C16.3942 94.821 15.3779 95.0477 14.7498 94.804C15.7877 96.1539 16.7955 97.5247 17.7773 98.913C17.1115 99.5703 16.2359 99.3866 15.4163 99.2029C15.7023 99.9078 16.0052 100.608 16.2743 101.322C15.4847 101.365 14.6945 101.475 13.9003 101.42C12.7472 99.8524 11.5178 98.268 9.74578 97.3579C8.76334 98.2934 8.37896 99.6687 7.68318 100.809C6.01342 103.658 5.3007 106.912 4.21598 110C3.88307 108.381 3.51563 106.754 2.73841 105.276C2.72994 105.063 2.713 104.632 2.70453 104.413C4.89482 101.326 7.28577 98.3318 9.09234 95.0008C7.46102 94.8555 5.82579 94.9747 4.19448 94.9539C3.41334 94.6633 2.7814 93.8731 3.18272 93.0274C4.80492 92.6007 6.30789 91.8789 7.67015 90.8964C7.40565 91.43 7.12811 91.9558 6.85905 92.4854C7.8454 92.5278 8.83631 92.5662 9.82656 92.6216C8.90862 91.8489 7.93921 91.1056 7.23887 90.1192C7.38415 89.2091 8.23824 88.7224 8.86171 88.1543C10.1171 89.5642 11.0865 91.2593 12.598 92.4209C13.6358 92.6431 14.716 92.4978 15.7707 92.5447C16.0183 91.1694 16.9831 90.2176 18.4183 90.2046C18.4692 90.9864 18.5037 91.772 18.5291 92.5532C20.0875 92.8698 21.851 92.8099 23.1449 93.8646ZM12.1752 96.8158C12.6364 97.9051 13.6273 98.7716 14.8743 98.7247C14.1609 97.8576 13.226 97.2041 12.1752 96.8158ZM10.1686 95.2614C10.3263 95.6627 10.5399 96.0425 10.7575 96.4184C11.394 96.0217 12.0898 95.7481 12.824 95.6158C12.0859 94.9493 11.0396 94.578 10.1686 95.2614ZM19.4301 64.4729C21.3175 64.9511 22.9612 66.1296 23.9482 67.8208C22.5559 67.7101 21.2745 67.099 19.9383 66.7446C20.3565 67.727 21.0354 68.5512 21.7872 69.2984C21.595 69.7427 21.4028 70.187 21.2106 70.6353C19.7676 69.8626 18.6229 68.6795 17.3167 67.7186C17.7688 68.5043 18.3454 69.2046 18.892 69.9264C18.1317 71.4255 18.4776 73.1552 19.3578 74.5175C19.0418 75.1201 18.7213 75.7136 18.3968 76.3116C16.7486 75.7266 15.0573 75.1839 13.2814 75.2777C12.1628 74.0862 12.585 72.3395 12.3973 70.8574C11.9615 71.447 11.4494 72.0066 11.2019 72.7109C11.3556 74.1846 12.6065 75.1624 13.6573 76.0465C12.7856 76.5462 11.9107 77.0504 11.022 77.5286C10.5184 76.3755 10.3093 75.124 10.2279 73.8725C7.74702 76.7514 5.68508 79.9756 4.34823 83.5418C3.92997 82.188 3.05894 80.8773 3.23354 79.4075C4.57429 77.1227 6.45317 75.2054 8.09752 73.1422C6.79064 72.2881 5.34304 71.703 3.81466 71.3955C3.63094 71.1395 3.26351 70.6268 3.07979 70.3708C3.66091 69.7303 4.28829 69.1362 4.94173 68.5681C8.37506 69.0209 11.8253 68.7863 15.271 68.8802C15.2026 68.7564 15.0749 68.5127 15.0104 68.3935C13.4651 67.727 12.0344 66.5185 10.2455 66.7277C7.98612 66.6592 5.30917 67.757 3.48566 65.9074C3.98079 65.267 4.42054 64.5706 5.04401 64.037C6.28705 64.1308 7.52487 64.2807 8.77181 64.293C8.01609 63.6096 7.17502 63.0161 6.50008 62.2519C6.44927 61.4956 6.59455 60.7483 6.6838 60.0056C10.0572 59.9457 10.9282 64.7719 14.4 64.4344C13.9218 63.452 13.3407 62.5249 12.91 61.5255C13.0892 60.5262 13.7466 59.719 14.3915 58.9763C16.0098 60.5646 15.0404 63.5034 17.1799 64.7035C17.4359 63.5373 17.9017 62.4272 19.1825 62.1536C19.2718 62.9223 19.3487 63.6995 19.4301 64.4729ZM18.5337 66.7491C18.3754 66.6807 18.0639 66.54 17.9102 66.4671C16.6203 67.2189 19.2594 68.2567 18.5337 66.7491ZM16.7955 71.1779C16.4111 71.1649 16.0313 71.1525 15.6469 71.1395C15.8515 71.8014 16.0528 72.4718 16.2443 73.1422C16.4411 73.2106 16.8385 73.3435 17.0392 73.4112C16.9623 72.6685 16.8763 71.9213 16.7955 71.1779ZM16.0098 67.6163C15.8776 67.0951 15.258 66.3947 14.6775 66.6377C14.3446 67.2527 15.6639 68.3082 16.0098 67.6163ZM14.4638 70.8235C13.3153 71.2802 14.0795 72.4034 14.2417 73.262C14.4469 73.2236 14.8482 73.1467 15.0534 73.1083C14.8482 72.348 14.6521 71.5877 14.4638 70.8235ZM6.64992 70.8359C7.44799 71.4424 8.26821 72.0151 9.07931 72.6001C9.54903 72.0574 10.0188 71.5154 10.4846 70.9688C9.20765 70.8704 7.93074 70.845 6.64992 70.8359ZM19.7161 70.6099C20.9761 71.5109 22.2654 72.3995 23.41 73.4497C23.2986 74.509 21.8087 74.8465 21.0784 75.4784C20.3181 73.9624 19.6138 72.348 19.7161 70.6099ZM17.7219 85.2161C19.6353 85.592 21.565 85.9035 23.4139 86.54C22.9742 87.4794 22.496 88.398 21.9409 89.2736C21.322 88.9785 20.707 88.6886 20.0835 88.4019C19.447 87.2364 18.6359 86.1816 17.7219 85.2161ZM20.0067 45.3518C20.4034 47.0691 20.98 48.7388 21.4028 50.447C21.7357 51.4725 20.7109 52.1468 20.1819 52.8601C18.7552 52.0145 17.3336 51.1559 15.8776 50.3532C15.9844 51.2757 16.2574 52.1898 16.2574 53.1253C15.9968 54.0862 14.9551 54.4361 14.2078 54.9403C12.4612 53.1377 10.3647 51.737 8.13987 50.5969C8.22978 52.2966 8.50275 53.9794 8.97703 55.6146C8.51187 56.1619 8.07147 56.7339 7.54246 57.2166C6.70986 57.302 6.18867 56.5501 5.58214 56.1234C5.81277 54.8165 6.02645 53.4152 5.28767 52.2197C5.31764 52.0914 5.37302 51.8354 5.40298 51.7116C5.84274 52.2412 6.28249 52.7663 6.7268 53.2914C6.4877 49.7767 5.75283 46.2873 4.34367 43.0501C3.54951 41.3158 3.51563 39.3816 3.18272 37.5366C4.34823 36.4603 5.41992 35.2941 6.49618 34.128C7.0558 35.5678 6.25252 36.9639 6.1118 38.3946C5.77433 41.1451 6.50464 43.8788 7.28578 46.4964C7.51249 47.0645 7.58937 47.8378 8.25128 48.0808C10.0572 48.9441 11.8423 49.8366 13.6443 50.7076C12.9824 48.0639 9.81419 47.9017 8.30665 45.9967C7.67015 45.2964 8.09753 44.3615 8.20437 43.5582C9.5106 44.1433 10.7745 44.8267 11.9745 45.6085C12.026 45.0189 12.0814 44.4293 12.1367 43.8442C12.6195 43.5667 13.1016 43.2937 13.5889 43.0247C13.9387 44.2501 14.2293 45.5146 14.8267 46.6502C15.4547 47.8932 16.9577 48.06 18.1193 48.5212C18.0079 47.103 18.563 45.7876 20.0067 45.3518ZM14.1094 84.3835C15.1173 84.5458 16.0867 84.8787 17.0561 85.2031C16.3597 85.9419 16.0398 87.3902 14.8567 87.4501C13.5843 87.2488 12.4442 86.5361 11.1504 86.4331C9.96794 86.3738 8.78484 86.5015 7.61933 86.6598C9.16466 87.5009 11.0136 87.4709 12.5765 88.2742C10.0787 88.2573 7.49946 87.8169 5.07854 88.6586C4.0492 88.9661 3.55407 87.8384 2.96447 87.2488C3.46416 86.7152 3.96841 86.1901 4.47201 85.6689C7.79002 85.8996 10.7875 83.7086 14.1094 84.3835Z" fill="white"/>
</svg>
