<svg width="29" height="106" viewBox="0 0 29 106" fill="none" xmlns="http://www.w3.org/2000/svg">
<path fill-rule="evenodd" clip-rule="evenodd" d="M25.9688 25.9222C28.695 23.192 29 19.2664 29 14.4688C29 9.66492 28.6918 5.73617 25.9592 3.00602C23.2267 0.275869 19.2931 -4.24303e-07 14.4857 -6.3444e-07C9.67832 -8.44578e-07 5.74154 0.275868 3.00898 3.00602C0.276432 5.73617 -4.22467e-07 9.66492 -6.32453e-07 14.4688C-8.42439e-07 19.2728 0.276431 23.2015 3.00898 25.9317C5.74153 28.6618 9.67514 28.9377 14.4857 28.9377C19.2994 28.9409 23.2394 28.6586 25.9688 25.9222Z" fill="#FF6900"/>
<path fill-rule="evenodd" clip-rule="evenodd" d="M9.12888 13.4034C9.03038 13.4034 8.95095 13.321 8.95095 13.2227L8.95095 10.7557C8.95095 10.6543 9.03038 10.5718 9.12888 10.5718L15.5949 10.5718C15.6934 10.5718 15.7728 10.6543 15.7728 10.7557L15.7728 13.2227C15.7728 13.321 15.6934 13.4034 15.5949 13.4034L9.12888 13.4034ZM9.12888 18.2359C9.03038 18.2359 8.95095 18.1534 8.95095 18.0551L8.95095 15.7055C8.95095 15.604 9.03038 15.5216 9.12888 15.5216L14.7084 15.5216C15.6838 15.5184 16.6847 15.4645 17.1867 14.9603C17.6189 14.5291 17.7205 13.7237 17.7396 12.8866L17.7396 8.63121C17.7396 8.52974 17.6602 8.45047 17.5617 8.45047L9.1257 8.45047C9.02721 8.45047 8.94777 8.36803 8.94777 8.26656L8.94777 5.91692C8.94777 5.81545 9.02721 5.73618 9.1257 5.73618L19.8748 5.73618C19.9733 5.73618 20.0527 5.81545 20.0527 5.91692L20.0527 12.6995C20.0527 14.472 19.9733 16.3238 19.055 17.2402C18.1336 18.1566 16.2812 18.2391 14.5018 18.2391L9.12888 18.2391L9.12888 18.2359Z" fill="white"/>
<path fill-rule="evenodd" clip-rule="evenodd" d="M9.12888 23.0748C9.03038 23.0748 8.95095 22.9923 8.95095 22.8908L8.95095 20.5412C8.95095 20.4397 9.03038 20.3605 9.12888 20.3605L19.8748 20.3605C19.9733 20.3605 20.0527 20.4429 20.0527 20.5412L20.0527 22.894C20.0527 22.9923 19.9733 23.0779 19.8748 23.0779L9.12888 23.0779L9.12888 23.0748Z" fill="white"/>
<path d="M11.0929 60.8038C11.0389 59.6088 11.0859 58.726 11.3587 58.158C11.5375 57.7777 11.9515 57.5006 12.4244 57.4771C12.8242 57.456 13.0313 57.463 13.2688 57.6508C13.7981 58.0711 13.9135 59.1699 13.9558 60.3014C13.9839 61.0643 13.8993 62.2312 13.8005 63.0879C12.9982 63.081 12.1937 63.0269 11.8432 62.8532C11.2177 62.5481 11.1214 61.454 11.0929 60.8038ZM18.2927 64.9709C19.7219 63.9003 20.1523 61.9659 20.0488 59.9586C19.943 57.9232 19.5267 56.5028 19.3936 56.1413C19.3124 55.9159 19.1243 55.9464 19.0115 55.9441C18.6327 55.9348 17.6576 55.9041 17.2625 55.9041C17.086 55.9065 17.005 56.1296 17.0697 56.315C17.3225 57.0569 17.7295 58.4278 17.8164 59.529C17.9082 60.7169 17.8164 62.3344 17.1612 62.7781C16.8508 62.9917 16.3755 63.0012 15.8909 63.027C15.9567 62.2851 16.0484 61.1864 15.9897 60.0949C15.9451 59.2451 15.8767 57.618 15.3816 56.6579C14.9818 55.8762 14.6146 55.4208 13.9349 55.1765C13.3892 54.9793 12.7303 54.9277 12.1964 54.9887C10.9732 55.1319 10.3614 55.5708 9.93796 56.1649C9.26987 57.0993 8.91461 58.2801 8.9688 60.7216C9.03462 63.9685 10.051 64.8253 10.7755 65.2549C12.0036 65.9874 13.9418 65.8605 15.1322 65.8394C15.6261 65.8302 17.2506 65.755 18.2927 64.9709Z" fill="white"/>
<path d="M11.801 76.7C11.1635 76.1224 11.0508 75.0754 11.0508 74.2163C11.0508 73.357 11.1612 72.3135 11.7964 71.7359C12.4362 71.1583 13.3113 71.1209 14.4217 71.1209C15.5225 71.1209 16.379 71.1585 17.0177 71.7335C17.6551 72.3111 17.7644 73.2396 17.7644 74.2164C17.7644 75.1976 17.6551 76.1227 17.0177 76.7001C16.3788 77.2731 15.5225 77.3151 14.4217 77.3151C13.3159 77.3151 12.4362 77.2729 11.801 76.7ZM19.8911 74.2163C19.8911 72.5775 19.6911 70.9424 18.7032 69.907C17.7187 68.8694 16.2366 68.4703 14.4217 68.4703C12.6055 68.4703 11.1495 68.8271 10.1637 69.8648C9.18049 70.9025 8.94047 72.5823 8.94047 74.2163C8.94047 75.8551 9.14282 77.4842 10.1261 78.5218C11.1143 79.5548 12.6057 79.9633 14.4219 79.9633C16.2367 79.9633 17.6846 79.6017 18.6703 78.5639C19.6547 77.5312 19.8911 75.8549 19.8911 74.2163Z" fill="white"/>
<path d="M19.6973 105.309L19.6973 102.989C19.6973 102.891 19.6195 102.815 19.5254 102.815L9.29807 102.815C9.20635 102.815 9.12863 102.891 9.12863 102.989L9.12863 105.309C9.12863 105.407 9.20635 105.487 9.29807 105.487L19.5256 105.487C19.6197 105.487 19.6973 105.407 19.6973 105.309Z" fill="white"/>
<path d="M19.8726 94.533C19.8726 92.946 19.5443 91.9365 19.2409 91.3261L19.2409 90.9035C19.5608 90.307 19.8726 89.2508 19.8726 87.5933C19.8726 86.3677 19.7855 84.8653 19.0315 83.9357C18.4094 83.1703 17.5814 82.9919 15.878 82.9919L9.3028 82.9919C9.2087 82.9919 9.1335 83.0717 9.1335 83.1703L9.1335 85.485C9.1335 85.5836 9.2087 85.6682 9.3028 85.6682L9.32633 85.6682L14.7135 85.6682C15.6898 85.6682 16.7073 85.626 17.0872 85.8419C17.3812 86.0156 17.7117 86.2786 17.7117 87.5369C17.7117 89.0394 17.6106 89.3914 16.9672 89.6262C16.8155 89.6825 16.5978 89.7108 16.3331 89.7247L9.30266 89.7247C9.20856 89.7247 9.13336 89.8047 9.13336 89.9032L9.13336 92.2227C9.13336 92.3212 9.20856 92.401 9.30266 92.401L16.3332 92.401C16.5979 92.4151 16.8155 92.4386 16.9673 92.4951C17.6108 92.7344 17.7119 93.0865 17.7119 94.589C17.7119 95.8427 17.3814 96.1103 17.0873 96.2794C16.7074 96.4999 15.6899 96.4577 14.7136 96.4577L9.32647 96.4577L9.30294 96.4577C9.20884 96.4577 9.13364 96.5375 9.13364 96.636L9.13364 98.9508C9.13364 99.0493 9.20884 99.134 9.30294 99.134L15.4757 99.134C17.2436 99.134 18.1493 99.0728 18.9209 98.2182C19.7678 97.2703 19.8726 95.7583 19.8726 94.533Z" fill="white"/>
<path d="M19.6973 51.5399L19.6973 49.2226C19.6973 49.124 19.6195 49.0443 19.5254 49.0443L9.29807 49.0443C9.20635 49.0443 9.12863 49.1241 9.12863 49.2226L9.12863 51.5399C9.12863 51.6385 9.20635 51.7182 9.29807 51.7182L19.5256 51.7182C19.6197 51.7182 19.6973 51.6385 19.6973 51.5399Z" fill="white"/>
<path d="M14.4994 41.8015L19.4302 45.917C19.536 46.0062 19.6948 45.9264 19.6948 45.7855L19.6948 42.8181C19.6948 42.7477 19.6643 42.6819 19.609 42.6373L16.1201 39.9188L19.6088 37.2683C19.6642 37.2237 19.6947 37.1579 19.6947 37.085L19.6947 34.1083C19.6947 33.9674 19.5359 33.8876 19.43 33.9769L14.4075 38.1417L9.39211 33.9722C9.28401 33.8876 9.12857 33.9674 9.12857 34.1061L9.12857 37.0804C9.12857 37.1532 9.16148 37.2213 9.21805 37.2635L12.695 40.0408L9.21805 42.6725C9.16162 42.7149 9.12857 42.7829 9.12857 42.8534L9.12857 45.7925C9.12857 45.9334 9.28386 46.0132 9.39211 45.9264L14.4994 41.8015Z" fill="white"/>
</svg>
