<svg width="107" height="30" viewBox="0 0 107 30" fill="none" xmlns="http://www.w3.org/2000/svg">
<path fill-rule="evenodd" clip-rule="evenodd" d="M26.6785 3.27489C23.9484 0.548697 20.0228 0.243668 15.2252 0.243668C10.4213 0.243668 6.49252 0.551874 3.76237 3.28443C1.03222 6.01698 0.756348 9.95058 0.756348 14.758C0.756348 19.5654 1.03222 23.5021 3.76237 26.2347C6.49252 28.9672 10.4213 29.2437 15.2252 29.2437C20.0291 29.2437 23.9579 28.9672 26.688 26.2347C29.4182 23.5021 29.694 19.5685 29.694 14.758C29.6972 9.94423 29.415 6.00427 26.6785 3.27489Z" fill="#FF6900"/>
<path fill-rule="evenodd" clip-rule="evenodd" d="M14.1599 20.115C14.1599 20.2135 14.0775 20.2929 13.9792 20.2929H11.5122C11.4108 20.2929 11.3283 20.2135 11.3283 20.115L11.3283 13.649C11.3283 13.5505 11.4108 13.4711 11.5122 13.4711H13.9792C14.0775 13.4711 14.1599 13.5505 14.1599 13.649L14.1599 20.115ZM18.9924 20.115C18.9924 20.2135 18.9099 20.2929 18.8116 20.2929H16.462C16.3605 20.2929 16.2781 20.2135 16.2781 20.115V14.5355C16.2749 13.5601 16.221 12.5592 15.7168 12.0572C15.2856 11.625 14.4802 11.5234 13.6431 11.5043L9.38771 11.5043C9.28624 11.5043 9.20697 11.5837 9.20697 11.6822L9.20697 20.1182C9.20697 20.2167 9.12453 20.2961 9.02306 20.2961H6.67342C6.57195 20.2961 6.49268 20.2167 6.49268 20.1182L6.49268 9.3691C6.49268 9.2706 6.57195 9.19116 6.67342 9.19116L13.456 9.19116C15.2285 9.19116 17.0803 9.2706 17.9967 10.1889C18.9131 11.1103 18.9956 12.9627 18.9956 14.7421V20.115H18.9924Z" fill="white"/>
<path fill-rule="evenodd" clip-rule="evenodd" d="M23.831 20.115C23.831 20.2135 23.7486 20.2929 23.6471 20.2929H21.2974C21.196 20.2929 21.1167 20.2135 21.1167 20.115V9.3691C21.1167 9.2706 21.1991 9.19116 21.2974 9.19116H23.6503C23.7486 9.19116 23.8342 9.2706 23.8342 9.3691V20.115H23.831Z" fill="white"/>
<path d="M61.56 18.1507C60.365 18.2048 59.4822 18.1577 58.9141 17.885C58.5339 17.7061 58.2568 17.2922 58.2333 16.8193C58.2122 16.4195 58.2192 16.2124 58.407 15.9749C58.8272 15.4456 59.926 15.3302 61.0576 15.2879C61.8204 15.2598 62.9873 15.3444 63.8441 15.4432C63.8371 16.2455 63.783 17.0499 63.6093 17.4004C63.3043 18.026 62.2102 18.1223 61.56 18.1507ZM65.7271 10.951C64.6565 9.52182 62.7221 9.09137 60.7148 9.19485C58.6794 9.30071 57.259 9.71703 56.8975 9.85006C56.672 9.93128 56.7025 10.1193 56.7003 10.2322C56.6909 10.611 56.6603 11.586 56.6603 11.9812C56.6627 12.1576 56.8857 12.2387 57.0712 12.174C57.8131 11.9211 59.184 11.5142 60.2852 11.4272C61.473 11.3355 63.0906 11.4272 63.5343 12.0824C63.7478 12.3929 63.7573 12.8682 63.7832 13.3528C63.0413 13.287 61.9426 13.1953 60.851 13.254C60.0012 13.2986 58.3742 13.367 57.4141 13.8621C56.6324 14.2619 56.1769 14.6291 55.9327 15.3088C55.7355 15.8545 55.6839 16.5133 55.7448 17.0473C55.8881 18.2705 56.327 18.8823 56.9211 19.3057C57.8554 19.9738 59.0363 20.3291 61.4778 20.2749C64.7247 20.2091 65.5814 19.1927 66.011 18.4682C66.7436 17.2401 66.6167 15.3019 66.5956 14.1115C66.5864 13.6176 66.5112 11.9931 65.7271 10.951Z" fill="white"/>
<path d="M77.4562 17.4426C76.8787 18.0802 75.8317 18.1929 74.9725 18.1929C74.1132 18.1929 73.0697 18.0824 72.4922 17.4472C71.9146 16.8074 71.8771 15.9323 71.8771 14.8219C71.8771 13.7211 71.9147 12.8647 72.4898 12.226C73.0674 11.5886 73.9958 11.4792 74.9727 11.4792C75.9538 11.4792 76.8789 11.5886 77.4564 12.226C78.0293 12.8648 78.0714 13.7211 78.0714 14.8219C78.0714 15.9277 78.0292 16.8074 77.4562 17.4426ZM74.9725 9.35252C73.3337 9.35252 71.6987 9.55249 70.6633 10.5404C69.6257 11.525 69.2266 13.0071 69.2266 14.8219C69.2266 16.6381 69.5833 18.0942 70.6211 19.08C71.6587 20.0631 73.3386 20.3032 74.9725 20.3032C76.6113 20.3032 78.2405 20.1008 79.2781 19.1175C80.3111 18.1293 80.7196 16.638 80.7196 14.8218C80.7196 13.0069 80.3579 11.559 79.3202 10.5733C78.2874 9.5889 76.6112 9.35252 74.9725 9.35252Z" fill="white"/>
<path d="M106.065 9.54659H103.746C103.647 9.54659 103.572 9.6243 103.572 9.7184V19.9458C103.572 20.0375 103.647 20.1152 103.746 20.1152H106.065C106.164 20.1152 106.243 20.0375 106.243 19.9458V9.71826C106.244 9.62416 106.164 9.54659 106.065 9.54659Z" fill="white"/>
<path d="M95.2891 9.37129C93.7022 9.37129 92.6927 9.69953 92.0822 10.003H91.6597C91.0632 9.683 90.007 9.37129 88.3495 9.37129C87.1239 9.37129 85.6215 9.45839 84.6919 10.2123C83.9265 10.8345 83.748 11.6625 83.748 13.3658V19.941C83.748 20.0351 83.8278 20.1103 83.9265 20.1103H86.2411C86.3398 20.1103 86.4243 20.0351 86.4243 19.941V19.9175V14.5304C86.4243 13.554 86.3821 12.5366 86.598 12.1567C86.7717 11.8626 87.0347 11.5321 88.293 11.5321C89.7956 11.5321 90.1476 11.6332 90.3824 12.2767C90.4387 12.4283 90.4669 12.6461 90.4809 12.9107V19.9412C90.4809 20.0353 90.5608 20.1105 90.6593 20.1105H92.9789C93.0774 20.1105 93.1572 20.0353 93.1572 19.9412V12.9106C93.1713 12.6459 93.1948 12.4283 93.2512 12.2765C93.4906 11.6331 93.8426 11.532 95.3452 11.532C96.5988 11.532 96.8665 11.8625 97.0356 12.1565C97.2561 12.5364 97.2139 13.5539 97.2139 14.5302V19.9174V19.9409C97.2139 20.035 97.2937 20.1102 97.3922 20.1102H99.7069C99.8055 20.1102 99.8902 20.035 99.8902 19.9409V13.7682C99.8902 12.0003 99.8289 11.0945 98.9744 10.3229C98.0265 9.47604 96.5144 9.37129 95.2891 9.37129Z" fill="white"/>
<path d="M52.2959 9.54659H49.9786C49.8799 9.54659 49.8003 9.6243 49.8003 9.7184V19.9458C49.8003 20.0375 49.8801 20.1152 49.9786 20.1152H52.2959C52.3945 20.1152 52.4742 20.0375 52.4742 19.9458V9.71826C52.4742 9.62416 52.3945 9.54659 52.2959 9.54659Z" fill="white"/>
<path d="M42.5578 14.7443L46.6734 9.81349C46.7625 9.70762 46.6827 9.54883 46.5419 9.54883H43.5745C43.504 9.54883 43.4382 9.57936 43.3936 9.63467L40.6752 13.1236L38.0246 9.63481C37.98 9.5795 37.9142 9.54897 37.8414 9.54897H34.8646C34.7238 9.54897 34.644 9.70776 34.7333 9.81363L38.898 14.8362L34.7285 19.8515C34.644 19.9596 34.7238 20.1151 34.8624 20.1151H37.8368C37.9096 20.1151 37.9776 20.0822 38.0198 20.0256L40.7972 16.5486L43.4289 20.0256C43.4712 20.082 43.5393 20.1151 43.6097 20.1151H46.5488C46.6897 20.1151 46.7695 19.9598 46.6827 19.8515L42.5578 14.7443Z" fill="white"/>
</svg>
