<?xml version="1.0" encoding="UTF-8"?>
<svg width="627.3mm" height="88mm" version="1.1" viewBox="0 0 313.65 44" xmlns="http://www.w3.org/2000/svg" xmlns:cc="http://creativecommons.org/ns#" xmlns:dc="http://purl.org/dc/elements/1.1/" xmlns:rdf="http://www.w3.org/1999/02/22-rdf-syntax-ns#">
 <metadata>
  <rdf:RDF>
   <cc:Work rdf:about="">
    <dc:format>image/svg+xml</dc:format>
    <dc:type rdf:resource="http://purl.org/dc/dcmitype/StillImage"/>
    <dc:title/>
   </cc:Work>
  </rdf:RDF>
 </metadata>
 <g transform="translate(1,1)">
  <path id="path" transform="translate(-56,-42)" d="m223.61 50.56h4.81v24.89h-6.13l-7.13-11.45c-1.22-2-2.26-4.13-2.26-4.13h-0.07v15.58h-4.83v-24.89h5.66l8.45 13.56a18.1 18.1 0 0 1 1.45 2.81v-16.37zm27.66 10.19h-8.38v-10.2h-6.11v24.89h6.11v-10.62h8.38v10.62h6.14v-24.89h-6.14zm-89.45 3.87h7.94v-3.74h-7.94v-6.48h10.63v-3.84h-16.76v24.89h16.94v-4.15h-10.81v-6.67zm-22.06-8.4a1.11 1.11 0 0 1 0.91-1.83h9.11v-3.83h-10.78a5.31 5.31 0 0 0-5.47 5c0 1.46 0.11 2.52 2.3 4.82l8.11 8.5a1.38 1.38 0 0 1-0.94 2.42h-10v4.15h11.44a5.89 5.89 0 0 0 6.09-5.85c0-1.65-0.39-2.75-2.56-5zm55.08 10.68a18.1 18.1 0 0 0-1.45-2.81l-8.45-13.56h-5.66v24.92h4.81v-15.55h0.07s1 2.16 2.26 4.13l7.14 11.45h6.13v-24.92h-4.81v16.35zm135.1-2.28h7.94v-3.74h-7.94v-6.48h10.63v-3.84h-16.76v24.89h16.94v-4.15h-10.81v-6.67zm37.71 10.83h-6.65l-4.78-10.22h-2.68v10.22h-6.12v-24.89h11.16c5.38 0 7.88 3.35 7.88 7.22a7.14 7.14 0 0 1-4.8 6.74zm-6.43-17.51c0-1.15-0.67-3.54-3.9-3.54h-3.79v7.08h3.72c3.36 0 3.97-2.48 3.97-3.54zm-53.42-1.71a1.11 1.11 0 0 1 0.91-1.83h9.11v-3.84h-10.82a5.31 5.31 0 0 0-5.47 5c0 1.46 0.11 2.52 2.3 4.82l8.11 8.5a1.38 1.38 0 0 1-0.91 2.47h-10.03v4.15h11.44a5.89 5.89 0 0 0 6.09-5.85c0-1.65-0.39-2.75-2.56-5zm-35.91 8.4h7.94v-3.75h-7.93v-6.48h10.63v-3.84h-16.76v24.89h16.94v-4.15h-10.81v-6.67zm17.48 10.83h6.13v-24.9h-6.13v24.89zm-233.37-33.46v42h56v-42zm30.82 3.87c-3.33 1.28-6.53 4.1-9.11 9.76-0.75 1.64-2.16 4.81-2.8 6.23-5.19 11.39-7.85 13.84-15.68 13.84v-30.55h27.45a0.37 0.37 0 0 1 0.14 0.72zm22 4.42v30.56h-27.5a0.37 0.37 0 0 1-0.13-0.72c3.33-1.28 6.53-4.1 9.11-9.76 0.75-1.64 2.16-4.81 2.8-6.23 5.18-11.39 7.84-13.84 15.67-13.84z"/>
 </g>
</svg>
