<svg
   xmlns="http://www.w3.org/2000/svg"
   width="512.35699"
   height="230.24001"
   viewBox="0 0 135.56112 60.91767"
   version="1.1"
   id="svg135">
  <g
     id="g23"
     transform="scale(0.6736291)">
    <path
       id="path14"
       fill="#231f20"
       fill-opacity="1"
       fill-rule="nonzero"
       stroke="none"
       d="m 42.506899,7.8937475 c 1.366661,0.414867 2.591152,1.157111 3.662186,2.023534 -3.262136,-1.824922 -5.138915,-2.192515 -5.259917,-2.212623 l -0.03528,-0.0032 c -0.511529,-0.07761 -0.934863,-0.169334 -1.3208,-0.2667 0.631471,-0.130528 1.217435,-0.327025 1.750835,-0.570442 0.0013,0.01199 0.0013,0.02222 0.0013,0.03104 0.248709,0.680861 0.90805,0.919339 1.201563,0.998362 z m -15.609395,1.172986 c 0,0 0.139594,-0.40499 0.175861,-0.503415 0.03926,-0.09737 0.424955,-1.153935 1.383805,-1.253419 0,0 0.555096,-0.03387 1.41016,-0.03387 0,0 -0.417972,1.344789 -2.064456,1.634773 0,0 -0.645583,0.146753 -0.90537,0.155927 z M 192.2847,52.552594 c -0.33796,1.17404 -2.0126,2.74108 -4.04848,3.64278 -2.13748,0.95638 -6.59589,1.2072 -9.17152,0.78705 -0.007,0 -4.99498,-0.50659 -9.36483,-5.0726 -1.3776,-1.44074 -3.07376,-3.07516 -4.63939,-4.68947 -0.68826,-0.72214 -2.38336,-2.41653 -5.20065,-2.79259 -2.93546,-0.39511 -10.10179,-0.59055 -12.79736,-1.48449 -1.80129,-0.60043 -3.97404,-1.82104 -6.86365,-6.10164 -1.3917,-2.04999 -2.37984,-2.61267 -4.27249,-3.81353 0,0 1.45098,1.15323 2.27365,2.61056 1.1864,2.11455 1.78541,3.65407 2.431,4.78049 0.64629,1.13135 1.37759,2.1336 2.47826,3.01977 1.37054,1.10102 2.22638,1.30705 3.71052,1.55328 1.42205,0.23707 6.21876,0.19368 10.33427,0.13265 4.04918,-0.0646 5.85576,1.24319 7.18608,2.36432 1.2319,1.0354 3.34222,4.00085 4.63938,5.3033 1.54729,1.53847 2.679,3.11292 5.73829,4.65491 1.06115,0.53939 2.79964,1.86055 2.71074,3.13584 -1.37442,1.37654 -3.08187,1.73849 -7.17656,0.64488 0.28928,0.28328 2.43276,2.53435 6.10059,1.46967 -1.10667,0.92392 -2.19075,1.31727 -3.32246,1.25659 -3.83752,-0.21272 -7.59778,-4.93995 -9.70492,-6.6869 -1.60196,-1.32468 -1.78717,-1.6577 -4.50744,-3.54083 -4.13209,-2.86068 -13.40273,-2.05458 -13.40273,-2.05458 l -6.80368,0.35349 c -13.25033,1.00118 -18.81505,-10.73574 -20.28154,-13.18507 -0.51153,-0.84985 -0.97049,-1.536 -1.41076,-2.09233 -0.67592,-0.9017 -4.29648,-5.59858 -7.95726,-7.14093 0,0 3.59763,3.09633 3.38491,5.14421 0,0 -1.49155,-0.6918 -5.54602,-0.11324 -17.455092,2.48814 -23.395872,-1.88101 -23.395872,-1.88101 0.81033,-3.49779 -1.6316,-7.08837 -1.6316,-7.08837 1.3462,0.42757 9.92752,3.32705 18.0781,1.67217 0,0 -13.26303,0.0709 -22.56261,-7.347302 0,0 5.78732,7.251342 4.41396,11.999382 0,0 -0.94968,5.05954 -11.03807,3.01942 -1.07667,-0.21237 -2.34421,-0.57255 -17.444857,-4.76214 -3.549298,-1.06292 -4.7752,0.63253 -5.415491,1.65064 -0.02717,1.49296 -1.786115,3.23498 -2.672998,3.78072 -4.672542,-0.84172 -2.811286,-5.17736 -2.811286,-5.17736 -2.941108,4.20617 0.139348,6.06425 1.114073,6.19689 -0.582437,0.28293 -1.134887,0.48684 -1.602671,0.66005 0,0 -3.818818,-2.27401 -1.68557,-6.00075 2.977091,-5.19501 6.00851,-6.86118 11.56617,-7.369175 2.43099,-0.232481 4.45735,-0.40499 6.0004,-0.193323 4.03154,0.556688 6.55814,2.833158 12.59593,3.419478 -12.81571,-3.774372 -12.84358,-11.196463 -12.88733,-11.336515 -0.002,-0.0019 -0.005,-0.01553 -0.005,-0.01553 -0.71014,2.44969 -0.31926,4.512733 0.30586,6.255102 -0.17745,-0.06244 -2.97921,-1.904646 -4.04742,-2.553759 -4.601923,-2.810228 -8.233769,-3.300588 -8.233769,-3.300588 -1.526116,-0.193675 -2.236964,-2.047875 -2.236964,-2.047875 -0.05257,-0.0949 -0.107244,-0.181681 -0.160161,-0.270581 C 40.920458,10.322966 38.822841,10.251 38.822841,10.251 c 0.750004,1.020233 1.033992,2.316691 1.140529,3.12561 0.06103,0.465666 0.120298,1.316566 0.118181,1.572331 -0.0381,3.870325 -4.521551,5.090935 -4.521551,5.090935 -3.125542,3.965575 -2.962524,4.047773 -3.657037,4.15008 -0.698254,0.09772 -2.222076,-0.678746 -2.222076,-0.678746 -0.118534,-0.0635 -0.149789,-0.236009 -0.130247,-0.34925 0.03817,-0.239888 0.233574,-0.391584 0.233574,-0.391584 0.586354,-0.464253 1.064543,-0.926745 1.064543,-0.926745 3.302212,-3.377496 3.69824,-5.02638 3.290748,-7.216071 -0.834814,-4.392084 -3.97383,-3.880909 -3.97383,-3.880909 -1.528234,0.145699 -2.143268,1.406174 -2.143268,1.406174 -0.524087,0.809273 -1.635336,3.285773 -1.635336,3.285773 -0.682096,1.476726 -1.377738,1.810101 -1.738524,1.876776 -0.157656,0.02787 -0.448133,0.02257 -0.543489,0.01977 -1.061509,-0.03775 -1.86877,-1.018117 -1.86877,-1.018117 -0.04918,-0.0508 -0.09603,-0.103013 -0.132291,-0.145346 -0.971515,-1.04281 -0.267335,-2.404533 -0.267335,-2.404533 1.308593,-3.049411 3.850675,-3.492146 4.19421,-3.536244 0.356199,-0.0448 1.525339,-0.214842 1.525339,-0.214842 3.228483,-0.5432755 4.753012,-3.9052485 4.753012,-3.9052485 -2.17678,-0.02681 -3.23977,0.116769 -3.23977,0.116769 -2.141469,0.37465 -2.870589,2.897716 -2.870589,2.893837 -1.812678,0.414512 -1.766252,-1.143355 -1.447905,-1.619604 0.284127,-0.439561 1.349763,-2.308577 8.312996,-3.920066 0,0 3.43408,-1.033286 10.773269,-0.701675 0,0 0,0 -0.302683,0.562328 -0.648406,1.227666 -3.222273,3.758494 -7.476421,2.820811 0,0 0.03669,1.889831 4.651023,2.56681 0,0 4.173008,0.745066 11.249377,6.4318455 0,0 -3.384902,-6.7218295 -9.128125,-8.4620805 0,0 -0.716844,-0.154164 -0.365829,-0.603603 0,0 3.394075,-3.189111 8.110008,-3.186642 0,0 14.711534,0.315737 24.054504,10.0905025 0,0 -0.40922,-1.699684 -1.87995,-4.1080975 0,0 0,0 -0.61701,-1.003652 0,0 0.56021,0.0635 2.09585,0.315031 0,0 5.61552,0.699911 18.80729,5.2549765 0,0 9.882362,3.245908 15.291862,5.392208 8.1287,3.237442 28.49562,11.127312 41.47855,18.206152 2.31916,1.26083 25.80287,13.5068 25.80287,13.5068 6.5031,2.92065 11.0049,1.14512 11.0049,1.14512 1.46368,-0.55598 4.11868,-2.59645 5.28038,-1.44216 0.59831,0.59655 0.67804,1.40088 0.39088,2.18617 z M 31.669389,12.587101 c -0.678955,-0.475544 -1.438664,-0.56797 -2.126051,-0.458258 0.303318,-0.224719 0.785918,-0.254 0.785918,-0.254 0.31736,-0.03775 1.822733,-0.09595 2.520421,2.260954 -0.298344,-0.675923 -0.704885,-1.215673 -1.180288,-1.548696 z m -11.117332,0.661813 c 1.484841,-2.189692 3.420991,-3.8385745 3.442334,-3.8555075 0.02593,-0.02328 0.05486,-0.04339 0.07236,-0.06879 0.02783,-0.02893 0.05098,-0.05927 0.0816,-0.08784 0.115887,0.136525 0.268851,0.275519 0.471416,0.390171 -1.128366,0.4801265 -4.06771,3.6219665 -4.06771,3.6219665 z M 41.543816,1.2382415 C 66.840448,-0.25965252 103.57802,15.729999 103.93574,15.892631 l 0.0247,0.0063 0.0208,0.0056 c 3.07798,1.22414 6.00286,2.420408 8.7436,3.564115 -0.647,-0.254707 -3.98216,-1.580446 -3.98745,-1.580446 -5.37104,-2.133246 -15.244242,-5.380919 -15.329252,-5.408435 -12.94589,-4.4672245 -18.60515,-5.2549775 -19.00838,-5.3064825 -1.53282,-0.249767 -2.11702,-0.316442 -2.1403,-0.317148 l -2.33292,-0.268816 c 0,0 1.27953,2.072215 1.28764,2.085622 -9.13835,-6.466056 -20.078345,-6.791317 -20.615627,-6.80437 h -0.024 c -2.203098,0 -4.128913,0.626886 -5.621163,1.345142 0.170746,-0.31362 0.745421,-1.388533 0.745421,-1.388533 l -1.811163,-0.07902 c -3.2385,-0.146402 -5.742162,-0.03316 -7.553676,0.145345 2.893483,-0.534811 5.148791,-0.653345 5.209823,-0.653345 z M 193.69652,49.700024 c -0.95215,-2.11878 -3.57505,-1.43016 -3.57505,-1.43016 -1.24037,0.25824 -2.6543,1.67887 -4.75757,2.30117 -4.51343,1.33738 -8.11812,-0.21766 -8.11812,-0.21766 -6.94972,-3.00355 -29.29325,-15.79527 -40.65446,-21.38327 0,0 -13.03302,-6.535211 -32.1885,-14.119228 0,0 -37.056842,-16.2828095 -62.928502,-14.74893152 0,0 -13.411941,0.596547 -17.606962,6.68937202 0,0 -0.716315,0.813858 -0.309104,1.694743 0,0 0.07881,0.252942 -0.0889,0.420865 0,0 -2.254885,2.0210645 -3.402365,3.8170565 -0.403084,0.652637 -0.851359,1.74907 -0.02385,2.517775 0,0 0.372498,0.289276 0.528638,0.542218 0.327554,0.535165 0.631401,1.331032 1.03766,1.806223 0.583883,0.698852 1.768969,1.907469 3.437079,1.617133 0.615315,-0.107246 0.747606,-0.339021 0.747606,-0.339021 0.834813,0.829734 2.190679,0.803982 2.190679,0.803982 -0.170464,-0.531636 -0.751311,-1.572332 -0.834708,-2.20204 -0.08929,-0.692854 0.112324,-1.355725 0.112324,-1.355725 0.235902,-0.786694 0.703757,-1.776942 1.219835,-2.276475 0.450638,-0.448379 1.607891,-0.961319 2.540142,-0.3175 0.743056,0.527405 1.629797,2.243315 0.891329,4.693356 -0.03323,0.185561 -0.84681,1.923344 -1.719263,2.186869 0,0 -0.08156,0.02646 -0.248991,0.02646 -0.586634,0 -1.680104,-0.613833 -1.680104,-0.613833 0,0 -0.0291,0.155575 0.127034,0.790223 0.09716,0.364067 0.225991,0.759177 0.330343,1.06821 0,0 -0.212513,0.380296 -0.350308,0.601488 -0.210857,0.378177 -0.388197,1.09996 0.06311,1.42875 0,0 1.935022,1.31656 3.813034,1.43157 1.293988,0.078 1.783715,-0.79481 1.783715,-0.79481 0.950841,-1.311625 1.670225,-2.430989 2.673525,-3.344683 2.744965,-2.5146 6.599415,-3.189465 6.599415,-3.189465 0.255764,-0.03316 4.46546,-1.204028 11.620857,4.519084 -2.043647,0.164041 -4.476049,0.651229 -6.333776,0.981429 -5.300488,0.945092 -8.702323,5.946775 -9.692216,7.981245 -2.576338,5.30895 2.690283,7.13916 2.690283,7.13916 0.04939,-0.0483 5.020733,-0.43956 7.421737,-5.72523 0,0 0.878771,-2.34103 3.212041,-1.58221 1.525411,0.4946 15.010341,5.20806 18.046701,6.0064 0,0 9.0297,2.35055 12.43048,-1.80164 5.43525,1.78329 10.53571,2.64689 23.899992,0.92216 2.31916,-0.30198 4.14337,-0.23283 4.14337,-0.23283 3.12209,0.23424 5.97077,2.33397 6.83472,3.71228 3.51296,5.62469 7.97172,16.79681 23.44773,15.43685 l 6.99876,-0.63465 c 4.27143,-0.25365 7.74911,-0.42122 11.27653,1.43651 1.536,0.8061 2.38972,1.10173 4.99428,3.58846 3.56552,3.39195 6.84812,7.06296 11.20951,5.06024 1.54835,-0.71261 3.2886,-3.47909 3.2886,-3.47909 -0.16828,-1.26295 -0.7306,-2.47756 -2.11773,-3.51332 3.96382,0.94192 12.90567,1.55187 16.36713,-4.49791 0.89394,-1.4097 0.99095,-2.66489 0.65229,-3.4216 z M 37.959593,4.9402915 c 0.171802,0.006 0.364067,0.01023 0.593019,0.01447 0.928513,0.01517 1.975204,-0.367242 2.671587,-0.691797 0.496359,-0.232481 0.817738,-0.434623 0.775759,-0.434623 -0.644173,-0.0067 -1.675696,-0.01623 -2.06093,-0.01623 -1.674635,0 -2.554816,0.948973 -2.562225,1.036814 -0.0063,0.05433 0.224015,0.07691 0.58279,0.09137" />
    <path
       id="path16"
       fill="#231f20"
       fill-opacity="1"
       fill-rule="nonzero"
       stroke="none"
       d="m 129.75942,73.912224 v 7.96854 c 0,2.06305 -0.22648,3.69324 -1.26647,5.05601 -1.69122,2.22004 -4.79284,3.49462 -13.44471,3.49462 l -0.09,8e-4 c -8.60496,0 -11.7221,-1.27741 -13.41191,-3.4918 -1.03998,-1.36419 -1.2647,-2.99649 -1.2647,-5.05813 v -7.96783 h 5.95383 v 7.741 c 0,2.07751 0.26141,3.29847 1.02305,4.36986 1.28764,1.81433 3.51085,2.46944 7.50852,2.46944 h 0.50554 c 4.18147,0 6.22088,-0.65511 7.50852,-2.47015 0.76164,-1.07421 1.02411,-2.34738 1.02411,-4.36351 v -7.74876 z m 59.21481,2.01683 c 2.23132,0 3.22051,0.20743 3.89961,0.71579 0.64488,0.48295 0.87524,1.22096 0.87524,2.36819 v 0.30057 c 0,1.0354 -0.24695,1.87607 -1.00683,2.40312 -0.74718,0.51682 -1.79317,0.63112 -3.6957,0.63112 h -11.80183 v -6.41879 z m 2.89595,8.32661 c 2.23767,-0.0744 4.13421,-0.41204 5.59541,-1.19944 1.51624,-0.81668 2.23873,-2.35797 2.23873,-3.9564 0,-2.13678 -0.95497,-3.50556 -2.69452,-4.27038 -1.54622,-0.68156 -3.45616,-0.9151 -7.26052,-0.9151 H 171.2916 v 15.99071 h 5.95312 v -5.54249 h 7.82073 l 8.9214,5.54249 h 7.25311 z m -104.082842,3.5112 v -5.20594 h 5.9249 v 7.3413 h -17.22861 c -3.23038,0 -5.77568,-0.37535 -7.6969,-1.14935 -3.20076,-1.29116 -4.66443,-3.65019 -4.66443,-6.87493 0,-3.04482 1.59385,-5.15726 3.62232,-6.29355 2.15724,-1.20897 4.58717,-1.67217 8.63459,-1.67217 h 16.7266 v 2.13536 h -14.8724 c -3.18735,0 -4.92372,0.48155 -6.24699,1.55787 -1.17616,0.95497 -1.80234,2.38584 -1.80234,4.30142 -0.001,1.98014 0.65828,3.4424 1.91523,4.4009 1.32715,1.0093 3.11468,1.45803 6.18314,1.45803 z M 25.532714,73.912224 v 7.79815 c 0,2.52272 -0.578802,4.05236 -1.777824,5.27932 -2.092113,2.14031 -6.105242,2.91324 -11.7832,2.91324 H 0 v -2.1463 h 11.021554 c 3.381692,0 5.666916,-0.55951 7.044795,-1.92158 1.043587,-1.03011 1.512817,-2.46662 1.512817,-4.60199 v -7.32084 z m 130.864606,12.5857 h -17.63924 l -2.92347,3.40501 h -3.45123 l 13.87088,-15.99071 h 5.86845 l 13.88322,15.99071 h -6.67526 z m -15.86583,-2.06657 h 14.08607 l -7.05379,-8.18939 z m -88.267816,2.06657 H 34.624573 l -2.923786,3.40501 H 28.249774 L 42.12237,73.912224 h 5.865638 l 13.88463,15.99071 h -6.67491 z M 36.398903,84.431354 H 50.48391 l -7.053086,-8.18939 z" />
  </g>
</svg>