<svg xmlns="http://www.w3.org/2000/svg" viewBox="0 0 400 114"><defs><style>.a{fill:#f0313b;}.b{fill:#fff;}</style></defs><path class="a" d="M400,5V77a5.00181,5.00181,0,0,1-5,5H305a5.00181,5.00181,0,0,0-5,5v22a5.00181,5.00181,0,0,1-5,5H105a5.00181,5.00181,0,0,1-5-5V87a5.00181,5.00181,0,0,0-5-5H5a5.00181,5.00181,0,0,1-5-5V5A5.00181,5.00181,0,0,1,5,0H395A5.00181,5.00181,0,0,1,400,5Z"/><path class="b" d="M280.22969,100.62385a8.00787,8.00787,0,0,1-5.87048-2.64775c-.75659-.82519-.72072-1.08649.15228-1.78375.22357-.17858.46386-.33626.69725-.50243,1.78769-1.27276,1.78905-1.27446,3.56031.02642a3.191,3.191,0,0,0,2.22058.76951,1.43,1.43,0,0,0,1.45359-1.212,1.33108,1.33108,0,0,0-.84583-1.52281c-.512-.25018-1.06345-.42056-1.59994-.61956a14.34156,14.34156,0,0,1-3.40137-1.62662,5.102,5.102,0,0,1,.07452-8.56443,8.42207,8.42207,0,0,1,10.1611,1.03705c.85608.893.84347,1.09426-.13672,1.89226-.22191.18069-.46094.34017-.69006.51208-1.73022,1.29782-1.73543,1.30551-3.53939.02434a2.39243,2.39243,0,0,0-2.08165-.53386,1.06493,1.06493,0,0,0-.81959.79255,1.0127,1.0127,0,0,0,.417,1.206,8.81421,8.81421,0,0,0,1.23508.59015,31.17141,31.17141,0,0,1,3.88608,1.82253c3.89061,2.33262,2.96343,7.01.24962,8.92814A8.1961,8.1961,0,0,1,280.22969,100.62385Z"/><path class="b" d="M253.499,81.70879a9.45035,9.45035,0,1,0,9.16182,9.67845A9.43665,9.43665,0,0,0,253.499,81.70879Zm-.23558,13.60238-.07489-.001a4.15535,4.15535,0,1,1,.016-8.31069q.07033.00015.14062.00265a4.15553,4.15553,0,0,1-.08171,8.309Z"/><path class="b" d="M225.64649,91.29471c0-2.34794-.00988-4.69595.00295-7.04381.01123-2.06169.02245-2.0619,2.15623-2.06787.5155-.00145,1.03115-.00783,1.54649.00113,1.62534.02821,1.71058.09571,1.71457,1.79054q.017,7.21562-.00433,14.43125c-.00576,1.647-.07986,1.69407-1.78261,1.71733-.74444.01017-1.49027.02411-2.23353-.00852-1.21282-.05325-1.367-.18138-1.38357-1.43276-.03255-2.462-.00955-4.92483-.00955-7.38729Z"/><path class="b" d="M207.15326,82.95387a11.41713,11.41713,0,0,0-3.85623-.76337c-1.83253.00318-3.66528-.02066-5.49758.00011-1.56839.01781-1.65265.08993-1.6714,1.66521-.02864,2.40443-.00749,4.80944-.00749,7.21421h.00656c0,2.57653-.02531,5.15343.01165,7.72944.01628,1.13327.18735,1.29708,1.31755,1.31043,2.11824.025,4.242.0675,6.3547-.0515a10.17527,10.17527,0,0,0,6.13265-2.38543C213.895,94.34657,214.066,85.41134,207.15326,82.95387Zm-.36613,10.48741c-.62612,1.43877-3.3941,2.50712-4.92084,2.02131-.56422-.17952-.611-.62391-.6157-1.08941-.011-1.08588-.00351-2.172-.00351-3.258h.00894c0-1.086.00273-2.172-.001-3.258-.00242-.70484.33846-1.06642,1.047-1.04432,1.62883.05073,3.29824.16758,4.27254,1.69182A5.07062,5.07062,0,0,1,206.78713,93.44128Z"/><path class="b" d="M183.12762,88.43286c0,1.54726.04873,3.09633-.00905,4.6414-.17987,4.80921-2.95905,7.48568-7.7662,7.52934-.34371.00311-.68825-.00074-1.03131-.02059-4.29826-.24875-6.67937-2.43183-7.05844-6.70977-.30868-3.48337-.08691-6.98708-.11426-10.48168-.007-.89011.44745-1.2213,1.28356-1.20547.85941.01626,1.72038-.02788,2.579.00222,1.2068.04234,1.34549.165,1.36216,1.44478.03139,2.40651.00633,4.81372.01412,7.22058a22.20638,22.20638,0,0,0,.06361,2.23247c.19518,1.8675,1.02808,2.656,2.72186,2.65466,1.661-.00126,2.507-.80939,2.7053-2.68144a23.92717,23.92717,0,0,0,.0565-2.40453c.01083-2.34954-.009-4.69948.02713-7.04858.01932-1.25677.15334-1.3678,1.38939-1.41192.85871-.03063,1.71972.00772,2.579-.01335.88582-.02171,1.22444.4157,1.21347,1.26627-.02141,1.66163-.00629,3.32371-.00629,4.98562Z"/><path class="b" d="M144.28054,93.38924c0-1.77518-.01411-3.55049.00639-5.32541.00915-.79219-.33008-1.15361-1.12479-1.14476-1.03064.01148-2.06169-.01078-3.09254-.02186a.95317.95317,0,0,1-1.08126-1.03955c-.00179-.11449-.01079-.22884-.01217-.34331-.04723-3.8968-.18859-3.30813,3.09661-3.32934,3.6655-.02367,7.3313-.0126,10.99693-.00021,1.75961.00595,1.83514.083,1.84006,1.8491.009,3.23017.176,2.85688-2.86184,2.87083-2.43357.01119-2.48069-.25566-2.47426,2.40521.00682,2.80589-.00218,5.61182-.00809,8.41774-.00507,2.39974-.00747,2.40018-2.4906,2.40054-.45819.00006-.91729.01215-1.37439-.01169-1.26538-.066-1.37811-.1537-1.39874-1.4019-.02935-1.77469-.00744-3.55022-.00744-5.32539Z"/><path class="b" d="M119.09845,100.61473a7.86245,7.86245,0,0,1-5.3153-2.64128c-.76688-.82658-.73721-1.07571.13616-1.78535a4.96455,4.96455,0,0,1,.41874-.30089,8.65628,8.65628,0,0,1,2.02557-1.26211c.90953-.27025,1.28047.7969,1.9423,1.19627a3.42027,3.42027,0,0,0,2.26008.65036,1.38374,1.38374,0,0,0,1.28693-1.1921,1.26119,1.26119,0,0,0-.70172-1.43505,14.59675,14.59675,0,0,0-1.58246-.66,15.31324,15.31324,0,0,1-3.564-1.68587,5.09865,5.09865,0,0,1,.09161-8.55546,8.37848,8.37848,0,0,1,10.03257.93011c.9693.95692.96614,1.19355-.04312,2.01284-.26679.21658-.54723.41641-.82262.62233-1.62006,1.21142-1.62428,1.21672-3.27338-.01856a2.69994,2.69994,0,0,0-1.71152-.69691,1.27815,1.27815,0,0,0-1.33072.88109c-.21941.67962.174,1.09637.71323,1.38312a12.68235,12.68235,0,0,0,1.268.53,28.32119,28.32119,0,0,1,3.42618,1.59413c4.14329,2.33362,3.14384,7.3343.14105,9.22236A9.15527,9.15527,0,0,1,119.09845,100.61473Z"/><path class="b" d="M370.77924,13.44372q6.28406,0,12.56813.001c.5164.00022,1.03643-.02253,1.54842.02885,1.11587.112,1.54662.49625,1.56243,1.64333q.07241,5.24886.01934,10.49905c-.01358,1.20313-.491,1.60422-1.70957,1.69929-.57082.04453-1.14715.02235-1.721.02277q-12.22377.00873-24.44758.01039A13.10091,13.10091,0,0,0,350.16,30.28827a13.99568,13.99568,0,0,0,.351,21.97734,7.10947,7.10947,0,0,0,3.991,1.42008,3.76848,3.76848,0,0,0,4.26576-3.89249c.07351-2.00571.02334-4.01586.03659-6.024a11.297,11.297,0,0,1,.07014-1.37266,1.25452,1.25452,0,0,1,1.24737-1.19237c.45688-.03563.917-.03995,1.37571-.04011q11.10469-.00368,22.20948-.00149c.40168,0,.80547-.01481,1.2046.01977,1.074.09306,1.42083.41879,1.54375,1.46242a10.35025,10.35025,0,0,1,.03436,1.20369q.00335,11.18842.002,22.37689a10.08723,10.08723,0,0,1-.02237,1.03207c-.11708,1.135-.46292,1.52275-1.62816,1.58085-1.4316.07141-2.86842.04782-4.303.04943-1.95121.00223-3.90321.023-5.85332-.02716-1.6425-.04223-2.0073-.42707-2.02913-2.08248-.03633-2.75374-.01161-5.50823-.04731-8.262-.03209-2.47582-.978-3.41753-3.46191-3.45211q-3.18454-.04437-6.37-.00526c-2.68087.03169-3.91547,1.23017-3.95664,3.87628-.03928,2.524.00013,5.04909-.01939,7.5735-.01547,2.00411-.35391,2.385-2.3294,2.18425-9.37006-.95218-16.64727-5.44433-21.43055-13.50666-5.34989-9.01737-5.48681-18.42322-.32293-27.52507,5.21317-9.18875,13.39083-13.9215,24.01026-14.19368,4.01458-.10289,8.034-.0167,12.05124-.0167Z"/><path class="b" d="M269.32979,41.05106q-.00088-12.13769.00013-24.2754c0-.51646-.01485-1.03458.02-1.549.09042-1.33779.4452-1.71451,1.80037-1.76854,1.37579-.05485,2.7547-.03752,4.13229-.03757q16.44528-.00066,32.89055.00447c.34439.00006.69061-.02138,1.03285.006,1.1972.09575,1.66567.508,1.71331,1.70415.06393,1.60458.02532,3.21309.0389,4.81983.03722,4.4029,2.73358,7.17727,7.1701,7.33743,1.4906.05382,2.98469.00118,4.4767.02821,1.78676.03238,2.12524.34978,2.13954,2.12408.0291,3.61529.02384,7.23088.02435,10.84635q.00192,12.74028-.0053,25.48056a14.939,14.939,0,0,1-.02952,1.54837c-.10711,1.02113-.493,1.49212-1.52063,1.50635-3.55762.04936-7.11694.0573-10.67418-.00314-1.219-.0207-1.5443-.4775-1.62193-1.76378-.03793-.62927-.02111-1.2621-.02115-1.89333-.0008-11.01861-.05324-22.03764.03423-33.05556.024-3.0217-.91581-4.89148-4.83779-4.80658-6.54067.14155-13.08649.04075-19.63019.0433-.45915.00017-.91921-.0055-1.37727.02015-1.36777.07656-1.7187.39005-1.787,1.76453-.0627,1.26-.04491,2.5244-.04672,3.78688q-.02353,16.4418-.04294,32.88361c-.00492,2.9555-.12216,3.06959-3.1328,3.08-2.81257.00971-5.62546.01537-8.43777-.01439-1.96925-.02086-2.29913-.35277-2.30207-2.33636Q269.31692,53.79136,269.32979,41.05106Z"/><path class="b" d="M262.2171,48.0055q0,8.77938-.00055,17.55877c-.00008.459.0114.91914-.01514,1.37688-.08486,1.46475-.43015,1.89145-1.848,1.90945q-5.07828.06459-10.1579-.00668c-1.441-.01987-1.82156-.439-1.85449-1.88909-.04419-1.95009-.02-3.90174-.02489-5.85271-.00156-.63119.00559-1.26253-.005-1.89357-.05-2.99353-1.08034-4.0702-4.03019-4.10775-3.55795-.04526-7.1166-.03875-10.67494-.057-1.20521-.0062-2.4125.02081-3.61508-.04044-1.34363-.06845-1.73711-.44358-1.75343-1.80347q-.06107-5.07746-.00572-10.156c.018-1.5369.39725-1.86739,2.01262-1.87739,4.30441-.02669,8.609-.01566,12.91355-.02722a17.64432,17.64432,0,0,0,2.23479-.07561,3.06243,3.06243,0,0,0,2.88084-3.10375c.078-2.465.07376-4.935.0204-7.401a3.075,3.075,0,0,0-3.00948-3.15979,93.27411,93.27411,0,0,0-12.38731.10086,13.99229,13.99229,0,0,0-12.26053,13.6276c-.12313,7.80207-.04773,15.60729-.061,23.41115-.00145.86065.01655,1.72341-.03625,2.5814-.08055,1.30917-.39864,1.70444-1.6431,1.72163q-5.16426.07138-10.33.00219c-1.37054-.01917-1.71746-.40279-1.75655-1.793-.05641-2.00694-.03753-4.01624-.03505-6.02452.00835-6.77093-.05008-13.543.0576-20.31246a26.65386,26.65386,0,0,1,6.40458-17.0693,27.23941,27.23941,0,0,1,20.48864-10.17182c4.18246-.17715,8.37812-.06552,12.56764-.0444,1.76332.00888,2.05194.34061,2.08538,2.17.02725,1.49147-.0204,2.9846.0209,4.47544.12018,4.33769,2.81133,7.05172,7.14612,7.20839,1.31859.04766,2.6398.01822,3.95979.02839,2.48546.01915,2.69121.19462,2.69747,2.61957.0156,6.02507.00513,12.0502.00513,18.0753Z"/><path class="b" d="M200.02823,34.30639q0,8.77945-.00059,17.55891c-.00009.459.01415.91965-.01764,1.3768-.09168,1.31817-.47082,1.7296-1.80777,1.77591-1.66272.0576-3.32834.03927-4.9927.04137a6.88309,6.88309,0,0,0-3.62132.934,6.46479,6.46479,0,0,0-3.3519,5.48024c-.08064,1.77565-.01484,3.55744-.05751,5.33544-.03953,1.64745-.39175,2.0211-2.06107,2.02663-4.36158.01444-8.72906.11741-13.08392-.0627a28.16591,28.16591,0,0,1-26.35406-24.14071,15.73378,15.73378,0,0,1-.143-2.05888c.00194-1.415.30044-1.75446,1.69613-1.78763,2.00777-.04774,4.01727-.02469,6.026-.02844,1.32006-.00247,2.64058-.0206,3.96006.00746,1.61421.03431,1.88223.24839,2.12178,1.85546a14.41128,14.41128,0,0,0,2.30032,6.06016,13.68664,13.68664,0,0,0,11.29485,6.25128c3.43751.14721,6.88623.06106,10.3296.0335,2.54477-.02036,3.84055-1.288,3.84768-3.81876q.03053-10.84507-.01791-21.69032c-.00548-1.81665-.282-2.09242-2.1215-2.09785-7.51858-.02223-15.03725-.01786-22.55585-.029-2.82369-.00417-2.99643-.18143-3.00074-3.045-.00422-2.8117-.01114-5.62352.01022-8.4351.01588-2.08736.31673-2.40579,2.39959-2.41081q12.91359-.03112,25.82728-.02411c3.67321-.00254,7.34648-.01754,11.01964-.00226,1.962.00815,2.3359.36674,2.34107,2.30266.01653,6.1972.00616,12.3945.00616,18.59175Z"/><path class="b" d="M110.48449,13.5152c-15.28343-.03815-28.84523,11.8523-28.75721,28.522.08743,16.558,13.54434,28.33259,28.876,28.23525a28.37921,28.37921,0,1,0-.11875-56.75723Zm.0071,42.14816c-6.55286.00364-14.00233-5.5783-13.80572-13.83079a13.7364,13.7364,0,1,1,13.80572,13.83079Z"/><path class="b" d="M13.51988,41.11152q0-12.31086.0047-24.62173c.00469-2.87722.16418-3.03875,3.01027-3.04146q21.527-.02051,43.054-.01353c2.06114.0004,2.36366.32134,2.39718,2.42144.0238,1.49194-.01523,2.98567.03993,4.47616a6.77817,6.77817,0,0,0,6.69647,6.91868c1.65784.11443,3.328.04044,4.99213.07612,1.797.03852,2.04939.30467,2.12207,2.13943.01137.28664.01239.57383.01247.86076q.00432,17.64834.00423,35.29668c-.00158,3.2118-.0499,3.24957-3.28974,3.26017q-3.78871.01236-7.57745-.01166c-2.96088-.02069-3.03087-.09046-3.032-2.98084q-.00659-16.87367-.00343-33.74735c0-.40175.01018-.80387-.00321-1.20519a3.329,3.329,0,0,0-3.548-3.56756c-1.08962-.032-2.18238-.03167-3.27158.01034a3.34773,3.34773,0,0,0-3.482,3.47659c-.03516.62965-.02128,1.26231-.02172,1.8936q-.00641,9.21165-.01056,18.42326c-.00046.68869.01794,1.37909-.02307,2.06567-.075,1.25525-.44257,1.71282-1.65149,1.72825q-5.25132.06705-10.50391-.00754c-1.2165-.01879-1.58169-.48679-1.66785-1.72683-.03575-.51435-.01843-1.03265-.019-1.54914q-.0112-9.81428-.0222-19.62854a13.12088,13.12088,0,0,0-.05025-1.71908,3.25128,3.25128,0,0,0-3.10179-2.93609,33.39881,33.39881,0,0,0-3.95853.00271,3.1568,3.1568,0,0,0-3.15611,3.21043c-.05842,1.26029-.03349,2.52474-.03457,3.78735q-.01343,15.66842-.02277,31.33681c-.00035.45913.01748.92-.01557,1.377-.09,1.24451-.45629,1.713-1.67232,1.72878q-5.25117.06813-10.50381-.01831c-1.23915-.02079-1.58295-.457-1.6812-1.71692-.04454-.5709-.02489-1.1472-.025-1.72107q-.00183-12.13872-.00083-24.27744Z"/></svg>