<?xml version="1.0" encoding="UTF-8" standalone="no"?>
<!-- Created with Inkscape (http://www.inkscape.org/) -->

<svg
   version="1.1"
   id="svg2"
   xml:space="preserve"
   width="2654.6663"
   height="1674.1064"
   viewBox="0 0 2654.6662 1674.1065"
   sodipodi:docname="58c3c297a9c94f90d934403ab0d2d172.ai"
   xmlns:inkscape="http://www.inkscape.org/namespaces/inkscape"
   xmlns:sodipodi="http://sodipodi.sourceforge.net/DTD/sodipodi-0.dtd"
   xmlns="http://www.w3.org/2000/svg"
   xmlns:svg="http://www.w3.org/2000/svg"><defs
     id="defs6"><clipPath
       clipPathUnits="userSpaceOnUse"
       id="clipPath16"><path
         d="M 0,1255.58 H 1991 V 0 H 0 Z"
         id="path14" /></clipPath></defs><sodipodi:namedview
     id="namedview4"
     pagecolor="#ffffff"
     bordercolor="#666666"
     borderopacity="1.0"
     inkscape:pageshadow="2"
     inkscape:pageopacity="0.0"
     inkscape:pagecheckerboard="0" /><g
     id="g8"
     inkscape:groupmode="layer"
     inkscape:label="58c3c297a9c94f90d934403ab0d2d172"
     transform="matrix(1.3333333,0,0,-1.3333333,0,1674.1065)"><g
       id="g10"><g
         id="g12"
         clip-path="url(#clipPath16)"><g
           id="g18"
           transform="translate(1450.9325,800.0898)"><path
             d="M 0,0 C 0,251.552 -203.973,455.468 -455.413,455.468 -706.85,455.468 -910.823,251.552 -910.823,0 v -0.453 -354.473 c 0,-8.1 6.514,-14.727 14.728,-14.727 h 881.367 c 8.101,0 14.728,6.627 14.728,14.727 z"
             style="fill:#ffffff;fill-opacity:1;fill-rule:nonzero;stroke:none"
             id="path20" /></g><g
           id="g22"
           transform="translate(1357.4423,816.6689)"><path
             d="m 0,0 c -15.523,38.404 -148.349,9.573 -333.235,-89.609 -180.578,-96.917 -286.953,-209.071 -271.036,-242.376 16.937,-35.289 202.386,-10.48 351.302,71.993 C -51.035,-148.235 19.371,-47.75 0,0"
             style="fill:#23201f;fill-opacity:1;fill-rule:nonzero;stroke:none"
             id="path24" /></g><g
           id="g26"
           transform="translate(923.1526,537.4243)"><path
             d="m 0,0 c -31.723,-0.623 -60.837,12.008 -81.794,32.739 41.801,42.087 105.355,88.704 181.089,129.883 6.852,-14.33 11.101,-30.19 11.44,-47.127 C 111.924,53.018 62.42,1.359 0,0"
             style="fill:#ffffff;fill-opacity:1;fill-rule:nonzero;stroke:none"
             id="path28" /></g><g
           id="g30"
           transform="translate(637.7451,454.3965)"><path
             d="m 0,0 c 8.38,-8.61 15.914,-14.954 36.308,-22.318 0.394,-0.113 4.926,-1.642 4.926,-1.642 H -82.928 c -8.156,0 -14.669,6.627 -14.669,14.727 v 354.473 0.453 c 0,152.37 74.769,287.294 189.753,369.993 l -5.265,-6.231 C 74.711,693.935 76.297,679.151 83.661,659.496 88.474,646.241 73.974,631.118 66.272,622.678 33.193,586.313 0.508,537.317 -3.288,452.238 -6.742,374.468 16.197,305.476 24.014,269.055 c 8.27,-38.517 9.573,-51.092 10.085,-58.569 29.396,24.809 60.833,49.053 92.612,71.257 51.032,33.646 92.553,58.568 128.861,78.11 81.511,43.843 102.354,39.141 38.009,1.586 C 229.345,323.715 166.701,280.213 124.329,241.979 -42.202,91.875 -17.334,17.672 0,0"
             style="fill:#23201f;fill-opacity:1;fill-rule:nonzero;stroke:none"
             id="path32" /></g><g
           id="g34"
           transform="translate(1450.9325,445.1577)"><path
             d="m 0,0 c 0,-8.1 -6.627,-14.727 -14.728,-14.727 h -576.174 c 0,0 7.817,1.643 8.27,1.756 75.959,15.746 163.81,46.957 254.213,97.426 178.199,92.215 294.998,211.109 325.868,297.773 l 1.417,4.021 c 0,0 0.114,-1.302 0.284,-3.908 C -0.397,375.147 0,364.102 0,354.926 V 0"
             style="fill:#23201f;fill-opacity:1;fill-rule:nonzero;stroke:none"
             id="path36" /></g><g
           id="g38"
           transform="translate(796.5008,1209.8689)"><path
             d="m 0,0 v 0 c 60.097,29.284 127.672,45.711 198.984,45.711 210.714,0 388.063,-143.194 440.004,-337.537 -0.11,0.114 -6.738,6.458 -23.052,13.651 -11.16,4.928 -27.416,9.46 -49.335,13.595 -28.211,5.268 -56.927,6.797 -88.93,24.299 C 419.61,-208.504 342.293,-72.617 218.472,-36.705 159.278,-19.542 113.794,-26.566 95.046,-29.851 85.02,-31.607 64.401,-33.759 57.151,-24.187 42.482,-4.928 31.437,6.401 8.608,2.209 5.663,1.643 0,0 0,0"
             style="fill:#23201f;fill-opacity:1;fill-rule:nonzero;stroke:none"
             id="path40" /></g><g
           id="g42"
           transform="translate(232.8808,276.813)"><path
             d="m 0,0 h -232.881 v -57.135 h 83.239 v -214.997 h 66.076 V -57.135 H 0 Z"
             style="fill:#2a2726;fill-opacity:1;fill-rule:nonzero;stroke:none"
             id="path44" /></g><g
           id="g46"
           transform="translate(288.9581,98.747)"><path
             d="M 0,0 35.374,96.388 68.445,0 Z M 10.127,178.112 -105.724,-94.086 h 69.959 l 15.187,39.646 H 88.631 l 14.791,-39.646 h 73.442 L 65.684,178.112 Z"
             style="fill:#2a2726;fill-opacity:1;fill-rule:nonzero;stroke:none"
             id="path48" /></g><g
           id="g50"
           transform="translate(592.7482,61.4086)"><path
             d="m 0,0 c -43.525,0 -68.313,33.466 -68.313,79.292 0,46.288 25.577,80.081 70.681,80.081 26.429,0 43.92,-13.215 54.44,-29.519 l 53.585,38.462 c -24.066,30.376 -57.53,51.743 -108.025,51.743 -91.655,0 -140.242,-62.985 -140.242,-140.767 0,-77.715 48.194,-140.701 139.453,-140.701 53.256,0 88.629,20.579 113.94,49.376 L 60.686,28.797 C 49.048,12.821 29.588,0 0,0"
             style="fill:#2a2726;fill-opacity:1;fill-rule:nonzero;stroke:none"
             id="path52" /></g><g
           id="g54"
           transform="translate(850.9769,61.8339)"><path
             d="m 0,0 c -43.922,0 -69.563,33.402 -69.563,78.899 0,46.288 25.641,80.083 69.563,80.083 43.525,0 69.166,-33.795 69.166,-80.083 C 69.166,33.402 43.525,0 0,0 m 0,219.666 c -86.722,0 -139.19,-63.052 -139.19,-140.767 0,-77.715 52.468,-140.701 139.19,-140.701 85.868,0 138.795,62.986 138.795,140.701 0,77.715 -52.927,140.767 -138.795,140.767"
             style="fill:#2a2726;fill-opacity:1;fill-rule:nonzero;stroke:none"
             id="path56" /></g><g
           id="g58"
           transform="translate(1200.9186,60.9887)"><path
             d="M 0,0 H -39.262 V 56.359 H 1.182 c 35.383,0 50.507,-7.76 50.507,-28.344 C 51.689,6.246 40.049,0 0,0 m -39.262,162.501 h 26.042 c 31.897,0 44.719,-6.576 44.719,-26.042 0,-20.583 -12.495,-28.41 -37.287,-28.41 H -39.262 Z M 59.91,90.622 c 26.042,12.825 37.682,30.317 37.682,60.634 0,40.445 -31.828,64.121 -94.501,64.121 h -104.96 V -56.755 H 16.308 c 69.251,0 102.725,25.254 102.725,78.127 0,36.499 -20.652,61.03 -59.123,69.25"
             style="fill:#2a2726;fill-opacity:1;fill-rule:nonzero;stroke:none"
             id="path60" /></g><g
           id="g62"
           transform="translate(1412.6849,114.2714)"><path
             d="M 0,0 H 115.087 V 55.242 H 0 v 49.716 h 138.039 v 57.15 H -66.093 v -272.131 h 207.222 v 57.148 L 0,-52.875 Z"
             style="fill:#2a2726;fill-opacity:1;fill-rule:nonzero;stroke:none"
             id="path64" /></g><g
           id="g66"
           transform="translate(1652.3097,276.4199)"><path
             d="m 0,0 h -66.093 v -272.198 h 186.244 v 57.148 L 0,-215.05 Z"
             style="fill:#2a2726;fill-opacity:1;fill-rule:nonzero;stroke:none"
             id="path68" /></g><g
           id="g70"
           transform="translate(1870.8497,61.3701)"><path
             d="M 0,0 V 215.05 H -66.093 V -57.148 H 120.15 V 0 Z"
             style="fill:#2a2726;fill-opacity:1;fill-rule:nonzero;stroke:none"
             id="path72" /></g></g></g></g></svg>
