<?xml version="1.0" encoding="UTF-8" standalone="no"?>
<svg
   xmlns:dc="http://purl.org/dc/elements/1.1/"
   xmlns:cc="http://creativecommons.org/ns#"
   xmlns:rdf="http://www.w3.org/1999/02/22-rdf-syntax-ns#"
   xmlns:svg="http://www.w3.org/2000/svg"
   xmlns="http://www.w3.org/2000/svg"
   xmlns:sodipodi="http://sodipodi.sourceforge.net/DTD/sodipodi-0.dtd"
   xmlns:inkscape="http://www.inkscape.org/namespaces/inkscape"
   version="1.1"
   id="svg2"
   xml:space="preserve"
   width="2654.6667"
   height="706.01202"
   viewBox="0 0 2654.6667 706.01202"
   sodipodi:docname="KFC 2018 Bucket Alt with Wordmark 1.ai"><metadata
     id="metadata8"><rdf:RDF><cc:Work
         rdf:about=""><dc:format>image/svg+xml</dc:format><dc:type
           rdf:resource="http://purl.org/dc/dcmitype/StillImage" /></cc:Work></rdf:RDF></metadata><defs
     id="defs6"><clipPath
       clipPathUnits="userSpaceOnUse"
       id="clipPath18"><path
         d="M 0,529.509 H 1991 V 0 H 0 Z"
         id="path16" /></clipPath><clipPath
       clipPathUnits="userSpaceOnUse"
       id="clipPath50"><path
         d="m 26.645,512.213 c -5.256,0 -9.387,-4.481 -8.972,-9.708 v 0 L 55.8,22.156 c 0.208,-2.741 2.505,-4.859 5.256,-4.859 v 0 h 407.395 c 2.751,0 5.048,2.118 5.256,4.859 v 0 l 38.127,480.349 c 0.415,5.227 -3.716,9.708 -8.972,9.708 v 0 z"
         id="path48" /></clipPath></defs><sodipodi:namedview
     pagecolor="#ffffff"
     bordercolor="#666666"
     borderopacity="1"
     objecttolerance="10"
     gridtolerance="10"
     guidetolerance="10"
     inkscape:pageopacity="0"
     inkscape:pageshadow="2"
     inkscape:window-width="640"
     inkscape:window-height="480"
     id="namedview4" /><g
     id="g10"
     inkscape:groupmode="layer"
     inkscape:label="KFC 2018 Bucket Alt with Wordmark 1"
     transform="matrix(1.3333333,0,0,-1.3333333,0,706.012)"><g
       id="g12"><g
         id="g14"
         clip-path="url(#clipPath18)"><g
           id="g20"
           transform="translate(1981.8213,470.391)"><path
             d="m 0,0 c 6.484,-1.791 10.322,-8.362 8.874,-14.932 l -22.956,-103.33 c -1.11,-4.949 -5.458,-8.447 -10.494,-8.447 h -32.679 c -6.146,0 -11.011,5.205 -10.75,11.348 0.083,1.365 0.083,1.963 0.083,1.963 1.62,33.618 -19.711,58.875 -67.833,58.875 -80.035,0 -138.316,-65.701 -145.909,-152.052 -7.937,-89.08 54.437,-140.873 140.618,-140.787 44.2,0 79.181,8.446 98.81,14.675 7.765,2.475 15.441,-4.266 13.905,-12.287 l -10.156,-53.414 c -0.849,-4.522 -4.176,-8.277 -8.613,-9.641 -17.666,-5.633 -67.239,-18.858 -143.181,-18.858 -180.465,-0.085 -253.672,103.671 -242.324,209.561 10.066,94.115 72.442,232.94 318.183,232.94 C -67.323,15.614 -29.696,8.106 0,0"
             style="fill:#1d1819;fill-opacity:1;fill-rule:nonzero;stroke:none"
             id="path22" /></g><g
           id="g24"
           transform="translate(964.8998,470.1352)"><path
             d="m 0,0 c 1.198,5.375 5.89,9.13 11.347,9.13 h 177.226 c 6.911,0 12.113,-6.399 10.577,-13.14 l -5.968,-27.22 c -1.026,-4.607 -4.864,-7.935 -9.562,-8.446 -0.849,-0.086 -1.364,-0.086 -1.364,-0.086 -13.395,-1.792 -37.455,-6.143 -57.251,-21.587 L -22.352,-183.878 v -0.085 L 91.045,-337.38 c 22.014,-28.243 32.852,-33.362 54.949,-33.704 7.254,-0.17 12.457,-6.996 10.836,-14.079 l -6.228,-27.561 C 149.576,-417.587 145.311,-421 140.275,-421 H 51.964 c -97.784,0 -124.833,42.834 -206.233,191.729 0,0.084 0,0.084 -0.088,0 l -23.806,-108.621 c -3.582,-16.894 10.583,-25.854 20.993,-30.035 0.428,-0.17 0.855,-0.342 1.282,-0.512 4.948,-1.962 7.765,-7.252 6.567,-12.372 l -6.994,-31.827 c -1.11,-4.863 -5.463,-8.362 -10.499,-8.362 h -204.608 c -7.171,0 -12.547,6.656 -10.927,13.653 l 6.062,27.219 c 1.021,4.949 5.12,8.618 10.151,9.214 h 0.598 c 18.775,2.219 38.398,13.994 50.511,72.016 l 46.507,212.463 c 5.885,28.328 -8.191,39.079 -20.394,43.857 -0.171,0.085 -0.937,0.256 -1.964,0.683 -5.629,1.877 -8.957,7.679 -7.592,13.482 L -292.158,0 c 1.198,5.375 5.973,9.13 11.436,9.13 h 194.541 c 6.829,0 11.865,-6.315 10.411,-12.969 l -6.145,-27.988 c -0.937,-4.096 -3.921,-7.338 -8.02,-8.617 -0.428,-0.086 -0.937,-0.256 -1.448,-0.427 -9.129,-2.986 -23.467,-10.41 -27.904,-28.584 l -25.935,-118.177 c 0,-0.086 0.083,-0.171 0.083,-0.086 L 5.802,-62.288 c 9.045,7.508 6.743,17.491 -3.583,21.502 H 2.047 c -5.885,1.792 -9.385,7.85 -8.104,13.823 z"
             style="fill:#1d1819;fill-opacity:1;fill-rule:nonzero;stroke:none"
             id="path26" /></g><g
           id="g28"
           transform="translate(1510.0529,352.1292)"><path
             d="m 0,0 c -6.489,0 -11.52,5.631 -10.754,12.031 0.088,1.109 0.088,1.45 0.088,1.45 1.792,26.879 -7.426,42.663 -37.632,42.663 L -141.816,56.06 -166.814,-57.936 H -32.94 c 6.911,0 12.03,-6.315 10.499,-13.056 l -13.057,-58.79 c -1.025,-4.949 -5.462,-8.362 -10.41,-8.362 h -138.655 c 0,0 -15.447,-69.797 -15.957,-72.868 -5.202,-22.526 10.239,-34.216 20.478,-39.25 0.599,-0.256 1.109,-0.427 1.624,-0.768 4.437,-1.962 6.912,-6.741 5.802,-11.519 l -7.083,-32.083 c -1.109,-4.864 -5.462,-8.362 -10.41,-8.362 h -163.06 c -6.91,0 -11.946,6.315 -10.494,12.97 l 70.99,321.764 c 7.254,28.329 -9.297,39.934 -21.332,44.457 -0.339,0.17 -0.766,0.254 -1.11,0.426 -5.374,1.877 -8.447,7.508 -7.25,12.969 l 6.313,28.329 c 1.198,5.375 5.973,9.215 11.52,9.215 H 57.849 c 6.911,0 12.03,-6.4 10.494,-13.055 L 44.876,8.448 C 43.856,3.497 39.502,0 34.471,0 Z"
             style="fill:#1d1819;fill-opacity:1;fill-rule:nonzero;stroke:none"
             id="path30" /></g><g
           id="g32"
           transform="translate(507.4671,526.015)"><path
             d="m 0,0 h -485.425 c -10.815,0 -19.342,-9.208 -18.491,-19.966 l 38.523,-485.51 c 0.766,-9.624 8.811,-17.045 18.482,-17.045 h 408.387 c 9.681,0 17.726,7.421 18.492,17.045 l 38.514,485.51 C 19.342,-9.208 10.815,0 0,0"
             style="fill:#ffffff;fill-opacity:1;fill-rule:nonzero;stroke:none"
             id="path34" /></g><g
           id="g36"
           transform="translate(22.0418,522.5209)"><path
             d="m 0,0 c -4.253,0 -8.183,-1.72 -11.068,-4.842 -2.874,-3.109 -4.273,-7.142 -3.94,-11.355 l 38.523,-485.509 c 0.617,-7.753 7.205,-13.827 14.999,-13.827 h 408.388 c 7.799,0 14.392,6.074 15.009,13.828 l 38.513,485.509 c 0.337,4.212 -1.059,8.243 -3.929,11.352 C 493.611,-1.72 489.68,0 485.425,0 Z M 446.902,-522.521 H 38.514 c -11.413,0 -21.061,8.9 -21.964,20.261 l -38.524,485.512 c -0.482,6.089 1.623,12.157 5.773,16.649 C -12.039,4.405 -6.134,6.988 0,6.988 h 485.425 c 6.138,0 12.043,-2.585 16.204,-7.092 4.148,-4.492 6.248,-10.56 5.761,-16.646 l -38.514,-485.509 c -0.904,-11.362 -10.556,-20.262 -21.974,-20.262"
             style="fill:#000000;fill-opacity:1;fill-rule:nonzero;stroke:none"
             id="path38" /></g><g
           id="g40"
           transform="translate(186.0114,217.818)"><path
             d="m 0,0 c 0.199,-8.499 5.133,-30.951 33.645,-52.25 11.893,-8.887 17.348,-12.895 18.917,-13.982 l -0.009,-0.066 c 0.784,-0.549 -4.217,-0.416 -5.597,-0.549 -2.231,-0.217 -9.832,0.473 -15.92,-0.652 -5.492,-1.011 -4.745,-2.335 -5.294,-6.306 -0.425,-3.148 -0.019,-8.139 -0.179,-12.393 -0.161,-4.254 -0.397,-7.28 1.399,-9.331 1.777,-2.032 2.902,-2.354 10.437,-1.881 7.175,0.435 27.018,0.444 29.41,0.936 3.072,0.624 2.581,-0.482 0.813,-4.283 -3.035,-6.504 -12.923,-36.34 -28.285,-64.691 -2.156,-3.971 3.904,-2.089 9.075,-4.585 9.34,-4.509 9.038,-5.757 11.496,-1.059 2.656,5.096 16.137,36.832 18.226,46.635 0.274,1.276 0.823,2.382 1.031,0.463 0.151,-1.39 0.349,-41.473 -0.766,-54.122 -0.057,-0.671 0.104,-1.361 0.567,-1.853 0.671,-0.69 1.692,-0.974 2.562,-1.182 h 0.01 c 4.651,1.551 10.276,2.695 15.05,1.901 0.416,0.056 0.822,0.151 1.21,0.264 0.255,0.218 0.482,0.464 0.652,0.766 0.369,0.671 0.558,1.437 0.728,2.184 0.01,0.057 0.028,0.113 0.038,0.17 0.227,1.068 0.416,2.146 0.539,3.233 0.066,0.643 0.113,1.286 0.151,1.929 0.047,0.832 0.085,1.673 0.113,2.505 0.038,1.012 0.057,2.023 0.076,3.025 0.019,1.172 0.028,2.335 0.028,3.498 0,1.295 -0.019,2.6 -0.037,3.904 -0.019,1.418 -0.048,0.946 -0.095,2.364 -0.038,1.512 -0.094,3.034 -0.161,4.556 -0.066,1.598 -0.151,3.196 -0.236,4.803 -0.095,1.664 -0.198,3.328 -0.321,4.991 -0.123,1.711 -0.256,3.423 -0.407,5.134 -0.151,1.73 -0.321,3.469 -0.501,5.209 -0.189,1.739 -0.388,3.488 -0.605,5.227 -0.217,1.74 -0.454,3.47 -0.709,5.2 -0.255,1.711 -0.52,3.422 -0.822,5.124 -0.294,1.664 -0.606,2.373 -0.936,4.027 -0.331,1.598 -0.681,3.195 -1.069,4.784 -0.368,1.512 -0.765,3.025 -1.2,4.528 -0.341,1.191 -0.709,2.382 -1.106,3.564 -0.066,0.189 -0.388,1.815 -0.341,2.023 0.114,0.596 0.851,0.17 1.655,0.321 0,0 0.378,0.076 0.595,0.114 5.105,0.681 13.982,0.227 15.986,0.142 1.976,-0.057 12.073,-1.021 14.918,-1.286 2.827,-0.265 6.259,-0.926 6.107,7.648 -0.038,2.288 -0.047,3.649 -0.038,5.776 v 0.87 c 0.01,0.548 0.01,1.078 0.019,1.588 0.01,0.312 0.01,0.596 0.01,0.898 0.009,0.293 0.009,0.586 0.009,0.87 0.01,0.255 0.01,0.529 0.019,0.766 0.01,0.472 0.019,0.917 0.047,1.323 0,0.123 0,0.246 0.01,0.369 0,0.312 0.009,0.595 0.028,0.851 0,0.141 0.01,0.264 0.019,0.397 0.01,0.236 0.019,0.435 0.029,0.614 0.009,0.057 0.009,0.142 0.018,0.189 0.019,0.256 0.038,0.539 0.048,0.842 0.066,2.089 -0.208,5.927 -4.169,6.939 -4.566,1.144 -12.583,1.418 -19.806,0.794 -1.002,-0.095 -1.229,0 -0.917,0.274 l 0.01,0.066 c 1.55,1.106 11.968,6.863 23.889,17.527 13.103,11.76 19.361,18.019 23.369,26.518 0,0 14.342,27.84 13.623,51.408 -0.142,4.756 0.624,4.359 3.583,4.273 0.889,-0.028 4.283,0.218 6.107,1.418 6.088,1.39 11.458,22.169 11.458,22.169 0,0 9.142,31.547 11.354,44.451 1.976,11.477 1.512,18.18 -5.493,21.592 l -1.172,0.662 c -0.529,0.303 -0.785,0.917 -0.624,1.503 0.132,0.482 0.274,1.059 0.35,1.494 3.422,11.883 9.538,26.933 8.149,33.031 -0.246,1.758 -1.721,2.325 -2.241,2.675 -0.718,0.482 -3.422,3.508 -4.178,5.635 -0.114,0.312 -0.151,0.633 -0.18,0.964 -1.938,22.452 -9.917,50.615 -33.674,75.147 -0.037,0.019 -1.635,1.484 -2.609,2.373 -2.032,1.834 -4.642,4.112 -7.629,6.362 -6.334,4.727 -11.382,8.357 -21.791,13.556 -0.803,0.398 -8.621,3.952 -20.164,6.769 -1.087,0.293 -2.175,0.577 -3.271,0.832 -1.702,0.407 -4.349,0.889 -7.365,1.305 -7.118,1.115 -15.021,1.711 -23.237,1.21 v -0.01 c -0.973,-0.047 -2.117,-0.104 -2.429,-0.113 -0.482,0 -1.002,-0.028 -1.503,-0.047 -0.558,-0.019 -1.106,-0.038 -1.683,-0.057 -1.739,-0.085 -4.037,-0.35 -6.438,-0.69 -3.885,-0.558 -8.054,-1.342 -10.626,-1.938 -2.874,-0.7 -6.75,-1.513 -11.59,-2.893 -1.985,-0.586 -3.989,-1.21 -5.984,-1.853 -0.558,-0.179 -1.116,-0.35 -1.673,-0.529 -2.146,-0.709 -4.311,-1.437 -6.495,-2.231 -1.588,-0.549 -8.319,-3.47 -9.785,-4.141 -0.709,-0.331 -1.673,-0.747 -2.713,-1.163 -4.745,-1.512 -5.748,-4.254 -5.918,-5.766 -0.113,-0.965 -0.331,-1.929 -0.747,-2.808 -6.835,-14.54 -22.925,-15.949 -29.315,-16.27 -1.674,-0.076 -3.148,-0.321 -2.619,-1.947 1.361,-4.169 8.886,-11.95 13.49,-13.368 -0.066,-0.662 -3.942,-1.503 -4.755,-1.72 -1.853,-0.482 -9.482,0.189 -9.851,0.113 -0.037,-0.009 -0.066,-0.009 -0.094,-0.009 -8.65,-0.728 -11.307,-6.618 -12.082,-9.416 -0.236,-0.86 -0.094,-1.796 0.397,-2.553 1.91,-2.902 3.914,-5.275 5.427,-9.113 0.019,-0.038 0.037,-0.085 0.047,-0.123 0.397,-1.011 0.756,-2.127 1.068,-3.375 0.18,-1.645 1.494,-3.356 -0.161,-6.58 -2.949,-5.719 -10.323,-7.506 -11.429,-13.187 -1.569,-8.074 1.22,-13.349 4.273,-26.697 2.099,-9.142 4.358,-18.596 5.975,-22.888 0.085,-0.217 -0.048,-0.453 -0.284,-0.501 -0.643,-0.123 -1.768,-0.359 -2.146,-0.491 -4.273,-1.693 -5.615,-5.058 -6.097,-11.628 -1.069,-14.54 9.661,-36.964 12.989,-56.183 1.125,-6.485 4.103,-16.875 9.075,-21.129 1.144,-0.983 3.545,-1.607 5.039,-1.862 3.886,-0.681 5.568,1.777 5.795,-2.118 0.038,-0.813 0.322,-3.006 0.35,-4.235 C -7.393,13.689 0,0 0,0 m 6.693,230.914 c 0.842,1.305 2.893,3.215 4.944,4.699 2.146,1.531 12.725,9.454 22.547,12.441 1.815,0.548 2.279,0.822 3.441,1.106 1.475,0.378 2.723,3.545 -0.34,4.008 -3.214,0.473 -4.528,0.256 -6.239,0.199 -1.711,-0.029 -2.543,0.888 -1.295,2.231 1.257,1.361 3.535,2.741 7.544,4.349 8.735,3.478 24.229,5.341 31.461,5.984 9.426,0.813 10.569,0.784 16.695,0.312 5.758,-0.435 10.258,-1.503 12.394,-1.882 10.815,-1.957 23.284,-6.967 34.364,-13.046 5.833,-3.46 11.458,-7.326 16.686,-11.41 15.882,-12.375 34.118,-35.924 31.461,-85.508 -0.321,-5.852 -1.011,-9.104 -1.399,-10.513 -0.397,-1.437 -2.297,-3.885 -3.299,-0.643 -3.281,10.607 -7.497,29.307 -17.102,44.073 -1.333,2.061 -3.403,1.872 -3.195,-0.302 0.076,-0.908 0.52,-10.361 0.284,-12.186 -1.551,-12.186 2.174,-7.44 7.676,-20.514 1.702,-4.037 3.895,-12.035 4.443,-17.187 0.142,-1.295 0.322,-2.798 0.35,-4.235 0.038,-1.825 -0.87,-1.948 -0.87,-1.948 -3.753,0.01 -10.314,1.796 -13.849,1.91 -4.028,0.132 -31.944,0.416 -42.447,-0.416 -10.503,-0.804 -16.223,-4.576 -22.169,-9.444 -0.983,-0.813 -2.392,-1.56 -3.176,-1.957 -0.397,-0.199 -0.842,-0.265 -1.277,-0.18 -0.482,0.076 -1.266,0.227 -2.514,0.482 -2.562,0.53 -5.663,0.738 -8.168,-0.028 -2.505,-0.747 -3.678,-1.399 -6.381,0.18 -3.858,2.24 -9.766,11.231 -30.384,11.401 -11.676,0.094 -27,0.255 -36.019,-0.142 -2.911,-0.132 -4.434,-0.463 -5.18,-0.444 -0.066,0.34 -0.085,0.822 -0.085,0.917 -0.152,16.458 10.588,12.809 11.817,17.092 3.072,10.663 3.791,36.311 22.414,52.051 8.896,7.526 13.528,7.847 21.791,7.847 8.905,0 17.593,-2.326 22.017,-4.519 3.527,-1.749 5.275,-2.912 6.656,-1.891 1.389,1.059 5.095,4.415 6.627,5.569 1.531,1.181 0.954,3.006 -0.501,4.206 -1.39,1.125 -14.597,17.745 -34.856,21.092 -4.642,0.775 -8.064,1.474 -12.271,1.484 -2.288,0.085 -4.301,0.094 -9.595,-0.549 -7.752,-0.935 -17.886,-5.246 -24.409,-7.837 -0.35,0.369 1.002,2.562 1.408,3.148 m 159.53,-106.967 c -0.841,-0.908 -1.579,-0.36 -3.309,-0.785 -1.351,-0.331 -2.24,-1.087 -3.488,-0.983 -1.957,0.179 -2.921,2.524 -1.872,4.055 1.617,2.364 3.905,0.303 5.748,-0.019 0.908,-0.16 1.55,0.114 2.458,-0.217 0.898,-0.312 1.021,-1.153 0.463,-2.051 m -27.746,-8.282 c 0,0 -3.687,2.524 -4.869,4.566 -0.586,1.021 -0.454,1.863 1.116,1.882 5.53,0.056 10.597,0.179 13.065,-1.882 1.796,-1.512 1.843,-4.67 0.964,-6.702 -1.021,-2.326 -3.044,-1.674 -4.207,-1.503 -1.153,0.17 -6.069,3.639 -6.069,3.639 m 2.439,-9.869 c -1.05,-0.53 -4.992,0.794 -6.079,1.408 -2.184,1.22 -3.743,2.089 -6.674,4.595 -1.948,1.645 -5.493,2.42 -8.858,2.259 -2.572,-0.123 -5.133,-0.681 -7.109,-1.134 -1.948,-0.473 -2.099,1.295 -1.522,1.966 0.586,0.662 3.327,3.167 9.293,4.736 0.869,0.227 2.552,0.152 3.393,0.057 2.496,-0.274 5.474,-1.938 7.611,-4.018 2.146,-2.099 6.475,-5.785 8.82,-7.213 1.115,-0.671 3.602,-1.39 1.125,-2.656 M 55.644,64.332 c 0.624,-1.144 0.823,-3.072 0.643,-3.867 -0.18,-0.973 -3.602,-2.24 -6.438,2.005 -2.836,4.225 -1.513,9.415 0.18,11.457 2.675,3.281 6.768,0.898 6.173,-0.312 -2.042,-4.197 -1.135,-8.149 -0.558,-9.283 m -39.384,47.23 c 0.681,0.549 0.974,0.558 3.262,1.815 1.626,0.898 3.488,2.014 5.36,3.234 3.403,2.202 9.832,4.49 12.564,4.462 1.976,-0.029 5.426,-0.87 7.26,-2.874 1.919,-2.089 2.439,-4.519 -0.056,-4.103 -2.477,0.425 -5.115,1.096 -9.88,0 -5.331,-1.22 -8.952,-3.252 -11.524,-4.415 -2.637,-1.21 -5.303,-1.503 -6.182,-1.465 -0.851,0.056 -3.271,1.352 -0.804,3.346 m -3.498,4.765 c -2.543,-1.607 -5.029,-3.47 -6.92,-4.699 -2.306,-1.522 -5.549,-0.066 -4.594,3.177 0.463,1.569 2.694,5.596 6.447,6.305 0.492,0.104 2.354,0.454 3.905,0.643 1.824,0.199 3.753,0.36 4.745,0.407 2.657,0.113 2.94,-2.023 1.144,-3.12 -1.2,-0.737 -3.044,-1.645 -4.727,-2.713 m -42.428,53.035 c 2.222,6.003 6.259,11.117 9.01,14.729 2.524,3.308 1.333,7.666 0.047,11.58 -0.832,3.602 -3.148,7.327 -3.498,8.31 -0.264,0.69 -0.264,1.248 -0.047,1.73 0.161,0.114 0.302,0.208 0.473,0.312 l 4.868,0.416 c 13.954,1.787 26.253,6.684 29.968,8.773 1.834,1.021 3.772,1.834 5.758,2.505 2.335,0.785 4.745,1.579 7.156,1.9 1.824,0.303 3.98,0.577 5.833,0.785 2.76,0.312 7.118,-1.617 6.154,-2.193 -2.335,-1.399 -13.178,-3.905 -22.717,-15.296 -5.842,-6.958 -7.204,-11.269 -9.17,-14.474 -1.995,-3.214 -3.592,-3.98 -6.4,-6.4 -1.371,-1.172 -4.16,-3.621 -5.53,-7.525 -1.39,-3.933 -6.713,-17.669 -7.412,-39.478 -0.076,-2.534 -0.511,-5.2 -2.912,-6.117 0,0 -0.009,-0.009 -0.019,-0.009 -1.976,-0.804 -3.564,-2.099 -3.895,-0.681 -1.266,4.784 -4.207,15.107 -5.426,21.649 -0.388,2.061 -0.851,4.103 -1.342,6.145 -1.333,5.568 -1.938,10.512 -0.899,13.339 M -17.943,66.138 c -3.98,2.647 -3.763,6.116 -4.774,9.538 -2.156,7.242 -4.462,15.968 -6.457,23.379 -1.21,4.491 -1.513,15.013 4.576,15.013 3.063,0 5.35,-0.965 6.334,-3.858 2.183,-6.428 -1.929,-5.303 -0.88,-12.904 0.757,-5.369 1.778,-10.663 3.47,-19.796 0.785,-4.197 2.155,-14.322 -1.541,-11.855 m 14.577,56.647 c -1.247,-0.133 -2.287,0.624 -3.649,0.917 -1.569,0.34 -2.524,-0.133 -3.176,0.728 -0.577,0.888 -0.473,1.73 0.425,2.07 0.898,0.331 1.551,0.085 2.449,0.255 1.843,0.35 4.084,2.458 5.748,0.123 1.077,-1.522 0.151,-3.876 -1.797,-4.093 M 0.217,78.03 c -0.548,2.373 0.511,5.937 6.117,2.345 0.898,-0.577 3.526,-1.768 6.457,-2.609 1.768,-0.511 2.921,0.236 3.422,1.522 0.52,1.276 1.966,3.828 -0.52,5.048 -2.486,1.238 -8.631,2.307 -12.138,10.938 -0.624,1.541 0.434,3.318 1.418,3.772 1.002,0.444 2.231,0.217 3.384,-0.87 1.134,-1.068 3.583,-3.432 5.776,-3.526 2.023,-0.095 2.354,0.728 2.77,1.21 1.692,1.9 6.561,9.019 16.648,7.78 4.169,-0.51 8.007,-1.437 9.406,-1.541 0.993,-0.066 3.772,-0.189 6.419,0.312 3.025,0.567 7.535,1.503 5.323,-1.049 -1.797,-2.071 -3.29,-2.931 -1.721,-5.181 0.085,-0.113 0.161,-0.227 0.236,-0.331 1.419,-1.994 1.456,-4.651 0.019,-6.636 l -0.17,-0.255 c -2.231,-2.893 -6.844,-6.23 -16.383,-6.835 -4.349,-0.274 -4.613,-0.114 -4.708,-2.6 -0.038,-0.955 -0.019,-1.465 0.114,-2.127 0.264,-1.257 1.068,-1.768 4.084,-1.957 2.183,-0.132 6.182,0.293 6.192,0.293 0.983,0.293 2.136,-0.331 1.512,-1.153 C 43.77,74.457 43.373,73.861 43.307,73.767 41.142,70.978 40.462,68.416 40.263,66.894 40.093,65.599 39.346,64.445 38.202,63.85 38.183,63.84 38.174,63.831 38.155,63.831 36.765,63.112 31.14,61.902 26.716,58.244 22.301,54.585 13.093,51.57 9.132,56.07 5.171,60.541 1.938,70.571 0.217,78.03 M 41.691,-27.444 C 33.797,-27.68 13.169,-15.23 4.169,20.108 c -2.335,9.094 3.394,16.468 6.948,17.735 2.109,0.775 3.215,1.021 3.924,1.115 0.728,0.085 4.32,0.067 4.197,-3.989 -0.123,-3.29 2.6,-30.705 9.756,-40.622 1.778,-2.458 3.422,-2.553 4.236,-0.378 0.746,2.023 1.994,4.622 2.391,5.615 0.293,0.709 2.893,4.689 3.668,1.664 1.636,-6.419 5.483,-19.626 7.1,-23.039 2.685,-5.653 -1.739,-5.558 -4.698,-5.653 m 4.953,57.28 c -10.304,0.123 -15.069,3.961 -15.806,5.105 -0.709,1.115 0.482,1.975 1.56,2.325 2.429,0.766 6.749,2.95 8.508,4.283 1.758,1.314 6.617,4.339 9.066,5.918 1.153,0.756 7.78,3.639 11.647,0.936 5.814,-4.056 11.25,-6.76 21.195,-6.155 6.39,0.388 6.249,5.55 11.448,7.194 4.708,1.485 5.606,2.638 7.081,3.498 1.9,0.378 3.299,0.861 5.36,-1.058 2.609,-2.43 3.555,-4.349 6.58,-7.762 4.141,-4.67 8.697,-6.844 10.115,-7.128 1.399,-0.284 2.411,-1.427 2.43,-1.9 0.009,-0.463 -0.567,-1.919 -4.736,-3.11 -13.926,-3.99 -29.004,-1.428 -36.766,1.673 -3.932,1.569 -7.77,2.004 -12.091,-0.123 C 67.877,31.396 56.259,29.713 46.644,29.836 M 98.705,21.233 C 96.323,20.363 89.479,18.775 86.16,18.567 82.814,18.378 72.188,17.659 70.411,17.744 c -2.184,0.133 -5.143,1.201 -7.544,3.394 -0.482,0.445 -1.002,1.976 0.954,2.004 3.64,0.067 9.785,2.014 30.952,0.218 2.259,-0.18 3.337,-0.284 3.866,-0.331 0.558,-0.057 2.43,-0.955 0.066,-1.796 m 90.472,81.868 c -2.799,-14.832 -5.909,-22.272 -7.913,-31.424 -2.08,-9.51 -6.164,-23.416 -10.134,-23.775 -4.009,-1.211 -5.616,3.422 -8.187,0 -1.532,-2.042 -2.723,-4.746 -4.084,-6.486 -0.87,-1.134 -1.73,-3.677 -1.749,-5.057 0,-2.685 -0.151,-11.326 -2.543,-22.661 -3.611,-17.111 -10.172,-29.571 -16.988,-37.436 -13.065,-15.069 -25.298,-17.489 -26.754,-18.255 -1.872,-0.993 -4.699,-0.407 -5.625,0.038 -0.945,0.425 -1.664,1.55 -3.28,3.129 -1.664,1.56 -2.241,-0.813 -2.307,-1.409 -0.066,-0.567 0.841,-7.695 -0.974,-10.919 -3.914,-6.939 -7.676,-7.544 -9.775,-16.184 -0.709,-2.912 -0.217,-7.317 -3.696,-5.323 -8.518,4.869 -20.723,18.038 -23.256,30.81 -0.766,3.885 -0.047,8.224 2.325,15.627 1.371,4.339 2.345,9.17 2.345,11.949 0,4.935 -1.929,9.123 0,9.558 3.583,0.794 5.209,-8.471 6.873,-7.507 2.883,1.664 0.737,11.439 0.737,11.439 0,0 -1.182,2.78 -6.249,3.971 -2.911,0.681 -3.828,2.864 -0.728,4.386 2.326,1.135 5.02,2.638 8.159,2.165 21.006,-2.978 27.047,1.248 35.536,3.536 1.673,0.444 2.656,0.633 3.961,0.019 1.295,-0.605 4.784,-2.505 5.493,-4.302 0.718,-1.767 -0.029,-8.744 1.087,-13.982 1.134,-5.275 4.84,-0.482 5.757,1.598 0.927,2.061 1.881,7.157 2.07,8.452 0.208,1.285 1.286,6.702 3.234,8.319 3.847,3.195 5.199,7.393 5.823,9.038 0.633,1.644 1.635,6.712 1.456,14.114 -0.18,7.383 -1.513,8.187 -3.299,9.775 -1.768,1.579 -3.886,1.276 -8.386,5.398 -4.008,3.677 -7.317,9.633 -10.219,13.377 -2.912,3.725 -7.733,7.742 -13.245,9.094 -5.483,1.324 -3.205,-3.743 -2.911,-5.161 0.226,-1.003 1.522,-5.493 -0.312,-6.977 -1.787,-1.475 -12.886,-8.934 -22.793,-6.353 -11.798,3.082 -15.873,9.652 -16.109,15.995 -0.17,4.5 1.985,8.83 4.67,13.992 1.569,3.006 2.203,8.045 2.836,12.866 0.501,3.857 1.541,9.435 2.382,11.42 0.605,1.437 2.023,2.988 5.228,2.808 3.158,-0.18 5.238,-1.758 5.814,-4.481 2.052,-9.492 5.398,-11.893 6.533,-12.659 1.144,-0.765 3.29,0.766 4.121,1.324 0.842,0.548 2.997,2.723 2.317,3.885 -1.021,1.806 -1.589,2.884 -1.815,3.943 -0.388,1.805 1.862,1.588 2.325,1.219 3.696,-2.912 7.185,-3.167 13.576,-4.226 11.183,-1.871 12.781,2.25 20.457,0.917 1.002,-0.17 2.893,-1.002 3.507,-2.155 0.52,-0.983 1.447,-3.252 2.383,-3.649 0.936,-0.359 3.214,-0.501 4.386,-0.719 1.626,-0.274 4.547,-0.085 4.046,-3.091 -1.247,-8.054 -10.531,-10.267 -14.88,-11.013 -1.786,-0.312 -2.609,-0.464 -2.902,-0.719 -0.945,-0.822 -0.974,-3.347 0.104,-4.973 0.766,-1.143 4.273,-1.219 9.085,-0.293 5.02,0.965 9.832,3.375 13.632,9.303 4.027,6.277 6.24,20.098 6.712,22.679 0.454,2.581 1.484,6.901 2.912,7.78 1.399,0.889 7.941,2.874 8.868,2.714 1.096,-0.19 1.89,-0.719 2.41,-3.253 0.52,-2.552 -0.444,-17.782 -0.463,-20.079 -0.028,-2.448 1.229,-2.43 1.929,-2.108 1.521,0.709 5.596,3.422 6.523,6.551 0.68,2.335 -1.286,5.72 -0.294,8.943 1.532,5.02 3.044,6.353 4.084,6.249 6.391,-0.605 7.696,-3.403 6.174,-11.514"
             style="fill:#232020;fill-opacity:1;fill-rule:nonzero;stroke:none"
             id="path42" /></g></g></g><g
       id="g44"><g
         id="g46"
         clip-path="url(#clipPath50)"><path
           d="M 418.583,128.141 H 526.005 V 523.936 H 418.583 Z"
           style="fill:#ed302a;fill-opacity:1;fill-rule:nonzero;stroke:none"
           id="path52" /><path
           d="M 3.408,128.141 H 110.83 V 523.936 H 3.408 Z"
           style="fill:#ed302a;fill-opacity:1;fill-rule:nonzero;stroke:none"
           id="path54" /></g></g></g></svg>
