<?xml version="1.0" encoding="UTF-8"?>
<svg width="773.15" height="1e3" version="1.1" viewBox="0 0 204.56 264.58" xmlns="http://www.w3.org/2000/svg">
 <g transform="translate(132.01 178.62)">
  <g id="TESLA" transform="matrix(.73406 0 0 .73406 -152.95 -226.18)">
   <g fill="#e82127">
    <polyline points="266.6 403.28 266.6 425.19 273.63 425.19 273.63 410.6 299.2 410.6 299.2 425.19 306.22 425.19 306.22 403.32 266.6 403.28"/>
    <path d="m272.84 396.19h27.02c3.753-.746 6.544-4.058 7.331-7.262h-41.681c.779 3.205 3.611 6.516 7.33 7.262"/>
   </g>
   <path d="m245.32 425.21c3.543-1.502 5.449-4.1 6.179-7.14h-31.517l.02-29.118-7.065.02v36.238h32.383" fill="#e82127"/>
   <path d="m160.4 396.09h24.954c3.762-1.093 6.921-3.959 7.691-7.136h-39.64v21.415h32.444v7.515l-25.449.02c-3.988 1.112-7.37 3.79-9.057 7.327l2.062-.038h39.415v-21.944h-32.42v-7.159" fill="#e82127"/>
   <g fill="#e82127">
    <path d="m98.795 396.16h27.011c3.758-.749 6.551-4.058 7.334-7.265h-41.679c.778 3.207 3.612 6.516 7.334 7.265"/>
    <path d="m98.795 410.48h27.011c3.758-.741 6.551-4.053 7.334-7.262h-41.679c.778 3.21 3.612 6.521 7.334 7.262"/>
    <path d="m98.795 425.2h27.011c3.758-.747 6.551-4.058 7.334-7.263h-41.679c.778 3.206 3.612 6.516 7.334 7.263"/>
   </g>
   <path d="m28.524 388.99c.812 3.167 3.554 6.404 7.316 7.215h11.37l.58.229v28.691h7.1v-28.691l.645-.229h11.38c3.804-.98 6.487-4.048 7.285-7.215v-.07h-45.676v.07" fill="#e82127"/>
  </g>
  <g id="T" transform="matrix(.73406 0 0 .73406 -152.95 -226.18)" fill="#e82127">
   <path d="m173.15 317.3 35.476-199.52c33.815 0 44.481 3.708 46.021 18.843 0 0 22.684-8.458 34.125-25.636-44.646-20.688-89.505-21.621-89.505-21.621l-26.176 31.882.059-.004-26.176-31.883s-44.86.934-89.5 21.622c11.431 17.178 34.124 25.636 34.124 25.636 1.549-15.136 12.202-18.844 45.79-18.868l35.762 199.55"/>
   <path d="m173.13 80.157c36.09-.276 77.399 5.583 119.69 24.014 5.652-10.173 7.105-14.669 7.105-14.669-46.227-18.289-89.518-24.548-126.8-24.705-37.277.157-80.566 6.417-126.79 24.705 0 0 2.062 5.538 7.1 14.669 42.28-18.431 83.596-24.29 119.69-24.014h.005"/>
  </g>
 </g>
</svg>
