<?xml version="1.0" encoding="utf-8"?>
<!-- Generator: Adobe Illustrator 23.0.2, SVG Export Plug-In . SVG Version: 6.00 Build 0)  -->
<svg version="1.1"
	 id="svg8" inkscape:version="0.92.3 (2405546, 2018-03-11)" sodipodi:docname="Porsche_logo.svg" xmlns:cc="http://creativecommons.org/ns#" xmlns:dc="http://purl.org/dc/elements/1.1/" xmlns:inkscape="http://www.inkscape.org/namespaces/inkscape" xmlns:rdf="http://www.w3.org/1999/02/22-rdf-syntax-ns#" xmlns:sodipodi="http://sodipodi.sourceforge.net/DTD/sodipodi-0.dtd" xmlns:svg="http://www.w3.org/2000/svg"
	 xmlns="http://www.w3.org/2000/svg" xmlns:xlink="http://www.w3.org/1999/xlink" x="0px" y="0px"
	 viewBox="0 0 154.4999847 10.6102571" style="enable-background:new 0 0 154.4999847 10.6102571;" xml:space="preserve">
<sodipodi:namedview  bordercolor="#666666" borderopacity="1.0" fit-margin-bottom="0" fit-margin-left="0" fit-margin-right="0" fit-margin-top="0" id="base" inkscape:current-layer="layer1" inkscape:cx="133.93448" inkscape:cy="56.077336" inkscape:document-units="mm" inkscape:pageopacity="0" inkscape:pageshadow="2" inkscape:window-height="1001" inkscape:window-maximized="1" inkscape:window-width="1920" inkscape:window-x="-9" inkscape:window-y="-9" inkscape:zoom="2.56" pagecolor="#00ffff" showgrid="false">
	</sodipodi:namedview>
<g id="layer1" transform="translate(-87.262892,-206.79415)" inkscape:groupmode="layer" inkscape:label="Layer 1">
	<g id="g6902" transform="matrix(0.26458333,0,0,0.26458333,80.383725,199.91472)">
		<path id="path5229" inkscape:connector-curvature="0" d="M540.7524414,33.5355186v8.7874069h69.1852417v7.4891396h-69.1852417
			v8.7874069h69.1852417v7.4664536h-77.9868164V26.069025h77.9868164v7.4664745L540.7524414,33.5355186z M512.7574463,42.2634087
			h-53.4586487V26.001009h-8.7874146v39.9884033h8.7874146V51.0593185h53.4558411v14.9300919h8.7874146V26.001009h-8.7874146
			L512.7574463,42.2634087z M367.7197876,34.8933258v22.3228607c-0.031311,4.8765297,3.8965149,8.8551407,8.7730103,8.8864594
			c0.0161438,0.0000839,0.0322876,0.0001755,0.0484009,0.0001755l63.7144165-0.0651855v-8.7874069H377.731781
			c-0.6044922-0.0125237-1.101593-0.4802208-1.1508789-1.0828476V36.0923958
			c0.0912781-0.7199516,0.7116699-1.2546501,1.4371948-1.2387314h62.2375183v-8.7874069h-63.6095276
			c-4.9022827-0.0188599-8.8950806,3.9333687-8.9263,8.8355904V34.8933258z M348.3534546,42.3087616l-56.1260681,0.022686l0,0
			c-0.7704468,0.0454369-1.4318848-0.5422897-1.4773254-1.3127594c-0.0013428-0.0225563-0.0021057-0.0451355-0.0023499-0.0677147
			v-5.9924431c-0.0005798-0.7827759,0.6335144-1.417778,1.4162903-1.4183388
			c0.0183105-0.0000229,0.0365906,0.0003242,0.0548706,0.0010147h63.7002258v-7.469305h-65.3188171
			c-4.8476868,0.0575924-8.7329102,4.0303211-8.6825256,8.8781109v5.9952736c0,4.9079552,3.9786682,8.886631,8.8865967,8.886631
			c0.0000305,0,0.0000305,0,0.0000305,0l56.1260376-0.0198517c0.7821655-0.0315323,1.4417114,0.5769539,1.4732666,1.3590851
			c0.0003357,0.0080643,0.0005798,0.0161514,0.0007629,0.0242195l0,0v6.0179634
			c-0.0048523,0.7686539-0.6318359,1.387867-1.4005432,1.3830452c-0.0254211-0.0001488-0.0509033-0.0010147-0.0762939-0.0025711
			h-63.8051147v7.4664497h65.2337646c4.8943481,0.0093842,8.8699951-3.9498062,8.8809509-8.8441124l0,0v-6.0179634
			c-0.0170898-4.8992805-3.9844971-8.8666916-8.8837891-8.8837967L348.3534546,42.3087616z M271.7442322,65.8533325v0.1048889
			h-8.8441162v-1.5732117c0-4.9063721-3.9773865-8.8837929-8.8837738-8.8837929c-0.0000153,0-0.0000153,0-0.0000153,0h-49.0195465
			v10.5193748h-8.7873993V26.0350285h66.6142578l0,0c4.8750305-0.0062504,8.8321533,3.9407005,8.8384094,8.8157597
			c0,0.0009499,0,0.0018806,0,0.0028343v8.6683502c0.0292969,4.7707748-3.7363281,8.7020683-8.5039368,8.878109
			c5.2438049,2.4257126,8.5965881,7.6812286,8.5861511,13.4589195L271.7442322,65.8533325z M262.8406067,36.3729782
			c-0.0074768-0.8278465-0.671814-1.4997215-1.4995422-1.5165443l-56.3471375-0.0198555v11.8658333h56.508728
			c0.7628784-0.0570717,1.3479614-0.7006607,1.3322754-1.4655075l0,0L262.8406067,36.3729782z M185.5907745,34.8706207v22.3228607
			l0,0c0.0250702,4.8609123-3.8951721,8.8217926-8.7560883,8.8468323c-0.0236664,0.0001297-0.047348,0.0001755-0.0709991,0.0000916
			h-56.2536316c-4.8952942,0.0345154-8.8917007-3.9059486-8.9261932-8.8012505
			c-0.0000458-0.0057945-0.0000763-0.01157-0.0001068-0.0173454V34.901783
			c0.0234299-4.9088821,4.020256-8.8701725,8.9291458-8.8497791h56.3896713l0,0
			C181.7291107,26.1064606,185.6082001,30.043787,185.5907745,34.8706207z M176.8231964,36.3729782
			c-0.0243073-0.8351555-0.7037506-1.502079-1.5392151-1.5108566h-53.4132919
			c-0.7255402-0.0159187-1.3458939,0.5187798-1.4371643,1.2387314v20.0749855
			c0.0467224,0.6038361,0.5452881,1.0729408,1.150856,1.0828438h53.8356628
			c0.7823181-0.0441399,1.399353-0.682148,1.4173126-1.4655075L176.8231964,36.3729782z M101.2486267,34.8706207v11.7921257
			c0.0063019,4.8766403-3.9418793,8.8350296-8.818512,8.8413467c-0.0151443,0.0000191-0.0302811,0-0.045433-0.0000648H34.7874413
			V66.031929h-8.7874107V26.0435276h66.3846359l0,0c4.8765793-0.0250435,8.8501282,3.9078922,8.8751755,8.7844639
			c0.0000687,0.0142097,0.0001144,0.0284195,0.0001144,0.0426292H101.2486267z M92.4413757,36.3786469
			c-0.006012-0.8284531-0.671196-1.501194-1.4995422-1.5165253l-56.1543922-0.0169983v11.8658295h56.3273125
			c0.768364-0.0456963,1.3598099-0.69627,1.3322906-1.4655075L92.4413757,36.3786469z"/>
	</g>
</g>
</svg>
